<svg version="1.1" xmlns="http://www.w3.org/2000/svg" viewBox="0 0 5563.134099715469 1003.6555180092312" width="5563.134099715469" height="1003.6555180092312" class="excalidraw-svg"><!-- svg-source:excalidraw --><metadata></metadata><defs><style class="style-fonts">
      </style></defs><rect x="0" y="0" width="5563.134099715469" height="1003.6555180092312" fill="#ffffff"></rect><g stroke-linecap="round" transform="translate(341.63719811688793 90.92615854752842) rotate(0 333.1785396491664 418.6088893076285)"><path d="M32 0 C247.01 2.02, 460.45 2.42, 634.36 0 M32 0 C211.9 0.78, 392.86 1.2, 634.36 0 M634.36 0 C656.8 -0.21, 666.98 8.81, 666.36 32 M634.36 0 C657.6 0.7, 665.88 10.41, 666.36 32 M666.36 32 C665.93 196.56, 665.46 359.62, 666.36 805.22 M666.36 32 C668.74 220.03, 669.13 407.42, 666.36 805.22 M666.36 805.22 C664.92 826.53, 657.11 838.02, 634.36 837.22 M666.36 805.22 C664.31 827.24, 654.06 835.9, 634.36 837.22 M634.36 837.22 C429.53 835.54, 224.15 834.99, 32 837.22 M634.36 837.22 C499.74 837.16, 364.39 837.07, 32 837.22 M32 837.22 C11.37 837.66, -1.97 825.81, 0 805.22 M32 837.22 C9.21 837.9, -1.45 826.32, 0 805.22 M0 805.22 C1.28 540.21, 2.55 276.79, 0 32 M0 805.22 C-2.02 542.15, -2.05 278.01, 0 32 M0 32 C-0.75 12.66, 9.26 -0.23, 32 0 M0 32 C-1.79 11.44, 9.61 -1.35, 32 0" stroke="#1e1e1e" stroke-width="1" fill="none"></path></g><g transform="translate(348.0444767854556 445.4622122858251) rotate(0 33.10430571003644 53.39400519928142)" stroke="none"><path fill="#1e1e1e" d="M 0.98,-0.98 Q 0.98,-0.98 1.78,-0.55 2.58,-0.12 4.08,1.34 5.58,2.82 8.60,5.21 11.62,7.61 15.93,10.44 20.25,13.27 25.23,16.98 30.22,20.70 34.84,24.77 39.46,28.84 43.93,33.68 48.40,38.53 52.16,43.05 55.91,47.57 58.79,52.03 61.67,56.48 63.98,58.78 66.28,61.08 67.45,62.93 68.63,64.78 69.14,66.75 69.66,68.72 69.14,69.86 68.63,71.00 67.93,72.33 67.23,73.66 65.53,75.71 63.84,77.76 61.76,79.34 59.68,80.92 56.30,82.83 52.92,84.73 47.82,87.37 42.72,90.01 37.98,91.79 33.25,93.57 28.23,95.53 23.22,97.49 18.55,98.96 13.89,100.43 10.25,102.21 6.61,103.99 4.51,105.31 2.40,106.63 1.02,107.79 -0.34,108.95 -0.21,108.51 -0.08,108.07 -0.24,108.23 -0.40,108.39 -0.59,108.50 -0.78,108.62 -0.99,108.69 -1.20,108.75 -1.43,108.76 -1.65,108.78 -1.87,108.74 -2.09,108.70 -2.29,108.61 -2.49,108.51 -2.67,108.38 -2.84,108.24 -2.98,108.06 -3.12,107.89 -3.21,107.69 -3.30,107.48 -3.34,107.26 -3.38,107.04 -3.37,106.82 -3.36,106.60 -3.29,106.39 -3.22,106.17 -3.11,105.98 -2.99,105.79 -1.10,104.87 0.77,103.94 0.97,103.86 1.17,103.78 1.38,103.77 1.59,103.75 1.80,103.81 2.00,103.86 2.18,103.98 2.36,104.09 2.49,104.26 2.62,104.43 2.69,104.63 2.76,104.83 2.76,105.04 2.77,105.25 2.70,105.46 2.64,105.66 2.51,105.83 2.38,106.00 2.21,106.12 2.03,106.24 1.83,106.30 1.63,106.36 1.41,106.35 1.20,106.35 1.00,106.27 0.81,106.19 0.64,106.06 0.48,105.92 0.37,105.74 0.25,105.56 0.20,105.36 0.16,105.15 0.18,104.94 0.20,104.73 0.28,104.53 0.37,104.34 0.51,104.18 0.66,104.03 0.84,103.92 1.03,103.82 1.24,103.78 1.45,103.75 1.66,103.78 1.87,103.81 2.06,103.91 2.25,104.00 2.39,104.16 2.54,104.31 2.64,104.50 2.73,104.69 2.75,104.90 2.78,105.11 2.74,105.32 2.69,105.53 2.59,105.71 2.48,105.90 2.32,106.04 2.16,106.18 2.16,106.18 2.16,106.18 1.03,107.12 -0.08,108.07 -0.24,108.23 -0.40,108.39 -0.59,108.50 -0.78,108.62 -0.99,108.69 -1.20,108.75 -1.43,108.76 -1.65,108.78 -1.87,108.74 -2.09,108.70 -2.29,108.61 -2.49,108.52 -2.67,108.38 -2.84,108.24 -2.98,108.06 -3.12,107.89 -3.21,107.69 -3.30,107.48 -3.34,107.26 -3.38,107.04 -3.37,106.82 -3.36,106.60 -3.29,106.39 -3.22,106.17 -3.11,105.98 -2.99,105.79 -2.06,105.56 -1.12,105.32 -0.61,104.06 -0.09,102.81 2.25,101.33 4.60,99.85 8.55,97.94 12.50,96.04 17.02,94.62 21.54,93.19 26.59,91.23 31.63,89.26 36.12,87.59 40.61,85.91 45.64,83.32 50.68,80.73 53.83,78.99 56.97,77.25 58.68,76.03 60.39,74.80 61.82,73.15 63.26,71.49 64.14,69.24 65.01,66.98 64.13,65.51 63.24,64.03 60.71,61.39 58.17,58.75 55.44,54.48 52.72,50.21 49.06,45.75 45.39,41.30 41.08,36.59 36.77,31.88 32.29,27.90 27.80,23.93 22.92,20.27 18.04,16.61 13.59,13.65 9.14,10.70 5.98,8.14 2.82,5.58 1.34,4.08 -0.12,2.58 -0.55,1.78 -0.98,0.98 -1.08,0.84 -1.18,0.71 -1.25,0.56 -1.32,0.41 -1.35,0.24 -1.38,0.08 -1.37,-0.08 -1.36,-0.25 -1.31,-0.40 -1.26,-0.56 -1.17,-0.71 -1.09,-0.85 -0.97,-0.97 -0.85,-1.09 -0.71,-1.17 -0.56,-1.26 -0.40,-1.31 -0.24,-1.36 -0.08,-1.37 0.08,-1.38 0.24,-1.35 0.41,-1.32 0.56,-1.25 0.71,-1.18 0.84,-1.08 0.98,-0.98 0.98,-0.98 L 0.98,-0.98 Z"></path></g><g transform="translate(478.32577712389 468.9555999930104) rotate(0 -2.135726967084679 49.122453497798574)" stroke="none"><path fill="#1e1e1e" d="M 1.39,0.17 Q 1.39,0.17 1.12,5.12 0.85,10.08 -0.00,21.33 -0.87,32.58 -1.24,37.99 -1.61,43.39 -1.76,50.56 -1.92,57.72 -1.98,62.62 -2.05,67.52 -1.61,75.67 -1.17,83.81 -0.50,87.84 0.16,91.86 0.45,93.62 0.74,95.39 0.75,95.60 0.76,95.81 0.70,96.02 0.64,96.22 0.52,96.40 0.40,96.57 0.23,96.70 0.06,96.82 -0.14,96.89 -0.34,96.96 -0.55,96.95 -0.76,96.95 -0.96,96.88 -1.16,96.81 -1.33,96.68 -1.50,96.55 -1.62,96.37 -1.73,96.20 -1.79,95.99 -1.84,95.79 -1.83,95.57 -1.82,95.36 -1.74,95.17 -1.66,94.97 -1.52,94.81 -1.38,94.65 -1.19,94.54 -1.01,94.43 -0.80,94.39 -0.60,94.35 -0.38,94.37 -0.17,94.40 0.01,94.49 0.20,94.58 0.35,94.73 0.51,94.87 0.60,95.06 0.70,95.25 0.73,95.46 0.77,95.67 0.73,95.88 0.69,96.09 0.59,96.28 0.49,96.46 0.33,96.61 0.18,96.75 -0.00,96.84 -0.20,96.93 -0.41,96.95 -0.62,96.97 -0.83,96.92 -1.04,96.87 -1.22,96.76 -1.40,96.65 -1.53,96.49 -1.67,96.32 -1.75,96.13 -1.82,95.93 -1.82,95.93 -1.82,95.93 -2.27,94.20 -2.71,92.47 -3.77,88.27 -4.82,84.08 -5.55,75.77 -6.29,67.46 -6.22,62.55 -6.15,57.63 -5.99,50.37 -5.83,43.10 -5.45,37.68 -5.08,32.25 -4.19,20.91 -3.31,9.56 -2.35,4.69 -1.39,-0.17 -1.35,-0.33 -1.31,-0.50 -1.23,-0.65 -1.15,-0.80 -1.04,-0.92 -0.92,-1.05 -0.78,-1.15 -0.64,-1.24 -0.49,-1.30 -0.33,-1.36 -0.16,-1.38 0.00,-1.40 0.17,-1.38 0.34,-1.36 0.49,-1.30 0.65,-1.24 0.79,-1.14 0.93,-1.04 1.04,-0.92 1.15,-0.79 1.23,-0.64 1.31,-0.49 1.35,-0.32 1.39,-0.16 1.39,0.00 1.39,0.17 1.39,0.17 L 1.39,0.17 Z"></path></g><g transform="translate(452.6966624496199 462.548321324443) rotate(0 34.17221807723581 3.2036393342837073)" stroke="none"><path fill="#1e1e1e" d="M 0.44,-1.32 Q 0.44,-1.32 6.08,0.17 11.72,1.67 14.60,2.44 17.48,3.20 21.49,2.87 25.49,2.55 31.57,1.81 37.65,1.07 48.30,0.46 58.96,-0.15 63.47,-0.43 67.98,-0.72 68.19,-0.71 68.40,-0.69 68.60,-0.61 68.79,-0.52 68.95,-0.38 69.11,-0.24 69.22,-0.06 69.32,0.12 69.36,0.32 69.41,0.53 69.38,0.74 69.35,0.95 69.26,1.15 69.16,1.34 69.01,1.49 68.87,1.64 68.68,1.73 68.49,1.83 68.28,1.86 68.06,1.89 67.86,1.85 67.65,1.81 67.46,1.71 67.28,1.61 67.13,1.45 66.99,1.29 66.91,1.10 66.82,0.90 66.80,0.69 66.78,0.48 66.83,0.27 66.88,0.06 67.00,-0.11 67.11,-0.28 67.27,-0.42 67.44,-0.55 67.64,-0.63 67.84,-0.70 68.05,-0.71 68.26,-0.72 68.47,-0.65 68.67,-0.59 68.84,-0.47 69.02,-0.35 69.14,-0.18 69.27,-0.00 69.33,0.19 69.39,0.39 69.39,0.60 69.38,0.82 69.31,1.02 69.24,1.22 69.11,1.38 68.98,1.55 68.80,1.66 68.62,1.78 68.41,1.83 68.21,1.89 68.21,1.88 68.21,1.88 63.72,2.38 59.22,2.88 48.69,4.12 38.16,5.36 31.97,6.09 25.77,6.81 21.12,7.05 16.47,7.29 13.42,6.49 10.38,5.68 4.97,3.50 -0.44,1.32 -0.59,1.25 -0.74,1.17 -0.87,1.07 -1.00,0.96 -1.10,0.83 -1.20,0.69 -1.27,0.54 -1.33,0.38 -1.36,0.22 -1.39,0.05 -1.38,-0.11 -1.36,-0.27 -1.31,-0.43 -1.26,-0.59 -1.17,-0.73 -1.08,-0.88 -0.95,-0.99 -0.83,-1.11 -0.69,-1.19 -0.54,-1.28 -0.38,-1.32 -0.22,-1.37 -0.05,-1.38 0.11,-1.39 0.27,-1.35 0.44,-1.32 0.44,-1.32 L 0.44,-1.32 Z"></path></g><g transform="translate(318.8284995892275 470.5199487656928) rotate(0 -5.643236350815073 36.11695030737667)" stroke="none"><path fill="#1e1e1e" d="M 0,1.38 Q 0,1.38 -1.91,1.74 -3.82,2.09 -4.91,2.68 -6.00,3.27 -8.19,3.64 -10.38,4.01 -12.98,4.74 -15.58,5.47 -19.00,8.21 -22.43,10.94 -24.63,12.77 -26.82,14.60 -28.19,17.64 -29.55,20.67 -30.19,25.70 -30.83,30.74 -31.13,33.60 -31.44,36.46 -28.49,47.12 -25.55,57.78 -21.81,64.16 -18.07,70.53 -12.27,73.09 -6.48,75.64 -1.08,74.23 4.30,72.81 8.36,67.88 12.41,62.94 14.72,55.81 17.03,48.67 17.38,43.17 17.73,37.67 17.90,32.67 18.07,27.68 17.50,23.77 16.93,19.85 16.05,16.27 15.17,12.68 14.14,8.57 13.12,4.46 10.40,1.18 7.67,-2.08 3.66,-2.77 -0.35,-3.46 -5.08,-1.97 -9.81,-0.48 -13.70,2.57 -17.59,5.62 -21.25,7.46 -24.91,9.29 -25.11,9.37 -25.31,9.44 -25.52,9.45 -25.74,9.46 -25.94,9.40 -26.14,9.34 -26.32,9.21 -26.49,9.09 -26.62,8.92 -26.74,8.75 -26.80,8.54 -26.87,8.34 -26.86,8.13 -26.86,7.92 -26.79,7.72 -26.72,7.52 -26.58,7.35 -26.45,7.18 -26.27,7.07 -26.09,6.95 -25.89,6.90 -25.68,6.85 -25.47,6.86 -25.26,6.88 -25.06,6.96 -24.87,7.04 -24.71,7.18 -24.55,7.33 -24.44,7.51 -24.34,7.69 -24.30,7.90 -24.26,8.11 -24.28,8.32 -24.31,8.53 -24.40,8.72 -24.50,8.91 -24.65,9.07 -24.80,9.22 -24.99,9.31 -25.17,9.41 -25.39,9.44 -25.60,9.47 -25.80,9.43 -26.01,9.39 -26.20,9.29 -26.38,9.18 -26.53,9.03 -26.67,8.87 -26.76,8.67 -26.84,8.48 -26.86,8.27 -26.88,8.06 -26.83,7.85 -26.78,7.64 -26.66,7.46 -26.55,7.28 -26.39,7.15 -26.22,7.02 -26.22,7.02 -26.22,7.02 -23.01,4.91 -19.80,2.80 -15.40,-0.64 -11.00,-4.10 -5.39,-5.71 0.21,-7.32 5.26,-6.15 10.31,-4.98 13.66,-0.82 17.00,3.32 18.03,7.53 19.05,11.74 19.96,15.52 20.87,19.30 21.44,23.56 22.01,27.81 21.82,32.89 21.62,37.96 21.11,43.91 20.60,49.87 17.83,57.49 15.06,65.11 10.22,70.45 5.38,75.79 -0.98,77.18 -7.36,78.57 -13.98,75.50 -20.61,72.44 -24.71,65.59 -28.82,58.74 -32.12,47.45 -35.41,36.17 -35.14,33.19 -34.86,30.22 -34.13,24.57 -33.41,18.93 -31.56,15.17 -29.72,11.41 -27.41,9.45 -25.10,7.50 -20.98,4.39 -16.87,1.28 -13.94,0.48 -11.01,-0.31 -9.35,-0.49 -7.69,-0.67 -5.82,-1.38 -3.96,-2.09 -1.98,-1.74 0,-1.38 0.16,-1.36 0.33,-1.34 0.48,-1.28 0.64,-1.22 0.78,-1.13 0.92,-1.03 1.03,-0.91 1.14,-0.78 1.21,-0.64 1.29,-0.49 1.33,-0.32 1.37,-0.16 1.37,0.00 1.37,0.16 1.33,0.32 1.29,0.49 1.21,0.64 1.14,0.78 1.03,0.91 0.92,1.03 0.78,1.13 0.64,1.22 0.48,1.28 0.33,1.34 0.16,1.36 -0.00,1.38 -0.00,1.38 L 0,1.38 Z"></path></g><g transform="translate(1029.8806197096324 714.3092470926888) rotate(0 -2.2737367544323206e-13 23.701840668721275)" stroke="none"><path fill="#1e1e1e" d="M 0,1.39 Q 0,1.39 -1.94,1.66 -3.89,1.93 -5.16,1.87 -6.42,1.81 -8.50,4.19 -10.57,6.58 -11.53,8.16 -12.49,9.74 -13.58,11.73 -14.66,13.71 -15.70,18.23 -16.74,22.75 -17.21,27.86 -17.68,32.97 -16.65,36.83 -15.63,40.68 -13.51,43.38 -11.39,46.09 -8.87,46.51 -6.35,46.93 -2.89,45.93 0.57,44.94 4.50,42.02 8.43,39.11 11.26,34.81 14.10,30.51 14.61,26.38 15.12,22.24 14.11,18.06 13.10,13.89 11.43,10.21 9.76,6.53 7.85,3.78 5.93,1.02 4.16,0.07 2.39,-0.88 0.75,-0.20 -0.88,0.46 -1.05,0.59 -1.22,0.72 -1.42,0.79 -1.63,0.85 -1.84,0.85 -2.05,0.85 -2.25,0.78 -2.45,0.71 -2.62,0.59 -2.79,0.46 -2.91,0.28 -3.03,0.10 -3.08,-0.09 -3.14,-0.30 -3.13,-0.51 -3.12,-0.72 -3.04,-0.92 -2.96,-1.11 -2.82,-1.28 -2.68,-1.44 -2.50,-1.55 -2.32,-1.66 -2.11,-1.70 -1.90,-1.75 -1.69,-1.72 -1.48,-1.70 -1.29,-1.61 -1.09,-1.52 -0.94,-1.37 -0.79,-1.23 -0.69,-1.04 -0.59,-0.85 -0.55,-0.64 -0.52,-0.43 -0.56,-0.22 -0.59,-0.01 -0.69,0.17 -0.79,0.35 -0.95,0.50 -1.10,0.65 -1.29,0.73 -1.49,0.82 -1.70,0.84 -1.91,0.87 -2.12,0.82 -2.32,0.77 -2.51,0.66 -2.69,0.55 -2.82,0.39 -2.96,0.23 -3.04,0.03 -3.12,-0.16 -3.13,-0.37 -3.14,-0.58 -3.08,-0.79 -3.02,-0.99 -2.90,-1.17 -2.78,-1.34 -2.78,-1.34 -2.78,-1.34 0.60,-2.89 3.99,-4.44 6.54,-2.90 9.10,-1.35 11.25,1.76 13.40,4.89 15.19,8.95 16.97,13.00 17.99,17.86 19.02,22.72 18.19,27.63 17.36,32.54 14.00,37.30 10.64,42.07 6.10,45.21 1.56,48.36 -2.69,49.40 -6.94,50.43 -10.37,49.54 -13.79,48.64 -16.50,45.19 -19.20,41.74 -20.37,37.22 -21.54,32.70 -21.05,27.28 -20.56,21.85 -19.36,16.85 -18.15,11.85 -17.01,9.74 -15.87,7.64 -14.64,5.71 -13.41,3.79 -10.34,0.99 -7.26,-1.81 -5.57,-1.87 -3.89,-1.93 -1.94,-1.66 0,-1.39 0.16,-1.37 0.33,-1.35 0.49,-1.29 0.64,-1.23 0.78,-1.14 0.92,-1.04 1.03,-0.92 1.15,-0.79 1.22,-0.64 1.30,-0.49 1.34,-0.33 1.38,-0.16 1.38,0.00 1.38,0.16 1.34,0.33 1.30,0.49 1.22,0.64 1.15,0.79 1.03,0.92 0.92,1.04 0.78,1.14 0.64,1.23 0.49,1.29 0.33,1.35 0.16,1.37 -0.00,1.39 -0.00,1.39 L 0,1.39 Z"></path></g><g stroke-linecap="round"><g transform="translate(1009.6533917177957 285.2780063060145) rotate(0 154.94076941451004 -3.1459924945856983)"><path d="M0.34 -0.55 C47.27 -1.42, 234.16 -4.19, 282.15 -5.14 C330.15 -6.1, 283.49 -6.29, 288.3 -6.28 C293.11 -6.27, 307.34 -5.08, 311.02 -5.09 M-0.94 1.77 C45.84 1.06, 232.92 -2.71, 281.51 -3.83 C330.1 -4.95, 286.15 -4.42, 290.6 -4.96 C295.05 -5.49, 305.12 -6.84, 308.21 -7.02" stroke="#1e1e1e" stroke-width="1" fill="none"></path></g></g><mask></mask><g stroke-linecap="round"><g transform="translate(1047.999841711815 740.709877092173) rotate(0 143.82655411935343 -2.6969158904312565)"><path d="M0.06 -0.27 C47.97 -1.22, 239.31 -3.89, 287.29 -4.94 M-1.36 -1.46 C46.37 -2.85, 238.04 -6.09, 286.15 -6.82" stroke="#1e1e1e" stroke-width="1" fill="none"></path></g></g><mask></mask><g transform="translate(1245.023300902339 276.0107096331662) rotate(0 4.47935150076853 6.15912753692146)" stroke="none"><path fill="#1e1e1e" d="M 0.98,0.98 Q 0.98,0.98 -0.12,2.24 -1.23,3.51 -1.35,6.48 -1.46,9.46 -1.01,10.69 -0.56,11.92 1.07,11.81 2.72,11.69 4.24,11.12 5.77,10.55 6.98,9.72 8.20,8.89 7.71,7.41 7.22,5.93 6.51,5.04 5.80,4.15 4.48,4.98 3.15,5.81 2.46,6.90 1.77,7.99 2.29,9.12 2.82,10.24 4.42,9.58 6.02,8.93 5.44,7.65 4.86,6.37 3.19,6.97 1.53,7.56 3.27,7.88 5.01,8.20 3.73,7.47 2.45,6.74 3.58,7.76 4.72,8.77 5.96,8.79 7.20,8.82 7.12,7.38 7.04,5.94 6.00,5.57 4.96,5.19 3.86,5.57 2.77,5.96 3.40,7.70 4.03,9.44 5.11,9.72 6.19,10.00 7.92,9.29 9.64,8.57 9.78,6.79 9.91,5.02 8.72,4.21 7.52,3.39 6.30,3.05 5.07,2.70 3.95,2.76 2.84,2.82 2.53,4.05 2.23,5.28 2.06,6.50 1.90,7.72 3.58,8.82 5.27,9.92 6.79,9.00 8.32,8.08 8.37,6.33 8.42,4.58 7.49,3.42 6.57,2.26 5.57,1.07 4.58,-0.11 3.60,0.66 2.62,1.44 2.43,3.21 2.24,4.97 2.37,6.51 2.50,8.04 3.31,8.74 4.13,9.44 5.41,9.30 6.69,9.16 7.95,8.45 9.21,7.73 9.10,6.25 8.98,4.77 6.79,4.16 4.61,3.55 3.48,4.03 2.35,4.51 3.17,5.47 4.00,6.42 5.07,6.63 6.15,6.84 7.42,6.65 8.70,6.46 9.52,5.82 10.34,5.18 10.56,5.12 10.78,5.06 11.01,5.06 11.25,5.05 11.47,5.10 11.70,5.15 11.90,5.26 12.11,5.36 12.29,5.51 12.46,5.66 12.60,5.85 12.73,6.04 12.82,6.25 12.91,6.47 12.94,6.70 12.97,6.92 12.95,7.16 12.92,7.39 12.85,7.60 12.77,7.82 12.64,8.01 12.51,8.21 12.34,8.36 12.17,8.52 11.97,8.63 11.77,8.74 10.14,9.85 8.52,10.95 7.71,11.53 6.91,12.11 6.87,12.32 6.84,12.53 6.74,12.72 6.64,12.91 6.48,13.05 6.33,13.20 6.13,13.29 5.94,13.37 5.73,13.39 5.52,13.42 5.31,13.37 5.10,13.32 4.92,13.21 4.74,13.10 4.60,12.94 4.47,12.78 4.39,12.58 4.31,12.38 4.30,12.17 4.29,11.95 4.35,11.75 4.41,11.55 4.53,11.37 4.65,11.20 4.82,11.07 4.99,10.94 5.19,10.87 5.39,10.81 5.60,10.81 5.82,10.81 6.02,10.88 6.22,10.95 6.39,11.08 6.56,11.21 6.67,11.39 6.79,11.56 6.85,11.77 6.90,11.97 6.89,12.18 6.88,12.40 6.80,12.59 6.72,12.79 6.58,12.95 6.44,13.11 6.26,13.22 6.07,13.33 5.87,13.37 5.66,13.42 5.45,13.39 5.24,13.37 5.04,13.28 4.85,13.19 4.70,13.04 4.54,12.89 4.45,12.70 4.35,12.52 4.32,12.31 4.28,12.10 4.28,12.10 4.28,12.10 5.01,10.18 5.74,8.27 8.04,6.72 10.34,5.18 10.56,5.12 10.78,5.06 11.01,5.06 11.25,5.05 11.47,5.10 11.70,5.15 11.90,5.26 12.11,5.36 12.29,5.51 12.46,5.66 12.60,5.85 12.73,6.04 12.82,6.25 12.91,6.47 12.94,6.70 12.97,6.92 12.95,7.15 12.92,7.39 12.85,7.60 12.77,7.82 12.64,8.01 12.51,8.21 12.34,8.36 12.17,8.52 11.97,8.63 11.77,8.74 11.71,8.71 11.65,8.68 10.37,9.20 9.09,9.72 7.25,9.87 5.41,10.03 3.71,9.53 2.01,9.04 0.74,7.80 -0.52,6.57 -0.56,4.72 -0.60,2.87 0.38,1.85 1.37,0.84 3.23,0.29 5.09,-0.26 7.27,0.24 9.46,0.76 10.88,2.01 12.31,3.27 12.67,5.05 13.04,6.83 12.10,8.61 11.17,10.40 9.56,11.34 7.95,12.29 6.38,12.74 4.81,13.19 3.26,12.54 1.70,11.90 0.42,10.38 -0.86,8.86 -1.14,6.68 -1.42,4.51 -1.04,2.08 -0.67,-0.33 0.29,-1.83 1.26,-3.33 2.64,-3.82 4.01,-4.31 5.78,-3.51 7.54,-2.72 8.70,-1.29 9.86,0.13 10.96,2.11 12.06,4.09 12.06,5.94 12.07,7.80 11.35,9.18 10.63,10.56 9.05,11.74 7.47,12.92 5.81,13.01 4.16,13.09 2.44,12.30 0.72,11.52 -0.40,9.75 -1.53,7.99 -1.44,6.21 -1.36,4.44 -0.88,2.78 -0.41,1.11 0.78,0.13 1.98,-0.85 4.12,-0.97 6.27,-1.09 8.18,-0.34 10.08,0.39 11.72,2.14 13.35,3.89 13.56,5.97 13.76,8.05 12.64,9.73 11.51,11.40 9.99,12.23 8.47,13.07 6.86,13.17 5.26,13.28 3.49,12.66 1.71,12.03 0.38,10.60 -0.95,9.18 -1.30,7.80 -1.66,6.42 -1.32,5.15 -0.97,3.87 0.50,2.96 1.97,2.05 4.10,1.80 6.22,1.55 8.20,2.71 10.17,3.87 10.78,5.52 11.39,7.17 10.91,8.59 10.43,10.02 9.38,10.98 8.34,11.95 7.11,12.20 5.88,12.45 4.49,12.12 3.11,11.78 1.66,10.89 0.20,10.01 -0.34,9.00 -0.89,7.99 -1.03,6.60 -1.17,5.20 -0.47,4.22 0.23,3.24 1.69,3.02 3.15,2.81 4.49,3.07 5.83,3.34 7.73,4.63 9.64,5.92 9.02,7.92 8.41,9.93 7.21,10.58 6.02,11.24 4.09,11.77 2.16,12.30 0.34,11.76 -1.47,11.23 -2.12,10.00 -2.77,8.77 -2.56,7.40 -2.36,6.04 -1.24,5.08 -0.12,4.12 1.53,3.44 3.20,2.75 5.12,3.09 7.04,3.42 8.33,5.01 9.63,6.60 9.53,8.09 9.43,9.58 8.60,10.59 7.77,11.60 5.95,12.57 4.13,13.54 2.76,13.32 1.39,13.10 0.23,12.37 -0.91,11.65 -1.56,10.09 -2.20,8.53 -1.74,7.22 -1.29,5.92 -0.14,4.31 1.00,2.70 2.92,1.65 4.84,0.60 6.48,0.95 8.13,1.30 9.28,2.58 10.43,3.86 11.21,5.31 11.99,6.75 11.87,8.20 11.75,9.64 10.88,10.66 10.02,11.67 8.41,12.64 6.80,13.60 4.71,14.22 2.62,14.83 0.30,14.49 -2.00,14.15 -3.29,11.80 -4.58,9.46 -4.24,5.55 -3.91,1.63 -2.44,0.32 -0.98,-0.98 -0.84,-1.08 -0.71,-1.18 -0.56,-1.25 -0.41,-1.32 -0.24,-1.35 -0.08,-1.38 0.08,-1.37 0.25,-1.36 0.40,-1.31 0.56,-1.26 0.71,-1.17 0.85,-1.09 0.97,-0.97 1.09,-0.85 1.17,-0.71 1.26,-0.56 1.31,-0.40 1.36,-0.25 1.37,-0.08 1.38,0.08 1.35,0.24 1.32,0.41 1.25,0.56 1.18,0.71 1.08,0.84 0.98,0.98 0.98,0.98 L 0.98,0.98 Z"></path></g><g stroke-linecap="round"><g transform="translate(10.666557700242834 527.5268293645213) rotate(0 136.6065214515378 -5.2725177791814986)"><path d="M0.52 0.46 C45.96 -1.51, 228 -9.72, 273.37 -11.43 M-0.67 -0.35 C44.56 -2.22, 227.11 -8.46, 272.5 -10.36" stroke="#1e1e1e" stroke-width="1" fill="none"></path></g></g><mask></mask><g transform="translate(1256.2880629193817 269.6362781598241) rotate(0 41.29595896099363 -100.94567746020681)" stroke="none"><path fill="#1e1e1e" d="M 0,-1.33 Q 0,-1.33 0.84,-1.12 1.69,-0.91 1.83,0.55 1.97,2.03 1.93,1.35 1.89,0.67 1.94,0.84 1.98,1.01 1.99,1.19 2.00,1.37 1.96,1.54 1.93,1.72 1.85,1.88 1.77,2.04 1.66,2.18 1.55,2.31 1.41,2.42 1.26,2.53 1.10,2.60 0.94,2.67 0.76,2.69 0.59,2.72 0.41,2.71 0.23,2.69 0.06,2.64 -0.10,2.58 -0.25,2.49 -0.40,2.39 -0.52,2.26 -0.64,2.13 -0.73,1.98 -0.82,1.83 0.83,0.88 2.49,-0.05 2.54,0.11 2.59,0.29 2.60,0.47 2.61,0.65 2.57,0.83 2.54,1.01 2.46,1.17 2.38,1.34 2.26,1.48 2.15,1.62 2.00,1.73 1.86,1.84 1.69,1.91 1.52,1.98 1.34,2.01 1.16,2.04 0.98,2.02 0.80,2.01 0.62,1.95 0.45,1.89 0.30,1.80 0.14,1.70 0.02,1.57 -0.10,1.44 -0.19,1.28 -0.28,1.12 1.24,0.81 2.77,0.49 2.82,0.67 2.87,0.85 2.88,1.04 2.89,1.23 2.85,1.41 2.81,1.59 2.73,1.76 2.65,1.93 2.53,2.07 2.42,2.22 2.27,2.33 2.12,2.44 1.95,2.52 1.77,2.59 1.59,2.62 1.41,2.65 1.22,2.63 1.03,2.62 0.86,2.56 0.68,2.50 0.52,2.40 0.36,2.30 0.23,2.16 0.11,2.03 0.01,1.87 -0.07,1.71 1.42,0.77 2.93,-0.16 2.98,0.02 3.04,0.21 3.05,0.40 3.05,0.60 3.01,0.79 2.98,0.98 2.89,1.15 2.81,1.33 2.69,1.48 2.56,1.63 2.41,1.74 2.25,1.86 2.07,1.94 1.89,2.01 1.70,2.04 1.51,2.07 1.32,2.06 1.12,2.04 0.94,1.98 0.76,1.92 0.59,1.82 0.43,1.71 0.29,1.57 0.16,1.43 0.06,1.26 -0.02,1.09 1.47,0.77 2.98,0.44 3.04,0.63 3.09,0.82 3.10,1.01 3.10,1.21 3.07,1.40 3.03,1.59 2.94,1.76 2.86,1.94 2.74,2.09 2.61,2.24 2.46,2.36 2.30,2.48 2.12,2.55 1.94,2.63 1.75,2.66 1.56,2.69 1.36,2.68 1.17,2.66 0.98,2.60 0.80,2.54 0.63,2.43 0.47,2.33 0.33,2.19 0.20,2.04 0.10,1.88 0.00,1.71 -0.08,0.48 -0.18,-0.73 -0.14,-0.93 -0.11,-1.14 -0.03,-1.33 0.03,-1.52 0.16,-1.68 0.28,-1.85 0.44,-1.98 0.59,-2.11 0.78,-2.20 0.96,-2.29 1.16,-2.33 1.36,-2.38 1.57,-2.37 1.77,-2.36 1.97,-2.31 2.17,-2.25 2.35,-2.15 2.53,-2.05 2.68,-1.91 2.83,-1.77 2.94,-1.60 3.05,-1.43 3.12,-1.23 3.19,-1.04 3.20,-0.83 3.22,-0.63 1.51,-0.48 -0.19,-0.34 -0.16,-0.54 -0.13,-0.75 -0.05,-0.94 0.02,-1.13 0.14,-1.30 0.27,-1.47 0.43,-1.60 0.58,-1.74 0.77,-1.83 0.96,-1.92 1.16,-1.96 1.37,-2.00 1.57,-2.00 1.78,-1.99 1.98,-1.94 2.18,-1.88 2.36,-1.78 2.54,-1.68 2.70,-1.53 2.85,-1.39 2.96,-1.22 3.07,-1.04 3.14,-0.84 3.21,-0.65 3.23,-0.44 3.25,-0.23 1.52,-0.62 -0.21,-1.00 -0.21,-2.28 -0.21,-3.56 -0.22,-5.05 -0.23,-6.53 -0.24,-8.07 -0.24,-9.61 0.23,-11.10 0.71,-12.59 0.85,-13.80 0.99,-15.00 1.52,-17.43 2.05,-19.85 2.25,-21.64 2.46,-23.43 3.00,-26.48 3.54,-29.53 4.21,-33.02 4.87,-36.50 5.60,-39.76 6.33,-43.02 6.63,-44.79 6.93,-46.56 8.40,-51.40 9.88,-56.25 11.36,-61.75 12.85,-67.25 14.36,-73.11 15.87,-78.97 18.32,-84.26 20.78,-89.55 23.59,-94.44 26.41,-99.33 29.35,-104.45 32.30,-109.57 35.29,-115.65 38.28,-121.73 41.79,-127.89 45.30,-134.06 47.63,-139.23 49.96,-144.39 51.83,-149.21 53.70,-154.03 55.37,-159.13 57.04,-164.23 58.67,-167.82 60.30,-171.42 61.41,-174.19 62.51,-176.96 63.42,-179.45 64.32,-181.94 65.21,-183.56 66.10,-185.18 66.89,-186.68 67.69,-188.18 68.47,-189.71 69.26,-191.25 70.65,-192.56 72.03,-193.87 73.35,-195.53 74.66,-197.19 76.21,-198.84 77.75,-200.49 79.35,-202.04 80.96,-203.60 81.13,-203.73 81.30,-203.86 81.50,-203.93 81.70,-204.00 81.91,-204.00 82.12,-204.00 82.33,-203.93 82.53,-203.87 82.70,-203.74 82.87,-203.61 82.99,-203.43 83.11,-203.26 83.16,-203.06 83.22,-202.85 83.21,-202.64 83.20,-202.43 83.12,-202.23 83.05,-202.03 82.91,-201.87 82.77,-201.71 82.59,-201.60 82.41,-201.48 82.20,-201.44 81.99,-201.39 81.78,-201.41 81.57,-201.44 81.38,-201.52 81.19,-201.61 81.03,-201.76 80.88,-201.90 80.78,-202.09 80.68,-202.28 80.64,-202.49 80.60,-202.70 80.64,-202.91 80.67,-203.12 80.77,-203.30 80.87,-203.49 81.02,-203.64 81.18,-203.79 81.37,-203.88 81.56,-203.97 81.77,-203.99 81.98,-204.01 82.19,-203.97 82.40,-203.92 82.58,-203.82 82.76,-203.71 82.90,-203.55 83.04,-203.38 83.12,-203.19 83.20,-202.99 83.21,-202.78 83.22,-202.57 83.17,-202.36 83.11,-202.16 82.99,-201.98 82.88,-201.80 82.88,-201.80 82.88,-201.80 81.45,-200.13 80.01,-198.45 78.62,-196.82 77.22,-195.19 75.74,-193.29 74.27,-191.39 73.24,-190.53 72.20,-189.66 71.44,-188.14 70.67,-186.63 69.88,-185.08 69.09,-183.54 68.33,-182.15 67.56,-180.76 66.64,-178.22 65.72,-175.68 64.58,-172.83 63.45,-169.99 61.90,-166.57 60.34,-163.15 58.65,-157.96 56.97,-152.77 55.08,-147.85 53.18,-142.94 50.80,-137.62 48.41,-132.30 44.97,-126.22 41.53,-120.13 38.50,-113.94 35.47,-107.75 32.54,-102.62 29.60,-97.48 26.86,-92.73 24.11,-87.99 21.76,-83.01 19.41,-78.04 17.89,-72.17 16.37,-66.29 14.86,-60.74 13.36,-55.18 11.93,-50.57 10.51,-45.95 10.19,-44.09 9.87,-42.23 9.16,-39.02 8.44,-35.82 7.77,-32.36 7.10,-28.90 6.58,-25.95 6.06,-23.01 5.82,-21.04 5.58,-19.07 5.07,-16.80 4.57,-14.52 3.93,-12.03 3.30,-9.54 3.30,-8.03 3.29,-6.53 3.28,-5.05 3.27,-3.56 3.27,-2.28 3.26,-0.99 1.53,-0.67 -0.19,-0.34 -0.16,-0.54 -0.13,-0.75 -0.05,-0.94 0.02,-1.13 0.14,-1.30 0.27,-1.47 0.42,-1.60 0.58,-1.74 0.77,-1.83 0.96,-1.92 1.16,-1.96 1.37,-2.00 1.57,-2.00 1.78,-1.99 1.98,-1.94 2.18,-1.88 2.36,-1.78 2.54,-1.68 2.70,-1.53 2.85,-1.39 2.96,-1.22 3.07,-1.04 3.14,-0.84 3.21,-0.65 3.23,-0.44 3.25,-0.23 1.53,-0.48 -0.18,-0.73 -0.14,-0.93 -0.11,-1.14 -0.03,-1.33 0.03,-1.52 0.16,-1.68 0.28,-1.85 0.44,-1.98 0.59,-2.11 0.78,-2.20 0.96,-2.29 1.16,-2.33 1.36,-2.38 1.57,-2.37 1.77,-2.36 1.97,-2.31 2.17,-2.25 2.35,-2.15 2.53,-2.05 2.68,-1.91 2.83,-1.77 2.94,-1.60 3.05,-1.43 3.12,-1.23 3.18,-1.04 3.20,-0.83 3.22,-0.63 3.10,-0.09 2.98,0.44 3.04,0.63 3.09,0.82 3.10,1.01 3.10,1.21 3.07,1.40 3.03,1.59 2.94,1.76 2.86,1.94 2.74,2.09 2.61,2.24 2.46,2.36 2.30,2.48 2.12,2.55 1.94,2.63 1.75,2.66 1.56,2.69 1.36,2.68 1.17,2.66 0.98,2.60 0.80,2.54 0.63,2.43 0.47,2.33 0.33,2.19 0.20,2.05 0.10,1.88 0.00,1.71 1.47,0.77 2.93,-0.16 2.98,0.02 3.04,0.21 3.05,0.40 3.05,0.60 3.01,0.79 2.98,0.98 2.89,1.15 2.81,1.33 2.69,1.48 2.56,1.63 2.41,1.74 2.25,1.86 2.07,1.94 1.89,2.01 1.70,2.04 1.51,2.07 1.32,2.06 1.12,2.04 0.94,1.98 0.76,1.92 0.59,1.82 0.43,1.71 0.29,1.57 0.16,1.43 0.06,1.26 -0.02,1.09 1.37,0.79 2.77,0.49 2.82,0.67 2.87,0.85 2.88,1.04 2.89,1.23 2.85,1.41 2.81,1.59 2.73,1.76 2.65,1.93 2.53,2.07 2.42,2.22 2.27,2.33 2.12,2.44 1.95,2.52 1.77,2.59 1.59,2.62 1.41,2.65 1.22,2.63 1.03,2.62 0.86,2.56 0.68,2.50 0.52,2.40 0.36,2.30 0.23,2.17 0.11,2.03 0.01,1.87 -0.07,1.71 1.21,0.82 2.49,-0.05 2.54,0.11 2.59,0.29 2.60,0.47 2.61,0.65 2.57,0.83 2.54,1.01 2.46,1.17 2.38,1.34 2.26,1.48 2.15,1.62 2.00,1.73 1.86,1.84 1.69,1.91 1.52,1.98 1.34,2.01 1.16,2.04 0.98,2.02 0.80,2.01 0.62,1.95 0.45,1.89 0.30,1.80 0.14,1.70 0.02,1.57 -0.10,1.44 -0.19,1.28 -0.28,1.12 0.80,0.89 1.89,0.67 1.94,0.84 1.98,1.01 1.99,1.19 2.00,1.37 1.96,1.54 1.93,1.72 1.85,1.88 1.77,2.04 1.66,2.18 1.55,2.31 1.41,2.42 1.26,2.53 1.10,2.60 0.94,2.67 0.76,2.69 0.59,2.72 0.41,2.71 0.23,2.69 0.06,2.64 -0.10,2.58 -0.25,2.49 -0.40,2.39 -0.52,2.26 -0.64,2.13 -0.73,1.98 -0.82,1.83 -0.37,1.37 0.06,0.91 0.03,1.12 0,1.33 -0.15,1.31 -0.31,1.29 -0.46,1.23 -0.61,1.17 -0.75,1.08 -0.88,0.99 -0.98,0.87 -1.09,0.75 -1.17,0.61 -1.24,0.47 -1.28,0.31 -1.32,0.16 -1.32,-0.00 -1.32,-0.16 -1.28,-0.31 -1.24,-0.47 -1.17,-0.61 -1.09,-0.75 -0.98,-0.87 -0.88,-0.99 -0.75,-1.08 -0.61,-1.17 -0.46,-1.23 -0.31,-1.29 -0.15,-1.31 0.00,-1.33 0.00,-1.33 L 0,-1.33 Z"></path></g><g transform="translate(1388.7057178121167 11.563704580776744) rotate(0 -4.690970585268815 25.800302429713838)" stroke="none"><path fill="#1e1e1e" d="M 0,1.38 Q 0,1.38 -3.55,1.65 -7.11,1.92 -9.55,3.11 -11.99,4.30 -14.67,9.02 -17.36,13.74 -18.55,21.43 -19.74,29.12 -19.83,35.53 -19.92,41.94 -20.14,44.45 -20.35,46.95 -16.44,47.30 -12.53,47.64 -8.93,45.26 -5.33,42.87 -1.10,38.35 3.13,33.84 5.73,28.46 8.34,23.08 8.97,19.67 9.59,16.26 8.62,14.30 7.65,12.35 5.22,10.77 2.80,9.19 1.17,7.87 -0.45,6.56 -1.93,5.64 -3.41,4.71 -4.71,3.88 -6.01,3.05 -6.19,2.95 -6.38,2.84 -6.52,2.68 -6.66,2.52 -6.74,2.33 -6.82,2.13 -6.84,1.92 -6.85,1.71 -6.80,1.50 -6.75,1.29 -6.63,1.12 -6.52,0.94 -6.35,0.81 -6.18,0.68 -5.98,0.60 -5.78,0.53 -5.57,0.53 -5.36,0.52 -5.16,0.59 -4.95,0.65 -4.78,0.78 -4.61,0.90 -4.49,1.08 -4.36,1.25 -4.30,1.45 -4.24,1.66 -4.25,1.87 -4.26,2.08 -4.33,2.28 -4.41,2.48 -4.54,2.64 -4.68,2.81 -4.86,2.92 -5.04,3.03 -5.24,3.08 -5.45,3.13 -5.66,3.11 -5.87,3.10 -6.07,3.01 -6.26,2.92 -6.42,2.78 -6.58,2.64 -6.68,2.45 -6.78,2.27 -6.82,2.06 -6.86,1.85 -6.83,1.64 -6.80,1.43 -6.70,1.24 -6.61,1.05 -6.45,0.90 -6.30,0.75 -6.11,0.66 -5.92,0.57 -5.71,0.54 -5.50,0.51 -5.29,0.55 -5.08,0.60 -5.08,0.60 -5.08,0.60 -3.19,0.97 -1.30,1.34 0.36,2.40 2.03,3.46 3.58,4.71 5.14,5.96 8.10,8.28 11.05,10.61 12.15,13.61 13.26,16.62 12.42,20.64 11.59,24.66 8.64,30.44 5.70,36.21 1.11,41.01 -3.48,45.81 -7.96,48.41 -12.45,51.02 -16.98,50.42 -21.51,49.81 -22.54,45.85 -23.57,41.89 -23.47,35.22 -23.37,28.54 -21.99,20.23 -20.61,11.92 -17.25,6.50 -13.90,1.09 -10.58,-0.41 -7.27,-1.92 -3.63,-1.65 0,-1.38 0.16,-1.36 0.33,-1.34 0.48,-1.28 0.64,-1.22 0.78,-1.13 0.92,-1.03 1.03,-0.91 1.14,-0.78 1.21,-0.64 1.29,-0.49 1.33,-0.32 1.37,-0.16 1.37,0.00 1.37,0.16 1.33,0.32 1.29,0.49 1.21,0.64 1.14,0.78 1.03,0.91 0.92,1.03 0.78,1.13 0.64,1.22 0.48,1.28 0.33,1.34 0.16,1.36 -0.00,1.38 -0.00,1.38 L 0,1.38 Z"></path></g><g transform="translate(1387.1420132313401 31.89121992409855) rotate(0 10.945574172784063 15.63658054731826)" stroke="none"><path fill="#1e1e1e" d="M 1.47,-0.14 Q 1.47,-0.14 2.15,4.32 2.83,8.79 3.89,12.30 4.94,15.81 6.60,17.99 8.26,20.16 11.00,21.92 13.75,23.68 17.35,26.38 20.95,29.08 21.11,29.23 21.27,29.37 21.37,29.56 21.47,29.74 21.51,29.95 21.55,30.16 21.51,30.37 21.48,30.58 21.39,30.77 21.29,30.96 21.14,31.11 20.99,31.26 20.79,31.35 20.60,31.44 20.39,31.47 20.18,31.49 19.97,31.45 19.76,31.41 19.58,31.30 19.40,31.20 19.26,31.04 19.12,30.88 19.04,30.68 18.95,30.48 18.94,30.27 18.93,30.06 18.98,29.85 19.03,29.65 19.15,29.47 19.27,29.29 19.43,29.16 19.60,29.03 19.80,28.96 20.00,28.89 20.21,28.89 20.43,28.88 20.63,28.95 20.83,29.01 21.00,29.14 21.17,29.27 21.30,29.44 21.42,29.61 21.48,29.82 21.54,30.02 21.53,30.23 21.52,30.45 21.44,30.64 21.37,30.84 21.23,31.01 21.10,31.17 20.92,31.28 20.74,31.40 20.53,31.44 20.32,31.49 20.11,31.47 19.90,31.45 19.71,31.37 19.51,31.28 19.51,31.28 19.51,31.28 15.61,29.06 11.71,26.83 8.43,24.69 5.14,22.55 3.17,19.77 1.21,16.99 0.08,13.09 -1.04,9.19 -1.26,4.66 -1.47,0.14 -1.47,-0.03 -1.47,-0.21 -1.42,-0.38 -1.37,-0.55 -1.29,-0.71 -1.20,-0.87 -1.08,-1.00 -0.96,-1.13 -0.81,-1.23 -0.66,-1.33 -0.49,-1.39 -0.32,-1.45 -0.14,-1.46 0.03,-1.48 0.20,-1.46 0.38,-1.43 0.55,-1.36 0.71,-1.30 0.86,-1.19 1.00,-1.09 1.12,-0.95 1.24,-0.81 1.32,-0.65 1.40,-0.49 1.44,-0.32 1.47,-0.14 1.47,-0.14 L 1.47,-0.14 Z"></path></g><g transform="translate(1435.6154236648063 45.96413167990545) rotate(0 -1.5637045807766299 21.89118413483328)" stroke="none"><path fill="#1e1e1e" d="M -0.77,1.16 Q -0.77,1.16 -2.05,0.55 -3.33,-0.05 -5.12,0.55 -6.91,1.17 -8.40,2.48 -9.89,3.80 -11.35,8.12 -12.82,12.44 -13.53,20.94 -14.24,29.44 -14.13,34.33 -14.02,39.22 -13.65,40.69 -13.28,42.15 -10.23,40.78 -7.19,39.41 -3.39,35.02 0.40,30.63 3.46,26.90 6.51,23.17 8.12,19.63 9.72,16.10 9.08,14.13 8.44,12.17 7.19,11.13 5.94,10.09 3.94,10.11 1.94,10.12 -1.08,9.40 -4.11,8.68 -4.22,8.50 -4.33,8.31 -4.38,8.11 -4.43,7.90 -4.40,7.69 -4.38,7.48 -4.29,7.28 -4.20,7.09 -4.06,6.94 -3.91,6.78 -3.73,6.68 -3.54,6.58 -3.33,6.54 -3.12,6.51 -2.91,6.54 -2.70,6.58 -2.51,6.68 -2.32,6.77 -2.18,6.93 -2.03,7.08 -1.94,7.27 -1.85,7.47 -1.83,7.68 -1.80,7.89 -1.85,8.10 -1.89,8.30 -2.00,8.49 -2.11,8.67 -2.27,8.81 -2.43,8.95 -2.63,9.03 -2.83,9.10 -3.04,9.12 -3.25,9.13 -3.46,9.07 -3.66,9.02 -3.84,8.90 -4.01,8.78 -4.14,8.61 -4.27,8.44 -4.34,8.24 -4.41,8.04 -4.41,7.83 -4.41,7.62 -4.34,7.41 -4.28,7.21 -4.15,7.04 -4.02,6.87 -3.85,6.75 -3.67,6.63 -3.47,6.58 -3.26,6.52 -3.05,6.53 -2.84,6.54 -2.64,6.62 -2.44,6.70 -2.28,6.83 -2.12,6.97 -2.12,6.97 -2.12,6.97 0.07,6.53 2.26,6.09 5.22,6.51 8.17,6.92 10.13,8.94 12.09,10.95 12.64,14.05 13.20,17.15 11.28,21.31 9.36,25.46 6.23,29.25 3.11,33.04 -1.28,37.87 -5.68,42.70 -9.22,44.00 -12.77,45.29 -15.21,42.45 -17.66,39.61 -17.83,34.37 -18.01,29.13 -17.26,20.14 -16.52,11.14 -14.56,6.04 -12.61,0.94 -10.29,-0.87 -7.96,-2.69 -5.01,-3.12 -2.05,-3.54 -0.64,-2.35 0.77,-1.16 0.90,-1.05 1.03,-0.94 1.13,-0.80 1.23,-0.67 1.29,-0.51 1.35,-0.35 1.37,-0.19 1.40,-0.02 1.38,0.14 1.36,0.31 1.30,0.47 1.25,0.63 1.15,0.77 1.06,0.91 0.93,1.02 0.81,1.14 0.66,1.22 0.51,1.30 0.35,1.34 0.19,1.38 0.02,1.39 -0.14,1.39 -0.31,1.35 -0.47,1.31 -0.62,1.24 -0.77,1.16 -0.77,1.16 L -0.77,1.16 Z"></path></g><g stroke-linecap="round" transform="translate(2288.286724004926 124.14378416136162) rotate(0 333.1785396491664 418.6088893076285)"><path d="M32 0 C208.51 1.33, 384.37 0.68, 634.36 0 M32 0 C237.88 0.76, 443.48 0.86, 634.36 0 M634.36 0 C656.22 -1.52, 667.14 10.02, 666.36 32 M634.36 0 C656.66 2.01, 667.34 10.25, 666.36 32 M666.36 32 C667.71 267.12, 667.73 502.96, 666.36 805.22 M666.36 32 C664.91 247.91, 664.96 463.7, 666.36 805.22 M666.36 805.22 C666.96 825.93, 653.7 836.94, 634.36 837.22 M666.36 805.22 C667.22 828.16, 655.8 835.41, 634.36 837.22 M634.36 837.22 C494.43 838.75, 355.39 838.33, 32 837.22 M634.36 837.22 C498.33 835.57, 362.36 836.08, 32 837.22 M32 837.22 C8.77 835.39, 0 828.53, 0 805.22 M32 837.22 C9.95 837.25, -1.49 825.74, 0 805.22 M0 805.22 C-1.24 499.27, -0.88 192.21, 0 32 M0 805.22 C0.12 532.74, 0 259.5, 0 32 M0 32 C0.3 12.33, 10.98 -1.47, 32 0 M0 32 C-0.84 10.61, 11.68 0.93, 32 0" stroke="#1e1e1e" stroke-width="1" fill="none"></path></g><g transform="translate(2294.6940026734933 478.6798378996583) rotate(0 33.10430571003644 53.39400519928142)" stroke="none"><path fill="#1e1e1e" d="M 0.98,-0.98 Q 0.98,-0.98 1.78,-0.55 2.58,-0.12 4.08,1.34 5.58,2.82 8.60,5.21 11.62,7.61 15.93,10.44 20.25,13.27 25.23,16.98 30.22,20.70 34.84,24.77 39.46,28.84 43.93,33.68 48.40,38.53 52.16,43.05 55.91,47.57 58.79,52.03 61.67,56.48 63.98,58.78 66.28,61.08 67.45,62.93 68.63,64.78 69.14,66.75 69.66,68.72 69.14,69.86 68.63,71.00 67.93,72.33 67.23,73.66 65.53,75.71 63.84,77.76 61.76,79.34 59.68,80.92 56.30,82.83 52.92,84.73 47.82,87.37 42.72,90.01 37.98,91.79 33.25,93.57 28.23,95.53 23.22,97.49 18.55,98.96 13.89,100.43 10.25,102.21 6.61,103.99 4.51,105.31 2.40,106.63 1.02,107.79 -0.34,108.95 -0.21,108.51 -0.08,108.07 -0.24,108.23 -0.40,108.39 -0.59,108.50 -0.78,108.62 -0.99,108.69 -1.20,108.75 -1.43,108.76 -1.65,108.78 -1.87,108.74 -2.09,108.70 -2.29,108.61 -2.49,108.51 -2.67,108.38 -2.84,108.24 -2.98,108.06 -3.12,107.89 -3.21,107.69 -3.30,107.48 -3.34,107.26 -3.38,107.04 -3.37,106.82 -3.36,106.60 -3.29,106.39 -3.22,106.17 -3.11,105.98 -2.99,105.79 -1.10,104.87 0.77,103.94 0.97,103.86 1.17,103.78 1.38,103.77 1.59,103.75 1.80,103.81 2.00,103.86 2.18,103.98 2.36,104.09 2.49,104.26 2.62,104.43 2.69,104.63 2.76,104.83 2.76,105.04 2.77,105.25 2.70,105.46 2.64,105.66 2.51,105.83 2.38,106.00 2.21,106.12 2.03,106.24 1.83,106.30 1.63,106.36 1.41,106.35 1.20,106.35 1.00,106.27 0.81,106.19 0.64,106.06 0.48,105.92 0.37,105.74 0.25,105.56 0.20,105.36 0.16,105.15 0.18,104.94 0.20,104.73 0.28,104.53 0.37,104.34 0.51,104.18 0.66,104.03 0.84,103.92 1.03,103.82 1.24,103.78 1.45,103.75 1.66,103.78 1.87,103.81 2.06,103.91 2.25,104.00 2.39,104.16 2.54,104.31 2.64,104.50 2.73,104.69 2.75,104.90 2.78,105.11 2.74,105.32 2.69,105.53 2.59,105.71 2.48,105.90 2.32,106.04 2.16,106.18 2.16,106.18 2.16,106.18 1.03,107.12 -0.08,108.07 -0.24,108.23 -0.40,108.39 -0.59,108.50 -0.78,108.62 -0.99,108.69 -1.20,108.75 -1.43,108.76 -1.65,108.78 -1.87,108.74 -2.09,108.70 -2.29,108.61 -2.49,108.52 -2.67,108.38 -2.84,108.24 -2.98,108.06 -3.12,107.89 -3.21,107.69 -3.30,107.48 -3.34,107.26 -3.38,107.04 -3.37,106.82 -3.36,106.60 -3.29,106.39 -3.22,106.17 -3.11,105.98 -2.99,105.79 -2.06,105.56 -1.12,105.32 -0.61,104.06 -0.09,102.81 2.25,101.33 4.60,99.85 8.55,97.94 12.50,96.04 17.02,94.62 21.54,93.19 26.59,91.23 31.63,89.26 36.12,87.59 40.61,85.91 45.64,83.32 50.68,80.73 53.83,78.99 56.97,77.25 58.68,76.03 60.39,74.80 61.82,73.15 63.26,71.49 64.14,69.24 65.01,66.98 64.13,65.51 63.24,64.03 60.71,61.39 58.17,58.75 55.44,54.48 52.72,50.21 49.06,45.75 45.39,41.30 41.08,36.59 36.77,31.88 32.29,27.90 27.80,23.93 22.92,20.27 18.04,16.61 13.59,13.65 9.14,10.70 5.98,8.14 2.82,5.58 1.34,4.08 -0.12,2.58 -0.55,1.78 -0.98,0.98 -1.08,0.84 -1.18,0.71 -1.25,0.56 -1.32,0.41 -1.35,0.24 -1.38,0.08 -1.37,-0.08 -1.36,-0.25 -1.31,-0.40 -1.26,-0.56 -1.17,-0.71 -1.09,-0.85 -0.97,-0.97 -0.85,-1.09 -0.71,-1.17 -0.56,-1.26 -0.40,-1.31 -0.24,-1.36 -0.08,-1.37 0.08,-1.38 0.24,-1.35 0.41,-1.32 0.56,-1.25 0.71,-1.18 0.84,-1.08 0.98,-0.98 0.98,-0.98 L 0.98,-0.98 Z"></path></g><g transform="translate(2424.9753030119277 502.1732256068435) rotate(0 -2.1357269670847927 49.122453497798574)" stroke="none"><path fill="#1e1e1e" d="M 1.39,0.17 Q 1.39,0.17 1.12,5.12 0.85,10.08 -0.00,21.33 -0.87,32.58 -1.24,37.99 -1.61,43.39 -1.76,50.56 -1.92,57.72 -1.98,62.62 -2.05,67.52 -1.61,75.67 -1.17,83.81 -0.50,87.84 0.16,91.86 0.45,93.62 0.74,95.39 0.75,95.60 0.76,95.81 0.70,96.02 0.64,96.22 0.52,96.40 0.40,96.57 0.23,96.70 0.06,96.82 -0.14,96.89 -0.34,96.96 -0.55,96.95 -0.76,96.95 -0.96,96.88 -1.16,96.81 -1.33,96.68 -1.50,96.55 -1.62,96.37 -1.73,96.20 -1.79,95.99 -1.84,95.79 -1.83,95.57 -1.82,95.36 -1.74,95.17 -1.66,94.97 -1.52,94.81 -1.38,94.65 -1.19,94.54 -1.01,94.43 -0.80,94.39 -0.60,94.35 -0.38,94.37 -0.17,94.40 0.01,94.49 0.20,94.58 0.35,94.73 0.51,94.87 0.60,95.06 0.70,95.25 0.73,95.46 0.77,95.67 0.73,95.88 0.69,96.09 0.59,96.28 0.49,96.46 0.33,96.61 0.18,96.75 -0.00,96.84 -0.20,96.93 -0.41,96.95 -0.62,96.97 -0.83,96.92 -1.04,96.87 -1.22,96.76 -1.40,96.65 -1.53,96.49 -1.67,96.32 -1.75,96.13 -1.82,95.93 -1.82,95.93 -1.82,95.93 -2.27,94.20 -2.71,92.47 -3.77,88.27 -4.82,84.08 -5.55,75.77 -6.29,67.46 -6.22,62.55 -6.15,57.63 -5.99,50.37 -5.83,43.10 -5.45,37.68 -5.08,32.25 -4.19,20.91 -3.31,9.56 -2.35,4.69 -1.39,-0.17 -1.35,-0.33 -1.31,-0.50 -1.23,-0.65 -1.15,-0.80 -1.04,-0.92 -0.92,-1.05 -0.78,-1.15 -0.64,-1.24 -0.49,-1.30 -0.33,-1.36 -0.16,-1.38 0.00,-1.40 0.17,-1.38 0.34,-1.36 0.49,-1.30 0.65,-1.24 0.79,-1.14 0.93,-1.04 1.04,-0.92 1.15,-0.79 1.23,-0.64 1.31,-0.49 1.35,-0.32 1.39,-0.16 1.39,0.00 1.39,0.17 1.39,0.17 L 1.39,0.17 Z"></path></g><g transform="translate(2399.346188337658 495.7659469382761) rotate(0 34.17221807723581 3.2036393342837073)" stroke="none"><path fill="#1e1e1e" d="M 0.44,-1.32 Q 0.44,-1.32 6.08,0.17 11.72,1.67 14.60,2.44 17.48,3.20 21.49,2.87 25.49,2.55 31.57,1.81 37.65,1.07 48.30,0.46 58.96,-0.15 63.47,-0.43 67.98,-0.72 68.19,-0.71 68.40,-0.69 68.60,-0.61 68.79,-0.52 68.95,-0.38 69.11,-0.24 69.22,-0.06 69.32,0.12 69.36,0.32 69.41,0.53 69.38,0.74 69.35,0.95 69.26,1.15 69.16,1.34 69.01,1.49 68.87,1.64 68.68,1.73 68.49,1.83 68.28,1.86 68.06,1.89 67.86,1.85 67.65,1.81 67.46,1.71 67.28,1.61 67.13,1.45 66.99,1.29 66.91,1.10 66.82,0.90 66.80,0.69 66.78,0.48 66.83,0.27 66.88,0.06 67.00,-0.11 67.11,-0.28 67.27,-0.42 67.44,-0.55 67.64,-0.63 67.84,-0.70 68.05,-0.71 68.26,-0.72 68.47,-0.65 68.67,-0.59 68.84,-0.47 69.02,-0.35 69.14,-0.18 69.27,-0.00 69.33,0.19 69.39,0.39 69.39,0.60 69.38,0.82 69.31,1.02 69.24,1.22 69.11,1.38 68.98,1.55 68.80,1.66 68.62,1.78 68.41,1.83 68.21,1.89 68.21,1.88 68.21,1.88 63.72,2.38 59.22,2.88 48.69,4.12 38.16,5.36 31.97,6.09 25.77,6.81 21.12,7.05 16.47,7.29 13.42,6.49 10.38,5.68 4.97,3.50 -0.44,1.32 -0.59,1.25 -0.74,1.17 -0.87,1.07 -1.00,0.96 -1.10,0.83 -1.20,0.69 -1.27,0.54 -1.33,0.38 -1.36,0.22 -1.39,0.05 -1.38,-0.11 -1.36,-0.27 -1.31,-0.43 -1.26,-0.59 -1.17,-0.73 -1.08,-0.88 -0.95,-0.99 -0.83,-1.11 -0.69,-1.19 -0.54,-1.28 -0.38,-1.32 -0.22,-1.37 -0.05,-1.38 0.11,-1.39 0.27,-1.35 0.44,-1.32 0.44,-1.32 L 0.44,-1.32 Z"></path></g><g transform="translate(2265.4780254772654 503.737574379526) rotate(0 -5.643236350815073 36.11695030737667)" stroke="none"><path fill="#1e1e1e" d="M 0,1.38 Q 0,1.38 -1.91,1.74 -3.82,2.09 -4.91,2.68 -6.00,3.27 -8.19,3.64 -10.38,4.01 -12.98,4.74 -15.58,5.47 -19.00,8.21 -22.43,10.94 -24.63,12.77 -26.82,14.60 -28.19,17.64 -29.55,20.67 -30.19,25.70 -30.83,30.74 -31.13,33.60 -31.44,36.46 -28.49,47.12 -25.55,57.78 -21.81,64.16 -18.07,70.53 -12.27,73.09 -6.48,75.64 -1.08,74.23 4.30,72.81 8.36,67.88 12.41,62.94 14.72,55.81 17.03,48.67 17.38,43.17 17.73,37.67 17.90,32.67 18.07,27.68 17.50,23.77 16.93,19.85 16.05,16.27 15.17,12.68 14.14,8.57 13.12,4.46 10.40,1.18 7.67,-2.08 3.66,-2.77 -0.35,-3.46 -5.08,-1.97 -9.81,-0.48 -13.70,2.57 -17.59,5.62 -21.25,7.46 -24.91,9.29 -25.11,9.37 -25.31,9.44 -25.52,9.45 -25.74,9.46 -25.94,9.40 -26.14,9.34 -26.32,9.21 -26.49,9.09 -26.62,8.92 -26.74,8.75 -26.80,8.54 -26.87,8.34 -26.86,8.13 -26.86,7.92 -26.79,7.72 -26.72,7.52 -26.58,7.35 -26.45,7.18 -26.27,7.07 -26.09,6.95 -25.89,6.90 -25.68,6.85 -25.47,6.86 -25.26,6.88 -25.06,6.96 -24.87,7.04 -24.71,7.18 -24.55,7.33 -24.44,7.51 -24.34,7.69 -24.30,7.90 -24.26,8.11 -24.28,8.32 -24.31,8.53 -24.40,8.72 -24.50,8.91 -24.65,9.07 -24.80,9.22 -24.99,9.31 -25.17,9.41 -25.39,9.44 -25.60,9.47 -25.80,9.43 -26.01,9.39 -26.20,9.29 -26.38,9.18 -26.53,9.03 -26.67,8.87 -26.76,8.67 -26.84,8.48 -26.86,8.27 -26.88,8.06 -26.83,7.85 -26.78,7.64 -26.66,7.46 -26.55,7.28 -26.39,7.15 -26.22,7.02 -26.22,7.02 -26.22,7.02 -23.01,4.91 -19.80,2.80 -15.40,-0.64 -11.00,-4.10 -5.39,-5.71 0.21,-7.32 5.26,-6.15 10.31,-4.98 13.66,-0.82 17.00,3.32 18.03,7.53 19.05,11.74 19.96,15.52 20.87,19.30 21.44,23.56 22.01,27.81 21.82,32.89 21.62,37.96 21.11,43.91 20.60,49.87 17.83,57.49 15.06,65.11 10.22,70.45 5.38,75.79 -0.98,77.18 -7.36,78.57 -13.98,75.50 -20.61,72.44 -24.71,65.59 -28.82,58.74 -32.12,47.45 -35.41,36.17 -35.14,33.19 -34.86,30.22 -34.13,24.57 -33.41,18.93 -31.56,15.17 -29.72,11.41 -27.41,9.45 -25.10,7.50 -20.98,4.39 -16.87,1.28 -13.94,0.48 -11.01,-0.31 -9.35,-0.49 -7.69,-0.67 -5.82,-1.38 -3.96,-2.09 -1.98,-1.74 0,-1.38 0.16,-1.36 0.33,-1.34 0.48,-1.28 0.64,-1.22 0.78,-1.13 0.92,-1.03 1.03,-0.91 1.14,-0.78 1.21,-0.64 1.29,-0.49 1.33,-0.32 1.37,-0.16 1.37,0.00 1.37,0.16 1.33,0.32 1.29,0.49 1.21,0.64 1.14,0.78 1.03,0.91 0.92,1.03 0.78,1.13 0.64,1.22 0.48,1.28 0.33,1.34 0.16,1.36 -0.00,1.38 -0.00,1.38 L 0,1.38 Z"></path></g><g transform="translate(2976.53014559767 747.526872706522) rotate(0 -2.2737367544323206e-13 23.701840668721275)" stroke="none"><path fill="#1e1e1e" d="M 0,1.39 Q 0,1.39 -1.94,1.66 -3.89,1.93 -5.16,1.87 -6.42,1.81 -8.50,4.19 -10.57,6.58 -11.53,8.16 -12.49,9.74 -13.58,11.73 -14.66,13.71 -15.70,18.23 -16.74,22.75 -17.21,27.86 -17.68,32.97 -16.65,36.83 -15.63,40.68 -13.51,43.38 -11.39,46.09 -8.87,46.51 -6.35,46.93 -2.89,45.93 0.57,44.94 4.50,42.02 8.43,39.11 11.26,34.81 14.10,30.51 14.61,26.38 15.12,22.24 14.11,18.06 13.10,13.89 11.43,10.21 9.76,6.53 7.85,3.78 5.93,1.02 4.16,0.07 2.39,-0.88 0.75,-0.20 -0.88,0.46 -1.05,0.59 -1.22,0.72 -1.42,0.79 -1.63,0.85 -1.84,0.85 -2.05,0.85 -2.25,0.78 -2.45,0.71 -2.62,0.59 -2.79,0.46 -2.91,0.28 -3.03,0.10 -3.08,-0.09 -3.14,-0.30 -3.13,-0.51 -3.12,-0.72 -3.04,-0.92 -2.96,-1.11 -2.82,-1.28 -2.68,-1.44 -2.50,-1.55 -2.32,-1.66 -2.11,-1.70 -1.90,-1.75 -1.69,-1.72 -1.48,-1.70 -1.29,-1.61 -1.09,-1.52 -0.94,-1.37 -0.79,-1.23 -0.69,-1.04 -0.59,-0.85 -0.55,-0.64 -0.52,-0.43 -0.56,-0.22 -0.59,-0.01 -0.69,0.17 -0.79,0.35 -0.95,0.50 -1.10,0.65 -1.29,0.73 -1.49,0.82 -1.70,0.84 -1.91,0.87 -2.12,0.82 -2.32,0.77 -2.51,0.66 -2.69,0.55 -2.82,0.39 -2.96,0.23 -3.04,0.03 -3.12,-0.16 -3.13,-0.37 -3.14,-0.58 -3.08,-0.79 -3.02,-0.99 -2.90,-1.17 -2.78,-1.34 -2.78,-1.34 -2.78,-1.34 0.60,-2.89 3.99,-4.44 6.54,-2.90 9.10,-1.35 11.25,1.76 13.40,4.89 15.19,8.95 16.97,13.00 17.99,17.86 19.02,22.72 18.19,27.63 17.36,32.54 14.00,37.30 10.64,42.07 6.10,45.21 1.56,48.36 -2.69,49.40 -6.94,50.43 -10.37,49.54 -13.79,48.64 -16.50,45.19 -19.20,41.74 -20.37,37.22 -21.54,32.70 -21.05,27.28 -20.56,21.85 -19.36,16.85 -18.15,11.85 -17.01,9.74 -15.87,7.64 -14.64,5.71 -13.41,3.79 -10.34,0.99 -7.26,-1.81 -5.57,-1.87 -3.89,-1.93 -1.94,-1.66 0,-1.39 0.16,-1.37 0.33,-1.35 0.49,-1.29 0.64,-1.23 0.78,-1.14 0.92,-1.04 1.03,-0.92 1.15,-0.79 1.22,-0.64 1.30,-0.49 1.34,-0.33 1.38,-0.16 1.38,0.00 1.38,0.16 1.34,0.33 1.30,0.49 1.22,0.64 1.15,0.79 1.03,0.92 0.92,1.04 0.78,1.14 0.64,1.23 0.49,1.29 0.33,1.35 0.16,1.37 -0.00,1.39 -0.00,1.39 L 0,1.39 Z"></path></g><g stroke-linecap="round"><g transform="translate(2956.302917605834 318.4956319198477) rotate(0 154.94076941451 -3.1459924945856983)"><path d="M0.32 -0.91 C47.28 -1.87, 233.77 -4.38, 282.04 -5.11 C330.31 -5.83, 285.21 -5.01, 289.94 -5.24 C294.66 -5.48, 307.06 -6.47, 310.39 -6.51 M-0.98 1.23 C45.84 0.38, 232.94 -2.4, 281.34 -3.77 C329.74 -5.15, 284.51 -6.74, 289.43 -7.03 C294.36 -7.33, 307.73 -5.91, 310.91 -5.52" stroke="#1e1e1e" stroke-width="1" fill="none"></path></g></g><mask></mask><g stroke-linecap="round"><g transform="translate(2994.649367599853 773.9275027060062) rotate(0 143.82655411935343 -2.6969158904312565)"><path d="M0.47 -0.39 C48.44 -0.96, 240.21 -3.47, 288.16 -4.34 M-0.74 -1.64 C47.09 -2.44, 239.4 -5.46, 287.47 -5.92" stroke="#1e1e1e" stroke-width="1" fill="none"></path></g></g><mask></mask><g transform="translate(3191.672826790377 309.22833524699945) rotate(0 4.479351500768644 6.15912753692146)" stroke="none"><path fill="#1e1e1e" d="M 0.98,0.98 Q 0.98,0.98 -0.12,2.24 -1.23,3.51 -1.35,6.48 -1.46,9.46 -1.01,10.69 -0.56,11.92 1.07,11.81 2.72,11.69 4.24,11.12 5.77,10.55 6.98,9.72 8.20,8.89 7.71,7.41 7.22,5.93 6.51,5.04 5.80,4.15 4.48,4.98 3.15,5.81 2.46,6.90 1.77,7.99 2.29,9.12 2.82,10.24 4.42,9.58 6.02,8.93 5.44,7.65 4.86,6.37 3.19,6.97 1.53,7.56 3.27,7.88 5.01,8.20 3.73,7.47 2.45,6.74 3.58,7.76 4.72,8.77 5.96,8.79 7.20,8.82 7.12,7.38 7.04,5.94 6.00,5.57 4.96,5.19 3.86,5.57 2.77,5.96 3.40,7.70 4.03,9.44 5.11,9.72 6.19,10.00 7.92,9.29 9.64,8.57 9.78,6.79 9.91,5.02 8.72,4.21 7.52,3.39 6.30,3.05 5.07,2.70 3.95,2.76 2.84,2.82 2.53,4.05 2.23,5.28 2.06,6.50 1.90,7.72 3.58,8.82 5.27,9.92 6.79,9.00 8.32,8.08 8.37,6.33 8.42,4.58 7.49,3.42 6.57,2.26 5.57,1.07 4.58,-0.11 3.60,0.66 2.62,1.44 2.43,3.21 2.24,4.97 2.37,6.51 2.50,8.04 3.31,8.74 4.13,9.44 5.41,9.30 6.69,9.16 7.95,8.45 9.21,7.73 9.10,6.25 8.98,4.77 6.79,4.16 4.61,3.55 3.48,4.03 2.35,4.51 3.17,5.47 4.00,6.42 5.07,6.63 6.15,6.84 7.42,6.65 8.70,6.46 9.52,5.82 10.34,5.18 10.56,5.12 10.78,5.06 11.01,5.06 11.25,5.05 11.47,5.10 11.70,5.15 11.90,5.26 12.11,5.36 12.29,5.51 12.46,5.66 12.60,5.85 12.73,6.04 12.82,6.25 12.91,6.47 12.94,6.70 12.97,6.92 12.95,7.16 12.92,7.39 12.85,7.60 12.77,7.82 12.64,8.01 12.51,8.21 12.34,8.36 12.17,8.52 11.97,8.63 11.77,8.74 10.14,9.85 8.52,10.95 7.71,11.53 6.91,12.11 6.87,12.32 6.84,12.53 6.74,12.72 6.64,12.91 6.48,13.05 6.33,13.20 6.13,13.29 5.94,13.37 5.73,13.39 5.52,13.42 5.31,13.37 5.10,13.32 4.92,13.21 4.74,13.10 4.60,12.94 4.47,12.78 4.39,12.58 4.31,12.38 4.30,12.17 4.29,11.95 4.35,11.75 4.41,11.55 4.53,11.37 4.65,11.20 4.82,11.07 4.99,10.94 5.19,10.87 5.39,10.81 5.60,10.81 5.82,10.81 6.02,10.88 6.22,10.95 6.39,11.08 6.56,11.21 6.67,11.39 6.79,11.56 6.85,11.77 6.90,11.97 6.89,12.18 6.88,12.40 6.80,12.59 6.72,12.79 6.58,12.95 6.44,13.11 6.26,13.22 6.07,13.33 5.87,13.37 5.66,13.42 5.45,13.39 5.24,13.37 5.04,13.28 4.85,13.19 4.70,13.04 4.54,12.89 4.45,12.70 4.35,12.52 4.32,12.31 4.28,12.10 4.28,12.10 4.28,12.10 5.01,10.18 5.74,8.27 8.04,6.72 10.34,5.18 10.56,5.12 10.78,5.06 11.01,5.06 11.25,5.05 11.47,5.10 11.70,5.15 11.90,5.26 12.11,5.36 12.29,5.51 12.46,5.66 12.60,5.85 12.73,6.04 12.82,6.25 12.91,6.47 12.94,6.70 12.97,6.92 12.95,7.15 12.92,7.39 12.85,7.60 12.77,7.82 12.64,8.01 12.51,8.21 12.34,8.36 12.17,8.52 11.97,8.63 11.77,8.74 11.71,8.71 11.65,8.68 10.37,9.20 9.09,9.72 7.25,9.87 5.41,10.03 3.71,9.53 2.01,9.04 0.74,7.80 -0.52,6.57 -0.56,4.72 -0.60,2.87 0.38,1.85 1.37,0.84 3.23,0.29 5.09,-0.26 7.27,0.24 9.46,0.76 10.88,2.01 12.31,3.27 12.67,5.05 13.04,6.83 12.10,8.61 11.17,10.40 9.56,11.34 7.95,12.29 6.38,12.74 4.81,13.19 3.26,12.54 1.70,11.90 0.42,10.38 -0.86,8.86 -1.14,6.68 -1.42,4.51 -1.04,2.08 -0.67,-0.33 0.29,-1.83 1.26,-3.33 2.64,-3.82 4.01,-4.31 5.78,-3.51 7.54,-2.72 8.70,-1.29 9.86,0.13 10.96,2.11 12.06,4.09 12.06,5.94 12.07,7.80 11.35,9.18 10.63,10.56 9.05,11.74 7.47,12.92 5.81,13.01 4.16,13.09 2.44,12.30 0.72,11.52 -0.40,9.75 -1.53,7.99 -1.44,6.21 -1.36,4.44 -0.88,2.78 -0.41,1.11 0.78,0.13 1.98,-0.85 4.12,-0.97 6.27,-1.09 8.18,-0.34 10.08,0.39 11.72,2.14 13.35,3.89 13.56,5.97 13.76,8.05 12.64,9.73 11.51,11.40 9.99,12.23 8.47,13.07 6.86,13.17 5.26,13.28 3.49,12.66 1.71,12.03 0.38,10.60 -0.95,9.18 -1.30,7.80 -1.66,6.42 -1.32,5.15 -0.97,3.87 0.50,2.96 1.97,2.05 4.10,1.80 6.22,1.55 8.20,2.71 10.17,3.87 10.78,5.52 11.39,7.17 10.91,8.59 10.43,10.02 9.38,10.98 8.34,11.95 7.11,12.20 5.88,12.45 4.49,12.12 3.11,11.78 1.66,10.89 0.20,10.01 -0.34,9.00 -0.89,7.99 -1.03,6.60 -1.17,5.20 -0.47,4.22 0.23,3.24 1.69,3.02 3.15,2.81 4.49,3.07 5.83,3.34 7.73,4.63 9.64,5.92 9.02,7.92 8.41,9.93 7.21,10.58 6.02,11.24 4.09,11.77 2.16,12.30 0.34,11.76 -1.47,11.23 -2.12,10.00 -2.77,8.77 -2.56,7.40 -2.36,6.04 -1.24,5.08 -0.12,4.12 1.53,3.44 3.20,2.75 5.12,3.09 7.04,3.42 8.33,5.01 9.63,6.60 9.53,8.09 9.43,9.58 8.60,10.59 7.77,11.60 5.95,12.57 4.13,13.54 2.76,13.32 1.39,13.10 0.23,12.37 -0.91,11.65 -1.56,10.09 -2.20,8.53 -1.74,7.22 -1.29,5.92 -0.14,4.31 1.00,2.70 2.92,1.65 4.84,0.60 6.48,0.95 8.13,1.30 9.28,2.58 10.43,3.86 11.21,5.31 11.99,6.75 11.87,8.20 11.75,9.64 10.88,10.66 10.02,11.67 8.41,12.64 6.80,13.60 4.71,14.22 2.62,14.83 0.30,14.49 -2.00,14.15 -3.29,11.80 -4.58,9.46 -4.24,5.55 -3.91,1.63 -2.44,0.32 -0.98,-0.98 -0.84,-1.08 -0.71,-1.18 -0.56,-1.25 -0.41,-1.32 -0.24,-1.35 -0.08,-1.38 0.08,-1.37 0.25,-1.36 0.40,-1.31 0.56,-1.26 0.71,-1.17 0.85,-1.09 0.97,-0.97 1.09,-0.85 1.17,-0.71 1.26,-0.56 1.31,-0.40 1.36,-0.25 1.37,-0.08 1.38,0.08 1.35,0.24 1.32,0.41 1.25,0.56 1.18,0.71 1.08,0.84 0.98,0.98 0.98,0.98 L 0.98,0.98 Z"></path></g><g stroke-linecap="round"><g transform="translate(1957.316083588281 560.7444549783545) rotate(0 136.6065214515378 -5.2725177791814986)"><path d="M0.51 -0.21 C45.97 -2.01, 227.67 -7.81, 273.27 -9.72 M-0.68 -1.37 C44.59 -2.98, 226.6 -9.81, 272.36 -11.41" stroke="#1e1e1e" stroke-width="1" fill="none"></path></g></g><mask></mask><g transform="translate(3202.9375888074196 302.8539037736573) rotate(0 41.29595896099363 -100.94567746020681)" stroke="none"><path fill="#1e1e1e" d="M 0,-1.33 Q 0,-1.33 0.84,-1.12 1.69,-0.91 1.83,0.55 1.97,2.03 1.93,1.35 1.89,0.67 1.94,0.84 1.98,1.01 1.99,1.19 2.00,1.37 1.96,1.54 1.93,1.72 1.85,1.88 1.77,2.04 1.66,2.18 1.55,2.31 1.41,2.42 1.26,2.53 1.10,2.60 0.94,2.67 0.76,2.69 0.59,2.72 0.41,2.71 0.23,2.69 0.06,2.64 -0.10,2.58 -0.25,2.49 -0.40,2.39 -0.52,2.26 -0.64,2.13 -0.73,1.98 -0.82,1.83 0.83,0.88 2.49,-0.05 2.54,0.11 2.59,0.29 2.60,0.47 2.61,0.65 2.57,0.83 2.54,1.01 2.46,1.17 2.38,1.34 2.26,1.48 2.15,1.62 2.00,1.73 1.86,1.84 1.69,1.91 1.52,1.98 1.34,2.01 1.16,2.04 0.98,2.02 0.80,2.01 0.62,1.95 0.45,1.89 0.30,1.80 0.14,1.70 0.02,1.57 -0.10,1.44 -0.19,1.28 -0.28,1.12 1.24,0.81 2.77,0.49 2.82,0.67 2.87,0.85 2.88,1.04 2.89,1.23 2.85,1.41 2.81,1.59 2.73,1.76 2.65,1.93 2.53,2.07 2.42,2.22 2.27,2.33 2.12,2.44 1.95,2.52 1.77,2.59 1.59,2.62 1.41,2.65 1.22,2.63 1.03,2.62 0.86,2.56 0.68,2.50 0.52,2.40 0.36,2.30 0.23,2.16 0.11,2.03 0.01,1.87 -0.07,1.71 1.42,0.77 2.93,-0.16 2.98,0.02 3.04,0.21 3.05,0.40 3.05,0.60 3.01,0.79 2.98,0.98 2.89,1.15 2.81,1.33 2.69,1.48 2.56,1.63 2.41,1.74 2.25,1.86 2.07,1.94 1.89,2.01 1.70,2.04 1.51,2.07 1.32,2.06 1.12,2.04 0.94,1.98 0.76,1.92 0.59,1.82 0.43,1.71 0.29,1.57 0.16,1.43 0.06,1.26 -0.02,1.09 1.47,0.77 2.98,0.44 3.04,0.63 3.09,0.82 3.10,1.01 3.10,1.21 3.07,1.40 3.03,1.59 2.94,1.76 2.86,1.94 2.74,2.09 2.61,2.24 2.46,2.36 2.30,2.48 2.12,2.55 1.94,2.63 1.75,2.66 1.56,2.69 1.36,2.68 1.17,2.66 0.98,2.60 0.80,2.54 0.63,2.43 0.47,2.33 0.33,2.19 0.20,2.04 0.10,1.88 0.00,1.71 -0.08,0.48 -0.18,-0.73 -0.14,-0.93 -0.11,-1.14 -0.03,-1.33 0.03,-1.52 0.16,-1.68 0.28,-1.85 0.44,-1.98 0.59,-2.11 0.78,-2.20 0.96,-2.29 1.16,-2.33 1.36,-2.38 1.57,-2.37 1.77,-2.36 1.97,-2.31 2.17,-2.25 2.35,-2.15 2.53,-2.05 2.68,-1.91 2.83,-1.77 2.94,-1.60 3.05,-1.43 3.12,-1.23 3.19,-1.04 3.20,-0.83 3.22,-0.63 1.51,-0.48 -0.19,-0.34 -0.16,-0.54 -0.13,-0.75 -0.05,-0.94 0.02,-1.13 0.14,-1.30 0.27,-1.47 0.43,-1.60 0.58,-1.74 0.77,-1.83 0.96,-1.92 1.16,-1.96 1.37,-2.00 1.57,-2.00 1.78,-1.99 1.98,-1.94 2.18,-1.88 2.36,-1.78 2.54,-1.68 2.70,-1.53 2.85,-1.39 2.96,-1.22 3.07,-1.04 3.14,-0.84 3.21,-0.65 3.23,-0.44 3.25,-0.23 1.52,-0.62 -0.21,-1.00 -0.21,-2.28 -0.21,-3.56 -0.22,-5.05 -0.23,-6.53 -0.24,-8.07 -0.24,-9.61 0.23,-11.10 0.71,-12.59 0.85,-13.80 0.99,-15.00 1.52,-17.43 2.05,-19.85 2.25,-21.64 2.46,-23.43 3.00,-26.48 3.54,-29.53 4.21,-33.02 4.87,-36.50 5.60,-39.76 6.33,-43.02 6.63,-44.79 6.93,-46.56 8.40,-51.40 9.88,-56.25 11.36,-61.75 12.85,-67.25 14.36,-73.11 15.87,-78.97 18.32,-84.26 20.78,-89.55 23.59,-94.44 26.41,-99.33 29.35,-104.45 32.30,-109.57 35.29,-115.65 38.28,-121.73 41.79,-127.89 45.30,-134.06 47.63,-139.23 49.96,-144.39 51.83,-149.21 53.70,-154.03 55.37,-159.13 57.04,-164.23 58.67,-167.82 60.30,-171.42 61.41,-174.19 62.51,-176.96 63.42,-179.45 64.32,-181.94 65.21,-183.56 66.10,-185.18 66.89,-186.68 67.69,-188.18 68.47,-189.71 69.26,-191.25 70.65,-192.56 72.03,-193.87 73.35,-195.53 74.66,-197.19 76.21,-198.84 77.75,-200.49 79.35,-202.04 80.96,-203.60 81.13,-203.73 81.30,-203.86 81.50,-203.93 81.70,-204.00 81.91,-204.00 82.12,-204.00 82.33,-203.93 82.53,-203.87 82.70,-203.74 82.87,-203.61 82.99,-203.43 83.11,-203.26 83.16,-203.06 83.22,-202.85 83.21,-202.64 83.20,-202.43 83.12,-202.23 83.05,-202.03 82.91,-201.87 82.77,-201.71 82.59,-201.60 82.41,-201.48 82.20,-201.44 81.99,-201.39 81.78,-201.41 81.57,-201.44 81.38,-201.52 81.19,-201.61 81.03,-201.76 80.88,-201.90 80.78,-202.09 80.68,-202.28 80.64,-202.49 80.60,-202.70 80.64,-202.91 80.67,-203.12 80.77,-203.30 80.87,-203.49 81.02,-203.64 81.18,-203.79 81.37,-203.88 81.56,-203.97 81.77,-203.99 81.98,-204.01 82.19,-203.97 82.40,-203.92 82.58,-203.82 82.76,-203.71 82.90,-203.55 83.04,-203.38 83.12,-203.19 83.20,-202.99 83.21,-202.78 83.22,-202.57 83.17,-202.36 83.11,-202.16 82.99,-201.98 82.88,-201.80 82.88,-201.80 82.88,-201.80 81.45,-200.13 80.01,-198.45 78.62,-196.82 77.22,-195.19 75.74,-193.29 74.27,-191.39 73.24,-190.53 72.20,-189.66 71.44,-188.14 70.67,-186.63 69.88,-185.08 69.09,-183.54 68.33,-182.15 67.56,-180.76 66.64,-178.22 65.72,-175.68 64.58,-172.83 63.45,-169.99 61.90,-166.57 60.34,-163.15 58.65,-157.96 56.97,-152.77 55.08,-147.85 53.18,-142.94 50.80,-137.62 48.41,-132.30 44.97,-126.22 41.53,-120.13 38.50,-113.94 35.47,-107.75 32.54,-102.62 29.60,-97.48 26.86,-92.73 24.11,-87.99 21.76,-83.01 19.41,-78.04 17.89,-72.17 16.37,-66.29 14.86,-60.74 13.36,-55.18 11.93,-50.57 10.51,-45.95 10.19,-44.09 9.87,-42.23 9.16,-39.02 8.44,-35.82 7.77,-32.36 7.10,-28.90 6.58,-25.95 6.06,-23.01 5.82,-21.04 5.58,-19.07 5.07,-16.80 4.57,-14.52 3.93,-12.03 3.30,-9.54 3.30,-8.03 3.29,-6.53 3.28,-5.05 3.27,-3.56 3.27,-2.28 3.26,-0.99 1.53,-0.67 -0.19,-0.34 -0.16,-0.54 -0.13,-0.75 -0.05,-0.94 0.02,-1.13 0.14,-1.30 0.27,-1.47 0.42,-1.60 0.58,-1.74 0.77,-1.83 0.96,-1.92 1.16,-1.96 1.37,-2.00 1.57,-2.00 1.78,-1.99 1.98,-1.94 2.18,-1.88 2.36,-1.78 2.54,-1.68 2.70,-1.53 2.85,-1.39 2.96,-1.22 3.07,-1.04 3.14,-0.84 3.21,-0.65 3.23,-0.44 3.25,-0.23 1.53,-0.48 -0.18,-0.73 -0.14,-0.93 -0.11,-1.14 -0.03,-1.33 0.03,-1.52 0.16,-1.68 0.28,-1.85 0.44,-1.98 0.59,-2.11 0.78,-2.20 0.96,-2.29 1.16,-2.33 1.36,-2.38 1.57,-2.37 1.77,-2.36 1.97,-2.31 2.17,-2.25 2.35,-2.15 2.53,-2.05 2.68,-1.91 2.83,-1.77 2.94,-1.60 3.05,-1.43 3.12,-1.23 3.18,-1.04 3.20,-0.83 3.22,-0.63 3.10,-0.09 2.98,0.44 3.04,0.63 3.09,0.82 3.10,1.01 3.10,1.21 3.07,1.40 3.03,1.59 2.94,1.76 2.86,1.94 2.74,2.09 2.61,2.24 2.46,2.36 2.30,2.48 2.12,2.55 1.94,2.63 1.75,2.66 1.56,2.69 1.36,2.68 1.17,2.66 0.98,2.60 0.80,2.54 0.63,2.43 0.47,2.33 0.33,2.19 0.20,2.05 0.10,1.88 0.00,1.71 1.47,0.77 2.93,-0.16 2.98,0.02 3.04,0.21 3.05,0.40 3.05,0.60 3.01,0.79 2.98,0.98 2.89,1.15 2.81,1.33 2.69,1.48 2.56,1.63 2.41,1.74 2.25,1.86 2.07,1.94 1.89,2.01 1.70,2.04 1.51,2.07 1.32,2.06 1.12,2.04 0.94,1.98 0.76,1.92 0.59,1.82 0.43,1.71 0.29,1.57 0.16,1.43 0.06,1.26 -0.02,1.09 1.37,0.79 2.77,0.49 2.82,0.67 2.87,0.85 2.88,1.04 2.89,1.23 2.85,1.41 2.81,1.59 2.73,1.76 2.65,1.93 2.53,2.07 2.42,2.22 2.27,2.33 2.12,2.44 1.95,2.52 1.77,2.59 1.59,2.62 1.41,2.65 1.22,2.63 1.03,2.62 0.86,2.56 0.68,2.50 0.52,2.40 0.36,2.30 0.23,2.17 0.11,2.03 0.01,1.87 -0.07,1.71 1.21,0.82 2.49,-0.05 2.54,0.11 2.59,0.29 2.60,0.47 2.61,0.65 2.57,0.83 2.54,1.01 2.46,1.17 2.38,1.34 2.26,1.48 2.15,1.62 2.00,1.73 1.86,1.84 1.69,1.91 1.52,1.98 1.34,2.01 1.16,2.04 0.98,2.02 0.80,2.01 0.62,1.95 0.45,1.89 0.30,1.80 0.14,1.70 0.02,1.57 -0.10,1.44 -0.19,1.28 -0.28,1.12 0.80,0.89 1.89,0.67 1.94,0.84 1.98,1.01 1.99,1.19 2.00,1.37 1.96,1.54 1.93,1.72 1.85,1.88 1.77,2.04 1.66,2.18 1.55,2.31 1.41,2.42 1.26,2.53 1.10,2.60 0.94,2.67 0.76,2.69 0.59,2.72 0.41,2.71 0.23,2.69 0.06,2.64 -0.10,2.58 -0.25,2.49 -0.40,2.39 -0.52,2.26 -0.64,2.13 -0.73,1.98 -0.82,1.83 -0.37,1.37 0.06,0.91 0.03,1.12 0,1.33 -0.15,1.31 -0.31,1.29 -0.46,1.23 -0.61,1.17 -0.75,1.08 -0.88,0.99 -0.98,0.87 -1.09,0.75 -1.17,0.61 -1.24,0.47 -1.28,0.31 -1.32,0.16 -1.32,-0.00 -1.32,-0.16 -1.28,-0.31 -1.24,-0.47 -1.17,-0.61 -1.09,-0.75 -0.98,-0.87 -0.88,-0.99 -0.75,-1.08 -0.61,-1.17 -0.46,-1.23 -0.31,-1.29 -0.15,-1.31 0.00,-1.33 0.00,-1.33 L 0,-1.33 Z"></path></g><g transform="translate(3335.355243700155 44.78133019460995) rotate(0 -4.690970585268815 25.800302429713838)" stroke="none"><path fill="#1e1e1e" d="M 0,1.38 Q 0,1.38 -3.55,1.65 -7.11,1.92 -9.55,3.11 -11.99,4.30 -14.67,9.02 -17.36,13.74 -18.55,21.43 -19.74,29.12 -19.83,35.53 -19.92,41.94 -20.14,44.45 -20.35,46.95 -16.44,47.30 -12.53,47.64 -8.93,45.26 -5.33,42.87 -1.10,38.35 3.13,33.84 5.73,28.46 8.34,23.08 8.97,19.67 9.59,16.26 8.62,14.30 7.65,12.35 5.22,10.77 2.80,9.19 1.17,7.87 -0.45,6.56 -1.93,5.64 -3.41,4.71 -4.71,3.88 -6.01,3.05 -6.19,2.95 -6.38,2.84 -6.52,2.68 -6.66,2.52 -6.74,2.33 -6.82,2.13 -6.84,1.92 -6.85,1.71 -6.80,1.50 -6.75,1.29 -6.63,1.12 -6.52,0.94 -6.35,0.81 -6.18,0.68 -5.98,0.60 -5.78,0.53 -5.57,0.53 -5.36,0.52 -5.16,0.59 -4.95,0.65 -4.78,0.78 -4.61,0.90 -4.49,1.08 -4.36,1.25 -4.30,1.45 -4.24,1.66 -4.25,1.87 -4.26,2.08 -4.33,2.28 -4.41,2.48 -4.54,2.64 -4.68,2.81 -4.86,2.92 -5.04,3.03 -5.24,3.08 -5.45,3.13 -5.66,3.11 -5.87,3.10 -6.07,3.01 -6.26,2.92 -6.42,2.78 -6.58,2.64 -6.68,2.45 -6.78,2.27 -6.82,2.06 -6.86,1.85 -6.83,1.64 -6.80,1.43 -6.70,1.24 -6.61,1.05 -6.45,0.90 -6.30,0.75 -6.11,0.66 -5.92,0.57 -5.71,0.54 -5.50,0.51 -5.29,0.55 -5.08,0.60 -5.08,0.60 -5.08,0.60 -3.19,0.97 -1.30,1.34 0.36,2.40 2.03,3.46 3.58,4.71 5.14,5.96 8.10,8.28 11.05,10.61 12.15,13.61 13.26,16.62 12.42,20.64 11.59,24.66 8.64,30.44 5.70,36.21 1.11,41.01 -3.48,45.81 -7.96,48.41 -12.45,51.02 -16.98,50.42 -21.51,49.81 -22.54,45.85 -23.57,41.89 -23.47,35.22 -23.37,28.54 -21.99,20.23 -20.61,11.92 -17.25,6.50 -13.90,1.09 -10.58,-0.41 -7.27,-1.92 -3.63,-1.65 0,-1.38 0.16,-1.36 0.33,-1.34 0.48,-1.28 0.64,-1.22 0.78,-1.13 0.92,-1.03 1.03,-0.91 1.14,-0.78 1.21,-0.64 1.29,-0.49 1.33,-0.32 1.37,-0.16 1.37,0.00 1.37,0.16 1.33,0.32 1.29,0.49 1.21,0.64 1.14,0.78 1.03,0.91 0.92,1.03 0.78,1.13 0.64,1.22 0.48,1.28 0.33,1.34 0.16,1.36 -0.00,1.38 -0.00,1.38 L 0,1.38 Z"></path></g><g transform="translate(3333.791539119378 65.10884553793176) rotate(0 10.945574172784063 15.63658054731826)" stroke="none"><path fill="#1e1e1e" d="M 1.47,-0.14 Q 1.47,-0.14 2.15,4.32 2.83,8.79 3.89,12.30 4.94,15.81 6.60,17.99 8.26,20.16 11.00,21.92 13.75,23.68 17.35,26.38 20.95,29.08 21.11,29.23 21.27,29.37 21.37,29.56 21.47,29.74 21.51,29.95 21.55,30.16 21.51,30.37 21.48,30.58 21.39,30.77 21.29,30.96 21.14,31.11 20.99,31.26 20.79,31.35 20.60,31.44 20.39,31.47 20.18,31.49 19.97,31.45 19.76,31.41 19.58,31.30 19.40,31.20 19.26,31.04 19.12,30.88 19.04,30.68 18.95,30.48 18.94,30.27 18.93,30.06 18.98,29.85 19.03,29.65 19.15,29.47 19.27,29.29 19.43,29.16 19.60,29.03 19.80,28.96 20.00,28.89 20.21,28.89 20.43,28.88 20.63,28.95 20.83,29.01 21.00,29.14 21.17,29.27 21.30,29.44 21.42,29.61 21.48,29.82 21.54,30.02 21.53,30.23 21.52,30.45 21.44,30.64 21.37,30.84 21.23,31.01 21.10,31.17 20.92,31.28 20.74,31.40 20.53,31.44 20.32,31.49 20.11,31.47 19.90,31.45 19.71,31.37 19.51,31.28 19.51,31.28 19.51,31.28 15.61,29.06 11.71,26.83 8.43,24.69 5.14,22.55 3.17,19.77 1.21,16.99 0.08,13.09 -1.04,9.19 -1.26,4.66 -1.47,0.14 -1.47,-0.03 -1.47,-0.21 -1.42,-0.38 -1.37,-0.55 -1.29,-0.71 -1.20,-0.87 -1.08,-1.00 -0.96,-1.13 -0.81,-1.23 -0.66,-1.33 -0.49,-1.39 -0.32,-1.45 -0.14,-1.46 0.03,-1.48 0.20,-1.46 0.38,-1.43 0.55,-1.36 0.71,-1.30 0.86,-1.19 1.00,-1.09 1.12,-0.95 1.24,-0.81 1.32,-0.65 1.40,-0.49 1.44,-0.32 1.47,-0.14 1.47,-0.14 L 1.47,-0.14 Z"></path></g><g stroke-linecap="round" transform="translate(4444.118050174242 156.43773939397425) rotate(0 333.1785396491664 418.6088893076285)"><path d="M32 0 C174.45 1.98, 315.01 1.4, 634.36 0 M32 0 C191.75 1.66, 351.64 1.69, 634.36 0 M634.36 0 C654.1 1.63, 667.49 9.73, 666.36 32 M634.36 0 C657.4 -0.58, 666.76 8.99, 666.36 32 M666.36 32 C668.3 223.35, 668.33 415.4, 666.36 805.22 M666.36 32 C665.33 261.03, 665.69 490.22, 666.36 805.22 M666.36 805.22 C666.78 825.88, 657.55 838.84, 634.36 837.22 M666.36 805.22 C665.24 826.84, 657.61 838.56, 634.36 837.22 M634.36 837.22 C450.89 837.41, 267.88 837.15, 32 837.22 M634.36 837.22 C433.8 835.45, 232.57 835.36, 32 837.22 M32 837.22 C11.81 836.01, -0.85 825.32, 0 805.22 M32 837.22 C11.65 835.27, 1.1 824.88, 0 805.22 M0 805.22 C-1.39 540.66, -2.65 275.63, 0 32 M0 805.22 C-2.45 626.85, -2.42 449.1, 0 32 M0 32 C-1.65 12.1, 11.49 1.8, 32 0 M0 32 C-0.52 9.62, 10.87 0.7, 32 0" stroke="#1e1e1e" stroke-width="1" fill="none"></path></g><g transform="translate(4450.525328842808 510.97379313227094) rotate(0 33.1043057100369 53.39400519928142)" stroke="none"><path fill="#1e1e1e" d="M 0.98,-0.98 Q 0.98,-0.98 1.78,-0.55 2.58,-0.12 4.08,1.34 5.58,2.82 8.60,5.21 11.62,7.61 15.93,10.44 20.25,13.27 25.23,16.98 30.22,20.70 34.84,24.77 39.46,28.84 43.93,33.68 48.40,38.53 52.16,43.05 55.91,47.57 58.79,52.03 61.67,56.48 63.98,58.78 66.28,61.08 67.45,62.93 68.63,64.78 69.14,66.75 69.66,68.72 69.14,69.86 68.63,71.00 67.93,72.33 67.23,73.66 65.53,75.71 63.84,77.76 61.76,79.34 59.68,80.92 56.30,82.83 52.92,84.73 47.82,87.37 42.72,90.01 37.98,91.79 33.25,93.57 28.23,95.53 23.22,97.49 18.55,98.96 13.89,100.43 10.25,102.21 6.61,103.99 4.51,105.31 2.40,106.63 1.02,107.79 -0.34,108.95 -0.21,108.51 -0.08,108.07 -0.24,108.23 -0.40,108.39 -0.59,108.50 -0.78,108.62 -0.99,108.69 -1.20,108.75 -1.43,108.76 -1.65,108.78 -1.87,108.74 -2.09,108.70 -2.29,108.61 -2.49,108.51 -2.67,108.38 -2.84,108.24 -2.98,108.06 -3.12,107.89 -3.21,107.69 -3.30,107.48 -3.34,107.26 -3.38,107.04 -3.37,106.82 -3.36,106.60 -3.29,106.39 -3.22,106.17 -3.11,105.98 -2.99,105.79 -1.10,104.87 0.77,103.94 0.97,103.86 1.17,103.78 1.38,103.77 1.59,103.75 1.80,103.81 2.00,103.86 2.18,103.98 2.36,104.09 2.49,104.26 2.62,104.43 2.69,104.63 2.76,104.83 2.76,105.04 2.77,105.25 2.70,105.46 2.64,105.66 2.51,105.83 2.38,106.00 2.21,106.12 2.03,106.24 1.83,106.30 1.63,106.36 1.41,106.35 1.20,106.35 1.00,106.27 0.81,106.19 0.64,106.06 0.48,105.92 0.37,105.74 0.25,105.56 0.20,105.36 0.16,105.15 0.18,104.94 0.20,104.73 0.28,104.53 0.37,104.34 0.51,104.18 0.66,104.03 0.84,103.92 1.03,103.82 1.24,103.78 1.45,103.75 1.66,103.78 1.87,103.81 2.06,103.91 2.25,104.00 2.39,104.16 2.54,104.31 2.64,104.50 2.73,104.69 2.75,104.90 2.78,105.11 2.74,105.32 2.69,105.53 2.59,105.71 2.48,105.90 2.32,106.04 2.16,106.18 2.16,106.18 2.16,106.18 1.03,107.12 -0.08,108.07 -0.24,108.23 -0.40,108.39 -0.59,108.50 -0.78,108.62 -0.99,108.69 -1.20,108.75 -1.43,108.76 -1.65,108.78 -1.87,108.74 -2.09,108.70 -2.29,108.61 -2.49,108.52 -2.67,108.38 -2.84,108.24 -2.98,108.06 -3.12,107.89 -3.21,107.69 -3.30,107.48 -3.34,107.26 -3.38,107.04 -3.37,106.82 -3.36,106.60 -3.29,106.39 -3.22,106.17 -3.11,105.98 -2.99,105.79 -2.06,105.56 -1.12,105.32 -0.61,104.06 -0.09,102.81 2.25,101.33 4.60,99.85 8.55,97.94 12.50,96.04 17.02,94.62 21.54,93.19 26.59,91.23 31.63,89.26 36.12,87.59 40.61,85.91 45.64,83.32 50.68,80.73 53.83,78.99 56.97,77.25 58.68,76.03 60.39,74.80 61.82,73.15 63.26,71.49 64.14,69.24 65.01,66.98 64.13,65.51 63.24,64.03 60.71,61.39 58.17,58.75 55.44,54.48 52.72,50.21 49.06,45.75 45.39,41.30 41.08,36.59 36.77,31.88 32.29,27.90 27.80,23.93 22.92,20.27 18.04,16.61 13.59,13.65 9.14,10.70 5.98,8.14 2.82,5.58 1.34,4.08 -0.12,2.58 -0.55,1.78 -0.98,0.98 -1.08,0.84 -1.18,0.71 -1.25,0.56 -1.32,0.41 -1.35,0.24 -1.38,0.08 -1.37,-0.08 -1.36,-0.25 -1.31,-0.40 -1.26,-0.56 -1.17,-0.71 -1.09,-0.85 -0.97,-0.97 -0.85,-1.09 -0.71,-1.17 -0.56,-1.26 -0.40,-1.31 -0.24,-1.36 -0.08,-1.37 0.08,-1.38 0.24,-1.35 0.41,-1.32 0.56,-1.25 0.71,-1.18 0.84,-1.08 0.98,-0.98 0.98,-0.98 L 0.98,-0.98 Z"></path></g><g transform="translate(4580.806629181243 534.4671808394562) rotate(0 -2.1357269670847927 49.122453497798574)" stroke="none"><path fill="#1e1e1e" d="M 1.39,0.17 Q 1.39,0.17 1.12,5.12 0.85,10.08 -0.00,21.33 -0.87,32.58 -1.24,37.99 -1.61,43.39 -1.76,50.56 -1.92,57.72 -1.98,62.62 -2.05,67.52 -1.61,75.67 -1.17,83.81 -0.50,87.84 0.16,91.86 0.45,93.62 0.74,95.39 0.75,95.60 0.76,95.81 0.70,96.02 0.64,96.22 0.52,96.40 0.40,96.57 0.23,96.70 0.06,96.82 -0.14,96.89 -0.34,96.96 -0.55,96.95 -0.76,96.95 -0.96,96.88 -1.16,96.81 -1.33,96.68 -1.50,96.55 -1.62,96.37 -1.73,96.20 -1.79,95.99 -1.84,95.79 -1.83,95.57 -1.82,95.36 -1.74,95.17 -1.66,94.97 -1.52,94.81 -1.38,94.65 -1.19,94.54 -1.01,94.43 -0.80,94.39 -0.60,94.35 -0.38,94.37 -0.17,94.40 0.01,94.49 0.20,94.58 0.35,94.73 0.51,94.87 0.60,95.06 0.70,95.25 0.73,95.46 0.77,95.67 0.73,95.88 0.69,96.09 0.59,96.28 0.49,96.46 0.33,96.61 0.18,96.75 -0.00,96.84 -0.20,96.93 -0.41,96.95 -0.62,96.97 -0.83,96.92 -1.04,96.87 -1.22,96.76 -1.40,96.65 -1.53,96.49 -1.67,96.32 -1.75,96.13 -1.82,95.93 -1.82,95.93 -1.82,95.93 -2.27,94.20 -2.71,92.47 -3.77,88.27 -4.82,84.08 -5.55,75.77 -6.29,67.46 -6.22,62.55 -6.15,57.63 -5.99,50.37 -5.83,43.10 -5.45,37.68 -5.08,32.25 -4.19,20.91 -3.31,9.56 -2.35,4.69 -1.39,-0.17 -1.35,-0.33 -1.31,-0.50 -1.23,-0.65 -1.15,-0.80 -1.04,-0.92 -0.92,-1.05 -0.78,-1.15 -0.64,-1.24 -0.49,-1.30 -0.33,-1.36 -0.16,-1.38 0.00,-1.40 0.17,-1.38 0.34,-1.36 0.49,-1.30 0.65,-1.24 0.79,-1.14 0.93,-1.04 1.04,-0.92 1.15,-0.79 1.23,-0.64 1.31,-0.49 1.35,-0.32 1.39,-0.16 1.39,0.00 1.39,0.17 1.39,0.17 L 1.39,0.17 Z"></path></g><g transform="translate(4555.177514506973 528.0599021708888) rotate(0 34.17221807723581 3.2036393342837073)" stroke="none"><path fill="#1e1e1e" d="M 0.44,-1.32 Q 0.44,-1.32 6.08,0.17 11.72,1.67 14.60,2.44 17.48,3.20 21.49,2.87 25.49,2.55 31.57,1.81 37.65,1.07 48.30,0.46 58.96,-0.15 63.47,-0.43 67.98,-0.72 68.19,-0.71 68.40,-0.69 68.60,-0.61 68.79,-0.52 68.95,-0.38 69.11,-0.24 69.22,-0.06 69.32,0.12 69.36,0.32 69.41,0.53 69.38,0.74 69.35,0.95 69.26,1.15 69.16,1.34 69.01,1.49 68.87,1.64 68.68,1.73 68.49,1.83 68.28,1.86 68.06,1.89 67.86,1.85 67.65,1.81 67.46,1.71 67.28,1.61 67.13,1.45 66.99,1.29 66.91,1.10 66.82,0.90 66.80,0.69 66.78,0.48 66.83,0.27 66.88,0.06 67.00,-0.11 67.11,-0.28 67.27,-0.42 67.44,-0.55 67.64,-0.63 67.84,-0.70 68.05,-0.71 68.26,-0.72 68.47,-0.65 68.67,-0.59 68.84,-0.47 69.02,-0.35 69.14,-0.18 69.27,-0.00 69.33,0.19 69.39,0.39 69.39,0.60 69.38,0.82 69.31,1.02 69.24,1.22 69.11,1.38 68.98,1.55 68.80,1.66 68.62,1.78 68.41,1.83 68.21,1.89 68.21,1.88 68.21,1.88 63.72,2.38 59.22,2.88 48.69,4.12 38.16,5.36 31.97,6.09 25.77,6.81 21.12,7.05 16.47,7.29 13.42,6.49 10.38,5.68 4.97,3.50 -0.44,1.32 -0.59,1.25 -0.74,1.17 -0.87,1.07 -1.00,0.96 -1.10,0.83 -1.20,0.69 -1.27,0.54 -1.33,0.38 -1.36,0.22 -1.39,0.05 -1.38,-0.11 -1.36,-0.27 -1.31,-0.43 -1.26,-0.59 -1.17,-0.73 -1.08,-0.88 -0.95,-0.99 -0.83,-1.11 -0.69,-1.19 -0.54,-1.28 -0.38,-1.32 -0.22,-1.37 -0.05,-1.38 0.11,-1.39 0.27,-1.35 0.44,-1.32 0.44,-1.32 L 0.44,-1.32 Z"></path></g><g transform="translate(4421.3093516465815 536.0315296121387) rotate(0 -5.643236350815187 36.11695030737667)" stroke="none"><path fill="#1e1e1e" d="M 0,1.38 Q 0,1.38 -1.91,1.74 -3.82,2.09 -4.91,2.68 -6.00,3.27 -8.19,3.64 -10.38,4.01 -12.98,4.74 -15.58,5.47 -19.00,8.21 -22.43,10.94 -24.63,12.77 -26.82,14.60 -28.19,17.64 -29.55,20.67 -30.19,25.70 -30.83,30.74 -31.13,33.60 -31.44,36.46 -28.49,47.12 -25.55,57.78 -21.81,64.16 -18.07,70.53 -12.27,73.09 -6.48,75.64 -1.08,74.23 4.30,72.81 8.36,67.88 12.41,62.94 14.72,55.81 17.03,48.67 17.38,43.17 17.73,37.67 17.90,32.67 18.07,27.68 17.50,23.77 16.93,19.85 16.05,16.27 15.17,12.68 14.14,8.57 13.12,4.46 10.40,1.18 7.67,-2.08 3.66,-2.77 -0.35,-3.46 -5.08,-1.97 -9.81,-0.48 -13.70,2.57 -17.59,5.62 -21.25,7.46 -24.91,9.29 -25.11,9.37 -25.31,9.44 -25.52,9.45 -25.74,9.46 -25.94,9.40 -26.14,9.34 -26.32,9.21 -26.49,9.09 -26.62,8.92 -26.74,8.75 -26.80,8.54 -26.87,8.34 -26.86,8.13 -26.86,7.92 -26.79,7.72 -26.72,7.52 -26.58,7.35 -26.45,7.18 -26.27,7.07 -26.09,6.95 -25.89,6.90 -25.68,6.85 -25.47,6.86 -25.26,6.88 -25.06,6.96 -24.87,7.04 -24.71,7.18 -24.55,7.33 -24.44,7.51 -24.34,7.69 -24.30,7.90 -24.26,8.11 -24.28,8.32 -24.31,8.53 -24.40,8.72 -24.50,8.91 -24.65,9.07 -24.80,9.22 -24.99,9.31 -25.17,9.41 -25.39,9.44 -25.60,9.47 -25.80,9.43 -26.01,9.39 -26.20,9.29 -26.38,9.18 -26.53,9.03 -26.67,8.87 -26.76,8.67 -26.84,8.48 -26.86,8.27 -26.88,8.06 -26.83,7.85 -26.78,7.64 -26.66,7.46 -26.55,7.28 -26.39,7.15 -26.22,7.02 -26.22,7.02 -26.22,7.02 -23.01,4.91 -19.80,2.80 -15.40,-0.64 -11.00,-4.10 -5.39,-5.71 0.21,-7.32 5.26,-6.15 10.31,-4.98 13.66,-0.82 17.00,3.32 18.03,7.53 19.05,11.74 19.96,15.52 20.87,19.30 21.44,23.56 22.01,27.81 21.82,32.89 21.62,37.96 21.11,43.91 20.60,49.87 17.83,57.49 15.06,65.11 10.22,70.45 5.38,75.79 -0.98,77.18 -7.36,78.57 -13.98,75.50 -20.61,72.44 -24.71,65.59 -28.82,58.74 -32.12,47.45 -35.41,36.17 -35.14,33.19 -34.86,30.22 -34.13,24.57 -33.41,18.93 -31.56,15.17 -29.72,11.41 -27.41,9.45 -25.10,7.50 -20.98,4.39 -16.87,1.28 -13.94,0.48 -11.01,-0.31 -9.35,-0.49 -7.69,-0.67 -5.82,-1.38 -3.96,-2.09 -1.98,-1.74 0,-1.38 0.16,-1.36 0.33,-1.34 0.48,-1.28 0.64,-1.22 0.78,-1.13 0.92,-1.03 1.03,-0.91 1.14,-0.78 1.21,-0.64 1.29,-0.49 1.33,-0.32 1.37,-0.16 1.37,0.00 1.37,0.16 1.33,0.32 1.29,0.49 1.21,0.64 1.14,0.78 1.03,0.91 0.92,1.03 0.78,1.13 0.64,1.22 0.48,1.28 0.33,1.34 0.16,1.36 -0.00,1.38 -0.00,1.38 L 0,1.38 Z"></path></g><g transform="translate(5132.361471766986 779.8208279391347) rotate(0 0 23.701840668721275)" stroke="none"><path fill="#1e1e1e" d="M 0,1.39 Q 0,1.39 -1.94,1.66 -3.89,1.93 -5.16,1.87 -6.42,1.81 -8.50,4.19 -10.57,6.58 -11.53,8.16 -12.49,9.74 -13.58,11.73 -14.66,13.71 -15.70,18.23 -16.74,22.75 -17.21,27.86 -17.68,32.97 -16.65,36.83 -15.63,40.68 -13.51,43.38 -11.39,46.09 -8.87,46.51 -6.35,46.93 -2.89,45.93 0.57,44.94 4.50,42.02 8.43,39.11 11.26,34.81 14.10,30.51 14.61,26.38 15.12,22.24 14.11,18.06 13.10,13.89 11.43,10.21 9.76,6.53 7.85,3.78 5.93,1.02 4.16,0.07 2.39,-0.88 0.75,-0.20 -0.88,0.46 -1.05,0.59 -1.22,0.72 -1.42,0.79 -1.63,0.85 -1.84,0.85 -2.05,0.85 -2.25,0.78 -2.45,0.71 -2.62,0.59 -2.79,0.46 -2.91,0.28 -3.03,0.10 -3.08,-0.09 -3.14,-0.30 -3.13,-0.51 -3.12,-0.72 -3.04,-0.92 -2.96,-1.11 -2.82,-1.28 -2.68,-1.44 -2.50,-1.55 -2.32,-1.66 -2.11,-1.70 -1.90,-1.75 -1.69,-1.72 -1.48,-1.70 -1.29,-1.61 -1.09,-1.52 -0.94,-1.37 -0.79,-1.23 -0.69,-1.04 -0.59,-0.85 -0.55,-0.64 -0.52,-0.43 -0.56,-0.22 -0.59,-0.01 -0.69,0.17 -0.79,0.35 -0.95,0.50 -1.10,0.65 -1.29,0.73 -1.49,0.82 -1.70,0.84 -1.91,0.87 -2.12,0.82 -2.32,0.77 -2.51,0.66 -2.69,0.55 -2.82,0.39 -2.96,0.23 -3.04,0.03 -3.12,-0.16 -3.13,-0.37 -3.14,-0.58 -3.08,-0.79 -3.02,-0.99 -2.90,-1.17 -2.78,-1.34 -2.78,-1.34 -2.78,-1.34 0.60,-2.89 3.99,-4.44 6.54,-2.90 9.10,-1.35 11.25,1.76 13.40,4.89 15.19,8.95 16.97,13.00 17.99,17.86 19.02,22.72 18.19,27.63 17.36,32.54 14.00,37.30 10.64,42.07 6.10,45.21 1.56,48.36 -2.69,49.40 -6.94,50.43 -10.37,49.54 -13.79,48.64 -16.50,45.19 -19.20,41.74 -20.37,37.22 -21.54,32.70 -21.05,27.28 -20.56,21.85 -19.36,16.85 -18.15,11.85 -17.01,9.74 -15.87,7.64 -14.64,5.71 -13.41,3.79 -10.34,0.99 -7.26,-1.81 -5.57,-1.87 -3.89,-1.93 -1.94,-1.66 0,-1.39 0.16,-1.37 0.33,-1.35 0.49,-1.29 0.64,-1.23 0.78,-1.14 0.92,-1.04 1.03,-0.92 1.15,-0.79 1.22,-0.64 1.30,-0.49 1.34,-0.33 1.38,-0.16 1.38,0.00 1.38,0.16 1.34,0.33 1.30,0.49 1.22,0.64 1.15,0.79 1.03,0.92 0.92,1.04 0.78,1.14 0.64,1.23 0.49,1.29 0.33,1.35 0.16,1.37 -0.00,1.39 -0.00,1.39 L 0,1.39 Z"></path></g><g stroke-linecap="round"><g transform="translate(5112.134243775148 350.78958715246034) rotate(0 154.9407694145102 -3.1459924945856983)"><path d="M-0.95 0.98 C46.27 0.28, 233.7 -4.02, 282.25 -5.28 C330.8 -6.54, 285.69 -6.28, 290.33 -6.6 C294.97 -6.91, 306.94 -7.31, 310.09 -7.17 M0.75 0.44 C47.96 -0.01, 233.45 -3.05, 281.66 -4.04 C329.87 -5.02, 285.23 -5.03, 290.03 -5.44 C294.83 -5.85, 306.94 -6.59, 310.45 -6.52" stroke="#1e1e1e" stroke-width="1" fill="none"></path></g></g><mask></mask><g stroke-linecap="round"><g transform="translate(5150.480693769168 806.2214579386189) rotate(0 143.8265541193532 -2.6969158904312565)"><path d="M0.68 -0.56 C48.93 -1.67, 240.68 -4.75, 288.55 -5.7 M-0.42 1.76 C47.83 0.74, 240.13 -3.13, 288.07 -4.32" stroke="#1e1e1e" stroke-width="1" fill="none"></path></g></g><mask></mask><g transform="translate(5347.504152959693 341.522290479612) rotate(0 4.479351500768644 6.15912753692146)" stroke="none"><path fill="#1e1e1e" d="M 0.98,0.98 Q 0.98,0.98 -0.12,2.24 -1.23,3.51 -1.35,6.48 -1.46,9.46 -1.01,10.69 -0.56,11.92 1.07,11.81 2.72,11.69 4.24,11.12 5.77,10.55 6.98,9.72 8.20,8.89 7.71,7.41 7.22,5.93 6.51,5.04 5.80,4.15 4.48,4.98 3.15,5.81 2.46,6.90 1.77,7.99 2.29,9.12 2.82,10.24 4.42,9.58 6.02,8.93 5.44,7.65 4.86,6.37 3.19,6.97 1.53,7.56 3.27,7.88 5.01,8.20 3.73,7.47 2.45,6.74 3.58,7.76 4.72,8.77 5.96,8.79 7.20,8.82 7.12,7.38 7.04,5.94 6.00,5.57 4.96,5.19 3.86,5.57 2.77,5.96 3.40,7.70 4.03,9.44 5.11,9.72 6.19,10.00 7.92,9.29 9.64,8.57 9.78,6.79 9.91,5.02 8.72,4.21 7.52,3.39 6.30,3.05 5.07,2.70 3.95,2.76 2.84,2.82 2.53,4.05 2.23,5.28 2.06,6.50 1.90,7.72 3.58,8.82 5.27,9.92 6.79,9.00 8.32,8.08 8.37,6.33 8.42,4.58 7.49,3.42 6.57,2.26 5.57,1.07 4.58,-0.11 3.60,0.66 2.62,1.44 2.43,3.21 2.24,4.97 2.37,6.51 2.50,8.04 3.31,8.74 4.13,9.44 5.41,9.30 6.69,9.16 7.95,8.45 9.21,7.73 9.10,6.25 8.98,4.77 6.79,4.16 4.61,3.55 3.48,4.03 2.35,4.51 3.17,5.47 4.00,6.42 5.07,6.63 6.15,6.84 7.42,6.65 8.70,6.46 9.52,5.82 10.34,5.18 10.56,5.12 10.78,5.06 11.01,5.06 11.25,5.05 11.47,5.10 11.70,5.15 11.90,5.26 12.11,5.36 12.29,5.51 12.46,5.66 12.60,5.85 12.73,6.04 12.82,6.25 12.91,6.47 12.94,6.70 12.97,6.92 12.95,7.16 12.92,7.39 12.85,7.60 12.77,7.82 12.64,8.01 12.51,8.21 12.34,8.36 12.17,8.52 11.97,8.63 11.77,8.74 10.14,9.85 8.52,10.95 7.71,11.53 6.91,12.11 6.87,12.32 6.84,12.53 6.74,12.72 6.64,12.91 6.48,13.05 6.33,13.20 6.13,13.29 5.94,13.37 5.73,13.39 5.52,13.42 5.31,13.37 5.10,13.32 4.92,13.21 4.74,13.10 4.60,12.94 4.47,12.78 4.39,12.58 4.31,12.38 4.30,12.17 4.29,11.95 4.35,11.75 4.41,11.55 4.53,11.37 4.65,11.20 4.82,11.07 4.99,10.94 5.19,10.87 5.39,10.81 5.60,10.81 5.82,10.81 6.02,10.88 6.22,10.95 6.39,11.08 6.56,11.21 6.67,11.39 6.79,11.56 6.85,11.77 6.90,11.97 6.89,12.18 6.88,12.40 6.80,12.59 6.72,12.79 6.58,12.95 6.44,13.11 6.26,13.22 6.07,13.33 5.87,13.37 5.66,13.42 5.45,13.39 5.24,13.37 5.04,13.28 4.85,13.19 4.70,13.04 4.54,12.89 4.45,12.70 4.35,12.52 4.32,12.31 4.28,12.10 4.28,12.10 4.28,12.10 5.01,10.18 5.74,8.27 8.04,6.72 10.34,5.18 10.56,5.12 10.78,5.06 11.01,5.06 11.25,5.05 11.47,5.10 11.70,5.15 11.90,5.26 12.11,5.36 12.29,5.51 12.46,5.66 12.60,5.85 12.73,6.04 12.82,6.25 12.91,6.47 12.94,6.70 12.97,6.92 12.95,7.15 12.92,7.39 12.85,7.60 12.77,7.82 12.64,8.01 12.51,8.21 12.34,8.36 12.17,8.52 11.97,8.63 11.77,8.74 11.71,8.71 11.65,8.68 10.37,9.20 9.09,9.72 7.25,9.87 5.41,10.03 3.71,9.53 2.01,9.04 0.74,7.80 -0.52,6.57 -0.56,4.72 -0.60,2.87 0.38,1.85 1.37,0.84 3.23,0.29 5.09,-0.26 7.27,0.24 9.46,0.76 10.88,2.01 12.31,3.27 12.67,5.05 13.04,6.83 12.10,8.61 11.17,10.40 9.56,11.34 7.95,12.29 6.38,12.74 4.81,13.19 3.26,12.54 1.70,11.90 0.42,10.38 -0.86,8.86 -1.14,6.68 -1.42,4.51 -1.04,2.08 -0.67,-0.33 0.29,-1.83 1.26,-3.33 2.64,-3.82 4.01,-4.31 5.78,-3.51 7.54,-2.72 8.70,-1.29 9.86,0.13 10.96,2.11 12.06,4.09 12.06,5.94 12.07,7.80 11.35,9.18 10.63,10.56 9.05,11.74 7.47,12.92 5.81,13.01 4.16,13.09 2.44,12.30 0.72,11.52 -0.40,9.75 -1.53,7.99 -1.44,6.21 -1.36,4.44 -0.88,2.78 -0.41,1.11 0.78,0.13 1.98,-0.85 4.12,-0.97 6.27,-1.09 8.18,-0.34 10.08,0.39 11.72,2.14 13.35,3.89 13.56,5.97 13.76,8.05 12.64,9.73 11.51,11.40 9.99,12.23 8.47,13.07 6.86,13.17 5.26,13.28 3.49,12.66 1.71,12.03 0.38,10.60 -0.95,9.18 -1.30,7.80 -1.66,6.42 -1.32,5.15 -0.97,3.87 0.50,2.96 1.97,2.05 4.10,1.80 6.22,1.55 8.20,2.71 10.17,3.87 10.78,5.52 11.39,7.17 10.91,8.59 10.43,10.02 9.38,10.98 8.34,11.95 7.11,12.20 5.88,12.45 4.49,12.12 3.11,11.78 1.66,10.89 0.20,10.01 -0.34,9.00 -0.89,7.99 -1.03,6.60 -1.17,5.20 -0.47,4.22 0.23,3.24 1.69,3.02 3.15,2.81 4.49,3.07 5.83,3.34 7.73,4.63 9.64,5.92 9.02,7.92 8.41,9.93 7.21,10.58 6.02,11.24 4.09,11.77 2.16,12.30 0.34,11.76 -1.47,11.23 -2.12,10.00 -2.77,8.77 -2.56,7.40 -2.36,6.04 -1.24,5.08 -0.12,4.12 1.53,3.44 3.20,2.75 5.12,3.09 7.04,3.42 8.33,5.01 9.63,6.60 9.53,8.09 9.43,9.58 8.60,10.59 7.77,11.60 5.95,12.57 4.13,13.54 2.76,13.32 1.39,13.10 0.23,12.37 -0.91,11.65 -1.56,10.09 -2.20,8.53 -1.74,7.22 -1.29,5.92 -0.14,4.31 1.00,2.70 2.92,1.65 4.84,0.60 6.48,0.95 8.13,1.30 9.28,2.58 10.43,3.86 11.21,5.31 11.99,6.75 11.87,8.20 11.75,9.64 10.88,10.66 10.02,11.67 8.41,12.64 6.80,13.60 4.71,14.22 2.62,14.83 0.30,14.49 -2.00,14.15 -3.29,11.80 -4.58,9.46 -4.24,5.55 -3.91,1.63 -2.44,0.32 -0.98,-0.98 -0.84,-1.08 -0.71,-1.18 -0.56,-1.25 -0.41,-1.32 -0.24,-1.35 -0.08,-1.38 0.08,-1.37 0.25,-1.36 0.40,-1.31 0.56,-1.26 0.71,-1.17 0.85,-1.09 0.97,-0.97 1.09,-0.85 1.17,-0.71 1.26,-0.56 1.31,-0.40 1.36,-0.25 1.37,-0.08 1.38,0.08 1.35,0.24 1.32,0.41 1.25,0.56 1.18,0.71 1.08,0.84 0.98,0.98 0.98,0.98 L 0.98,0.98 Z"></path></g><g stroke-linecap="round"><g transform="translate(4113.147409757596 593.0384102109672) rotate(0 136.60652145153767 -5.2725177791814986)"><path d="M0.21 -0.87 C45.49 -2.48, 227.14 -8.46, 272.59 -9.96 M-1.14 1.28 C44.46 -0.65, 229.45 -9.58, 274.97 -11.78" stroke="#1e1e1e" stroke-width="1" fill="none"></path></g></g><mask></mask><g transform="translate(5358.768914976736 335.1478590062699) rotate(0 41.29595896099363 -100.94567746020681)" stroke="none"><path fill="#1e1e1e" d="M 0,-1.33 Q 0,-1.33 0.84,-1.12 1.69,-0.91 1.83,0.55 1.97,2.03 1.93,1.35 1.89,0.67 1.94,0.84 1.98,1.01 1.99,1.19 2.00,1.37 1.96,1.54 1.93,1.72 1.85,1.88 1.77,2.04 1.66,2.18 1.55,2.31 1.41,2.42 1.26,2.53 1.10,2.60 0.94,2.67 0.76,2.69 0.59,2.72 0.41,2.71 0.23,2.69 0.06,2.64 -0.10,2.58 -0.25,2.49 -0.40,2.39 -0.52,2.26 -0.64,2.13 -0.73,1.98 -0.82,1.83 0.83,0.88 2.49,-0.05 2.54,0.11 2.59,0.29 2.60,0.47 2.61,0.65 2.57,0.83 2.54,1.01 2.46,1.17 2.38,1.34 2.26,1.48 2.15,1.62 2.00,1.73 1.86,1.84 1.69,1.91 1.52,1.98 1.34,2.01 1.16,2.04 0.98,2.02 0.80,2.01 0.62,1.95 0.45,1.89 0.30,1.80 0.14,1.70 0.02,1.57 -0.10,1.44 -0.19,1.28 -0.28,1.12 1.24,0.81 2.77,0.49 2.82,0.67 2.87,0.85 2.88,1.04 2.89,1.23 2.85,1.41 2.81,1.59 2.73,1.76 2.65,1.93 2.53,2.07 2.42,2.22 2.27,2.33 2.12,2.44 1.95,2.52 1.77,2.59 1.59,2.62 1.41,2.65 1.22,2.63 1.03,2.62 0.86,2.56 0.68,2.50 0.52,2.40 0.36,2.30 0.23,2.16 0.11,2.03 0.01,1.87 -0.07,1.71 1.42,0.77 2.93,-0.16 2.98,0.02 3.04,0.21 3.05,0.40 3.05,0.60 3.01,0.79 2.98,0.98 2.89,1.15 2.81,1.33 2.69,1.48 2.56,1.63 2.41,1.74 2.25,1.86 2.07,1.94 1.89,2.01 1.70,2.04 1.51,2.07 1.32,2.06 1.12,2.04 0.94,1.98 0.76,1.92 0.59,1.82 0.43,1.71 0.29,1.57 0.16,1.43 0.06,1.26 -0.02,1.09 1.47,0.77 2.98,0.44 3.04,0.63 3.09,0.82 3.10,1.01 3.10,1.21 3.07,1.40 3.03,1.59 2.94,1.76 2.86,1.94 2.74,2.09 2.61,2.24 2.46,2.36 2.30,2.48 2.12,2.55 1.94,2.63 1.75,2.66 1.56,2.69 1.36,2.68 1.17,2.66 0.98,2.60 0.80,2.54 0.63,2.43 0.47,2.33 0.33,2.19 0.20,2.04 0.10,1.88 0.00,1.71 -0.08,0.48 -0.18,-0.73 -0.14,-0.93 -0.11,-1.14 -0.03,-1.33 0.03,-1.52 0.16,-1.68 0.28,-1.85 0.44,-1.98 0.59,-2.11 0.78,-2.20 0.96,-2.29 1.16,-2.33 1.36,-2.38 1.57,-2.37 1.77,-2.36 1.97,-2.31 2.17,-2.25 2.35,-2.15 2.53,-2.05 2.68,-1.91 2.83,-1.77 2.94,-1.60 3.05,-1.43 3.12,-1.23 3.19,-1.04 3.20,-0.83 3.22,-0.63 1.51,-0.48 -0.19,-0.34 -0.16,-0.54 -0.13,-0.75 -0.05,-0.94 0.02,-1.13 0.14,-1.30 0.27,-1.47 0.43,-1.60 0.58,-1.74 0.77,-1.83 0.96,-1.92 1.16,-1.96 1.37,-2.00 1.57,-2.00 1.78,-1.99 1.98,-1.94 2.18,-1.88 2.36,-1.78 2.54,-1.68 2.70,-1.53 2.85,-1.39 2.96,-1.22 3.07,-1.04 3.14,-0.84 3.21,-0.65 3.23,-0.44 3.25,-0.23 1.52,-0.62 -0.21,-1.00 -0.21,-2.28 -0.21,-3.56 -0.22,-5.05 -0.23,-6.53 -0.24,-8.07 -0.24,-9.61 0.23,-11.10 0.71,-12.59 0.85,-13.80 0.99,-15.00 1.52,-17.43 2.05,-19.85 2.25,-21.64 2.46,-23.43 3.00,-26.48 3.54,-29.53 4.21,-33.02 4.87,-36.50 5.60,-39.76 6.33,-43.02 6.63,-44.79 6.93,-46.56 8.40,-51.40 9.88,-56.25 11.36,-61.75 12.85,-67.25 14.36,-73.11 15.87,-78.97 18.32,-84.26 20.78,-89.55 23.59,-94.44 26.41,-99.33 29.35,-104.45 32.30,-109.57 35.29,-115.65 38.28,-121.73 41.79,-127.89 45.30,-134.06 47.63,-139.23 49.96,-144.39 51.83,-149.21 53.70,-154.03 55.37,-159.13 57.04,-164.23 58.67,-167.82 60.30,-171.42 61.41,-174.19 62.51,-176.96 63.42,-179.45 64.32,-181.94 65.21,-183.56 66.10,-185.18 66.89,-186.68 67.69,-188.18 68.47,-189.71 69.26,-191.25 70.65,-192.56 72.03,-193.87 73.35,-195.53 74.66,-197.19 76.21,-198.84 77.75,-200.49 79.35,-202.04 80.96,-203.60 81.13,-203.73 81.30,-203.86 81.50,-203.93 81.70,-204.00 81.91,-204.00 82.12,-204.00 82.33,-203.93 82.53,-203.87 82.70,-203.74 82.87,-203.61 82.99,-203.43 83.11,-203.26 83.16,-203.06 83.22,-202.85 83.21,-202.64 83.20,-202.43 83.12,-202.23 83.05,-202.03 82.91,-201.87 82.77,-201.71 82.59,-201.60 82.41,-201.48 82.20,-201.44 81.99,-201.39 81.78,-201.41 81.57,-201.44 81.38,-201.52 81.19,-201.61 81.03,-201.76 80.88,-201.90 80.78,-202.09 80.68,-202.28 80.64,-202.49 80.60,-202.70 80.64,-202.91 80.67,-203.12 80.77,-203.30 80.87,-203.49 81.02,-203.64 81.18,-203.79 81.37,-203.88 81.56,-203.97 81.77,-203.99 81.98,-204.01 82.19,-203.97 82.40,-203.92 82.58,-203.82 82.76,-203.71 82.90,-203.55 83.04,-203.38 83.12,-203.19 83.20,-202.99 83.21,-202.78 83.22,-202.57 83.17,-202.36 83.11,-202.16 82.99,-201.98 82.88,-201.80 82.88,-201.80 82.88,-201.80 81.45,-200.13 80.01,-198.45 78.62,-196.82 77.22,-195.19 75.74,-193.29 74.27,-191.39 73.24,-190.53 72.20,-189.66 71.44,-188.14 70.67,-186.63 69.88,-185.08 69.09,-183.54 68.33,-182.15 67.56,-180.76 66.64,-178.22 65.72,-175.68 64.58,-172.83 63.45,-169.99 61.90,-166.57 60.34,-163.15 58.65,-157.96 56.97,-152.77 55.08,-147.85 53.18,-142.94 50.80,-137.62 48.41,-132.30 44.97,-126.22 41.53,-120.13 38.50,-113.94 35.47,-107.75 32.54,-102.62 29.60,-97.48 26.86,-92.73 24.11,-87.99 21.76,-83.01 19.41,-78.04 17.89,-72.17 16.37,-66.29 14.86,-60.74 13.36,-55.18 11.93,-50.57 10.51,-45.95 10.19,-44.09 9.87,-42.23 9.16,-39.02 8.44,-35.82 7.77,-32.36 7.10,-28.90 6.58,-25.95 6.06,-23.01 5.82,-21.04 5.58,-19.07 5.07,-16.80 4.57,-14.52 3.93,-12.03 3.30,-9.54 3.30,-8.03 3.29,-6.53 3.28,-5.05 3.27,-3.56 3.27,-2.28 3.26,-0.99 1.53,-0.67 -0.19,-0.34 -0.16,-0.54 -0.13,-0.75 -0.05,-0.94 0.02,-1.13 0.14,-1.30 0.27,-1.47 0.42,-1.60 0.58,-1.74 0.77,-1.83 0.96,-1.92 1.16,-1.96 1.37,-2.00 1.57,-2.00 1.78,-1.99 1.98,-1.94 2.18,-1.88 2.36,-1.78 2.54,-1.68 2.70,-1.53 2.85,-1.39 2.96,-1.22 3.07,-1.04 3.14,-0.84 3.21,-0.65 3.23,-0.44 3.25,-0.23 1.53,-0.48 -0.18,-0.73 -0.14,-0.93 -0.11,-1.14 -0.03,-1.33 0.03,-1.52 0.16,-1.68 0.28,-1.85 0.44,-1.98 0.59,-2.11 0.78,-2.20 0.96,-2.29 1.16,-2.33 1.36,-2.38 1.57,-2.37 1.77,-2.36 1.97,-2.31 2.17,-2.25 2.35,-2.15 2.53,-2.05 2.68,-1.91 2.83,-1.77 2.94,-1.60 3.05,-1.43 3.12,-1.23 3.18,-1.04 3.20,-0.83 3.22,-0.63 3.10,-0.09 2.98,0.44 3.04,0.63 3.09,0.82 3.10,1.01 3.10,1.21 3.07,1.40 3.03,1.59 2.94,1.76 2.86,1.94 2.74,2.09 2.61,2.24 2.46,2.36 2.30,2.48 2.12,2.55 1.94,2.63 1.75,2.66 1.56,2.69 1.36,2.68 1.17,2.66 0.98,2.60 0.80,2.54 0.63,2.43 0.47,2.33 0.33,2.19 0.20,2.05 0.10,1.88 0.00,1.71 1.47,0.77 2.93,-0.16 2.98,0.02 3.04,0.21 3.05,0.40 3.05,0.60 3.01,0.79 2.98,0.98 2.89,1.15 2.81,1.33 2.69,1.48 2.56,1.63 2.41,1.74 2.25,1.86 2.07,1.94 1.89,2.01 1.70,2.04 1.51,2.07 1.32,2.06 1.12,2.04 0.94,1.98 0.76,1.92 0.59,1.82 0.43,1.71 0.29,1.57 0.16,1.43 0.06,1.26 -0.02,1.09 1.37,0.79 2.77,0.49 2.82,0.67 2.87,0.85 2.88,1.04 2.89,1.23 2.85,1.41 2.81,1.59 2.73,1.76 2.65,1.93 2.53,2.07 2.42,2.22 2.27,2.33 2.12,2.44 1.95,2.52 1.77,2.59 1.59,2.62 1.41,2.65 1.22,2.63 1.03,2.62 0.86,2.56 0.68,2.50 0.52,2.40 0.36,2.30 0.23,2.17 0.11,2.03 0.01,1.87 -0.07,1.71 1.21,0.82 2.49,-0.05 2.54,0.11 2.59,0.29 2.60,0.47 2.61,0.65 2.57,0.83 2.54,1.01 2.46,1.17 2.38,1.34 2.26,1.48 2.15,1.62 2.00,1.73 1.86,1.84 1.69,1.91 1.52,1.98 1.34,2.01 1.16,2.04 0.98,2.02 0.80,2.01 0.62,1.95 0.45,1.89 0.30,1.80 0.14,1.70 0.02,1.57 -0.10,1.44 -0.19,1.28 -0.28,1.12 0.80,0.89 1.89,0.67 1.94,0.84 1.98,1.01 1.99,1.19 2.00,1.37 1.96,1.54 1.93,1.72 1.85,1.88 1.77,2.04 1.66,2.18 1.55,2.31 1.41,2.42 1.26,2.53 1.10,2.60 0.94,2.67 0.76,2.69 0.59,2.72 0.41,2.71 0.23,2.69 0.06,2.64 -0.10,2.58 -0.25,2.49 -0.40,2.39 -0.52,2.26 -0.64,2.13 -0.73,1.98 -0.82,1.83 -0.37,1.37 0.06,0.91 0.03,1.12 0,1.33 -0.15,1.31 -0.31,1.29 -0.46,1.23 -0.61,1.17 -0.75,1.08 -0.88,0.99 -0.98,0.87 -1.09,0.75 -1.17,0.61 -1.24,0.47 -1.28,0.31 -1.32,0.16 -1.32,-0.00 -1.32,-0.16 -1.28,-0.31 -1.24,-0.47 -1.17,-0.61 -1.09,-0.75 -0.98,-0.87 -0.88,-0.99 -0.75,-1.08 -0.61,-1.17 -0.46,-1.23 -0.31,-1.29 -0.15,-1.31 0.00,-1.33 0.00,-1.33 L 0,-1.33 Z"></path></g><g transform="translate(5491.186569869471 77.07528542722258) rotate(0 -4.6909705852685875 25.800302429713838)" stroke="none"><path fill="#1e1e1e" d="M 0,1.38 Q 0,1.38 -3.55,1.65 -7.11,1.92 -9.55,3.11 -11.99,4.30 -14.67,9.02 -17.36,13.74 -18.55,21.43 -19.74,29.12 -19.83,35.53 -19.92,41.94 -20.14,44.45 -20.35,46.95 -16.44,47.30 -12.53,47.64 -8.93,45.26 -5.33,42.87 -1.10,38.35 3.13,33.84 5.73,28.46 8.34,23.08 8.97,19.67 9.59,16.26 8.62,14.30 7.65,12.35 5.22,10.77 2.80,9.19 1.17,7.87 -0.45,6.56 -1.93,5.64 -3.41,4.71 -4.71,3.88 -6.01,3.05 -6.19,2.95 -6.38,2.84 -6.52,2.68 -6.66,2.52 -6.74,2.33 -6.82,2.13 -6.84,1.92 -6.85,1.71 -6.80,1.50 -6.75,1.29 -6.63,1.12 -6.52,0.94 -6.35,0.81 -6.18,0.68 -5.98,0.60 -5.78,0.53 -5.57,0.53 -5.36,0.52 -5.16,0.59 -4.95,0.65 -4.78,0.78 -4.61,0.90 -4.49,1.08 -4.36,1.25 -4.30,1.45 -4.24,1.66 -4.25,1.87 -4.26,2.08 -4.33,2.28 -4.41,2.48 -4.54,2.64 -4.68,2.81 -4.86,2.92 -5.04,3.03 -5.24,3.08 -5.45,3.13 -5.66,3.11 -5.87,3.10 -6.07,3.01 -6.26,2.92 -6.42,2.78 -6.58,2.64 -6.68,2.45 -6.78,2.27 -6.82,2.06 -6.86,1.85 -6.83,1.64 -6.80,1.43 -6.70,1.24 -6.61,1.05 -6.45,0.90 -6.30,0.75 -6.11,0.66 -5.92,0.57 -5.71,0.54 -5.50,0.51 -5.29,0.55 -5.08,0.60 -5.08,0.60 -5.08,0.60 -3.19,0.97 -1.30,1.34 0.36,2.40 2.03,3.46 3.58,4.71 5.14,5.96 8.10,8.28 11.05,10.61 12.15,13.61 13.26,16.62 12.42,20.64 11.59,24.66 8.64,30.44 5.70,36.21 1.11,41.01 -3.48,45.81 -7.96,48.41 -12.45,51.02 -16.98,50.42 -21.51,49.81 -22.54,45.85 -23.57,41.89 -23.47,35.22 -23.37,28.54 -21.99,20.23 -20.61,11.92 -17.25,6.50 -13.90,1.09 -10.58,-0.41 -7.27,-1.92 -3.63,-1.65 0,-1.38 0.16,-1.36 0.33,-1.34 0.48,-1.28 0.64,-1.22 0.78,-1.13 0.92,-1.03 1.03,-0.91 1.14,-0.78 1.21,-0.64 1.29,-0.49 1.33,-0.32 1.37,-0.16 1.37,0.00 1.37,0.16 1.33,0.32 1.29,0.49 1.21,0.64 1.14,0.78 1.03,0.91 0.92,1.03 0.78,1.13 0.64,1.22 0.48,1.28 0.33,1.34 0.16,1.36 -0.00,1.38 -0.00,1.38 L 0,1.38 Z"></path></g><g transform="translate(5489.622865288693 97.40280077054439) rotate(0 10.94557417278429 15.63658054731826)" stroke="none"><path fill="#1e1e1e" d="M 1.47,-0.14 Q 1.47,-0.14 2.15,4.32 2.83,8.79 3.89,12.30 4.94,15.81 6.60,17.99 8.26,20.16 11.00,21.92 13.75,23.68 17.35,26.38 20.95,29.08 21.11,29.23 21.27,29.37 21.37,29.56 21.47,29.74 21.51,29.95 21.55,30.16 21.51,30.37 21.48,30.58 21.39,30.77 21.29,30.96 21.14,31.11 20.99,31.26 20.79,31.35 20.60,31.44 20.39,31.47 20.18,31.49 19.97,31.45 19.76,31.41 19.58,31.30 19.40,31.20 19.26,31.04 19.12,30.88 19.04,30.68 18.95,30.48 18.94,30.27 18.93,30.06 18.98,29.85 19.03,29.65 19.15,29.47 19.27,29.29 19.43,29.16 19.60,29.03 19.80,28.96 20.00,28.89 20.21,28.89 20.43,28.88 20.63,28.95 20.83,29.01 21.00,29.14 21.17,29.27 21.30,29.44 21.42,29.61 21.48,29.82 21.54,30.02 21.53,30.23 21.52,30.45 21.44,30.64 21.37,30.84 21.23,31.01 21.10,31.17 20.92,31.28 20.74,31.40 20.53,31.44 20.32,31.49 20.11,31.47 19.90,31.45 19.71,31.37 19.51,31.28 19.51,31.28 19.51,31.28 15.61,29.06 11.71,26.83 8.43,24.69 5.14,22.55 3.17,19.77 1.21,16.99 0.08,13.09 -1.04,9.19 -1.26,4.66 -1.47,0.14 -1.47,-0.03 -1.47,-0.21 -1.42,-0.38 -1.37,-0.55 -1.29,-0.71 -1.20,-0.87 -1.08,-1.00 -0.96,-1.13 -0.81,-1.23 -0.66,-1.33 -0.49,-1.39 -0.32,-1.45 -0.14,-1.46 0.03,-1.48 0.20,-1.46 0.38,-1.43 0.55,-1.36 0.71,-1.30 0.86,-1.19 1.00,-1.09 1.12,-0.95 1.24,-0.81 1.32,-0.65 1.40,-0.49 1.44,-0.32 1.47,-0.14 1.47,-0.14 L 1.47,-0.14 Z"></path></g><g transform="translate(3373.862501677956 81.0332581959093) rotate(0 14.709836565454452 3.197804559600698)" stroke="none"><path fill="#1e1e1e" d="M 0,-1.43 Q 0,-1.43 1.08,-1.57 2.17,-1.71 4.86,-3.21 7.54,-4.70 8.82,-5.43 10.09,-6.16 11.97,-7.04 13.85,-7.92 15.93,-8.85 18.01,-9.78 19.01,-10.32 20.01,-10.86 22.32,-12.04 24.62,-13.22 25.85,-13.75 27.07,-14.27 27.53,-14.33 27.99,-14.38 28.20,-14.44 28.40,-14.50 28.62,-14.51 28.83,-14.51 29.04,-14.47 29.25,-14.43 29.44,-14.34 29.63,-14.25 29.80,-14.11 29.96,-13.98 30.09,-13.81 30.22,-13.64 30.31,-13.44 30.39,-13.24 30.42,-13.03 30.46,-12.82 30.44,-12.61 30.42,-12.39 30.36,-12.19 30.29,-11.99 30.18,-11.81 30.06,-11.63 29.91,-11.48 29.75,-11.33 29.57,-11.22 29.38,-11.12 29.59,-9.16 29.79,-7.21 29.28,-4.84 28.77,-2.46 28.39,0.84 28.01,4.15 27.65,7.24 27.29,10.33 27.24,12.64 27.19,14.94 27.29,16.85 27.39,18.76 27.39,18.97 27.38,19.18 27.31,19.38 27.24,19.58 27.11,19.75 26.97,19.92 26.80,20.03 26.62,20.15 26.41,20.20 26.21,20.25 25.99,20.24 25.78,20.22 25.59,20.14 25.39,20.05 25.23,19.91 25.07,19.77 24.97,19.59 24.86,19.40 24.82,19.19 24.78,18.99 24.81,18.78 24.84,18.57 24.93,18.37 25.02,18.18 25.17,18.03 25.32,17.88 25.51,17.79 25.70,17.69 25.91,17.66 26.12,17.63 26.33,17.67 26.54,17.71 26.72,17.81 26.91,17.92 27.05,18.07 27.20,18.23 27.28,18.43 27.37,18.62 27.38,18.83 27.40,19.04 27.35,19.25 27.30,19.46 27.19,19.64 27.07,19.82 26.91,19.95 26.74,20.08 26.55,20.16 26.35,20.23 26.13,20.24 25.92,20.25 25.72,20.18 25.52,20.12 25.34,20.00 25.17,19.88 25.04,19.71 24.92,19.53 24.86,19.33 24.79,19.13 24.79,19.13 24.79,19.13 24.33,17.06 23.87,14.99 23.75,12.45 23.63,9.92 23.99,6.81 24.35,3.71 24.77,0.23 25.20,-3.24 25.73,-5.60 26.26,-7.96 26.60,-9.43 26.95,-10.89 27.47,-12.64 27.99,-14.38 28.20,-14.44 28.40,-14.50 28.62,-14.51 28.83,-14.51 29.04,-14.47 29.25,-14.43 29.44,-14.34 29.63,-14.25 29.80,-14.11 29.96,-13.98 30.09,-13.81 30.22,-13.64 30.31,-13.44 30.39,-13.24 30.42,-13.03 30.46,-12.82 30.44,-12.61 30.42,-12.39 30.36,-12.19 30.29,-11.99 30.18,-11.81 30.06,-11.63 29.91,-11.48 29.75,-11.33 29.57,-11.22 29.38,-11.12 28.86,-11.12 28.34,-11.12 27.25,-10.65 26.16,-10.19 23.89,-9.05 21.62,-7.90 20.50,-7.30 19.38,-6.69 17.33,-5.79 15.29,-4.88 13.53,-4.05 11.77,-3.22 10.53,-2.51 9.30,-1.80 7.06,-0.47 4.82,0.85 3.53,1.28 2.24,1.71 1.12,1.57 0,1.43 -0.17,1.41 -0.34,1.39 -0.50,1.32 -0.66,1.26 -0.80,1.16 -0.94,1.07 -1.06,0.94 -1.17,0.81 -1.25,0.66 -1.33,0.50 -1.38,0.34 -1.42,0.17 -1.42,-0.00 -1.42,-0.17 -1.38,-0.34 -1.33,-0.50 -1.25,-0.66 -1.17,-0.81 -1.06,-0.94 -0.94,-1.07 -0.80,-1.16 -0.66,-1.26 -0.50,-1.32 -0.34,-1.39 -0.17,-1.41 0.00,-1.43 0.00,-1.43 L 0,-1.43 Z"></path></g><g transform="translate(5527.757843855139 115.85584488744954) rotate(0 11.983242689903818 14.450381365289317)" stroke="none"><path fill="#1e1e1e" d="M -1.17,-1.47 Q -1.17,-1.47 0.86,-3.07 2.90,-4.68 5.06,-6.04 7.23,-7.39 8.67,-8.02 10.10,-8.64 12.00,-8.74 13.91,-8.83 15.90,-8.19 17.89,-7.54 19.86,-6.14 21.83,-4.75 23.01,-3.05 24.20,-1.35 24.11,1.32 24.03,4.01 22.88,6.84 21.72,9.67 20.19,12.29 18.66,14.92 16.30,17.56 13.94,20.20 11.10,22.76 8.26,25.32 6.39,27.69 4.53,30.05 3.37,31.70 2.21,33.35 5.52,33.60 8.82,33.85 11.90,33.80 14.98,33.75 19.18,33.58 23.39,33.40 23.60,33.42 23.81,33.43 24.01,33.51 24.21,33.59 24.37,33.73 24.53,33.87 24.63,34.06 24.74,34.24 24.78,34.45 24.82,34.66 24.80,34.87 24.77,35.08 24.68,35.27 24.59,35.46 24.44,35.61 24.29,35.77 24.10,35.86 23.91,35.96 23.70,35.99 23.49,36.02 23.28,35.98 23.07,35.95 22.89,35.85 22.70,35.74 22.56,35.59 22.41,35.43 22.33,35.24 22.24,35.04 22.22,34.83 22.20,34.62 22.25,34.41 22.30,34.20 22.41,34.02 22.52,33.84 22.69,33.71 22.85,33.57 23.05,33.50 23.25,33.42 23.46,33.41 23.67,33.41 23.88,33.47 24.08,33.53 24.26,33.65 24.43,33.77 24.56,33.94 24.68,34.11 24.75,34.31 24.81,34.52 24.81,34.73 24.80,34.94 24.73,35.14 24.66,35.34 24.53,35.51 24.40,35.68 24.22,35.79 24.04,35.91 23.84,35.96 23.63,36.02 23.63,36.02 23.63,36.02 19.40,36.63 15.17,37.25 11.95,37.55 8.73,37.85 5.74,37.71 2.75,37.57 1.00,36.55 -0.75,35.53 -1.04,33.58 -1.33,31.63 0.01,29.56 1.35,27.49 3.47,24.91 5.59,22.34 8.31,19.95 11.03,17.56 13.17,15.24 15.31,12.92 16.75,10.53 18.18,8.14 19.23,5.87 20.28,3.59 20.62,1.89 20.96,0.19 20.27,-0.80 19.58,-1.80 18.10,-2.94 16.62,-4.08 15.26,-4.62 13.90,-5.16 12.67,-5.20 11.45,-5.23 10.31,-4.75 9.17,-4.27 7.19,-3.03 5.20,-1.80 3.19,-0.16 1.17,1.47 0.98,1.59 0.79,1.71 0.57,1.78 0.35,1.85 0.13,1.87 -0.09,1.88 -0.31,1.84 -0.54,1.80 -0.75,1.71 -0.96,1.62 -1.14,1.48 -1.32,1.34 -1.46,1.17 -1.60,0.99 -1.70,0.78 -1.79,0.58 -1.84,0.35 -1.88,0.13 -1.87,-0.09 -1.86,-0.32 -1.79,-0.53 -1.73,-0.75 -1.61,-0.95 -1.49,-1.14 -1.33,-1.31 -1.17,-1.47 -1.17,-1.47 L -1.17,-1.47 Z"></path></g></svg>