<svg version="1.1" xmlns="http://www.w3.org/2000/svg" viewBox="0 0 322.66668701171875 100" width="322.66668701171875" height="100" class="excalidraw-svg"><!-- svg-source:excalidraw --><metadata></metadata><defs><style class="style-fonts">
      </style></defs><rect x="0" y="0" width="322.66668701171875" height="100" fill="#ffffff"></rect><g stroke-linecap="round" transform="translate(112 10) rotate(0 43 40)"><path d="M20 0 C28.54 -0.3, 38.87 -0.5, 66 0 M20 0 C36.38 1, 51.21 0.79, 66 0 M66 0 C78.7 1.7, 84.74 8.48, 86 20 M66 0 C80.17 0.82, 85.21 8.13, 86 20 M86 20 C86.37 28.77, 87.87 39.45, 86 60 M86 20 C86.84 32.36, 85.77 45.51, 86 60 M86 60 C86.21 74.23, 79.1 81.09, 66 80 M86 60 C83.85 73.24, 79.33 80.54, 66 80 M66 80 C48.86 78.31, 30.58 79.24, 20 80 M66 80 C54.24 79.64, 42.26 80.3, 20 80 M20 80 C7.36 81.91, 1.46 74.43, 0 60 M20 80 C7.76 81.54, -1.18 72.83, 0 60 M0 60 C-0.2 47.36, -2.11 33.5, 0 20 M0 60 C-0.65 49.14, 0.48 39.69, 0 20 M0 20 C-0.51 5.15, 6.88 1.26, 20 0 M0 20 C-0.61 6.63, 7.24 -1.15, 20 0" stroke="#1e1e1e" stroke-width="2" fill="none"></path></g><g stroke-linecap="round" transform="translate(200.00006103515625 45.333343505859375) rotate(0 9 8.333328247070312)"><path d="M10.97 -0.12 C12.73 0.05, 14.63 1.59, 15.83 3.08 C17.03 4.56, 18.16 7.03, 18.16 8.8 C18.16 10.57, 17.19 12.46, 15.83 13.68 C14.47 14.9, 11.93 15.85, 10 16.13 C8.07 16.4, 5.9 16.23, 4.25 15.33 C2.61 14.43, 0.76 12.35, 0.12 10.72 C-0.52 9.1, -0.41 7.22, 0.39 5.59 C1.19 3.96, 3.16 1.83, 4.91 0.96 C6.65 0.08, 9.66 0.4, 10.86 0.32 C12.06 0.23, 12.07 0.3, 12.09 0.45 M7.28 -0.59 C9.13 -0.77, 12.61 0.83, 14.4 1.99 C16.19 3.15, 17.49 4.81, 18.01 6.39 C18.54 7.97, 18.49 9.83, 17.56 11.48 C16.62 13.12, 14.06 15.48, 12.41 16.28 C10.76 17.07, 9.32 16.85, 7.64 16.25 C5.96 15.64, 3.6 14.07, 2.32 12.65 C1.05 11.22, -0.09 9.24, -0.03 7.69 C0.04 6.13, 1.44 4.68, 2.69 3.34 C3.95 1.99, 6.6 0.04, 7.52 -0.38 C8.45 -0.8, 8.23 0.52, 8.27 0.84" stroke="#1e1e1e" stroke-width="2" fill="none"></path></g><g stroke-linecap="round"><g transform="translate(224 51.333343505859375) rotate(0 21.333343505859375 0.6666717529296875)"><path d="M0.48 0.03 C7.5 0.21, 35.55 1.43, 42.5 1.56 M0.06 -0.42 C6.96 -0.18, 34.78 0.45, 41.98 0.71" stroke="#1e1e1e" stroke-width="2" fill="none"></path></g></g><mask></mask><g stroke-linecap="round"><g transform="translate(109.3333740234375 33.333343505859375) rotate(0 -11.333343505859375 17)"><path d="M0.09 0.03 C-4.36 -0.03, -22.06 -6.32, -26.28 -0.45 C-30.49 5.42, -30.31 29.35, -25.2 35.25 C-20.09 41.15, -0.5 35.32, 4.37 34.95 M-1.32 -1 C-5.99 -1.38, -23.28 -8.36, -27.37 -2.1 C-31.47 4.15, -31.32 30.69, -25.9 36.52 C-20.48 42.35, 0.36 33.5, 5.16 32.89" stroke="#1e1e1e" stroke-width="2" fill="none"></path></g></g><mask></mask><g stroke-linecap="round"><g transform="translate(80 52) rotate(0 -17.666656494140625 -0.3333282470703125)"><path d="M0.19 -0.33 C-5.81 -0.44, -29.63 -0.52, -35.5 -0.59 M-0.37 0.68 C-6.51 0.67, -30.21 0.3, -36.01 0.15" stroke="#1e1e1e" stroke-width="2" fill="none"></path></g></g><mask></mask><g transform="translate(25.3333740234375 40) rotate(0 -5.66668701171875 12)" stroke="none"><path fill="#1e1e1e" d="M 0.18,0.78 Q 0.18,0.78 -2.25,1.60 -4.68,2.41 -6.15,3.17 -7.63,3.92 -8.90,5.45 -10.16,6.97 -11.25,10.91 -12.33,14.84 -12.45,17.42 -12.57,19.99 -12.32,21.33 -12.07,22.67 -10.87,22.87 -9.68,23.06 -8.00,21.76 -6.31,20.45 -4.87,17.91 -3.42,15.36 -2.20,12.73 -0.98,10.10 -0.31,7.70 0.34,5.30 0.62,3.73 0.90,2.16 0.83,0.89 0.77,-0.37 0.82,-0.53 0.87,-0.68 0.95,-0.82 1.03,-0.95 1.15,-1.07 1.26,-1.18 1.40,-1.26 1.54,-1.35 1.70,-1.39 1.85,-1.44 2.01,-1.45 2.17,-1.46 2.33,-1.43 2.49,-1.40 2.64,-1.33 2.78,-1.26 2.91,-1.16 3.04,-1.06 3.14,-0.93 3.24,-0.81 3.30,-0.66 3.37,-0.51 3.39,-0.35 3.42,-0.19 3.41,-0.03 3.40,0.12 3.38,0.82 3.36,1.53 3.15,2.73 2.95,3.94 2.87,5.29 2.80,6.63 2.57,8.25 2.33,9.88 2.24,12.20 2.15,14.52 2.30,16.61 2.45,18.70 3.28,20.99 4.11,23.28 4.19,23.35 4.26,23.43 4.31,23.52 4.36,23.61 4.38,23.72 4.40,23.82 4.38,23.93 4.37,24.03 4.32,24.13 4.27,24.22 4.19,24.29 4.11,24.37 4.02,24.41 3.92,24.46 3.82,24.47 3.71,24.48 3.61,24.46 3.50,24.44 3.41,24.38 3.32,24.33 3.25,24.25 3.18,24.17 3.14,24.07 3.10,23.97 3.10,23.86 3.09,23.76 3.12,23.65 3.15,23.55 3.21,23.46 3.27,23.37 3.35,23.31 3.43,23.25 3.53,23.21 3.64,23.18 3.74,23.18 3.85,23.18 3.95,23.21 4.05,23.24 4.13,23.31 4.22,23.37 4.28,23.46 4.34,23.55 4.37,23.65 4.40,23.75 4.39,23.86 4.38,23.96 4.35,24.06 4.31,24.16 4.24,24.24 4.17,24.32 4.08,24.38 3.99,24.43 3.88,24.46 3.78,24.48 3.67,24.47 3.57,24.46 3.47,24.41 3.38,24.37 3.38,24.37 3.38,24.37 1.57,21.63 -0.23,18.89 -0.38,16.65 -0.54,14.41 -0.43,11.95 -0.33,9.49 -0.11,7.98 0.10,6.48 0.20,4.97 0.29,3.47 0.48,2.48 0.67,1.48 0.72,0.55 0.77,-0.37 0.82,-0.53 0.87,-0.68 0.95,-0.82 1.03,-0.95 1.15,-1.07 1.26,-1.18 1.40,-1.26 1.54,-1.35 1.70,-1.39 1.85,-1.44 2.01,-1.45 2.17,-1.46 2.33,-1.43 2.49,-1.40 2.64,-1.33 2.78,-1.26 2.91,-1.16 3.04,-1.06 3.14,-0.93 3.24,-0.81 3.30,-0.66 3.37,-0.51 3.39,-0.35 3.42,-0.19 3.41,-0.03 3.40,0.12 3.45,1.38 3.51,2.64 3.17,4.33 2.82,6.03 2.03,8.59 1.24,11.15 -0.05,13.87 -1.36,16.60 -3.15,19.45 -4.94,22.29 -7.27,23.75 -9.60,25.21 -11.53,24.70 -13.46,24.19 -14.26,22.06 -15.05,19.93 -14.92,17.04 -14.79,14.16 -13.48,9.76 -12.17,5.36 -10.52,3.50 -8.86,1.64 -7.07,0.76 -5.28,-0.11 -2.73,-0.45 -0.18,-0.78 -0.08,-0.79 0.01,-0.80 0.10,-0.79 0.20,-0.77 0.29,-0.74 0.38,-0.70 0.46,-0.65 0.54,-0.59 0.60,-0.52 0.66,-0.44 0.71,-0.36 0.75,-0.27 0.77,-0.17 0.80,-0.08 0.79,0.01 0.79,0.10 0.77,0.20 0.74,0.29 0.70,0.38 0.65,0.46 0.59,0.53 0.52,0.61 0.44,0.66 0.36,0.71 0.27,0.75 0.18,0.78 0.18,0.78 L 0.18,0.78 Z"></path></g><g transform="translate(300.66668701171875 46) rotate(0 -7.666656494140625 10)" stroke="none"><path fill="#1e1e1e" d="M 0.35,1.01 Q 0.35,1.01 -4.02,2.58 -8.40,4.15 -10.27,5.82 -12.13,7.49 -12.87,9.59 -13.60,11.68 -13.99,12.81 -14.38,13.94 -14.20,14.67 -14.03,15.40 -12.67,14.73 -11.32,14.05 -9.32,11.60 -7.32,9.15 -5.88,6.93 -4.43,4.72 -3.67,3.05 -2.92,1.38 -2.37,0.40 -1.82,-0.56 -1.58,-1.13 -1.35,-1.71 -1.31,-1.70 -1.28,-1.69 -1.21,-1.82 -1.14,-1.95 -1.04,-2.06 -0.94,-2.17 -0.82,-2.25 -0.69,-2.34 -0.56,-2.39 -0.42,-2.44 -0.27,-2.45 -0.12,-2.47 0.01,-2.45 0.16,-2.43 0.30,-2.38 0.43,-2.32 0.55,-2.24 0.67,-2.15 0.77,-2.04 0.87,-1.93 0.93,-1.79 1.00,-1.66 1.03,-1.52 1.07,-1.38 1.07,-1.23 1.06,-1.08 1.03,-0.94 0.99,-0.79 1.37,0.70 1.76,2.20 1.60,4.13 1.44,6.06 1.17,8.57 0.89,11.08 0.73,13.64 0.58,16.20 0.57,18.54 0.56,20.88 0.55,20.99 0.54,21.10 0.50,21.19 0.46,21.29 0.39,21.37 0.32,21.45 0.23,21.50 0.13,21.56 0.03,21.58 -0.07,21.60 -0.17,21.58 -0.28,21.57 -0.37,21.52 -0.47,21.48 -0.54,21.40 -0.62,21.33 -0.67,21.23 -0.71,21.14 -0.73,21.03 -0.74,20.93 -0.72,20.82 -0.70,20.72 -0.65,20.62 -0.60,20.53 -0.52,20.46 -0.44,20.39 -0.35,20.35 -0.25,20.30 -0.14,20.29 -0.04,20.29 0.06,20.31 0.16,20.34 0.25,20.39 0.34,20.45 0.41,20.53 0.47,20.61 0.51,20.71 0.55,20.81 0.55,20.92 0.55,21.03 0.52,21.13 0.49,21.23 0.43,21.32 0.37,21.40 0.28,21.46 0.20,21.53 0.10,21.56 0.00,21.59 -0.10,21.59 -0.21,21.59 -0.31,21.55 -0.41,21.51 -0.49,21.45 -0.57,21.38 -0.63,21.29 -0.69,21.20 -0.71,21.10 -0.74,21.00 -0.74,21.00 -0.74,21.00 -1.16,18.55 -1.59,16.11 -1.53,13.48 -1.46,10.84 -1.22,8.35 -0.99,5.85 -0.84,4.12 -0.69,2.39 -0.73,1.43 -0.77,0.48 -1.01,-0.06 -1.25,-0.61 -1.27,-1.15 -1.28,-1.69 -1.21,-1.82 -1.14,-1.95 -1.04,-2.06 -0.94,-2.17 -0.82,-2.25 -0.69,-2.34 -0.56,-2.39 -0.42,-2.44 -0.27,-2.45 -0.12,-2.47 0.01,-2.45 0.16,-2.43 0.30,-2.38 0.43,-2.32 0.55,-2.24 0.67,-2.15 0.77,-2.04 0.87,-1.93 0.93,-1.79 1.00,-1.66 1.03,-1.52 1.07,-1.38 1.07,-1.23 1.06,-1.08 1.03,-0.94 0.99,-0.79 0.83,-0.68 0.67,-0.56 0.44,0.03 0.21,0.62 -0.31,1.50 -0.85,2.37 -1.75,4.14 -2.65,5.91 -4.19,8.19 -5.74,10.47 -8.07,13.18 -10.41,15.89 -12.03,16.53 -13.66,17.18 -15.09,15.60 -16.51,14.02 -16.15,12.44 -15.79,10.85 -14.77,8.34 -13.75,5.84 -11.49,3.90 -9.22,1.97 -4.79,0.48 -0.35,-1.01 -0.22,-1.03 -0.09,-1.06 0.02,-1.06 0.15,-1.05 0.28,-1.02 0.40,-0.99 0.52,-0.92 0.63,-0.86 0.72,-0.77 0.82,-0.68 0.89,-0.57 0.96,-0.47 1.00,-0.34 1.04,-0.22 1.05,-0.09 1.07,0.02 1.05,0.15 1.03,0.28 0.98,0.40 0.93,0.52 0.85,0.62 0.78,0.73 0.68,0.81 0.58,0.89 0.46,0.95 0.35,1.01 0.35,1.01 L 0.35,1.01 Z"></path></g><g transform="translate(286.66668701171875 35.333343505859375) rotate(0 13 -0.6666717529296875)" stroke="none"><path fill="#1e1e1e" d="M -0.19,-1.05 Q -0.19,-1.05 2.84,-1.74 5.89,-2.43 7.60,-2.68 9.31,-2.93 10.85,-3.05 12.38,-3.16 14.07,-3.01 15.77,-2.86 17.26,-2.59 18.76,-2.32 20.15,-1.95 21.54,-1.58 23.42,-0.87 25.30,-0.17 25.39,-0.13 25.49,-0.09 25.57,-0.02 25.65,0.04 25.71,0.14 25.76,0.23 25.78,0.33 25.80,0.44 25.79,0.54 25.78,0.65 25.73,0.74 25.68,0.84 25.61,0.91 25.53,0.99 25.44,1.04 25.35,1.09 25.24,1.10 25.14,1.12 25.03,1.10 24.93,1.08 24.83,1.03 24.74,0.98 24.67,0.90 24.60,0.82 24.55,0.72 24.51,0.63 24.50,0.52 24.49,0.42 24.51,0.31 24.54,0.21 24.59,0.12 24.65,0.03 24.73,-0.03 24.81,-0.10 24.91,-0.13 25.01,-0.17 25.12,-0.18 25.23,-0.18 25.33,-0.15 25.43,-0.12 25.52,-0.06 25.60,-0.00 25.67,0.08 25.73,0.16 25.76,0.26 25.79,0.36 25.79,0.47 25.79,0.58 25.76,0.68 25.72,0.78 25.65,0.86 25.59,0.94 25.50,1.00 25.41,1.06 25.31,1.09 25.21,1.12 25.10,1.11 24.99,1.10 24.99,1.10 24.99,1.10 23.02,0.90 21.04,0.69 19.67,0.46 18.30,0.24 16.91,0.00 15.52,-0.23 14.04,-0.38 12.56,-0.52 11.12,-0.43 9.69,-0.33 8.03,-0.09 6.37,0.13 3.28,0.59 0.19,1.05 0.06,1.05 -0.06,1.06 -0.18,1.04 -0.31,1.02 -0.43,0.96 -0.54,0.91 -0.65,0.83 -0.75,0.75 -0.83,0.65 -0.91,0.55 -0.96,0.43 -1.01,0.32 -1.04,0.19 -1.06,0.06 -1.05,-0.05 -1.05,-0.18 -1.01,-0.31 -0.97,-0.43 -0.90,-0.54 -0.84,-0.65 -0.75,-0.74 -0.66,-0.83 -0.55,-0.90 -0.44,-0.97 -0.31,-1.01 -0.19,-1.05 -0.19,-1.05 L -0.19,-1.05 Z"></path></g><g transform="translate(130.66668701171875 34.66668701171875) rotate(0 6 10.666656494140625)" stroke="none"><path fill="#1e1e1e" d="M 0.74,-0.12 Q 0.74,-0.12 1.15,0.87 1.56,1.87 2.23,2.24 2.90,2.61 3.73,3.02 4.55,3.43 5.20,3.58 5.85,3.73 6.64,4.04 7.42,4.34 8.40,4.89 9.37,5.43 10.27,6.33 11.17,7.24 11.88,7.95 12.58,8.66 13.07,9.15 13.56,9.64 14.05,9.96 14.54,10.28 15.29,11.61 16.04,12.93 15.65,13.46 15.27,13.98 14.75,14.23 14.23,14.47 13.63,15.05 13.02,15.63 12.07,16.14 11.12,16.65 9.79,17.22 8.45,17.79 7.16,18.40 5.86,19.00 4.25,19.49 2.64,19.98 1.43,20.37 0.22,20.75 -1.22,21.13 -2.66,21.51 -2.73,21.59 -2.80,21.66 -2.90,21.71 -2.99,21.76 -3.10,21.78 -3.20,21.79 -3.31,21.78 -3.41,21.76 -3.51,21.71 -3.60,21.66 -3.67,21.58 -3.74,21.50 -3.79,21.40 -3.83,21.31 -3.84,21.20 -3.85,21.10 -3.83,20.99 -3.80,20.89 -3.75,20.80 -3.69,20.71 -3.61,20.64 -3.53,20.57 -3.43,20.53 -3.33,20.50 -3.22,20.49 -3.12,20.49 -3.02,20.52 -2.91,20.55 -2.83,20.61 -2.74,20.67 -2.68,20.75 -2.61,20.84 -2.58,20.94 -2.55,21.04 -2.55,21.14 -2.55,21.25 -2.58,21.35 -2.62,21.45 -2.68,21.54 -2.75,21.62 -2.84,21.68 -2.93,21.74 -3.03,21.76 -3.13,21.79 -3.24,21.78 -3.34,21.78 -3.44,21.74 -3.54,21.70 -3.62,21.63 -3.70,21.56 -3.76,21.47 -3.81,21.37 -3.83,21.27 -3.85,21.17 -3.84,21.06 -3.83,20.96 -3.78,20.86 -3.74,20.76 -3.74,20.76 -3.74,20.76 -2.17,19.43 -0.61,18.10 0.61,17.72 1.84,17.33 3.27,16.91 4.69,16.49 6.03,15.86 7.37,15.24 8.63,14.70 9.89,14.17 10.52,13.88 11.16,13.59 11.74,13.07 12.31,12.54 13.18,12.07 14.06,11.61 14.07,12.27 14.08,12.92 13.56,12.72 13.04,12.52 12.34,12.03 11.65,11.54 11.15,11.04 10.66,10.54 9.95,9.82 9.24,9.09 8.63,8.42 8.02,7.74 7.23,7.28 6.45,6.83 5.81,6.57 5.17,6.32 4.25,6.06 3.34,5.81 2.29,5.25 1.25,4.70 0.22,3.71 -0.80,2.72 -0.77,1.42 -0.74,0.12 -0.74,0.03 -0.75,-0.05 -0.73,-0.14 -0.71,-0.23 -0.67,-0.31 -0.63,-0.39 -0.58,-0.47 -0.52,-0.54 -0.45,-0.59 -0.37,-0.65 -0.29,-0.68 -0.21,-0.72 -0.12,-0.73 -0.03,-0.75 0.05,-0.74 0.14,-0.73 0.23,-0.70 0.31,-0.68 0.39,-0.63 0.47,-0.58 0.53,-0.51 0.59,-0.45 0.64,-0.37 0.69,-0.29 0.71,-0.21 0.74,-0.12 0.74,-0.12 L 0.74,-0.12 Z"></path></g><g transform="translate(124.66668701171875 62.66668701171875) rotate(0 12.333343505859375 0.666656494140625)" stroke="none"><path fill="#1e1e1e" d="M 0,-0.75 Q 0,-0.75 0.96,-1.01 1.92,-1.28 3.63,-0.90 5.34,-0.51 6.51,-0.36 7.67,-0.21 9.10,-0.15 10.53,-0.09 12.29,-0.06 14.05,-0.03 15.38,-0.01 16.71,0.00 17.46,0.02 18.22,0.04 21.16,0.36 24.10,0.67 24.20,0.69 24.31,0.71 24.40,0.76 24.50,0.81 24.57,0.88 24.64,0.96 24.69,1.06 24.73,1.15 24.74,1.26 24.75,1.36 24.73,1.47 24.71,1.57 24.65,1.66 24.60,1.75 24.52,1.82 24.43,1.89 24.34,1.93 24.24,1.97 24.13,1.97 24.03,1.98 23.92,1.95 23.82,1.92 23.73,1.86 23.64,1.80 23.58,1.72 23.52,1.63 23.48,1.53 23.45,1.43 23.45,1.33 23.45,1.22 23.48,1.12 23.52,1.02 23.58,0.93 23.65,0.85 23.73,0.79 23.82,0.73 23.92,0.70 24.03,0.67 24.13,0.68 24.24,0.69 24.34,0.73 24.44,0.77 24.52,0.83 24.60,0.90 24.65,0.99 24.71,1.09 24.73,1.19 24.75,1.29 24.74,1.40 24.73,1.50 24.68,1.60 24.64,1.70 24.57,1.77 24.49,1.85 24.40,1.90 24.31,1.95 24.20,1.97 24.10,1.98 24.10,1.98 24.10,1.98 21.15,2.29 18.20,2.60 17.44,2.61 16.68,2.62 15.34,2.61 14.01,2.61 12.21,2.58 10.41,2.55 8.87,2.48 7.33,2.40 6.02,2.22 4.71,2.05 3.31,1.66 1.90,1.28 0.95,1.01 0,0.75 -0.09,0.74 -0.18,0.73 -0.26,0.69 -0.34,0.66 -0.42,0.61 -0.49,0.56 -0.55,0.49 -0.61,0.42 -0.66,0.34 -0.70,0.26 -0.72,0.17 -0.74,0.09 -0.74,-0.00 -0.74,-0.09 -0.72,-0.17 -0.70,-0.26 -0.66,-0.34 -0.61,-0.42 -0.55,-0.49 -0.49,-0.56 -0.42,-0.61 -0.34,-0.66 -0.26,-0.69 -0.18,-0.73 -0.08,-0.74 0.00,-0.75 0.00,-0.75 L 0,-0.75 Z"></path></g><g transform="translate(163.3333740234375 46) rotate(0 8.33331298828125 4.333343505859375)" stroke="none"><path fill="#1e1e1e" d="M -0.18,-0.74 Q -0.18,-0.74 0.54,-1.09 1.26,-1.43 2.86,-2.08 4.46,-2.73 6.12,-3.39 7.78,-4.06 9.44,-4.73 11.11,-5.40 12.28,-6.20 13.46,-7.01 14.17,-7.55 14.87,-8.08 15.27,-8.51 15.68,-8.93 16.63,-8.82 17.58,-8.70 17.93,-8.17 18.27,-7.64 18.18,-6.36 18.08,-5.09 17.80,-3.66 17.52,-2.24 16.80,-0.81 16.09,0.62 15.23,2.32 14.37,4.03 13.45,6.07 12.52,8.12 11.95,10.06 11.38,12.01 10.94,14.43 10.51,16.86 10.53,16.96 10.56,17.06 10.55,17.17 10.54,17.27 10.50,17.37 10.46,17.47 10.38,17.55 10.31,17.63 10.22,17.68 10.13,17.73 10.02,17.75 9.92,17.77 9.81,17.76 9.71,17.74 9.61,17.69 9.52,17.65 9.44,17.57 9.37,17.50 9.32,17.40 9.28,17.31 9.26,17.20 9.25,17.10 9.27,16.99 9.29,16.89 9.34,16.79 9.39,16.70 9.47,16.63 9.55,16.56 9.65,16.52 9.75,16.48 9.85,16.47 9.96,16.46 10.06,16.49 10.16,16.51 10.25,16.57 10.34,16.63 10.41,16.71 10.48,16.79 10.51,16.89 10.55,16.99 10.55,17.10 10.55,17.20 10.52,17.31 10.49,17.41 10.43,17.49 10.37,17.58 10.28,17.64 10.19,17.70 10.09,17.73 9.99,17.76 9.88,17.76 9.78,17.76 9.68,17.72 9.58,17.69 9.50,17.62 9.41,17.55 9.36,17.46 9.30,17.37 9.30,17.37 9.30,17.37 9.16,14.35 9.02,11.32 9.64,9.21 10.25,7.09 11.21,5.00 12.16,2.91 13.02,1.20 13.88,-0.50 14.51,-1.69 15.13,-2.88 15.34,-3.63 15.54,-4.37 15.91,-5.32 16.27,-6.27 15.50,-5.69 14.73,-5.11 13.34,-4.20 11.96,-3.30 10.28,-2.63 8.61,-1.97 6.94,-1.31 5.27,-0.66 3.53,0.00 1.79,0.67 0.99,0.70 0.18,0.74 0.09,0.75 0.00,0.76 -0.08,0.75 -0.18,0.74 -0.26,0.71 -0.35,0.68 -0.43,0.62 -0.50,0.57 -0.56,0.50 -0.62,0.43 -0.67,0.35 -0.71,0.27 -0.73,0.18 -0.76,0.09 -0.76,0.00 -0.76,-0.08 -0.74,-0.17 -0.71,-0.26 -0.67,-0.35 -0.63,-0.43 -0.57,-0.50 -0.51,-0.57 -0.43,-0.62 -0.35,-0.67 -0.27,-0.71 -0.18,-0.74 -0.18,-0.74 L -0.18,-0.74 Z"></path></g></svg>