<svg version="1.1" xmlns="http://www.w3.org/2000/svg" viewBox="0 0 476.1800088635733 266.89302793458717" width="476.1800088635733" height="266.89302793458717" class="excalidraw-svg"><!-- svg-source:excalidraw --><metadata></metadata><defs><style class="style-fonts">
      </style></defs><rect x="0" y="0" width="476.1800088635733" height="266.89302793458717" fill="#ffffff"></rect><g transform="translate(28.417361147983456 31.02382910214581) rotate(0 10.666656494140625 13.333343505859375)" stroke="none"><path fill="#1e1e1e" d="M 1.34,0 Q 1.34,0 1.47,1.53 1.60,3.06 1.60,5.06 1.61,7.05 1.60,9.05 1.60,11.04 1.60,14.63 1.60,18.22 1.60,20.07 1.60,21.92 1.86,23.90 2.13,25.88 2.16,26.06 2.20,26.25 2.19,26.44 2.19,26.63 2.13,26.81 2.08,27.00 1.99,27.17 1.89,27.33 1.76,27.47 1.63,27.61 1.47,27.72 1.31,27.82 1.13,27.89 0.95,27.95 0.76,27.97 0.56,27.98 0.38,27.96 0.19,27.93 0.01,27.85 -0.16,27.78 -0.31,27.67 -0.47,27.55 -0.59,27.41 -0.72,27.26 -0.80,27.09 -0.88,26.91 -0.92,26.73 -0.97,26.54 -0.36,25.49 0.24,24.44 1.67,23.46 3.09,22.49 4.63,22.67 6.17,22.84 7.83,23.33 9.50,23.81 11.32,24.39 13.14,24.96 14.73,25.17 16.33,25.38 18.69,25.12 21.06,24.86 21.27,24.84 21.48,24.83 21.68,24.89 21.89,24.95 22.07,25.07 22.24,25.19 22.37,25.36 22.50,25.53 22.56,25.73 22.63,25.93 22.63,26.14 22.63,26.35 22.56,26.56 22.49,26.76 22.37,26.93 22.24,27.09 22.06,27.21 21.88,27.33 21.68,27.39 21.47,27.44 21.26,27.43 21.05,27.42 20.85,27.34 20.66,27.26 20.49,27.12 20.33,26.99 20.22,26.80 20.11,26.62 20.07,26.41 20.02,26.21 20.05,26.00 20.07,25.78 20.16,25.59 20.25,25.40 20.40,25.25 20.54,25.09 20.73,24.99 20.92,24.89 21.13,24.86 21.34,24.83 21.55,24.86 21.76,24.90 21.95,25.00 22.13,25.10 22.28,25.25 22.42,25.40 22.51,25.60 22.60,25.79 22.62,26.00 22.65,26.21 22.60,26.42 22.55,26.63 22.44,26.81 22.33,26.99 22.17,27.13 22.01,27.27 21.81,27.34 21.61,27.42 21.62,27.42 21.62,27.42 20.04,27.92 18.47,28.41 17.18,28.48 15.89,28.55 14.04,28.27 12.18,27.99 10.39,27.41 8.60,26.83 7.19,26.40 5.77,25.97 3.98,26.11 2.20,26.24 2.19,26.44 2.19,26.63 2.13,26.81 2.08,27.00 1.99,27.17 1.89,27.33 1.76,27.47 1.63,27.61 1.47,27.72 1.31,27.82 1.13,27.89 0.95,27.95 0.76,27.97 0.57,27.98 0.38,27.96 0.19,27.93 0.01,27.85 -0.16,27.78 -0.31,27.67 -0.47,27.55 -0.59,27.41 -0.72,27.26 -0.80,27.09 -0.88,26.91 -0.92,26.73 -0.97,26.54 -1.08,25.53 -1.19,24.52 -1.40,23.23 -1.60,21.93 -1.60,20.08 -1.60,18.22 -1.60,14.63 -1.60,11.04 -1.60,9.05 -1.61,7.05 -1.60,5.06 -1.60,3.06 -1.47,1.53 -1.34,0 -1.32,-0.16 -1.30,-0.32 -1.24,-0.47 -1.18,-0.62 -1.09,-0.75 -1.00,-0.89 -0.88,-0.99 -0.76,-1.10 -0.61,-1.18 -0.47,-1.25 -0.31,-1.29 -0.16,-1.33 0.00,-1.33 0.16,-1.33 0.31,-1.29 0.47,-1.25 0.61,-1.18 0.76,-1.10 0.88,-0.99 1.00,-0.89 1.09,-0.75 1.18,-0.62 1.24,-0.47 1.30,-0.32 1.32,-0.16 1.34,0.00 1.34,0.00 L 1.34,0 Z"></path></g><g transform="translate(28.417361147983456 42.357172608005186) rotate(0 0.00004999999998744897 0.00005000000000165983)" stroke="none"><path fill="#1e1e1e" d="M 2.12,-2.12 Q 2.12,-2.12 2.40,-1.73 2.69,-1.33 2.83,-0.87 2.97,-0.40 2.96,0.08 2.95,0.56 2.78,1.02 2.61,1.47 2.31,1.85 2.00,2.23 1.59,2.49 1.18,2.76 0.71,2.87 0.24,2.99 -0.24,2.95 -0.72,2.91 -1.17,2.72 -1.61,2.53 -1.98,2.20 -2.34,1.88 -2.58,1.45 -2.82,1.03 -2.91,0.55 -3.00,0.08 -2.93,-0.40 -2.87,-0.88 -2.65,-1.31 -2.44,-1.75 -2.09,-2.09 -1.75,-2.44 -1.31,-2.65 -0.88,-2.87 -0.39,-2.93 0.08,-3.00 0.55,-2.91 1.03,-2.82 1.46,-2.58 1.88,-2.34 2.20,-1.97 2.53,-1.61 2.72,-1.17 2.91,-0.72 2.95,-0.23 2.99,0.24 2.87,0.71 2.76,1.18 2.49,1.59 2.23,2.00 1.85,2.31 1.47,2.61 1.02,2.78 0.56,2.95 0.07,2.96 -0.40,2.97 -0.87,2.83 -1.33,2.69 -1.73,2.40 -2.12,2.12 -2.12,2.12 -2.12,2.12 -2.34,1.83 -2.57,1.55 -2.72,1.22 -2.86,0.89 -2.93,0.53 -2.99,0.18 -2.97,-0.18 -2.95,-0.54 -2.84,-0.88 -2.74,-1.23 -2.55,-1.54 -2.36,-1.85 -2.10,-2.10 -1.85,-2.36 -1.54,-2.55 -1.23,-2.74 -0.88,-2.84 -0.54,-2.95 -0.17,-2.97 0.18,-2.99 0.53,-2.93 0.89,-2.86 1.22,-2.72 1.55,-2.57 1.84,-2.34 2.12,-2.12 2.12,-2.12 L 2.12,-2.12 Z"></path></g><g transform="translate(28.417361147983456 42.357172608005186) rotate(0 6 0)" stroke="none"><path fill="#1e1e1e" d="M 0,-1.37 Q 0,-1.37 1.72,-1.47 3.44,-1.58 5.61,-1.77 7.77,-1.97 9.48,-1.94 11.18,-1.92 11.39,-1.90 11.60,-1.88 11.80,-1.80 11.99,-1.71 12.15,-1.57 12.31,-1.42 12.41,-1.24 12.51,-1.05 12.55,-0.84 12.59,-0.63 12.56,-0.42 12.52,-0.21 12.43,-0.02 12.33,0.16 12.18,0.31 12.03,0.45 11.84,0.55 11.65,0.64 11.43,0.67 11.22,0.69 11.02,0.65 10.81,0.61 10.62,0.50 10.44,0.39 10.30,0.23 10.16,0.08 10.08,-0.11 10.00,-0.31 9.98,-0.52 9.97,-0.73 10.02,-0.94 10.07,-1.14 10.19,-1.32 10.30,-1.50 10.47,-1.63 10.64,-1.76 10.84,-1.83 11.04,-1.90 11.25,-1.91 11.46,-1.91 11.67,-1.85 11.87,-1.78 12.04,-1.65 12.21,-1.53 12.33,-1.36 12.46,-1.18 12.52,-0.98 12.58,-0.77 12.57,-0.56 12.56,-0.35 12.48,-0.15 12.41,0.04 12.27,0.20 12.14,0.37 11.96,0.48 11.78,0.59 11.57,0.64 11.37,0.69 11.37,0.69 11.37,0.69 9.79,0.94 8.22,1.20 5.83,1.39 3.44,1.58 1.72,1.47 0,1.37 -0.16,1.35 -0.32,1.33 -0.48,1.27 -0.63,1.21 -0.77,1.12 -0.91,1.02 -1.02,0.90 -1.12,0.77 -1.20,0.63 -1.28,0.48 -1.32,0.32 -1.36,0.16 -1.36,-0.00 -1.36,-0.16 -1.32,-0.32 -1.28,-0.48 -1.20,-0.63 -1.12,-0.77 -1.01,-0.90 -0.91,-1.02 -0.77,-1.12 -0.63,-1.21 -0.48,-1.27 -0.32,-1.33 -0.16,-1.35 0.00,-1.37 0.00,-1.37 L 0,-1.37 Z"></path></g><g transform="translate(27.083987124545956 25.69051611386456) rotate(0 11.66668701171875 2)" stroke="none"><path fill="#1e1e1e" d="M 0.76,-1.15 Q 0.76,-1.15 1.97,-0.48 3.18,0.18 4.46,0.61 5.73,1.04 7.58,1.42 9.43,1.81 11.43,1.76 13.44,1.72 15.03,1.49 16.63,1.27 19.59,1.02 22.54,0.76 22.75,0.77 22.96,0.78 23.16,0.86 23.36,0.94 23.52,1.08 23.69,1.21 23.80,1.39 23.91,1.57 23.95,1.78 24.00,1.99 23.98,2.20 23.96,2.41 23.87,2.60 23.78,2.80 23.64,2.95 23.49,3.11 23.31,3.21 23.12,3.31 22.91,3.35 22.70,3.38 22.49,3.35 22.28,3.32 22.09,3.22 21.90,3.12 21.76,2.97 21.61,2.81 21.52,2.62 21.43,2.43 21.40,2.22 21.38,2.01 21.42,1.80 21.47,1.59 21.58,1.41 21.68,1.23 21.85,1.09 22.01,0.95 22.20,0.87 22.40,0.79 22.61,0.78 22.82,0.76 23.03,0.82 23.23,0.87 23.41,0.99 23.59,1.11 23.72,1.28 23.85,1.45 23.92,1.65 23.99,1.85 23.99,2.06 23.99,2.27 23.92,2.47 23.86,2.68 23.73,2.85 23.60,3.02 23.43,3.14 23.25,3.26 23.05,3.32 22.84,3.37 22.84,3.37 22.84,3.37 19.94,4.01 17.03,4.64 15.25,4.82 13.46,4.99 11.12,4.98 8.78,4.97 6.71,4.53 4.65,4.09 3.03,3.49 1.41,2.88 0.32,2.01 -0.76,1.15 -0.89,1.04 -1.02,0.93 -1.11,0.79 -1.21,0.66 -1.27,0.50 -1.33,0.35 -1.36,0.18 -1.38,0.02 -1.36,-0.14 -1.34,-0.30 -1.29,-0.46 -1.23,-0.62 -1.14,-0.76 -1.05,-0.90 -0.92,-1.01 -0.80,-1.12 -0.65,-1.20 -0.51,-1.28 -0.35,-1.32 -0.18,-1.37 -0.02,-1.37 0.14,-1.37 0.30,-1.33 0.46,-1.30 0.61,-1.22 0.76,-1.15 0.76,-1.15 L 0.76,-1.15 Z"></path></g><g transform="translate(86.41736114798346 43.02382910214581) rotate(0 23.666656494140625 -2.666656494140625)" stroke="none"><path fill="#1e1e1e" d="M -0.42,-1.28 Q -0.42,-1.28 0.72,-1.66 1.87,-2.04 3.04,-2.24 4.21,-2.44 6.21,-2.81 8.20,-3.19 9.68,-3.24 11.16,-3.29 12.74,-3.31 14.33,-3.33 15.96,-3.34 17.59,-3.35 21.34,-3.37 25.09,-3.39 27.94,-3.77 30.79,-4.16 33.33,-4.70 35.87,-5.25 38.34,-5.66 40.81,-6.07 43.44,-6.30 46.06,-6.52 46.28,-6.51 46.49,-6.50 46.68,-6.41 46.88,-6.33 47.04,-6.20 47.20,-6.06 47.31,-5.87 47.42,-5.69 47.46,-5.48 47.51,-5.27 47.48,-5.06 47.46,-4.85 47.37,-4.66 47.27,-4.47 47.13,-4.32 46.98,-4.16 46.79,-4.06 46.60,-3.97 46.39,-3.93 46.18,-3.90 45.97,-3.94 45.76,-3.97 45.58,-4.08 45.39,-4.18 45.25,-4.33 45.10,-4.49 45.01,-4.68 44.93,-4.88 44.90,-5.09 44.88,-5.30 44.93,-5.51 44.98,-5.71 45.09,-5.89 45.20,-6.07 45.36,-6.21 45.53,-6.35 45.73,-6.42 45.92,-6.50 46.14,-6.51 46.35,-6.52 46.55,-6.46 46.76,-6.40 46.93,-6.28 47.11,-6.16 47.23,-5.99 47.36,-5.82 47.43,-5.62 47.49,-5.42 47.49,-5.20 47.49,-4.99 47.42,-4.79 47.35,-4.59 47.22,-4.42 47.09,-4.25 46.91,-4.14 46.73,-4.02 46.53,-3.96 46.32,-3.91 46.32,-3.91 46.32,-3.91 43.81,-3.62 41.29,-3.33 38.87,-2.89 36.46,-2.46 33.81,-1.91 31.16,-1.36 28.13,-0.98 25.09,-0.60 21.35,-0.61 17.60,-0.62 15.98,-0.61 14.36,-0.60 12.81,-0.58 11.25,-0.56 8.87,-0.43 6.49,-0.30 4.61,0.10 2.72,0.51 1.57,0.89 0.42,1.28 0.26,1.31 0.10,1.34 -0.05,1.34 -0.21,1.33 -0.37,1.29 -0.53,1.24 -0.67,1.16 -0.81,1.08 -0.93,0.96 -1.04,0.85 -1.13,0.71 -1.22,0.57 -1.27,0.42 -1.32,0.27 -1.33,0.10 -1.35,-0.05 -1.32,-0.21 -1.30,-0.37 -1.23,-0.52 -1.17,-0.67 -1.07,-0.80 -0.97,-0.93 -0.84,-1.04 -0.72,-1.14 -0.57,-1.21 -0.42,-1.28 -0.42,-1.28 L -0.42,-1.28 Z"></path></g><g transform="translate(130.41736114798346 18.357172608005186) rotate(0 -1.000030517578125 24.666671752929688)" stroke="none"><path fill="#1e1e1e" d="M 1.34,-0.16 Q 1.34,-0.16 1.57,1.36 1.80,2.88 1.89,4.74 1.98,6.60 1.82,8.79 1.66,10.99 1.40,13.81 1.15,16.64 1.04,18.57 0.93,20.51 0.50,23.89 0.07,27.26 -0.10,30.16 -0.28,33.06 -0.55,36.25 -0.81,39.43 -0.96,42.09 -1.10,44.74 -0.94,46.55 -0.78,48.35 -0.79,48.56 -0.80,48.77 -0.88,48.97 -0.96,49.17 -1.10,49.33 -1.24,49.49 -1.42,49.60 -1.60,49.71 -1.81,49.76 -2.02,49.80 -2.23,49.78 -2.44,49.75 -2.63,49.67 -2.82,49.58 -2.98,49.43 -3.13,49.28 -3.23,49.10 -3.33,48.91 -3.36,48.70 -3.40,48.49 -3.36,48.28 -3.33,48.07 -3.23,47.88 -3.13,47.69 -2.97,47.55 -2.82,47.40 -2.63,47.31 -2.43,47.22 -2.22,47.20 -2.01,47.18 -1.80,47.22 -1.60,47.27 -1.41,47.38 -1.23,47.49 -1.10,47.65 -0.96,47.81 -0.88,48.01 -0.80,48.21 -0.79,48.42 -0.78,48.63 -0.84,48.84 -0.89,49.04 -1.01,49.22 -1.13,49.39 -1.30,49.52 -1.47,49.65 -1.67,49.72 -1.87,49.79 -2.09,49.79 -2.30,49.79 -2.50,49.72 -2.70,49.65 -2.87,49.52 -3.04,49.39 -3.16,49.22 -3.28,49.04 -3.33,48.83 -3.39,48.63 -3.39,48.63 -3.39,48.63 -3.64,46.63 -3.89,44.63 -3.80,41.91 -3.71,39.19 -3.44,36.04 -3.17,32.88 -2.98,29.89 -2.79,26.89 -2.37,23.62 -1.94,20.35 -1.83,18.36 -1.72,16.37 -1.46,13.57 -1.20,10.77 -1.04,8.75 -0.89,6.73 -0.96,4.98 -1.03,3.24 -1.19,1.70 -1.34,0.16 -1.34,0.00 -1.34,-0.15 -1.30,-0.31 -1.26,-0.47 -1.19,-0.62 -1.11,-0.76 -1.00,-0.88 -0.90,-1.01 -0.76,-1.10 -0.63,-1.19 -0.48,-1.25 -0.32,-1.31 -0.16,-1.33 -0.00,-1.35 0.15,-1.33 0.31,-1.31 0.47,-1.25 0.62,-1.20 0.75,-1.10 0.89,-1.01 1.00,-0.89 1.11,-0.77 1.18,-0.62 1.26,-0.48 1.30,-0.32 1.34,-0.16 1.34,-0.16 L 1.34,-0.16 Z"></path></g><g transform="translate(133.08398712454596 30.357172608005186) rotate(0 5.3333740234375 9.333343505859375)" stroke="none"><path fill="#1e1e1e" d="M 0.18,-1.31 Q 0.18,-1.31 1.53,-1.17 2.88,-1.02 4.78,-0.71 6.68,-0.41 7.77,-0.13 8.86,0.14 9.90,0.46 10.94,0.77 12.47,1.49 14.00,2.21 15.03,3.27 16.06,4.33 16.19,5.82 16.32,7.30 15.40,8.24 14.48,9.18 13.51,10.11 12.54,11.04 11.67,11.71 10.80,12.38 9.45,13.24 8.11,14.11 6.52,14.90 4.93,15.68 3.53,16.38 2.12,17.08 0.76,17.76 -0.59,18.44 -2.04,19.23 -3.49,20.02 -3.67,20.14 -3.84,20.27 -4.05,20.32 -4.25,20.38 -4.46,20.37 -4.67,20.37 -4.87,20.29 -5.07,20.21 -5.23,20.08 -5.40,19.94 -5.51,19.76 -5.62,19.58 -5.67,19.37 -5.71,19.16 -5.69,18.95 -5.67,18.74 -5.59,18.55 -5.50,18.35 -5.35,18.20 -5.21,18.04 -5.02,17.94 -4.84,17.84 -4.63,17.80 -4.42,17.77 -4.21,17.80 -4.00,17.83 -3.81,17.93 -3.62,18.03 -3.47,18.18 -3.32,18.33 -3.23,18.52 -3.14,18.72 -3.12,18.93 -3.09,19.14 -3.14,19.35 -3.18,19.55 -3.29,19.74 -3.40,19.92 -3.56,20.06 -3.72,20.20 -3.91,20.28 -4.11,20.36 -4.32,20.37 -4.53,20.39 -4.74,20.33 -4.94,20.28 -5.12,20.16 -5.30,20.04 -5.43,19.87 -5.56,19.71 -5.63,19.51 -5.70,19.30 -5.70,19.09 -5.70,18.88 -5.64,18.68 -5.57,18.48 -5.44,18.31 -5.32,18.14 -5.32,18.14 -5.32,18.14 -3.67,16.84 -2.03,15.55 -0.66,14.87 0.70,14.19 2.11,13.49 3.52,12.80 4.95,12.11 6.39,11.42 8.36,10.10 10.33,8.77 11.24,7.92 12.15,7.06 12.27,5.93 12.40,4.81 11.23,4.22 10.05,3.63 8.07,3.02 6.09,2.41 4.28,2.10 2.48,1.78 1.14,1.55 -0.18,1.31 -0.34,1.27 -0.49,1.23 -0.63,1.15 -0.77,1.07 -0.89,0.97 -1.01,0.86 -1.10,0.72 -1.19,0.59 -1.24,0.44 -1.29,0.29 -1.31,0.13 -1.33,-0.02 -1.30,-0.18 -1.28,-0.34 -1.22,-0.49 -1.16,-0.64 -1.07,-0.77 -0.97,-0.90 -0.85,-1.00 -0.73,-1.11 -0.58,-1.18 -0.44,-1.25 -0.28,-1.29 -0.13,-1.32 0.02,-1.32 0.18,-1.31 0.18,-1.31 L 0.18,-1.31 Z"></path></g><g transform="translate(371.921722144338 34.38598568851637) rotate(0 -3.1935307304790115 7.345103137566994)" stroke="none"><path fill="#1e1e1e" d="M 0,1.35 Q 0,1.35 -1.09,1.49 -2.19,1.63 -3.54,2.16 -4.89,2.69 -5.78,3.92 -6.67,5.15 -7.72,6.61 -8.78,8.06 -9.16,9.43 -9.55,10.80 -8.55,12.46 -7.55,14.11 -6.38,14.39 -5.20,14.68 -3.97,14.14 -2.74,13.61 -1.47,12.86 -0.20,12.11 0.58,11.17 1.36,10.23 1.84,9.19 2.32,8.15 2.68,6.67 3.05,5.19 3.02,3.78 2.99,2.36 2.82,1.26 2.65,0.17 0.72,0.98 -1.19,1.80 -1.37,1.92 -1.55,2.04 -1.75,2.09 -1.96,2.15 -2.17,2.14 -2.38,2.12 -2.58,2.04 -2.77,1.96 -2.93,1.82 -3.10,1.68 -3.20,1.50 -3.31,1.32 -3.36,1.11 -3.40,0.90 -3.38,0.69 -3.35,0.48 -3.26,0.29 -3.17,0.10 -3.02,-0.05 -2.87,-0.20 -2.69,-0.30 -2.50,-0.40 -2.29,-0.43 -2.08,-0.46 -1.87,-0.43 -1.66,-0.39 -1.47,-0.29 -1.29,-0.19 -1.14,-0.03 -1.00,0.11 -0.91,0.31 -0.82,0.50 -0.80,0.71 -0.78,0.92 -0.82,1.13 -0.87,1.34 -0.98,1.52 -1.09,1.70 -1.26,1.84 -1.42,1.97 -1.62,2.05 -1.82,2.13 -2.03,2.14 -2.24,2.15 -2.44,2.09 -2.65,2.03 -2.82,1.91 -3.00,1.79 -3.13,1.62 -3.25,1.45 -3.32,1.25 -3.39,1.04 -3.38,0.83 -3.38,0.62 -3.31,0.42 -3.24,0.22 -3.11,0.05 -2.98,-0.11 -2.98,-0.11 -2.98,-0.11 -0.55,-1.66 1.87,-3.22 2.99,-2.88 4.12,-2.54 4.84,-1.45 5.55,-0.36 5.74,1.00 5.94,2.36 5.91,4.15 5.88,5.93 5.37,7.67 4.86,9.41 4.16,10.74 3.45,12.08 2.31,13.27 1.17,14.47 -0.34,15.29 -1.86,16.11 -3.75,16.67 -5.64,17.23 -7.48,16.63 -9.32,16.04 -10.85,14.22 -12.39,12.39 -12.27,11.24 -12.15,10.08 -11.66,8.30 -11.17,6.52 -10.17,4.89 -9.17,3.25 -7.82,1.53 -6.47,-0.17 -4.34,-0.90 -2.21,-1.63 -1.10,-1.49 0,-1.35 0.16,-1.33 0.32,-1.31 0.47,-1.25 0.62,-1.19 0.76,-1.10 0.89,-1.01 1.00,-0.89 1.11,-0.76 1.19,-0.62 1.26,-0.48 1.30,-0.32 1.34,-0.16 1.34,0.00 1.34,0.16 1.30,0.32 1.26,0.48 1.19,0.62 1.11,0.76 1.00,0.89 0.89,1.01 0.76,1.10 0.62,1.19 0.47,1.25 0.32,1.31 0.16,1.33 -0.00,1.35 -0.00,1.35 L 0,1.35 Z"></path></g><g transform="translate(313.79962073243246 48.43746827501985) rotate(0 25.22882552440109 -2.874168886163744)" stroke="none"><path fill="#1e1e1e" d="M -0.08,-1.40 Q -0.08,-1.40 3.03,-1.61 6.15,-1.82 8.60,-1.89 11.05,-1.97 12.56,-2.18 14.06,-2.40 15.71,-2.50 17.36,-2.60 22.46,-3.22 27.56,-3.83 30.74,-4.45 33.91,-5.07 36.19,-5.53 38.47,-5.98 40.56,-6.32 42.66,-6.66 44.52,-6.80 46.39,-6.94 48.03,-6.97 49.66,-7.01 49.88,-6.99 50.09,-6.97 50.28,-6.88 50.47,-6.79 50.63,-6.65 50.78,-6.50 50.88,-6.31 50.98,-6.13 51.02,-5.92 51.05,-5.71 51.02,-5.50 50.99,-5.29 50.89,-5.10 50.79,-4.91 50.64,-4.76 50.48,-4.62 50.29,-4.53 50.10,-4.44 49.89,-4.41 49.68,-4.39 49.47,-4.43 49.26,-4.48 49.08,-4.59 48.90,-4.70 48.76,-4.86 48.62,-5.02 48.54,-5.22 48.46,-5.41 48.45,-5.62 48.44,-5.84 48.49,-6.04 48.55,-6.25 48.67,-6.42 48.78,-6.60 48.95,-6.73 49.12,-6.86 49.32,-6.93 49.52,-7.00 49.74,-7.00 49.95,-7.00 50.15,-6.93 50.35,-6.86 50.52,-6.74 50.69,-6.61 50.81,-6.43 50.93,-6.26 50.99,-6.05 51.05,-5.85 51.04,-5.64 51.03,-5.43 50.95,-5.23 50.87,-5.03 50.73,-4.87 50.60,-4.70 50.41,-4.59 50.23,-4.48 50.03,-4.44 49.82,-4.39 49.82,-4.39 49.82,-4.39 48.23,-4.24 46.64,-4.08 44.91,-3.91 43.18,-3.73 41.12,-3.32 39.07,-2.92 36.77,-2.49 34.48,-2.06 31.22,-1.46 27.97,-0.87 22.75,-0.27 17.53,0.32 15.99,0.40 14.46,0.48 12.80,0.70 11.14,0.92 8.73,1.00 6.32,1.08 3.20,1.24 0.08,1.40 -0.08,1.39 -0.25,1.38 -0.41,1.33 -0.57,1.28 -0.72,1.19 -0.86,1.10 -0.98,0.98 -1.10,0.86 -1.19,0.72 -1.28,0.57 -1.33,0.41 -1.38,0.25 -1.39,0.08 -1.40,-0.08 -1.37,-0.25 -1.34,-0.42 -1.27,-0.57 -1.20,-0.72 -1.09,-0.86 -0.99,-0.99 -0.85,-1.10 -0.72,-1.20 -0.57,-1.27 -0.41,-1.34 -0.24,-1.37 -0.08,-1.40 -0.08,-1.40 L -0.08,-1.40 Z"></path></g><g transform="translate(381.95094556604687 11.266376144415887) rotate(0 -0.9497966010578978 12.347370306498448)" stroke="none"><path fill="#1e1e1e" d="M 1.26,0.36 Q 1.26,0.36 0.99,1.65 0.71,2.95 0.58,4.45 0.46,5.95 0.40,7.88 0.34,9.80 0.12,11.61 -0.08,13.42 -0.17,15.56 -0.26,17.70 -0.41,21.09 -0.56,24.47 -0.60,24.68 -0.63,24.89 -0.74,25.08 -0.84,25.27 -0.99,25.41 -1.15,25.55 -1.35,25.64 -1.54,25.72 -1.75,25.74 -1.96,25.76 -2.17,25.72 -2.38,25.67 -2.56,25.55 -2.74,25.44 -2.87,25.28 -3.01,25.11 -3.08,24.91 -3.16,24.72 -3.17,24.50 -3.17,24.29 -3.11,24.09 -3.05,23.88 -2.93,23.71 -2.81,23.54 -2.64,23.41 -2.47,23.28 -2.26,23.22 -2.06,23.15 -1.85,23.16 -1.64,23.16 -1.44,23.23 -1.24,23.30 -1.07,23.43 -0.90,23.57 -0.79,23.74 -0.67,23.92 -0.62,24.13 -0.56,24.33 -0.58,24.54 -0.59,24.76 -0.67,24.95 -0.76,25.15 -0.90,25.31 -1.04,25.47 -1.22,25.58 -1.40,25.68 -1.61,25.72 -1.82,25.77 -2.03,25.74 -2.24,25.71 -2.43,25.62 -2.63,25.53 -2.78,25.38 -2.93,25.23 -3.03,25.04 -3.12,24.85 -3.15,24.64 -3.18,24.43 -3.18,24.43 -3.18,24.43 -3.22,21.01 -3.26,17.58 -3.18,15.32 -3.09,13.06 -2.88,11.38 -2.68,9.70 -2.60,7.68 -2.53,5.67 -2.35,3.90 -2.17,2.14 -1.71,0.88 -1.26,-0.36 -1.20,-0.50 -1.14,-0.65 -1.04,-0.78 -0.95,-0.90 -0.83,-1.00 -0.70,-1.11 -0.56,-1.17 -0.42,-1.24 -0.26,-1.28 -0.11,-1.31 0.04,-1.30 0.20,-1.30 0.35,-1.25 0.51,-1.21 0.64,-1.13 0.78,-1.05 0.90,-0.94 1.01,-0.83 1.10,-0.70 1.18,-0.56 1.23,-0.41 1.28,-0.26 1.30,-0.10 1.31,0.04 1.29,0.20 1.26,0.36 1.26,0.36 L 1.26,0.36 Z"></path></g><g transform="translate(382.58416262374675 32.161901367689325) rotate(0 -1.266405129907838 15.196760109672113)" stroke="none"><path fill="#1e1e1e" d="M 1.33,0.22 Q 1.33,0.22 1.20,1.32 1.08,2.42 0.82,3.65 0.56,4.88 0.27,6.13 -0.01,7.38 0.00,9.31 0.02,11.24 0.08,12.74 0.14,14.25 0.17,16.16 0.19,18.07 0.20,19.24 0.22,20.42 0.23,22.74 0.23,25.06 0.05,26.68 -0.12,28.30 -0.64,30.05 -1.17,31.81 -1.28,31.99 -1.39,32.17 -1.56,32.31 -1.72,32.44 -1.92,32.52 -2.11,32.60 -2.33,32.61 -2.54,32.62 -2.74,32.57 -2.95,32.51 -3.12,32.39 -3.30,32.27 -3.43,32.10 -3.55,31.93 -3.62,31.73 -3.69,31.53 -3.69,31.32 -3.69,31.10 -3.62,30.90 -3.55,30.70 -3.42,30.53 -3.29,30.36 -3.12,30.24 -2.94,30.13 -2.74,30.07 -2.53,30.01 -2.32,30.02 -2.11,30.04 -1.91,30.12 -1.71,30.19 -1.55,30.33 -1.39,30.47 -1.28,30.65 -1.17,30.83 -1.13,31.04 -1.08,31.25 -1.10,31.46 -1.13,31.67 -1.22,31.86 -1.31,32.06 -1.45,32.21 -1.60,32.37 -1.79,32.46 -1.98,32.56 -2.19,32.60 -2.40,32.63 -2.61,32.60 -2.81,32.56 -3.00,32.46 -3.19,32.36 -3.34,32.21 -3.48,32.05 -3.57,31.86 -3.66,31.67 -3.68,31.46 -3.70,31.24 -3.66,31.04 -3.61,30.83 -3.61,30.83 -3.61,30.83 -3.38,29.39 -3.14,27.95 -2.96,26.51 -2.78,25.06 -2.78,22.75 -2.78,20.44 -2.79,19.28 -2.79,18.11 -2.82,16.23 -2.84,14.36 -2.89,12.95 -2.94,11.54 -2.93,9.11 -2.91,6.69 -2.62,5.47 -2.33,4.25 -2.07,3.09 -1.80,1.94 -1.57,0.86 -1.33,-0.22 -1.28,-0.37 -1.24,-0.53 -1.16,-0.67 -1.07,-0.81 -0.96,-0.93 -0.85,-1.05 -0.71,-1.13 -0.57,-1.22 -0.42,-1.27 -0.26,-1.32 -0.10,-1.34 0.06,-1.35 0.22,-1.32 0.38,-1.29 0.53,-1.23 0.68,-1.16 0.81,-1.07 0.94,-0.97 1.04,-0.84 1.14,-0.71 1.21,-0.57 1.28,-0.42 1.31,-0.26 1.35,-0.10 1.34,0.05 1.33,0.22 1.33,0.22 L 1.33,0.22 Z"></path></g><g transform="translate(383.8505387681626 27.729526891249833) rotate(0 8.864806923862886 7.914981337313023)" stroke="none"><path fill="#1e1e1e" d="M 0.84,-1.06 Q 0.84,-1.06 1.77,-0.37 2.69,0.31 3.96,0.68 5.23,1.06 6.56,1.43 7.89,1.80 9.26,1.94 10.63,2.07 11.77,2.14 12.91,2.21 15.07,2.45 17.24,2.70 18.41,3.36 19.58,4.02 20.29,5.57 21.01,7.12 19.79,7.85 18.57,8.57 17.13,9.74 15.69,10.90 14.78,11.73 13.86,12.56 12.77,13.21 11.68,13.86 10.01,14.35 8.33,14.84 6.55,15.22 4.78,15.59 3.42,16.08 2.05,16.56 0.34,17.01 -1.37,17.45 -1.58,17.48 -1.79,17.52 -2.00,17.49 -2.21,17.45 -2.39,17.35 -2.58,17.26 -2.73,17.10 -2.88,16.95 -2.97,16.76 -3.06,16.56 -3.08,16.35 -3.11,16.14 -3.06,15.94 -3.02,15.73 -2.91,15.54 -2.80,15.36 -2.64,15.22 -2.48,15.08 -2.28,15.00 -2.08,14.92 -1.87,14.91 -1.66,14.90 -1.45,14.95 -1.25,15.01 -1.07,15.13 -0.90,15.25 -0.77,15.42 -0.64,15.58 -0.57,15.78 -0.50,15.99 -0.50,16.20 -0.50,16.41 -0.56,16.61 -0.63,16.81 -0.76,16.98 -0.89,17.15 -1.06,17.27 -1.24,17.39 -1.44,17.45 -1.64,17.51 -1.86,17.50 -2.07,17.49 -2.27,17.41 -2.46,17.34 -2.63,17.20 -2.79,17.06 -2.90,16.88 -3.01,16.70 -3.06,16.49 -3.10,16.28 -3.08,16.07 -3.06,15.86 -2.97,15.67 -2.89,15.48 -2.74,15.32 -2.59,15.17 -2.41,15.06 -2.22,14.96 -2.22,14.96 -2.22,14.96 -0.61,14.26 0.99,13.56 2.56,13.01 4.12,12.47 5.80,12.12 7.48,11.78 9.62,10.99 11.76,10.20 12.76,9.30 13.76,8.40 15.40,7.11 17.04,5.82 18.04,5.36 19.05,4.89 18.13,5.57 17.21,6.25 16.04,5.75 14.86,5.24 13.80,5.21 12.73,5.17 11.51,5.10 10.30,5.02 8.69,4.83 7.08,4.63 5.70,4.22 4.32,3.81 2.63,3.20 0.94,2.60 0.04,1.83 -0.84,1.06 -0.96,0.94 -1.07,0.82 -1.16,0.68 -1.24,0.54 -1.29,0.38 -1.33,0.23 -1.34,0.06 -1.35,-0.09 -1.32,-0.25 -1.29,-0.41 -1.22,-0.56 -1.15,-0.71 -1.05,-0.84 -0.95,-0.96 -0.82,-1.06 -0.69,-1.16 -0.54,-1.23 -0.39,-1.30 -0.22,-1.32 -0.06,-1.35 0.09,-1.34 0.25,-1.33 0.41,-1.28 0.56,-1.23 0.70,-1.14 0.84,-1.06 0.84,-1.06 L 0.84,-1.06 Z"></path></g><g transform="translate(12.865700981140776 139.33072174766406) rotate(0 1.0234699904754052 0.8187797404279422)" stroke="none"><path fill="#1e1e1e" d="M -0.39,-1.37 Q -0.39,-1.37 0.37,-1.69 1.15,-2.01 1.89,-2.83 2.64,-3.65 1.59,-3.42 0.54,-3.19 -0.10,-2.10 -0.75,-1.01 -0.76,0.10 -0.78,1.22 -0.17,2.31 0.42,3.40 2.81,4.51 5.20,5.62 5.37,5.75 5.54,5.88 5.66,6.06 5.78,6.24 5.83,6.44 5.89,6.65 5.87,6.86 5.86,7.07 5.78,7.27 5.70,7.46 5.56,7.62 5.42,7.79 5.24,7.89 5.06,8.00 4.85,8.05 4.64,8.09 4.43,8.06 4.22,8.04 4.03,7.95 3.83,7.86 3.68,7.71 3.53,7.56 3.43,7.38 3.33,7.19 3.30,6.98 3.27,6.77 3.30,6.56 3.34,6.35 3.44,6.16 3.54,5.97 3.70,5.83 3.85,5.68 4.04,5.60 4.24,5.51 4.45,5.49 4.66,5.47 4.87,5.51 5.08,5.56 5.26,5.67 5.44,5.78 5.57,5.95 5.71,6.11 5.79,6.31 5.86,6.51 5.87,6.72 5.88,6.93 5.83,7.13 5.77,7.34 5.65,7.51 5.53,7.69 5.36,7.82 5.19,7.94 4.98,8.01 4.78,8.08 4.57,8.07 4.36,8.07 4.16,8.00 3.95,7.93 3.96,7.93 3.96,7.93 2.30,7.22 0.64,6.51 -0.40,6.04 -1.45,5.58 -2.32,4.77 -3.18,3.96 -3.69,2.65 -4.20,1.33 -4.26,-0.23 -4.33,-1.81 -3.94,-3.13 -3.56,-4.46 -2.72,-5.33 -1.89,-6.20 -0.08,-6.70 1.72,-7.19 3.01,-7.08 4.31,-6.98 5.40,-5.65 6.50,-4.33 6.10,-3.24 5.71,-2.14 4.90,-1.24 4.09,-0.33 3.11,0.37 2.14,1.07 1.26,1.22 0.39,1.37 0.22,1.40 0.05,1.42 -0.11,1.41 -0.29,1.39 -0.45,1.34 -0.61,1.28 -0.76,1.19 -0.90,1.10 -1.02,0.97 -1.14,0.85 -1.23,0.70 -1.31,0.55 -1.36,0.38 -1.41,0.22 -1.41,0.05 -1.42,-0.12 -1.38,-0.28 -1.35,-0.45 -1.27,-0.61 -1.20,-0.76 -1.09,-0.90 -0.98,-1.03 -0.84,-1.13 -0.70,-1.23 -0.55,-1.30 -0.39,-1.37 -0.39,-1.37 L -0.39,-1.37 Z"></path></g><g transform="translate(47.663586956114955 149.97478341227523) rotate(0 -1.8422403607843307 31.522776383381455)" stroke="none"><path fill="#1e1e1e" d="M 1.35,0.07 Q 1.35,0.07 1.23,2.08 1.12,4.08 0.98,5.78 0.83,7.49 0.56,9.54 0.30,11.58 0.07,14.51 -0.14,17.43 -0.24,18.92 -0.35,20.40 -0.51,23.15 -0.66,25.90 -0.73,28.69 -0.79,31.48 -0.82,34.32 -0.85,37.15 -0.85,39.89 -0.86,42.62 -0.98,45.81 -1.09,49.01 -1.29,51.78 -1.48,54.56 -1.87,58.07 -2.25,61.59 -2.30,61.80 -2.35,62.00 -2.47,62.18 -2.58,62.36 -2.74,62.50 -2.91,62.63 -3.11,62.71 -3.31,62.78 -3.52,62.79 -3.73,62.79 -3.94,62.73 -4.14,62.67 -4.31,62.55 -4.48,62.42 -4.61,62.25 -4.73,62.08 -4.80,61.88 -4.86,61.67 -4.86,61.46 -4.85,61.25 -4.78,61.05 -4.71,60.85 -4.57,60.68 -4.44,60.52 -4.26,60.40 -4.08,60.29 -3.88,60.23 -3.67,60.18 -3.46,60.20 -3.25,60.22 -3.05,60.30 -2.86,60.38 -2.70,60.52 -2.54,60.66 -2.43,60.85 -2.33,61.03 -2.29,61.24 -2.25,61.45 -2.28,61.66 -2.30,61.87 -2.40,62.06 -2.49,62.25 -2.64,62.40 -2.79,62.55 -2.98,62.65 -3.17,62.74 -3.38,62.77 -3.59,62.80 -3.80,62.76 -4.01,62.73 -4.19,62.62 -4.38,62.52 -4.52,62.36 -4.66,62.20 -4.75,62.01 -4.83,61.81 -4.85,61.60 -4.87,61.39 -4.87,61.39 -4.87,61.39 -4.71,57.88 -4.55,54.37 -4.41,51.63 -4.26,48.88 -4.14,45.75 -4.01,42.61 -3.99,39.86 -3.97,37.12 -3.94,34.26 -3.91,31.41 -3.83,28.56 -3.76,25.72 -3.59,22.95 -3.42,20.19 -3.32,18.68 -3.21,17.17 -2.94,14.15 -2.66,11.13 -2.32,9.17 -1.98,7.20 -1.78,5.56 -1.59,3.92 -1.47,1.92 -1.35,-0.07 -1.32,-0.24 -1.29,-0.40 -1.22,-0.54 -1.16,-0.69 -1.05,-0.82 -0.95,-0.95 -0.83,-1.05 -0.70,-1.15 -0.55,-1.22 -0.40,-1.29 -0.24,-1.32 -0.08,-1.35 0.07,-1.34 0.24,-1.33 0.39,-1.28 0.55,-1.23 0.69,-1.15 0.83,-1.06 0.94,-0.95 1.06,-0.83 1.14,-0.69 1.23,-0.55 1.28,-0.40 1.33,-0.24 1.34,-0.08 1.35,0.07 1.35,0.07 L 1.35,0.07 Z"></path></g><g transform="translate(38.24768553202671 151.20294365279813) rotate(0 12.486292655276486 -5.117331212139092)" stroke="none"><path fill="#1e1e1e" d="M -0.77,-1.08 Q -0.77,-1.08 -0.02,-1.77 0.72,-2.46 1.83,-3.44 2.94,-4.42 4.11,-5.76 5.29,-7.09 6.23,-7.83 7.18,-8.57 8.78,-9.64 10.38,-10.71 11.51,-10.98 12.63,-11.25 13.76,-10.91 14.89,-10.58 15.70,-9.79 16.51,-9.00 17.72,-7.45 18.93,-5.91 20.25,-4.71 21.57,-3.51 23.20,-2.85 24.83,-2.19 25.03,-2.11 25.23,-2.03 25.39,-1.89 25.55,-1.75 25.66,-1.57 25.77,-1.39 25.81,-1.18 25.85,-0.97 25.83,-0.76 25.81,-0.55 25.71,-0.36 25.62,-0.17 25.48,-0.01 25.33,0.13 25.14,0.23 24.95,0.33 24.74,0.36 24.53,0.39 24.32,0.36 24.11,0.32 23.93,0.22 23.74,0.12 23.60,-0.03 23.45,-0.18 23.36,-0.38 23.27,-0.57 23.25,-0.78 23.23,-0.99 23.28,-1.20 23.33,-1.41 23.44,-1.59 23.55,-1.77 23.71,-1.90 23.87,-2.04 24.07,-2.12 24.27,-2.20 24.48,-2.21 24.69,-2.22 24.90,-2.16 25.10,-2.10 25.28,-1.98 25.45,-1.86 25.58,-1.69 25.71,-1.52 25.77,-1.32 25.84,-1.11 25.84,-0.90 25.84,-0.69 25.77,-0.49 25.70,-0.29 25.57,-0.12 25.44,0.04 25.26,0.16 25.09,0.28 24.88,0.33 24.67,0.39 24.46,0.37 24.25,0.36 24.25,0.36 24.25,0.36 21.88,-0.14 19.51,-0.64 18.60,-1.34 17.68,-2.04 16.32,-3.66 14.96,-5.29 13.56,-6.58 12.15,-7.87 11.20,-7.25 10.24,-6.64 8.94,-5.76 7.63,-4.89 6.36,-3.49 5.10,-2.10 3.83,-0.99 2.56,0.10 1.67,0.59 0.77,1.08 0.63,1.16 0.49,1.24 0.33,1.28 0.18,1.32 0.02,1.32 -0.13,1.32 -0.29,1.29 -0.45,1.25 -0.59,1.18 -0.74,1.11 -0.86,1.00 -0.98,0.90 -1.07,0.77 -1.17,0.63 -1.23,0.48 -1.29,0.34 -1.31,0.18 -1.33,0.02 -1.31,-0.13 -1.30,-0.29 -1.24,-0.45 -1.19,-0.60 -1.10,-0.73 -1.01,-0.86 -0.89,-0.97 -0.77,-1.08 -0.77,-1.08 L -0.77,-1.08 Z"></path></g><g transform="translate(41.52278575350044 163.0751655579322) rotate(0 6.345491452662003 0.8187703703089255)" stroke="none"><path fill="#1e1e1e" d="M 0.28,-1.42 Q 0.28,-1.42 1.48,-1.31 2.68,-1.20 5.02,-0.89 7.36,-0.59 9.77,-0.15 12.17,0.28 12.38,0.33 12.59,0.38 12.77,0.49 12.95,0.60 13.08,0.76 13.22,0.93 13.30,1.13 13.37,1.32 13.38,1.54 13.39,1.75 13.33,1.95 13.27,2.16 13.15,2.33 13.03,2.51 12.86,2.63 12.69,2.76 12.49,2.83 12.29,2.89 12.08,2.89 11.86,2.89 11.66,2.82 11.46,2.75 11.29,2.62 11.13,2.49 11.01,2.31 10.89,2.13 10.84,1.93 10.78,1.72 10.79,1.51 10.81,1.30 10.89,1.10 10.97,0.91 11.11,0.75 11.25,0.59 11.43,0.48 11.61,0.37 11.82,0.33 12.03,0.28 12.24,0.31 12.45,0.33 12.64,0.42 12.84,0.51 12.99,0.66 13.14,0.81 13.24,1.00 13.34,1.19 13.37,1.40 13.40,1.61 13.37,1.82 13.33,2.03 13.23,2.21 13.13,2.40 12.97,2.54 12.81,2.69 12.62,2.78 12.43,2.86 12.22,2.88 12.00,2.91 12.00,2.91 12.00,2.91 9.44,2.89 6.87,2.87 4.44,2.51 2.01,2.14 0.86,1.78 -0.28,1.42 -0.45,1.36 -0.61,1.31 -0.76,1.21 -0.91,1.12 -1.03,1.00 -1.15,0.87 -1.24,0.72 -1.33,0.57 -1.38,0.40 -1.43,0.23 -1.43,0.06 -1.44,-0.11 -1.41,-0.28 -1.37,-0.45 -1.30,-0.61 -1.22,-0.77 -1.11,-0.90 -1.00,-1.04 -0.86,-1.14 -0.73,-1.25 -0.56,-1.32 -0.40,-1.39 -0.23,-1.42 -0.06,-1.44 0.11,-1.43 0.28,-1.42 0.28,-1.42 L 0.28,-1.42 Z"></path></g><g transform="translate(23.919143145846874 161.84700531740927) rotate(0 4.5032604619966605 1.8422309906653425)" stroke="none"><path fill="#1e1e1e" d="M -0.73,-1.22 Q -0.73,-1.22 0.38,-2.02 1.51,-2.81 2.97,-3.70 4.43,-4.60 5.60,-5.11 6.77,-5.62 8.16,-5.53 9.55,-5.43 10.07,-3.75 10.59,-2.06 10.31,-0.41 10.04,1.23 9.19,4.48 8.35,7.73 8.28,7.93 8.22,8.13 8.09,8.30 7.97,8.48 7.79,8.60 7.62,8.72 7.42,8.78 7.21,8.84 7.00,8.83 6.79,8.83 6.59,8.75 6.39,8.68 6.23,8.54 6.06,8.41 5.95,8.23 5.84,8.05 5.79,7.84 5.74,7.64 5.76,7.42 5.78,7.21 5.86,7.02 5.95,6.82 6.09,6.67 6.23,6.51 6.42,6.41 6.61,6.30 6.81,6.26 7.02,6.23 7.23,6.26 7.44,6.29 7.63,6.38 7.82,6.48 7.97,6.63 8.12,6.78 8.21,6.97 8.31,7.17 8.33,7.38 8.36,7.59 8.32,7.79 8.28,8.00 8.17,8.19 8.06,8.37 7.90,8.51 7.75,8.65 7.55,8.73 7.35,8.82 7.14,8.83 6.93,8.85 6.72,8.79 6.52,8.74 6.34,8.63 6.16,8.51 6.03,8.34 5.90,8.18 5.83,7.98 5.76,7.78 5.75,7.56 5.75,7.35 5.75,7.35 5.75,7.35 6.02,3.98 6.29,0.60 7.32,-1.04 8.34,-2.69 7.20,-2.22 6.07,-1.74 4.63,-0.87 3.19,-0.00 1.96,0.60 0.73,1.22 0.57,1.29 0.42,1.36 0.25,1.39 0.08,1.42 -0.09,1.41 -0.26,1.40 -0.42,1.35 -0.59,1.30 -0.73,1.21 -0.88,1.12 -1.00,1.00 -1.13,0.87 -1.21,0.73 -1.30,0.58 -1.35,0.41 -1.40,0.25 -1.41,0.08 -1.42,-0.09 -1.39,-0.26 -1.36,-0.43 -1.29,-0.58 -1.22,-0.74 -1.11,-0.88 -1.00,-1.01 -0.87,-1.12 -0.73,-1.22 -0.73,-1.22 L -0.73,-1.22 Z"></path></g><g transform="translate(40.70400601307256 205.24199423580578) rotate(0 4.7079507120441235 -0.8187703703089255)" stroke="none"><path fill="#1e1e1e" d="M -0.60,-1.21 Q -0.60,-1.21 0.03,-1.71 0.67,-2.21 2.49,-2.51 4.32,-2.81 6.65,-2.86 8.97,-2.90 9.18,-2.89 9.40,-2.88 9.59,-2.81 9.79,-2.73 9.96,-2.60 10.12,-2.46 10.23,-2.28 10.35,-2.10 10.40,-1.90 10.44,-1.69 10.42,-1.48 10.40,-1.27 10.32,-1.07 10.23,-0.88 10.09,-0.72 9.95,-0.57 9.76,-0.46 9.57,-0.36 9.36,-0.32 9.15,-0.28 8.94,-0.32 8.73,-0.35 8.54,-0.44 8.36,-0.54 8.21,-0.69 8.06,-0.84 7.97,-1.04 7.87,-1.23 7.85,-1.44 7.82,-1.65 7.86,-1.86 7.91,-2.07 8.01,-2.25 8.12,-2.43 8.28,-2.57 8.44,-2.71 8.64,-2.79 8.83,-2.88 9.04,-2.89 9.26,-2.91 9.46,-2.85 9.67,-2.80 9.84,-2.68 10.02,-2.57 10.15,-2.40 10.28,-2.23 10.36,-2.03 10.43,-1.83 10.43,-1.62 10.43,-1.41 10.37,-1.20 10.30,-1.00 10.18,-0.83 10.05,-0.66 9.88,-0.54 9.70,-0.41 9.50,-0.35 9.30,-0.29 9.30,-0.29 9.30,-0.29 6.93,0.12 4.57,0.55 3.36,0.67 2.15,0.80 1.38,1.01 0.60,1.21 0.45,1.27 0.29,1.32 0.13,1.34 -0.02,1.36 -0.18,1.33 -0.35,1.31 -0.50,1.25 -0.65,1.19 -0.78,1.09 -0.92,1.00 -1.02,0.87 -1.13,0.75 -1.20,0.60 -1.28,0.45 -1.31,0.29 -1.35,0.13 -1.35,-0.02 -1.34,-0.19 -1.30,-0.34 -1.26,-0.50 -1.18,-0.65 -1.10,-0.79 -0.99,-0.91 -0.88,-1.03 -0.74,-1.12 -0.60,-1.21 -0.60,-1.21 L -0.60,-1.21 Z"></path></g><g transform="translate(33.74442507003005 197.4636522925734) rotate(0 2.842170943040401e-14 8.801811933707796)" stroke="none"><path fill="#1e1e1e" d="M 0.55,1.28 Q 0.55,1.28 -0.16,1.71 -0.87,2.15 -1.28,4.28 -1.68,6.42 -1.71,9.17 -1.74,11.93 -1.51,13.29 -1.28,14.66 -0.58,13.27 0.10,11.88 0.52,10.85 0.93,9.82 1.25,8.19 1.58,6.55 0.33,5.65 -0.90,4.76 -1.05,4.91 -1.21,5.06 -1.40,5.15 -1.59,5.24 -1.80,5.27 -2.01,5.30 -2.22,5.26 -2.43,5.22 -2.61,5.11 -2.79,5.01 -2.94,4.85 -3.08,4.69 -3.16,4.49 -3.24,4.30 -3.26,4.08 -3.28,3.87 -3.22,3.67 -3.17,3.46 -3.06,3.28 -2.94,3.10 -2.77,2.97 -2.61,2.84 -2.41,2.77 -2.21,2.69 -2.00,2.69 -1.78,2.68 -1.58,2.75 -1.38,2.81 -1.21,2.94 -1.03,3.06 -0.91,3.23 -0.79,3.41 -0.73,3.61 -0.66,3.81 -0.67,4.03 -0.68,4.24 -0.75,4.44 -0.83,4.64 -0.96,4.80 -1.09,4.97 -1.27,5.08 -1.45,5.19 -1.66,5.24 -1.87,5.29 -2.08,5.28 -2.29,5.26 -2.48,5.17 -2.68,5.09 -2.84,4.95 -2.99,4.80 -3.10,4.62 -3.20,4.43 -3.24,4.22 -3.28,4.01 -3.25,3.80 -3.22,3.59 -3.13,3.40 -3.03,3.21 -3.03,3.21 -3.03,3.21 -0.59,2.40 1.84,1.59 2.83,2.21 3.81,2.83 4.41,3.77 5.01,4.71 5.20,5.84 5.39,6.97 4.84,9.12 4.28,11.27 3.79,12.33 3.30,13.39 2.59,14.69 1.87,15.99 0.10,16.92 -1.65,17.85 -3.03,16.58 -4.41,15.30 -4.71,13.68 -5.01,12.06 -5.09,10.09 -5.16,8.12 -5.05,7.05 -4.94,5.99 -4.58,3.77 -4.21,1.56 -3.31,0.40 -2.42,-0.74 -1.48,-1.01 -0.55,-1.28 -0.38,-1.33 -0.22,-1.37 -0.05,-1.38 0.10,-1.39 0.27,-1.36 0.44,-1.32 0.59,-1.25 0.74,-1.18 0.87,-1.07 1.00,-0.97 1.10,-0.83 1.20,-0.70 1.27,-0.54 1.34,-0.39 1.36,-0.22 1.39,-0.05 1.38,0.10 1.37,0.27 1.31,0.43 1.26,0.59 1.17,0.73 1.08,0.88 0.96,0.99 0.84,1.11 0.69,1.20 0.55,1.28 0.55,1.28 L 0.55,1.28 Z"></path></g><g transform="translate(44.38848673464122 208.51709445727954) rotate(0 -0.8187703703089255 10.848742544539618)" stroke="none"><path fill="#1e1e1e" d="M 1.34,0.11 Q 1.34,0.11 1.33,1.53 1.32,2.95 1.27,4.45 1.23,5.95 1.21,7.19 1.19,8.42 0.94,10.74 0.70,13.06 0.61,14.38 0.52,15.69 0.36,17.02 0.20,18.34 0.13,20.02 0.07,21.71 0.04,21.92 0.01,22.13 -0.07,22.32 -0.16,22.51 -0.31,22.66 -0.46,22.81 -0.65,22.91 -0.84,23.01 -1.05,23.04 -1.26,23.07 -1.47,23.03 -1.68,22.99 -1.86,22.89 -2.05,22.79 -2.19,22.63 -2.34,22.48 -2.42,22.28 -2.51,22.09 -2.53,21.88 -2.55,21.66 -2.50,21.46 -2.45,21.25 -2.34,21.07 -2.22,20.89 -2.06,20.75 -1.90,20.62 -1.70,20.54 -1.50,20.47 -1.29,20.46 -1.07,20.45 -0.87,20.51 -0.67,20.57 -0.49,20.70 -0.32,20.82 -0.19,20.99 -0.07,21.16 -0.00,21.36 0.05,21.56 0.05,21.78 0.05,21.99 -0.02,22.19 -0.09,22.39 -0.22,22.56 -0.35,22.72 -0.53,22.84 -0.70,22.96 -0.91,23.01 -1.12,23.06 -1.33,23.05 -1.54,23.03 -1.74,22.95 -1.93,22.87 -2.09,22.73 -2.25,22.59 -2.36,22.41 -2.46,22.22 -2.51,22.01 -2.55,21.81 -2.55,21.81 -2.55,21.81 -2.77,19.88 -3.00,17.95 -2.84,16.70 -2.68,15.45 -2.56,14.02 -2.45,12.58 -2.20,10.47 -1.95,8.36 -1.92,7.11 -1.90,5.85 -1.84,4.27 -1.79,2.69 -1.57,1.29 -1.34,-0.11 -1.31,-0.27 -1.28,-0.43 -1.21,-0.57 -1.14,-0.72 -1.03,-0.85 -0.93,-0.97 -0.80,-1.07 -0.67,-1.17 -0.52,-1.23 -0.37,-1.30 -0.21,-1.32 -0.05,-1.35 0.11,-1.33 0.27,-1.32 0.42,-1.27 0.58,-1.22 0.72,-1.13 0.85,-1.04 0.97,-0.92 1.08,-0.81 1.16,-0.66 1.24,-0.52 1.29,-0.37 1.33,-0.21 1.34,-0.05 1.34,0.11 1.34,0.11 L 1.34,0.11 Z"></path></g><g transform="translate(21.87222190513404 217.93297714112975) rotate(0 72.25675457068468 -3.47978110140221)" stroke="none"><path fill="#1e1e1e" d="M 0.11,-1.37 Q 0.11,-1.37 1.53,-1.34 2.95,-1.31 4.11,-1.26 5.26,-1.20 7.22,-1.17 9.17,-1.14 10.30,-1.15 11.43,-1.16 13.03,-1.04 14.62,-0.92 16.53,-0.88 18.44,-0.84 20.39,-0.95 22.34,-1.06 24.82,-1.22 27.31,-1.39 30.34,-1.72 33.37,-2.05 36.42,-2.42 39.47,-2.79 43.38,-3.19 47.29,-3.59 51.23,-3.76 55.17,-3.93 59.32,-4.00 63.46,-4.07 68.44,-3.87 73.43,-3.66 78.02,-3.34 82.61,-3.01 86.90,-2.76 91.18,-2.51 95.54,-2.52 99.90,-2.53 104.76,-3.01 109.61,-3.49 113.97,-4.40 118.33,-5.32 122.30,-6.30 126.28,-7.29 130.05,-7.91 133.82,-8.54 138.33,-8.72 142.85,-8.91 143.06,-8.89 143.27,-8.88 143.47,-8.79 143.67,-8.71 143.83,-8.57 143.98,-8.43 144.09,-8.25 144.20,-8.06 144.24,-7.85 144.28,-7.65 144.25,-7.43 144.23,-7.22 144.13,-7.03 144.04,-6.84 143.89,-6.69 143.74,-6.54 143.55,-6.44 143.36,-6.35 143.15,-6.32 142.94,-6.29 142.73,-6.33 142.52,-6.36 142.34,-6.47 142.15,-6.57 142.01,-6.73 141.87,-6.88 141.78,-7.08 141.70,-7.27 141.68,-7.49 141.66,-7.70 141.71,-7.90 141.76,-8.11 141.87,-8.29 141.98,-8.47 142.15,-8.60 142.31,-8.74 142.51,-8.81 142.71,-8.89 142.92,-8.90 143.14,-8.90 143.34,-8.84 143.54,-8.78 143.72,-8.66 143.89,-8.54 144.01,-8.36 144.14,-8.19 144.20,-7.99 144.27,-7.79 144.26,-7.57 144.26,-7.36 144.19,-7.16 144.12,-6.96 143.98,-6.80 143.85,-6.63 143.67,-6.51 143.49,-6.40 143.29,-6.34 143.08,-6.29 143.08,-6.29 143.08,-6.29 138.75,-5.69 134.42,-5.09 130.78,-4.41 127.14,-3.74 123.09,-2.78 119.04,-1.81 114.50,-0.91 109.95,-0.01 104.93,0.45 99.91,0.92 95.45,0.93 90.98,0.94 86.67,0.68 82.37,0.42 77.83,0.10 73.28,-0.21 68.40,-0.42 63.52,-0.62 59.42,-0.55 55.32,-0.49 51.47,-0.32 47.63,-0.16 43.75,0.21 39.88,0.60 36.79,0.95 33.71,1.31 30.61,1.58 27.52,1.86 25.00,2.01 22.49,2.16 20.42,2.24 18.36,2.33 16.37,2.27 14.38,2.21 12.90,2.09 11.42,1.97 10.28,1.95 9.14,1.93 7.14,1.90 5.13,1.87 3.91,1.83 2.69,1.78 1.29,1.57 -0.11,1.37 -0.27,1.33 -0.43,1.30 -0.58,1.23 -0.73,1.16 -0.86,1.05 -0.99,0.95 -1.09,0.81 -1.19,0.68 -1.25,0.53 -1.32,0.37 -1.34,0.21 -1.37,0.05 -1.36,-0.11 -1.34,-0.27 -1.29,-0.43 -1.24,-0.59 -1.15,-0.73 -1.06,-0.87 -0.94,-0.98 -0.82,-1.10 -0.68,-1.18 -0.53,-1.26 -0.37,-1.31 -0.21,-1.35 -0.05,-1.36 0.11,-1.37 0.11,-1.37 L 0.11,-1.37 Z"></path></g><g transform="translate(166.62568464380206 203.81646310648273) rotate(0 -0.42261334608417656 9.297648381842976)" stroke="none"><path fill="#1e1e1e" d="M -0.75,1.12 Q -0.75,1.12 -1.54,0.73 -2.32,0.33 -3.01,0.00 -3.70,-0.33 -3.84,-0.47 -3.99,-0.61 -4.09,-0.78 -4.20,-0.95 -4.26,-1.14 -4.33,-1.33 -4.34,-1.53 -4.36,-1.74 -4.32,-1.94 -4.29,-2.13 -4.21,-2.32 -4.13,-2.51 -4.01,-2.67 -3.88,-2.83 -3.73,-2.95 -3.57,-3.08 -3.39,-3.17 -3.20,-3.25 -3.01,-3.29 -2.81,-3.33 -2.61,-3.32 -2.40,-3.31 -2.21,-3.25 -2.02,-3.20 -1.84,-3.09 -1.67,-2.99 -0.44,-2.28 0.79,-1.57 2.59,-1.15 4.39,-0.74 6.04,-0.28 7.68,0.16 8.39,1.51 9.09,2.86 8.52,3.79 7.94,4.71 6.89,5.80 5.84,6.88 3.91,8.95 1.97,11.02 0.47,12.70 -1.03,14.38 -2.42,15.84 -3.81,17.30 -5.65,19.20 -7.49,21.10 -7.65,21.24 -7.81,21.38 -8.01,21.46 -8.20,21.54 -8.42,21.55 -8.63,21.56 -8.83,21.51 -9.04,21.45 -9.22,21.34 -9.39,21.22 -9.52,21.05 -9.65,20.88 -9.72,20.68 -9.79,20.48 -9.79,20.27 -9.79,20.05 -9.73,19.85 -9.66,19.65 -9.53,19.48 -9.41,19.31 -9.23,19.19 -9.06,19.07 -8.85,19.01 -8.65,18.95 -8.44,18.96 -8.22,18.97 -8.03,19.05 -7.83,19.13 -7.67,19.26 -7.50,19.40 -7.39,19.58 -7.28,19.76 -7.23,19.97 -7.19,20.18 -7.21,20.39 -7.23,20.60 -7.32,20.79 -7.40,20.99 -7.55,21.14 -7.69,21.30 -7.88,21.40 -8.07,21.50 -8.28,21.53 -8.49,21.57 -8.70,21.54 -8.91,21.50 -9.10,21.41 -9.28,21.31 -9.43,21.16 -9.58,21.00 -9.67,20.81 -9.76,20.62 -9.78,20.41 -9.81,20.20 -9.76,19.99 -9.72,19.78 -9.61,19.60 -9.50,19.41 -9.50,19.41 -9.50,19.41 -8.00,17.09 -6.49,14.76 -5.14,13.33 -3.79,11.91 -2.27,10.21 -0.75,8.52 0.54,7.10 1.84,5.68 3.05,4.49 4.27,3.30 5.39,3.36 6.51,3.42 5.07,3.02 3.64,2.62 1.62,2.12 -0.39,1.62 -2.04,0.64 -3.70,-0.33 -3.84,-0.47 -3.99,-0.61 -4.09,-0.78 -4.20,-0.95 -4.26,-1.14 -4.33,-1.33 -4.34,-1.53 -4.36,-1.74 -4.32,-1.94 -4.29,-2.13 -4.21,-2.32 -4.13,-2.51 -4.01,-2.67 -3.88,-2.83 -3.73,-2.95 -3.57,-3.08 -3.39,-3.17 -3.20,-3.25 -3.01,-3.29 -2.81,-3.33 -2.61,-3.32 -2.40,-3.31 -2.21,-3.25 -2.02,-3.20 -1.84,-3.09 -1.67,-2.99 -1.12,-2.63 -0.58,-2.27 0.08,-1.70 0.75,-1.12 0.87,-1.02 0.99,-0.91 1.09,-0.78 1.18,-0.64 1.24,-0.49 1.30,-0.34 1.33,-0.18 1.35,-0.02 1.33,0.14 1.31,0.30 1.26,0.45 1.20,0.60 1.11,0.74 1.02,0.88 0.90,0.99 0.78,1.10 0.64,1.18 0.50,1.25 0.34,1.29 0.18,1.34 0.02,1.34 -0.14,1.34 -0.30,1.31 -0.45,1.27 -0.60,1.20 -0.75,1.12 -0.75,1.12 L -0.75,1.12 Z"></path></g><g transform="translate(194.51859109733306 202.12599037614717) rotate(0 -2.535718768502818 11.62204113130477)" stroke="none"><path fill="#1e1e1e" d="M 1.36,0.34 Q 1.36,0.34 1.22,1.85 1.09,3.37 0.68,4.75 0.28,6.14 -0.00,7.18 -0.28,8.23 -1.01,11.09 -1.73,13.95 -2.17,15.45 -2.61,16.95 -2.76,18.39 -2.91,19.83 -2.98,21.20 -3.04,22.57 -3.02,22.78 -3.00,22.99 -3.04,23.20 -3.09,23.41 -3.20,23.59 -3.31,23.77 -3.47,23.91 -3.64,24.05 -3.83,24.12 -4.03,24.20 -4.24,24.21 -4.46,24.22 -4.66,24.16 -4.87,24.11 -5.04,23.99 -5.22,23.87 -5.34,23.70 -5.47,23.53 -5.54,23.33 -5.61,23.12 -5.61,22.91 -5.60,22.70 -5.54,22.50 -5.47,22.30 -5.34,22.13 -5.21,21.96 -5.03,21.84 -4.86,21.72 -4.65,21.67 -4.45,21.61 -4.23,21.62 -4.02,21.64 -3.82,21.72 -3.63,21.79 -3.47,21.93 -3.30,22.07 -3.20,22.25 -3.09,22.44 -3.04,22.64 -3.00,22.85 -3.02,23.06 -3.05,23.27 -3.14,23.47 -3.23,23.66 -3.37,23.81 -3.52,23.97 -3.71,24.06 -3.90,24.16 -4.11,24.20 -4.32,24.23 -4.52,24.19 -4.73,24.16 -4.92,24.06 -5.11,23.96 -5.25,23.80 -5.40,23.65 -5.49,23.46 -5.58,23.26 -5.58,23.26 -5.58,23.26 -6.13,21.33 -6.67,19.40 -6.46,17.65 -6.24,15.89 -5.82,14.46 -5.40,13.02 -4.66,10.12 -3.92,7.23 -3.62,6.15 -3.33,5.07 -2.94,3.77 -2.55,2.46 -1.95,1.06 -1.36,-0.34 -1.29,-0.49 -1.23,-0.65 -1.14,-0.79 -1.04,-0.93 -0.91,-1.04 -0.79,-1.15 -0.64,-1.23 -0.49,-1.31 -0.32,-1.35 -0.16,-1.39 0.00,-1.39 0.17,-1.39 0.33,-1.35 0.50,-1.30 0.65,-1.23 0.80,-1.15 0.92,-1.03 1.05,-0.92 1.14,-0.78 1.24,-0.64 1.30,-0.48 1.36,-0.33 1.38,-0.16 1.40,0.00 1.38,0.17 1.36,0.34 1.36,0.34 L 1.36,0.34 Z"></path></g><g transform="translate(186.9114347918246 210.57839271982286) rotate(0 7.8184726515500245 0.6339296921257187)" stroke="none"><path fill="#1e1e1e" d="M 0.09,-1.36 Q 0.09,-1.36 1.81,-1.41 3.52,-1.46 4.79,-1.29 6.06,-1.11 7.23,-1.06 8.40,-1.00 9.63,-0.97 10.86,-0.95 12.87,-0.53 14.89,-0.12 15.09,-0.06 15.30,-0.01 15.48,0.10 15.65,0.21 15.78,0.38 15.92,0.55 15.99,0.75 16.06,0.95 16.06,1.16 16.06,1.38 15.99,1.58 15.93,1.78 15.80,1.95 15.68,2.12 15.50,2.24 15.33,2.36 15.12,2.42 14.92,2.48 14.71,2.47 14.49,2.46 14.30,2.39 14.10,2.31 13.93,2.18 13.77,2.04 13.66,1.86 13.55,1.68 13.50,1.47 13.45,1.26 13.47,1.05 13.49,0.84 13.58,0.65 13.67,0.45 13.81,0.30 13.96,0.14 14.14,0.04 14.33,-0.05 14.54,-0.09 14.75,-0.13 14.96,-0.09 15.17,-0.06 15.36,0.03 15.55,0.12 15.69,0.28 15.84,0.43 15.93,0.62 16.02,0.81 16.05,1.02 16.07,1.23 16.03,1.44 15.99,1.65 15.88,1.83 15.77,2.02 15.61,2.16 15.45,2.30 15.25,2.38 15.06,2.46 14.85,2.47 14.63,2.49 14.63,2.49 14.63,2.49 12.70,2.52 10.77,2.55 9.48,2.51 8.20,2.47 6.88,2.38 5.57,2.29 4.42,2.12 3.27,1.95 1.59,1.65 -0.09,1.36 -0.25,1.33 -0.42,1.29 -0.56,1.22 -0.71,1.16 -0.84,1.05 -0.97,0.95 -1.07,0.82 -1.17,0.69 -1.24,0.54 -1.30,0.39 -1.33,0.22 -1.36,0.06 -1.35,-0.09 -1.34,-0.26 -1.28,-0.41 -1.23,-0.57 -1.15,-0.71 -1.06,-0.85 -0.94,-0.96 -0.83,-1.08 -0.68,-1.16 -0.54,-1.25 -0.38,-1.29 -0.23,-1.34 -0.06,-1.35 0.09,-1.36 0.09,-1.36 L 0.09,-1.36 Z"></path></g><g transform="translate(107.45892627606878 210.57839271982286) rotate(0 -0.4226230190836304 7.818453305551117)" stroke="none"><path fill="#1e1e1e" d="M 1.38,0.09 Q 1.38,0.09 1.43,1.92 1.48,3.76 1.44,5.23 1.39,6.71 1.25,8.60 1.11,10.49 0.79,13.03 0.48,15.57 0.44,15.78 0.40,15.99 0.29,16.17 0.19,16.36 0.03,16.50 -0.12,16.64 -0.32,16.72 -0.51,16.80 -0.72,16.82 -0.94,16.84 -1.14,16.79 -1.35,16.73 -1.53,16.62 -1.70,16.50 -1.84,16.34 -1.97,16.17 -2.04,15.97 -2.11,15.77 -2.12,15.56 -2.12,15.35 -2.06,15.14 -2.00,14.94 -1.87,14.77 -1.75,14.60 -1.58,14.47 -1.40,14.35 -1.20,14.29 -1.00,14.23 -0.78,14.23 -0.57,14.24 -0.37,14.31 -0.17,14.39 -0.01,14.52 0.15,14.66 0.26,14.84 0.37,15.02 0.43,15.22 0.48,15.43 0.46,15.64 0.44,15.85 0.35,16.05 0.27,16.24 0.13,16.40 -0.01,16.56 -0.19,16.66 -0.38,16.76 -0.59,16.80 -0.79,16.84 -1.00,16.81 -1.21,16.78 -1.40,16.69 -1.59,16.59 -1.74,16.44 -1.89,16.29 -1.99,16.10 -2.08,15.91 -2.11,15.70 -2.14,15.49 -2.14,15.49 -2.14,15.49 -2.26,12.85 -2.37,10.22 -2.23,8.40 -2.08,6.59 -2.03,5.06 -1.97,3.52 -1.68,1.71 -1.38,-0.09 -1.35,-0.25 -1.32,-0.42 -1.25,-0.57 -1.18,-0.72 -1.07,-0.85 -0.97,-0.98 -0.84,-1.08 -0.71,-1.19 -0.55,-1.25 -0.40,-1.32 -0.23,-1.35 -0.07,-1.38 0.09,-1.37 0.25,-1.36 0.41,-1.31 0.57,-1.26 0.71,-1.17 0.86,-1.08 0.98,-0.96 1.09,-0.84 1.18,-0.70 1.26,-0.56 1.31,-0.40 1.36,-0.24 1.37,-0.07 1.38,0.09 1.38,0.09 L 1.38,0.09 Z"></path></g><g transform="translate(95.62555912572299 233.82249432843133) rotate(0 -1.0565430382098668 7.39583995946694)" stroke="none"><path fill="#1e1e1e" d="M 1.27,0.56 Q 1.27,0.56 0.96,1.72 0.65,2.89 0.43,5.26 0.21,7.63 0.02,9.04 -0.15,10.45 -0.46,12.38 -0.78,14.31 -0.82,14.52 -0.86,14.72 -0.97,14.91 -1.07,15.09 -1.23,15.23 -1.39,15.37 -1.59,15.46 -1.78,15.54 -1.99,15.55 -2.21,15.57 -2.41,15.52 -2.62,15.46 -2.80,15.35 -2.97,15.23 -3.11,15.07 -3.24,14.90 -3.31,14.70 -3.38,14.50 -3.39,14.29 -3.39,14.08 -3.33,13.87 -3.26,13.67 -3.14,13.50 -3.01,13.33 -2.84,13.20 -2.66,13.08 -2.46,13.02 -2.26,12.96 -2.05,12.97 -1.83,12.97 -1.63,13.05 -1.44,13.12 -1.27,13.26 -1.11,13.39 -0.99,13.57 -0.88,13.75 -0.83,13.96 -0.78,14.17 -0.80,14.38 -0.82,14.59 -0.90,14.78 -0.99,14.98 -1.13,15.14 -1.27,15.29 -1.46,15.40 -1.65,15.50 -1.86,15.54 -2.06,15.58 -2.27,15.55 -2.49,15.51 -2.67,15.42 -2.86,15.32 -3.01,15.17 -3.16,15.02 -3.26,14.83 -3.35,14.64 -3.38,14.43 -3.40,14.22 -3.40,14.22 -3.40,14.22 -3.50,12.13 -3.60,10.04 -3.46,8.73 -3.33,7.42 -3.23,5.85 -3.13,4.27 -2.86,2.87 -2.59,1.47 -1.93,0.45 -1.27,-0.56 -1.18,-0.70 -1.09,-0.85 -0.98,-0.97 -0.86,-1.09 -0.71,-1.17 -0.57,-1.26 -0.41,-1.31 -0.25,-1.36 -0.08,-1.37 0.07,-1.38 0.24,-1.35 0.40,-1.33 0.56,-1.26 0.71,-1.19 0.84,-1.09 0.97,-0.98 1.08,-0.85 1.18,-0.72 1.25,-0.57 1.32,-0.41 1.35,-0.25 1.38,-0.09 1.37,0.07 1.36,0.24 1.32,0.40 1.27,0.56 1.27,0.56 L 1.27,0.56 Z"></path></g><g transform="translate(92.24461366505182 240.1617912496884) rotate(0 5.705357556131901 -1.0565623842087746)" stroke="none"><path fill="#1e1e1e" d="M -0.14,-1.47 Q -0.14,-1.47 1.05,-1.71 2.25,-1.95 4.03,-2.15 5.81,-2.35 8.35,-2.78 10.89,-3.22 11.10,-3.24 11.31,-3.26 11.52,-3.21 11.72,-3.16 11.90,-3.05 12.08,-2.93 12.21,-2.77 12.35,-2.60 12.42,-2.40 12.50,-2.20 12.50,-1.99 12.51,-1.78 12.45,-1.58 12.39,-1.37 12.27,-1.20 12.14,-1.03 11.97,-0.90 11.80,-0.78 11.60,-0.71 11.39,-0.65 11.18,-0.65 10.97,-0.66 10.77,-0.73 10.57,-0.80 10.40,-0.94 10.24,-1.07 10.12,-1.25 10.01,-1.43 9.95,-1.63 9.90,-1.84 9.92,-2.05 9.93,-2.26 10.02,-2.46 10.10,-2.65 10.24,-2.81 10.38,-2.97 10.57,-3.08 10.75,-3.18 10.96,-3.22 11.17,-3.26 11.38,-3.24 11.59,-3.21 11.78,-3.11 11.97,-3.02 12.12,-2.87 12.27,-2.72 12.37,-2.53 12.46,-2.34 12.49,-2.13 12.52,-1.92 12.48,-1.71 12.44,-1.50 12.34,-1.32 12.24,-1.13 12.08,-0.99 11.92,-0.85 11.73,-0.76 11.53,-0.68 11.53,-0.68 11.53,-0.68 8.91,0.20 6.28,1.08 4.44,1.27 2.60,1.46 1.37,1.46 0.14,1.47 -0.03,1.46 -0.20,1.46 -0.38,1.41 -0.55,1.37 -0.70,1.28 -0.86,1.19 -0.99,1.07 -1.12,0.95 -1.22,0.80 -1.32,0.65 -1.38,0.49 -1.44,0.32 -1.46,0.14 -1.47,-0.03 -1.45,-0.20 -1.42,-0.38 -1.36,-0.54 -1.29,-0.71 -1.19,-0.85 -1.08,-1.00 -0.95,-1.11 -0.81,-1.23 -0.65,-1.31 -0.49,-1.39 -0.32,-1.43 -0.14,-1.47 -0.14,-1.47 L -0.14,-1.47 Z"></path></g><g transform="translate(107.0362935839857 243.54273671035958) rotate(0 1.4791757302929511 3.3809648066700504)" stroke="none"><path fill="#1e1e1e" d="M 1.30,0.47 Q 1.30,0.47 0.96,1.86 0.62,3.25 0.18,4.53 -0.26,5.82 -0.69,7.09 -1.12,8.37 -1.38,9.03 -1.64,9.68 -1.72,9.87 -1.80,10.06 -1.92,10.22 -2.04,10.38 -2.19,10.51 -2.35,10.64 -2.53,10.73 -2.71,10.82 -2.91,10.86 -3.11,10.91 -3.31,10.90 -3.51,10.89 -3.71,10.84 -3.90,10.79 -4.08,10.69 -4.25,10.59 -4.40,10.45 -4.55,10.31 -4.66,10.14 -4.77,9.97 -4.84,9.78 -4.90,9.59 -4.92,9.39 -4.94,9.19 -4.91,8.99 -4.88,8.79 -4.52,7.04 -4.17,5.30 -2.93,2.56 -1.69,-0.16 -0.38,-1.55 0.92,-2.93 2.41,-3.49 3.89,-4.04 5.17,-3.55 6.46,-3.05 7.07,-1.81 7.67,-0.56 7.84,0.97 8.01,2.50 7.96,3.70 7.90,4.90 7.33,7.31 6.77,9.71 6.75,9.93 6.74,10.14 6.65,10.33 6.57,10.53 6.43,10.69 6.29,10.85 6.10,10.95 5.92,11.06 5.71,11.10 5.50,11.14 5.29,11.11 5.08,11.08 4.89,10.99 4.70,10.90 4.55,10.75 4.40,10.60 4.30,10.41 4.21,10.22 4.18,10.01 4.15,9.80 4.19,9.59 4.23,9.38 4.33,9.19 4.44,9.01 4.59,8.86 4.75,8.72 4.95,8.64 5.14,8.55 5.35,8.53 5.56,8.52 5.77,8.57 5.98,8.62 6.16,8.73 6.34,8.84 6.47,9.01 6.60,9.17 6.68,9.37 6.75,9.57 6.76,9.79 6.76,10.00 6.70,10.20 6.64,10.40 6.52,10.58 6.39,10.75 6.22,10.88 6.05,11.00 5.85,11.06 5.64,11.13 5.43,11.12 5.22,11.12 5.02,11.04 4.82,10.97 4.65,10.84 4.49,10.71 4.37,10.53 4.26,10.35 4.21,10.14 4.15,9.94 4.15,9.94 4.15,9.94 4.00,8.14 3.85,6.34 4.08,4.58 4.31,2.82 3.81,1.21 3.32,-0.40 2.36,0.53 1.41,1.46 0.26,3.83 -0.88,6.19 -1.26,7.94 -1.64,9.68 -1.72,9.87 -1.80,10.06 -1.92,10.22 -2.04,10.38 -2.19,10.51 -2.35,10.64 -2.53,10.73 -2.71,10.82 -2.91,10.86 -3.11,10.91 -3.31,10.90 -3.51,10.89 -3.71,10.84 -3.90,10.79 -4.08,10.69 -4.25,10.59 -4.40,10.45 -4.55,10.31 -4.66,10.14 -4.77,9.97 -4.84,9.78 -4.90,9.59 -4.92,9.39 -4.94,9.19 -4.91,8.99 -4.88,8.79 -4.61,8.03 -4.35,7.28 -3.91,5.99 -3.47,4.71 -3.02,3.40 -2.57,2.09 -1.94,0.80 -1.30,-0.47 -1.23,-0.62 -1.15,-0.77 -1.04,-0.90 -0.93,-1.02 -0.80,-1.12 -0.66,-1.22 -0.50,-1.28 -0.35,-1.34 -0.18,-1.36 -0.01,-1.39 0.14,-1.37 0.31,-1.35 0.47,-1.29 0.62,-1.24 0.76,-1.14 0.90,-1.05 1.02,-0.92 1.13,-0.80 1.21,-0.65 1.29,-0.51 1.33,-0.34 1.37,-0.18 1.38,-0.01 1.38,0.14 1.34,0.31 1.30,0.47 1.30,0.47 L 1.30,0.47 Z"></path></g><g transform="translate(60.97074240485074 201.703377030063) rotate(0 24.0893283007768 -1.0565527112093207)" stroke="none"><path fill="#1971c2" d="M -0.38,-1.29 Q -0.38,-1.29 0.81,-1.69 2.02,-2.08 3.17,-2.41 4.31,-2.74 5.69,-3.02 7.06,-3.29 9.59,-3.31 12.12,-3.32 13.49,-3.32 14.87,-3.32 16.14,-3.19 17.42,-3.06 19.14,-2.89 20.86,-2.72 22.85,-2.40 24.85,-2.08 26.58,-1.96 28.31,-1.84 30.07,-1.66 31.83,-1.48 33.37,-1.41 34.91,-1.34 36.75,-1.68 38.59,-2.01 39.97,-2.39 41.35,-2.77 42.76,-3.00 44.16,-3.23 45.69,-3.45 47.21,-3.66 47.43,-3.67 47.64,-3.69 47.84,-3.63 48.05,-3.57 48.23,-3.46 48.40,-3.34 48.53,-3.17 48.66,-3.00 48.73,-2.80 48.80,-2.60 48.80,-2.39 48.81,-2.18 48.74,-1.97 48.67,-1.77 48.55,-1.60 48.42,-1.43 48.24,-1.31 48.07,-1.19 47.86,-1.13 47.66,-1.07 47.45,-1.08 47.24,-1.09 47.04,-1.17 46.84,-1.25 46.68,-1.38 46.51,-1.52 46.40,-1.70 46.29,-1.88 46.24,-2.09 46.20,-2.30 46.22,-2.51 46.24,-2.72 46.33,-2.91 46.41,-3.11 46.56,-3.26 46.70,-3.42 46.89,-3.52 47.08,-3.62 47.29,-3.66 47.50,-3.69 47.71,-3.66 47.92,-3.63 48.11,-3.53 48.29,-3.43 48.44,-3.28 48.59,-3.12 48.68,-2.93 48.77,-2.74 48.79,-2.53 48.82,-2.32 48.78,-2.11 48.73,-1.90 48.62,-1.72 48.52,-1.54 48.35,-1.40 48.19,-1.26 48.00,-1.18 47.80,-1.10 47.80,-1.10 47.80,-1.10 46.31,-0.62 44.81,-0.14 43.52,0.19 42.22,0.52 40.68,0.91 39.14,1.30 36.95,1.63 34.77,1.96 33.13,1.88 31.49,1.80 29.78,1.62 28.06,1.44 26.19,1.29 24.32,1.14 22.43,0.82 20.53,0.51 18.80,0.33 17.08,0.15 15.96,0.03 14.85,-0.08 13.47,-0.09 12.09,-0.11 9.85,-0.16 7.60,-0.22 6.32,-0.02 5.03,0.17 3.93,0.40 2.83,0.63 1.61,0.96 0.38,1.29 0.22,1.32 0.06,1.34 -0.09,1.33 -0.25,1.32 -0.41,1.27 -0.56,1.22 -0.70,1.13 -0.84,1.05 -0.95,0.93 -1.07,0.82 -1.15,0.68 -1.23,0.54 -1.28,0.38 -1.33,0.22 -1.33,0.06 -1.34,-0.09 -1.31,-0.25 -1.28,-0.41 -1.21,-0.56 -1.14,-0.71 -1.04,-0.83 -0.94,-0.96 -0.81,-1.06 -0.68,-1.16 -0.53,-1.22 -0.38,-1.29 -0.38,-1.29 L -0.38,-1.29 Z"></path></g><g transform="translate(108.72678566032016 197.47716618522568) rotate(0 -1.0565527112093207 -12.678593842514118)" stroke="none"><path fill="#1971c2" d="M -1.32,0.33 Q -1.32,0.33 -1.62,-0.62 -1.92,-1.58 -1.98,-3.82 -2.04,-6.06 -2.01,-8.12 -1.98,-10.17 -2.26,-12.20 -2.55,-14.23 -2.74,-15.27 -2.93,-16.32 -3.16,-17.87 -3.39,-19.42 -3.34,-20.72 -3.29,-22.02 -2.51,-23.79 -1.74,-25.55 -1.64,-25.74 -1.54,-25.93 -1.38,-26.07 -1.22,-26.22 -1.03,-26.30 -0.84,-26.39 -0.62,-26.41 -0.41,-26.43 -0.21,-26.39 -0.00,-26.34 0.17,-26.23 0.35,-26.12 0.49,-25.95 0.62,-25.79 0.70,-25.59 0.78,-25.39 0.79,-25.18 0.80,-24.97 0.74,-24.76 0.68,-24.56 0.56,-24.38 0.44,-24.21 0.27,-24.08 0.10,-23.96 -0.10,-23.89 -0.30,-23.82 -0.51,-23.83 -0.72,-23.83 -0.92,-23.90 -1.12,-23.97 -1.29,-24.10 -1.46,-24.23 -1.58,-24.41 -1.69,-24.58 -1.75,-24.79 -1.80,-24.99 -1.79,-25.21 -1.78,-25.42 -1.70,-25.61 -1.62,-25.81 -1.48,-25.97 -1.34,-26.13 -1.15,-26.24 -0.97,-26.35 -0.76,-26.39 -0.56,-26.43 -0.34,-26.41 -0.13,-26.38 0.05,-26.29 0.24,-26.20 0.39,-26.05 0.55,-25.91 0.64,-25.72 0.74,-25.53 0.77,-25.32 0.81,-25.11 0.77,-24.90 0.73,-24.69 0.73,-24.69 0.73,-24.69 0.18,-22.39 -0.36,-20.09 -0.12,-18.48 0.12,-16.87 0.32,-15.80 0.52,-14.72 0.69,-13.60 0.86,-12.49 0.98,-11.31 1.09,-10.13 1.03,-7.99 0.97,-5.85 0.96,-4.08 0.94,-2.30 1.13,-1.31 1.32,-0.33 1.34,-0.16 1.36,-0.00 1.34,0.15 1.32,0.32 1.26,0.47 1.20,0.62 1.11,0.76 1.02,0.89 0.89,1.00 0.77,1.11 0.63,1.19 0.48,1.27 0.32,1.31 0.16,1.35 0.00,1.35 -0.15,1.35 -0.31,1.31 -0.47,1.27 -0.62,1.19 -0.76,1.12 -0.89,1.01 -1.01,0.90 -1.10,0.77 -1.20,0.63 -1.26,0.48 -1.32,0.33 -1.32,0.33 L -1.32,0.33 Z"></path></g><g transform="translate(108.30415296823708 170.85211911594604) rotate(0 21.342312532231375 0.6339393651251584)" stroke="none"><path fill="#1971c2" d="M 0,-1.33 Q 0,-1.33 1.09,-1.42 2.18,-1.51 3.56,-1.64 4.94,-1.76 6.91,-1.72 8.88,-1.68 11.05,-1.33 13.21,-0.99 16.16,-0.66 19.12,-0.34 20.80,-0.24 22.48,-0.13 24.47,-0.22 26.46,-0.30 28.08,-0.33 29.70,-0.35 31.43,-0.24 33.16,-0.13 34.68,-0.10 36.21,-0.07 37.46,-0.03 38.72,0.00 40.34,0.18 41.97,0.37 42.18,0.40 42.39,0.44 42.57,0.54 42.76,0.64 42.91,0.80 43.05,0.95 43.14,1.14 43.23,1.34 43.25,1.55 43.27,1.76 43.22,1.97 43.18,2.18 43.06,2.36 42.95,2.54 42.79,2.67 42.63,2.81 42.43,2.89 42.23,2.96 42.02,2.97 41.81,2.98 41.60,2.93 41.40,2.87 41.22,2.75 41.05,2.63 40.92,2.46 40.79,2.29 40.73,2.08 40.66,1.88 40.66,1.67 40.66,1.46 40.73,1.26 40.80,1.06 40.93,0.89 41.06,0.72 41.24,0.60 41.42,0.48 41.62,0.43 41.83,0.37 42.04,0.39 42.25,0.40 42.45,0.48 42.64,0.56 42.81,0.70 42.97,0.84 43.07,1.02 43.18,1.20 43.23,1.41 43.27,1.62 43.25,1.83 43.22,2.04 43.13,2.23 43.04,2.43 42.89,2.58 42.75,2.73 42.56,2.83 42.37,2.93 42.16,2.96 41.95,2.99 41.95,2.99 41.95,2.99 40.31,3.15 38.67,3.31 37.39,3.31 36.11,3.31 34.52,3.25 32.94,3.19 31.35,3.09 29.76,2.98 28.17,3.01 26.57,3.05 24.41,3.11 22.26,3.16 20.47,3.03 18.68,2.90 15.70,2.51 12.73,2.11 10.65,1.75 8.56,1.38 6.99,1.33 5.41,1.28 3.79,1.40 2.18,1.51 1.09,1.42 0,1.33 -0.16,1.31 -0.32,1.30 -0.47,1.24 -0.62,1.18 -0.75,1.09 -0.88,1.00 -0.99,0.88 -1.10,0.76 -1.17,0.61 -1.25,0.47 -1.29,0.31 -1.32,0.16 -1.32,-0.00 -1.32,-0.16 -1.29,-0.31 -1.25,-0.47 -1.17,-0.61 -1.10,-0.76 -0.99,-0.88 -0.88,-1.00 -0.75,-1.09 -0.62,-1.18 -0.47,-1.24 -0.32,-1.30 -0.16,-1.31 0.00,-1.33 0.00,-1.33 L 0,-1.33 Z"></path></g><g transform="translate(101.54224270089588 186.06643172696297) rotate(0 8.45239267067626 -3.592261806712699)" stroke="none"><path fill="#1971c2" d="M -1.02,-0.85 Q -1.02,-0.85 -0.46,-1.62 0.08,-2.39 0.84,-3.43 1.60,-4.47 2.46,-5.79 3.32,-7.11 4.17,-8.09 5.02,-9.06 6.49,-8.83 7.96,-8.59 8.97,-8.12 9.99,-7.64 11.37,-6.40 12.76,-5.16 13.85,-3.74 14.94,-2.32 16.25,-1.10 17.55,0.11 17.70,0.26 17.84,0.42 17.93,0.61 18.02,0.80 18.04,1.01 18.06,1.23 18.01,1.43 17.97,1.64 17.86,1.82 17.75,2.00 17.58,2.14 17.42,2.28 17.22,2.35 17.02,2.43 16.81,2.44 16.60,2.45 16.40,2.39 16.19,2.34 16.02,2.22 15.84,2.10 15.71,1.93 15.59,1.76 15.52,1.55 15.45,1.35 15.45,1.14 15.46,0.93 15.52,0.73 15.59,0.53 15.72,0.36 15.85,0.19 16.03,0.07 16.21,-0.04 16.41,-0.09 16.62,-0.15 16.83,-0.14 17.04,-0.12 17.24,-0.04 17.43,0.03 17.59,0.16 17.76,0.30 17.86,0.49 17.97,0.67 18.02,0.88 18.06,1.08 18.04,1.30 18.01,1.51 17.92,1.70 17.83,1.89 17.69,2.04 17.54,2.20 17.35,2.30 17.16,2.39 16.95,2.43 16.74,2.46 16.53,2.43 16.32,2.39 16.14,2.29 15.95,2.19 15.95,2.19 15.95,2.19 14.16,0.86 12.38,-0.46 11.42,-1.73 10.46,-3.01 9.31,-4.05 8.17,-5.09 6.99,-5.34 5.82,-5.60 4.99,-4.32 4.16,-3.04 3.25,-1.78 2.34,-0.52 1.68,0.16 1.02,0.85 0.91,0.96 0.79,1.07 0.65,1.15 0.51,1.23 0.35,1.28 0.20,1.32 0.04,1.32 -0.12,1.33 -0.27,1.29 -0.43,1.26 -0.58,1.19 -0.72,1.12 -0.85,1.02 -0.97,0.91 -1.07,0.78 -1.16,0.65 -1.22,0.50 -1.29,0.35 -1.31,0.20 -1.33,0.04 -1.32,-0.12 -1.30,-0.28 -1.25,-0.43 -1.20,-0.58 -1.11,-0.72 -1.02,-0.85 -1.02,-0.85 L -1.02,-0.85 Z"></path></g><g transform="translate(276.4973297497894 142.53813789788035) rotate(0 1.0234699904754052 0.8187797404279422)" stroke="none"><path fill="#1e1e1e" d="M -0.39,-1.37 Q -0.39,-1.37 0.37,-1.69 1.15,-2.01 1.89,-2.83 2.64,-3.65 1.59,-3.42 0.54,-3.19 -0.10,-2.10 -0.75,-1.01 -0.76,0.10 -0.78,1.22 -0.17,2.31 0.42,3.40 2.81,4.51 5.20,5.62 5.37,5.75 5.54,5.88 5.66,6.06 5.78,6.24 5.83,6.44 5.89,6.65 5.87,6.86 5.86,7.07 5.78,7.27 5.70,7.46 5.56,7.62 5.42,7.79 5.24,7.89 5.06,8.00 4.85,8.05 4.64,8.09 4.43,8.06 4.22,8.04 4.03,7.95 3.83,7.86 3.68,7.71 3.53,7.56 3.43,7.38 3.33,7.19 3.30,6.98 3.27,6.77 3.30,6.56 3.34,6.35 3.44,6.16 3.54,5.97 3.70,5.83 3.85,5.68 4.04,5.60 4.24,5.51 4.45,5.49 4.66,5.47 4.87,5.51 5.08,5.56 5.26,5.67 5.44,5.78 5.57,5.95 5.71,6.11 5.79,6.31 5.86,6.51 5.87,6.72 5.88,6.93 5.83,7.13 5.77,7.34 5.65,7.51 5.53,7.69 5.36,7.82 5.19,7.94 4.98,8.01 4.78,8.08 4.57,8.07 4.36,8.07 4.16,8.00 3.95,7.93 3.96,7.93 3.96,7.93 2.30,7.22 0.64,6.51 -0.40,6.04 -1.45,5.58 -2.32,4.77 -3.18,3.96 -3.69,2.65 -4.20,1.33 -4.26,-0.23 -4.33,-1.81 -3.94,-3.13 -3.56,-4.46 -2.72,-5.33 -1.89,-6.20 -0.08,-6.70 1.72,-7.19 3.01,-7.08 4.31,-6.98 5.40,-5.65 6.50,-4.33 6.10,-3.24 5.71,-2.14 4.90,-1.24 4.09,-0.33 3.11,0.37 2.14,1.07 1.26,1.22 0.39,1.37 0.22,1.40 0.05,1.42 -0.11,1.41 -0.29,1.39 -0.45,1.34 -0.61,1.28 -0.76,1.19 -0.90,1.10 -1.02,0.97 -1.14,0.85 -1.23,0.70 -1.31,0.55 -1.36,0.38 -1.41,0.22 -1.41,0.05 -1.42,-0.12 -1.38,-0.28 -1.35,-0.45 -1.27,-0.61 -1.20,-0.76 -1.09,-0.90 -0.98,-1.03 -0.84,-1.13 -0.70,-1.23 -0.55,-1.30 -0.39,-1.37 -0.39,-1.37 L -0.39,-1.37 Z"></path></g><g transform="translate(311.2952157247636 153.18219956249152) rotate(0 -1.8422403607843307 31.522776383381455)" stroke="none"><path fill="#1e1e1e" d="M 1.35,0.07 Q 1.35,0.07 1.23,2.08 1.12,4.08 0.98,5.78 0.83,7.49 0.56,9.54 0.30,11.58 0.07,14.51 -0.14,17.43 -0.24,18.92 -0.35,20.40 -0.51,23.15 -0.66,25.90 -0.73,28.69 -0.79,31.48 -0.82,34.32 -0.85,37.15 -0.85,39.89 -0.86,42.62 -0.98,45.81 -1.09,49.01 -1.29,51.78 -1.48,54.56 -1.87,58.07 -2.25,61.59 -2.30,61.80 -2.35,62.00 -2.47,62.18 -2.58,62.36 -2.74,62.50 -2.91,62.63 -3.11,62.71 -3.31,62.78 -3.52,62.79 -3.73,62.79 -3.94,62.73 -4.14,62.67 -4.31,62.55 -4.48,62.42 -4.61,62.25 -4.73,62.08 -4.80,61.88 -4.86,61.67 -4.86,61.46 -4.85,61.25 -4.78,61.05 -4.71,60.85 -4.57,60.68 -4.44,60.52 -4.26,60.40 -4.08,60.29 -3.88,60.23 -3.67,60.18 -3.46,60.20 -3.25,60.22 -3.05,60.30 -2.86,60.38 -2.70,60.52 -2.54,60.66 -2.43,60.85 -2.33,61.03 -2.29,61.24 -2.25,61.45 -2.28,61.66 -2.30,61.87 -2.40,62.06 -2.49,62.25 -2.64,62.40 -2.79,62.55 -2.98,62.65 -3.17,62.74 -3.38,62.77 -3.59,62.80 -3.80,62.76 -4.01,62.73 -4.19,62.62 -4.38,62.52 -4.52,62.36 -4.66,62.20 -4.75,62.01 -4.83,61.81 -4.85,61.60 -4.87,61.39 -4.87,61.39 -4.87,61.39 -4.71,57.88 -4.55,54.37 -4.41,51.63 -4.26,48.88 -4.14,45.75 -4.01,42.61 -3.99,39.86 -3.97,37.12 -3.94,34.26 -3.91,31.41 -3.83,28.56 -3.76,25.72 -3.59,22.95 -3.42,20.19 -3.32,18.68 -3.21,17.17 -2.94,14.15 -2.66,11.13 -2.32,9.17 -1.98,7.20 -1.78,5.56 -1.59,3.92 -1.47,1.92 -1.35,-0.07 -1.32,-0.24 -1.29,-0.40 -1.22,-0.54 -1.16,-0.69 -1.05,-0.82 -0.95,-0.95 -0.83,-1.05 -0.70,-1.15 -0.55,-1.22 -0.40,-1.29 -0.24,-1.32 -0.08,-1.35 0.07,-1.34 0.24,-1.33 0.39,-1.28 0.55,-1.23 0.69,-1.15 0.83,-1.06 0.94,-0.95 1.06,-0.83 1.14,-0.69 1.23,-0.55 1.28,-0.40 1.33,-0.24 1.34,-0.08 1.35,0.07 1.35,0.07 L 1.35,0.07 Z"></path></g><g transform="translate(301.87931430067533 154.41035980301444) rotate(0 12.486292655276486 -5.117331212139092)" stroke="none"><path fill="#1e1e1e" d="M -0.77,-1.08 Q -0.77,-1.08 -0.02,-1.77 0.72,-2.46 1.83,-3.44 2.94,-4.42 4.11,-5.76 5.29,-7.09 6.23,-7.83 7.18,-8.57 8.78,-9.64 10.38,-10.71 11.51,-10.98 12.63,-11.25 13.76,-10.91 14.89,-10.58 15.70,-9.79 16.51,-9.00 17.72,-7.45 18.93,-5.91 20.25,-4.71 21.57,-3.51 23.20,-2.85 24.83,-2.19 25.03,-2.11 25.23,-2.03 25.39,-1.89 25.55,-1.75 25.66,-1.57 25.77,-1.39 25.81,-1.18 25.85,-0.97 25.83,-0.76 25.81,-0.55 25.71,-0.36 25.62,-0.17 25.48,-0.01 25.33,0.13 25.14,0.23 24.95,0.33 24.74,0.36 24.53,0.39 24.32,0.36 24.11,0.32 23.93,0.22 23.74,0.12 23.60,-0.03 23.45,-0.18 23.36,-0.38 23.27,-0.57 23.25,-0.78 23.23,-0.99 23.28,-1.20 23.33,-1.41 23.44,-1.59 23.55,-1.77 23.71,-1.90 23.87,-2.04 24.07,-2.12 24.27,-2.20 24.48,-2.21 24.69,-2.22 24.90,-2.16 25.10,-2.10 25.28,-1.98 25.45,-1.86 25.58,-1.69 25.71,-1.52 25.77,-1.32 25.84,-1.11 25.84,-0.90 25.84,-0.69 25.77,-0.49 25.70,-0.29 25.57,-0.12 25.44,0.04 25.26,0.16 25.09,0.28 24.88,0.33 24.67,0.39 24.46,0.37 24.25,0.36 24.25,0.36 24.25,0.36 21.88,-0.14 19.51,-0.64 18.60,-1.34 17.68,-2.04 16.32,-3.66 14.96,-5.29 13.56,-6.58 12.15,-7.87 11.20,-7.25 10.24,-6.64 8.94,-5.76 7.63,-4.89 6.36,-3.49 5.10,-2.10 3.83,-0.99 2.56,0.10 1.67,0.59 0.77,1.08 0.63,1.16 0.49,1.24 0.33,1.28 0.18,1.32 0.02,1.32 -0.13,1.32 -0.29,1.29 -0.45,1.25 -0.59,1.18 -0.74,1.11 -0.86,1.00 -0.98,0.90 -1.07,0.77 -1.17,0.63 -1.23,0.48 -1.29,0.34 -1.31,0.18 -1.33,0.02 -1.31,-0.13 -1.30,-0.29 -1.24,-0.45 -1.19,-0.60 -1.10,-0.73 -1.01,-0.86 -0.89,-0.97 -0.77,-1.08 -0.77,-1.08 L -0.77,-1.08 Z"></path></g><g transform="translate(305.15441452214907 166.28258170814848) rotate(0 6.345491452662003 0.8187703703089255)" stroke="none"><path fill="#1e1e1e" d="M 0.28,-1.42 Q 0.28,-1.42 1.48,-1.31 2.68,-1.20 5.02,-0.89 7.36,-0.59 9.77,-0.15 12.17,0.28 12.38,0.33 12.59,0.38 12.77,0.49 12.95,0.60 13.08,0.76 13.22,0.93 13.30,1.13 13.37,1.32 13.38,1.54 13.39,1.75 13.33,1.95 13.27,2.16 13.15,2.33 13.03,2.51 12.86,2.63 12.69,2.76 12.49,2.83 12.29,2.89 12.08,2.89 11.86,2.89 11.66,2.82 11.46,2.75 11.29,2.62 11.13,2.49 11.01,2.31 10.89,2.13 10.84,1.93 10.78,1.72 10.79,1.51 10.81,1.30 10.89,1.10 10.97,0.91 11.11,0.75 11.25,0.59 11.43,0.48 11.61,0.37 11.82,0.33 12.03,0.28 12.24,0.31 12.45,0.33 12.64,0.42 12.84,0.51 12.99,0.66 13.14,0.81 13.24,1.00 13.34,1.19 13.37,1.40 13.40,1.61 13.37,1.82 13.33,2.03 13.23,2.21 13.13,2.40 12.97,2.54 12.81,2.69 12.62,2.78 12.43,2.86 12.22,2.88 12.00,2.91 12.00,2.91 12.00,2.91 9.44,2.89 6.87,2.87 4.44,2.51 2.01,2.14 0.86,1.78 -0.28,1.42 -0.45,1.36 -0.61,1.31 -0.76,1.21 -0.91,1.12 -1.03,1.00 -1.15,0.87 -1.24,0.72 -1.33,0.57 -1.38,0.40 -1.43,0.23 -1.43,0.06 -1.44,-0.11 -1.41,-0.28 -1.37,-0.45 -1.30,-0.61 -1.22,-0.77 -1.11,-0.90 -1.00,-1.04 -0.86,-1.14 -0.73,-1.25 -0.56,-1.32 -0.40,-1.39 -0.23,-1.42 -0.06,-1.44 0.11,-1.43 0.28,-1.42 0.28,-1.42 L 0.28,-1.42 Z"></path></g><g transform="translate(287.5507719144955 165.05442146762556) rotate(0 4.5032604619966605 1.8422309906653425)" stroke="none"><path fill="#1e1e1e" d="M -0.73,-1.22 Q -0.73,-1.22 0.38,-2.02 1.51,-2.81 2.97,-3.70 4.43,-4.60 5.60,-5.11 6.77,-5.62 8.16,-5.53 9.55,-5.43 10.07,-3.75 10.59,-2.06 10.31,-0.41 10.04,1.23 9.19,4.48 8.35,7.73 8.28,7.93 8.22,8.13 8.09,8.30 7.97,8.48 7.79,8.60 7.62,8.72 7.42,8.78 7.21,8.84 7.00,8.83 6.79,8.83 6.59,8.75 6.39,8.68 6.23,8.54 6.06,8.41 5.95,8.23 5.84,8.05 5.79,7.84 5.74,7.64 5.76,7.42 5.78,7.21 5.86,7.02 5.95,6.82 6.09,6.67 6.23,6.51 6.42,6.41 6.61,6.30 6.81,6.26 7.02,6.23 7.23,6.26 7.44,6.29 7.63,6.38 7.82,6.48 7.97,6.63 8.12,6.78 8.21,6.97 8.31,7.17 8.33,7.38 8.36,7.59 8.32,7.79 8.28,8.00 8.17,8.19 8.06,8.37 7.90,8.51 7.75,8.65 7.55,8.73 7.35,8.82 7.14,8.83 6.93,8.85 6.72,8.79 6.52,8.74 6.34,8.63 6.16,8.51 6.03,8.34 5.90,8.18 5.83,7.98 5.76,7.78 5.75,7.56 5.75,7.35 5.75,7.35 5.75,7.35 6.02,3.98 6.29,0.60 7.32,-1.04 8.34,-2.69 7.20,-2.22 6.07,-1.74 4.63,-0.87 3.19,-0.00 1.96,0.60 0.73,1.22 0.57,1.29 0.42,1.36 0.25,1.39 0.08,1.42 -0.09,1.41 -0.26,1.40 -0.42,1.35 -0.59,1.30 -0.73,1.21 -0.88,1.12 -1.00,1.00 -1.13,0.87 -1.21,0.73 -1.30,0.58 -1.35,0.41 -1.40,0.25 -1.41,0.08 -1.42,-0.09 -1.39,-0.26 -1.36,-0.43 -1.29,-0.58 -1.22,-0.74 -1.11,-0.88 -1.00,-1.01 -0.87,-1.12 -0.73,-1.22 -0.73,-1.22 L -0.73,-1.22 Z"></path></g><g transform="translate(304.3356347817212 208.44941038602207) rotate(0 4.7079507120441235 -0.8187703703089255)" stroke="none"><path fill="#1e1e1e" d="M -0.60,-1.21 Q -0.60,-1.21 0.03,-1.71 0.67,-2.21 2.49,-2.51 4.32,-2.81 6.65,-2.86 8.97,-2.90 9.18,-2.89 9.40,-2.88 9.59,-2.81 9.79,-2.73 9.96,-2.60 10.12,-2.46 10.23,-2.28 10.35,-2.10 10.40,-1.90 10.44,-1.69 10.42,-1.48 10.40,-1.27 10.32,-1.07 10.23,-0.88 10.09,-0.72 9.95,-0.57 9.76,-0.46 9.57,-0.36 9.36,-0.32 9.15,-0.28 8.94,-0.32 8.73,-0.35 8.54,-0.44 8.36,-0.54 8.21,-0.69 8.06,-0.84 7.97,-1.04 7.87,-1.23 7.85,-1.44 7.82,-1.65 7.86,-1.86 7.91,-2.07 8.01,-2.25 8.12,-2.43 8.28,-2.57 8.44,-2.71 8.64,-2.79 8.83,-2.88 9.04,-2.89 9.26,-2.91 9.46,-2.85 9.67,-2.80 9.84,-2.68 10.02,-2.57 10.15,-2.40 10.28,-2.23 10.36,-2.03 10.43,-1.83 10.43,-1.62 10.43,-1.41 10.37,-1.20 10.30,-1.00 10.18,-0.83 10.05,-0.66 9.88,-0.54 9.70,-0.41 9.50,-0.35 9.30,-0.29 9.30,-0.29 9.30,-0.29 6.93,0.12 4.57,0.55 3.36,0.67 2.15,0.80 1.38,1.01 0.60,1.21 0.45,1.27 0.29,1.32 0.13,1.34 -0.02,1.36 -0.18,1.33 -0.35,1.31 -0.50,1.25 -0.65,1.19 -0.78,1.09 -0.92,1.00 -1.02,0.87 -1.13,0.75 -1.20,0.60 -1.28,0.45 -1.31,0.29 -1.35,0.13 -1.35,-0.02 -1.34,-0.19 -1.30,-0.34 -1.26,-0.50 -1.18,-0.65 -1.10,-0.79 -0.99,-0.91 -0.88,-1.03 -0.74,-1.12 -0.60,-1.21 -0.60,-1.21 L -0.60,-1.21 Z"></path></g><g transform="translate(297.3760538386787 200.6710684427897) rotate(0 2.842170943040401e-14 8.801811933707796)" stroke="none"><path fill="#1e1e1e" d="M 0.55,1.28 Q 0.55,1.28 -0.16,1.71 -0.87,2.15 -1.28,4.28 -1.68,6.42 -1.71,9.17 -1.74,11.93 -1.51,13.29 -1.28,14.66 -0.58,13.27 0.10,11.88 0.52,10.85 0.93,9.82 1.25,8.19 1.58,6.55 0.33,5.65 -0.90,4.76 -1.05,4.91 -1.21,5.06 -1.40,5.15 -1.59,5.24 -1.80,5.27 -2.01,5.30 -2.22,5.26 -2.43,5.22 -2.61,5.11 -2.79,5.01 -2.94,4.85 -3.08,4.69 -3.16,4.49 -3.24,4.30 -3.26,4.08 -3.28,3.87 -3.22,3.67 -3.17,3.46 -3.06,3.28 -2.94,3.10 -2.77,2.97 -2.61,2.84 -2.41,2.77 -2.21,2.69 -2.00,2.69 -1.78,2.68 -1.58,2.75 -1.38,2.81 -1.21,2.94 -1.03,3.06 -0.91,3.23 -0.79,3.41 -0.73,3.61 -0.66,3.81 -0.67,4.03 -0.68,4.24 -0.75,4.44 -0.83,4.64 -0.96,4.80 -1.09,4.97 -1.27,5.08 -1.45,5.19 -1.66,5.24 -1.87,5.29 -2.08,5.28 -2.29,5.26 -2.48,5.17 -2.68,5.09 -2.84,4.95 -2.99,4.80 -3.10,4.62 -3.20,4.43 -3.24,4.22 -3.28,4.01 -3.25,3.80 -3.22,3.59 -3.13,3.40 -3.03,3.21 -3.03,3.21 -3.03,3.21 -0.59,2.40 1.84,1.59 2.83,2.21 3.81,2.83 4.41,3.77 5.01,4.71 5.20,5.84 5.39,6.97 4.84,9.12 4.28,11.27 3.79,12.33 3.30,13.39 2.59,14.69 1.87,15.99 0.10,16.92 -1.65,17.85 -3.03,16.58 -4.41,15.30 -4.71,13.68 -5.01,12.06 -5.09,10.09 -5.16,8.12 -5.05,7.05 -4.94,5.99 -4.58,3.77 -4.21,1.56 -3.31,0.40 -2.42,-0.74 -1.48,-1.01 -0.55,-1.28 -0.38,-1.33 -0.22,-1.37 -0.05,-1.38 0.10,-1.39 0.27,-1.36 0.44,-1.32 0.59,-1.25 0.74,-1.18 0.87,-1.07 1.00,-0.97 1.10,-0.83 1.20,-0.70 1.27,-0.54 1.34,-0.39 1.36,-0.22 1.39,-0.05 1.38,0.10 1.37,0.27 1.31,0.43 1.26,0.59 1.17,0.73 1.08,0.88 0.96,0.99 0.84,1.11 0.69,1.20 0.55,1.28 0.55,1.28 L 0.55,1.28 Z"></path></g><g transform="translate(308.02011550328984 211.72451060749586) rotate(0 -0.8187703703089255 10.848742544539618)" stroke="none"><path fill="#1e1e1e" d="M 1.34,0.11 Q 1.34,0.11 1.33,1.53 1.32,2.95 1.27,4.45 1.23,5.95 1.21,7.19 1.19,8.42 0.94,10.74 0.70,13.06 0.61,14.38 0.52,15.69 0.36,17.02 0.20,18.34 0.13,20.02 0.07,21.71 0.04,21.92 0.01,22.13 -0.07,22.32 -0.16,22.51 -0.31,22.66 -0.46,22.81 -0.65,22.91 -0.84,23.01 -1.05,23.04 -1.26,23.07 -1.47,23.03 -1.68,22.99 -1.86,22.89 -2.05,22.79 -2.19,22.63 -2.34,22.48 -2.42,22.28 -2.51,22.09 -2.53,21.88 -2.55,21.66 -2.50,21.46 -2.45,21.25 -2.34,21.07 -2.22,20.89 -2.06,20.75 -1.90,20.62 -1.70,20.54 -1.50,20.47 -1.29,20.46 -1.07,20.45 -0.87,20.51 -0.67,20.57 -0.49,20.70 -0.32,20.82 -0.19,20.99 -0.07,21.16 -0.00,21.36 0.05,21.56 0.05,21.78 0.05,21.99 -0.02,22.19 -0.09,22.39 -0.22,22.56 -0.35,22.72 -0.53,22.84 -0.70,22.96 -0.91,23.01 -1.12,23.06 -1.33,23.05 -1.54,23.03 -1.74,22.95 -1.93,22.87 -2.09,22.73 -2.25,22.59 -2.36,22.41 -2.46,22.22 -2.51,22.01 -2.55,21.81 -2.55,21.81 -2.55,21.81 -2.77,19.88 -3.00,17.95 -2.84,16.70 -2.68,15.45 -2.56,14.02 -2.45,12.58 -2.20,10.47 -1.95,8.36 -1.92,7.11 -1.90,5.85 -1.84,4.27 -1.79,2.69 -1.57,1.29 -1.34,-0.11 -1.31,-0.27 -1.28,-0.43 -1.21,-0.57 -1.14,-0.72 -1.03,-0.85 -0.93,-0.97 -0.80,-1.07 -0.67,-1.17 -0.52,-1.23 -0.37,-1.30 -0.21,-1.32 -0.05,-1.35 0.11,-1.33 0.27,-1.32 0.42,-1.27 0.58,-1.22 0.72,-1.13 0.85,-1.04 0.97,-0.92 1.08,-0.81 1.16,-0.66 1.24,-0.52 1.29,-0.37 1.33,-0.21 1.34,-0.05 1.34,0.11 1.34,0.11 L 1.34,0.11 Z"></path></g><g transform="translate(285.5038506737826 221.14039329134607) rotate(0 72.25675457068468 -3.47978110140221)" stroke="none"><path fill="#1e1e1e" d="M 0.11,-1.37 Q 0.11,-1.37 1.53,-1.34 2.95,-1.31 4.11,-1.26 5.26,-1.20 7.22,-1.17 9.17,-1.14 10.30,-1.15 11.43,-1.16 13.03,-1.04 14.62,-0.92 16.53,-0.88 18.44,-0.84 20.39,-0.95 22.34,-1.06 24.82,-1.22 27.31,-1.39 30.34,-1.72 33.37,-2.05 36.42,-2.42 39.47,-2.79 43.38,-3.19 47.29,-3.59 51.23,-3.76 55.17,-3.93 59.32,-4.00 63.46,-4.07 68.44,-3.87 73.43,-3.66 78.02,-3.34 82.61,-3.01 86.90,-2.76 91.18,-2.51 95.54,-2.52 99.90,-2.53 104.76,-3.01 109.61,-3.49 113.97,-4.40 118.33,-5.32 122.30,-6.30 126.28,-7.29 130.05,-7.91 133.82,-8.54 138.33,-8.72 142.85,-8.91 143.06,-8.89 143.27,-8.88 143.47,-8.79 143.67,-8.71 143.83,-8.57 143.98,-8.43 144.09,-8.25 144.20,-8.06 144.24,-7.85 144.28,-7.65 144.25,-7.43 144.23,-7.22 144.13,-7.03 144.04,-6.84 143.89,-6.69 143.74,-6.54 143.55,-6.44 143.36,-6.35 143.15,-6.32 142.94,-6.29 142.73,-6.33 142.52,-6.36 142.34,-6.47 142.15,-6.57 142.01,-6.73 141.87,-6.88 141.78,-7.08 141.70,-7.27 141.68,-7.49 141.66,-7.70 141.71,-7.90 141.76,-8.11 141.87,-8.29 141.98,-8.47 142.15,-8.60 142.31,-8.74 142.51,-8.81 142.71,-8.89 142.92,-8.90 143.14,-8.90 143.34,-8.84 143.54,-8.78 143.72,-8.66 143.89,-8.54 144.01,-8.36 144.14,-8.19 144.20,-7.99 144.27,-7.79 144.26,-7.57 144.26,-7.36 144.19,-7.16 144.12,-6.96 143.98,-6.80 143.85,-6.63 143.67,-6.51 143.49,-6.40 143.29,-6.34 143.08,-6.29 143.08,-6.29 143.08,-6.29 138.75,-5.69 134.42,-5.09 130.78,-4.41 127.14,-3.74 123.09,-2.78 119.04,-1.81 114.50,-0.91 109.95,-0.01 104.93,0.45 99.91,0.92 95.45,0.93 90.98,0.94 86.67,0.68 82.37,0.42 77.83,0.10 73.28,-0.21 68.40,-0.42 63.52,-0.62 59.42,-0.55 55.32,-0.49 51.47,-0.32 47.63,-0.16 43.75,0.21 39.88,0.60 36.79,0.95 33.71,1.31 30.61,1.58 27.52,1.86 25.00,2.01 22.49,2.16 20.42,2.24 18.36,2.33 16.37,2.27 14.38,2.21 12.90,2.09 11.42,1.97 10.28,1.95 9.14,1.93 7.14,1.90 5.13,1.87 3.91,1.83 2.69,1.78 1.29,1.57 -0.11,1.37 -0.27,1.33 -0.43,1.30 -0.58,1.23 -0.73,1.16 -0.86,1.05 -0.99,0.95 -1.09,0.81 -1.19,0.68 -1.25,0.53 -1.32,0.37 -1.34,0.21 -1.37,0.05 -1.36,-0.11 -1.34,-0.27 -1.29,-0.43 -1.24,-0.59 -1.15,-0.73 -1.06,-0.87 -0.94,-0.98 -0.82,-1.10 -0.68,-1.18 -0.53,-1.26 -0.37,-1.31 -0.21,-1.35 -0.05,-1.36 0.11,-1.37 0.11,-1.37 L 0.11,-1.37 Z"></path></g><g transform="translate(430.2573134124507 207.02387925669905) rotate(0 -0.42261334608417656 9.297648381842976)" stroke="none"><path fill="#1e1e1e" d="M -0.75,1.12 Q -0.75,1.12 -1.54,0.73 -2.32,0.33 -3.01,0.00 -3.70,-0.33 -3.84,-0.47 -3.99,-0.61 -4.09,-0.78 -4.20,-0.95 -4.26,-1.14 -4.33,-1.33 -4.34,-1.53 -4.36,-1.74 -4.32,-1.94 -4.29,-2.13 -4.21,-2.32 -4.13,-2.51 -4.01,-2.67 -3.88,-2.83 -3.73,-2.95 -3.57,-3.08 -3.39,-3.17 -3.20,-3.25 -3.01,-3.29 -2.81,-3.33 -2.61,-3.32 -2.40,-3.31 -2.21,-3.25 -2.02,-3.20 -1.84,-3.09 -1.67,-2.99 -0.44,-2.28 0.79,-1.57 2.59,-1.15 4.39,-0.74 6.04,-0.28 7.68,0.16 8.39,1.51 9.09,2.86 8.52,3.79 7.94,4.71 6.89,5.80 5.84,6.88 3.91,8.95 1.97,11.02 0.47,12.70 -1.03,14.38 -2.42,15.84 -3.81,17.30 -5.65,19.20 -7.49,21.10 -7.65,21.24 -7.81,21.38 -8.01,21.46 -8.20,21.54 -8.42,21.55 -8.63,21.56 -8.83,21.51 -9.04,21.45 -9.22,21.34 -9.39,21.22 -9.52,21.05 -9.65,20.88 -9.72,20.68 -9.79,20.48 -9.79,20.27 -9.79,20.05 -9.73,19.85 -9.66,19.65 -9.53,19.48 -9.41,19.31 -9.23,19.19 -9.06,19.07 -8.85,19.01 -8.65,18.95 -8.44,18.96 -8.22,18.97 -8.03,19.05 -7.83,19.13 -7.67,19.26 -7.50,19.40 -7.39,19.58 -7.28,19.76 -7.23,19.97 -7.19,20.18 -7.21,20.39 -7.23,20.60 -7.32,20.79 -7.40,20.99 -7.55,21.14 -7.69,21.30 -7.88,21.40 -8.07,21.50 -8.28,21.53 -8.49,21.57 -8.70,21.54 -8.91,21.50 -9.10,21.41 -9.28,21.31 -9.43,21.16 -9.58,21.00 -9.67,20.81 -9.76,20.62 -9.78,20.41 -9.81,20.20 -9.76,19.99 -9.72,19.78 -9.61,19.60 -9.50,19.41 -9.50,19.41 -9.50,19.41 -8.00,17.09 -6.49,14.76 -5.14,13.33 -3.79,11.91 -2.27,10.21 -0.75,8.52 0.54,7.10 1.84,5.68 3.05,4.49 4.27,3.30 5.39,3.36 6.51,3.42 5.07,3.02 3.64,2.62 1.62,2.12 -0.39,1.62 -2.04,0.64 -3.70,-0.33 -3.84,-0.47 -3.99,-0.61 -4.09,-0.78 -4.20,-0.95 -4.26,-1.14 -4.33,-1.33 -4.34,-1.53 -4.36,-1.74 -4.32,-1.94 -4.29,-2.13 -4.21,-2.32 -4.13,-2.51 -4.01,-2.67 -3.88,-2.83 -3.73,-2.95 -3.57,-3.08 -3.39,-3.17 -3.20,-3.25 -3.01,-3.29 -2.81,-3.33 -2.61,-3.32 -2.40,-3.31 -2.21,-3.25 -2.02,-3.20 -1.84,-3.09 -1.67,-2.99 -1.12,-2.63 -0.58,-2.27 0.08,-1.70 0.75,-1.12 0.87,-1.02 0.99,-0.91 1.09,-0.78 1.18,-0.64 1.24,-0.49 1.30,-0.34 1.33,-0.18 1.35,-0.02 1.33,0.14 1.31,0.30 1.26,0.45 1.20,0.60 1.11,0.74 1.02,0.88 0.90,0.99 0.78,1.10 0.64,1.18 0.50,1.25 0.34,1.29 0.18,1.34 0.02,1.34 -0.14,1.34 -0.30,1.31 -0.45,1.27 -0.60,1.20 -0.75,1.12 -0.75,1.12 L -0.75,1.12 Z"></path></g><g transform="translate(458.1502198659816 205.3334065263635) rotate(0 -2.535718768502818 11.62204113130477)" stroke="none"><path fill="#1e1e1e" d="M 1.36,0.34 Q 1.36,0.34 1.22,1.85 1.09,3.37 0.68,4.75 0.28,6.14 -0.00,7.18 -0.28,8.23 -1.01,11.09 -1.73,13.95 -2.17,15.45 -2.61,16.95 -2.76,18.39 -2.91,19.83 -2.98,21.20 -3.04,22.57 -3.02,22.78 -3.00,22.99 -3.04,23.20 -3.09,23.41 -3.20,23.59 -3.31,23.77 -3.47,23.91 -3.64,24.05 -3.83,24.12 -4.03,24.20 -4.24,24.21 -4.46,24.22 -4.66,24.16 -4.87,24.11 -5.04,23.99 -5.22,23.87 -5.34,23.70 -5.47,23.53 -5.54,23.33 -5.61,23.12 -5.61,22.91 -5.60,22.70 -5.54,22.50 -5.47,22.30 -5.34,22.13 -5.21,21.96 -5.03,21.84 -4.86,21.72 -4.65,21.67 -4.45,21.61 -4.23,21.62 -4.02,21.64 -3.82,21.72 -3.63,21.79 -3.47,21.93 -3.30,22.07 -3.20,22.25 -3.09,22.44 -3.04,22.64 -3.00,22.85 -3.02,23.06 -3.05,23.27 -3.14,23.47 -3.23,23.66 -3.37,23.81 -3.52,23.97 -3.71,24.06 -3.90,24.16 -4.11,24.20 -4.32,24.23 -4.52,24.19 -4.73,24.16 -4.92,24.06 -5.11,23.96 -5.25,23.80 -5.40,23.65 -5.49,23.46 -5.58,23.26 -5.58,23.26 -5.58,23.26 -6.13,21.33 -6.67,19.40 -6.46,17.65 -6.24,15.89 -5.82,14.46 -5.40,13.02 -4.66,10.12 -3.92,7.23 -3.62,6.15 -3.33,5.07 -2.94,3.77 -2.55,2.46 -1.95,1.06 -1.36,-0.34 -1.29,-0.49 -1.23,-0.65 -1.14,-0.79 -1.04,-0.93 -0.91,-1.04 -0.79,-1.15 -0.64,-1.23 -0.49,-1.31 -0.32,-1.35 -0.16,-1.39 0.00,-1.39 0.17,-1.39 0.33,-1.35 0.50,-1.30 0.65,-1.23 0.80,-1.15 0.92,-1.03 1.05,-0.92 1.14,-0.78 1.24,-0.64 1.30,-0.48 1.36,-0.33 1.38,-0.16 1.40,0.00 1.38,0.17 1.36,0.34 1.36,0.34 L 1.36,0.34 Z"></path></g><g transform="translate(450.54306356047323 213.78580887003915) rotate(0 7.8184726515500245 0.6339296921257187)" stroke="none"><path fill="#1e1e1e" d="M 0.09,-1.36 Q 0.09,-1.36 1.81,-1.41 3.52,-1.46 4.79,-1.29 6.06,-1.11 7.23,-1.06 8.40,-1.00 9.63,-0.97 10.86,-0.95 12.87,-0.53 14.89,-0.12 15.09,-0.06 15.30,-0.01 15.48,0.10 15.65,0.21 15.78,0.38 15.92,0.55 15.99,0.75 16.06,0.95 16.06,1.16 16.06,1.38 15.99,1.58 15.93,1.78 15.80,1.95 15.68,2.12 15.50,2.24 15.33,2.36 15.12,2.42 14.92,2.48 14.71,2.47 14.49,2.46 14.30,2.39 14.10,2.31 13.93,2.18 13.77,2.04 13.66,1.86 13.55,1.68 13.50,1.47 13.45,1.26 13.47,1.05 13.49,0.84 13.58,0.65 13.67,0.45 13.81,0.30 13.96,0.14 14.14,0.04 14.33,-0.05 14.54,-0.09 14.75,-0.13 14.96,-0.09 15.17,-0.06 15.36,0.03 15.55,0.12 15.69,0.28 15.84,0.43 15.93,0.62 16.02,0.81 16.05,1.02 16.07,1.23 16.03,1.44 15.99,1.65 15.88,1.83 15.77,2.02 15.61,2.16 15.45,2.30 15.25,2.38 15.06,2.46 14.85,2.47 14.63,2.49 14.63,2.49 14.63,2.49 12.70,2.52 10.77,2.55 9.48,2.51 8.20,2.47 6.88,2.38 5.57,2.29 4.42,2.12 3.27,1.95 1.59,1.65 -0.09,1.36 -0.25,1.33 -0.42,1.29 -0.56,1.22 -0.71,1.16 -0.84,1.05 -0.97,0.95 -1.07,0.82 -1.17,0.69 -1.24,0.54 -1.30,0.39 -1.33,0.22 -1.36,0.06 -1.35,-0.09 -1.34,-0.26 -1.28,-0.41 -1.23,-0.57 -1.15,-0.71 -1.06,-0.85 -0.94,-0.96 -0.83,-1.08 -0.68,-1.16 -0.54,-1.25 -0.38,-1.29 -0.23,-1.34 -0.06,-1.35 0.09,-1.36 0.09,-1.36 L 0.09,-1.36 Z"></path></g><g transform="translate(371.09055504471735 213.78580887003915) rotate(0 -0.4226230190836304 7.818453305551117)" stroke="none"><path fill="#1e1e1e" d="M 1.38,0.09 Q 1.38,0.09 1.43,1.92 1.48,3.76 1.44,5.23 1.39,6.71 1.25,8.60 1.11,10.49 0.79,13.03 0.48,15.57 0.44,15.78 0.40,15.99 0.29,16.17 0.19,16.36 0.03,16.50 -0.12,16.64 -0.32,16.72 -0.51,16.80 -0.72,16.82 -0.94,16.84 -1.14,16.79 -1.35,16.73 -1.53,16.62 -1.70,16.50 -1.84,16.34 -1.97,16.17 -2.04,15.97 -2.11,15.77 -2.12,15.56 -2.12,15.35 -2.06,15.14 -2.00,14.94 -1.87,14.77 -1.75,14.60 -1.58,14.47 -1.40,14.35 -1.20,14.29 -1.00,14.23 -0.78,14.23 -0.57,14.24 -0.37,14.31 -0.17,14.39 -0.01,14.52 0.15,14.66 0.26,14.84 0.37,15.02 0.43,15.22 0.48,15.43 0.46,15.64 0.44,15.85 0.35,16.05 0.27,16.24 0.13,16.40 -0.01,16.56 -0.19,16.66 -0.38,16.76 -0.59,16.80 -0.79,16.84 -1.00,16.81 -1.21,16.78 -1.40,16.69 -1.59,16.59 -1.74,16.44 -1.89,16.29 -1.99,16.10 -2.08,15.91 -2.11,15.70 -2.14,15.49 -2.14,15.49 -2.14,15.49 -2.26,12.85 -2.37,10.22 -2.23,8.40 -2.08,6.59 -2.03,5.06 -1.97,3.52 -1.68,1.71 -1.38,-0.09 -1.35,-0.25 -1.32,-0.42 -1.25,-0.57 -1.18,-0.72 -1.07,-0.85 -0.97,-0.98 -0.84,-1.08 -0.71,-1.19 -0.55,-1.25 -0.40,-1.32 -0.23,-1.35 -0.07,-1.38 0.09,-1.37 0.25,-1.36 0.41,-1.31 0.57,-1.26 0.71,-1.17 0.86,-1.08 0.98,-0.96 1.09,-0.84 1.18,-0.70 1.26,-0.56 1.31,-0.40 1.36,-0.24 1.37,-0.07 1.38,0.09 1.38,0.09 L 1.38,0.09 Z"></path></g><g transform="translate(359.25718789437155 237.02991047864765) rotate(0 -1.0565430382098668 7.39583995946694)" stroke="none"><path fill="#1e1e1e" d="M 1.27,0.56 Q 1.27,0.56 0.96,1.72 0.65,2.89 0.43,5.26 0.21,7.63 0.02,9.04 -0.15,10.45 -0.46,12.38 -0.78,14.31 -0.82,14.52 -0.86,14.72 -0.97,14.91 -1.07,15.09 -1.23,15.23 -1.39,15.37 -1.59,15.46 -1.78,15.54 -1.99,15.55 -2.21,15.57 -2.41,15.52 -2.62,15.46 -2.80,15.35 -2.97,15.23 -3.11,15.07 -3.24,14.90 -3.31,14.70 -3.38,14.50 -3.39,14.29 -3.39,14.08 -3.33,13.87 -3.26,13.67 -3.14,13.50 -3.01,13.33 -2.84,13.20 -2.66,13.08 -2.46,13.02 -2.26,12.96 -2.05,12.97 -1.83,12.97 -1.63,13.05 -1.44,13.12 -1.27,13.26 -1.11,13.39 -0.99,13.57 -0.88,13.75 -0.83,13.96 -0.78,14.17 -0.80,14.38 -0.82,14.59 -0.90,14.78 -0.99,14.98 -1.13,15.14 -1.27,15.29 -1.46,15.40 -1.65,15.50 -1.86,15.54 -2.06,15.58 -2.27,15.55 -2.49,15.51 -2.67,15.42 -2.86,15.32 -3.01,15.17 -3.16,15.02 -3.26,14.83 -3.35,14.64 -3.38,14.43 -3.40,14.22 -3.40,14.22 -3.40,14.22 -3.50,12.13 -3.60,10.04 -3.46,8.73 -3.33,7.42 -3.23,5.85 -3.13,4.27 -2.86,2.87 -2.59,1.47 -1.93,0.45 -1.27,-0.56 -1.18,-0.70 -1.09,-0.85 -0.98,-0.97 -0.86,-1.09 -0.71,-1.17 -0.57,-1.26 -0.41,-1.31 -0.25,-1.36 -0.08,-1.37 0.07,-1.38 0.24,-1.35 0.40,-1.33 0.56,-1.26 0.71,-1.19 0.84,-1.09 0.97,-0.98 1.08,-0.85 1.18,-0.72 1.25,-0.57 1.32,-0.41 1.35,-0.25 1.38,-0.09 1.37,0.07 1.36,0.24 1.32,0.40 1.27,0.56 1.27,0.56 L 1.27,0.56 Z"></path></g><g transform="translate(355.87624243370044 243.36920739990472) rotate(0 5.705357556131901 -1.0565623842087746)" stroke="none"><path fill="#1e1e1e" d="M -0.14,-1.47 Q -0.14,-1.47 1.05,-1.71 2.25,-1.95 4.03,-2.15 5.81,-2.35 8.35,-2.78 10.89,-3.22 11.10,-3.24 11.31,-3.26 11.52,-3.21 11.72,-3.16 11.90,-3.05 12.08,-2.93 12.21,-2.77 12.35,-2.60 12.42,-2.40 12.50,-2.20 12.50,-1.99 12.51,-1.78 12.45,-1.58 12.39,-1.37 12.27,-1.20 12.14,-1.03 11.97,-0.90 11.80,-0.78 11.60,-0.71 11.39,-0.65 11.18,-0.65 10.97,-0.66 10.77,-0.73 10.57,-0.80 10.40,-0.94 10.24,-1.07 10.12,-1.25 10.01,-1.43 9.95,-1.63 9.90,-1.84 9.92,-2.05 9.93,-2.26 10.02,-2.46 10.10,-2.65 10.24,-2.81 10.38,-2.97 10.57,-3.08 10.75,-3.18 10.96,-3.22 11.17,-3.26 11.38,-3.24 11.59,-3.21 11.78,-3.11 11.97,-3.02 12.12,-2.87 12.27,-2.72 12.37,-2.53 12.46,-2.34 12.49,-2.13 12.52,-1.92 12.48,-1.71 12.44,-1.50 12.34,-1.32 12.24,-1.13 12.08,-0.99 11.92,-0.85 11.73,-0.76 11.53,-0.68 11.53,-0.68 11.53,-0.68 8.91,0.20 6.28,1.08 4.44,1.27 2.60,1.46 1.37,1.46 0.14,1.47 -0.03,1.46 -0.20,1.46 -0.38,1.41 -0.55,1.37 -0.70,1.28 -0.86,1.19 -0.99,1.07 -1.12,0.95 -1.22,0.80 -1.32,0.65 -1.38,0.49 -1.44,0.32 -1.46,0.14 -1.47,-0.03 -1.45,-0.20 -1.42,-0.38 -1.36,-0.54 -1.29,-0.71 -1.19,-0.85 -1.08,-1.00 -0.95,-1.11 -0.81,-1.23 -0.65,-1.31 -0.49,-1.39 -0.32,-1.43 -0.14,-1.47 -0.14,-1.47 L -0.14,-1.47 Z"></path></g><g transform="translate(370.66792235263426 246.7501528605759) rotate(0 1.4791757302929511 3.3809648066700504)" stroke="none"><path fill="#1e1e1e" d="M 1.30,0.47 Q 1.30,0.47 0.96,1.86 0.62,3.25 0.18,4.53 -0.26,5.82 -0.69,7.09 -1.12,8.37 -1.38,9.03 -1.64,9.68 -1.72,9.87 -1.80,10.06 -1.92,10.22 -2.04,10.38 -2.19,10.51 -2.35,10.64 -2.53,10.73 -2.71,10.82 -2.91,10.86 -3.11,10.91 -3.31,10.90 -3.51,10.89 -3.71,10.84 -3.90,10.79 -4.08,10.69 -4.25,10.59 -4.40,10.45 -4.55,10.31 -4.66,10.14 -4.77,9.97 -4.84,9.78 -4.90,9.59 -4.92,9.39 -4.94,9.19 -4.91,8.99 -4.88,8.79 -4.52,7.04 -4.17,5.30 -2.93,2.56 -1.69,-0.16 -0.38,-1.55 0.92,-2.93 2.41,-3.49 3.89,-4.04 5.17,-3.55 6.46,-3.05 7.07,-1.81 7.67,-0.56 7.84,0.97 8.01,2.50 7.96,3.70 7.90,4.90 7.33,7.31 6.77,9.71 6.75,9.93 6.74,10.14 6.65,10.33 6.57,10.53 6.43,10.69 6.29,10.85 6.10,10.95 5.92,11.06 5.71,11.10 5.50,11.14 5.29,11.11 5.08,11.08 4.89,10.99 4.70,10.90 4.55,10.75 4.40,10.60 4.30,10.41 4.21,10.22 4.18,10.01 4.15,9.80 4.19,9.59 4.23,9.38 4.33,9.19 4.44,9.01 4.59,8.86 4.75,8.72 4.95,8.64 5.14,8.55 5.35,8.53 5.56,8.52 5.77,8.57 5.98,8.62 6.16,8.73 6.34,8.84 6.47,9.01 6.60,9.17 6.68,9.37 6.75,9.57 6.76,9.79 6.76,10.00 6.70,10.20 6.64,10.40 6.52,10.58 6.39,10.75 6.22,10.88 6.05,11.00 5.85,11.06 5.64,11.13 5.43,11.12 5.22,11.12 5.02,11.04 4.82,10.97 4.65,10.84 4.49,10.71 4.37,10.53 4.26,10.35 4.21,10.14 4.15,9.94 4.15,9.94 4.15,9.94 4.00,8.14 3.85,6.34 4.08,4.58 4.31,2.82 3.81,1.21 3.32,-0.40 2.36,0.53 1.41,1.46 0.26,3.83 -0.88,6.19 -1.26,7.94 -1.64,9.68 -1.72,9.87 -1.80,10.06 -1.92,10.22 -2.04,10.38 -2.19,10.51 -2.35,10.64 -2.53,10.73 -2.71,10.82 -2.91,10.86 -3.11,10.91 -3.31,10.90 -3.51,10.89 -3.71,10.84 -3.90,10.79 -4.08,10.69 -4.25,10.59 -4.40,10.45 -4.55,10.31 -4.66,10.14 -4.77,9.97 -4.84,9.78 -4.90,9.59 -4.92,9.39 -4.94,9.19 -4.91,8.99 -4.88,8.79 -4.61,8.03 -4.35,7.28 -3.91,5.99 -3.47,4.71 -3.02,3.40 -2.57,2.09 -1.94,0.80 -1.30,-0.47 -1.23,-0.62 -1.15,-0.77 -1.04,-0.90 -0.93,-1.02 -0.80,-1.12 -0.66,-1.22 -0.50,-1.28 -0.35,-1.34 -0.18,-1.36 -0.01,-1.39 0.14,-1.37 0.31,-1.35 0.47,-1.29 0.62,-1.24 0.76,-1.14 0.90,-1.05 1.02,-0.92 1.13,-0.80 1.21,-0.65 1.29,-0.51 1.33,-0.34 1.37,-0.18 1.38,-0.01 1.38,0.14 1.34,0.31 1.30,0.47 1.30,0.47 L 1.30,0.47 Z"></path></g><g transform="translate(322.10049342187824 168.84501651624697) rotate(0 49.57873206352551 16.389667625735385)" stroke="none"><path fill="#1971c2" d="M 0.11,-1.40 Q 0.11,-1.40 1.05,-1.36 1.99,-1.31 3.51,-1.64 5.03,-1.96 6.38,-2.15 7.72,-2.33 10.18,-2.55 12.64,-2.76 14.11,-2.94 15.59,-3.12 16.99,-3.20 18.39,-3.28 19.90,-3.39 21.41,-3.49 23.12,-3.68 24.83,-3.88 26.37,-4.05 27.90,-4.22 29.58,-4.37 31.27,-4.52 32.72,-4.58 34.17,-4.64 35.69,-4.75 37.22,-4.86 38.65,-4.98 40.08,-5.10 41.22,-5.23 42.36,-5.36 43.48,-5.49 44.60,-5.63 46.57,-6.01 48.55,-6.39 49.73,-6.78 50.90,-7.16 52.67,-6.53 54.44,-5.90 54.35,-4.37 54.26,-2.84 54.33,-0.85 54.40,1.13 54.44,2.46 54.48,3.79 54.49,5.37 54.51,6.95 54.51,8.56 54.52,10.18 54.52,11.88 54.53,13.59 54.60,15.38 54.68,17.17 54.64,18.63 54.60,20.10 54.58,21.46 54.56,22.83 54.47,24.09 54.38,25.35 54.18,26.57 53.98,27.79 53.79,29.74 53.60,31.68 53.53,33.28 53.46,34.88 53.05,35.94 52.63,36.99 51.80,37.84 50.96,38.69 52.43,38.11 53.90,37.52 55.76,37.43 57.62,37.34 58.75,37.25 59.89,37.16 61.24,37.05 62.60,36.94 64.12,36.81 65.64,36.68 67.31,36.55 68.98,36.41 70.87,36.27 72.77,36.14 74.42,36.00 76.08,35.87 78.01,35.81 79.93,35.75 82.97,35.49 86.01,35.23 88.29,34.88 90.57,34.53 92.59,34.04 94.61,33.54 96.55,33.06 98.49,32.57 98.70,32.55 98.91,32.52 99.12,32.57 99.32,32.61 99.51,32.72 99.69,32.83 99.83,32.99 99.97,33.15 100.05,33.35 100.13,33.55 100.14,33.76 100.15,33.97 100.10,34.18 100.04,34.38 99.92,34.56 99.80,34.73 99.64,34.86 99.47,34.99 99.27,35.06 99.07,35.13 98.85,35.13 98.64,35.13 98.44,35.07 98.24,35.00 98.07,34.87 97.90,34.75 97.78,34.57 97.66,34.40 97.60,34.19 97.54,33.99 97.55,33.77 97.56,33.56 97.64,33.36 97.72,33.17 97.85,33.00 97.99,32.84 98.17,32.73 98.35,32.62 98.56,32.57 98.77,32.53 98.98,32.55 99.19,32.57 99.38,32.66 99.58,32.75 99.73,32.89 99.89,33.04 99.99,33.22 100.09,33.41 100.12,33.62 100.16,33.83 100.13,34.04 100.09,34.25 99.99,34.44 99.90,34.63 99.74,34.77 99.59,34.92 99.40,35.01 99.20,35.10 99.20,35.10 99.20,35.10 97.27,35.72 95.33,36.34 93.17,36.92 91.01,37.50 88.64,37.85 86.26,38.19 83.14,38.45 80.02,38.71 78.17,38.77 76.32,38.82 74.65,38.96 72.98,39.10 71.10,39.23 69.22,39.37 67.55,39.50 65.89,39.62 64.37,39.76 62.85,39.89 61.49,40.01 60.12,40.13 58.05,40.26 55.98,40.38 54.90,40.46 53.82,40.54 52.11,40.38 50.40,40.22 49.31,39.47 48.22,38.73 48.43,37.67 48.64,36.61 49.52,35.67 50.39,34.73 50.46,33.04 50.53,31.35 50.73,29.31 50.94,27.27 51.12,26.20 51.31,25.13 51.39,23.96 51.47,22.79 51.49,21.39 51.51,20.00 51.56,18.65 51.61,17.31 51.52,15.45 51.44,13.59 51.44,11.89 51.44,10.19 51.43,8.58 51.43,6.98 51.42,5.42 51.40,3.87 51.37,2.62 51.35,1.37 51.27,0.31 51.18,-0.74 51.19,-1.81 51.19,-2.87 51.98,-3.75 52.76,-4.63 51.74,-4.30 50.71,-3.97 48.92,-3.56 47.13,-3.15 46.04,-2.93 44.95,-2.71 43.82,-2.57 42.69,-2.44 41.51,-2.30 40.33,-2.17 38.87,-2.05 37.42,-1.93 35.86,-1.82 34.30,-1.72 32.91,-1.65 31.53,-1.59 29.87,-1.44 28.22,-1.30 26.70,-1.13 25.17,-0.97 23.40,-0.76 21.62,-0.54 20.09,-0.42 18.56,-0.30 17.25,-0.23 15.94,-0.15 14.36,0.03 12.78,0.22 10.45,0.43 8.11,0.64 6.87,0.79 5.63,0.94 3.70,1.29 1.77,1.63 0.82,1.51 -0.11,1.40 -0.28,1.37 -0.45,1.33 -0.60,1.26 -0.75,1.19 -0.89,1.08 -1.02,0.97 -1.12,0.83 -1.22,0.70 -1.29,0.54 -1.35,0.38 -1.38,0.22 -1.41,0.05 -1.39,-0.11 -1.38,-0.28 -1.32,-0.44 -1.27,-0.60 -1.18,-0.75 -1.09,-0.89 -0.96,-1.01 -0.84,-1.13 -0.69,-1.21 -0.55,-1.30 -0.38,-1.34 -0.22,-1.39 -0.05,-1.40 0.11,-1.40 0.11,-1.40 L 0.11,-1.40 Z"></path></g><g transform="translate(367.4452238473141 179.77145743196252) rotate(0 12.019093760313964 4.78032180822683)" stroke="none"><path fill="#1971c2" d="M 1.32,-0.31 Q 1.32,-0.31 1.80,1.64 2.29,3.60 2.57,4.74 2.85,5.89 3.45,7.61 4.05,9.33 4.66,11.15 5.27,12.97 5.81,13.99 6.35,15.02 6.47,13.93 6.58,12.84 7.47,11.63 8.36,10.43 9.85,9.21 11.35,7.99 12.14,7.09 12.93,6.20 13.73,5.13 14.53,4.06 15.86,2.52 17.19,0.98 18.39,-0.83 19.59,-2.65 20.97,-4.64 22.35,-6.64 22.49,-6.80 22.63,-6.95 22.82,-7.06 23.00,-7.16 23.21,-7.20 23.42,-7.24 23.63,-7.21 23.84,-7.18 24.03,-7.08 24.22,-6.99 24.37,-6.83 24.52,-6.68 24.61,-6.49 24.71,-6.30 24.74,-6.09 24.76,-5.88 24.72,-5.67 24.68,-5.46 24.57,-5.28 24.47,-5.09 24.31,-4.95 24.15,-4.81 23.96,-4.73 23.76,-4.65 23.55,-4.63 23.34,-4.62 23.13,-4.67 22.92,-4.72 22.75,-4.84 22.57,-4.95 22.44,-5.12 22.30,-5.28 22.23,-5.48 22.16,-5.68 22.15,-5.90 22.15,-6.11 22.21,-6.31 22.28,-6.51 22.40,-6.69 22.53,-6.86 22.70,-6.98 22.87,-7.10 23.08,-7.17 23.28,-7.23 23.49,-7.22 23.71,-7.21 23.90,-7.14 24.10,-7.06 24.27,-6.93 24.43,-6.79 24.55,-6.62 24.66,-6.44 24.71,-6.23 24.76,-6.02 24.74,-5.81 24.72,-5.60 24.64,-5.40 24.55,-5.21 24.55,-5.21 24.55,-5.21 23.29,-3.12 22.02,-1.03 20.71,0.92 19.39,2.89 18.12,4.34 16.84,5.80 15.96,6.96 15.08,8.13 13.38,9.80 11.67,11.47 10.51,12.60 9.35,13.73 8.87,14.90 8.38,16.07 7.28,16.80 6.18,17.53 5.03,16.97 3.88,16.40 3.25,15.11 2.61,13.81 2.03,12.07 1.45,10.33 0.79,8.44 0.14,6.55 -0.13,5.40 -0.41,4.25 -0.86,2.28 -1.32,0.31 -1.33,0.15 -1.35,-0.00 -1.33,-0.17 -1.31,-0.33 -1.25,-0.48 -1.19,-0.63 -1.10,-0.77 -1.01,-0.90 -0.88,-1.01 -0.76,-1.12 -0.61,-1.19 -0.47,-1.27 -0.31,-1.31 -0.15,-1.34 0.00,-1.34 0.17,-1.34 0.33,-1.30 0.48,-1.26 0.63,-1.18 0.77,-1.11 0.90,-1.00 1.02,-0.89 1.11,-0.75 1.20,-0.62 1.26,-0.47 1.32,-0.31 1.32,-0.31 L 1.32,-0.31 Z"></path></g></svg>