<svg version="1.1" xmlns="http://www.w3.org/2000/svg" viewBox="0 0 1448.1083852989982 369.9783528187913" width="1448.1083852989982" height="369.9783528187913" class="excalidraw-svg"><!-- svg-source:excalidraw --><metadata></metadata><defs><style class="style-fonts">
      </style></defs><rect x="0" y="0" width="1448.1083852989982" height="369.9783528187913" fill="#ffffff"></rect><g stroke-linecap="round" transform="translate(211.89506572097036 10) rotate(0 88.66667175292969 100.66667175292969)"><path d="M32 0 C69.74 -0.55, 106.55 -1.48, 145.33 0 M32 0 C75.35 0.03, 120.8 1.13, 145.33 0 M145.33 0 C166.31 0.47, 177.92 10, 177.33 32 M145.33 0 C165.55 -1.89, 175.94 11.46, 177.33 32 M177.33 32 C177.51 59.13, 174.7 88.82, 177.33 169.33 M177.33 32 C178.14 71.26, 177.63 110.43, 177.33 169.33 M177.33 169.33 C177.55 190.22, 165.08 201.66, 145.33 201.33 M177.33 169.33 C178.88 188.7, 167.92 203.07, 145.33 201.33 M145.33 201.33 C110.7 199.9, 74.19 199.21, 32 201.33 M145.33 201.33 C120.75 201.87, 97.85 201.78, 32 201.33 M32 201.33 C9.87 200.31, -1.28 189.89, 0 169.33 M32 201.33 C12.07 201.81, -1.06 191.2, 0 169.33 M0 169.33 C-1.05 116.4, -2.7 65.32, 0 32 M0 169.33 C0.69 128.58, 1.84 87.98, 0 32 M0 32 C0.63 10.89, 10.62 1, 32 0 M0 32 C-2.08 12.39, 8.47 0.49, 32 0" stroke="#1e1e1e" stroke-width="1" fill="none"></path></g><g stroke-linecap="round" transform="translate(908.8477518494193 152.38620612714445) rotate(0 88.66667175292969 100.66667175292969)"><path d="M32 0 C67.73 -1.54, 103.18 0.73, 145.33 0 M32 0 C70.72 -0.74, 108.95 0.13, 145.33 0 M145.33 0 C167.56 1.62, 175.82 8.79, 177.33 32 M145.33 0 C165.11 0.36, 177.74 10.78, 177.33 32 M177.33 32 C175.92 75.2, 179.52 115.17, 177.33 169.33 M177.33 32 C177.08 79.29, 176.05 126.19, 177.33 169.33 M177.33 169.33 C177.07 191.63, 165.19 200.23, 145.33 201.33 M177.33 169.33 C177.64 192.74, 167.9 202.27, 145.33 201.33 M145.33 201.33 C115.44 200.51, 82.62 200.35, 32 201.33 M145.33 201.33 C104.95 200.74, 63.61 202.27, 32 201.33 M32 201.33 C9.85 202.82, -1.91 188.94, 0 169.33 M32 201.33 C9.67 200.53, -1.77 189.54, 0 169.33 M0 169.33 C-2.99 120.4, -1.09 67.6, 0 32 M0 169.33 C-0.01 123.24, 0.43 76.13, 0 32 M0 32 C1.24 11.66, 12.05 -0.53, 32 0 M0 32 C-0.07 10.83, 8.4 -1.34, 32 0" stroke="#1e1e1e" stroke-width="1" fill="none"></path></g><g stroke-linecap="round" transform="translate(550.9472784509245 158.6450093129319) rotate(0 88.66667175292969 100.66667175292969)"><path d="M32 0 C71.34 -0.83, 108.24 -2.35, 145.33 0 M32 0 C66.56 -1.26, 98.56 -1.18, 145.33 0 M145.33 0 C166.98 0.36, 177.43 10.85, 177.33 32 M145.33 0 C167.64 -1.54, 175.04 11.52, 177.33 32 M177.33 32 C174.46 82.95, 177.94 136.86, 177.33 169.33 M177.33 32 C177.78 70.59, 176.75 110.79, 177.33 169.33 M177.33 169.33 C179.13 191.74, 167.48 200.73, 145.33 201.33 M177.33 169.33 C175.9 191.24, 167.44 200.06, 145.33 201.33 M145.33 201.33 C120.68 202.07, 95.86 200.72, 32 201.33 M145.33 201.33 C117.7 199.91, 87.72 200.44, 32 201.33 M32 201.33 C9.97 199.8, -0.98 192.04, 0 169.33 M32 201.33 C12.67 202.26, -2.06 192.65, 0 169.33 M0 169.33 C1.07 128.77, 1.34 85.59, 0 32 M0 169.33 C1.61 115.42, 0.84 60.09, 0 32 M0 32 C0.14 8.69, 9.5 -1.25, 32 0 M0 32 C1.64 10.23, 8.8 -1.12, 32 0" stroke="#1e1e1e" stroke-width="1" fill="none"></path></g><g stroke-linecap="round" transform="translate(390.2570079075591 98.59229299892974) rotate(0 13.905280704163417 12.746507312149802)"><path d="M13.17 -0.42 C15.98 -0.63, 20.04 1.34, 22.49 3.06 C24.94 4.78, 27.22 7.32, 27.88 9.9 C28.55 12.48, 27.87 16.02, 26.48 18.52 C25.09 21.01, 22.33 23.87, 19.54 24.87 C16.75 25.86, 12.71 25.4, 9.75 24.49 C6.79 23.58, 3.43 21.61, 1.77 19.43 C0.11 17.24, -0.75 14.09, -0.22 11.4 C0.31 8.71, 2.57 5.13, 4.93 3.29 C7.3 1.46, 12.46 0.95, 13.99 0.39 C15.51 -0.17, 14.1 -0.17, 14.08 -0.08 M16.62 0.84 C19.26 1.2, 22.08 3.25, 24.01 5.26 C25.94 7.27, 27.99 10.24, 28.2 12.9 C28.41 15.55, 27.35 19.2, 25.28 21.19 C23.21 23.18, 18.91 24.29, 15.78 24.83 C12.65 25.38, 8.91 25.72, 6.5 24.48 C4.09 23.23, 2.37 20.04, 1.32 17.35 C0.27 14.66, -0.74 11.03, 0.2 8.34 C1.14 5.65, 4.2 2.5, 6.98 1.21 C9.76 -0.08, 15.42 0.7, 16.87 0.6 C18.33 0.5, 15.91 0.36, 15.71 0.61" stroke="#1e1e1e" stroke-width="1" fill="none"></path></g><g stroke-linecap="round" transform="translate(1087.8385898997572 244.2115061706127) rotate(0 12.167120616142995 11.201473175885184)"><path d="M12.72 -0.01 C15.26 -0.19, 18.76 1.06, 20.62 2.6 C22.49 4.13, 23.62 6.84, 23.9 9.22 C24.18 11.6, 23.58 14.74, 22.32 16.86 C21.07 18.98, 18.76 21.23, 16.37 21.94 C13.97 22.66, 10.4 21.97, 7.96 21.13 C5.52 20.29, 3.01 18.98, 1.73 16.91 C0.45 14.84, -0.18 11.14, 0.28 8.71 C0.75 6.29, 2.43 3.89, 4.51 2.36 C6.59 0.84, 11.38 -0.12, 12.75 -0.44 C14.12 -0.76, 12.73 0.26, 12.73 0.44 M13.6 -0.19 C16.09 0.03, 19.62 2.02, 21.5 3.94 C23.38 5.86, 24.92 8.81, 24.86 11.31 C24.79 13.81, 22.97 17.22, 21.11 18.92 C19.24 20.62, 16.15 21.19, 13.69 21.53 C11.23 21.87, 8.59 22.16, 6.35 20.98 C4.11 19.8, 1.22 16.63, 0.26 14.46 C-0.69 12.3, -0.45 10.23, 0.61 8 C1.66 5.77, 4.38 2.38, 6.57 1.09 C8.76 -0.2, 12.48 0.42, 13.75 0.26 C15.02 0.1, 14.05 -0.12, 14.2 0.16" stroke="#1e1e1e" stroke-width="1" fill="none"></path></g><g stroke-linecap="round" transform="translate(1333.1122794216535 246.14278336964955) rotate(0 10.815230113112989 13.132768056400792)"><path d="M12.11 -0.3 C14.37 0.03, 17.2 2.78, 18.86 4.88 C20.51 6.98, 22 9.62, 22.04 12.3 C22.07 14.98, 20.51 18.62, 19.06 20.97 C17.61 23.33, 15.62 25.81, 13.34 26.45 C11.06 27.09, 7.51 26.16, 5.38 24.83 C3.24 23.49, 1.26 21.12, 0.53 18.43 C-0.21 15.73, 0.26 11.36, 0.96 8.64 C1.67 5.92, 2.77 3.54, 4.75 2.1 C6.73 0.65, 11.44 0.18, 12.87 -0.06 C14.29 -0.29, 13.26 0.4, 13.31 0.66 M9.37 0.05 C11.56 -0.47, 15.15 0.77, 17.06 2.41 C18.97 4.06, 20.33 7.38, 20.83 9.95 C21.32 12.52, 20.93 15.42, 20.05 17.84 C19.18 20.26, 17.66 23.23, 15.58 24.48 C13.5 25.73, 9.81 25.99, 7.55 25.33 C5.28 24.67, 3.3 22.59, 1.99 20.53 C0.68 18.47, -0.41 15.66, -0.33 12.98 C-0.25 10.31, 0.86 6.53, 2.47 4.47 C4.09 2.41, 8.1 1.39, 9.39 0.64 C10.68 -0.1, 10.22 -0.1, 10.22 0.02" stroke="#1e1e1e" stroke-width="1" fill="none"></path></g><g stroke-linecap="round"><g transform="translate(1116.0354208930744 254.25419711374488) rotate(0 108.73158173826369 2.703807528278233)"><path d="M0.87 0.12 C37.07 1.02, 181.56 5.6, 217.49 6.44 M-0.14 -0.86 C35.88 0.24, 180.06 3.66, 216.56 4.86" stroke="#1e1e1e" stroke-width="1" fill="none"></path></g></g><mask></mask><g stroke-linecap="round"><g transform="translate(731.1496214675235 255.60829669454557) rotate(0 86.75725204675274 1.290065887531938)"><path d="M0.19 0.4 C29.09 0.8, 143.67 2.73, 172.42 3.02 M-1.17 -0.43 C28.18 -0.46, 145.17 0.52, 174.55 1.12" stroke="#1e1e1e" stroke-width="1" fill="none"></path></g></g><mask></mask><g stroke-linecap="round"><g transform="translate(423.4677335779024 109.83027561957584) rotate(0 26.123933877420683 0.6450255619215852)"><path d="M-0.86 0.36 C7.71 0.33, 43.43 0.19, 52.24 0.33 M0.89 -0.5 C9.23 -0.45, 42.92 0.87, 51.29 1.37" stroke="#1e1e1e" stroke-width="1" fill="none"></path></g></g><mask></mask><g stroke-linecap="round"><g transform="translate(476.3605973672878 112.41040739463972) rotate(0 0.3225275446495459 46.12003633445377)"><path d="M0.64 -0.47 C1.09 14.75, 1.58 76.45, 1.61 91.89 M-0.49 -1.77 C-0.01 13.59, 1.06 77.37, 1.16 93.24" stroke="#1e1e1e" stroke-width="1" fill="none"></path></g></g><mask></mask><g stroke-linecap="round"><g transform="translate(477.650707545886 202.715373850405) rotate(0 36.76701804970321 -0.9675531065711311)"><path d="M-0.51 -0.44 C11.97 -0.74, 61.45 -1, 73.86 -1.35 M1.42 -1.72 C13.86 -2.41, 61.09 -3.19, 73.08 -3.16" stroke="#1e1e1e" stroke-width="1" fill="none"></path></g></g><mask></mask><g stroke-linecap="round"><g transform="translate(547.3145312190079 284.6348898916796) rotate(0 -218.02197652315533 2.9026593197133934)"><path d="M-0.17 -0.99 C-72.88 0.02, -363.75 4.03, -436.25 5.01 M-1.72 1.1 C-74.61 2.34, -365.01 5.35, -437.3 6.13" stroke="#1e1e1e" stroke-width="1" fill="none"></path></g></g><mask></mask><g stroke-linecap="round" transform="translate(84.17906166132775 282.0547285892382) rotate(0 15.158336924177434 10.320556627632953)"><path d="M14.36 -0.35 C17.54 -0.59, 21.99 0.58, 24.54 1.99 C27.1 3.4, 29.05 5.9, 29.68 8.11 C30.31 10.31, 29.73 13.35, 28.3 15.22 C26.87 17.09, 23.94 18.55, 21.11 19.32 C18.28 20.09, 14.48 20.33, 11.34 19.84 C8.19 19.34, 4.06 18.18, 2.24 16.35 C0.42 14.52, -0.06 11.17, 0.42 8.85 C0.9 6.53, 2.74 3.92, 5.12 2.45 C7.51 0.98, 13.15 0.47, 14.72 0.02 C16.3 -0.43, 14.66 -0.51, 14.56 -0.26 M13.43 -0.48 C16.45 -0.75, 20.74 0.16, 23.4 1.51 C26.05 2.85, 28.51 5.34, 29.37 7.59 C30.23 9.84, 29.86 12.86, 28.57 14.99 C27.28 17.13, 24.67 19.41, 21.62 20.38 C18.58 21.35, 13.56 21.46, 10.31 20.8 C7.06 20.13, 3.85 18.45, 2.13 16.4 C0.41 14.35, -0.51 10.69, -0.03 8.5 C0.46 6.31, 2.66 4.57, 5.03 3.26 C7.4 1.96, 12.65 1.13, 14.2 0.67 C15.76 0.21, 14.49 0.34, 14.38 0.5" stroke="#1e1e1e" stroke-width="1" fill="none"></path></g><g stroke-linecap="round" transform="translate(89.33935473883298 100.154715026487) rotate(0 14.51329659856708 13.8682562729567)"><path d="M16.22 -0.09 C19.25 -0.13, 22.56 1.72, 24.72 3.83 C26.88 5.93, 28.89 9.52, 29.2 12.55 C29.51 15.57, 28.31 19.56, 26.56 22 C24.81 24.44, 21.7 26.39, 18.7 27.18 C15.71 27.97, 11.44 28.05, 8.58 26.71 C5.72 25.38, 2.84 21.88, 1.56 19.19 C0.28 16.5, 0.1 13.29, 0.91 10.56 C1.71 7.82, 3.78 4.46, 6.39 2.77 C9 1.08, 14.7 0.87, 16.58 0.43 C18.46 0, 17.61 0.06, 17.67 0.18 M14.05 0.22 C16.92 -0.06, 20.66 0.39, 23.11 2.27 C25.56 4.14, 28.02 8.42, 28.75 11.46 C29.48 14.51, 29.07 18.02, 27.51 20.54 C25.95 23.06, 22.2 25.58, 19.39 26.57 C16.58 27.56, 13.44 27.3, 10.64 26.47 C7.84 25.64, 4.35 24.13, 2.6 21.6 C0.85 19.06, -0.24 14.25, 0.16 11.25 C0.56 8.26, 2.72 5.55, 4.98 3.61 C7.24 1.68, 12.29 0.12, 13.73 -0.35 C15.16 -0.82, 13.55 0.55, 13.6 0.78" stroke="#1e1e1e" stroke-width="1" fill="none"></path></g><g stroke-linecap="round"><g transform="translate(119.65599905981031 114.9905391697036) rotate(0 45.15248322788264 0.3225127809607784)"><path d="M0.95 0.48 C16.31 0.69, 76.39 0.37, 91.25 0.21 M-0.01 -0.31 C15.36 0.15, 75.92 1.43, 90.81 1.52" stroke="#1e1e1e" stroke-width="1" fill="none"></path></g></g><mask></mask><g transform="translate(271.88439386350586 106.6050592278354) rotate(0 29.026593197134105 20.318615237993882)" stroke="none"><path fill="#1e1e1e" d="M -0.60,-1.42 Q -0.60,-1.42 0.56,-2.25 1.74,-3.09 4.42,-4.58 7.10,-6.08 10.06,-8.00 13.03,-9.91 14.72,-10.94 16.40,-11.97 20.72,-15.30 25.04,-18.63 28.96,-21.57 32.89,-24.51 36.08,-26.70 39.26,-28.90 42.45,-30.30 45.65,-31.69 48.08,-32.64 50.51,-33.59 52.33,-33.90 54.15,-34.20 55.29,-34.11 56.43,-34.03 57.43,-33.61 58.43,-33.18 59.15,-32.21 59.87,-31.23 59.90,-29.74 59.93,-28.25 59.50,-26.38 59.08,-24.51 58.16,-21.15 57.24,-17.80 55.89,-14.07 54.55,-10.34 52.89,-5.82 51.23,-1.29 49.42,3.43 47.62,8.15 46.15,13.73 44.69,19.30 43.13,25.78 41.57,32.26 40.17,38.35 38.76,44.44 37.22,50.23 35.68,56.01 34.47,60.16 33.26,64.30 32.42,66.90 31.59,69.49 30.99,71.15 30.40,72.81 30.35,73.01 30.30,73.22 30.18,73.40 30.07,73.58 29.90,73.71 29.73,73.84 29.54,73.92 29.34,73.99 29.12,73.99 28.91,74.00 28.71,73.94 28.50,73.87 28.33,73.75 28.16,73.62 28.04,73.45 27.91,73.28 27.85,73.08 27.79,72.87 27.80,72.66 27.80,72.45 27.88,72.25 27.95,72.05 28.08,71.88 28.22,71.72 28.40,71.60 28.58,71.49 28.78,71.44 28.99,71.39 29.20,71.41 29.41,71.42 29.61,71.51 29.80,71.59 29.96,71.74 30.12,71.88 30.22,72.06 30.33,72.25 30.36,72.46 30.40,72.67 30.38,72.88 30.35,73.09 30.25,73.28 30.16,73.47 30.01,73.62 29.85,73.77 29.66,73.86 29.47,73.95 29.26,73.98 29.05,74.01 28.84,73.97 28.64,73.93 28.45,73.82 28.27,73.72 28.12,73.56 27.98,73.40 27.90,73.21 27.82,73.01 27.80,72.80 27.78,72.59 27.78,72.59 27.78,72.59 27.51,70.48 27.23,68.37 27.79,65.62 28.35,62.86 29.55,58.78 30.75,54.70 32.26,49.00 33.77,43.29 35.18,37.17 36.60,31.06 38.18,24.53 39.77,18.00 41.34,12.16 42.91,6.33 44.75,1.65 46.59,-3.01 48.27,-7.51 49.96,-12.00 51.25,-15.55 52.53,-19.10 53.44,-22.37 54.35,-25.65 54.53,-27.67 54.71,-29.68 53.39,-29.58 52.07,-29.47 49.72,-28.58 47.37,-27.69 44.55,-26.49 41.72,-25.30 38.62,-23.16 35.51,-21.01 31.60,-18.09 27.69,-15.18 23.18,-11.71 18.67,-8.25 17.03,-7.24 15.40,-6.24 12.30,-4.26 9.20,-2.28 6.32,-0.70 3.44,0.86 2.02,1.14 0.60,1.42 0.42,1.47 0.25,1.52 0.06,1.53 -0.12,1.54 -0.30,1.50 -0.48,1.46 -0.65,1.38 -0.82,1.30 -0.96,1.19 -1.11,1.07 -1.22,0.92 -1.33,0.77 -1.41,0.60 -1.48,0.43 -1.51,0.24 -1.54,0.06 -1.52,-0.12 -1.51,-0.30 -1.45,-0.48 -1.39,-0.65 -1.29,-0.81 -1.19,-0.97 -1.06,-1.10 -0.93,-1.23 -0.76,-1.32 -0.60,-1.42 -0.60,-1.42 L -0.60,-1.42 Z"></path></g><g transform="translate(647.294999213107 266.57387888410005) rotate(0 -16.770930356358917 -14.19081334498378)" stroke="none"><path fill="#1e1e1e" d="M 0.78,1.57 Q 0.78,1.57 -0.17,2.35 -1.13,3.12 -1.74,4.44 -2.35,5.76 -2.88,7.42 -3.41,9.07 -4.00,11.42 -4.59,13.76 -5.43,16.35 -6.26,18.93 -6.83,20.28 -7.40,21.63 -8.95,24.65 -10.51,27.68 -12.38,30.21 -14.24,32.73 -16.65,34.84 -19.06,36.96 -21.14,38.12 -23.22,39.28 -25.75,39.99 -28.28,40.70 -30.81,40.82 -33.34,40.94 -36.00,40.58 -38.67,40.23 -40.81,39.22 -42.95,38.22 -44.93,36.32 -46.92,34.42 -48.21,31.92 -49.51,29.43 -50.23,27.00 -50.95,24.58 -51.27,21.57 -51.58,18.56 -51.70,15.82 -51.82,13.08 -51.68,10.89 -51.54,8.69 -51.08,6.70 -50.62,4.70 -49.83,2.67 -49.04,0.63 -48.14,-1.33 -47.24,-3.31 -45.78,-5.11 -44.32,-6.92 -42.56,-8.60 -40.81,-10.28 -39.24,-11.42 -37.67,-12.57 -35.99,-13.47 -34.31,-14.37 -32.79,-14.96 -31.26,-15.55 -29.98,-16.12 -28.71,-16.69 -26.83,-17.51 -24.95,-18.32 -22.78,-19.07 -20.60,-19.82 -18.69,-20.65 -16.77,-21.47 -15.22,-22.64 -13.66,-23.81 -12.10,-25.36 -10.55,-26.91 -8.95,-28.68 -7.35,-30.46 -5.03,-32.29 -2.70,-34.13 -0.28,-35.97 2.13,-37.81 3.94,-39.76 5.75,-41.72 7.20,-43.93 8.66,-46.15 10.06,-48.27 11.47,-50.39 13.01,-52.61 14.55,-54.82 15.50,-56.58 16.45,-58.34 16.98,-60.02 17.51,-61.69 17.36,-62.97 17.21,-64.24 15.56,-65.88 13.91,-67.52 12.44,-67.97 10.96,-68.41 9.12,-68.63 7.28,-68.85 4.04,-68.59 0.79,-68.32 -2.25,-67.85 -5.30,-67.38 -8.06,-66.31 -10.83,-65.24 -14.52,-63.00 -18.20,-60.76 -21.24,-58.53 -24.29,-56.30 -27.66,-53.84 -31.03,-51.39 -34.23,-48.56 -37.43,-45.73 -40.17,-42.38 -42.90,-39.03 -44.95,-35.97 -47.01,-32.91 -48.34,-29.59 -49.68,-26.27 -49.84,-23.10 -50.00,-19.93 -49.20,-16.15 -48.40,-12.37 -46.99,-8.18 -45.58,-3.99 -44.13,-1.20 -42.68,1.58 -40.24,5.34 -37.79,9.09 -35.13,12.29 -32.48,15.48 -30.09,17.92 -27.69,20.37 -23.80,23.37 -19.91,26.37 -16.19,29.16 -12.46,31.95 -8.64,34.02 -4.82,36.08 -1.46,37.70 1.90,39.33 3.30,40.21 4.71,41.08 4.89,41.19 5.07,41.30 5.21,41.47 5.34,41.63 5.42,41.83 5.50,42.03 5.51,42.24 5.52,42.45 5.46,42.66 5.40,42.86 5.28,43.03 5.16,43.21 4.99,43.34 4.82,43.46 4.61,43.53 4.41,43.59 4.20,43.59 3.99,43.59 3.79,43.52 3.58,43.45 3.42,43.32 3.25,43.19 3.13,43.01 3.01,42.84 2.96,42.63 2.90,42.43 2.92,42.21 2.93,42.00 3.01,41.81 3.09,41.61 3.23,41.45 3.37,41.29 3.55,41.18 3.74,41.07 3.95,41.03 4.15,40.98 4.36,41.01 4.58,41.03 4.77,41.13 4.96,41.22 5.11,41.36 5.26,41.51 5.36,41.70 5.46,41.89 5.49,42.10 5.52,42.31 5.49,42.52 5.45,42.73 5.35,42.92 5.25,43.10 5.09,43.25 4.94,43.39 4.74,43.48 4.55,43.57 4.34,43.59 4.13,43.61 3.92,43.56 3.71,43.51 3.71,43.51 3.71,43.51 2.10,43.15 0.48,42.79 -3.26,41.50 -7.00,40.21 -11.19,38.03 -15.37,35.86 -19.14,33.04 -22.90,30.22 -27.04,27.00 -31.18,23.78 -33.71,21.19 -36.24,18.59 -39.06,15.18 -41.87,11.76 -44.45,7.81 -47.03,3.86 -48.67,0.73 -50.32,-2.39 -51.83,-6.88 -53.34,-11.37 -54.18,-15.81 -55.02,-20.24 -54.68,-24.17 -54.33,-28.11 -52.72,-31.90 -51.11,-35.70 -48.87,-38.92 -46.62,-42.13 -43.59,-45.70 -40.56,-49.27 -37.19,-52.23 -33.82,-55.20 -30.45,-57.66 -27.08,-60.12 -23.87,-62.47 -20.65,-64.82 -16.58,-67.25 -12.52,-69.68 -9.27,-70.87 -6.03,-72.07 -2.78,-72.55 0.45,-73.04 4.17,-73.27 7.88,-73.51 10.20,-73.17 12.52,-72.84 14.71,-71.97 16.90,-71.11 18.41,-69.73 19.91,-68.34 20.85,-66.56 21.80,-64.78 21.87,-62.58 21.93,-60.38 21.22,-58.26 20.52,-56.13 19.43,-54.16 18.34,-52.19 16.83,-50.01 15.31,-47.83 13.90,-45.72 12.49,-43.60 10.80,-41.08 9.12,-38.57 7.02,-36.36 4.93,-34.15 2.52,-32.33 0.12,-30.50 -1.91,-28.93 -3.95,-27.37 -5.63,-25.50 -7.32,-23.64 -9.13,-21.86 -10.94,-20.09 -12.94,-18.67 -14.93,-17.25 -17.02,-16.36 -19.11,-15.46 -21.12,-14.78 -23.12,-14.10 -24.98,-13.30 -26.84,-12.50 -28.23,-11.87 -29.62,-11.25 -30.89,-10.77 -32.16,-10.30 -33.57,-9.57 -34.98,-8.84 -36.31,-7.89 -37.64,-6.95 -39.21,-5.45 -40.78,-3.96 -41.91,-2.65 -43.05,-1.35 -43.89,0.48 -44.73,2.33 -45.41,4.06 -46.10,5.78 -46.50,7.40 -46.90,9.01 -47.03,10.94 -47.16,12.88 -47.04,15.49 -46.93,18.10 -46.69,20.70 -46.46,23.29 -45.89,25.33 -45.32,27.37 -44.44,29.26 -43.56,31.15 -42.17,32.60 -40.79,34.05 -39.37,34.82 -37.94,35.59 -35.71,35.91 -33.48,36.24 -31.48,36.20 -29.47,36.17 -27.44,35.66 -25.41,35.14 -23.74,34.29 -22.07,33.44 -20.01,31.69 -17.95,29.94 -16.30,27.73 -14.64,25.53 -13.15,22.67 -11.66,19.81 -11.16,18.66 -10.66,17.50 -9.87,15.06 -9.07,12.63 -8.44,10.14 -7.80,7.65 -7.19,5.80 -6.58,3.94 -5.95,2.59 -5.33,1.24 -4.32,0.17 -3.31,-0.90 -2.05,-1.23 -0.78,-1.57 -0.58,-1.64 -0.38,-1.71 -0.17,-1.73 0.03,-1.76 0.24,-1.73 0.45,-1.70 0.65,-1.62 0.84,-1.54 1.02,-1.41 1.19,-1.29 1.33,-1.13 1.46,-0.97 1.56,-0.78 1.65,-0.59 1.70,-0.38 1.75,-0.17 1.74,0.03 1.74,0.24 1.68,0.45 1.63,0.65 1.53,0.84 1.42,1.02 1.28,1.18 1.14,1.34 0.96,1.45 0.78,1.57 0.78,1.57 L 0.78,1.57 Z"></path></g><g transform="translate(953.6867769241305 236.90223059766663) rotate(0 24.18882766427842 11.933164823503205)" stroke="none"><path fill="#1e1e1e" d="M 0,-1.61 Q 0,-1.61 1.46,-2.00 2.92,-2.38 4.09,-2.88 5.27,-3.37 7.69,-4.49 10.10,-5.61 13.17,-7.20 16.23,-8.78 17.92,-9.65 19.62,-10.52 24.02,-12.92 28.42,-15.33 32.01,-17.11 35.60,-18.90 38.24,-19.72 40.88,-20.55 42.96,-20.51 45.04,-20.47 46.75,-19.38 48.46,-18.29 49.27,-16.14 50.08,-13.98 50.13,-11.87 50.19,-9.76 49.81,-6.08 49.44,-2.40 48.90,1.19 48.37,4.79 47.58,9.12 46.80,13.45 45.72,18.46 44.64,23.48 44.01,27.56 43.38,31.64 43.36,34.47 43.34,37.31 43.46,39.58 43.58,41.85 43.60,42.06 43.62,42.27 43.57,42.48 43.51,42.68 43.40,42.86 43.28,43.04 43.12,43.17 42.95,43.31 42.75,43.38 42.55,43.45 42.34,43.46 42.13,43.46 41.93,43.40 41.72,43.34 41.55,43.21 41.38,43.09 41.25,42.92 41.13,42.74 41.07,42.54 41.01,42.34 41.01,42.12 41.02,41.91 41.09,41.71 41.17,41.51 41.30,41.35 41.43,41.18 41.61,41.07 41.79,40.95 42.00,40.90 42.20,40.85 42.42,40.87 42.63,40.89 42.82,40.97 43.02,41.06 43.18,41.20 43.33,41.34 43.44,41.53 43.54,41.71 43.58,41.92 43.62,42.13 43.59,42.34 43.56,42.55 43.47,42.74 43.37,42.93 43.22,43.08 43.07,43.23 42.88,43.32 42.69,43.42 42.48,43.45 42.27,43.47 42.06,43.43 41.85,43.39 41.67,43.29 41.48,43.18 41.34,43.02 41.20,42.87 41.12,42.67 41.03,42.48 41.03,42.48 41.03,42.48 39.98,39.97 38.92,37.47 38.71,34.19 38.49,30.90 39.15,26.67 39.80,22.43 40.87,17.50 41.93,12.56 42.71,8.31 43.49,4.06 44.01,0.57 44.53,-2.91 44.89,-6.33 45.26,-9.75 45.30,-11.24 45.35,-12.73 44.88,-14.26 44.42,-15.79 43.32,-15.86 42.21,-15.92 39.98,-15.25 37.74,-14.57 34.23,-12.83 30.73,-11.08 26.27,-8.67 21.81,-6.26 20.12,-5.39 18.43,-4.52 15.27,-2.89 12.12,-1.26 9.50,-0.05 6.89,1.14 4.95,1.76 3.01,2.38 1.50,2.00 0,1.61 -0.19,1.59 -0.38,1.57 -0.56,1.50 -0.75,1.43 -0.91,1.32 -1.07,1.21 -1.20,1.06 -1.33,0.91 -1.42,0.74 -1.51,0.57 -1.55,0.38 -1.60,0.19 -1.60,-0.00 -1.60,-0.19 -1.55,-0.38 -1.51,-0.57 -1.42,-0.74 -1.33,-0.91 -1.20,-1.06 -1.07,-1.21 -0.91,-1.32 -0.75,-1.43 -0.56,-1.50 -0.38,-1.57 -0.19,-1.59 0.00,-1.61 0.00,-1.61 L 0,-1.61 Z"></path></g><g transform="translate(1381.3453090833282 229.16180574509747) rotate(0 19.028505059395684 29.671648286433168)" stroke="none"><path fill="#1e1e1e" d="M -0.41,-1.45 Q -0.41,-1.45 0.79,-2.13 2.00,-2.81 4.06,-3.35 6.12,-3.88 8.56,-4.31 10.99,-4.74 13.30,-4.74 15.60,-4.75 18.39,-4.17 21.17,-3.58 22.58,-3.36 23.98,-3.13 27.66,-2.32 31.33,-1.51 34.52,-0.79 37.71,-0.06 40.24,0.21 42.78,0.50 44.95,0.62 47.13,0.75 48.66,1.16 50.19,1.58 50.87,3.57 51.55,5.56 50.53,6.79 49.51,8.03 47.62,9.90 45.74,11.77 43.13,14.74 40.52,17.71 37.25,20.59 33.97,23.48 30.57,26.34 27.17,29.21 23.74,32.42 20.31,35.64 16.84,38.05 13.37,40.47 9.85,42.60 6.33,44.73 3.47,46.85 0.62,48.98 -1.79,51.45 -4.20,53.93 -6.17,56.12 -8.13,58.30 -5.04,58.65 -1.95,58.99 1.89,58.75 5.74,58.50 9.40,58.21 13.06,57.92 17.10,57.80 21.13,57.68 25.58,57.47 30.02,57.26 33.44,57.40 36.86,57.53 39.45,57.79 42.04,58.05 42.26,58.08 42.47,58.11 42.66,58.21 42.85,58.30 43.00,58.45 43.15,58.60 43.24,58.79 43.33,58.98 43.36,59.19 43.39,59.41 43.35,59.61 43.31,59.82 43.20,60.01 43.10,60.19 42.94,60.33 42.78,60.47 42.58,60.56 42.39,60.64 42.18,60.66 41.96,60.67 41.76,60.62 41.55,60.57 41.37,60.45 41.20,60.34 41.06,60.17 40.93,60.01 40.86,59.81 40.79,59.61 40.78,59.40 40.78,59.18 40.84,58.98 40.90,58.78 41.03,58.61 41.15,58.43 41.32,58.31 41.50,58.19 41.70,58.12 41.90,58.06 42.12,58.07 42.33,58.08 42.53,58.15 42.73,58.22 42.89,58.36 43.06,58.49 43.17,58.67 43.28,58.85 43.33,59.06 43.39,59.26 43.37,59.48 43.35,59.69 43.26,59.88 43.18,60.08 43.04,60.23 42.89,60.39 42.71,60.50 42.52,60.60 42.32,60.64 42.11,60.68 42.11,60.68 42.11,60.68 39.54,61.06 36.98,61.44 33.63,61.78 30.28,62.12 25.78,62.38 21.29,62.65 17.37,62.77 13.45,62.90 9.75,63.19 6.05,63.48 2.18,63.72 -1.69,63.95 -4.38,64.09 -7.08,64.22 -9.29,63.84 -11.50,63.46 -12.49,62.24 -13.48,61.02 -12.60,58.06 -11.71,55.11 -9.65,52.86 -7.59,50.61 -4.90,47.89 -2.21,45.17 0.83,42.92 3.88,40.67 7.27,38.61 10.66,36.55 13.86,34.35 17.06,32.15 20.59,28.86 24.12,25.58 27.49,22.75 30.87,19.93 33.94,17.27 37.01,14.61 39.73,11.53 42.44,8.45 44.36,6.55 46.28,4.65 47.23,4.00 48.18,3.35 47.52,4.33 46.86,5.30 44.55,5.17 42.25,5.03 39.47,4.69 36.70,4.36 33.50,3.62 30.29,2.89 26.79,2.01 23.29,1.13 21.77,0.88 20.25,0.63 17.91,0.09 15.56,-0.44 13.64,-0.46 11.72,-0.49 9.46,-0.10 7.20,0.29 5.19,0.81 3.18,1.32 1.80,1.39 0.41,1.45 0.23,1.48 0.05,1.51 -0.12,1.49 -0.30,1.48 -0.48,1.42 -0.65,1.36 -0.80,1.26 -0.96,1.16 -1.08,1.03 -1.21,0.90 -1.30,0.74 -1.39,0.58 -1.44,0.41 -1.49,0.23 -1.50,0.05 -1.50,-0.12 -1.47,-0.30 -1.43,-0.48 -1.35,-0.64 -1.27,-0.81 -1.15,-0.95 -1.04,-1.09 -0.89,-1.20 -0.75,-1.31 -0.58,-1.38 -0.41,-1.45 -0.41,-1.45 L -0.41,-1.45 Z"></path></g><g transform="translate(1386.5055726334558 254.318186515947) rotate(0 25.801406332771194 0.6450403256103527)" stroke="none"><path fill="#1e1e1e" d="M 0.45,-2.28 Q 0.45,-2.28 2.34,-2.07 4.22,-1.87 6.33,-1.74 8.43,-1.61 11.01,-1.54 13.58,-1.48 17.09,-1.45 20.60,-1.42 22.47,-1.41 24.34,-1.40 28.92,-1.74 33.50,-2.07 37.64,-1.85 41.78,-1.63 45.85,-0.89 49.91,-0.14 50.12,-0.09 50.33,-0.04 50.51,0.06 50.69,0.17 50.82,0.34 50.96,0.50 51.03,0.70 51.11,0.90 51.12,1.11 51.13,1.32 51.06,1.53 51.00,1.73 50.88,1.90 50.76,2.08 50.59,2.20 50.42,2.33 50.22,2.40 50.01,2.46 49.80,2.46 49.59,2.45 49.39,2.38 49.19,2.31 49.02,2.18 48.85,2.05 48.74,1.87 48.62,1.69 48.57,1.49 48.51,1.28 48.53,1.07 48.54,0.86 48.63,0.66 48.71,0.47 48.85,0.31 48.99,0.15 49.17,0.04 49.36,-0.06 49.56,-0.10 49.77,-0.14 49.98,-0.12 50.19,-0.09 50.38,-0.00 50.58,0.09 50.73,0.23 50.88,0.38 50.98,0.57 51.07,0.76 51.10,0.97 51.14,1.18 51.10,1.39 51.06,1.60 50.96,1.79 50.85,1.97 50.70,2.12 50.54,2.26 50.35,2.35 50.15,2.43 49.94,2.45 49.73,2.47 49.73,2.47 49.73,2.47 45.74,2.65 41.75,2.84 37.83,2.99 33.90,3.15 29.10,3.55 24.30,3.94 22.43,3.93 20.56,3.92 17.00,3.89 13.45,3.86 10.76,3.79 8.06,3.72 5.62,3.53 3.18,3.35 1.36,2.82 -0.45,2.28 -0.72,2.19 -0.99,2.11 -1.22,1.96 -1.46,1.81 -1.66,1.61 -1.85,1.40 -2.00,1.16 -2.14,0.92 -2.22,0.65 -2.30,0.38 -2.31,0.10 -2.32,-0.17 -2.27,-0.45 -2.21,-0.73 -2.09,-0.98 -1.97,-1.23 -1.79,-1.45 -1.62,-1.67 -1.39,-1.84 -1.17,-2.01 -0.91,-2.12 -0.65,-2.23 -0.38,-2.28 -0.10,-2.33 0.17,-2.30 0.45,-2.28 0.45,-2.28 L 0.45,-2.28 Z"></path></g><g transform="translate(27.415955918280474 85.31894993802536) rotate(0 -8.385450414490663 23.22127455770729)" stroke="none"><path fill="#1e1e1e" d="M 1.47,0.21 Q 1.47,0.21 1.58,1.55 1.69,2.89 1.44,4.25 1.19,5.61 0.50,7.92 -0.17,10.24 -1.60,13.70 -3.03,17.15 -4.54,20.65 -6.04,24.14 -7.35,27.81 -8.66,31.47 -9.58,34.47 -10.51,37.47 -11.34,39.72 -12.17,41.97 -13.95,44.07 -15.72,46.16 -15.86,46.32 -16.00,46.49 -16.18,46.60 -16.36,46.71 -16.56,46.76 -16.77,46.80 -16.98,46.78 -17.19,46.76 -17.39,46.67 -17.58,46.59 -17.74,46.44 -17.89,46.30 -17.99,46.11 -18.09,45.92 -18.13,45.71 -18.17,45.50 -18.13,45.29 -18.10,45.08 -18.00,44.90 -17.91,44.71 -17.75,44.56 -17.60,44.41 -17.41,44.32 -17.21,44.23 -17.00,44.21 -16.79,44.18 -16.58,44.23 -16.38,44.27 -16.19,44.38 -16.01,44.49 -15.87,44.65 -15.73,44.81 -15.65,45.00 -15.57,45.20 -15.56,45.41 -15.55,45.63 -15.60,45.83 -15.66,46.04 -15.77,46.21 -15.89,46.39 -16.06,46.52 -16.23,46.65 -16.43,46.72 -16.63,46.79 -16.84,46.79 -17.06,46.79 -17.26,46.73 -17.46,46.66 -17.63,46.53 -17.80,46.40 -17.92,46.23 -18.04,46.05 -18.10,45.85 -18.16,45.65 -18.15,45.43 -18.14,45.22 -18.06,45.02 -17.98,44.83 -17.98,44.83 -17.98,44.83 -17.23,42.64 -16.48,40.45 -15.75,38.25 -15.02,36.05 -14.03,32.94 -13.03,29.83 -11.56,26.10 -10.10,22.36 -8.56,18.93 -7.02,15.49 -5.65,12.24 -4.29,8.99 -3.64,6.87 -2.99,4.75 -2.71,3.52 -2.43,2.30 -1.95,1.04 -1.47,-0.21 -1.42,-0.38 -1.38,-0.55 -1.29,-0.71 -1.20,-0.87 -1.08,-1.00 -0.96,-1.13 -0.81,-1.23 -0.66,-1.33 -0.49,-1.39 -0.32,-1.45 -0.14,-1.47 0.03,-1.49 0.20,-1.46 0.38,-1.43 0.55,-1.37 0.72,-1.30 0.86,-1.19 1.01,-1.09 1.12,-0.95 1.24,-0.82 1.32,-0.65 1.40,-0.49 1.44,-0.32 1.48,-0.14 1.47,0.03 1.47,0.21 1.47,0.21 L 1.47,0.21 Z"></path></g><g transform="translate(26.12590479443736 85.96397549994697) rotate(0 12.255662840775187 29.026593197134105)" stroke="none"><path fill="#1e1e1e" d="M 1.88,-0.72 Q 1.88,-0.72 2.85,1.66 3.83,4.05 5.01,7.32 6.19,10.59 7.41,13.59 8.63,16.59 10.23,19.64 11.83,22.69 13.50,26.91 15.18,31.14 16.61,34.74 18.04,38.34 19.06,42.23 20.08,46.11 21.37,49.03 22.65,51.95 24.07,54.29 25.50,56.64 25.64,56.80 25.78,56.96 25.86,57.15 25.95,57.35 25.96,57.56 25.97,57.77 25.92,57.98 25.87,58.18 25.75,58.36 25.63,58.54 25.47,58.67 25.30,58.80 25.10,58.87 24.90,58.94 24.69,58.94 24.47,58.95 24.27,58.88 24.07,58.82 23.90,58.69 23.73,58.57 23.61,58.39 23.48,58.22 23.42,58.01 23.36,57.81 23.37,57.60 23.38,57.39 23.46,57.19 23.53,56.99 23.67,56.82 23.80,56.66 23.98,56.55 24.16,56.44 24.37,56.39 24.58,56.34 24.79,56.36 25.00,56.38 25.19,56.46 25.39,56.55 25.54,56.70 25.70,56.84 25.80,57.03 25.91,57.21 25.94,57.42 25.98,57.63 25.95,57.84 25.92,58.05 25.82,58.24 25.72,58.43 25.57,58.58 25.42,58.73 25.23,58.82 25.04,58.91 24.83,58.94 24.62,58.96 24.41,58.92 24.20,58.88 24.02,58.77 23.83,58.66 23.83,58.66 23.83,58.66 21.18,56.21 18.52,53.75 17.12,50.51 15.71,47.26 14.78,43.63 13.84,40.00 12.41,36.39 10.98,32.79 9.41,28.77 7.84,24.75 6.18,21.50 4.51,18.25 3.28,15.14 2.05,12.04 0.96,8.81 -0.12,5.58 -1.00,3.15 -1.88,0.72 -1.94,0.48 -2.00,0.25 -2.00,0.00 -2.00,-0.23 -1.94,-0.47 -1.88,-0.70 -1.77,-0.92 -1.66,-1.13 -1.50,-1.32 -1.34,-1.50 -1.14,-1.64 -0.94,-1.78 -0.71,-1.86 -0.49,-1.95 -0.25,-1.98 -0.00,-2.01 0.23,-1.98 0.47,-1.96 0.70,-1.87 0.92,-1.79 1.12,-1.65 1.33,-1.51 1.49,-1.33 1.65,-1.15 1.76,-0.93 1.88,-0.72 1.88,-0.72 L 1.88,-0.72 Z"></path></g><g transform="translate(12.580161302441411 111.12035627079649) rotate(0 16.448402811709343 0.6450550892991203)" stroke="none"><path fill="#1e1e1e" d="M 0.25,-2.31 Q 0.25,-2.31 1.92,-2.19 3.59,-2.06 5.89,-2.35 8.18,-2.64 10.75,-2.95 13.32,-3.27 16.69,-3.03 20.06,-2.79 23.14,-2.18 26.22,-1.57 29.86,-0.32 33.49,0.93 33.69,1.01 33.89,1.09 34.05,1.23 34.21,1.37 34.32,1.55 34.43,1.73 34.48,1.94 34.52,2.15 34.50,2.36 34.47,2.57 34.39,2.76 34.30,2.96 34.15,3.11 34.00,3.26 33.81,3.36 33.63,3.46 33.42,3.50 33.21,3.53 33.00,3.49 32.79,3.46 32.60,3.36 32.41,3.26 32.27,3.11 32.12,2.95 32.03,2.76 31.94,2.56 31.92,2.35 31.90,2.14 31.94,1.93 31.99,1.73 32.10,1.55 32.21,1.36 32.37,1.23 32.54,1.09 32.73,1.01 32.93,0.93 33.14,0.92 33.35,0.91 33.56,0.97 33.76,1.03 33.94,1.14 34.12,1.26 34.24,1.43 34.37,1.60 34.44,1.80 34.51,2.01 34.51,2.22 34.51,2.43 34.44,2.63 34.37,2.83 34.24,3.00 34.11,3.17 33.94,3.29 33.76,3.41 33.55,3.47 33.35,3.52 33.14,3.51 32.92,3.50 32.93,3.50 32.93,3.50 29.23,3.13 25.53,2.76 22.61,2.42 19.69,2.08 16.79,1.84 13.89,1.60 11.31,1.91 8.74,2.22 5.91,2.51 3.08,2.80 1.41,2.56 -0.25,2.31 -0.53,2.25 -0.80,2.18 -1.05,2.06 -1.30,1.93 -1.51,1.74 -1.73,1.56 -1.89,1.33 -2.05,1.10 -2.15,0.84 -2.25,0.58 -2.29,0.30 -2.33,0.02 -2.30,-0.25 -2.27,-0.53 -2.17,-0.79 -2.07,-1.06 -1.91,-1.29 -1.76,-1.52 -1.55,-1.71 -1.34,-1.90 -1.09,-2.03 -0.84,-2.17 -0.57,-2.24 -0.30,-2.31 -0.02,-2.31 0.25,-2.31 0.25,-2.31 L 0.25,-2.31 Z"></path></g><g transform="translate(25.480849705138212 260.1235346827516) rotate(0 -1.6125491411152097 26.768988966719803)" stroke="none"><path fill="#1e1e1e" d="M 1.62,-0.18 Q 1.62,-0.18 2.08,1.45 2.53,3.09 2.62,4.60 2.70,6.12 2.94,7.96 3.18,9.81 3.30,12.19 3.42,14.57 3.27,16.61 3.12,18.64 3.06,19.79 3.01,20.95 2.45,25.08 1.89,29.21 1.46,32.40 1.03,35.58 0.47,38.32 -0.09,41.06 -0.51,43.11 -0.94,45.16 -1.18,47.01 -1.42,48.86 -2.02,50.93 -2.61,53.00 -2.62,53.21 -2.62,53.42 -2.70,53.62 -2.78,53.82 -2.91,53.98 -3.05,54.15 -3.23,54.26 -3.41,54.37 -3.61,54.42 -3.82,54.47 -4.03,54.45 -4.24,54.43 -4.44,54.34 -4.63,54.26 -4.79,54.11 -4.94,53.97 -5.05,53.78 -5.15,53.60 -5.19,53.39 -5.23,53.18 -5.19,52.97 -5.16,52.76 -5.07,52.57 -4.97,52.38 -4.82,52.23 -4.67,52.08 -4.47,51.99 -4.28,51.90 -4.07,51.87 -3.86,51.85 -3.65,51.89 -3.44,51.93 -3.26,52.04 -3.08,52.14 -2.94,52.30 -2.80,52.46 -2.72,52.66 -2.63,52.86 -2.62,53.07 -2.60,53.28 -2.66,53.49 -2.71,53.69 -2.83,53.87 -2.94,54.05 -3.11,54.18 -3.28,54.31 -3.48,54.38 -3.68,54.45 -3.89,54.45 -4.10,54.46 -4.31,54.39 -4.51,54.33 -4.68,54.20 -4.85,54.08 -4.97,53.90 -5.10,53.73 -5.16,53.53 -5.22,53.32 -5.22,53.32 -5.22,53.32 -5.50,50.89 -5.78,48.46 -5.66,46.34 -5.55,44.22 -5.13,42.16 -4.71,40.09 -4.17,37.52 -3.62,34.95 -3.19,31.74 -2.75,28.54 -2.14,24.62 -1.53,20.71 -1.47,19.50 -1.40,18.29 -1.26,16.52 -1.11,14.75 -1.18,12.53 -1.25,10.32 -1.45,8.34 -1.65,6.35 -1.72,4.96 -1.79,3.57 -1.71,1.87 -1.62,0.18 -1.62,-0.01 -1.62,-0.21 -1.57,-0.40 -1.52,-0.59 -1.43,-0.77 -1.33,-0.94 -1.20,-1.09 -1.07,-1.23 -0.91,-1.34 -0.74,-1.45 -0.56,-1.52 -0.37,-1.59 -0.17,-1.61 0.01,-1.63 0.21,-1.61 0.40,-1.58 0.59,-1.51 0.77,-1.44 0.93,-1.33 1.09,-1.21 1.22,-1.06 1.35,-0.91 1.44,-0.74 1.53,-0.56 1.58,-0.37 1.62,-0.18 1.62,-0.18 L 1.62,-0.18 Z"></path></g><g transform="translate(30.641172310021034 261.4136448613498) rotate(0 7.740395325191514 25.80137680539363)" stroke="none"><path fill="#1e1e1e" d="M -0.28,-2.24 Q -0.28,-2.24 1.19,-2.52 2.66,-2.80 4.58,-3.06 6.49,-3.33 8.14,-3.26 9.79,-3.18 11.40,-2.47 13.01,-1.75 14.35,-0.53 15.70,0.68 16.60,2.60 17.49,4.53 18.16,6.34 18.82,8.15 19.14,9.85 19.47,11.55 19.41,12.88 19.36,14.20 18.86,15.58 18.37,16.95 17.56,17.93 16.75,18.92 15.16,19.67 13.57,20.41 12.53,20.66 11.48,20.90 9.69,20.28 7.90,19.66 9.00,20.21 10.10,20.77 9.80,20.77 9.50,20.78 9.20,20.71 8.91,20.65 8.63,20.51 8.36,20.38 8.13,20.18 7.90,19.99 7.72,19.74 7.55,19.50 7.43,19.22 7.32,18.94 7.27,18.64 7.23,18.34 7.26,18.04 7.29,17.73 7.39,17.45 7.49,17.16 7.66,16.91 7.83,16.66 8.05,16.45 8.27,16.24 8.53,16.10 8.80,15.95 9.09,15.87 9.38,15.79 10.96,16.25 12.53,16.71 13.44,17.26 14.36,17.81 15.50,18.96 16.64,20.11 17.53,21.42 18.42,22.74 19.23,24.75 20.04,26.77 20.68,28.21 21.32,29.65 21.83,31.16 22.35,32.66 22.43,33.99 22.50,35.32 22.28,36.60 22.05,37.88 21.17,39.17 20.30,40.47 18.63,41.61 16.96,42.76 15.27,43.87 13.58,44.98 11.07,46.27 8.56,47.56 6.17,49.12 3.79,50.67 0.32,51.96 -3.13,53.24 -3.33,53.32 -3.53,53.39 -3.74,53.40 -3.96,53.41 -4.16,53.34 -4.36,53.28 -4.54,53.16 -4.71,53.04 -4.84,52.87 -4.96,52.69 -5.03,52.49 -5.09,52.29 -5.08,52.08 -5.08,51.86 -5.01,51.66 -4.94,51.46 -4.80,51.30 -4.67,51.13 -4.49,51.02 -4.32,50.90 -4.11,50.85 -3.90,50.79 -3.69,50.81 -3.48,50.83 -3.28,50.91 -3.09,50.99 -2.93,51.13 -2.77,51.27 -2.66,51.46 -2.56,51.64 -2.52,51.85 -2.48,52.06 -2.50,52.27 -2.53,52.48 -2.62,52.67 -2.72,52.86 -2.87,53.01 -3.02,53.16 -3.21,53.26 -3.40,53.36 -3.61,53.39 -3.82,53.42 -4.02,53.38 -4.23,53.34 -4.42,53.24 -4.60,53.13 -4.75,52.97 -4.89,52.82 -4.98,52.62 -5.06,52.43 -5.08,52.22 -5.10,52.00 -5.05,51.80 -5.00,51.59 -4.89,51.41 -4.77,51.23 -4.61,51.10 -4.44,50.96 -4.44,50.96 -4.44,50.96 -1.71,48.69 1.01,46.42 3.63,44.71 6.24,43.00 8.51,41.86 10.78,40.72 12.49,39.59 14.20,38.46 15.69,37.57 17.17,36.67 17.36,35.44 17.54,34.21 17.12,32.95 16.70,31.69 16.02,30.14 15.33,28.58 14.76,27.03 14.20,25.48 13.59,24.51 12.98,23.54 11.54,22.15 10.10,20.77 9.80,20.77 9.50,20.78 9.20,20.71 8.91,20.65 8.63,20.51 8.36,20.38 8.13,20.18 7.90,19.99 7.72,19.74 7.55,19.50 7.43,19.22 7.32,18.94 7.27,18.64 7.23,18.34 7.26,18.04 7.29,17.73 7.39,17.45 7.49,17.16 7.66,16.91 7.82,16.66 8.05,16.45 8.27,16.24 8.53,16.10 8.80,15.95 9.09,15.87 9.38,15.79 9.90,15.87 10.41,15.95 12.09,15.46 13.77,14.97 14.16,13.69 14.55,12.41 14.34,11.12 14.12,9.84 13.50,8.13 12.89,6.41 12.53,5.27 12.17,4.12 10.76,2.90 9.35,1.68 8.25,1.60 7.14,1.53 5.21,1.79 3.27,2.05 1.77,2.15 0.28,2.24 0.00,2.24 -0.26,2.24 -0.53,2.18 -0.79,2.11 -1.03,1.99 -1.27,1.86 -1.48,1.68 -1.68,1.50 -1.84,1.28 -2.00,1.05 -2.09,0.80 -2.19,0.54 -2.22,0.27 -2.26,0.00 -2.23,-0.26 -2.19,-0.53 -2.10,-0.78 -2.00,-1.04 -1.85,-1.27 -1.69,-1.49 -1.49,-1.67 -1.29,-1.85 -1.05,-1.98 -0.81,-2.11 -0.54,-2.18 -0.28,-2.24 -0.28,-2.24 L -0.28,-2.24 Z"></path></g><g transform="translate(539.4089965023622 132.75128325024042) rotate(0 -34.36202593243064 21.866741175236285)" stroke="none"><path fill="#1e1e1e" d="M 1.03,1.03 Q 1.03,1.03 -0.36,2.51 -1.75,3.99 -3.07,5.32 -4.39,6.66 -6.07,8.07 -7.74,9.48 -10.35,10.88 -12.96,12.29 -15.85,13.58 -18.75,14.87 -21.38,16.11 -24.00,17.35 -26.56,18.60 -29.11,19.84 -31.54,21.40 -33.97,22.96 -36.86,24.73 -39.74,26.50 -43.15,28.37 -46.57,30.23 -49.37,32.05 -52.17,33.88 -55.20,35.75 -58.23,37.62 -60.09,39.37 -61.95,41.12 -64.45,42.59 -66.96,44.06 -67.14,44.16 -67.33,44.25 -67.54,44.29 -67.75,44.32 -67.96,44.28 -68.17,44.24 -68.36,44.14 -68.54,44.04 -68.69,43.88 -68.83,43.72 -68.92,43.53 -69.00,43.33 -69.02,43.12 -69.04,42.91 -68.99,42.70 -68.95,42.50 -68.83,42.32 -68.72,42.14 -68.56,42.00 -68.39,41.87 -68.19,41.79 -68.00,41.72 -67.78,41.71 -67.57,41.70 -67.37,41.76 -67.16,41.82 -66.99,41.94 -66.82,42.06 -66.69,42.24 -66.56,42.41 -66.50,42.61 -66.43,42.81 -66.44,43.02 -66.44,43.24 -66.51,43.44 -66.58,43.64 -66.71,43.80 -66.85,43.97 -67.02,44.09 -67.20,44.20 -67.41,44.26 -67.61,44.31 -67.82,44.30 -68.04,44.28 -68.23,44.20 -68.43,44.12 -68.59,43.98 -68.75,43.84 -68.85,43.65 -68.96,43.47 -69.00,43.26 -69.05,43.05 -69.02,42.84 -68.99,42.63 -68.90,42.44 -68.81,42.25 -68.66,42.10 -68.51,41.95 -68.51,41.95 -68.51,41.95 -66.54,40.13 -64.57,38.31 -62.43,36.32 -60.29,34.32 -57.29,32.46 -54.29,30.60 -51.35,28.72 -48.40,26.84 -45.07,25.05 -41.73,23.26 -38.88,21.50 -36.02,19.75 -33.40,18.09 -30.77,16.44 -28.20,15.18 -25.63,13.92 -22.95,12.66 -20.28,11.40 -17.46,10.18 -14.65,8.96 -12.27,7.83 -9.89,6.71 -8.27,5.55 -6.66,4.39 -5.32,3.07 -3.99,1.75 -2.51,0.36 -1.03,-1.03 -0.89,-1.14 -0.75,-1.25 -0.59,-1.32 -0.43,-1.39 -0.26,-1.42 -0.08,-1.45 0.08,-1.44 0.26,-1.43 0.43,-1.38 0.59,-1.33 0.75,-1.24 0.90,-1.15 1.02,-1.02 1.15,-0.90 1.24,-0.75 1.33,-0.59 1.38,-0.43 1.43,-0.26 1.44,-0.08 1.45,0.08 1.42,0.26 1.39,0.43 1.32,0.59 1.25,0.75 1.14,0.89 1.03,1.03 1.03,1.03 L 1.03,1.03 Z"></path></g><g transform="translate(500.67360517523514 124.00460965967818) rotate(0 15.61911309634678 29.363877710254485)" stroke="none"><path fill="#1e1e1e" d="M 1.32,-1.32 Q 1.32,-1.32 2.41,-0.29 3.51,0.72 5.12,1.34 6.73,1.96 8.30,2.67 9.88,3.37 11.23,4.64 12.58,5.91 13.28,8.21 13.98,10.52 13.84,13.06 13.69,15.60 13.99,17.77 14.29,19.94 14.74,21.92 15.20,23.89 15.66,24.89 16.13,25.90 19.00,28.25 21.86,30.59 24.11,34.14 26.36,37.68 27.85,41.45 29.33,45.22 30.18,49.07 31.04,52.93 31.44,54.49 31.85,56.06 31.87,56.27 31.90,56.48 31.85,56.69 31.81,56.90 31.70,57.08 31.59,57.27 31.43,57.40 31.27,57.54 31.07,57.62 30.87,57.70 30.66,57.71 30.45,57.73 30.24,57.67 30.04,57.61 29.86,57.49 29.68,57.38 29.56,57.21 29.43,57.04 29.36,56.84 29.29,56.64 29.29,56.42 29.29,56.21 29.35,56.01 29.42,55.81 29.55,55.64 29.68,55.47 29.85,55.35 30.03,55.23 30.23,55.17 30.44,55.11 30.65,55.12 30.86,55.14 31.06,55.21 31.26,55.29 31.42,55.43 31.58,55.57 31.69,55.75 31.80,55.93 31.85,56.14 31.90,56.34 31.87,56.55 31.85,56.77 31.76,56.96 31.67,57.15 31.53,57.31 31.38,57.46 31.20,57.56 31.01,57.66 30.80,57.70 30.59,57.73 30.38,57.70 30.17,57.66 29.98,57.57 29.79,57.47 29.65,57.31 29.50,57.16 29.41,56.97 29.32,56.77 29.32,56.77 29.32,56.78 28.85,55.23 28.37,53.68 27.16,50.20 25.95,46.72 24.26,43.37 22.57,40.02 20.74,36.98 18.90,33.93 15.54,30.90 12.18,27.88 11.52,26.39 10.87,24.90 10.36,22.69 9.86,20.47 9.58,17.87 9.31,15.27 9.52,13.35 9.74,11.43 8.91,9.23 8.09,7.02 6.62,6.31 5.16,5.61 2.97,4.59 0.79,3.58 -0.26,2.45 -1.32,1.32 -1.46,1.14 -1.60,0.96 -1.69,0.76 -1.78,0.55 -1.82,0.33 -1.86,0.11 -1.85,-0.11 -1.84,-0.33 -1.77,-0.55 -1.70,-0.76 -1.58,-0.96 -1.47,-1.15 -1.31,-1.31 -1.15,-1.47 -0.96,-1.58 -0.76,-1.70 -0.55,-1.77 -0.33,-1.84 -0.11,-1.85 0.11,-1.86 0.33,-1.82 0.55,-1.78 0.76,-1.69 0.96,-1.60 1.14,-1.46 1.32,-1.32 1.32,-1.32 L 1.32,-1.32 Z"></path></g><g transform="translate(794.3126110731027 203.9743520273591) rotate(0 17.493404379955166 24.36578668690899)" stroke="none"><path fill="#1e1e1e" d="M 1.04,-1.04 Q 1.04,-1.04 2.20,-0.04 3.35,0.95 4.93,2.45 6.50,3.94 8.91,5.97 11.32,7.99 13.89,10.74 16.46,13.49 18.64,16.10 20.81,18.71 22.85,21.67 24.88,24.63 26.11,26.61 27.35,28.59 29.36,33.13 31.37,37.67 33.27,41.96 35.17,46.26 35.24,46.46 35.31,46.66 35.31,46.88 35.31,47.09 35.24,47.29 35.17,47.49 35.04,47.66 34.91,47.83 34.73,47.95 34.56,48.06 34.35,48.12 34.14,48.18 33.93,48.16 33.72,48.15 33.52,48.07 33.33,47.99 33.17,47.85 33.00,47.71 32.90,47.53 32.79,47.35 32.74,47.14 32.70,46.93 32.72,46.72 32.75,46.51 32.84,46.32 32.93,46.13 33.07,45.97 33.22,45.82 33.41,45.72 33.60,45.62 33.81,45.59 34.02,45.56 34.23,45.59 34.44,45.63 34.62,45.73 34.81,45.83 34.96,45.98 35.10,46.14 35.19,46.33 35.28,46.53 35.30,46.74 35.32,46.95 35.27,47.16 35.23,47.36 35.12,47.54 35.01,47.73 34.84,47.86 34.68,48.00 34.48,48.08 34.29,48.15 34.07,48.16 33.86,48.17 33.66,48.12 33.45,48.06 33.28,47.94 33.10,47.82 32.97,47.65 32.85,47.48 32.85,47.48 32.85,47.48 30.34,43.35 27.84,39.22 25.95,34.92 24.07,30.61 22.90,28.70 21.73,26.79 19.79,23.97 17.86,21.14 15.78,18.60 13.69,16.05 11.30,13.43 8.92,10.81 6.43,8.66 3.94,6.50 2.45,4.93 0.95,3.35 -0.04,2.20 -1.04,1.04 -1.15,0.90 -1.26,0.76 -1.33,0.60 -1.41,0.44 -1.44,0.26 -1.47,0.08 -1.46,-0.08 -1.45,-0.26 -1.40,-0.43 -1.34,-0.60 -1.25,-0.75 -1.16,-0.91 -1.03,-1.03 -0.91,-1.16 -0.75,-1.25 -0.60,-1.34 -0.43,-1.40 -0.26,-1.45 -0.08,-1.46 0.08,-1.47 0.26,-1.44 0.44,-1.41 0.60,-1.33 0.76,-1.26 0.90,-1.15 1.04,-1.04 1.04,-1.04 L 1.04,-1.04 Z"></path></g><g transform="translate(884.2785926863053 216.4696081851381) rotate(0 -49.35635620129773 41.23440823938449)" stroke="none"><path fill="#1e1e1e" d="M 1.89,-0.47 Q 1.89,-0.47 2.41,0.91 2.93,2.30 3.64,4.16 4.36,6.02 4.01,7.36 3.67,8.69 2.55,9.78 1.43,10.88 0.15,12.09 -1.12,13.30 -2.31,14.07 -3.50,14.84 -5.17,15.56 -6.85,16.28 -8.16,16.89 -9.48,17.50 -10.73,18.10 -11.98,18.70 -14.34,20.46 -16.69,22.22 -18.05,22.91 -19.40,23.61 -20.97,24.58 -22.54,25.55 -23.53,26.29 -24.53,27.03 -25.99,27.51 -27.46,27.98 -28.58,29.30 -29.70,30.62 -32.07,32.17 -34.44,33.71 -35.56,34.05 -36.68,34.40 -38.39,34.56 -40.09,34.72 -41.19,35.08 -42.28,35.45 -43.46,35.94 -44.64,36.43 -46.12,37.31 -47.60,38.18 -48.54,38.88 -49.49,39.59 -51.23,40.70 -52.98,41.82 -54.51,42.81 -56.03,43.80 -57.21,44.43 -58.38,45.06 -59.43,45.40 -60.47,45.74 -61.99,46.67 -63.50,47.61 -65.33,48.80 -67.16,49.98 -68.83,50.68 -70.50,51.37 -71.62,52.22 -72.73,53.07 -73.60,53.79 -74.48,54.52 -75.74,55.31 -77.00,56.10 -78.07,56.50 -79.13,56.90 -80.12,57.73 -81.10,58.55 -82.87,59.86 -84.63,61.17 -85.72,62.88 -86.80,64.60 -87.56,65.58 -88.32,66.57 -89.21,67.16 -90.11,67.75 -91.16,69.25 -92.22,70.76 -92.84,71.89 -93.46,73.03 -94.08,74.83 -94.70,76.62 -95.61,77.81 -96.52,78.99 -98.20,80.96 -99.88,82.93 -100.04,83.07 -100.20,83.21 -100.40,83.28 -100.60,83.36 -100.81,83.37 -101.02,83.38 -101.23,83.33 -101.43,83.27 -101.61,83.15 -101.78,83.03 -101.91,82.86 -102.04,82.69 -102.11,82.49 -102.17,82.28 -102.17,82.07 -102.17,81.86 -102.10,81.66 -102.03,81.46 -101.90,81.29 -101.77,81.12 -101.60,81.00 -101.42,80.88 -101.22,80.83 -101.01,80.77 -100.80,80.78 -100.59,80.80 -100.39,80.88 -100.19,80.96 -100.03,81.10 -99.87,81.23 -99.76,81.42 -99.65,81.60 -99.61,81.81 -99.56,82.01 -99.59,82.23 -99.61,82.44 -99.70,82.63 -99.79,82.82 -99.94,82.97 -100.09,83.13 -100.28,83.23 -100.46,83.33 -100.67,83.36 -100.88,83.39 -101.09,83.36 -101.30,83.32 -101.49,83.22 -101.68,83.12 -101.82,82.97 -101.97,82.81 -102.06,82.62 -102.14,82.42 -102.17,82.21 -102.19,82.00 -102.14,81.79 -102.09,81.59 -101.98,81.40 -101.87,81.22 -101.87,81.22 -101.87,81.22 -101.35,79.17 -100.82,77.11 -100.10,76.29 -99.37,75.47 -98.86,73.75 -98.36,72.04 -97.67,70.70 -96.98,69.36 -96.51,68.38 -96.04,67.39 -95.17,66.45 -94.31,65.51 -93.62,64.57 -92.93,63.63 -92.00,62.81 -91.08,61.99 -90.30,60.72 -89.52,59.46 -87.62,57.73 -85.72,56.00 -84.27,54.71 -82.82,53.43 -81.22,52.62 -79.62,51.81 -78.65,51.22 -77.68,50.63 -76.67,49.81 -75.66,48.98 -74.04,47.86 -72.42,46.75 -71.04,46.20 -69.66,45.66 -68.73,45.12 -67.80,44.58 -66.86,43.89 -65.91,43.20 -64.97,42.69 -64.03,42.18 -62.36,41.40 -60.68,40.63 -58.70,39.58 -56.71,38.53 -55.40,37.80 -54.09,37.07 -53.23,36.35 -52.36,35.62 -51.20,34.81 -50.04,33.99 -48.27,32.97 -46.50,31.96 -45.10,31.38 -43.69,30.81 -42.10,30.35 -40.50,29.90 -38.50,29.63 -36.49,29.35 -35.46,28.93 -34.42,28.51 -33.05,27.13 -31.68,25.76 -29.49,24.43 -27.31,23.11 -26.19,22.27 -25.06,21.43 -23.33,20.38 -21.61,19.33 -20.28,18.64 -18.95,17.96 -17.79,17.41 -16.63,16.87 -15.40,15.65 -14.17,14.43 -12.83,13.78 -11.49,13.13 -10.09,12.49 -8.69,11.85 -7.36,11.32 -6.03,10.78 -4.53,9.65 -3.03,8.52 -1.65,7.20 -0.28,5.87 -0.89,4.65 -1.49,3.44 -1.69,1.95 -1.89,0.47 -1.92,0.24 -1.95,0.00 -1.93,-0.22 -1.90,-0.46 -1.82,-0.68 -1.73,-0.90 -1.60,-1.09 -1.47,-1.29 -1.29,-1.45 -1.11,-1.60 -0.90,-1.71 -0.70,-1.82 -0.47,-1.88 -0.24,-1.94 -0.00,-1.94 0.22,-1.94 0.45,-1.88 0.68,-1.83 0.89,-1.72 1.10,-1.61 1.28,-1.45 1.46,-1.30 1.59,-1.10 1.73,-0.91 1.81,-0.69 1.90,-0.47 1.89,-0.47 L 1.89,-0.47 Z"></path></g></svg>