<svg version="1.1" xmlns="http://www.w3.org/2000/svg" viewBox="0 0 528.8996042830292 246.6666717529297" width="528.8996042830292" height="246.6666717529297" class="excalidraw-svg"><!-- svg-source:excalidraw --><metadata></metadata><defs><style class="style-fonts">
      </style></defs><rect x="0" y="0" width="528.8996042830292" height="246.6666717529297" fill="#ffffff"></rect><g stroke-linecap="round" transform="translate(107.30429123343839 10) rotate(0 32 31.333335876464844)"><path d="M15.67 0 C27.41 1.57, 42.23 -1.42, 48.33 0 M15.67 0 C23.79 1.28, 31.38 -0.15, 48.33 0 M48.33 0 C57.67 1, 63.36 7.21, 64 15.67 M48.33 0 C58.83 1.77, 62.83 5.7, 64 15.67 M64 15.67 C64.71 24.78, 64.07 30.11, 64 47 M64 15.67 C63.42 25.63, 64.08 36.74, 64 47 M64 47 C62.97 56.72, 60.67 63.81, 48.33 62.67 M64 47 C64.19 58.77, 58.63 61.31, 48.33 62.67 M48.33 62.67 C41.58 62.78, 33.92 62.76, 15.67 62.67 M48.33 62.67 C36.76 62.63, 25.59 61.71, 15.67 62.67 M15.67 62.67 C6.95 60.95, 0.18 59.33, 0 47 M15.67 62.67 C6.45 61.38, 0.92 55.4, 0 47 M0 47 C0.25 35.7, -0.54 27.39, 0 15.67 M0 47 C-0.33 36.8, 0.85 25.4, 0 15.67 M0 15.67 C0.75 5.75, 5.46 0.87, 15.67 0 M0 15.67 C0.67 6.46, 6.23 0.26, 15.67 0" stroke="#1e1e1e" stroke-width="2" fill="none"></path></g><g stroke-linecap="round" transform="translate(105.30429123343839 175.3333282470703) rotate(0 34 30.666671752929688)"><path d="M15.33 0 C27.51 1.77, 38.41 0.07, 52.67 0 M15.33 0 C28.5 -0.85, 42.64 0.04, 52.67 0 M52.67 0 C62.09 -1.46, 69.72 3.39, 68 15.33 M52.67 0 C63.1 2.17, 69.23 3.83, 68 15.33 M68 15.33 C66.19 24.63, 67.74 35.09, 68 46 M68 15.33 C68.46 22.95, 67.89 31.55, 68 46 M68 46 C69.92 54.7, 63.64 61.87, 52.67 61.33 M68 46 C68.27 57.23, 63.56 62.57, 52.67 61.33 M52.67 61.33 C38.9 59.96, 25.25 63.15, 15.33 61.33 M52.67 61.33 C43.72 61.04, 36.63 61.38, 15.33 61.33 M15.33 61.33 C5.81 60.74, 1.04 58.22, 0 46 M15.33 61.33 C4.23 62.94, 1.77 56.13, 0 46 M0 46 C1.44 38.11, -0.14 28.11, 0 15.33 M0 46 C-0.36 38.84, 0.94 32.15, 0 15.33 M0 15.33 C-0.75 5.98, 3.99 -0.83, 15.33 0 M0 15.33 C-0.57 3.34, 4.77 0.58, 15.33 0" stroke="#1e1e1e" stroke-width="2" fill="none"></path></g><g stroke-linecap="round" transform="translate(309.97097824515714 98.00001525878906) rotate(0 37 33.33332824707031)"><path d="M16.67 0 C26.54 -0.06, 36.03 1.57, 57.33 0 M16.67 0 C26.27 0.37, 37.6 -0.43, 57.33 0 M57.33 0 C67.37 0.34, 74.98 7.19, 74 16.67 M57.33 0 C69.61 -1.98, 72.52 5.41, 74 16.67 M74 16.67 C73.14 28.64, 75.17 43.73, 74 50 M74 16.67 C74.95 26.47, 74.13 34.68, 74 50 M74 50 C74.55 59.54, 66.96 67.33, 57.33 66.67 M74 50 C74.94 58.92, 68.65 64.48, 57.33 66.67 M57.33 66.67 C45.13 67.55, 31.09 68.3, 16.67 66.67 M57.33 66.67 C48.56 65.66, 39.24 66.91, 16.67 66.67 M16.67 66.67 C4.52 66.98, 0.33 61.54, 0 50 M16.67 66.67 C4.79 66.99, 0.04 60.72, 0 50 M0 50 C1.33 42.69, -0.77 34.49, 0 16.67 M0 50 C-0.62 43.42, 0.23 35.65, 0 16.67 M0 16.67 C-0.77 6.09, 6.45 0.62, 16.67 0 M0 16.67 C-0.17 6.94, 5.35 -0.92, 16.67 0" stroke="#1e1e1e" stroke-width="2" fill="none"></path></g><g stroke-linecap="round" transform="translate(385.97097824515714 121.33332824707031) rotate(0 7 7.333343505859375)"><path d="M6.27 0.39 C7.73 0.27, 10.1 0.43, 11.39 1.37 C12.67 2.31, 13.72 4.51, 13.96 6.04 C14.19 7.58, 13.51 9.19, 12.81 10.58 C12.11 11.96, 11.06 13.74, 9.76 14.35 C8.46 14.97, 6.4 14.8, 5 14.27 C3.6 13.74, 2.22 12.54, 1.37 11.18 C0.51 9.82, -0.22 7.59, -0.13 6.11 C-0.05 4.64, 0.73 3.28, 1.87 2.34 C3 1.39, 5.85 0.88, 6.68 0.46 C7.5 0.03, 6.68 -0.31, 6.8 -0.22 M7.93 0.22 C9.46 0.16, 11.26 1.13, 12.33 2.26 C13.39 3.4, 14.14 5.45, 14.31 7.02 C14.47 8.59, 14.17 10.47, 13.3 11.67 C12.42 12.87, 10.61 13.84, 9.05 14.22 C7.48 14.59, 5.29 14.54, 3.9 13.9 C2.52 13.26, 1.39 11.71, 0.73 10.38 C0.07 9.04, -0.53 7.35, -0.06 5.89 C0.41 4.43, 2.34 2.54, 3.55 1.6 C4.76 0.67, 6.58 0.47, 7.18 0.28 C7.78 0.09, 7.13 0.31, 7.15 0.46" stroke="#1e1e1e" stroke-width="2" fill="none"></path></g><g stroke-linecap="round" transform="translate(171.97097824515714 34.66667175292969) rotate(0 6 7.3333282470703125)"><path d="M5.54 0.23 C6.67 0.01, 8.35 0.58, 9.42 1.5 C10.48 2.43, 11.58 4.27, 11.92 5.79 C12.27 7.31, 12.06 9.25, 11.48 10.6 C10.9 11.96, 9.6 13.27, 8.43 13.93 C7.26 14.58, 5.7 14.94, 4.48 14.51 C3.27 14.09, 1.83 12.61, 1.15 11.37 C0.47 10.13, 0.26 8.66, 0.4 7.08 C0.53 5.49, 1.02 3.08, 1.95 1.84 C2.87 0.6, 5.2 -0.05, 5.93 -0.37 C6.65 -0.69, 6.27 -0.33, 6.29 -0.09 M7.13 -0.6 C8.19 -0.44, 9.33 1.34, 10.07 2.68 C10.81 4.03, 11.42 5.93, 11.56 7.47 C11.71 9.01, 11.75 10.85, 10.93 11.92 C10.1 13, 7.94 13.76, 6.6 13.93 C5.25 14.1, 3.9 13.75, 2.88 12.94 C1.85 12.13, 0.76 10.36, 0.45 9.07 C0.15 7.77, 0.68 6.67, 1.06 5.2 C1.44 3.73, 1.76 0.98, 2.72 0.25 C3.68 -0.48, 6.2 0.86, 6.82 0.84 C7.43 0.82, 6.39 0.19, 6.43 0.14" stroke="#1e1e1e" stroke-width="2" fill="none"></path></g><g stroke-linecap="round" transform="translate(173.3042912334384 198.6666717529297) rotate(0 6.66668701171875 7.6666717529296875)"><path d="M6.54 0 C7.85 0.05, 9.69 0.93, 10.85 2.01 C12.02 3.09, 13.32 4.94, 13.52 6.49 C13.73 8.04, 12.87 9.99, 12.06 11.32 C11.26 12.66, 9.98 14.01, 8.67 14.5 C7.37 15, 5.47 14.8, 4.23 14.31 C2.99 13.82, 1.94 13.01, 1.22 11.56 C0.5 10.1, -0.28 7.17, -0.08 5.59 C0.11 4.01, 1.21 3.02, 2.38 2.08 C3.54 1.14, 6.01 0.29, 6.91 -0.05 C7.81 -0.39, 7.66 -0.13, 7.78 0.05 M7.92 -0.48 C9.33 -0.08, 11.67 1.9, 12.57 3.3 C13.48 4.7, 13.54 6.28, 13.35 7.92 C13.15 9.55, 12.33 11.91, 11.4 13.12 C10.47 14.32, 9.29 14.98, 7.77 15.15 C6.26 15.31, 3.55 15.05, 2.29 14.11 C1.04 13.17, 0.6 11.06, 0.26 9.51 C-0.07 7.96, -0.37 6.13, 0.3 4.79 C0.98 3.45, 3.06 2.31, 4.34 1.47 C5.62 0.63, 7.37 -0.09, 7.99 -0.25 C8.61 -0.41, 8.1 0.19, 8.04 0.52" stroke="#1e1e1e" stroke-width="2" fill="none"></path></g><g transform="translate(147.3042912334384 41.33332824707031) rotate(0 -9.666656494140625 -2.666656494140625)" stroke="none"><path fill="#1e1e1e" d="M 0.67,0.26 Q 0.67,0.26 0.46,1.29 0.25,2.32 -0.05,3.30 -0.36,4.28 -0.71,5.13 -1.06,5.98 -1.52,6.50 -1.97,7.01 -2.93,7.78 -3.90,8.54 -4.45,8.74 -4.99,8.95 -5.91,9.04 -6.82,9.13 -7.56,8.94 -8.29,8.74 -9.20,8.24 -10.11,7.74 -10.91,7.11 -11.70,6.48 -12.62,5.63 -13.53,4.78 -14.30,4.04 -15.07,3.30 -15.78,2.60 -16.49,1.90 -17.22,0.97 -17.96,0.04 -18.50,-0.99 -19.05,-2.04 -19.47,-3.06 -19.88,-4.09 -20.08,-4.76 -20.27,-5.44 -20.36,-6.38 -20.45,-7.33 -20.47,-8.13 -20.49,-8.94 -20.05,-9.91 -19.62,-10.87 -19.27,-11.54 -18.92,-12.22 -18.33,-12.98 -17.73,-13.75 -17.08,-14.46 -16.42,-15.17 -15.22,-15.78 -14.02,-16.38 -13.18,-16.78 -12.33,-17.18 -11.35,-17.21 -10.36,-17.24 -9.52,-17.02 -8.68,-16.79 -7.94,-16.50 -7.20,-16.20 -6.51,-15.88 -5.81,-15.56 -5.14,-15.02 -4.48,-14.48 -4.33,-13.95 -4.18,-13.42 -4.44,-12.85 -4.71,-12.27 -5.22,-11.73 -5.72,-11.18 -6.57,-10.52 -7.42,-9.86 -8.09,-9.26 -8.76,-8.65 -9.43,-8.01 -10.10,-7.38 -10.51,-6.80 -10.92,-6.22 -11.50,-5.38 -12.08,-4.54 -12.71,-3.61 -13.34,-2.67 -13.75,-1.78 -14.17,-0.89 -14.54,0.05 -14.91,1.00 -15.25,2.13 -15.59,3.27 -15.93,4.36 -16.28,5.45 -16.40,6.38 -16.52,7.31 -16.80,8.20 -17.07,9.10 -16.67,9.54 -16.27,9.99 -15.66,10.01 -15.05,10.03 -14.19,9.69 -13.33,9.36 -12.15,8.84 -10.98,8.32 -10.01,7.59 -9.05,6.86 -8.35,5.71 -7.65,4.57 -6.83,3.22 -6.00,1.87 -5.94,1.78 -5.88,1.70 -5.79,1.64 -5.70,1.58 -5.60,1.55 -5.49,1.52 -5.39,1.53 -5.28,1.53 -5.18,1.57 -5.08,1.61 -5.00,1.68 -4.92,1.75 -4.87,1.84 -4.81,1.93 -4.79,2.04 -4.77,2.14 -4.78,2.25 -4.79,2.35 -4.84,2.45 -4.88,2.55 -4.96,2.62 -5.03,2.70 -5.12,2.75 -5.22,2.80 -5.32,2.82 -5.43,2.83 -5.53,2.81 -5.64,2.80 -5.73,2.75 -5.82,2.70 -5.90,2.62 -5.97,2.54 -6.01,2.45 -6.06,2.35 -6.07,2.24 -6.08,2.14 -6.06,2.03 -6.03,1.93 -5.98,1.84 -5.92,1.75 -5.84,1.68 -5.76,1.61 -5.66,1.57 -5.56,1.53 -5.46,1.53 -5.35,1.52 -5.25,1.55 -5.15,1.58 -5.06,1.64 -4.97,1.70 -4.91,1.78 -4.84,1.87 -4.81,1.97 -4.78,2.07 -4.78,2.18 -4.78,2.28 -4.81,2.38 -4.85,2.48 -4.85,2.48 -4.85,2.48 -5.18,4.21 -5.52,5.93 -6.52,7.39 -7.52,8.85 -8.74,9.72 -9.96,10.60 -11.24,11.16 -12.51,11.73 -13.80,12.13 -15.10,12.53 -16.43,12.37 -17.76,12.21 -18.34,11.78 -18.93,11.35 -19.15,10.70 -19.37,10.06 -19.44,9.26 -19.50,8.46 -19.27,7.71 -19.04,6.95 -18.87,5.82 -18.70,4.68 -18.36,3.61 -18.02,2.54 -17.64,1.31 -17.27,0.07 -16.87,-0.95 -16.46,-1.98 -15.95,-3.03 -15.45,-4.09 -14.81,-5.04 -14.17,-5.98 -13.57,-6.85 -12.97,-7.72 -12.42,-8.47 -11.86,-9.21 -11.16,-9.88 -10.46,-10.55 -9.71,-11.21 -8.96,-11.88 -7.90,-12.61 -6.83,-13.35 -7.48,-13.65 -8.13,-13.95 -8.74,-14.20 -9.36,-14.46 -10.39,-14.72 -11.41,-14.98 -12.21,-14.59 -13.00,-14.20 -13.85,-13.85 -14.70,-13.51 -15.27,-12.88 -15.83,-12.25 -16.30,-11.67 -16.76,-11.10 -17.42,-9.98 -18.08,-8.87 -18.04,-8.20 -18.00,-7.54 -17.94,-6.81 -17.89,-6.09 -17.75,-5.55 -17.60,-5.01 -17.23,-4.09 -16.85,-3.16 -16.43,-2.31 -16.01,-1.47 -15.38,-0.66 -14.75,0.14 -14.05,0.83 -13.35,1.52 -12.60,2.25 -11.85,2.97 -11.01,3.76 -10.16,4.55 -9.52,5.07 -8.87,5.59 -7.91,6.14 -6.95,6.68 -6.36,6.65 -5.77,6.62 -5.06,6.29 -4.36,5.97 -3.80,5.47 -3.25,4.98 -2.92,4.23 -2.59,3.47 -2.19,2.49 -1.79,1.50 -1.23,0.61 -0.67,-0.26 -0.62,-0.34 -0.58,-0.42 -0.52,-0.48 -0.46,-0.54 -0.39,-0.59 -0.32,-0.64 -0.24,-0.67 -0.16,-0.70 -0.07,-0.71 0.01,-0.72 0.09,-0.71 0.18,-0.69 0.26,-0.66 0.34,-0.63 0.41,-0.58 0.48,-0.53 0.54,-0.46 0.60,-0.40 0.64,-0.32 0.68,-0.24 0.70,-0.15 0.71,-0.07 0.71,0.01 0.71,0.10 0.69,0.18 0.67,0.26 0.67,0.26 L 0.67,0.26 Z"></path></g><g transform="translate(144.63763473929777 203.3333282470703) rotate(0 -10 1.66668701171875)" stroke="none"><path fill="#1e1e1e" d="M 0.64,0.25 Q 0.64,0.25 0.56,1.33 0.49,2.41 0.15,3.38 -0.18,4.35 -0.79,5.30 -1.39,6.24 -1.84,6.82 -2.29,7.39 -2.69,7.85 -3.09,8.30 -4.35,9.17 -5.60,10.04 -7.26,10.46 -8.91,10.87 -10.17,11.02 -11.43,11.17 -12.67,11.03 -13.91,10.90 -15.04,10.63 -16.17,10.35 -17.04,9.74 -17.92,9.13 -18.49,8.43 -19.07,7.72 -19.45,7.28 -19.83,6.84 -20.32,5.24 -20.80,3.65 -20.78,1.93 -20.77,0.22 -20.75,-1.75 -20.73,-3.73 -20.52,-5.24 -20.32,-6.75 -20.00,-8.04 -19.68,-9.33 -18.64,-10.49 -17.60,-11.66 -16.35,-12.50 -15.10,-13.34 -13.81,-14.07 -12.51,-14.81 -11.12,-15.34 -9.73,-15.87 -8.91,-16.10 -8.08,-16.34 -7.12,-16.25 -6.16,-16.16 -5.06,-15.83 -3.95,-15.51 -3.36,-14.86 -2.77,-14.22 -2.67,-13.58 -2.58,-12.94 -2.85,-12.23 -3.11,-11.53 -3.93,-10.70 -4.75,-9.87 -5.30,-8.98 -5.86,-8.09 -6.53,-7.07 -7.20,-6.06 -8.15,-5.12 -9.11,-4.19 -10.04,-3.28 -10.98,-2.37 -11.95,-1.41 -12.92,-0.45 -13.66,0.47 -14.41,1.40 -14.87,2.29 -15.33,3.17 -15.72,4.11 -16.11,5.05 -16.47,6.02 -16.82,7.00 -17.16,8.14 -17.49,9.28 -17.62,10.62 -17.74,11.96 -17.61,13.22 -17.48,14.48 -17.28,15.51 -17.08,16.55 -16.56,16.81 -16.04,17.08 -14.89,16.02 -13.75,14.96 -12.83,13.72 -11.91,12.48 -10.93,10.99 -9.95,9.50 -9.14,8.28 -8.33,7.05 -7.84,6.03 -7.35,5.01 -6.07,2.70 -4.79,0.38 -4.74,0.29 -4.70,0.19 -4.63,0.12 -4.55,0.04 -4.46,-0.00 -4.36,-0.05 -4.26,-0.07 -4.15,-0.08 -4.05,-0.06 -3.94,-0.05 -3.85,-0.00 -3.76,0.05 -3.68,0.12 -3.61,0.20 -3.57,0.30 -3.52,0.39 -3.51,0.50 -3.50,0.61 -3.53,0.71 -3.55,0.81 -3.61,0.90 -3.66,0.99 -3.74,1.06 -3.82,1.13 -3.92,1.17 -4.02,1.21 -4.13,1.21 -4.23,1.22 -4.34,1.19 -4.44,1.16 -4.53,1.10 -4.61,1.04 -4.68,0.95 -4.74,0.87 -4.77,0.77 -4.81,0.67 -4.81,0.56 -4.81,0.45 -4.77,0.35 -4.74,0.25 -4.67,0.17 -4.61,0.08 -4.52,0.03 -4.43,-0.02 -4.33,-0.05 -4.22,-0.08 -4.12,-0.07 -4.01,-0.07 -3.91,-0.03 -3.81,0.01 -3.73,0.07 -3.65,0.14 -3.60,0.24 -3.55,0.33 -3.52,0.43 -3.50,0.53 -3.51,0.64 -3.53,0.75 -3.53,0.75 -3.53,0.75 -4.21,3.48 -4.89,6.21 -5.48,7.38 -6.06,8.55 -6.87,9.78 -7.68,11.00 -8.72,12.56 -9.75,14.13 -10.86,15.56 -11.97,17.00 -13.16,17.99 -14.35,18.99 -15.36,19.30 -16.36,19.62 -17.33,19.27 -18.30,18.92 -18.97,18.12 -19.64,17.33 -19.93,16.03 -20.22,14.74 -20.35,13.22 -20.48,11.70 -20.31,10.11 -20.14,8.52 -19.77,7.28 -19.41,6.04 -19.03,5.02 -18.65,3.99 -18.20,2.93 -17.76,1.88 -17.16,0.78 -16.55,-0.31 -15.71,-1.36 -14.86,-2.40 -13.88,-3.37 -12.90,-4.34 -11.96,-5.27 -11.01,-6.20 -10.25,-6.89 -9.49,-7.59 -8.83,-8.59 -8.17,-9.59 -7.39,-10.74 -6.61,-11.90 -6.08,-12.64 -5.54,-13.38 -6.49,-13.54 -7.44,-13.70 -8.10,-13.52 -8.77,-13.33 -9.97,-12.88 -11.18,-12.43 -12.39,-11.75 -13.60,-11.07 -14.64,-10.40 -15.67,-9.72 -16.40,-9.11 -17.13,-8.51 -17.36,-7.44 -17.60,-6.37 -17.79,-5.04 -17.98,-3.71 -17.99,-1.70 -18.01,0.29 -18.07,1.63 -18.13,2.97 -17.91,4.05 -17.69,5.13 -17.29,5.58 -16.89,6.02 -16.55,6.49 -16.21,6.97 -15.82,7.34 -15.43,7.71 -14.50,7.93 -13.56,8.15 -12.64,8.29 -11.73,8.42 -10.62,8.30 -9.51,8.17 -8.30,7.95 -7.09,7.72 -5.77,6.71 -4.46,5.69 -4.07,5.20 -3.68,4.71 -3.22,4.06 -2.76,3.40 -2.39,2.40 -2.02,1.41 -1.33,0.57 -0.64,-0.25 -0.60,-0.32 -0.56,-0.40 -0.50,-0.46 -0.44,-0.52 -0.37,-0.57 -0.30,-0.61 -0.23,-0.64 -0.15,-0.67 -0.07,-0.68 0.01,-0.68 0.09,-0.67 0.17,-0.66 0.25,-0.63 0.33,-0.60 0.39,-0.55 0.46,-0.50 0.52,-0.44 0.57,-0.38 0.61,-0.30 0.64,-0.23 0.66,-0.15 0.68,-0.07 0.68,0.01 0.68,0.09 0.66,0.17 0.64,0.25 0.64,0.25 L 0.64,0.25 Z"></path></g><g transform="translate(354.6376652568759 128.00001525878906) rotate(0 -13.333343505859375 1.9999847412109375)" stroke="none"><path fill="#1e1e1e" d="M 0.73,0.14 Q 0.73,0.14 0.75,1.15 0.77,2.16 0.24,3.13 -0.28,4.10 -0.91,4.89 -1.53,5.69 -2.57,6.80 -3.61,7.91 -4.63,8.95 -5.64,9.99 -6.87,11.04 -8.11,12.09 -9.15,12.78 -10.20,13.46 -11.47,13.42 -12.74,13.38 -14.05,12.91 -15.35,12.45 -16.66,11.87 -17.96,11.28 -18.63,11.07 -19.30,10.85 -21.05,10.58 -22.80,10.30 -24.14,9.88 -25.48,9.46 -26.24,8.34 -26.99,7.22 -27.26,5.90 -27.53,4.57 -27.44,2.97 -27.34,1.38 -26.90,-0.47 -26.46,-2.33 -26.08,-3.85 -25.70,-5.37 -25.14,-6.85 -24.57,-8.34 -23.71,-9.81 -22.84,-11.28 -21.58,-12.22 -20.31,-13.16 -19.08,-14.05 -17.85,-14.95 -16.91,-15.55 -15.97,-16.14 -14.94,-16.62 -13.90,-17.09 -12.87,-17.48 -11.83,-17.88 -10.98,-17.88 -10.14,-17.88 -9.48,-17.64 -8.83,-17.39 -8.30,-16.99 -7.77,-16.60 -7.43,-15.85 -7.09,-15.11 -6.99,-14.39 -6.89,-13.68 -6.98,-12.94 -7.08,-12.19 -7.77,-11.54 -8.46,-10.88 -8.76,-10.44 -9.07,-10.00 -9.99,-9.44 -10.92,-8.87 -11.67,-8.03 -12.42,-7.20 -13.55,-5.86 -14.67,-4.53 -15.75,-3.35 -16.83,-2.18 -17.91,-1.25 -18.99,-0.33 -19.98,0.58 -20.96,1.50 -21.28,2.14 -21.59,2.77 -22.17,3.71 -22.76,4.65 -23.15,5.54 -23.54,6.42 -23.89,7.53 -24.24,8.64 -24.58,10.23 -24.91,11.81 -24.86,13.13 -24.80,14.46 -24.78,15.66 -24.76,16.87 -24.60,17.60 -24.43,18.34 -23.98,18.81 -23.54,19.29 -22.98,19.27 -22.42,19.24 -21.66,19.11 -20.90,18.97 -19.86,18.56 -18.83,18.16 -18.07,17.64 -17.30,17.13 -16.61,16.55 -15.92,15.97 -15.32,15.06 -14.73,14.15 -13.89,12.61 -13.05,11.08 -12.28,9.50 -11.52,7.92 -10.16,5.43 -8.80,2.95 -8.75,2.85 -8.69,2.76 -8.62,2.69 -8.54,2.62 -8.44,2.58 -8.34,2.53 -8.24,2.53 -8.13,2.52 -8.03,2.54 -7.92,2.57 -7.83,2.63 -7.74,2.68 -7.68,2.77 -7.61,2.85 -7.57,2.95 -7.54,3.05 -7.54,3.16 -7.53,3.26 -7.56,3.36 -7.60,3.46 -7.66,3.55 -7.72,3.64 -7.81,3.70 -7.89,3.76 -7.99,3.79 -8.10,3.82 -8.20,3.82 -8.31,3.82 -8.41,3.78 -8.51,3.74 -8.59,3.68 -8.67,3.61 -8.73,3.52 -8.79,3.43 -8.81,3.33 -8.84,3.22 -8.83,3.12 -8.82,3.01 -8.78,2.92 -8.74,2.82 -8.66,2.74 -8.59,2.66 -8.50,2.61 -8.41,2.56 -8.30,2.54 -8.20,2.52 -8.09,2.53 -7.99,2.54 -7.89,2.59 -7.80,2.64 -7.72,2.71 -7.65,2.79 -7.60,2.88 -7.56,2.98 -7.54,3.09 -7.53,3.19 -7.55,3.29 -7.57,3.40 -7.57,3.40 -7.57,3.40 -8.47,6.15 -9.37,8.90 -10.12,10.59 -10.86,12.28 -11.77,13.92 -12.68,15.56 -13.49,16.71 -14.31,17.87 -15.13,18.54 -15.95,19.21 -16.95,19.84 -17.94,20.47 -19.24,20.94 -20.53,21.42 -21.65,21.55 -22.77,21.69 -23.92,21.40 -25.07,21.11 -25.94,20.06 -26.82,19.01 -27.05,17.96 -27.28,16.91 -27.30,15.72 -27.31,14.53 -27.34,12.92 -27.38,11.30 -27.01,9.59 -26.64,7.88 -26.24,6.63 -25.84,5.39 -25.37,4.36 -24.89,3.32 -24.34,2.44 -23.80,1.56 -23.25,0.63 -22.71,-0.30 -21.67,-1.27 -20.63,-2.25 -19.65,-3.07 -18.68,-3.89 -17.64,-5.02 -16.59,-6.15 -15.42,-7.54 -14.25,-8.93 -13.21,-9.98 -12.16,-11.04 -11.57,-11.32 -10.98,-11.60 -10.14,-12.50 -9.31,-13.40 -9.57,-14.30 -9.83,-15.21 -10.45,-15.44 -11.07,-15.67 -12.00,-15.30 -12.93,-14.94 -13.82,-14.54 -14.71,-14.15 -15.59,-13.59 -16.46,-13.04 -17.71,-12.13 -18.96,-11.22 -19.91,-10.61 -20.86,-10.01 -21.61,-8.74 -22.36,-7.48 -22.87,-6.14 -23.39,-4.80 -23.76,-3.29 -24.13,-1.77 -24.54,-0.10 -24.95,1.55 -25.06,2.85 -25.17,4.15 -25.02,5.13 -24.86,6.10 -24.63,6.78 -24.39,7.47 -23.40,7.68 -22.41,7.89 -20.47,8.21 -18.53,8.52 -17.75,8.79 -16.96,9.05 -15.73,9.60 -14.50,10.16 -13.47,10.56 -12.43,10.96 -11.79,11.16 -11.16,11.35 -10.42,10.79 -9.69,10.23 -8.53,9.26 -7.38,8.29 -6.38,7.26 -5.38,6.24 -4.39,5.21 -3.41,4.18 -2.87,3.53 -2.34,2.89 -1.93,2.27 -1.53,1.66 -1.13,0.75 -0.73,-0.14 -0.70,-0.23 -0.67,-0.31 -0.62,-0.39 -0.58,-0.47 -0.51,-0.53 -0.45,-0.59 -0.37,-0.64 -0.29,-0.68 -0.20,-0.71 -0.12,-0.73 -0.03,-0.74 0.05,-0.74 0.14,-0.72 0.23,-0.70 0.31,-0.67 0.39,-0.63 0.46,-0.57 0.53,-0.51 0.59,-0.44 0.64,-0.37 0.68,-0.29 0.71,-0.21 0.73,-0.12 0.74,-0.03 0.73,0.05 0.73,0.14 0.73,0.14 L 0.73,0.14 Z"></path></g><g stroke-linecap="round"><g transform="translate(403.5604814464428 128.5737165270925) rotate(0 30.41425959526441 -0.28966845490293736)"><path d="M0.07 -1.04 C9.98 -1.35, 49.95 -1.24, 59.88 -1 M-1.36 1.03 C8.9 0.82, 51.54 0.73, 62.1 0.31" stroke="#1e1e1e" stroke-width="1" fill="none"></path></g></g><mask></mask><g stroke-linecap="round"><g transform="translate(187.4744703904384 41.675818709629254) rotate(0 61.11820090499671 34.75916708272425)"><path d="M-0.8 0.25 C11.84 1.73, 55.41 -2.22, 76.05 9.19 C96.7 20.59, 115.49 58.74, 123.08 68.66 M0.98 -0.66 C13.97 0.43, 57.94 -4.37, 78.24 7.32 C98.54 19.02, 115.55 59.19, 122.76 69.52" stroke="#1e1e1e" stroke-width="1" fill="none"></path></g></g><mask></mask><g stroke-linecap="round"><g transform="translate(191.52964312517088 205.62313880958925) rotate(0 58.80091956359769 -24.33140767621154)"><path d="M-0.14 0.53 C-0.39 0.16, -14.48 -1.16, -2.32 -1.49 C9.84 -1.81, 52.69 6.61, 72.82 -1.42 C92.96 -9.45, 110.8 -41.99, 118.49 -49.66 M-1.67 -0.23 C-1.45 -1.06, -12.29 -2.97, 0.09 -3.48 C12.46 -3.99, 52.87 4.31, 72.57 -3.29 C92.27 -10.9, 110.23 -41.28, 118.29 -49.08" stroke="#1e1e1e" stroke-width="1" fill="none"></path></g></g><mask></mask><g stroke-linecap="round"><g transform="translate(106.80908125800812 27.98999331163543) rotate(0 -15.195273540335165 12.583583523105375)"><path d="M0.59 0.51 C0.47 -0.05, 4.39 -3.6, -0.51 -3.88 C-5.4 -4.16, -23.88 -6.48, -28.79 -1.17 C-33.7 4.14, -34.86 23.23, -29.97 27.98 C-25.07 32.72, -4.14 27.72, 0.58 27.31 M-0.56 -0.26 C-0.86 -0.66, 3.35 -2.4, -1.47 -2.88 C-6.29 -3.36, -24.8 -8.45, -29.47 -3.12 C-34.14 2.2, -34.35 24.43, -29.5 29.06 C-24.64 33.69, -5.11 24.87, -0.33 24.66" stroke="#1e1e1e" stroke-width="1" fill="none"></path></g></g><mask></mask><g stroke-linecap="round"><g transform="translate(104.90965847983949 191.33911322497926) rotate(0 -13.29585076216651 15.907540779396285)"><path d="M-0.13 0.13 C-4.25 -0.18, -20.56 -6.29, -24.98 -0.76 C-29.39 4.77, -30.57 27.69, -26.6 33.3 C-22.64 38.9, -5.51 33.11, -1.19 32.87 M-1.66 -0.85 C-5.86 -1.04, -21.29 -8.13, -25.58 -2.78 C-29.86 2.57, -31.38 25.63, -27.38 31.24 C-23.38 36.84, -6.33 30.69, -1.57 30.86" stroke="#1e1e1e" stroke-width="1" fill="none"></path></g></g><mask></mask><g stroke-linecap="round"><g transform="translate(39.38007258408567 37.961886817511015) rotate(0 17.094674581500982 0.9497059548336324)"><path d="M-0.32 0.35 C5.36 0.7, 28.22 1.9, 33.91 2.07 M0.52 0.06 C6.4 0.24, 29.25 0.91, 35 1.19" stroke="#1e1e1e" stroke-width="1" fill="none"></path></g></g><mask></mask><g stroke-linecap="round"><g transform="translate(76.41853417733779 204.160119161105) rotate(0 -13.770717325210057 -1.4245562151250795)"><path d="M0.13 0.44 C-4.33 -0.12, -22.46 -2.19, -27.03 -2.82 M-0.46 0.19 C-4.93 -0.04, -22.69 -1.58, -27.2 -2.11" stroke="#1e1e1e" stroke-width="1" fill="none"></path></g></g><mask></mask><g transform="translate(21.461822196379558 29.930816236814167) rotate(0 -5.730911098189779 12.065066549035535)" stroke="none"><path fill="#1e1e1e" d="M 0.32,0.73 Q 0.32,0.73 -0.30,1.41 -0.93,2.09 -1.59,2.41 -2.25,2.73 -3.44,3.23 -4.62,3.73 -5.67,4.46 -6.72,5.19 -7.24,5.54 -7.76,5.88 -8.34,7.91 -8.92,9.94 -9.06,11.97 -9.19,14.00 -8.77,16.14 -8.34,18.28 -7.96,19.15 -7.57,20.02 -6.60,19.24 -5.62,18.47 -5.00,16.98 -4.39,15.49 -3.96,13.18 -3.53,10.88 -3.34,8.87 -3.15,6.85 -2.98,5.10 -2.81,3.35 -2.75,1.95 -2.69,0.54 -2.67,0.10 -2.66,-0.33 -2.63,-0.49 -2.60,-0.66 -2.53,-0.82 -2.46,-0.97 -2.36,-1.11 -2.26,-1.24 -2.12,-1.35 -1.99,-1.46 -1.84,-1.53 -1.68,-1.60 -1.51,-1.63 -1.35,-1.66 -1.18,-1.65 -1.01,-1.65 -0.84,-1.60 -0.68,-1.55 -0.53,-1.46 -0.39,-1.37 -0.27,-1.25 -0.14,-1.13 -0.05,-0.99 0.03,-0.84 0.08,-0.68 0.13,-0.52 0.14,-0.35 0.15,-0.18 0.25,0.35 0.34,0.89 0.47,2.17 0.60,3.44 0.75,5.38 0.89,7.31 1.04,9.43 1.18,11.55 1.23,13.95 1.27,16.36 1.25,18.33 1.22,20.30 0.93,22.75 0.65,25.19 0.63,25.29 0.62,25.40 0.57,25.49 0.52,25.59 0.44,25.66 0.36,25.73 0.27,25.78 0.17,25.83 0.07,25.84 -0.03,25.85 -0.13,25.83 -0.24,25.81 -0.33,25.75 -0.42,25.70 -0.49,25.62 -0.56,25.54 -0.60,25.44 -0.64,25.34 -0.64,25.23 -0.65,25.13 -0.62,25.02 -0.60,24.92 -0.54,24.83 -0.48,24.75 -0.39,24.68 -0.31,24.62 -0.21,24.58 -0.11,24.55 -0.00,24.55 0.09,24.55 0.19,24.58 0.30,24.61 0.38,24.68 0.47,24.74 0.53,24.83 0.59,24.91 0.62,25.02 0.64,25.12 0.64,25.22 0.63,25.33 0.60,25.43 0.56,25.53 0.49,25.61 0.42,25.69 0.33,25.75 0.24,25.80 0.14,25.83 0.03,25.85 -0.06,25.84 -0.17,25.83 -0.27,25.78 -0.36,25.74 -0.44,25.67 -0.52,25.59 -0.57,25.50 -0.62,25.41 -0.64,25.30 -0.65,25.20 -0.65,25.20 -0.65,25.20 -0.97,22.77 -1.30,20.34 -1.38,18.38 -1.46,16.43 -1.54,14.09 -1.62,11.75 -1.77,9.63 -1.92,7.52 -2.05,5.63 -2.19,3.73 -2.32,2.52 -2.44,1.30 -2.55,0.48 -2.66,-0.33 -2.63,-0.49 -2.60,-0.66 -2.53,-0.82 -2.46,-0.97 -2.36,-1.11 -2.26,-1.24 -2.12,-1.35 -1.99,-1.46 -1.84,-1.53 -1.68,-1.60 -1.51,-1.63 -1.35,-1.66 -1.18,-1.65 -1.01,-1.65 -0.84,-1.60 -0.68,-1.55 -0.53,-1.46 -0.39,-1.37 -0.27,-1.25 -0.14,-1.13 -0.05,-0.99 0.03,-0.85 0.08,-0.68 0.13,-0.52 0.14,-0.35 0.15,-0.18 0.11,0.25 0.06,0.68 -0.02,2.15 -0.10,3.62 -0.28,5.37 -0.46,7.12 -0.68,9.26 -0.89,11.40 -1.42,13.96 -1.95,16.53 -2.78,18.34 -3.60,20.15 -4.79,21.29 -5.97,22.42 -7.66,22.10 -9.35,21.78 -10.22,20.32 -11.09,18.86 -11.58,16.34 -12.06,13.83 -11.88,11.44 -11.71,9.04 -10.75,6.37 -9.79,3.69 -9.13,3.17 -8.47,2.65 -7.15,1.76 -5.83,0.87 -4.70,0.40 -3.57,-0.06 -2.88,-0.38 -2.18,-0.70 -1.25,-0.72 -0.32,-0.73 -0.23,-0.76 -0.14,-0.79 -0.04,-0.80 0.05,-0.80 0.14,-0.78 0.24,-0.77 0.33,-0.73 0.42,-0.69 0.49,-0.62 0.57,-0.56 0.63,-0.49 0.69,-0.41 0.73,-0.32 0.77,-0.23 0.79,-0.14 0.80,-0.04 0.80,0.05 0.79,0.14 0.76,0.24 0.73,0.33 0.68,0.41 0.63,0.50 0.56,0.57 0.49,0.63 0.41,0.68 0.32,0.73 0.32,0.73 L 0.32,0.73 Z"></path></g><g transform="translate(25.382965718156015 180.1409520729259) rotate(0 -0.7540657963535864 20.661436648164738)" stroke="none"><path fill="#1e1e1e" d="M 0.68,0.30 Q 0.68,0.30 0.59,1.19 0.50,2.07 0.43,3.01 0.35,3.96 0.24,6.21 0.12,8.46 0.06,9.77 -3.82,11.08 -0.02,12.06 -0.04,13.04 -0.05,16.65 -0.06,20.27 0.01,23.61 0.10,26.96 0.13,29.87 0.17,32.78 0.35,34.83 0.53,36.88 0.48,38.55 0.43,40.22 0.49,40.31 0.55,40.40 0.57,40.50 0.59,40.61 0.58,40.71 0.58,40.82 0.53,40.91 0.49,41.01 0.42,41.09 0.35,41.17 0.25,41.22 0.16,41.27 0.05,41.29 -0.04,41.31 -0.14,41.29 -0.25,41.28 -0.34,41.23 -0.44,41.18 -0.51,41.10 -0.59,41.03 -0.63,40.93 -0.68,40.84 -0.69,40.73 -0.71,40.63 -0.69,40.52 -0.66,40.42 -0.61,40.33 -0.56,40.23 -0.48,40.16 -0.40,40.09 -0.30,40.05 -0.20,40.01 -0.10,40.01 0.00,40.00 0.10,40.02 0.21,40.05 0.29,40.11 0.38,40.17 0.45,40.25 0.51,40.33 0.55,40.43 0.59,40.53 0.59,40.64 0.59,40.75 0.56,40.85 0.52,40.95 0.46,41.04 0.40,41.12 0.31,41.18 0.22,41.24 0.12,41.27 0.02,41.30 -0.08,41.30 -0.18,41.30 -0.28,41.26 -0.38,41.22 -0.46,41.15 -0.54,41.08 -0.54,41.08 -0.54,41.08 -1.42,39.11 -2.29,37.13 -2.49,34.98 -2.69,32.82 -2.72,29.92 -2.75,27.03 -2.83,23.64 -2.91,20.26 -2.90,16.61 -2.88,12.96 -2.85,11.95 -2.82,10.94 -2.76,9.61 -2.69,8.28 -2.51,5.94 -2.33,3.60 -2.11,2.32 -1.89,1.04 -1.28,0.37 -0.68,-0.30 -0.63,-0.38 -0.59,-0.46 -0.52,-0.52 -0.46,-0.58 -0.38,-0.63 -0.31,-0.68 -0.22,-0.71 -0.13,-0.73 -0.04,-0.74 0.04,-0.74 0.13,-0.73 0.22,-0.71 0.30,-0.68 0.38,-0.64 0.45,-0.58 0.52,-0.53 0.58,-0.46 0.64,-0.39 0.67,-0.30 0.71,-0.22 0.73,-0.13 0.74,-0.04 0.74,0.04 0.73,0.13 0.71,0.21 0.68,0.30 0.68,0.30 L 0.68,0.30 Z"></path></g><g transform="translate(33.52688874541508 200.04833328027067) rotate(0 -3.3178888135868476 11.160172405295228)" stroke="none"><path fill="#1e1e1e" d="M -0.57,0.43 Q -0.57,0.43 -0.93,0.18 -1.28,-0.06 -1.75,0.20 -2.22,0.47 -3.04,1.20 -3.85,1.93 -4.37,2.34 -4.89,2.75 -5.45,3.18 -6.01,3.61 -6.48,4.02 -6.94,4.44 -7.57,4.85 -8.20,5.26 -8.68,5.58 -9.16,5.91 -9.54,7.04 -9.93,8.18 -10.02,9.37 -10.10,10.56 -10.14,11.77 -10.18,12.98 -10.03,14.56 -9.88,16.14 -9.65,17.39 -9.42,18.64 -9.02,19.39 -8.63,20.14 -8.23,20.71 -7.82,21.28 -7.07,21.80 -6.31,22.33 -5.59,22.16 -4.86,21.98 -4.26,21.69 -3.66,21.39 -2.75,21.13 -1.83,20.87 -0.87,20.75 0.08,20.64 0.68,20.45 1.27,20.26 1.87,19.26 2.47,18.26 2.68,17.15 2.89,16.05 2.99,14.98 3.09,13.91 3.22,12.97 3.36,12.03 3.32,10.96 3.28,9.90 3.27,8.87 3.26,7.85 3.25,6.89 3.24,5.94 3.15,5.16 3.07,4.39 2.95,3.83 2.83,3.27 2.62,2.65 2.41,2.03 2.23,1.36 2.04,0.70 1.33,0.55 0.63,0.41 -0.00,0.64 -0.65,0.88 -2.19,1.02 -3.74,1.17 -3.81,1.19 -3.89,1.21 -3.97,1.20 -4.05,1.20 -4.13,1.18 -4.20,1.16 -4.27,1.12 -4.34,1.09 -4.40,1.03 -4.46,0.98 -4.50,0.91 -4.55,0.85 -4.57,0.77 -4.60,0.70 -4.61,0.62 -4.61,0.54 -4.60,0.46 -4.59,0.38 -4.56,0.31 -4.53,0.24 -4.49,0.17 -4.44,0.11 -4.38,0.06 -4.32,0.01 -4.25,-0.02 -4.18,-0.06 -3.77,0.11 -3.36,0.28 -3.33,0.38 -3.31,0.49 -3.31,0.59 -3.32,0.70 -3.36,0.80 -3.40,0.90 -3.47,0.98 -3.54,1.06 -3.63,1.11 -3.72,1.16 -3.82,1.19 -3.93,1.21 -4.03,1.20 -4.14,1.18 -4.23,1.14 -4.33,1.09 -4.41,1.02 -4.48,0.95 -4.53,0.85 -4.58,0.76 -4.60,0.65 -4.61,0.55 -4.60,0.44 -4.58,0.34 -4.53,0.25 -4.48,0.15 -4.40,0.08 -4.32,0.01 -4.23,-0.03 -4.13,-0.07 -4.02,-0.08 -3.92,-0.09 -3.81,-0.07 -3.71,-0.05 -3.62,0.00 -3.53,0.06 -3.46,0.14 -3.39,0.22 -3.35,0.32 -3.32,0.42 -3.31,0.52 -3.31,0.63 -3.34,0.73 -3.36,0.83 -3.42,0.92 -3.48,1.01 -3.57,1.07 -3.65,1.14 -3.76,1.17 -3.86,1.20 -3.96,1.20 -4.07,1.20 -4.17,1.17 -4.27,1.13 -4.35,1.07 -4.44,1.00 -4.09,1.09 -3.74,1.17 -3.81,1.19 -3.89,1.21 -3.97,1.20 -4.05,1.20 -4.13,1.18 -4.20,1.16 -4.27,1.12 -4.34,1.09 -4.40,1.03 -4.46,0.98 -4.50,0.91 -4.55,0.85 -4.57,0.77 -4.60,0.70 -4.61,0.62 -4.61,0.54 -4.60,0.46 -4.59,0.38 -4.56,0.31 -4.53,0.24 -4.49,0.17 -4.44,0.11 -4.38,0.06 -4.32,0.01 -4.25,-0.02 -4.18,-0.06 -2.86,-0.83 -1.54,-1.60 -0.81,-1.86 -0.08,-2.12 0.69,-2.31 1.48,-2.50 2.18,-2.38 2.88,-2.25 3.40,-1.78 3.92,-1.32 4.22,-0.66 4.53,-0.01 4.70,0.60 4.88,1.23 5.12,1.99 5.37,2.76 5.50,3.44 5.63,4.11 5.72,5.02 5.81,5.92 5.81,6.87 5.82,7.82 5.83,8.83 5.84,9.84 5.86,11.11 5.88,12.39 5.75,13.28 5.62,14.16 5.50,15.37 5.37,16.57 5.06,17.94 4.75,19.32 4.16,20.40 3.58,21.48 2.81,22.04 2.03,22.59 1.19,22.83 0.36,23.07 -0.41,23.15 -1.19,23.22 -1.91,23.41 -2.64,23.60 -3.45,23.97 -4.26,24.33 -5.08,24.50 -5.90,24.68 -6.62,24.59 -7.34,24.50 -8.03,24.11 -8.73,23.73 -9.26,23.19 -9.79,22.66 -10.29,21.94 -10.78,21.21 -11.29,20.16 -11.79,19.10 -12.04,17.73 -12.29,16.36 -12.44,14.63 -12.60,12.90 -12.55,11.63 -12.50,10.36 -12.37,8.98 -12.25,7.60 -11.89,6.41 -11.53,5.22 -11.00,4.60 -10.47,3.98 -9.96,3.65 -9.45,3.32 -8.96,3.01 -8.48,2.70 -7.95,2.23 -7.42,1.77 -6.87,1.35 -6.32,0.93 -5.87,0.58 -5.42,0.23 -4.85,-0.29 -4.27,-0.81 -3.71,-1.21 -3.16,-1.62 -2.55,-1.84 -1.94,-2.07 -1.30,-2.02 -0.66,-1.97 -0.20,-1.64 0.24,-1.32 0.41,-0.87 0.57,-0.43 0.62,-0.35 0.66,-0.28 0.68,-0.19 0.71,-0.11 0.71,-0.02 0.72,0.05 0.70,0.14 0.68,0.22 0.64,0.30 0.61,0.38 0.55,0.45 0.50,0.52 0.43,0.57 0.36,0.62 0.28,0.66 0.20,0.69 0.11,0.70 0.02,0.72 -0.05,0.71 -0.14,0.70 -0.22,0.68 -0.31,0.65 -0.38,0.60 -0.45,0.55 -0.51,0.49 -0.57,0.43 -0.57,0.43 L -0.57,0.43 Z"></path></g><g transform="translate(490.3427707730089 112.63126888710474) rotate(0 8.351515146942177 21.282943564007525)" stroke="none"><path fill="#1e1e1e" d="M 0.15,-0.76 Q 0.15,-0.76 0.97,-0.84 1.79,-0.93 2.75,-0.71 3.72,-0.49 4.56,-0.58 5.41,-0.67 6.49,-0.70 7.56,-0.73 9.17,-0.59 10.78,-0.44 12.79,-0.39 14.79,-0.34 15.97,-0.32 17.14,-0.29 19.18,-0.28 21.22,-0.28 22.57,-0.27 23.91,-0.27 25.01,0.07 26.11,0.42 26.77,1.00 27.43,1.58 27.60,2.24 27.78,2.90 27.55,3.48 27.33,4.07 26.60,4.90 25.88,5.74 25.23,6.40 24.59,7.05 23.77,8.18 22.94,9.31 21.45,11.09 19.97,12.88 17.78,15.34 15.60,17.81 13.75,19.93 11.90,22.05 10.17,23.90 8.44,25.75 6.09,27.68 3.74,29.61 1.85,31.18 -0.04,32.74 -1.57,34.29 -3.09,35.83 -4.54,37.29 -5.99,38.74 -6.68,39.73 -7.37,40.72 -7.86,41.31 -8.34,41.90 -8.69,41.36 -9.04,40.82 -7.65,40.92 -6.26,41.01 -5.01,40.89 -3.76,40.76 -1.80,40.56 0.16,40.35 2.07,40.11 3.98,39.87 6.09,39.76 8.20,39.65 10.33,39.61 12.47,39.56 14.30,39.55 16.13,39.53 17.55,39.24 18.97,38.95 20.95,38.46 22.93,37.98 23.03,37.94 23.13,37.89 23.23,37.88 23.34,37.87 23.44,37.89 23.55,37.91 23.64,37.97 23.73,38.02 23.80,38.10 23.87,38.18 23.91,38.28 23.95,38.38 23.95,38.48 23.96,38.59 23.93,38.69 23.90,38.80 23.84,38.88 23.78,38.97 23.70,39.04 23.62,39.10 23.51,39.14 23.41,39.17 23.31,39.17 23.20,39.17 23.10,39.14 23.00,39.10 22.92,39.04 22.83,38.98 22.77,38.89 22.71,38.80 22.68,38.70 22.65,38.60 22.66,38.49 22.66,38.38 22.70,38.29 22.74,38.19 22.81,38.11 22.88,38.02 22.97,37.97 23.06,37.91 23.16,37.89 23.27,37.87 23.37,37.88 23.48,37.89 23.57,37.93 23.67,37.98 23.75,38.05 23.83,38.12 23.88,38.22 23.93,38.31 23.94,38.41 23.96,38.52 23.95,38.62 23.93,38.73 23.88,38.82 23.83,38.92 23.75,38.99 23.68,39.06 23.68,39.06 23.68,39.06 21.61,40.40 19.54,41.73 17.86,42.07 16.17,42.42 14.35,42.44 12.53,42.45 10.43,42.50 8.34,42.54 6.34,42.64 4.34,42.74 2.40,42.98 0.46,43.23 -1.52,43.44 -3.50,43.64 -4.98,43.77 -6.47,43.89 -7.65,43.79 -8.83,43.69 -9.51,43.38 -10.20,43.07 -10.45,41.70 -10.70,40.33 -10.22,39.68 -9.74,39.04 -8.89,37.87 -8.04,36.70 -6.60,35.25 -5.15,33.79 -3.52,32.15 -1.89,30.51 0.01,28.94 1.91,27.37 4.12,25.57 6.33,23.78 8.03,21.96 9.73,20.15 11.58,18.02 13.44,15.89 15.60,13.46 17.75,11.03 19.19,9.31 20.63,7.60 21.58,6.32 22.54,5.04 23.17,4.40 23.80,3.77 24.48,3.36 25.16,2.96 24.51,2.68 23.85,2.41 22.53,2.40 21.20,2.40 19.14,2.39 17.08,2.37 15.90,2.34 14.71,2.32 12.63,2.24 10.54,2.17 9.08,2.03 7.63,1.88 6.60,1.91 5.57,1.93 4.37,1.96 3.17,2.00 2.23,1.77 1.30,1.55 0.57,1.15 -0.15,0.76 -0.24,0.73 -0.33,0.70 -0.41,0.65 -0.48,0.60 -0.55,0.53 -0.62,0.46 -0.66,0.38 -0.71,0.30 -0.74,0.21 -0.76,0.12 -0.77,0.03 -0.77,-0.05 -0.75,-0.15 -0.73,-0.24 -0.69,-0.32 -0.65,-0.41 -0.60,-0.48 -0.54,-0.55 -0.46,-0.61 -0.39,-0.67 -0.30,-0.70 -0.21,-0.74 -0.12,-0.76 -0.03,-0.77 0.05,-0.77 0.15,-0.76 0.15,-0.76 L 0.15,-0.76 Z"></path></g><g transform="translate(493.5756217111014 134.18362491751844) rotate(0 12.66199128596395 -0.2694124664061519)" stroke="none"><path fill="#1e1e1e" d="M 0.04,-1.08 Q 0.04,-1.08 3.46,-1.04 6.87,-0.99 9.24,-0.92 11.60,-0.86 13.00,-0.98 14.40,-1.11 15.07,-1.30 15.75,-1.49 17.88,-1.70 20.01,-1.91 22.21,-1.57 24.41,-1.22 24.51,-1.20 24.62,-1.18 24.71,-1.13 24.80,-1.07 24.87,-1.00 24.94,-0.92 24.98,-0.82 25.02,-0.72 25.03,-0.61 25.04,-0.51 25.01,-0.40 24.99,-0.30 24.93,-0.21 24.87,-0.12 24.79,-0.06 24.70,0.00 24.60,0.03 24.50,0.07 24.40,0.07 24.29,0.07 24.19,0.04 24.09,0.01 24.00,-0.04 23.92,-0.11 23.86,-0.19 23.80,-0.28 23.77,-0.38 23.73,-0.48 23.74,-0.59 23.74,-0.69 23.78,-0.79 23.82,-0.89 23.88,-0.98 23.95,-1.06 24.04,-1.11 24.13,-1.17 24.23,-1.20 24.34,-1.22 24.44,-1.21 24.55,-1.20 24.65,-1.16 24.74,-1.12 24.82,-1.05 24.90,-0.97 24.95,-0.88 25.00,-0.79 25.02,-0.68 25.04,-0.58 25.03,-0.47 25.01,-0.37 24.96,-0.27 24.92,-0.18 24.84,-0.10 24.76,-0.03 24.67,0.01 24.57,0.05 24.47,0.07 24.36,0.08 24.36,0.08 24.36,0.08 22.33,0.28 20.30,0.48 18.36,0.75 16.42,1.03 15.52,1.26 14.63,1.48 13.08,1.61 11.53,1.74 9.14,1.67 6.75,1.61 3.35,1.35 -0.04,1.08 -0.17,1.06 -0.30,1.04 -0.42,0.99 -0.54,0.94 -0.65,0.86 -0.75,0.78 -0.84,0.68 -0.92,0.57 -0.98,0.45 -1.03,0.33 -1.06,0.21 -1.08,0.08 -1.08,-0.04 -1.07,-0.18 -1.03,-0.30 -1.00,-0.43 -0.93,-0.54 -0.86,-0.65 -0.77,-0.75 -0.68,-0.84 -0.57,-0.91 -0.46,-0.98 -0.33,-1.02 -0.21,-1.06 -0.08,-1.07 0.04,-1.08 0.04,-1.08 L 0.04,-1.08 Z"></path></g></svg>