<svg version="1.1" xmlns="http://www.w3.org/2000/svg" viewBox="0 0 1430.1084673831942 512.0374583355377" width="1430.1084673831942" height="512.0374583355377" class="excalidraw-svg"><!-- svg-source:excalidraw --><metadata></metadata><defs><style class="style-fonts">
      </style></defs><rect x="0" y="0" width="1430.1084673831942" height="512.0374583355377" fill="#ffffff"></rect><g transform="translate(501.55029064042856 92.88797679562254) rotate(0 29.980803941218312 57.31620483818227)" stroke="none"><path fill="#1e1e1e" d="M -2.76,0.55 Q -2.76,0.55 -3.28,-1.97 -3.80,-4.49 -2.49,-2.44 -1.17,-0.39 -1.20,3.26 -1.23,6.92 -1.24,10.50 -1.26,14.09 -1.25,18.15 -1.24,22.21 -1.24,26.47 -1.24,30.73 -1.24,34.06 -1.24,37.40 -1.24,39.83 -1.24,42.26 -0.79,45.66 -0.35,49.07 0.02,53.09 0.40,57.11 0.47,60.01 0.54,62.91 0.55,65.09 0.55,67.28 0.56,69.63 0.57,71.98 0.56,75.80 0.56,79.62 0.56,82.91 0.56,86.20 0.57,88.96 0.58,91.72 0.57,94.39 0.57,97.05 0.57,99.88 0.58,102.71 0.57,105.21 0.57,107.71 0.57,110.50 0.56,113.30 -0.18,116.96 -0.94,120.63 -1.05,123.22 -1.17,125.82 -1.92,128.63 -2.68,131.44 -2.79,133.87 -2.90,136.30 -3.20,139.61 -3.50,142.92 -3.63,142.61 -3.75,142.30 -3.81,142.81 -3.88,143.33 -4.06,143.81 -4.25,144.30 -4.54,144.73 -4.84,145.16 -5.23,145.50 -5.62,145.84 -6.08,146.08 -6.54,146.33 -7.04,146.45 -7.55,146.57 -8.07,146.57 -8.59,146.57 -9.09,146.45 -9.60,146.32 -10.06,146.08 -10.52,145.84 -10.91,145.49 -11.30,145.15 -11.59,144.72 -11.89,144.29 -12.07,143.80 -12.25,143.32 -12.31,142.80 -12.38,142.28 -10.15,140.60 -7.93,138.91 -5.39,136.46 -2.85,134.02 -0.88,133.03 1.07,132.05 3.29,131.78 5.51,131.51 7.68,130.79 9.85,130.07 12.65,129.00 15.45,127.92 17.61,127.33 19.77,126.74 21.79,125.80 23.82,124.87 26.55,123.93 29.28,123.00 33.13,122.42 36.98,121.83 39.11,122.08 41.25,122.32 42.43,121.81 43.61,121.30 44.17,121.38 44.72,121.46 45.24,121.66 45.76,121.87 46.22,122.19 46.67,122.52 47.04,122.95 47.40,123.37 47.66,123.87 47.91,124.37 48.04,124.92 48.16,125.46 48.15,126.02 48.14,126.58 48.00,127.12 47.86,127.66 47.59,128.16 47.32,128.65 46.95,129.06 46.57,129.47 46.10,129.79 45.64,130.10 45.11,130.29 44.58,130.48 44.03,130.54 43.47,130.60 45.17,127.06 46.86,123.51 49.94,122.77 53.01,122.02 53.13,118.71 53.25,115.40 53.27,112.22 53.28,109.03 53.90,106.51 54.52,103.99 54.67,101.54 54.83,99.10 55.46,95.60 56.09,92.10 56.32,88.95 56.54,85.80 56.65,82.43 56.75,79.05 56.80,76.09 56.84,73.13 56.87,69.85 56.89,66.56 57.44,63.24 58.00,59.92 58.74,56.57 59.48,53.21 59.23,49.90 58.98,46.59 59.41,42.03 59.84,37.47 60.01,33.78 60.18,30.10 60.78,25.72 61.37,21.34 61.60,17.73 61.83,14.11 61.93,11.05 62.03,7.99 62.06,4.68 62.10,1.37 62.13,-1.06 62.16,-3.49 62.72,-6.50 63.28,-9.51 63.45,-11.84 63.62,-14.18 63.72,-16.69 63.82,-19.20 64.06,-21.46 64.30,-23.72 62.15,-23.43 60.00,-23.15 56.16,-22.52 52.31,-21.89 49.94,-21.75 47.58,-21.62 44.76,-20.90 41.94,-20.18 39.95,-19.04 37.96,-17.90 34.65,-16.16 31.35,-14.42 28.61,-12.77 25.86,-11.13 23.39,-10.12 20.91,-9.11 18.52,-8.61 16.14,-8.10 13.49,-7.91 10.85,-7.73 8.21,-7.29 5.57,-6.86 2.55,-4.94 -0.46,-3.03 -2.77,-3.65 -5.08,-4.28 -5.39,-4.27 -5.71,-4.25 -6.02,-4.32 -6.33,-4.38 -6.62,-4.51 -6.90,-4.65 -7.15,-4.85 -7.39,-5.05 -7.58,-5.30 -7.78,-5.55 -7.90,-5.85 -8.02,-6.14 -8.08,-6.45 -8.13,-6.76 -8.10,-7.08 -8.08,-7.39 -7.98,-7.69 -7.88,-7.99 -7.71,-8.26 -7.54,-8.53 -7.31,-8.75 -7.09,-8.97 -6.81,-9.13 -6.54,-9.29 -6.23,-9.38 -5.93,-9.46 -6.17,-9.40 -6.42,-9.34 -6.00,-9.42 -5.58,-9.50 -5.16,-9.44 -4.74,-9.39 -4.36,-9.20 -3.98,-9.01 -3.68,-8.71 -3.37,-8.41 -3.18,-8.03 -2.99,-7.65 -2.94,-7.23 -2.88,-6.81 -2.96,-6.39 -3.04,-5.97 -3.24,-5.60 -3.45,-5.23 -3.77,-4.95 -4.08,-4.66 -4.47,-4.49 -4.86,-4.33 -5.29,-4.29 -5.71,-4.25 -6.12,-4.36 -6.53,-4.46 -6.89,-4.69 -7.25,-4.91 -7.52,-5.24 -7.79,-5.57 -7.93,-5.97 -8.08,-6.37 -8.09,-6.80 -8.11,-7.22 -7.98,-7.63 -7.86,-8.03 -7.61,-8.38 -7.37,-8.73 -7.02,-8.97 -6.68,-9.22 -6.27,-9.35 -5.86,-9.47 -5.44,-9.46 -5.02,-9.45 -4.62,-9.31 -4.22,-9.16 -3.88,-8.90 -3.55,-8.63 -3.32,-8.27 -3.09,-7.92 -2.99,-7.51 -2.89,-7.09 -2.92,-6.67 -2.95,-6.25 -3.12,-5.85 -3.29,-5.46 -3.57,-5.15 -3.85,-4.83 -4.46,-4.56 -5.08,-4.28 -5.39,-4.27 -5.71,-4.25 -6.02,-4.32 -6.33,-4.38 -6.62,-4.51 -6.90,-4.65 -7.15,-4.85 -7.39,-5.05 -7.58,-5.30 -7.78,-5.55 -7.90,-5.85 -8.02,-6.14 -8.08,-6.45 -8.13,-6.76 -8.10,-7.08 -8.08,-7.39 -7.98,-7.69 -7.88,-7.99 -7.71,-8.26 -7.54,-8.53 -7.31,-8.75 -7.09,-8.97 -6.81,-9.13 -6.54,-9.29 -6.23,-9.38 -5.93,-9.46 -4.65,-10.73 -3.37,-12.00 -0.69,-13.94 1.97,-15.87 6.08,-16.65 10.19,-17.42 13.76,-17.80 17.32,-18.17 20.69,-19.72 24.07,-21.27 27.34,-22.94 30.61,-24.61 33.61,-26.40 36.60,-28.19 39.71,-29.13 42.81,-30.06 44.95,-30.72 47.09,-31.38 50.16,-31.57 53.23,-31.75 55.40,-32.34 57.57,-32.92 61.51,-32.00 65.45,-31.07 68.21,-30.17 70.97,-29.27 72.09,-27.45 73.20,-25.64 73.33,-22.25 73.45,-18.86 73.37,-16.12 73.28,-13.37 73.01,-10.49 72.75,-7.61 72.28,-5.50 71.81,-3.39 71.80,-0.94 71.79,1.50 71.74,4.91 71.68,8.32 71.57,11.53 71.46,14.74 71.19,18.71 70.92,22.68 70.35,26.62 69.78,30.55 69.59,34.49 69.41,38.43 68.99,42.28 68.57,46.13 68.72,50.67 68.87,55.21 68.16,58.40 67.44,61.59 66.97,64.11 66.49,66.64 66.48,69.96 66.46,73.28 66.41,76.32 66.36,79.36 66.25,82.94 66.13,86.52 65.85,90.19 65.56,93.86 64.98,96.87 64.40,99.87 63.61,104.67 62.83,109.47 62.72,111.96 62.61,114.45 61.80,118.97 60.99,123.50 59.21,126.22 57.44,128.94 55.30,129.90 53.15,130.85 49.66,131.19 46.17,131.54 43.51,130.55 40.84,129.56 42.23,125.43 43.61,121.30 44.17,121.38 44.72,121.46 45.24,121.66 45.76,121.87 46.22,122.19 46.67,122.52 47.04,122.94 47.40,123.37 47.66,123.87 47.91,124.37 48.04,124.91 48.16,125.46 48.15,126.02 48.14,126.58 48.00,127.12 47.86,127.66 47.59,128.16 47.32,128.65 46.95,129.06 46.57,129.47 46.10,129.79 45.64,130.10 45.11,130.29 44.58,130.48 44.03,130.54 43.47,130.60 42.19,131.06 40.90,131.53 38.59,130.69 36.27,129.84 33.60,130.73 30.94,131.62 28.54,132.51 26.15,133.41 23.91,134.30 21.68,135.19 19.39,136.16 17.10,137.13 13.60,138.01 10.10,138.89 6.11,140.16 2.13,141.44 0.17,142.51 -1.77,143.58 -4.40,144.94 -7.03,146.30 -5.39,144.30 -3.75,142.30 -3.81,142.81 -3.88,143.33 -4.06,143.81 -4.25,144.30 -4.54,144.73 -4.84,145.15 -5.23,145.50 -5.62,145.84 -6.08,146.08 -6.54,146.33 -7.04,146.45 -7.55,146.57 -8.07,146.57 -8.59,146.57 -9.09,146.45 -9.60,146.32 -10.06,146.08 -10.52,145.84 -10.91,145.49 -11.30,145.15 -11.59,144.72 -11.89,144.29 -12.07,143.80 -12.25,143.32 -12.31,142.80 -12.38,142.28 -11.77,141.02 -11.15,139.76 -11.13,137.01 -11.10,134.25 -10.93,132.05 -10.77,129.84 -10.07,126.78 -9.36,123.72 -9.17,121.56 -8.97,119.40 -8.30,116.35 -7.62,113.30 -7.62,110.50 -7.63,107.71 -7.63,105.21 -7.63,102.71 -7.63,99.88 -7.63,97.05 -7.63,94.39 -7.63,91.72 -7.63,88.96 -7.62,86.20 -7.62,82.91 -7.61,79.62 -7.62,75.80 -7.63,71.98 -7.62,69.64 -7.62,67.30 -7.63,65.15 -7.64,63.00 -7.69,60.26 -7.73,57.53 -7.96,54.35 -8.20,51.17 -8.76,46.71 -9.33,42.25 -9.33,39.82 -9.33,37.39 -9.33,34.06 -9.32,30.73 -9.32,26.46 -9.31,22.20 -9.30,18.13 -9.28,14.07 -9.27,10.46 -9.27,6.86 -9.24,3.14 -9.21,-0.57 -9.14,-3.42 -9.07,-6.27 -6.93,-9.57 -4.79,-12.86 -2.14,-11.30 0.49,-9.74 1.13,-7.69 1.77,-5.64 2.26,-3.09 2.76,-0.55 2.79,-0.21 2.81,0.12 2.76,0.45 2.70,0.79 2.57,1.10 2.43,1.41 2.23,1.69 2.02,1.96 1.76,2.17 1.49,2.38 1.18,2.53 0.88,2.67 0.54,2.74 0.21,2.81 -0.12,2.79 -0.46,2.78 -0.78,2.68 -1.11,2.58 -1.40,2.41 -1.70,2.24 -1.94,2.01 -2.19,1.77 -2.37,1.48 -2.55,1.19 -2.65,0.87 -2.76,0.55 -2.76,0.55 L -2.76,0.55 Z"></path></g><g transform="translate(586.2018963755748 15.290725358446593) rotate(0 69.66124412956816 23.808264113009898)" stroke="none"><path fill="#1e1e1e" d="M 2.26,1.70 Q 2.26,1.70 1.33,4.15 0.40,6.61 -0.51,8.62 -1.43,10.63 -1.73,14.04 -2.04,17.45 -2.77,20.87 -3.51,24.30 -3.28,26.61 -3.05,28.91 -2.94,31.25 -2.83,33.59 -3.35,36.12 -3.88,38.66 -4.09,41.20 -4.31,43.74 -4.84,47.24 -5.37,50.74 -5.66,51.18 -5.96,51.61 -6.35,51.96 -6.74,52.31 -7.20,52.56 -7.67,52.80 -8.18,52.93 -8.69,53.06 -9.21,53.06 -9.74,53.07 -10.25,52.94 -10.76,52.82 -11.22,52.58 -11.69,52.34 -12.08,51.99 -12.48,51.65 -12.78,51.22 -13.08,50.79 -13.27,50.30 -13.46,49.81 -13.52,49.29 -13.59,48.76 -13.53,48.24 -13.47,47.72 -13.28,47.23 -13.10,46.74 -9.13,48.41 -5.16,50.08 -5.45,50.51 -5.74,50.94 -6.13,51.29 -6.52,51.63 -6.98,51.88 -7.44,52.12 -7.94,52.25 -8.45,52.38 -8.97,52.38 -9.49,52.38 -10.00,52.26 -10.50,52.14 -10.96,51.90 -11.43,51.66 -11.82,51.32 -12.21,50.97 -12.51,50.55 -12.81,50.12 -12.99,49.63 -13.18,49.15 -13.25,48.63 -13.31,48.12 -13.25,47.60 -13.19,47.08 -13.01,46.59 -12.83,46.10 -9.22,45.66 -5.62,45.21 -3.44,45.89 -1.26,46.58 1.83,46.73 4.93,46.89 8.00,46.20 11.07,45.51 15.29,45.28 19.51,45.04 24.91,44.45 30.31,43.85 33.19,43.62 36.08,43.39 38.92,43.28 41.76,43.17 44.09,43.71 46.42,44.25 49.67,45.21 52.93,46.17 55.70,47.07 58.46,47.96 61.55,47.43 64.64,46.89 68.53,47.42 72.41,47.95 75.03,47.28 77.64,46.62 80.18,46.20 82.72,45.77 84.91,44.68 87.11,43.59 90.13,43.33 93.15,43.07 95.92,42.20 98.69,41.32 101.03,40.60 103.37,39.88 105.59,39.67 107.82,39.46 110.13,39.35 112.45,39.24 114.68,39.28 116.91,39.32 119.33,39.35 121.74,39.38 123.96,38.68 126.18,37.97 129.79,37.79 133.40,37.61 135.65,37.82 137.90,38.04 141.13,37.80 144.36,37.57 145.38,37.53 146.41,37.49 146.99,37.53 147.58,37.58 148.14,37.76 148.69,37.94 149.19,38.26 149.69,38.57 150.10,38.99 150.51,39.41 150.80,39.92 151.10,40.43 151.26,40.99 151.43,41.55 151.46,42.14 151.48,42.73 151.37,43.30 151.25,43.88 151.00,44.41 150.75,44.94 150.38,45.40 150.01,45.86 149.54,46.21 149.08,46.56 148.54,46.80 148.00,47.03 147.42,47.13 146.84,47.22 146.55,42.25 146.25,37.28 146.86,37.32 147.47,37.37 148.05,37.56 148.63,37.75 149.15,38.08 149.66,38.40 150.09,38.84 150.51,39.28 150.82,39.80 151.13,40.33 151.30,40.92 151.47,41.50 151.50,42.11 151.53,42.72 151.41,43.32 151.29,43.92 151.03,44.47 150.77,45.02 150.38,45.50 150.00,45.97 149.51,46.34 149.03,46.71 148.47,46.95 147.91,47.19 147.30,47.29 146.70,47.39 145.59,43.32 144.48,39.25 144.34,35.70 144.19,32.15 144.35,29.55 144.50,26.95 144.60,23.27 144.70,19.60 144.73,16.49 144.76,13.38 144.77,11.05 144.78,8.72 144.39,6.32 144.00,3.92 143.88,1.73 143.77,-0.46 141.00,-0.02 138.23,0.42 135.49,0.23 132.76,0.05 130.11,0.02 127.45,-0.00 124.78,-0.01 122.10,-0.02 119.45,-0.01 116.79,-0.01 114.14,-0.02 111.49,-0.02 108.34,-0.01 105.18,-0.01 100.29,-0.00 95.41,-0.00 90.54,0.49 85.68,0.99 81.11,1.69 76.54,2.39 73.81,3.14 71.08,3.88 67.10,4.44 63.13,5.01 59.53,4.69 55.93,4.37 53.92,3.20 51.91,2.02 49.93,1.04 47.96,0.05 45.73,0.03 43.50,0.01 40.91,-0.00 38.32,-0.02 35.84,-0.03 33.36,-0.03 30.74,-0.07 28.12,-0.10 25.56,0.73 23.01,1.57 19.85,2.25 16.70,2.94 14.17,3.14 11.63,3.34 9.62,2.59 7.61,1.83 5.31,3.21 3.02,4.58 0.04,5.63 -2.93,6.67 -3.28,6.91 -3.63,7.15 -4.04,7.26 -4.45,7.37 -4.87,7.35 -5.30,7.32 -5.69,7.17 -6.09,7.01 -6.41,6.73 -6.73,6.46 -6.95,6.09 -7.17,5.73 -7.26,5.31 -7.35,4.90 -7.31,4.48 -7.26,4.05 -7.08,3.67 -6.90,3.28 -6.61,2.98 -6.32,2.67 -5.94,2.47 -5.57,2.27 -5.15,2.20 -4.73,2.13 -4.31,2.20 -3.89,2.27 -3.51,2.47 -3.14,2.67 -2.85,2.98 -2.55,3.29 -2.38,3.67 -2.20,4.06 -2.15,4.48 -2.11,4.91 -2.20,5.32 -2.29,5.74 -2.51,6.10 -2.73,6.46 -3.05,6.74 -3.38,7.01 -3.77,7.17 -4.17,7.33 -4.59,7.35 -5.02,7.37 -5.43,7.26 -5.84,7.14 -6.19,6.90 -6.54,6.66 -6.80,6.33 -7.05,5.99 -7.19,5.58 -7.32,5.18 -7.32,4.76 -7.32,4.33 -7.19,3.93 -7.05,3.53 -6.79,3.19 -6.53,2.85 -6.53,2.85 -6.53,2.85 -5.01,-0.32 -3.48,-3.50 -0.13,-5.41 3.21,-7.31 5.49,-7.85 7.77,-8.40 10.21,-7.20 12.66,-6.00 15.75,-7.41 18.84,-8.82 21.14,-8.84 23.44,-8.86 25.44,-9.67 27.43,-10.47 30.40,-10.50 33.37,-10.53 35.87,-10.54 38.37,-10.54 41.20,-10.49 44.03,-10.45 46.48,-10.25 48.92,-10.05 53.14,-8.49 57.35,-6.93 60.40,-5.99 63.45,-5.04 65.89,-5.66 68.33,-6.29 71.63,-7.17 74.93,-8.06 79.79,-8.80 84.64,-9.54 90.02,-10.06 95.40,-10.57 100.29,-10.56 105.19,-10.56 108.35,-10.55 111.50,-10.54 114.16,-10.54 116.82,-10.54 119.50,-10.52 122.17,-10.50 124.89,-10.48 127.61,-10.45 132.41,-10.28 137.22,-10.11 140.31,-9.34 143.40,-8.58 146.81,-7.80 150.23,-7.02 151.50,-5.30 152.77,-3.57 153.27,-1.30 153.76,0.96 154.36,4.88 154.96,8.79 154.94,11.16 154.91,13.52 154.86,16.69 154.80,19.86 154.71,23.79 154.61,27.73 153.83,32.91 153.04,38.10 151.71,41.75 150.38,45.41 148.32,41.34 146.25,37.28 146.86,37.32 147.47,37.37 148.05,37.56 148.63,37.75 149.15,38.08 149.66,38.40 150.09,38.84 150.51,39.28 150.82,39.80 151.13,40.33 151.30,40.92 151.47,41.50 151.50,42.11 151.53,42.72 151.41,43.32 151.29,43.92 151.03,44.47 150.77,45.02 150.39,45.50 150.00,45.97 149.51,46.34 149.03,46.71 148.47,46.95 147.91,47.19 147.31,47.29 146.70,47.39 146.55,42.44 146.41,37.49 146.99,37.53 147.58,37.58 148.14,37.76 148.69,37.94 149.19,38.26 149.69,38.57 150.10,38.99 150.51,39.41 150.80,39.92 151.10,40.43 151.26,40.99 151.43,41.55 151.46,42.14 151.48,42.73 151.37,43.30 151.25,43.88 151.00,44.41 150.75,44.94 150.38,45.40 150.01,45.86 149.55,46.21 149.08,46.56 148.54,46.80 148.00,47.03 147.42,47.13 146.84,47.22 145.82,47.23 144.79,47.23 142.27,47.36 139.74,47.49 136.52,47.32 133.30,47.14 129.79,47.36 126.29,47.57 124.06,48.17 121.84,48.76 119.13,48.73 116.43,48.69 113.30,48.71 110.18,48.72 107.63,48.82 105.07,48.91 101.40,49.83 97.73,50.76 93.81,51.65 89.89,52.54 87.94,53.52 85.99,54.49 83.87,55.15 81.74,55.80 79.05,55.89 76.36,55.99 74.29,56.54 72.23,57.08 68.65,56.61 65.06,56.13 60.97,56.59 56.88,57.05 54.07,56.13 51.25,55.22 49.06,54.79 46.87,54.36 44.41,53.34 41.94,52.33 39.37,52.41 36.79,52.48 34.11,52.69 31.42,52.89 25.54,53.36 19.66,53.82 17.47,53.79 15.28,53.76 12.35,53.95 9.41,54.15 5.65,54.74 1.90,55.33 -0.43,55.15 -2.76,54.98 -6.45,53.71 -10.13,52.45 -7.64,51.26 -5.15,50.08 -5.45,50.51 -5.74,50.94 -6.13,51.29 -6.52,51.63 -6.98,51.88 -7.44,52.12 -7.94,52.25 -8.45,52.38 -8.97,52.38 -9.49,52.38 -10.00,52.26 -10.50,52.14 -10.96,51.90 -11.43,51.66 -11.82,51.32 -12.21,50.97 -12.51,50.55 -12.81,50.12 -12.99,49.63 -13.18,49.15 -13.25,48.63 -13.31,48.12 -13.25,47.60 -13.19,47.08 -13.01,46.59 -12.83,46.10 -9.10,48.42 -5.37,50.74 -5.66,51.18 -5.96,51.61 -6.35,51.96 -6.74,52.31 -7.20,52.56 -7.67,52.80 -8.18,52.93 -8.69,53.06 -9.21,53.06 -9.73,53.07 -10.25,52.94 -10.76,52.82 -11.22,52.58 -11.69,52.34 -12.08,51.99 -12.48,51.65 -12.78,51.22 -13.08,50.79 -13.27,50.30 -13.46,49.81 -13.52,49.29 -13.59,48.77 -13.53,48.24 -13.47,47.72 -13.28,47.23 -13.10,46.74 -13.10,46.14 -13.10,45.55 -12.96,42.62 -12.82,39.70 -12.17,36.76 -11.52,33.83 -11.59,31.67 -11.65,29.52 -11.83,26.02 -12.00,22.53 -11.31,19.47 -10.61,16.41 -9.94,11.71 -9.26,7.01 -7.87,4.25 -6.48,1.49 -4.37,-0.10 -2.26,-1.70 -2.03,-1.94 -1.79,-2.19 -1.50,-2.37 -1.21,-2.55 -0.89,-2.66 -0.56,-2.77 -0.22,-2.80 0.11,-2.83 0.44,-2.77 0.78,-2.72 1.10,-2.58 1.41,-2.45 1.68,-2.25 1.96,-2.04 2.17,-1.78 2.39,-1.51 2.54,-1.20 2.68,-0.89 2.75,-0.56 2.82,-0.23 2.81,0.11 2.79,0.45 2.70,0.78 2.60,1.10 2.43,1.40 2.26,1.70 2.26,1.70 L 2.26,1.70 Z"></path></g><g transform="translate(744.9236571289741 52.32580286757309) rotate(0 22.044635173486142 80.24265448143035)" stroke="none"><path fill="#1e1e1e" d="M 1.95,1.95 Q 1.95,1.95 1.21,4.14 0.47,6.32 0.18,9.78 -0.09,13.25 -0.19,19.03 -0.30,24.81 0.14,30.14 0.58,35.46 0.78,38.37 0.97,41.28 1.56,45.37 2.14,49.47 2.41,51.86 2.67,54.25 2.79,57.96 2.91,61.68 2.41,64.69 1.91,67.70 1.75,70.52 1.59,73.34 0.92,76.10 0.26,78.85 0.08,81.02 -0.09,83.18 -0.20,86.98 -0.32,90.77 -0.32,93.06 -0.33,95.35 -0.33,98.51 -0.34,101.67 -0.95,104.05 -1.56,106.43 -2.39,110.03 -3.23,113.62 -4.10,117.17 -4.98,120.71 -5.74,122.96 -6.50,125.20 -7.47,129.05 -8.45,132.91 -8.70,135.84 -8.95,138.78 -9.65,142.23 -10.36,145.68 -10.63,148.22 -10.90,150.76 -11.67,152.92 -12.45,155.08 -12.54,157.24 -12.64,159.40 -12.73,159.99 -12.83,160.58 -13.07,161.14 -13.31,161.69 -13.67,162.16 -14.04,162.64 -14.50,163.02 -14.97,163.39 -15.51,163.65 -16.06,163.90 -16.64,164.02 -17.23,164.14 -17.83,164.11 -18.43,164.08 -19.00,163.91 -19.58,163.74 -20.10,163.44 -20.62,163.14 -21.05,162.72 -21.48,162.30 -21.79,161.79 -22.11,161.28 -22.30,160.71 -22.49,160.14 -22.53,159.55 -22.58,158.95 -20.50,156.59 -18.42,154.24 -15.93,153.36 -13.45,152.48 -10.88,151.61 -8.31,150.74 -5.56,149.89 -2.80,149.04 0.13,148.45 3.07,147.86 5.22,147.50 7.37,147.13 10.92,147.97 14.48,148.81 17.41,147.96 20.34,147.11 22.80,146.20 25.25,145.30 28.12,144.69 30.98,144.09 34.40,142.97 37.83,141.85 40.16,141.59 42.49,141.34 45.27,141.30 48.05,141.26 50.36,140.49 52.68,139.71 51.84,137.72 51.00,135.73 51.61,132.30 52.22,128.88 52.42,125.32 52.63,121.76 53.27,117.84 53.92,113.91 54.15,111.03 54.39,108.16 54.48,104.46 54.58,100.76 54.63,97.64 54.67,94.52 54.69,90.67 54.70,86.82 55.23,82.33 55.75,77.84 55.95,73.72 56.15,69.59 56.23,65.80 56.32,62.01 56.37,58.38 56.42,54.74 56.42,51.17 56.42,47.60 56.43,44.57 56.43,41.54 55.96,39.18 55.49,36.83 55.24,33.32 55.00,29.80 54.91,26.82 54.82,23.83 54.77,21.04 54.73,18.24 54.71,16.04 54.70,13.84 54.63,10.08 54.55,6.33 50.73,6.72 46.90,7.12 44.58,7.11 42.26,7.09 37.87,8.24 33.47,9.38 31.02,9.75 28.58,10.11 26.42,10.28 24.27,10.44 21.66,9.91 19.06,9.38 16.09,9.17 13.13,8.97 9.85,10.38 6.58,11.79 3.57,12.05 0.56,12.32 -1.45,11.00 -3.48,9.67 -3.79,9.65 -4.11,9.62 -4.41,9.52 -4.71,9.42 -4.98,9.25 -5.24,9.08 -5.46,8.85 -5.68,8.62 -5.84,8.34 -6.00,8.07 -6.08,7.77 -6.17,7.46 -6.18,7.14 -6.20,6.83 -6.13,6.52 -6.07,6.21 -5.93,5.92 -5.79,5.64 -5.59,5.39 -5.39,5.15 -5.14,4.96 -4.89,4.77 -4.59,4.65 -4.30,4.52 -3.99,4.47 -3.68,4.42 -3.15,4.51 -2.62,4.60 -2.26,4.82 -1.89,5.03 -1.62,5.35 -1.34,5.68 -1.18,6.07 -1.02,6.46 -0.99,6.89 -0.96,7.31 -1.08,7.72 -1.19,8.13 -1.42,8.49 -1.66,8.84 -1.99,9.10 -2.33,9.36 -2.73,9.50 -3.13,9.64 -3.56,9.64 -3.98,9.64 -4.39,9.51 -4.79,9.38 -5.13,9.12 -5.47,8.87 -5.71,8.52 -5.95,8.17 -6.07,7.76 -6.19,7.35 -6.17,6.93 -6.15,6.50 -5.99,6.11 -5.84,5.71 -5.57,5.38 -5.29,5.06 -4.93,4.84 -4.57,4.61 -4.15,4.52 -3.74,4.42 -3.32,4.47 -2.89,4.51 -2.51,4.69 -2.12,4.86 -1.81,5.15 -1.50,5.44 -1.30,5.82 -1.10,6.19 -1.02,6.61 -0.95,7.03 -1.02,7.45 -1.08,7.87 -1.28,8.24 -1.48,8.62 -1.78,8.92 -2.09,9.21 -2.47,9.39 -2.86,9.57 -3.28,9.62 -3.70,9.67 -3.59,9.67 -3.48,9.67 -3.79,9.65 -4.11,9.62 -4.41,9.52 -4.71,9.42 -4.98,9.25 -5.24,9.08 -5.46,8.85 -5.68,8.62 -5.84,8.34 -6.00,8.07 -6.08,7.77 -6.17,7.46 -6.18,7.15 -6.20,6.83 -6.13,6.52 -6.07,6.21 -5.93,5.92 -5.79,5.64 -5.59,5.39 -5.39,5.15 -5.14,4.96 -4.89,4.77 -4.59,4.65 -4.30,4.52 -3.99,4.47 -3.68,4.42 0.11,2.92 3.91,1.42 6.36,0.49 8.80,-0.42 13.06,-0.96 17.32,-1.50 20.51,-0.87 23.70,-0.24 27.15,-0.59 30.61,-0.93 33.39,-1.70 36.17,-2.47 39.20,-3.01 42.24,-3.55 46.59,-3.54 50.94,-3.53 53.19,-3.41 55.43,-3.29 57.68,-2.78 59.94,-2.27 61.76,0.04 63.59,2.36 63.54,5.68 63.49,9.00 64.37,11.38 65.26,13.76 65.28,15.93 65.30,18.09 65.33,20.80 65.36,23.50 65.46,26.30 65.55,29.10 65.73,32.04 65.91,34.97 66.45,38.25 66.99,41.53 66.98,44.59 66.97,47.65 66.94,51.25 66.91,54.86 66.87,58.56 66.84,62.26 66.74,66.19 66.65,70.13 66.40,74.63 66.16,79.12 65.66,83.00 65.15,86.88 65.13,90.78 65.10,94.68 65.06,97.87 65.01,101.06 64.88,105.05 64.76,109.04 64.47,112.32 64.19,115.61 63.62,119.02 63.04,122.43 62.76,126.59 62.48,130.75 61.94,133.55 61.41,136.36 61.17,139.47 60.93,142.58 59.75,144.95 58.56,147.32 55.03,148.99 51.51,150.65 48.08,151.08 44.65,151.51 42.14,151.59 39.63,151.68 36.65,152.75 33.68,153.81 29.86,154.43 26.04,155.04 24.10,155.94 22.17,156.84 20.17,157.58 18.17,158.32 15.71,158.22 13.25,158.11 9.68,157.61 6.12,157.10 1.82,158.01 -2.47,158.91 -5.27,159.65 -8.07,160.38 -10.27,161.09 -12.48,161.79 -14.65,162.69 -16.82,163.58 -14.73,161.49 -12.64,159.40 -12.73,159.99 -12.83,160.58 -13.07,161.13 -13.31,161.69 -13.67,162.16 -14.04,162.64 -14.50,163.02 -14.97,163.39 -15.51,163.65 -16.05,163.90 -16.64,164.02 -17.23,164.14 -17.83,164.11 -18.43,164.08 -19.00,163.91 -19.58,163.74 -20.10,163.44 -20.61,163.14 -21.05,162.72 -21.48,162.30 -21.79,161.79 -22.11,161.28 -22.30,160.72 -22.49,160.15 -22.53,159.55 -22.58,158.95 -22.52,157.03 -22.46,155.11 -21.59,152.46 -20.71,149.81 -20.58,147.64 -20.45,145.47 -19.73,143.09 -19.00,140.72 -18.81,137.43 -18.62,134.14 -17.70,130.45 -16.78,126.75 -16.34,124.39 -15.91,122.03 -14.63,118.43 -13.36,114.82 -12.50,111.36 -11.64,107.89 -10.93,104.72 -10.22,101.54 -10.20,98.41 -10.19,95.27 -10.10,90.94 -10.02,86.61 -9.88,84.41 -9.74,82.22 -8.90,77.46 -8.06,72.70 -7.41,67.31 -6.75,61.93 -6.85,58.61 -6.94,55.28 -7.18,53.04 -7.41,50.79 -8.01,46.36 -8.60,41.93 -8.80,39.09 -8.99,36.25 -9.46,30.44 -9.93,24.63 -9.80,18.53 -9.67,12.43 -9.26,8.55 -8.84,4.66 -7.70,2.21 -6.55,-0.23 -4.25,-1.09 -1.95,-1.95 -1.69,-2.16 -1.43,-2.36 -1.12,-2.50 -0.82,-2.64 -0.49,-2.70 -0.16,-2.76 0.16,-2.74 0.49,-2.72 0.81,-2.62 1.13,-2.52 1.42,-2.35 1.70,-2.17 1.94,-1.94 2.17,-1.70 2.35,-1.42 2.52,-1.13 2.62,-0.81 2.72,-0.49 2.74,-0.16 2.76,0.16 2.70,0.49 2.64,0.82 2.50,1.12 2.36,1.43 2.16,1.69 1.95,1.95 1.95,1.95 L 1.95,1.95 Z"></path></g><g transform="translate(557.9846406438179 216.33828897941896) rotate(0 77.59733216723816 26.45362679223325)" stroke="none"><path fill="#1e1e1e" d="M 2.58,1.29 Q 2.58,1.29 2.15,3.60 1.73,5.92 1.86,8.13 1.99,10.34 2.16,12.96 2.33,15.58 2.43,21.42 2.53,27.27 2.55,30.07 2.57,32.88 2.57,35.08 2.57,37.29 2.58,39.75 2.59,42.21 2.64,44.93 2.70,47.65 2.02,50.68 1.34,53.72 2.37,51.73 3.39,49.75 7.97,50.36 12.54,50.97 16.38,51.19 20.22,51.42 22.64,52.05 25.06,52.68 27.65,52.92 30.23,53.16 32.98,53.21 35.72,53.27 38.37,53.26 41.02,53.26 43.08,52.61 45.14,51.96 47.38,51.76 49.62,51.57 51.78,50.89 53.95,50.21 56.74,50.02 59.53,49.82 62.86,49.77 66.19,49.72 69.99,49.00 73.78,48.27 77.06,48.09 80.34,47.90 82.61,47.88 84.87,47.86 87.96,47.83 91.05,47.80 93.78,47.79 96.50,47.78 99.88,47.78 103.27,47.78 106.77,47.78 110.27,47.78 112.54,47.78 114.80,47.78 117.16,47.39 119.52,46.99 122.09,46.31 124.67,45.64 127.80,44.39 130.94,43.14 133.80,42.19 136.67,41.24 138.84,41.04 141.01,40.85 142.82,39.01 144.63,37.17 145.15,32.40 145.66,27.63 145.95,23.92 146.23,20.22 146.29,17.91 146.36,15.60 147.10,11.97 147.84,8.33 148.84,4.35 149.84,0.37 151.57,-2.21 153.29,-4.81 153.78,-5.22 154.27,-5.64 154.84,-5.92 155.41,-6.21 156.04,-6.35 156.66,-6.49 157.30,-6.48 157.94,-6.46 158.56,-6.29 159.18,-6.13 159.74,-5.82 160.30,-5.51 160.77,-5.07 161.24,-4.64 161.59,-4.10 161.94,-3.57 162.16,-2.97 162.37,-2.36 162.44,-1.73 162.50,-1.09 162.41,-0.46 162.32,0.17 162.08,0.76 161.84,1.36 161.46,1.87 161.09,2.39 158.04,-1.42 155.00,-5.24 154.89,-2.75 154.79,-0.26 152.07,1.03 149.36,2.33 146.52,3.26 143.68,4.18 141.42,4.62 139.15,5.06 136.62,5.21 134.09,5.36 131.53,5.42 128.97,5.47 125.86,5.49 122.74,5.52 119.40,5.52 116.06,5.53 113.58,6.00 111.10,6.47 108.11,6.71 105.13,6.96 101.28,8.45 97.43,9.94 94.67,10.31 91.91,10.69 88.96,10.75 86.01,10.81 82.45,10.02 78.89,9.24 76.46,9.99 74.04,10.74 71.37,10.78 68.70,10.83 64.80,10.83 60.89,10.83 58.37,10.22 55.84,9.61 53.64,9.39 51.45,9.17 49.11,9.82 46.78,10.48 44.47,10.63 42.16,10.79 39.55,10.81 36.94,10.83 34.77,11.48 32.60,12.14 30.30,12.34 28.00,12.55 25.24,12.58 22.48,12.61 20.24,12.60 18.00,12.60 14.96,14.03 11.92,15.47 9.45,15.28 6.98,15.09 5.15,13.99 3.32,12.89 1.95,11.47 0.58,10.05 0.27,10.35 -0.02,10.65 -0.40,10.83 -0.79,11.02 -1.21,11.07 -1.63,11.12 -2.05,11.04 -2.46,10.95 -2.83,10.74 -3.20,10.52 -3.48,10.20 -3.76,9.88 -3.92,9.49 -4.08,9.10 -4.11,8.68 -4.14,8.25 -4.03,7.84 -3.93,7.43 -3.69,7.07 -3.46,6.72 -3.12,6.46 -2.79,6.19 -2.39,6.05 -1.99,5.91 -1.56,5.91 -1.14,5.90 -0.73,6.03 -0.33,6.16 0.00,6.41 0.34,6.66 0.59,7.01 0.83,7.36 0.95,7.77 1.07,8.17 1.05,8.60 1.04,9.02 0.89,9.42 0.73,9.82 0.46,10.15 0.19,10.47 -0.16,10.70 -0.52,10.92 -0.93,11.02 -1.34,11.12 -1.77,11.08 -2.19,11.04 -2.58,10.87 -2.97,10.69 -3.28,10.40 -3.59,10.12 -3.80,9.74 -4.00,9.37 -4.08,8.95 -4.15,8.54 -4.09,8.12 -4.03,7.69 -3.83,7.32 -3.64,6.94 -3.64,6.94 -3.64,6.94 0.95,4.34 5.55,1.74 7.13,3.26 8.70,4.78 10.85,3.77 13.00,2.76 16.84,2.12 20.69,1.48 23.29,1.47 25.89,1.46 28.18,1.43 30.47,1.41 33.67,0.57 36.87,-0.27 39.31,-0.29 41.74,-0.32 44.29,-0.53 46.83,-0.75 49.37,-1.30 51.90,-1.85 55.36,-1.45 58.83,-1.06 61.74,-0.66 64.66,-0.26 67.73,-0.26 70.80,-0.26 73.77,-0.42 76.74,-0.57 79.77,-0.36 82.79,-0.14 85.22,-0.20 87.66,-0.27 90.12,-0.37 92.59,-0.48 94.84,-1.00 97.10,-1.52 100.60,-2.80 104.10,-4.07 106.65,-4.26 109.21,-4.45 112.61,-5.00 116.00,-5.55 119.34,-5.57 122.67,-5.58 125.71,-5.60 128.75,-5.62 133.08,-5.74 137.40,-5.86 140.46,-6.72 143.52,-7.58 146.00,-8.30 148.47,-9.02 150.56,-9.82 152.66,-10.62 154.95,-10.51 157.25,-10.40 159.96,-8.33 162.67,-6.26 161.91,-2.03 161.14,2.18 157.21,-1.31 153.29,-4.81 153.78,-5.22 154.27,-5.64 154.84,-5.92 155.41,-6.21 156.04,-6.35 156.66,-6.49 157.30,-6.48 157.94,-6.46 158.56,-6.29 159.18,-6.13 159.74,-5.82 160.30,-5.51 160.77,-5.07 161.24,-4.64 161.59,-4.11 161.94,-3.57 162.16,-2.97 162.37,-2.36 162.44,-1.73 162.50,-1.09 162.41,-0.46 162.32,0.17 162.08,0.76 161.84,1.36 161.46,1.87 161.09,2.39 161.54,1.09 161.99,-0.20 160.28,3.48 158.58,7.18 157.74,10.07 156.90,12.96 156.90,15.48 156.90,18.00 156.74,21.46 156.58,24.93 156.31,27.33 156.03,29.74 155.40,33.98 154.76,38.21 153.35,42.08 151.95,45.94 148.92,47.63 145.89,49.32 142.34,50.21 138.79,51.10 136.23,52.07 133.68,53.04 131.42,53.96 129.15,54.88 125.84,55.84 122.52,56.79 118.66,57.41 114.80,58.02 110.78,58.03 106.76,58.03 103.29,58.03 99.83,58.03 96.64,58.02 93.46,58.01 90.63,58.00 87.81,58.00 85.37,57.99 82.94,57.99 80.22,58.00 77.50,58.02 74.31,58.22 71.12,58.43 67.03,59.03 62.93,59.63 59.61,59.70 56.30,59.76 54.15,60.53 51.99,61.30 49.73,61.42 47.47,61.54 45.29,62.29 43.11,63.04 40.28,63.07 37.45,63.11 34.60,63.08 31.76,63.04 29.22,62.89 26.68,62.74 24.50,62.42 22.32,62.09 18.91,61.53 15.50,60.96 12.77,60.67 10.04,60.37 6.61,59.93 3.18,59.49 0.52,59.32 -2.13,59.15 -4.67,56.87 -7.21,54.60 -6.72,51.13 -6.23,47.65 -6.17,44.94 -6.12,42.22 -6.12,39.76 -6.11,37.31 -6.12,35.11 -6.13,32.91 -6.13,30.11 -6.13,27.32 -6.20,21.69 -6.26,16.07 -6.37,13.86 -6.47,11.65 -6.13,6.91 -5.78,2.18 -4.18,0.44 -2.58,-1.29 -2.39,-1.58 -2.20,-1.87 -1.94,-2.11 -1.68,-2.34 -1.38,-2.51 -1.07,-2.68 -0.74,-2.77 -0.40,-2.86 -0.05,-2.87 0.29,-2.87 0.63,-2.80 0.97,-2.72 1.28,-2.56 1.59,-2.41 1.86,-2.18 2.12,-1.96 2.33,-1.67 2.53,-1.39 2.66,-1.07 2.79,-0.74 2.84,-0.40 2.89,-0.05 2.85,0.29 2.82,0.63 2.70,0.96 2.58,1.29 2.58,1.29 L 2.58,1.29 Z"></path></g><g transform="translate(552.6939152853712 271.0090907733469) rotate(0 -29.98072321115609 77.59729180220705)" stroke="none"><path fill="#1e1e1e" d="M 2.85,0 Q 2.85,0 3.58,3.55 4.30,7.10 3.80,11.41 3.30,15.72 3.10,18.35 2.90,20.99 2.82,26.07 2.73,31.16 2.70,35.38 2.66,39.61 2.65,42.43 2.64,45.25 2.10,48.36 1.56,51.46 1.37,53.91 1.18,56.36 0.55,60.21 -0.07,64.05 -0.25,67.45 -0.43,70.84 -0.53,73.32 -0.63,75.79 -0.65,78.34 -0.66,80.88 -1.26,85.48 -1.85,90.07 -2.65,92.14 -3.45,94.21 -3.74,96.66 -4.02,99.12 -4.09,101.65 -4.16,104.18 -4.75,107.67 -5.35,111.15 -5.58,114.81 -5.81,118.46 -5.84,120.91 -5.87,123.35 -5.89,125.91 -5.91,128.47 -5.92,132.54 -5.94,136.61 -6.59,138.70 -7.25,140.79 -7.44,143.47 -7.64,146.16 -7.96,148.85 -8.29,151.54 -9.33,153.84 -10.37,156.14 -10.71,157.06 -11.05,157.97 -11.53,158.25 -12.02,158.54 -12.56,158.70 -13.10,158.85 -13.66,158.88 -14.22,158.90 -14.77,158.79 -15.32,158.68 -15.83,158.44 -16.34,158.21 -16.77,157.85 -17.21,157.50 -17.55,157.05 -17.89,156.60 -18.11,156.09 -18.33,155.57 -18.43,155.02 -18.52,154.46 -18.47,153.90 -18.43,153.34 -18.26,152.81 -18.08,152.28 -17.78,151.80 -17.48,151.32 -17.08,150.93 -16.68,150.54 -16.59,153.71 -16.51,156.88 -20.73,157.72 -24.96,158.55 -28.51,158.43 -32.07,158.30 -36.85,158.26 -41.63,158.23 -44.70,158.20 -47.76,158.17 -50.16,157.41 -52.56,156.65 -54.77,156.56 -56.97,156.47 -60.11,154.87 -63.24,153.28 -63.88,150.62 -64.53,147.96 -64.58,144.84 -64.64,141.71 -64.66,137.77 -64.67,133.83 -65.38,128.97 -66.10,124.11 -66.20,121.39 -66.31,118.66 -66.34,115.98 -66.37,113.30 -66.39,110.64 -66.41,107.98 -66.41,105.83 -66.41,103.69 -66.41,101.26 -66.41,98.82 -66.42,94.38 -66.43,89.95 -66.43,86.90 -66.42,83.86 -66.42,80.03 -66.41,76.20 -66.42,72.55 -66.42,68.90 -66.89,66.78 -67.36,64.66 -67.60,61.79 -67.85,58.91 -67.43,54.41 -67.00,49.91 -66.84,47.73 -66.68,45.56 -66.01,43.05 -65.35,40.55 -65.08,37.80 -64.81,35.06 -64.74,32.43 -64.67,29.80 -64.04,27.61 -63.40,25.43 -62.35,23.33 -61.31,21.23 -61.26,17.22 -61.21,13.21 -61.04,12.37 -60.86,11.53 -60.56,11.05 -60.25,10.58 -59.85,10.19 -59.44,9.81 -58.95,9.53 -58.46,9.25 -57.91,9.10 -57.37,8.94 -56.81,8.93 -56.25,8.91 -55.70,9.02 -55.14,9.14 -54.64,9.39 -54.13,9.63 -53.70,9.99 -53.26,10.35 -52.93,10.80 -52.59,11.26 -52.38,11.78 -52.16,12.30 -52.07,12.85 -51.99,13.41 -52.04,13.97 -52.09,14.53 -52.27,15.06 -52.45,15.60 -53.38,12.48 -54.30,9.36 -50.29,10.07 -46.27,10.77 -42.46,12.28 -38.64,13.80 -35.01,15.54 -31.37,17.28 -27.89,17.65 -24.40,18.01 -22.24,17.40 -20.08,16.79 -17.86,16.64 -15.65,16.49 -12.63,15.73 -9.61,14.97 -6.58,13.91 -3.55,12.86 -0.29,13.93 2.95,15.01 3.37,15.07 3.79,15.14 4.17,15.33 4.54,15.53 4.84,15.84 5.13,16.14 5.32,16.53 5.50,16.91 5.55,17.33 5.60,17.76 5.51,18.17 5.42,18.59 5.20,18.95 4.99,19.32 4.67,19.60 4.35,19.87 3.95,20.04 3.56,20.20 3.13,20.22 2.71,20.25 2.30,20.14 1.89,20.03 1.54,19.79 1.18,19.56 0.92,19.22 0.66,18.89 0.52,18.48 0.38,18.08 0.38,17.66 0.38,17.23 0.51,16.83 0.64,16.42 0.90,16.08 1.15,15.74 1.50,15.50 1.85,15.26 2.26,15.14 2.67,15.03 3.09,15.05 3.52,15.07 3.91,15.22 4.31,15.37 4.63,15.65 4.96,15.92 5.18,16.28 5.40,16.64 5.50,17.06 5.59,17.47 5.55,17.89 5.51,18.32 5.33,18.70 5.16,19.09 4.87,19.40 4.58,19.71 4.21,19.92 3.83,20.12 3.41,20.19 2.99,20.26 2.99,20.26 3.00,20.26 0.30,20.98 -2.38,21.70 -5.81,23.16 -9.25,24.61 -12.28,25.27 -15.31,25.93 -17.80,26.13 -20.29,26.32 -22.56,26.85 -24.83,27.37 -27.50,27.17 -30.17,26.98 -32.53,26.48 -34.89,25.99 -38.41,24.29 -41.93,22.58 -44.26,21.68 -46.59,20.77 -48.70,19.75 -50.80,18.73 -53.76,18.56 -56.73,18.38 -58.79,14.96 -60.86,11.53 -60.56,11.05 -60.26,10.58 -59.85,10.19 -59.44,9.81 -58.95,9.53 -58.46,9.25 -57.92,9.10 -57.37,8.94 -56.81,8.93 -56.25,8.91 -55.70,9.02 -55.15,9.14 -54.64,9.39 -54.13,9.63 -53.70,9.99 -53.26,10.35 -52.93,10.80 -52.59,11.26 -52.38,11.78 -52.16,12.30 -52.07,12.85 -51.99,13.41 -52.04,13.97 -52.09,14.53 -52.27,15.06 -52.45,15.60 -52.89,17.62 -53.33,19.64 -53.68,22.13 -54.04,24.61 -54.68,28.52 -55.32,32.43 -55.50,35.56 -55.67,38.68 -56.51,42.52 -57.35,46.35 -57.58,49.10 -57.82,51.84 -58.15,54.99 -58.48,58.14 -58.30,60.49 -58.11,62.84 -57.56,65.86 -57.02,68.87 -57.02,72.53 -57.03,76.20 -57.02,80.03 -57.01,83.86 -57.01,86.90 -57.01,89.94 -57.01,94.38 -57.02,98.81 -57.01,101.24 -57.00,103.66 -56.99,105.79 -56.98,107.92 -56.97,110.54 -56.96,113.16 -56.91,115.74 -56.86,118.33 -56.78,120.83 -56.71,123.33 -56.53,125.62 -56.35,127.92 -55.80,130.85 -55.24,133.79 -55.24,137.71 -55.23,141.63 -56.16,144.66 -57.09,147.69 -54.97,147.36 -52.84,147.04 -50.08,147.86 -47.32,148.69 -44.46,148.67 -41.60,148.65 -36.72,148.68 -31.84,148.71 -29.48,148.78 -27.12,148.85 -24.66,149.40 -22.20,149.94 -19.23,149.36 -16.27,148.77 -13.88,149.72 -11.50,150.68 -11.27,154.32 -11.05,157.97 -11.53,158.25 -12.02,158.54 -12.56,158.69 -13.10,158.85 -13.66,158.88 -14.22,158.90 -14.77,158.79 -15.32,158.68 -15.83,158.44 -16.34,158.21 -16.77,157.85 -17.21,157.50 -17.55,157.05 -17.89,156.60 -18.11,156.09 -18.33,155.57 -18.42,155.02 -18.52,154.46 -18.47,153.90 -18.43,153.34 -18.26,152.81 -18.08,152.28 -17.78,151.80 -17.48,151.32 -17.08,150.93 -16.68,150.54 -16.82,149.36 -16.97,148.19 -16.90,145.47 -16.83,142.75 -16.02,139.56 -15.20,136.37 -15.20,132.39 -15.20,128.41 -15.18,125.81 -15.16,123.20 -15.12,120.65 -15.07,118.09 -14.97,115.61 -14.86,113.13 -14.14,109.57 -13.42,106.01 -13.38,103.80 -13.34,101.58 -13.12,98.45 -12.90,95.33 -11.82,91.50 -10.73,87.67 -10.25,84.20 -9.77,80.72 -9.70,78.07 -9.62,75.41 -9.50,72.81 -9.39,70.21 -9.06,66.42 -8.73,62.64 -8.16,59.14 -7.59,55.64 -7.34,52.74 -7.09,49.83 -6.61,47.50 -6.12,45.17 -6.09,42.35 -6.07,39.53 -6.03,35.27 -5.99,31.00 -5.89,25.65 -5.79,20.30 -5.56,17.47 -5.33,14.64 -4.82,10.86 -4.30,7.09 -3.58,3.54 -2.85,0 -2.81,-0.34 -2.77,-0.68 -2.65,-1.00 -2.52,-1.32 -2.33,-1.61 -2.13,-1.89 -1.88,-2.12 -1.62,-2.35 -1.31,-2.51 -1.01,-2.67 -0.67,-2.75 -0.34,-2.83 0.00,-2.83 0.34,-2.83 0.67,-2.75 1.01,-2.67 1.31,-2.51 1.62,-2.35 1.88,-2.12 2.13,-1.89 2.33,-1.61 2.52,-1.32 2.65,-1.00 2.77,-0.68 2.81,-0.34 2.85,0.00 2.85,0.00 L 2.85,0 Z"></path></g><g transform="translate(711.4156760387705 260.4276400564536) rotate(0 44.0894318070969 77.59729180220705)" stroke="none"><path fill="#1e1e1e" d="M 2.75,0.54 Q 2.75,0.54 3.04,3.24 3.34,5.93 3.21,8.27 3.07,10.62 3.50,13.27 3.92,15.93 4.13,19.47 4.33,23.01 3.90,27.34 3.46,31.67 3.29,35.74 3.13,39.80 3.55,42.72 3.96,45.64 4.16,48.19 4.37,50.74 4.49,55.61 4.61,60.49 4.62,63.37 4.63,66.26 4.66,69.01 4.68,71.76 4.69,74.96 4.71,78.16 4.72,80.53 4.72,82.90 4.71,85.42 4.70,87.94 5.18,90.10 5.65,92.25 5.89,95.13 6.14,98.00 6.99,101.94 7.84,105.88 7.96,108.94 8.09,112.01 8.14,114.79 8.18,117.57 8.21,120.27 8.24,122.97 8.25,126.66 8.26,130.35 8.26,133.43 8.25,136.51 8.74,139.50 9.22,142.49 9.45,145.07 9.68,147.65 9.26,151.72 8.85,155.78 8.11,159.09 7.37,162.40 6.30,164.86 5.23,167.32 3.86,165.27 2.49,163.22 5.00,163.57 7.50,163.92 10.76,163.37 14.01,162.82 17.09,162.73 20.17,162.64 22.54,162.15 24.92,161.66 27.30,161.40 29.68,161.15 32.64,160.28 35.61,159.42 37.85,158.88 40.09,158.34 43.12,156.39 46.14,154.43 48.10,153.41 50.06,152.38 52.98,151.74 55.90,151.10 58.08,150.75 60.26,150.40 62.73,150.24 65.20,150.08 68.08,149.34 70.95,148.60 74.16,148.44 77.36,148.28 80.16,148.29 82.95,148.31 84.50,146.53 86.05,144.75 86.14,141.75 86.23,138.75 85.80,135.75 85.36,132.75 85.16,128.53 84.95,124.32 84.87,120.00 84.79,115.69 85.28,111.49 85.77,107.30 85.96,103.33 86.14,99.36 86.22,95.13 86.30,90.90 86.21,86.57 86.12,82.23 86.26,78.36 86.41,74.49 86.42,71.33 86.42,68.16 86.42,64.79 86.42,61.42 86.43,57.95 86.43,54.49 86.42,50.49 86.41,46.48 85.92,42.56 85.42,38.63 85.19,34.64 84.96,30.64 84.86,26.91 84.76,23.18 84.27,21.09 83.78,19.00 83.49,16.07 83.21,13.15 83.10,10.91 82.98,8.67 82.52,5.54 82.05,2.40 81.74,0.21 81.43,-1.98 81.84,-6.23 82.26,-10.48 84.33,-9.25 86.41,-8.03 84.22,-7.60 82.04,-7.18 78.56,-6.61 75.08,-6.03 71.70,-5.73 68.33,-5.43 65.69,-4.45 63.05,-3.47 60.29,-2.90 57.53,-2.33 55.23,-2.08 52.93,-1.83 49.55,-1.69 46.17,-1.55 42.71,-0.71 39.25,0.12 37.28,1.03 35.31,1.94 32.86,2.53 30.40,3.12 27.38,4.07 24.36,5.02 20.51,6.10 16.65,7.19 13.66,7.27 10.68,7.34 6.61,6.71 2.54,6.07 0.68,5.18 -1.16,4.28 -1.47,4.33 -1.79,4.37 -2.10,4.34 -2.42,4.30 -2.72,4.20 -3.01,4.09 -3.28,3.91 -3.54,3.74 -3.75,3.51 -3.97,3.27 -4.12,2.99 -4.27,2.72 -4.35,2.41 -4.43,2.10 -4.44,1.79 -4.44,1.47 -4.37,1.16 -4.30,0.85 -4.16,0.57 -4.02,0.29 -3.81,0.05 -3.60,-0.18 -3.35,-0.37 -3.09,-0.55 -2.79,-0.67 -2.50,-0.79 -1.52,-0.66 -0.53,-0.53 -0.20,-0.26 0.12,0.00 0.35,0.36 0.58,0.71 0.68,1.13 0.78,1.54 0.74,1.96 0.71,2.39 0.54,2.78 0.37,3.17 0.08,3.48 -0.19,3.80 -0.56,4.00 -0.93,4.21 -1.35,4.29 -1.77,4.37 -2.19,4.31 -2.61,4.25 -2.99,4.06 -3.37,3.87 -3.67,3.57 -3.97,3.27 -4.16,2.89 -4.34,2.51 -4.40,2.09 -4.46,1.66 -4.37,1.25 -4.29,0.83 -4.08,0.46 -3.87,0.09 -3.56,-0.18 -3.24,-0.46 -2.85,-0.63 -2.46,-0.80 -2.03,-0.83 -1.61,-0.86 -1.20,-0.76 -0.78,-0.65 -0.43,-0.42 -0.07,-0.19 0.19,0.13 0.45,0.46 0.60,0.86 0.74,1.26 0.75,1.68 0.76,2.11 0.63,2.51 0.51,2.92 0.26,3.26 0.01,3.61 -0.33,3.85 -0.67,4.10 -1.08,4.22 -1.48,4.35 -1.91,4.34 -2.33,4.32 -1.75,4.30 -1.16,4.28 -1.47,4.33 -1.79,4.37 -2.10,4.34 -2.42,4.30 -2.72,4.20 -3.01,4.09 -3.28,3.91 -3.54,3.74 -3.75,3.51 -3.97,3.27 -4.12,2.99 -4.27,2.72 -4.35,2.41 -4.43,2.10 -4.44,1.79 -4.44,1.47 -4.37,1.16 -4.30,0.85 -4.16,0.57 -4.02,0.29 -3.81,0.05 -3.60,-0.18 -3.35,-0.37 -3.09,-0.55 -2.79,-0.67 -2.50,-0.79 -1.14,-2.44 0.20,-4.10 4.35,-3.98 8.50,-3.86 10.65,-3.89 12.80,-3.92 15.45,-3.96 18.11,-4.00 20.88,-5.12 23.64,-6.25 27.15,-7.25 30.66,-8.25 32.76,-9.22 34.86,-10.20 40.36,-11.43 45.86,-12.66 48.85,-12.76 51.85,-12.87 55.69,-13.39 59.53,-13.91 63.46,-15.16 67.40,-16.40 69.94,-16.55 72.49,-16.71 77.11,-17.27 81.72,-17.83 83.95,-18.30 86.17,-18.77 88.58,-17.75 90.99,-16.73 91.96,-14.56 92.93,-12.39 92.41,-8.95 91.90,-5.50 92.11,-3.01 92.32,-0.52 92.95,1.95 93.57,4.43 93.70,8.32 93.83,12.20 94.00,14.50 94.18,16.80 94.78,19.84 95.39,22.88 95.47,26.47 95.55,30.05 95.75,33.71 95.95,37.38 96.47,41.93 96.99,46.48 96.98,50.49 96.97,54.50 96.97,57.96 96.97,61.42 96.97,64.80 96.96,68.18 96.95,71.36 96.95,74.54 97.06,78.43 97.18,82.33 97.02,86.72 96.85,91.11 96.76,95.49 96.67,99.87 96.45,104.23 96.23,108.58 95.78,112.04 95.33,115.50 95.41,119.65 95.50,123.81 95.68,127.58 95.86,131.36 96.34,135.23 96.81,139.11 96.66,142.73 96.51,146.36 95.12,150.03 93.73,153.71 90.68,155.34 87.62,156.97 83.65,157.81 79.68,158.66 77.52,158.72 75.36,158.77 72.75,158.93 70.14,159.10 67.00,159.81 63.86,160.52 61.56,160.72 59.27,160.93 57.06,161.61 54.85,162.30 52.09,163.12 49.32,163.94 46.45,165.86 43.58,167.78 41.43,168.47 39.28,169.17 37.16,169.35 35.04,169.54 30.92,170.50 26.80,171.47 23.60,172.04 20.41,172.62 15.65,172.76 10.90,172.90 7.71,172.87 4.52,172.83 2.22,172.85 -0.06,172.88 -2.04,170.96 -4.02,169.05 -4.14,166.79 -4.27,164.53 -3.18,162.06 -2.09,159.59 -1.25,156.39 -0.41,153.19 -0.07,150.84 0.25,148.48 0.05,146.20 -0.15,143.91 -0.68,140.23 -1.21,136.54 -1.22,133.45 -1.23,130.37 -1.24,126.71 -1.25,123.04 -1.26,120.38 -1.27,117.73 -1.31,115.05 -1.36,112.37 -1.62,108.15 -1.88,103.93 -2.56,101.37 -3.25,98.81 -3.43,96.43 -3.62,94.06 -4.16,91.02 -4.71,87.98 -4.72,85.44 -4.73,82.91 -4.72,80.54 -4.72,78.17 -4.71,74.97 -4.70,71.78 -4.69,69.05 -4.67,66.31 -4.69,63.45 -4.71,60.58 -4.81,56.01 -4.90,51.43 -5.07,49.13 -5.23,46.83 -5.67,43.13 -6.12,39.42 -5.91,35.05 -5.71,30.67 -5.28,27.08 -4.86,23.48 -5.00,20.30 -5.15,17.13 -5.56,13.52 -5.96,9.91 -5.67,7.05 -5.37,4.20 -4.06,1.82 -2.75,-0.54 -2.64,-0.87 -2.53,-1.19 -2.35,-1.47 -2.17,-1.76 -1.93,-2.00 -1.69,-2.23 -1.40,-2.40 -1.10,-2.57 -0.78,-2.67 -0.46,-2.76 -0.12,-2.78 0.21,-2.79 0.54,-2.73 0.87,-2.66 1.18,-2.51 1.48,-2.37 1.75,-2.16 2.01,-1.95 2.21,-1.68 2.42,-1.41 2.55,-1.10 2.69,-0.79 2.74,-0.45 2.80,-0.12 2.77,0.21 2.75,0.55 2.75,0.55 L 2.75,0.54 Z"></path></g><g transform="translate(545.6397224475254 420.9129490193144) rotate(0 84.65160573514629 36.15334376942684)" stroke="none"><path fill="#1e1e1e" d="M 0.47,-2.85 Q 0.47,-2.85 3.63,-3.02 6.78,-3.20 8.94,-3.01 11.09,-2.82 13.47,-2.74 15.85,-2.66 19.39,-2.62 22.93,-2.58 26.18,-3.05 29.42,-3.52 33.13,-3.77 36.83,-4.02 39.92,-4.13 43.01,-4.24 45.34,-4.30 47.67,-4.36 51.82,-3.78 55.97,-3.20 59.22,-2.39 62.47,-1.59 65.35,-1.35 68.23,-1.12 71.63,-1.06 75.04,-1.00 77.92,-1.42 80.81,-1.84 82.91,-2.13 85.02,-2.42 88.04,-2.61 91.06,-2.79 93.70,-2.81 96.35,-2.83 99.56,-3.59 102.77,-4.34 106.35,-6.15 109.94,-7.96 112.33,-8.15 114.72,-8.35 118.28,-7.39 121.83,-6.43 125.54,-7.27 129.25,-8.12 132.14,-8.24 135.03,-8.37 138.59,-9.22 142.16,-10.08 145.47,-10.84 148.79,-11.60 151.16,-11.77 153.54,-11.94 156.65,-12.63 159.76,-13.31 162.90,-13.12 166.04,-12.92 167.83,-12.95 169.63,-12.98 170.18,-12.73 170.73,-12.48 171.20,-12.11 171.68,-11.74 172.05,-11.26 172.42,-10.78 172.67,-10.23 172.92,-9.68 173.03,-9.09 173.13,-8.49 173.10,-7.89 173.06,-7.29 172.88,-6.71 172.70,-6.13 172.39,-5.62 172.07,-5.10 171.65,-4.67 171.22,-4.24 170.70,-3.93 170.18,-3.62 169.61,-3.44 169.03,-3.26 168.42,-3.23 167.82,-3.19 167.23,-3.30 166.63,-3.41 168.92,-3.83 171.21,-4.25 171.21,-4.56 171.21,-4.87 170.86,-4.36 170.51,-3.85 170.04,-3.43 169.58,-3.02 169.03,-2.73 168.48,-2.44 167.87,-2.28 167.27,-2.13 166.65,-2.13 166.02,-2.13 165.42,-2.27 164.82,-2.42 164.26,-2.71 163.71,-3.00 163.24,-3.41 162.78,-3.82 162.42,-4.33 162.07,-4.84 161.84,-5.42 161.62,-6.00 161.54,-6.62 161.46,-7.24 161.54,-7.86 161.61,-8.47 161.83,-9.06 162.05,-9.64 165.16,-10.89 168.28,-12.15 168.93,-12.23 169.58,-12.31 170.18,-12.09 170.79,-11.87 171.33,-11.51 171.87,-11.16 172.30,-10.68 172.74,-10.20 173.05,-9.64 173.36,-9.07 173.52,-8.45 173.69,-7.82 173.70,-7.18 173.71,-6.53 173.57,-5.90 173.42,-5.28 173.13,-4.70 172.84,-4.12 172.42,-3.63 172.00,-3.14 171.48,-2.77 170.95,-2.39 170.36,-2.15 169.76,-1.91 169.12,-1.82 168.48,-1.73 167.84,-1.80 167.19,-1.87 170.00,-2.84 172.81,-3.81 172.90,-0.90 172.99,2.00 172.40,4.61 171.81,7.23 171.01,12.07 170.21,16.91 170.02,20.09 169.84,23.26 169.73,26.22 169.63,29.18 169.58,31.95 169.54,34.72 169.52,36.91 169.50,39.10 169.48,41.70 169.46,44.30 168.82,46.62 168.18,48.94 167.24,51.90 166.31,54.86 166.17,57.49 166.03,60.12 165.17,63.27 164.31,66.42 164.10,69.67 163.90,72.91 163.56,73.09 163.22,73.26 163.14,73.92 163.05,74.57 162.80,75.19 162.56,75.81 162.18,76.35 161.79,76.90 161.29,77.33 160.79,77.76 160.20,78.07 159.60,78.37 158.96,78.52 158.31,78.67 157.65,78.66 156.98,78.65 156.34,78.49 155.70,78.32 155.11,78.00 154.53,77.69 154.04,77.24 153.54,76.79 153.17,76.24 152.80,75.69 152.58,75.07 152.35,74.44 152.28,73.78 152.20,73.12 153.65,75.51 155.10,77.90 151.80,77.89 148.50,77.88 146.37,77.88 144.24,77.88 141.81,77.88 139.38,77.88 136.83,77.88 134.27,77.89 130.65,77.89 127.03,77.90 124.46,77.89 121.89,77.88 119.16,77.31 116.42,76.73 113.15,76.51 109.87,76.29 107.70,75.55 105.53,74.81 101.58,73.82 97.62,72.84 95.06,72.01 92.50,71.18 89.87,70.30 87.24,69.43 84.32,69.35 81.39,69.27 76.66,68.64 71.93,68.01 68.88,67.80 65.84,67.59 62.41,67.54 58.99,67.49 55.44,66.68 51.90,65.86 49.48,65.87 47.07,65.88 45.07,67.68 43.08,69.48 40.83,70.73 38.57,71.98 35.86,73.01 33.14,74.05 30.67,74.35 28.19,74.66 25.96,75.01 23.73,75.36 20.56,76.74 17.38,78.11 15.40,79.29 13.41,80.46 9.94,82.41 6.47,84.35 3.87,84.06 1.26,83.76 0.72,83.36 0.18,82.96 -0.25,82.44 -0.68,81.93 -0.98,81.32 -1.27,80.71 -1.41,80.05 -1.56,79.39 -1.54,78.72 -1.52,78.05 -1.34,77.39 -1.16,76.74 -0.83,76.16 -0.50,75.57 -0.03,75.08 0.42,74.58 0.98,74.22 1.55,73.85 2.19,73.63 2.83,73.41 3.50,73.34 4.17,73.28 4.84,73.38 5.50,73.48 6.13,73.74 6.75,74.00 2.61,77.03 -1.53,80.07 -1.57,79.43 -1.61,78.79 -1.77,78.13 -1.93,77.48 -1.93,76.80 -1.93,76.13 -1.77,75.47 -1.61,74.82 -1.29,74.22 -0.98,73.63 -0.53,73.12 -0.08,72.62 0.46,72.24 1.02,71.85 1.65,71.62 2.28,71.38 2.95,71.30 3.62,71.22 4.29,71.30 4.96,71.38 5.59,71.62 6.22,71.86 6.77,72.25 7.33,72.63 7.77,73.13 8.22,73.64 8.53,74.24 8.84,74.84 3.57,77.04 -1.70,79.25 -1.86,78.59 -2.02,77.93 -2.02,77.25 -2.02,76.57 -1.85,75.92 -1.69,75.26 -1.37,74.66 -1.06,74.06 -0.61,73.55 -0.16,73.04 0.39,72.66 0.95,72.27 1.59,72.03 2.22,71.79 2.89,71.71 3.57,71.63 4.24,71.71 4.91,71.80 5.55,72.04 6.18,72.28 6.74,72.67 7.30,73.05 7.75,73.56 8.20,74.07 8.51,74.67 8.83,75.27 4.62,77.61 0.41,79.94 -1.33,78.45 -3.09,76.95 -4.08,74.37 -5.08,71.78 -5.27,67.55 -5.46,63.31 -5.49,60.72 -5.51,58.12 -5.51,54.79 -5.51,51.46 -5.50,48.87 -5.50,46.28 -4.78,42.37 -4.06,38.46 -3.93,35.36 -3.80,32.25 -2.98,28.92 -2.16,25.59 -1.49,22.13 -0.82,18.67 -0.58,15.77 -0.33,12.87 -0.28,10.68 -0.23,8.49 2.06,5.10 4.36,1.71 4.41,1.40 4.45,1.09 4.56,0.79 4.68,0.50 4.86,0.24 5.04,-0.01 5.28,-0.22 5.52,-0.43 5.80,-0.57 6.08,-0.72 6.39,-0.79 6.70,-0.86 7.01,-0.86 7.33,-0.86 7.64,-0.78 7.94,-0.70 8.22,-0.55 8.50,-0.40 8.74,-0.19 8.97,0.01 9.15,0.27 9.33,0.54 9.44,0.83 9.55,1.13 9.58,1.44 9.62,1.76 9.14,0.74 8.67,-0.28 8.95,0.03 9.22,0.35 9.39,0.75 9.55,1.14 9.58,1.56 9.61,1.99 9.50,2.40 9.39,2.81 9.15,3.16 8.92,3.52 8.59,3.78 8.25,4.04 7.85,4.18 7.45,4.32 7.02,4.33 6.60,4.33 6.19,4.20 5.79,4.07 5.45,3.82 5.11,3.57 4.86,3.22 4.62,2.87 4.50,2.46 4.38,2.05 4.40,1.63 4.42,1.20 4.57,0.81 4.72,0.41 5.00,0.08 5.27,-0.23 5.63,-0.46 5.99,-0.68 6.40,-0.78 6.82,-0.87 7.24,-0.83 7.66,-0.79 8.05,-0.62 8.44,-0.45 8.75,-0.16 9.06,0.12 9.27,0.49 9.47,0.87 9.54,1.29 9.62,1.70 9.55,2.12 9.49,2.54 9.30,2.92 9.10,3.30 8.80,3.60 8.49,3.89 8.11,4.08 7.72,4.26 7.30,4.31 6.88,4.36 6.46,4.27 6.05,4.19 5.21,2.95 4.36,1.71 4.41,1.40 4.45,1.09 4.56,0.79 4.68,0.50 4.86,0.24 5.04,-0.01 5.28,-0.22 5.52,-0.43 5.80,-0.57 6.08,-0.72 6.39,-0.79 6.70,-0.86 7.01,-0.86 7.33,-0.86 7.64,-0.78 7.94,-0.70 8.22,-0.55 8.50,-0.40 8.74,-0.19 8.97,0.01 9.15,0.27 9.33,0.54 9.44,0.83 9.55,1.13 9.58,1.44 9.62,1.76 10.16,6.32 10.71,10.88 10.52,14.20 10.34,17.53 9.49,21.10 8.63,24.68 7.90,27.49 7.17,30.31 7.14,33.15 7.11,35.99 6.29,39.57 5.47,43.16 5.49,46.20 5.51,49.24 5.52,51.75 5.53,54.26 5.54,57.25 5.55,60.25 5.61,63.73 5.68,67.21 6.17,70.07 6.67,72.93 2.48,76.09 -1.70,79.25 -1.86,78.59 -2.02,77.93 -2.02,77.25 -2.02,76.57 -1.85,75.92 -1.69,75.26 -1.37,74.66 -1.06,74.06 -0.61,73.55 -0.16,73.04 0.39,72.66 0.95,72.27 1.59,72.03 2.22,71.79 2.89,71.71 3.57,71.63 4.24,71.71 4.91,71.80 5.55,72.04 6.18,72.28 6.74,72.67 7.30,73.05 7.75,73.56 8.20,74.07 8.51,74.67 8.82,75.27 3.60,77.03 -1.61,78.79 -1.77,78.13 -1.93,77.48 -1.93,76.80 -1.93,76.13 -1.77,75.47 -1.61,74.82 -1.29,74.22 -0.98,73.63 -0.53,73.12 -0.08,72.62 0.46,72.24 1.02,71.85 1.65,71.62 2.28,71.38 2.95,71.30 3.62,71.22 4.29,71.30 4.96,71.38 5.59,71.62 6.22,71.86 6.77,72.25 7.32,72.63 7.77,73.13 8.22,73.64 8.53,74.24 8.84,74.83 8.92,75.52 9.00,76.21 5.13,79.99 1.27,83.76 0.72,83.36 0.18,82.96 -0.25,82.44 -0.68,81.93 -0.98,81.32 -1.27,80.71 -1.41,80.05 -1.56,79.40 -1.54,78.72 -1.52,78.05 -1.34,77.40 -1.16,76.74 -0.83,76.16 -0.50,75.57 -0.03,75.08 0.42,74.58 0.98,74.22 1.55,73.85 2.19,73.63 2.82,73.41 3.50,73.34 4.17,73.28 4.84,73.38 5.50,73.48 6.13,73.74 6.75,74.00 5.22,74.31 3.69,74.63 5.56,72.67 7.44,70.70 11.93,68.28 16.43,65.85 18.57,65.02 20.71,64.19 23.29,63.58 25.88,62.98 28.76,63.01 31.65,63.04 34.81,61.24 37.98,59.44 41.80,56.68 45.63,53.93 48.06,53.48 50.49,53.03 53.65,54.53 56.81,56.04 59.76,56.03 62.71,56.03 66.56,56.19 70.40,56.36 73.88,57.07 77.35,57.79 79.55,57.81 81.75,57.84 84.80,58.05 87.84,58.26 90.52,59.16 93.20,60.06 95.78,60.92 98.37,61.78 101.89,62.65 105.42,63.52 107.65,63.94 109.88,64.36 112.21,64.83 114.55,65.30 118.26,66.01 121.97,66.72 124.50,66.71 127.03,66.71 130.66,66.71 134.28,66.72 136.83,66.72 139.39,66.73 141.82,66.73 144.26,66.73 146.41,66.74 148.56,66.74 151.15,66.78 153.74,66.82 157.25,67.75 160.75,68.68 161.99,70.97 163.22,73.26 163.14,73.92 163.05,74.57 162.80,75.19 162.56,75.81 162.18,76.35 161.79,76.89 161.29,77.33 160.79,77.76 160.20,78.07 159.60,78.37 158.96,78.52 158.31,78.67 157.65,78.66 156.98,78.65 156.34,78.49 155.70,78.32 155.11,78.00 154.53,77.69 154.04,77.24 153.54,76.80 153.17,76.24 152.80,75.69 152.58,75.07 152.35,74.45 152.28,73.78 152.20,73.12 152.75,71.05 153.30,68.98 153.51,66.68 153.71,64.39 154.40,62.01 155.09,59.63 155.33,56.28 155.56,52.93 156.04,50.62 156.52,48.30 157.54,46.19 158.57,44.08 158.57,41.54 158.57,39.00 158.59,36.77 158.61,34.54 158.66,31.67 158.71,28.79 158.82,25.64 158.93,22.49 159.25,18.45 159.58,14.41 160.12,12.26 160.66,10.10 161.38,5.97 162.11,1.84 162.15,-0.70 162.19,-3.26 162.59,-5.77 162.98,-8.29 166.28,-10.30 169.58,-12.31 170.18,-12.09 170.79,-11.87 171.33,-11.51 171.86,-11.16 172.30,-10.68 172.74,-10.20 173.05,-9.64 173.36,-9.07 173.52,-8.45 173.69,-7.82 173.70,-7.18 173.71,-6.53 173.57,-5.90 173.42,-5.28 173.13,-4.70 172.84,-4.12 172.42,-3.63 172.00,-3.14 171.48,-2.77 170.96,-2.39 170.36,-2.15 169.76,-1.91 169.12,-1.82 168.48,-1.73 167.84,-1.80 167.19,-1.87 166.61,-2.00 166.02,-2.13 168.62,-3.50 171.21,-4.87 170.86,-4.36 170.51,-3.85 170.04,-3.43 169.58,-3.02 169.03,-2.73 168.48,-2.44 167.87,-2.28 167.27,-2.13 166.65,-2.13 166.03,-2.13 165.42,-2.27 164.82,-2.42 164.26,-2.71 163.71,-3.00 163.24,-3.41 162.78,-3.82 162.42,-4.33 162.07,-4.84 161.84,-5.42 161.62,-6.00 161.54,-6.62 161.46,-7.24 161.54,-7.85 161.61,-8.47 161.83,-9.06 162.05,-9.64 163.21,-10.23 164.37,-10.82 167.00,-11.90 169.63,-12.98 170.18,-12.73 170.73,-12.48 171.20,-12.11 171.68,-11.74 172.05,-11.26 172.42,-10.78 172.67,-10.23 172.92,-9.68 173.03,-9.09 173.13,-8.49 173.10,-7.89 173.06,-7.29 172.88,-6.71 172.70,-6.13 172.39,-5.62 172.07,-5.10 171.65,-4.67 171.22,-4.25 170.70,-3.93 170.18,-3.62 169.61,-3.44 169.03,-3.26 168.43,-3.23 167.82,-3.19 167.23,-3.30 166.63,-3.41 166.41,-3.04 166.19,-2.68 163.89,-3.21 161.58,-3.74 158.63,-2.90 155.68,-2.07 152.99,-1.95 150.31,-1.84 147.71,-1.09 145.11,-0.35 142.37,-0.18 139.62,-0.01 136.11,0.74 132.60,1.51 130.33,1.67 128.06,1.84 124.41,2.30 120.76,2.77 117.13,2.14 113.51,1.51 110.71,2.09 107.91,2.68 104.30,3.84 100.69,5.00 97.13,5.70 93.57,6.41 90.99,6.43 88.41,6.46 85.84,6.66 83.27,6.86 80.91,7.44 78.54,8.02 74.95,7.99 71.35,7.95 67.57,7.77 63.80,7.59 61.65,7.23 59.51,6.87 56.20,6.06 52.89,5.25 50.35,4.86 47.81,4.47 45.54,4.48 43.27,4.50 40.30,4.57 37.34,4.64 33.97,4.80 30.59,4.97 26.72,5.48 22.85,5.99 19.20,5.95 15.54,5.92 12.92,5.82 10.29,5.72 7.84,5.47 5.38,5.22 2.45,4.04 -0.47,2.85 -0.81,2.75 -1.14,2.65 -1.44,2.48 -1.74,2.30 -1.99,2.06 -2.24,1.82 -2.43,1.52 -2.61,1.22 -2.72,0.89 -2.83,0.56 -2.86,0.21 -2.89,-0.12 -2.83,-0.47 -2.77,-0.81 -2.63,-1.13 -2.49,-1.45 -2.28,-1.73 -2.07,-2.01 -1.80,-2.23 -1.53,-2.45 -1.22,-2.59 -0.90,-2.74 -0.56,-2.81 -0.22,-2.88 0.12,-2.86 0.47,-2.85 0.47,-2.85 L 0.47,-2.85 Z"></path></g><g transform="translate(660.894146447539 31.793648181994058) rotate(0 -6.046819312573405 9.271777310327195)" stroke="none"><path fill="#e03131" d="M -0.71,3.22 Q -0.71,3.22 -2.95,3.79 -5.19,4.35 -6.91,6.35 -8.63,8.35 -8.61,11.55 -8.60,14.75 -6.52,10.76 -4.44,6.77 -4.06,4.65 -3.68,2.53 -2.60,-1.80 -1.53,-6.14 1.54,-5.97 4.61,-5.79 6.10,-2.25 7.59,1.28 7.29,3.98 6.98,6.67 6.96,9.42 6.94,12.16 6.95,14.49 6.97,16.81 6.36,19.11 5.76,21.40 5.72,21.83 5.69,22.25 5.52,22.64 5.36,23.03 5.07,23.35 4.79,23.66 4.42,23.88 4.05,24.09 3.64,24.17 3.22,24.25 2.80,24.19 2.38,24.13 1.99,23.95 1.61,23.76 1.31,23.46 1.01,23.16 0.82,22.78 0.63,22.40 0.57,21.98 0.51,21.56 0.59,21.14 0.67,20.72 0.88,20.35 1.09,19.98 1.41,19.70 1.72,19.41 2.11,19.24 2.50,19.07 2.92,19.04 3.35,19.00 3.76,19.10 4.17,19.21 4.53,19.43 4.89,19.66 5.16,19.99 5.42,20.32 5.57,20.72 5.72,21.12 5.73,21.55 5.74,21.97 5.62,22.38 5.50,22.78 5.25,23.13 5.00,23.47 4.66,23.72 4.31,23.97 3.91,24.10 3.50,24.22 3.08,24.21 2.65,24.20 2.25,24.06 1.85,23.91 1.52,23.65 1.19,23.38 0.96,23.02 0.73,22.66 0.63,22.25 0.52,21.84 0.52,21.84 0.52,21.84 -0.43,19.83 -1.40,17.83 -1.98,15.24 -2.56,12.64 -2.90,9.27 -3.23,5.89 -2.51,3.50 -1.80,1.11 2.59,0.69 6.98,0.28 6.84,2.63 6.69,4.99 5.84,7.96 4.99,10.93 2.81,14.78 0.63,18.63 -2.30,20.78 -5.25,22.93 -8.73,22.80 -12.22,22.67 -14.85,20.24 -17.49,17.81 -18.44,13.98 -19.39,10.15 -18.39,6.18 -17.40,2.21 -15.92,0.34 -14.44,-1.52 -11.50,-3.55 -8.57,-5.58 -5.86,-5.89 -3.15,-6.21 -1.21,-4.72 0.71,-3.22 1.09,-3.09 1.46,-2.96 1.80,-2.74 2.13,-2.52 2.40,-2.23 2.67,-1.94 2.87,-1.59 3.06,-1.24 3.16,-0.85 3.27,-0.47 3.28,-0.07 3.29,0.32 3.20,0.71 3.11,1.10 2.94,1.45 2.76,1.81 2.50,2.12 2.24,2.42 1.92,2.65 1.60,2.89 1.23,3.04 0.86,3.19 0.47,3.25 0.07,3.30 -0.32,3.26 -0.71,3.22 -0.71,3.22 L -0.71,3.22 Z"></path></g><g transform="translate(761.6744437191915 112.4178933806873) rotate(0 -0.8062302727243491 26.202889838960715)" stroke="none"><path fill="#e03131" d="M 3.22,0.49 Q 3.22,0.49 3.35,3.59 3.48,6.69 3.53,9.70 3.59,12.71 3.84,15.61 4.09,18.50 4.44,22.58 4.79,26.65 4.94,28.89 5.09,31.13 4.46,35.43 3.83,39.72 3.00,43.45 2.17,47.18 1.71,48.75 1.25,50.32 1.13,50.73 1.02,51.14 0.78,51.49 0.55,51.84 0.21,52.10 -0.12,52.35 -0.52,52.49 -0.93,52.63 -1.35,52.63 -1.78,52.63 -2.18,52.49 -2.58,52.36 -2.92,52.10 -3.26,51.85 -3.50,51.49 -3.74,51.14 -3.85,50.73 -3.97,50.32 -3.94,49.90 -3.92,49.48 -3.76,49.08 -3.61,48.69 -3.33,48.36 -3.06,48.04 -2.69,47.82 -2.33,47.60 -1.92,47.51 -1.50,47.41 -1.08,47.46 -0.66,47.50 -0.27,47.68 0.11,47.86 0.42,48.15 0.72,48.44 0.92,48.82 1.12,49.19 1.19,49.61 1.26,50.03 1.19,50.45 1.13,50.87 0.93,51.25 0.73,51.62 0.42,51.92 0.11,52.21 -0.26,52.39 -0.65,52.57 -1.07,52.61 -1.49,52.66 -1.91,52.57 -2.32,52.48 -2.69,52.26 -3.05,52.04 -3.33,51.72 -3.60,51.39 -3.76,51.00 -3.92,50.60 -3.94,50.18 -3.97,49.76 -3.97,49.76 -3.97,49.76 -4.09,48.13 -4.21,46.49 -4.23,42.70 -4.25,38.90 -4.07,35.30 -3.90,31.70 -4.04,29.54 -4.17,27.39 -4.50,23.31 -4.82,19.22 -5.06,16.01 -5.31,12.80 -5.32,9.08 -5.33,5.35 -4.28,2.43 -3.22,-0.49 -3.12,-0.87 -3.01,-1.25 -2.82,-1.59 -2.62,-1.93 -2.35,-2.22 -2.08,-2.51 -1.75,-2.72 -1.42,-2.93 -1.05,-3.06 -0.67,-3.19 -0.28,-3.22 0.10,-3.26 0.49,-3.20 0.88,-3.14 1.24,-2.99 1.60,-2.84 1.92,-2.60 2.24,-2.37 2.49,-2.07 2.74,-1.76 2.91,-1.41 3.08,-1.05 3.17,-0.67 3.25,-0.28 3.23,0.10 3.22,0.49 3.22,0.49 L 3.22,0.49 Z"></path></g><g transform="translate(777.7993444285288 139.02389835601025) rotate(0 -4.43435876712465 6.046837766001431)" stroke="none"><path fill="#e03131" d="M -3.00,0.25 Q -3.00,0.25 -4.20,-2.44 -5.39,-5.13 -6.15,-2.21 -6.90,0.71 -7.50,3.97 -8.11,7.22 -8.28,10.54 -8.46,13.86 -7.97,16.46 -7.48,19.06 -6.96,20.47 -6.44,21.87 -6.37,22.38 -6.30,22.88 -6.35,23.39 -6.40,23.90 -6.58,24.39 -6.75,24.87 -7.04,25.29 -7.32,25.72 -7.70,26.07 -8.08,26.41 -8.53,26.66 -8.98,26.90 -9.47,27.03 -9.97,27.16 -10.48,27.17 -11.00,27.18 -11.50,27.06 -12.00,26.95 -12.45,26.72 -12.91,26.49 -13.30,26.15 -13.69,25.82 -13.99,25.40 -14.28,24.98 -14.47,24.51 -14.66,24.03 -10.23,20.16 -5.80,16.29 -4.07,14.03 -2.35,11.77 -1.43,8.62 -0.51,5.46 -0.39,1.71 -0.27,-2.04 -0.63,-4.54 -0.99,-7.04 -1.19,-7.34 -1.39,-7.65 -1.79,-7.52 -2.20,-7.40 -2.63,-7.41 -3.05,-7.42 -3.45,-7.56 -3.85,-7.71 -4.18,-7.97 -4.51,-8.24 -4.74,-8.59 -4.97,-8.95 -5.08,-9.36 -5.18,-9.77 -5.15,-10.20 -5.12,-10.62 -4.95,-11.01 -4.78,-11.40 -4.50,-11.72 -4.22,-12.04 -3.85,-12.25 -3.48,-12.46 -3.06,-12.54 -2.65,-12.62 -2.23,-12.57 -1.80,-12.51 -1.42,-12.32 -1.04,-12.14 -0.74,-11.84 -0.44,-11.54 -0.25,-11.16 -0.06,-10.78 -0.00,-10.36 0.05,-9.94 -0.02,-9.52 -0.10,-9.10 -0.30,-8.73 -0.51,-8.36 -0.83,-8.08 -1.14,-7.79 -1.53,-7.62 -1.92,-7.45 -2.35,-7.42 -2.77,-7.38 -3.18,-7.48 -3.59,-7.58 -3.95,-7.81 -4.31,-8.04 -4.58,-8.37 -4.85,-8.70 -5.00,-9.09 -5.14,-9.49 -5.16,-9.92 -5.17,-10.34 -5.05,-10.75 -4.92,-11.16 -4.68,-11.50 -4.43,-11.85 -4.09,-12.10 -3.74,-12.35 -3.74,-12.35 -3.74,-12.35 -1.45,-14.12 0.83,-15.90 3.37,-14.63 5.92,-13.36 7.12,-10.81 8.33,-8.27 8.57,-4.77 8.81,-1.27 8.16,3.63 7.52,8.54 5.54,12.69 3.56,16.84 0.66,19.76 -2.23,22.69 -4.33,22.28 -6.44,21.87 -6.37,22.38 -6.30,22.88 -6.35,23.39 -6.40,23.90 -6.58,24.39 -6.75,24.87 -7.04,25.29 -7.32,25.72 -7.70,26.07 -8.08,26.41 -8.53,26.66 -8.98,26.90 -9.47,27.03 -9.97,27.16 -10.48,27.17 -11.00,27.18 -11.50,27.06 -11.99,26.95 -12.45,26.72 -12.91,26.49 -13.30,26.15 -13.69,25.82 -13.99,25.40 -14.28,24.99 -14.47,24.51 -14.66,24.03 -15.33,22.68 -16.00,21.32 -17.22,17.43 -18.43,13.54 -18.26,9.23 -18.09,4.92 -16.79,0.04 -15.49,-4.84 -12.95,-8.12 -10.41,-11.41 -7.10,-12.57 -3.78,-13.72 -0.77,-12.25 2.23,-10.77 3.35,-8.38 4.47,-5.99 3.73,-3.12 3.00,-0.25 2.99,0.11 2.97,0.47 2.87,0.82 2.77,1.17 2.59,1.49 2.41,1.80 2.16,2.06 1.91,2.33 1.60,2.52 1.30,2.72 0.95,2.83 0.61,2.95 0.24,2.98 -0.11,3.01 -0.47,2.95 -0.83,2.90 -1.16,2.75 -1.50,2.61 -1.79,2.39 -2.08,2.18 -2.31,1.90 -2.54,1.61 -2.70,1.29 -2.86,0.96 -2.93,0.60 -3.00,0.25 -3.00,0.25 L -3.00,0.25 Z"></path></g><g transform="translate(760.0619831737428 323.65347263782195) rotate(0 -2.418727725029413 13.303002487661473)" stroke="none"><path fill="#e03131" d="M 2.19,3.73 Q 2.19,3.73 -1.59,6.29 -5.38,8.86 -7.48,10.46 -9.58,12.06 -9.25,15.15 -8.91,18.24 -6.62,19.57 -4.32,20.90 -0.43,20.35 3.46,19.81 6.72,19.33 9.98,18.84 10.40,18.79 10.83,18.74 11.24,18.82 11.66,18.90 12.03,19.12 12.40,19.33 12.68,19.65 12.96,19.96 13.12,20.36 13.29,20.75 13.32,21.17 13.35,21.60 13.24,22.01 13.14,22.42 12.91,22.77 12.67,23.13 12.34,23.39 12.01,23.66 11.61,23.80 11.21,23.94 10.78,23.95 10.36,23.96 9.95,23.83 9.55,23.70 9.20,23.45 8.86,23.20 8.62,22.86 8.37,22.51 8.25,22.10 8.13,21.69 8.14,21.27 8.16,20.85 8.31,20.45 8.46,20.05 8.73,19.72 9.00,19.39 9.36,19.17 9.72,18.94 10.13,18.84 10.54,18.74 10.97,18.78 11.39,18.82 11.78,18.99 12.17,19.16 12.48,19.45 12.79,19.73 13.00,20.10 13.21,20.48 13.28,20.89 13.36,21.31 13.30,21.73 13.24,22.15 13.05,22.53 12.85,22.91 12.55,23.21 12.25,23.51 11.87,23.69 11.48,23.88 11.48,23.88 11.48,23.88 8.60,25.23 5.72,26.58 2.38,28.17 -0.95,29.76 -4.38,29.75 -7.81,29.74 -10.60,28.32 -13.38,26.89 -15.75,23.84 -18.13,20.78 -18.62,17.68 -19.12,14.58 -17.85,10.18 -16.58,5.78 -13.48,3.09 -10.37,0.40 -6.28,-1.66 -2.19,-3.73 -1.71,-3.94 -1.23,-4.15 -0.72,-4.24 -0.20,-4.32 0.31,-4.29 0.83,-4.25 1.32,-4.09 1.82,-3.93 2.27,-3.65 2.71,-3.37 3.07,-3.00 3.44,-2.63 3.70,-2.18 3.97,-1.73 4.12,-1.23 4.27,-0.72 4.29,-0.20 4.32,0.31 4.22,0.82 4.12,1.33 3.90,1.81 3.68,2.28 3.35,2.69 3.02,3.10 2.61,3.41 2.19,3.73 2.19,3.73 L 2.19,3.73 Z"></path></g><g transform="translate(627.0319582971281 457.48976469401714) rotate(0 -2.4187277250293846 -0.00003690685616675182)" stroke="none"><path fill="#e03131" d="M 0.49,2.98 Q 0.49,2.98 -2.15,4.22 -4.80,5.46 -6.74,7.47 -8.69,9.48 -6.78,8.14 -4.87,6.80 -3.76,4.93 -2.65,3.05 -1.41,-0.80 -0.16,-4.66 0.04,-7.03 0.25,-9.40 0.42,-12.84 0.58,-16.28 0.31,-17.01 0.04,-17.73 0.14,-18.33 0.23,-18.94 0.47,-19.51 0.71,-20.08 1.08,-20.57 1.45,-21.06 1.92,-21.45 2.40,-21.84 2.95,-22.11 3.50,-22.37 4.11,-22.50 4.71,-22.63 5.32,-22.60 5.94,-22.58 6.53,-22.41 7.12,-22.24 7.65,-21.94 8.19,-21.63 8.63,-21.21 9.08,-20.78 9.41,-20.27 9.74,-19.75 9.94,-19.16 10.13,-18.58 10.18,-17.97 10.24,-17.36 9.71,-13.76 9.19,-10.16 9.30,-7.69 9.40,-5.21 9.21,-1.84 9.01,1.52 9.02,4.66 9.03,7.79 9.25,11.98 9.47,16.16 9.48,16.58 9.49,17.01 9.37,17.41 9.24,17.82 8.99,18.17 8.75,18.51 8.40,18.76 8.06,19.01 7.65,19.13 7.24,19.26 6.82,19.24 6.39,19.23 6.00,19.09 5.60,18.94 5.27,18.67 4.93,18.41 4.71,18.05 4.48,17.69 4.37,17.28 4.27,16.87 4.31,16.44 4.34,16.02 4.51,15.63 4.68,15.24 4.96,14.92 5.24,14.61 5.61,14.40 5.98,14.19 6.40,14.11 6.82,14.03 7.24,14.09 7.66,14.14 8.04,14.33 8.42,14.52 8.72,14.82 9.02,15.12 9.21,15.50 9.40,15.88 9.46,16.30 9.51,16.73 9.43,17.14 9.35,17.56 9.15,17.93 8.94,18.30 8.62,18.58 8.30,18.87 7.91,19.04 7.52,19.20 7.10,19.24 6.68,19.27 6.26,19.17 5.85,19.07 5.49,18.84 5.13,18.61 4.87,18.28 4.60,17.95 4.46,17.55 4.31,17.15 4.31,17.15 4.31,17.15 2.89,12.78 1.46,8.42 0.94,5.07 0.43,1.73 0.07,-1.42 -0.27,-4.57 -0.53,-7.63 -0.79,-10.69 -0.37,-14.21 0.04,-17.73 0.14,-18.33 0.23,-18.94 0.47,-19.51 0.71,-20.08 1.08,-20.57 1.45,-21.06 1.92,-21.45 2.40,-21.84 2.95,-22.11 3.50,-22.37 4.11,-22.50 4.71,-22.63 5.32,-22.60 5.94,-22.58 6.53,-22.41 7.12,-22.24 7.65,-21.94 8.19,-21.63 8.63,-21.21 9.08,-20.78 9.41,-20.27 9.74,-19.75 9.94,-19.16 10.13,-18.58 10.18,-17.97 10.24,-17.36 10.31,-15.03 10.39,-12.70 10.24,-10.48 10.08,-8.26 9.66,-5.14 9.23,-2.01 8.06,1.18 6.88,4.39 5.36,6.34 3.83,8.30 1.37,10.84 -1.07,13.38 -4.28,14.78 -7.49,16.18 -10.13,14.95 -12.77,13.72 -14.04,11.67 -15.31,9.63 -14.37,5.00 -13.44,0.38 -9.88,-1.61 -6.32,-3.60 -3.41,-3.29 -0.49,-2.98 -0.13,-3.00 0.23,-3.01 0.58,-2.94 0.94,-2.87 1.27,-2.71 1.60,-2.56 1.88,-2.33 2.17,-2.10 2.39,-1.81 2.61,-1.52 2.75,-1.18 2.90,-0.85 2.96,-0.49 3.02,-0.13 2.99,0.22 2.96,0.59 2.85,0.93 2.73,1.28 2.54,1.59 2.35,1.90 2.08,2.15 1.82,2.41 1.51,2.59 1.19,2.77 0.84,2.88 0.49,2.98 0.49,2.98 L 0.49,2.98 Z"></path></g><g transform="translate(509.3205669502701 363.96557678374046) rotate(0 4.03118827047814 -2.821842861391559)" stroke="none"><path fill="#e03131" d="M -1.06,-2.85 Q -1.06,-2.85 0.46,-4.17 2.00,-5.49 2.51,-8.31 3.02,-11.14 3.14,-13.77 3.27,-16.39 4.30,-13.78 5.32,-11.16 5.02,-8.91 4.71,-6.66 4.52,-4.29 4.32,-1.92 5.58,2.39 6.83,6.72 7.41,9.37 7.99,12.01 8.15,12.40 8.31,12.79 8.34,13.22 8.37,13.64 8.26,14.05 8.15,14.46 7.92,14.82 7.68,15.17 7.35,15.43 7.01,15.69 6.61,15.84 6.21,15.98 5.78,15.98 5.36,15.99 4.96,15.86 4.55,15.72 4.21,15.47 3.87,15.22 3.63,14.87 3.38,14.52 3.26,14.11 3.15,13.70 3.16,13.28 3.18,12.85 3.33,12.46 3.49,12.06 3.76,11.73 4.03,11.41 4.39,11.18 4.75,10.96 5.17,10.86 5.58,10.77 6.00,10.81 6.43,10.85 6.81,11.02 7.20,11.20 7.51,11.49 7.83,11.77 8.03,12.15 8.23,12.52 8.31,12.94 8.38,13.36 8.32,13.78 8.25,14.20 8.06,14.58 7.86,14.95 7.56,15.25 7.25,15.55 6.87,15.73 6.49,15.91 6.06,15.96 5.64,16.01 5.23,15.93 4.81,15.84 4.44,15.63 4.08,15.41 3.80,15.09 3.52,14.77 3.52,14.77 3.52,14.77 0.96,12.34 -1.59,9.91 -2.75,7.08 -3.92,4.25 -4.62,0.83 -5.32,-2.57 -5.10,-5.43 -4.87,-8.29 -4.20,-11.79 -3.52,-15.30 -1.68,-18.58 0.16,-21.86 2.60,-22.89 5.03,-23.93 8.08,-22.77 11.13,-21.61 12.13,-19.47 13.12,-17.33 12.79,-13.06 12.45,-8.80 11.04,-4.82 9.64,-0.84 7.52,0.93 5.40,2.70 3.23,2.78 1.06,2.85 0.71,2.93 0.35,3.02 -0.01,3.02 -0.37,3.02 -0.73,2.93 -1.09,2.84 -1.41,2.67 -1.74,2.50 -2.01,2.25 -2.28,2.01 -2.49,1.70 -2.70,1.40 -2.83,1.06 -2.96,0.71 -3.00,0.35 -3.04,-0.01 -3.00,-0.37 -2.95,-0.74 -2.82,-1.08 -2.69,-1.42 -2.48,-1.72 -2.27,-2.02 -1.99,-2.27 -1.72,-2.51 -1.39,-2.68 -1.06,-2.85 -1.06,-2.85 L -1.06,-2.85 Z"></path></g><g transform="translate(541.57022074152 120.48034373535592) rotate(0 -10.884274762632117 18.94668821044459)" stroke="none"><path fill="#e03131" d="M 1.02,2.87 Q 1.02,2.87 -1.86,5.01 -4.75,7.16 -7.24,8.11 -9.72,9.05 -11.71,10.34 -13.70,11.63 -14.85,15.72 -16.01,19.81 -16.39,23.47 -16.77,27.13 -16.90,31.35 -17.03,35.57 -17.03,35.99 -17.04,36.42 -17.19,36.82 -17.33,37.22 -17.59,37.55 -17.86,37.88 -18.21,38.11 -18.57,38.34 -18.98,38.45 -19.39,38.56 -19.82,38.52 -20.24,38.49 -20.63,38.33 -21.02,38.16 -21.34,37.88 -21.66,37.60 -21.87,37.23 -22.08,36.86 -22.17,36.45 -22.25,36.03 -22.20,35.61 -22.14,35.19 -21.96,34.80 -21.77,34.42 -21.47,34.12 -21.17,33.82 -20.79,33.63 -20.41,33.43 -19.99,33.37 -19.57,33.31 -19.15,33.39 -18.74,33.47 -18.37,33.67 -17.99,33.88 -17.71,34.19 -17.42,34.51 -17.25,34.90 -17.08,35.29 -17.04,35.71 -17.01,36.13 -17.11,36.55 -17.20,36.96 -17.43,37.32 -17.66,37.68 -17.99,37.95 -18.32,38.22 -18.71,38.37 -19.11,38.52 -19.54,38.53 -19.96,38.54 -20.37,38.42 -20.78,38.30 -21.12,38.06 -21.47,37.81 -21.72,37.47 -21.97,37.12 -22.10,36.72 -22.23,36.31 -22.22,36.31 -22.22,36.31 -23.62,31.69 -25.02,27.06 -25.32,22.67 -25.62,18.28 -24.60,13.19 -23.59,8.10 -21.45,5.59 -19.30,3.08 -16.35,1.24 -13.40,-0.59 -10.81,-1.56 -8.22,-2.52 -4.62,-2.70 -1.02,-2.87 -0.66,-2.95 -0.30,-3.03 0.05,-3.03 0.42,-3.02 0.78,-2.92 1.13,-2.83 1.46,-2.65 1.78,-2.47 2.05,-2.22 2.32,-1.98 2.52,-1.67 2.73,-1.36 2.85,-1.01 2.97,-0.67 3.01,-0.30 3.05,0.05 3.00,0.42 2.95,0.78 2.81,1.13 2.67,1.47 2.46,1.77 2.24,2.06 1.96,2.30 1.68,2.54 1.35,2.71 1.02,2.87 1.02,2.87 L 1.02,2.87 Z"></path></g><g transform="translate(514.1580224003288 142.24889326062015) rotate(0 13.706099170595593 -0.40313358979028635)" stroke="none"><path fill="#e03131" d="M 0.37,-3.98 Q 0.37,-3.98 5.26,-3.93 10.15,-3.87 14.27,-4.03 18.39,-4.20 21.85,-4.42 25.31,-4.64 25.73,-4.66 26.16,-4.69 26.57,-4.57 26.98,-4.46 27.33,-4.22 27.68,-3.99 27.94,-3.65 28.20,-3.31 28.34,-2.91 28.47,-2.51 28.47,-2.08 28.48,-1.66 28.34,-1.25 28.21,-0.85 27.95,-0.51 27.69,-0.17 27.34,0.06 26.99,0.30 26.58,0.41 26.17,0.53 25.75,0.51 25.33,0.48 24.93,0.33 24.54,0.17 24.21,-0.09 23.89,-0.37 23.67,-0.73 23.45,-1.09 23.35,-1.51 23.26,-1.92 23.31,-2.35 23.35,-2.77 23.53,-3.15 23.70,-3.54 24.00,-3.85 24.29,-4.16 24.66,-4.36 25.04,-4.56 25.46,-4.63 25.88,-4.70 26.29,-4.63 26.71,-4.56 27.09,-4.37 27.47,-4.17 27.76,-3.86 28.05,-3.55 28.23,-3.17 28.41,-2.78 28.46,-2.36 28.51,-1.94 28.42,-1.52 28.33,-1.11 28.11,-0.74 27.89,-0.38 27.57,-0.10 27.24,0.16 26.85,0.32 26.45,0.48 26.46,0.48 26.46,0.48 23.00,1.81 19.55,3.13 14.43,4.43 9.31,5.73 4.46,4.86 -0.37,3.98 -0.85,3.88 -1.32,3.78 -1.75,3.56 -2.19,3.35 -2.55,3.04 -2.92,2.73 -3.21,2.34 -3.49,1.95 -3.68,1.50 -3.86,1.05 -3.93,0.58 -4.00,0.10 -3.95,-0.37 -3.91,-0.85 -3.75,-1.31 -3.59,-1.76 -3.33,-2.17 -3.06,-2.57 -2.71,-2.90 -2.36,-3.23 -1.93,-3.47 -1.51,-3.70 -1.05,-3.83 -0.58,-3.96 -0.10,-3.97 0.38,-3.98 0.38,-3.98 L 0.37,-3.98 Z"></path></g><g transform="translate(632.6756809267673 238.19173508221388) rotate(0 -2.015631042095208 12.496772214937067)" stroke="none"><path fill="#e03131" d="M 0,2.97 Q 0,2.97 -1.59,3.64 -3.19,4.30 -5.35,6.25 -7.50,8.20 -7.80,10.14 -8.11,12.08 -8.33,12.53 -8.55,12.99 -8.87,13.38 -9.19,13.77 -9.60,14.07 -10.01,14.37 -10.47,14.56 -10.94,14.76 -11.44,14.84 -11.94,14.91 -12.45,14.87 -12.95,14.82 -13.43,14.66 -13.91,14.50 -14.33,14.22 -14.76,13.95 -15.11,13.58 -15.45,13.21 -15.70,12.77 -15.95,12.33 -16.09,11.85 -16.23,11.36 -16.25,10.85 -16.26,10.35 -16.16,9.85 -16.05,9.36 -13.65,8.00 -11.25,6.64 -9.63,5.09 -8.01,3.55 -6.38,1.88 -4.74,0.20 -2.93,-2.48 -1.11,-5.17 -0.01,-6.28 1.08,-7.38 1.53,-7.73 1.99,-8.09 2.51,-8.33 3.04,-8.56 3.60,-8.67 4.17,-8.77 4.75,-8.74 5.32,-8.70 5.87,-8.53 6.42,-8.36 6.92,-8.06 7.41,-7.76 7.82,-7.35 8.23,-6.95 8.52,-6.45 8.82,-5.96 8.99,-5.41 9.16,-4.86 9.20,-4.28 9.23,-3.71 9.13,-3.14 9.03,-2.57 8.79,-2.05 8.55,-1.52 8.20,-1.07 7.84,-0.61 8.36,2.20 8.87,5.03 8.52,9.03 8.16,13.03 7.40,15.68 6.64,18.34 5.47,20.72 4.30,23.10 2.40,25.29 0.49,27.48 -3.13,29.79 -6.76,32.10 -10.82,31.20 -14.88,30.29 -14.46,26.53 -14.05,22.77 -12.36,19.67 -10.68,16.58 -8.44,13.87 -6.20,11.16 -4.14,8.93 -2.08,6.70 -0.50,4.38 1.07,2.06 3.43,-0.50 5.79,-3.08 6.05,-3.41 6.31,-3.75 6.67,-3.98 7.02,-4.21 7.43,-4.32 7.85,-4.43 8.27,-4.40 8.69,-4.37 9.09,-4.21 9.48,-4.04 9.80,-3.76 10.12,-3.48 10.33,-3.12 10.55,-2.75 10.63,-2.33 10.72,-1.92 10.66,-1.50 10.61,-1.07 10.43,-0.69 10.24,-0.31 9.95,-0.00 9.65,0.29 9.27,0.48 8.89,0.68 8.47,0.74 8.05,0.80 7.63,0.73 7.22,0.65 6.84,0.45 6.47,0.24 6.18,-0.06 5.90,-0.37 5.72,-0.76 5.55,-1.15 5.51,-1.57 5.47,-2.00 5.57,-2.41 5.67,-2.82 5.89,-3.18 6.12,-3.54 6.44,-3.81 6.77,-4.08 7.17,-4.24 7.57,-4.39 7.99,-4.40 8.41,-4.42 8.82,-4.30 9.23,-4.18 9.58,-3.94 9.93,-3.69 10.18,-3.35 10.43,-3.01 10.56,-2.60 10.69,-2.20 10.68,-1.78 10.68,-1.35 10.54,-0.95 10.39,-0.55 10.39,-0.55 10.39,-0.55 9.25,3.24 8.11,7.05 6.09,9.80 4.07,12.56 2.02,14.64 -0.02,16.72 -1.99,18.69 -3.97,20.67 -6.93,22.81 -9.89,24.95 -7.73,23.54 -5.57,22.12 -3.66,19.24 -1.75,16.36 -1.39,14.13 -1.02,11.91 -0.90,8.44 -0.78,4.97 -0.73,1.94 -0.68,-1.07 0.19,-4.23 1.08,-7.38 1.53,-7.73 1.99,-8.09 2.51,-8.33 3.04,-8.56 3.60,-8.67 4.17,-8.77 4.75,-8.74 5.32,-8.70 5.87,-8.53 6.42,-8.36 6.92,-8.06 7.41,-7.76 7.82,-7.35 8.22,-6.95 8.52,-6.45 8.82,-5.96 8.99,-5.41 9.16,-4.86 9.20,-4.28 9.23,-3.71 9.13,-3.14 9.03,-2.57 8.79,-2.05 8.55,-1.52 8.20,-1.07 7.84,-0.62 6.14,1.16 4.44,2.95 2.77,4.66 1.11,6.38 -0.79,8.07 -2.71,9.76 -5.41,10.92 -8.11,12.08 -8.33,12.53 -8.55,12.99 -8.87,13.38 -9.19,13.77 -9.60,14.07 -10.01,14.37 -10.47,14.56 -10.94,14.76 -11.44,14.84 -11.94,14.91 -12.44,14.87 -12.95,14.82 -13.43,14.66 -13.91,14.50 -14.33,14.22 -14.76,13.95 -15.11,13.58 -15.45,13.22 -15.70,12.77 -15.95,12.33 -16.09,11.85 -16.23,11.36 -16.25,10.85 -16.26,10.35 -16.16,9.85 -16.05,9.36 -16.10,8.45 -16.15,7.54 -15.27,5.26 -14.40,2.97 -11.07,-0.11 -7.75,-3.21 -5.52,-3.76 -3.29,-4.30 -1.64,-3.64 0,-2.97 0.35,-2.93 0.71,-2.88 1.04,-2.76 1.38,-2.63 1.67,-2.42 1.97,-2.22 2.20,-1.95 2.44,-1.68 2.61,-1.37 2.78,-1.05 2.86,-0.70 2.95,-0.35 2.95,0.00 2.95,0.35 2.86,0.70 2.78,1.05 2.61,1.37 2.44,1.68 2.20,1.95 1.97,2.22 1.67,2.42 1.38,2.63 1.04,2.76 0.71,2.88 0.35,2.93 -0.00,2.97 -0.00,2.97 L 0,2.97 Z"></path></g><g transform="translate(514.1046056208506 358.08906856881435) rotate(0 6.48341748289829 3.2416901922783268)" stroke="none"><path fill="#e03131" d="M 1.05,-2.63 Q 1.05,-2.63 2.47,-3.03 3.89,-3.44 5.21,-5.58 6.54,-7.72 4.41,-6.21 2.28,-4.69 1.75,-2.50 1.23,-0.31 0.75,2.73 0.27,5.79 0.24,8.18 0.20,10.58 1.60,13.48 3.00,16.39 5.27,16.53 7.55,16.67 9.88,16.68 12.21,16.69 14.13,17.07 16.06,17.45 16.45,17.29 16.84,17.13 17.26,17.09 17.69,17.06 18.10,17.17 18.51,17.28 18.87,17.51 19.22,17.74 19.48,18.07 19.75,18.41 19.89,18.81 20.03,19.21 20.04,19.63 20.05,20.06 19.92,20.46 19.79,20.87 19.54,21.21 19.29,21.55 18.94,21.80 18.60,22.04 18.19,22.16 17.78,22.29 17.36,22.27 16.93,22.25 16.53,22.10 16.14,21.95 15.81,21.69 15.48,21.42 15.25,21.06 15.03,20.70 14.93,20.28 14.83,19.87 14.87,19.45 14.91,19.02 15.08,18.63 15.25,18.25 15.54,17.93 15.82,17.62 16.19,17.41 16.57,17.21 16.98,17.13 17.40,17.05 17.82,17.11 18.24,17.18 18.62,17.37 19.00,17.56 19.30,17.86 19.60,18.17 19.78,18.55 19.97,18.93 20.02,19.35 20.07,19.78 19.99,20.19 19.91,20.61 19.69,20.98 19.48,21.34 19.16,21.63 18.84,21.91 18.84,21.91 18.84,21.91 17.08,24.17 15.31,26.44 12.68,26.73 10.04,27.03 7.35,26.94 4.65,26.86 2.01,26.25 -0.62,25.63 -3.38,23.24 -6.14,20.84 -7.42,17.91 -8.71,14.99 -9.30,12.84 -9.90,10.69 -9.86,8.00 -9.83,5.31 -9.53,2.38 -9.24,-0.53 -8.73,-2.83 -8.23,-5.13 -7.25,-8.17 -6.27,-11.20 -4.58,-13.93 -2.88,-16.67 0.25,-18.53 3.39,-20.39 5.91,-20.17 8.42,-19.95 11.47,-17.67 14.52,-15.39 15.25,-11.70 15.99,-8.00 15.24,-5.37 14.48,-2.74 12.85,-0.73 11.21,1.28 9.02,2.94 6.83,4.61 3.80,4.96 0.76,5.30 -0.14,3.96 -1.05,2.63 -1.35,2.46 -1.65,2.30 -1.90,2.07 -2.15,1.84 -2.34,1.55 -2.53,1.27 -2.64,0.95 -2.76,0.62 -2.79,0.28 -2.83,-0.05 -2.78,-0.38 -2.73,-0.72 -2.61,-1.04 -2.48,-1.36 -2.28,-1.63 -2.08,-1.91 -1.82,-2.13 -1.56,-2.36 -1.26,-2.51 -0.95,-2.66 -0.62,-2.74 -0.29,-2.81 0.05,-2.81 0.39,-2.80 0.72,-2.71 1.05,-2.63 1.05,-2.63 L 1.05,-2.63 Z"></path></g><g transform="translate(1420.1083673831943 246.76201123793214) rotate(0 0.00004999999998744897 0.00004999999998744897)" stroke="none"><path fill="#e03131" d="M 3.14,-3.14 Q 3.14,-3.14 3.55,-2.55 3.97,-1.97 4.18,-1.28 4.40,-0.59 4.38,0.11 4.36,0.83 4.11,1.51 3.86,2.18 3.41,2.74 2.96,3.30 2.36,3.69 1.75,4.07 1.05,4.25 0.36,4.42 -0.35,4.36 -1.07,4.30 -1.73,4.02 -2.39,3.74 -2.92,3.26 -3.46,2.78 -3.81,2.15 -4.16,1.53 -4.30,0.82 -4.43,0.11 -4.34,-0.59 -4.24,-1.30 -3.92,-1.94 -3.60,-2.59 -3.09,-3.09 -2.59,-3.60 -1.94,-3.92 -1.30,-4.24 -0.59,-4.34 0.12,-4.43 0.82,-4.30 1.53,-4.16 2.15,-3.81 2.78,-3.46 3.26,-2.92 3.74,-2.39 4.02,-1.73 4.31,-1.07 4.36,-0.35 4.42,0.36 4.25,1.05 4.07,1.75 3.69,2.36 3.30,2.96 2.74,3.41 2.18,3.86 1.51,4.11 0.83,4.36 0.11,4.38 -0.60,4.40 -1.28,4.18 -1.97,3.97 -2.55,3.55 -3.14,3.13 -3.14,3.14 -3.14,3.14 -3.47,2.71 -3.80,2.29 -4.02,1.80 -4.24,1.32 -4.33,0.79 -4.43,0.26 -4.40,-0.26 -4.36,-0.80 -4.20,-1.31 -4.04,-1.82 -3.77,-2.28 -3.49,-2.73 -3.11,-3.11 -2.73,-3.49 -2.28,-3.77 -1.82,-4.05 -1.31,-4.20 -0.80,-4.36 -0.26,-4.40 0.26,-4.43 0.79,-4.33 1.32,-4.24 1.80,-4.02 2.29,-3.80 2.71,-3.47 3.14,-3.14 3.14,-3.14 L 3.14,-3.14 Z"></path></g><g transform="translate(10 266.19263834754315) rotate(0 0.00004999999998744897 0.00004999999998744897)" stroke="none"><path fill="#e03131" d="M 3.14,-3.14 Q 3.14,-3.14 3.55,-2.55 3.97,-1.97 4.18,-1.28 4.40,-0.59 4.38,0.11 4.36,0.83 4.11,1.51 3.86,2.18 3.41,2.74 2.96,3.30 2.36,3.69 1.75,4.07 1.05,4.25 0.36,4.42 -0.35,4.36 -1.07,4.30 -1.73,4.02 -2.39,3.74 -2.92,3.26 -3.46,2.78 -3.81,2.15 -4.16,1.53 -4.30,0.82 -4.43,0.11 -4.34,-0.59 -4.24,-1.30 -3.92,-1.94 -3.60,-2.59 -3.09,-3.09 -2.59,-3.60 -1.94,-3.92 -1.30,-4.24 -0.59,-4.34 0.12,-4.43 0.82,-4.30 1.53,-4.16 2.15,-3.81 2.78,-3.46 3.26,-2.92 3.74,-2.39 4.02,-1.73 4.31,-1.07 4.36,-0.35 4.42,0.36 4.25,1.05 4.07,1.75 3.69,2.36 3.30,2.96 2.74,3.41 2.18,3.86 1.51,4.11 0.83,4.36 0.11,4.38 -0.60,4.40 -1.28,4.18 -1.97,3.97 -2.55,3.55 -3.14,3.13 -3.14,3.14 -3.14,3.14 -3.47,2.71 -3.80,2.29 -4.02,1.80 -4.24,1.32 -4.33,0.79 -4.43,0.26 -4.40,-0.26 -4.36,-0.80 -4.20,-1.31 -4.04,-1.82 -3.77,-2.28 -3.49,-2.73 -3.11,-3.11 -2.73,-3.49 -2.28,-3.77 -1.82,-4.05 -1.31,-4.20 -0.80,-4.36 -0.26,-4.40 0.26,-4.43 0.79,-4.33 1.32,-4.24 1.80,-4.02 2.29,-3.80 2.71,-3.47 3.14,-3.14 3.14,-3.14 L 3.14,-3.14 Z"></path></g></svg>