<svg version="1.1" xmlns="http://www.w3.org/2000/svg" viewBox="0 0 442.0294093191361 190.36425890574762" width="442.0294093191361" height="190.36425890574762" class="excalidraw-svg"><!-- svg-source:excalidraw --><metadata></metadata><defs><style class="style-fonts">
      </style></defs><rect x="0" y="0" width="442.0294093191361" height="190.36425890574762" fill="#ffffff"></rect><g stroke-linecap="round" transform="translate(116.83266212115257 17.39136408097849) rotate(0 120.66668701171875 76.66667175292969)"><path d="M32 0 C81.95 0.62, 128.78 0.86, 209.33 0 M32 0 C85.91 -0.19, 138.64 -0.48, 209.33 0 M209.33 0 C230.74 -1.67, 240.28 8.7, 241.33 32 M209.33 0 C231.32 -0.21, 239.36 11.88, 241.33 32 M241.33 32 C241.54 54.17, 241.09 76.11, 241.33 121.33 M241.33 32 C242.41 52.92, 242.21 71.81, 241.33 121.33 M241.33 121.33 C239.47 144.05, 229.4 155.29, 209.33 153.33 M241.33 121.33 C242.24 141.91, 229.68 154.38, 209.33 153.33 M209.33 153.33 C165.09 150.91, 122.08 151.35, 32 153.33 M209.33 153.33 C155.82 152.76, 101.57 152.15, 32 153.33 M32 153.33 C9.39 154.05, 1.26 144.38, 0 121.33 M32 153.33 C12.06 151.24, -1.04 140.68, 0 121.33 M0 121.33 C0.47 95.34, 0.86 63.94, 0 32 M0 121.33 C0.11 89.46, -0.22 57.2, 0 32 M0 32 C-0.43 9.39, 8.93 -0.57, 32 0 M0 32 C-0.42 9.64, 10.73 -0.55, 32 0" stroke="#1e1e1e" stroke-width="2" fill="none"></path></g><g stroke-linecap="round"><g transform="translate(147.49934913287132 39.39136408097849) rotate(0 -0.333343505859375 10)"><path d="M0.01 0.17 C-0.21 3.59, -1.12 17.16, -1.21 20.39 M-0.65 -0.22 C-0.71 3.06, -0.23 16.27, -0.26 19.62" stroke="#1e1e1e" stroke-width="2" fill="none"></path></g></g><mask></mask><g transform="translate(147.8887695977745 41.839925920462406) rotate(0 5.488088047393859 8.918198032635132)" stroke="none"><path fill="#1e1e1e" d="M -0.70,-2.80 Q -0.70,-2.80 0.58,-4.48 1.87,-6.15 5.09,-5.94 8.32,-5.73 10.23,-4.13 12.14,-2.54 12.48,-0.13 12.82,2.26 11.10,4.24 9.38,6.21 9.99,2.51 10.60,-1.18 12.63,0.16 14.67,1.51 15.60,4.09 16.54,6.67 15.67,10.40 14.81,14.14 12.70,16.61 10.58,19.08 5.48,20.11 0.38,21.14 -0.00,20.99 -0.40,20.83 -0.72,20.56 -1.05,20.29 -1.27,19.92 -1.49,19.56 -1.59,19.15 -1.68,18.73 -1.64,18.31 -1.60,17.89 -1.42,17.50 -1.25,17.11 -0.96,16.80 -0.67,16.49 -0.29,16.29 0.07,16.09 0.49,16.02 0.91,15.94 1.33,16.01 1.75,16.07 2.12,16.27 2.50,16.47 2.80,16.77 3.09,17.08 3.27,17.46 3.45,17.85 3.50,18.27 3.55,18.69 3.46,19.11 3.38,19.52 3.16,19.89 2.94,20.25 2.62,20.53 2.30,20.81 1.91,20.97 1.51,21.13 1.09,21.16 0.66,21.18 0.25,21.07 -0.15,20.96 -0.50,20.73 -0.85,20.49 -1.11,20.15 -1.37,19.82 -1.51,19.42 -1.65,19.01 -1.65,18.59 -1.66,18.16 -1.52,17.76 -1.39,17.36 -1.14,17.02 -0.88,16.68 -0.53,16.44 -0.18,16.19 0.22,16.08 0.62,15.96 1.05,15.98 1.47,16.00 1.47,16.00 1.47,16.00 1.64,13.43 1.81,10.86 3.70,9.41 5.60,7.96 3.89,6.25 2.19,4.55 2.85,1.48 3.51,-1.59 3.97,1.49 4.44,4.58 2.57,3.69 0.70,2.80 0.35,2.84 0.00,2.89 -0.33,2.85 -0.68,2.81 -1.00,2.68 -1.33,2.56 -1.62,2.36 -1.91,2.17 -2.14,1.91 -2.37,1.65 -2.53,1.34 -2.70,1.03 -2.78,0.69 -2.87,0.35 -2.87,0.00 -2.87,-0.33 -2.79,-0.67 -2.70,-1.01 -2.54,-1.32 -2.38,-1.63 -2.15,-1.89 -1.92,-2.15 -1.63,-2.35 -1.35,-2.55 -1.02,-2.68 -0.70,-2.80 -0.70,-2.80 L -0.70,-2.80 Z"></path></g><g transform="translate(195.2237095750126 41.153922765341065) rotate(0 -5.488119450605353 9.604185486150726)" stroke="none"><path fill="#1e1e1e" d="M 0.82,3.00 Q 0.82,3.00 -0.97,4.50 -2.77,6.00 -4.36,7.71 -5.94,9.42 -5.35,12.08 -4.76,14.74 -1.49,16.61 1.77,18.48 2.16,18.65 2.55,18.82 2.87,19.10 3.18,19.39 3.39,19.76 3.60,20.13 3.68,20.55 3.76,20.97 3.70,21.39 3.64,21.81 3.45,22.19 3.26,22.57 2.96,22.87 2.66,23.17 2.28,23.35 1.89,23.54 1.47,23.60 1.05,23.65 0.63,23.57 0.22,23.49 -0.14,23.28 -0.51,23.07 -0.79,22.75 -1.08,22.44 -1.24,22.05 -1.41,21.66 -1.44,21.23 -1.48,20.81 -1.37,20.40 -1.27,19.98 -1.04,19.63 -0.81,19.27 -0.48,19.00 -0.15,18.74 0.24,18.59 0.64,18.45 1.07,18.44 1.49,18.43 1.90,18.55 2.30,18.68 2.65,18.93 2.99,19.18 3.24,19.52 3.49,19.87 3.61,20.28 3.73,20.68 3.72,21.11 3.71,21.53 3.56,21.93 3.41,22.33 3.15,22.66 2.88,22.99 2.52,23.22 2.16,23.45 1.75,23.55 1.34,23.65 0.91,23.61 0.49,23.58 0.49,23.58 0.49,23.58 -1.88,23.22 -4.26,22.87 -6.92,22.30 -9.58,21.73 -12.04,20.18 -14.51,18.63 -15.82,15.56 -17.13,12.49 -16.34,8.93 -15.55,5.37 -14.14,3.60 -12.73,1.83 -9.31,-0.90 -5.89,-3.63 -3.35,-3.32 -0.82,-3.00 -0.44,-3.06 -0.07,-3.11 0.29,-3.08 0.67,-3.04 1.02,-2.92 1.38,-2.79 1.69,-2.59 2.01,-2.38 2.26,-2.11 2.52,-1.83 2.70,-1.50 2.88,-1.17 2.98,-0.81 3.08,-0.45 3.09,-0.07 3.10,0.29 3.02,0.66 2.94,1.03 2.77,1.37 2.61,1.70 2.36,1.99 2.12,2.28 1.82,2.50 1.51,2.72 1.16,2.86 0.82,3.00 0.82,3.00 L 0.82,3.00 Z"></path></g><g transform="translate(221.29220630816212 39.09588189676549) rotate(0 -3.0870613028633613 13.03426406818052)" stroke="none"><path fill="#1e1e1e" d="M 3.24,0.85 Q 3.24,0.85 3.12,4.82 3.00,8.80 2.21,11.96 1.41,15.12 0.65,18.02 -0.10,20.92 -1.44,23.00 -2.79,25.08 -2.88,25.49 -2.98,25.91 -3.20,26.27 -3.42,26.63 -3.75,26.90 -4.08,27.17 -4.47,27.33 -4.87,27.48 -5.29,27.50 -5.72,27.52 -6.13,27.40 -6.54,27.28 -6.88,27.04 -7.23,26.80 -7.49,26.46 -7.74,26.12 -7.87,25.71 -8.01,25.31 -8.00,24.89 -8.00,24.46 -7.86,24.06 -7.72,23.66 -7.46,23.32 -7.20,22.99 -6.84,22.75 -6.49,22.52 -6.08,22.41 -5.67,22.30 -5.24,22.32 -4.82,22.35 -4.43,22.51 -4.03,22.67 -3.71,22.95 -3.39,23.23 -3.18,23.60 -2.96,23.96 -2.87,24.38 -2.79,24.79 -2.84,25.22 -2.89,25.64 -3.07,26.02 -3.25,26.41 -3.55,26.71 -3.84,27.02 -4.22,27.21 -4.60,27.41 -5.02,27.47 -5.44,27.54 -5.85,27.46 -6.27,27.39 -6.65,27.19 -7.02,26.99 -7.31,26.67 -7.60,26.36 -7.77,25.98 -7.95,25.59 -7.99,25.17 -8.03,24.74 -8.03,24.74 -8.03,24.74 -9.04,21.59 -10.05,18.44 -9.33,15.49 -8.61,12.54 -7.78,9.36 -6.95,6.18 -5.09,2.66 -3.24,-0.85 -3.09,-1.22 -2.94,-1.60 -2.70,-1.93 -2.47,-2.26 -2.16,-2.52 -1.86,-2.78 -1.49,-2.96 -1.13,-3.15 -0.74,-3.24 -0.35,-3.33 0.05,-3.32 0.45,-3.32 0.84,-3.21 1.23,-3.11 1.59,-2.92 1.94,-2.72 2.24,-2.45 2.54,-2.18 2.76,-1.84 2.99,-1.51 3.12,-1.13 3.26,-0.75 3.30,-0.34 3.35,0.05 3.29,0.45 3.24,0.85 3.24,0.85 L 3.24,0.85 Z"></path></g><g transform="translate(219.23416543958655 39.78188505188686) rotate(0 8.232163474302268 11.319224777165616)" stroke="none"><path fill="#1e1e1e" d="M 0.46,-3.27 Q 0.46,-3.27 4.72,-3.46 8.97,-3.65 11.33,-3.19 13.68,-2.73 16.03,-1.37 18.37,-0.01 19.64,2.38 20.92,4.79 20.34,8.31 19.76,11.84 18.78,14.14 17.79,16.44 13.83,20.72 9.86,25.00 7.78,26.08 5.69,27.16 3.15,26.78 0.62,26.39 0.19,26.42 -0.22,26.46 -0.63,26.35 -1.05,26.25 -1.40,26.01 -1.76,25.78 -2.02,25.45 -2.29,25.12 -2.43,24.72 -2.58,24.32 -2.58,23.89 -2.59,23.47 -2.47,23.06 -2.34,22.66 -2.09,22.31 -1.84,21.97 -1.49,21.72 -1.14,21.48 -0.74,21.36 -0.33,21.23 0.08,21.25 0.51,21.26 0.91,21.41 1.31,21.56 1.63,21.83 1.96,22.10 2.19,22.46 2.42,22.82 2.52,23.23 2.62,23.64 2.58,24.07 2.54,24.49 2.37,24.88 2.20,25.27 1.92,25.58 1.63,25.90 1.26,26.10 0.89,26.31 0.47,26.39 0.05,26.46 -0.36,26.40 -0.78,26.34 -1.16,26.15 -1.54,25.96 -1.84,25.66 -2.14,25.36 -2.32,24.98 -2.51,24.59 -2.56,24.17 -2.62,23.75 -2.53,23.33 -2.45,22.92 -2.24,22.55 -2.03,22.18 -1.71,21.90 -1.39,21.62 -1.00,21.45 -0.61,21.29 -0.61,21.29 -0.61,21.29 1.18,19.05 2.99,16.82 5.53,14.46 8.07,12.11 10.06,9.70 12.05,7.30 9.82,6.66 7.59,6.02 3.56,4.65 -0.46,3.27 -0.85,3.17 -1.23,3.06 -1.58,2.87 -1.93,2.68 -2.22,2.41 -2.52,2.14 -2.74,1.80 -2.96,1.47 -3.09,1.09 -3.22,0.72 -3.26,0.32 -3.30,-0.06 -3.25,-0.46 -3.19,-0.85 -3.04,-1.22 -2.89,-1.59 -2.66,-1.92 -2.42,-2.24 -2.12,-2.50 -1.82,-2.76 -1.46,-2.93 -1.10,-3.11 -0.71,-3.20 -0.32,-3.29 0.06,-3.28 0.46,-3.27 0.46,-3.27 L 0.46,-3.27 Z"></path></g><g transform="translate(252.8488538951285 55.56020884537003) rotate(0 14.063268800862545 -2.05804086857556)" stroke="none"><path fill="#1e1e1e" d="M -0.53,-2.96 Q -0.53,-2.96 1.52,-3.97 3.58,-4.97 6.73,-5.17 9.88,-5.37 12.81,-5.64 15.75,-5.91 19.70,-5.81 23.65,-5.72 24.08,-5.75 24.50,-5.78 24.91,-5.68 25.32,-5.58 25.68,-5.35 26.04,-5.12 26.30,-4.78 26.57,-4.45 26.71,-4.05 26.86,-3.65 26.87,-3.23 26.88,-2.80 26.76,-2.40 26.63,-1.99 26.38,-1.65 26.13,-1.30 25.79,-1.06 25.44,-0.81 25.03,-0.69 24.63,-0.56 24.20,-0.57 23.78,-0.59 23.38,-0.73 22.98,-0.88 22.65,-1.15 22.32,-1.42 22.09,-1.77 21.86,-2.13 21.76,-2.55 21.66,-2.96 21.70,-3.38 21.73,-3.80 21.90,-4.19 22.07,-4.58 22.35,-4.90 22.64,-5.22 23.01,-5.42 23.38,-5.63 23.80,-5.71 24.21,-5.79 24.64,-5.73 25.06,-5.67 25.44,-5.48 25.82,-5.29 26.12,-4.99 26.42,-4.69 26.60,-4.31 26.79,-3.93 26.85,-3.51 26.91,-3.09 26.82,-2.67 26.74,-2.25 26.53,-1.88 26.32,-1.51 26.01,-1.23 25.69,-0.95 25.30,-0.78 24.91,-0.61 24.91,-0.61 24.91,-0.61 20.71,0.98 16.51,2.59 13.44,2.86 10.37,3.12 7.73,3.26 5.09,3.39 2.81,3.18 0.53,2.96 0.17,2.99 -0.18,3.01 -0.54,2.94 -0.90,2.87 -1.23,2.73 -1.56,2.58 -1.85,2.35 -2.13,2.13 -2.36,1.84 -2.58,1.55 -2.73,1.22 -2.88,0.89 -2.94,0.53 -3.01,0.17 -2.98,-0.18 -2.96,-0.54 -2.85,-0.89 -2.75,-1.24 -2.56,-1.55 -2.37,-1.86 -2.11,-2.12 -1.85,-2.37 -1.54,-2.56 -1.23,-2.75 -0.88,-2.86 -0.53,-2.96 -0.53,-2.96 L -0.53,-2.96 Z"></path></g><g transform="translate(152.00485133492566 83.00074329197378) rotate(0 -6.517171288104635 10.29022004448359)" stroke="none"><path fill="#1e1e1e" d="M 1.11,2.67 Q 1.11,2.67 -0.81,4.52 -2.74,6.37 -4.18,8.04 -5.62,9.71 -6.52,11.80 -7.43,13.89 -6.32,16.45 -5.22,19.01 -4.90,19.29 -4.58,19.57 -4.37,19.94 -4.16,20.31 -4.08,20.73 -4.00,21.14 -4.05,21.56 -4.11,21.98 -4.29,22.37 -4.48,22.75 -4.78,23.05 -5.07,23.35 -5.45,23.55 -5.83,23.74 -6.25,23.80 -6.68,23.86 -7.09,23.78 -7.51,23.70 -7.88,23.50 -8.25,23.29 -8.54,22.97 -8.83,22.66 -9.00,22.27 -9.17,21.88 -9.20,21.46 -9.24,21.03 -9.14,20.62 -9.04,20.21 -8.81,19.85 -8.59,19.49 -8.26,19.22 -7.93,18.95 -7.53,18.80 -7.13,18.65 -6.71,18.64 -6.28,18.63 -5.88,18.75 -5.47,18.87 -5.12,19.12 -4.78,19.36 -4.53,19.70 -4.28,20.05 -4.15,20.45 -4.02,20.86 -4.03,21.28 -4.04,21.71 -4.18,22.11 -4.33,22.51 -4.59,22.84 -4.85,23.17 -5.21,23.41 -5.57,23.64 -5.98,23.74 -6.39,23.85 -6.82,23.82 -7.24,23.78 -7.63,23.62 -8.02,23.45 -8.02,23.45 -8.02,23.45 -11.87,21.71 -15.73,19.96 -15.91,14.81 -16.09,9.65 -14.34,6.32 -12.59,3.00 -9.65,0.28 -6.72,-2.43 -3.91,-2.55 -1.11,-2.67 -0.77,-2.76 -0.44,-2.85 -0.09,-2.87 0.25,-2.88 0.59,-2.80 0.93,-2.73 1.25,-2.58 1.56,-2.43 1.83,-2.20 2.10,-1.98 2.30,-1.70 2.51,-1.42 2.65,-1.10 2.78,-0.78 2.83,-0.43 2.89,-0.09 2.86,0.25 2.82,0.60 2.71,0.93 2.60,1.26 2.41,1.55 2.22,1.84 1.97,2.08 1.71,2.32 1.41,2.49 1.11,2.67 1.11,2.67 L 1.11,2.67 Z"></path></g><g transform="translate(171.8992254623485 96.03502306176003) rotate(0 -7.889146195135879 7.889146195135851)" stroke="none"><path fill="#1e1e1e" d="M 0.39,3.34 Q 0.39,3.34 -2.85,4.18 -6.10,5.02 -8.45,7.06 -10.81,9.11 -7.84,8.65 -4.88,8.18 -4.97,6.67 -5.06,5.15 -5.49,5.20 -5.91,5.26 -6.32,5.17 -6.74,5.09 -7.11,4.87 -7.48,4.66 -7.76,4.34 -8.04,4.02 -8.20,3.63 -8.36,3.24 -8.39,2.81 -8.42,2.39 -8.31,1.98 -8.21,1.57 -7.97,1.21 -7.74,0.85 -7.41,0.59 -7.07,0.33 -6.67,0.19 -6.27,0.05 -5.84,0.04 -5.42,0.03 -5.02,0.16 -4.61,0.29 -4.27,0.54 -3.93,0.80 -3.68,1.15 -3.44,1.49 -3.32,1.90 -3.20,2.31 -3.22,2.73 -3.23,3.16 -3.38,3.55 -3.53,3.95 -3.80,4.28 -4.07,4.61 -4.44,4.83 -4.80,5.06 -5.21,5.15 -5.62,5.25 -6.05,5.21 -6.47,5.17 -6.86,5.00 -7.25,4.83 -7.56,4.54 -7.87,4.25 -8.08,3.88 -8.28,3.51 -8.36,3.09 -8.43,2.67 -8.37,2.25 -8.31,1.83 -8.11,1.45 -7.92,1.07 -7.62,0.78 -7.31,0.48 -6.93,0.30 -6.55,0.11 -6.55,0.11 -6.55,0.11 -3.31,-0.53 -0.06,-1.18 1.74,2.35 3.56,5.89 2.99,8.07 2.41,10.24 0.93,12.00 -0.54,13.75 -2.86,15.24 -5.19,16.73 -8.51,17.74 -11.84,18.76 -14.27,17.79 -16.70,16.82 -17.62,14.21 -18.54,11.60 -18.06,8.08 -17.58,4.56 -15.39,1.98 -13.20,-0.59 -10.25,-2.01 -7.30,-3.44 -3.84,-3.39 -0.39,-3.34 0.01,-3.34 0.41,-3.33 0.81,-3.24 1.20,-3.14 1.56,-2.95 1.92,-2.76 2.22,-2.49 2.52,-2.22 2.75,-1.88 2.98,-1.55 3.12,-1.17 3.27,-0.79 3.31,-0.39 3.36,0.01 3.31,0.41 3.26,0.81 3.11,1.19 2.97,1.57 2.74,1.90 2.51,2.24 2.20,2.50 1.90,2.77 1.54,2.96 1.18,3.15 0.78,3.24 0.39,3.34 0.39,3.34 L 0.39,3.34 Z"></path></g><g transform="translate(186.30551154237747 98.0930639303356) rotate(0 0.686003155121341 -3.7730801595904353)" stroke="none"><path fill="#1e1e1e" d="M 2.98,2.98 Q 2.98,2.98 0.50,5.51 -1.97,8.03 -2.20,11.08 -2.43,14.13 -2.62,14.51 -2.81,14.88 -3.08,15.20 -3.35,15.52 -3.69,15.76 -4.03,16.00 -4.42,16.16 -4.81,16.31 -5.22,16.37 -5.64,16.42 -6.06,16.38 -6.47,16.34 -6.87,16.19 -7.26,16.05 -7.61,15.82 -7.96,15.59 -8.24,15.28 -8.52,14.97 -8.72,14.60 -8.92,14.23 -9.03,13.83 -9.13,13.42 -9.14,13.01 -9.15,12.59 -9.05,12.18 -8.96,11.77 -5.86,9.35 -2.76,6.92 -0.65,2.57 1.45,-1.78 2.16,-5.43 2.86,-9.08 3.58,-12.51 4.30,-15.93 4.09,-18.57 3.88,-21.20 4.01,-21.82 4.13,-22.44 4.39,-23.01 4.66,-23.58 5.05,-24.07 5.45,-24.56 5.95,-24.95 6.45,-25.33 7.03,-25.58 7.61,-25.83 8.23,-25.94 8.85,-26.05 9.48,-26.00 10.11,-25.96 10.71,-25.76 11.31,-25.57 11.84,-25.23 12.38,-24.90 12.82,-24.45 13.26,-24.00 13.58,-23.45 13.90,-22.91 14.08,-22.31 14.26,-21.70 14.29,-21.07 14.32,-20.44 13.30,-18.24 12.28,-16.04 11.00,-10.59 9.71,-5.13 9.07,-1.57 8.42,1.97 7.91,4.31 7.40,6.66 7.05,8.66 6.69,10.67 6.65,11.09 6.60,11.51 6.41,11.89 6.23,12.28 5.94,12.58 5.64,12.89 5.27,13.09 4.89,13.28 4.47,13.35 4.05,13.41 3.63,13.34 3.21,13.27 2.84,13.07 2.47,12.87 2.18,12.56 1.89,12.25 1.71,11.86 1.53,11.47 1.49,11.05 1.45,10.63 1.54,10.21 1.64,9.80 1.86,9.44 2.08,9.07 2.41,8.80 2.73,8.53 3.13,8.37 3.53,8.22 3.95,8.20 4.37,8.18 4.78,8.30 5.19,8.41 5.54,8.65 5.89,8.90 6.15,9.24 6.40,9.58 6.53,9.98 6.67,10.38 6.66,10.81 6.66,11.23 6.52,11.63 6.38,12.04 6.12,12.37 5.86,12.71 5.51,12.94 5.16,13.18 4.74,13.29 4.33,13.40 3.91,13.38 3.49,13.35 3.09,13.19 2.70,13.03 2.38,12.75 2.06,12.47 1.84,12.11 1.62,11.74 1.53,11.33 1.45,10.91 1.45,10.91 1.45,10.91 0.91,8.97 0.38,7.04 -0.43,3.80 -1.25,0.56 -0.76,-3.43 -0.26,-7.44 0.59,-11.34 1.46,-15.25 2.67,-18.22 3.88,-21.20 4.01,-21.82 4.13,-22.44 4.39,-23.01 4.66,-23.58 5.05,-24.07 5.45,-24.56 5.95,-24.95 6.45,-25.33 7.03,-25.58 7.61,-25.83 8.23,-25.94 8.85,-26.05 9.48,-26.00 10.11,-25.96 10.71,-25.76 11.31,-25.57 11.84,-25.23 12.38,-24.90 12.82,-24.45 13.26,-24.00 13.58,-23.45 13.90,-22.91 14.08,-22.31 14.26,-21.70 14.29,-21.07 14.32,-20.44 14.35,-19.70 14.39,-18.97 14.07,-16.30 13.76,-13.63 12.78,-10.15 11.80,-6.66 10.36,-2.41 8.92,1.82 6.87,5.38 4.81,8.93 1.18,11.53 -2.43,14.13 -2.62,14.51 -2.80,14.88 -3.08,15.20 -3.35,15.51 -3.69,15.76 -4.03,16.00 -4.42,16.16 -4.81,16.31 -5.22,16.37 -5.64,16.42 -6.06,16.38 -6.47,16.34 -6.87,16.19 -7.26,16.05 -7.61,15.82 -7.96,15.59 -8.24,15.28 -8.52,14.97 -8.72,14.60 -8.92,14.24 -9.03,13.83 -9.13,13.43 -9.14,13.01 -9.15,12.59 -9.05,12.18 -8.96,11.77 -9.76,10.63 -10.56,9.49 -9.42,5.85 -8.28,2.21 -5.63,-0.38 -2.98,-2.98 -2.58,-3.29 -2.18,-3.61 -1.71,-3.81 -1.25,-4.02 -0.75,-4.11 -0.25,-4.21 0.25,-4.18 0.76,-4.14 1.24,-3.99 1.73,-3.84 2.16,-3.58 2.60,-3.32 2.96,-2.96 3.32,-2.60 3.58,-2.16 3.84,-1.73 3.99,-1.24 4.15,-0.76 4.18,-0.25 4.21,0.25 4.11,0.75 4.02,1.25 3.81,1.71 3.61,2.18 3.29,2.58 2.98,2.98 2.98,2.98 L 2.98,2.98 Z"></path></g><g transform="translate(200.71179762240644 104.26718653606233) rotate(0 6.517139884893112 1.3720063102427105)" stroke="none"><path fill="#1e1e1e" d="M -1.98,-3.67 Q -1.98,-3.67 0.40,-5.29 2.79,-6.91 5.02,-4.28 7.26,-1.66 5.74,0.52 4.22,2.72 8.58,4.46 12.94,6.20 13.36,6.29 13.77,6.38 14.14,6.60 14.50,6.82 14.78,7.15 15.05,7.47 15.21,7.87 15.36,8.26 15.39,8.69 15.41,9.11 15.29,9.52 15.18,9.93 14.94,10.28 14.70,10.63 14.36,10.89 14.02,11.15 13.62,11.28 13.22,11.42 12.79,11.42 12.37,11.41 11.96,11.28 11.56,11.14 11.22,10.88 10.89,10.63 10.65,10.27 10.41,9.92 10.30,9.51 10.19,9.10 10.21,8.68 10.23,8.25 10.39,7.86 10.55,7.46 10.83,7.14 11.10,6.82 11.47,6.60 11.83,6.38 12.25,6.29 12.66,6.20 13.08,6.25 13.51,6.29 13.89,6.47 14.28,6.65 14.58,6.95 14.89,7.24 15.09,7.61 15.29,7.99 15.36,8.41 15.42,8.83 15.35,9.25 15.28,9.67 15.08,10.04 14.89,10.42 14.58,10.71 14.27,11.00 13.88,11.18 13.49,11.36 13.07,11.40 12.65,11.45 12.65,11.45 12.65,11.45 8.44,11.84 4.23,12.24 0.94,10.86 -2.35,9.48 -3.86,6.78 -5.38,4.08 -5.22,1.67 -5.06,-0.74 -3.94,-3.19 -2.81,-5.65 -1.02,-7.31 0.76,-8.97 2.84,-9.60 4.92,-10.23 7.88,-8.10 10.84,-5.97 9.15,-2.29 7.46,1.38 4.72,2.53 1.98,3.67 1.51,3.86 1.04,4.04 0.54,4.11 0.04,4.17 -0.45,4.12 -0.95,4.06 -1.42,3.89 -1.90,3.72 -2.31,3.43 -2.73,3.15 -3.07,2.78 -3.41,2.40 -3.65,1.96 -3.89,1.52 -4.01,1.03 -4.14,0.54 -4.14,0.04 -4.15,-0.45 -4.03,-0.95 -3.92,-1.44 -3.69,-1.88 -3.46,-2.33 -3.13,-2.71 -2.80,-3.09 -2.39,-3.38 -1.98,-3.67 -1.98,-3.67 L -1.98,-3.67 Z"></path></g><g transform="translate(138.28453700680654 135.13779956469583) rotate(0 6.517171288104635 7.54614461757518)" stroke="none"><path fill="#1e1e1e" d="M 1.69,2.25 Q 1.69,2.25 1.48,2.94 1.26,3.63 1.37,7.45 1.48,11.27 1.73,13.88 1.98,16.49 3.88,13.77 5.78,11.05 7.08,7.60 8.37,4.15 9.28,0.93 10.19,-2.28 10.74,-4.59 11.29,-6.89 11.03,-8.00 10.77,-9.10 10.95,-9.54 11.12,-9.99 11.40,-10.37 11.68,-10.76 12.04,-11.07 12.40,-11.38 12.83,-11.59 13.25,-11.80 13.72,-11.91 14.18,-12.01 14.65,-12.00 15.13,-11.99 15.59,-11.87 16.05,-11.75 16.47,-11.52 16.88,-11.29 17.23,-10.97 17.58,-10.65 17.85,-10.25 18.11,-9.86 18.27,-9.41 18.43,-8.96 18.48,-8.49 18.53,-8.02 18.46,-7.54 18.39,-7.07 17.76,-3.00 17.13,1.07 16.58,5.36 16.03,9.65 15.85,13.90 15.66,18.16 15.63,20.02 15.60,21.89 15.54,22.31 15.48,22.73 15.29,23.11 15.10,23.49 14.79,23.78 14.49,24.08 14.11,24.27 13.73,24.46 13.31,24.51 12.88,24.56 12.47,24.48 12.05,24.40 11.68,24.19 11.31,23.98 11.03,23.66 10.75,23.34 10.58,22.95 10.42,22.56 10.39,22.13 10.36,21.71 10.46,21.30 10.57,20.89 10.80,20.53 11.03,20.17 11.36,19.91 11.70,19.64 12.09,19.50 12.49,19.36 12.92,19.35 13.34,19.34 13.75,19.47 14.16,19.59 14.50,19.84 14.84,20.09 15.09,20.44 15.33,20.79 15.46,21.20 15.58,21.60 15.56,22.03 15.55,22.45 15.40,22.85 15.25,23.25 14.98,23.58 14.71,23.91 14.35,24.13 13.99,24.36 13.58,24.46 13.17,24.56 12.74,24.52 12.32,24.48 11.93,24.31 11.54,24.14 11.23,23.86 10.91,23.57 10.71,23.20 10.50,22.83 10.42,22.41 10.35,21.99 10.35,21.99 10.35,21.99 10.24,20.13 10.13,18.27 9.76,13.77 9.40,9.26 9.35,5.00 9.31,0.74 10.04,-4.17 10.77,-9.10 10.95,-9.54 11.12,-9.99 11.40,-10.37 11.68,-10.76 12.04,-11.07 12.40,-11.38 12.83,-11.59 13.25,-11.80 13.72,-11.91 14.18,-12.01 14.65,-12.00 15.13,-11.99 15.59,-11.87 16.05,-11.75 16.47,-11.52 16.88,-11.29 17.23,-10.97 17.58,-10.65 17.85,-10.25 18.11,-9.86 18.27,-9.41 18.43,-8.96 18.48,-8.49 18.53,-8.02 18.46,-7.54 18.39,-7.07 18.38,-6.14 18.37,-5.20 17.64,-2.69 16.90,-0.19 15.73,3.26 14.55,6.71 12.80,10.61 11.05,14.51 9.05,17.44 7.05,20.37 4.59,22.02 2.14,23.66 -0.96,22.66 -4.07,21.67 -4.89,19.52 -5.71,17.37 -6.13,14.12 -6.54,10.86 -6.38,7.95 -6.21,5.03 -5.32,1.88 -4.42,-1.26 -3.05,-1.76 -1.69,-2.25 -1.39,-2.42 -1.10,-2.59 -0.77,-2.68 -0.44,-2.78 -0.11,-2.79 0.22,-2.80 0.56,-2.74 0.89,-2.67 1.20,-2.52 1.50,-2.38 1.77,-2.16 2.03,-1.95 2.23,-1.67 2.44,-1.40 2.57,-1.09 2.70,-0.78 2.76,-0.44 2.81,-0.11 2.78,0.22 2.76,0.56 2.65,0.88 2.54,1.21 2.36,1.49 2.18,1.78 1.93,2.02 1.69,2.25 1.69,2.25 L 1.69,2.25 Z"></path></g><g transform="translate(169.84118459377294 143.36996303899812) rotate(0 -3.0870613028633898 10.976207497999184)" stroke="none"><path fill="#1e1e1e" d="M 2.37,1.95 Q 2.37,1.95 -1.37,6.49 -5.11,11.03 -7.12,14.12 -9.12,17.20 -9.98,19.17 -10.84,21.14 -11.12,21.45 -11.40,21.77 -11.76,22.01 -12.11,22.24 -12.50,22.39 -12.90,22.54 -13.32,22.59 -13.74,22.63 -14.16,22.58 -14.58,22.52 -14.98,22.37 -15.37,22.22 -15.72,21.97 -16.07,21.73 -16.35,21.41 -16.62,21.09 -16.82,20.72 -17.01,20.34 -17.11,19.93 -17.21,19.51 -17.21,19.09 -17.20,18.67 -17.10,18.26 -16.99,17.84 -16.79,17.47 -16.59,17.10 -15.08,15.59 -13.57,14.08 -11.50,11.87 -9.42,9.67 -7.39,7.59 -5.36,5.50 -3.65,3.94 -1.94,2.37 -0.62,1.31 0.70,0.25 1.10,0.02 1.51,-0.20 1.96,-0.33 2.41,-0.46 2.87,-0.48 3.34,-0.50 3.80,-0.41 4.26,-0.31 4.68,-0.11 5.11,0.08 5.47,0.37 5.83,0.67 6.11,1.04 6.39,1.42 6.58,1.85 6.76,2.28 6.83,2.74 6.91,3.20 6.87,3.67 6.83,4.13 6.69,4.58 6.54,5.02 6.29,5.42 6.04,5.81 5.70,6.14 5.36,6.46 5.09,8.87 4.82,11.29 4.11,13.52 3.40,15.76 3.32,17.27 3.24,18.78 3.09,19.21 2.94,19.63 2.70,20.01 2.45,20.39 2.12,20.69 1.79,21.00 1.40,21.22 1.00,21.43 0.57,21.55 0.13,21.67 -0.31,21.68 -0.76,21.69 -1.20,21.59 -1.64,21.49 -2.04,21.29 -2.44,21.09 -2.79,20.80 -3.13,20.51 -3.40,20.15 -3.66,19.78 -3.83,19.37 -4.00,18.95 -4.06,18.50 -4.13,18.06 -4.08,17.61 -4.04,17.16 -2.50,14.58 -0.95,11.99 0.23,9.91 1.43,7.82 5.73,6.07 10.04,4.31 10.97,7.57 11.89,10.82 10.72,14.62 9.55,18.42 9.45,18.83 9.35,19.25 9.12,19.61 8.89,19.96 8.56,20.23 8.23,20.49 7.83,20.64 7.43,20.79 7.01,20.80 6.58,20.81 6.17,20.68 5.77,20.56 5.42,20.31 5.08,20.06 4.83,19.72 4.58,19.37 4.46,18.97 4.33,18.56 4.35,18.13 4.36,17.71 4.50,17.31 4.65,16.91 4.92,16.58 5.18,16.25 5.54,16.02 5.90,15.79 6.31,15.69 6.73,15.59 7.15,15.62 7.57,15.66 7.96,15.83 8.35,16.00 8.67,16.28 8.99,16.56 9.19,16.93 9.40,17.30 9.48,17.72 9.56,18.14 9.51,18.56 9.45,18.98 9.26,19.36 9.07,19.74 8.77,20.04 8.47,20.34 8.09,20.53 7.71,20.72 7.28,20.78 6.86,20.83 6.45,20.75 6.03,20.67 5.66,20.46 5.29,20.25 5.01,19.94 4.72,19.62 4.55,19.23 4.39,18.84 4.35,18.41 4.32,17.99 4.32,17.99 4.32,17.99 4.13,13.53 3.95,9.06 6.47,9.57 9.00,10.08 7.38,12.45 5.76,14.83 4.50,16.81 3.24,18.78 3.09,19.21 2.94,19.63 2.70,20.01 2.45,20.39 2.12,20.69 1.79,21.00 1.40,21.22 1.00,21.43 0.57,21.55 0.13,21.67 -0.31,21.68 -0.76,21.69 -1.20,21.59 -1.64,21.49 -2.04,21.29 -2.44,21.09 -2.79,20.80 -3.13,20.51 -3.39,20.15 -3.66,19.78 -3.83,19.37 -4.00,18.95 -4.06,18.50 -4.13,18.06 -4.08,17.61 -4.04,17.16 -4.06,15.28 -4.09,13.39 -3.40,11.22 -2.72,9.05 -2.01,6.68 -1.30,4.31 -0.30,2.28 0.70,0.25 1.10,0.02 1.51,-0.20 1.96,-0.33 2.41,-0.46 2.87,-0.48 3.34,-0.50 3.80,-0.41 4.26,-0.31 4.68,-0.11 5.10,0.08 5.47,0.37 5.83,0.67 6.11,1.04 6.39,1.42 6.58,1.85 6.76,2.28 6.83,2.74 6.91,3.20 6.87,3.67 6.83,4.13 6.69,4.58 6.54,5.02 6.29,5.42 6.04,5.81 5.70,6.14 5.36,6.46 4.57,6.39 3.77,6.31 1.60,8.25 -0.56,10.18 -2.54,12.22 -4.52,14.26 -7.68,17.70 -10.84,21.14 -11.12,21.45 -11.40,21.77 -11.75,22.01 -12.11,22.24 -12.50,22.39 -12.90,22.54 -13.32,22.59 -13.74,22.63 -14.16,22.58 -14.58,22.53 -14.98,22.37 -15.37,22.22 -15.72,21.97 -16.07,21.73 -16.35,21.41 -16.62,21.09 -16.82,20.72 -17.01,20.34 -17.11,19.93 -17.21,19.51 -17.21,19.09 -17.20,18.67 -17.10,18.26 -16.99,17.85 -16.79,17.47 -16.59,17.10 -15.59,15.24 -14.59,13.38 -12.23,10.24 -9.87,7.10 -6.12,2.57 -2.37,-1.95 -2.10,-2.21 -1.83,-2.46 -1.51,-2.65 -1.18,-2.83 -0.83,-2.93 -0.47,-3.03 -0.10,-3.05 0.26,-3.06 0.62,-2.98 0.99,-2.91 1.32,-2.75 1.65,-2.59 1.94,-2.35 2.23,-2.11 2.45,-1.82 2.67,-1.52 2.81,-1.18 2.95,-0.83 3.01,-0.47 3.07,-0.10 3.04,0.26 3.01,0.63 2.89,0.98 2.77,1.33 2.57,1.64 2.37,1.95 2.37,1.95 L 2.37,1.95 Z"></path></g><g transform="translate(195.90968132692245 146.11400706269504) rotate(0 -3.087029899651867 9.261183908590056)" stroke="none"><path fill="#1e1e1e" d="M 1.74,2.32 Q 1.74,2.32 1.52,3.39 1.31,4.47 3.84,6.01 6.37,7.55 6.57,11.38 6.78,15.20 4.13,17.93 1.48,20.66 -0.53,21.57 -2.56,22.49 -6.75,21.68 -10.95,20.86 -11.20,20.52 -11.46,20.18 -11.59,19.78 -11.72,19.38 -11.72,18.95 -11.72,18.53 -11.58,18.12 -11.44,17.72 -11.18,17.39 -10.92,17.05 -10.57,16.81 -10.22,16.58 -9.81,16.47 -9.40,16.35 -8.97,16.38 -8.55,16.41 -8.15,16.57 -7.76,16.73 -7.44,17.00 -7.12,17.28 -6.90,17.65 -6.68,18.01 -6.60,18.43 -6.51,18.84 -6.56,19.27 -6.60,19.69 -6.78,20.07 -6.97,20.46 -7.26,20.76 -7.55,21.07 -7.93,21.27 -8.31,21.46 -8.73,21.53 -9.15,21.59 -9.57,21.52 -9.99,21.45 -10.36,21.25 -10.73,21.05 -11.02,20.74 -11.31,20.43 -11.49,20.04 -11.67,19.65 -11.71,19.23 -11.75,18.81 -11.66,18.39 -11.56,17.98 -11.34,17.62 -11.12,17.25 -10.79,16.98 -10.47,16.71 -10.07,16.55 -9.68,16.40 -9.25,16.38 -8.83,16.36 -8.42,16.47 -8.01,16.59 -7.66,16.83 -7.31,17.07 -7.31,17.07 -7.31,17.07 -6.79,15.45 -6.27,13.83 -3.78,12.79 -1.28,11.75 -2.87,10.03 -4.46,8.31 -5.40,5.13 -6.33,1.96 -5.40,-0.07 -4.47,-2.10 -3.10,-2.21 -1.74,-2.32 -1.44,-2.50 -1.13,-2.67 -0.80,-2.77 -0.46,-2.87 -0.11,-2.88 0.23,-2.89 0.58,-2.82 0.92,-2.75 1.23,-2.60 1.55,-2.45 1.82,-2.23 2.09,-2.01 2.30,-1.73 2.51,-1.45 2.65,-1.12 2.79,-0.80 2.84,-0.46 2.90,-0.11 2.87,0.23 2.84,0.58 2.73,0.91 2.62,1.24 2.43,1.54 2.25,1.84 1.99,2.08 1.74,2.32 1.74,2.32 L 1.74,2.32 Z"></path></g><g transform="translate(213.06004283385982 153.66016738187594) rotate(0 8.918166629423638 1.3720063102427105)" stroke="none"><path fill="#1e1e1e" d="M -2.92,-2.92 Q -2.92,-2.92 -1.23,-5.17 0.45,-7.43 0.92,-7.79 1.39,-8.16 1.93,-8.40 2.47,-8.65 3.06,-8.75 3.64,-8.86 4.24,-8.83 4.83,-8.79 5.40,-8.61 5.96,-8.44 6.47,-8.13 6.98,-7.82 7.40,-7.40 7.82,-6.98 8.13,-6.47 8.44,-5.96 8.61,-5.40 8.79,-4.83 8.83,-4.23 8.86,-3.64 8.75,-3.06 8.65,-2.47 8.40,-1.93 8.16,-1.39 7.79,-0.92 7.43,-0.45 5.00,0.23 2.58,0.93 3.77,2.98 4.96,5.03 10.40,4.26 15.83,3.49 16.26,3.44 16.68,3.40 17.09,3.49 17.51,3.59 17.87,3.81 18.23,4.03 18.51,4.36 18.78,4.68 18.93,5.08 19.09,5.48 19.11,5.90 19.13,6.33 19.01,6.73 18.89,7.14 18.65,7.49 18.41,7.84 18.07,8.10 17.73,8.35 17.33,8.48 16.92,8.62 16.50,8.61 16.07,8.61 15.67,8.47 15.27,8.33 14.93,8.07 14.60,7.81 14.36,7.46 14.13,7.11 14.02,6.70 13.91,6.29 13.93,5.86 13.96,5.44 14.12,5.04 14.28,4.65 14.56,4.33 14.83,4.01 15.20,3.79 15.56,3.57 15.98,3.49 16.40,3.40 16.82,3.45 17.24,3.50 17.62,3.68 18.01,3.86 18.32,4.15 18.62,4.45 18.82,4.83 19.01,5.20 19.08,5.62 19.15,6.04 19.07,6.46 19.00,6.88 18.80,7.25 18.60,7.63 18.29,7.92 17.98,8.21 17.59,8.38 17.20,8.56 17.20,8.56 17.20,8.56 12.46,10.30 7.71,12.04 4.46,12.06 1.22,12.08 -0.95,10.96 -3.14,9.84 -4.08,7.54 -5.02,5.25 -4.99,2.51 -4.97,-0.23 -4.12,-2.78 -3.27,-5.33 -1.40,-6.38 0.45,-7.43 0.92,-7.79 1.39,-8.16 1.93,-8.40 2.47,-8.65 3.06,-8.75 3.64,-8.86 4.23,-8.83 4.83,-8.79 5.40,-8.61 5.96,-8.44 6.47,-8.13 6.98,-7.82 7.40,-7.40 7.82,-6.98 8.13,-6.47 8.44,-5.96 8.61,-5.40 8.79,-4.83 8.83,-4.24 8.86,-3.64 8.75,-3.06 8.65,-2.47 8.40,-1.93 8.16,-1.39 7.79,-0.92 7.43,-0.45 5.17,1.23 2.92,2.92 2.53,3.23 2.14,3.54 1.68,3.74 1.23,3.95 0.74,4.03 0.24,4.12 -0.24,4.09 -0.74,4.06 -1.22,3.92 -1.69,3.77 -2.12,3.51 -2.55,3.25 -2.90,2.90 -3.25,2.55 -3.51,2.12 -3.77,1.69 -3.92,1.22 -4.06,0.74 -4.09,0.24 -4.12,-0.25 -4.03,-0.74 -3.94,-1.23 -3.74,-1.68 -3.54,-2.14 -3.23,-2.53 -2.92,-2.92 -2.92,-2.92 L -2.92,-2.92 Z"></path></g><g transform="translate(239.81457412534223 131.70772098266607) rotate(0 -1.3720377134542048 16.121325371043866)" stroke="none"><path fill="#1e1e1e" d="M 4.16,0.54 Q 4.16,0.54 3.93,5.12 3.69,9.70 3.23,12.50 2.77,15.30 2.61,18.94 2.44,22.57 2.12,24.98 1.80,27.39 0.85,29.39 -0.09,31.40 -0.17,31.82 -0.25,32.23 -0.46,32.60 -0.67,32.97 -0.98,33.26 -1.30,33.54 -1.69,33.71 -2.08,33.88 -2.50,33.92 -2.92,33.95 -3.34,33.85 -3.75,33.75 -4.11,33.52 -4.47,33.30 -4.73,32.96 -5.00,32.63 -5.15,32.24 -5.30,31.84 -5.31,31.41 -5.32,30.99 -5.20,30.58 -5.07,30.17 -4.83,29.83 -4.58,29.48 -4.24,29.23 -3.89,28.99 -3.49,28.86 -3.08,28.73 -2.65,28.74 -2.23,28.75 -1.83,28.90 -1.43,29.04 -1.10,29.31 -0.77,29.58 -0.54,29.93 -0.31,30.29 -0.20,30.70 -0.10,31.11 -0.13,31.54 -0.17,31.96 -0.33,32.35 -0.50,32.74 -0.78,33.06 -1.07,33.38 -1.44,33.59 -1.80,33.80 -2.22,33.88 -2.64,33.96 -3.06,33.90 -3.48,33.85 -3.86,33.66 -4.24,33.47 -4.55,33.17 -4.85,32.87 -5.04,32.49 -5.23,32.11 -5.28,31.69 -5.34,31.27 -5.34,31.27 -5.34,31.27 -6.19,29.18 -7.04,27.09 -7.21,24.59 -7.37,22.09 -7.15,17.90 -6.93,13.70 -6.50,11.07 -6.06,8.43 -5.11,3.94 -4.16,-0.54 -4.03,-1.03 -3.91,-1.52 -3.67,-1.96 -3.43,-2.41 -3.09,-2.79 -2.75,-3.16 -2.33,-3.45 -1.91,-3.73 -1.44,-3.91 -0.96,-4.08 -0.46,-4.14 0.03,-4.19 0.53,-4.13 1.04,-4.06 1.51,-3.88 1.98,-3.70 2.39,-3.40 2.81,-3.11 3.14,-2.73 3.47,-2.35 3.70,-1.90 3.93,-1.45 4.05,-0.96 4.17,-0.46 4.16,0.03 4.16,0.54 4.16,0.54 L 4.16,0.54 Z"></path></g><g transform="translate(231.58241065103994 151.60212651330036) rotate(0 13.720282924907622 -2.058040868575546)" stroke="none"><path fill="#1e1e1e" d="M -0.82,-2.88 Q -0.82,-2.88 1.72,-4.43 4.26,-5.98 8.30,-6.60 12.34,-7.22 15.96,-7.60 19.58,-7.97 22.73,-7.29 25.89,-6.62 26.31,-6.58 26.74,-6.55 27.13,-6.38 27.52,-6.22 27.84,-5.93 28.15,-5.65 28.36,-5.28 28.57,-4.91 28.66,-4.50 28.74,-4.08 28.68,-3.66 28.63,-3.24 28.44,-2.86 28.25,-2.47 27.95,-2.17 27.65,-1.87 27.27,-1.68 26.89,-1.49 26.47,-1.43 26.05,-1.37 25.63,-1.45 25.22,-1.53 24.85,-1.74 24.48,-1.94 24.19,-2.26 23.91,-2.57 23.74,-2.96 23.57,-3.35 23.53,-3.78 23.49,-4.20 23.60,-4.61 23.70,-5.03 23.92,-5.39 24.15,-5.74 24.48,-6.01 24.81,-6.28 25.21,-6.43 25.61,-6.58 26.03,-6.59 26.46,-6.60 26.86,-6.48 27.27,-6.36 27.62,-6.11 27.96,-5.86 28.21,-5.52 28.46,-5.17 28.59,-4.77 28.71,-4.36 28.70,-3.94 28.69,-3.51 28.55,-3.11 28.40,-2.71 28.14,-2.38 27.87,-2.05 27.52,-1.82 27.16,-1.59 26.75,-1.48 26.34,-1.38 26.34,-1.38 26.34,-1.38 23.49,-0.19 20.65,0.99 17.15,1.46 13.64,1.93 10.21,2.38 6.77,2.82 3.80,2.85 0.82,2.88 0.46,2.94 0.10,3.00 -0.25,2.97 -0.61,2.94 -0.95,2.82 -1.29,2.70 -1.60,2.51 -1.90,2.31 -2.15,2.05 -2.40,1.79 -2.58,1.48 -2.76,1.16 -2.86,0.81 -2.96,0.47 -2.97,0.10 -2.99,-0.25 -2.91,-0.60 -2.84,-0.96 -2.68,-1.28 -2.53,-1.61 -2.30,-1.89 -2.07,-2.17 -1.78,-2.38 -1.49,-2.60 -1.15,-2.74 -0.82,-2.88 -0.82,-2.88 L -0.82,-2.88 Z"></path></g><g transform="translate(256.9649356322796 147.48604477614927) rotate(0 18.865353693135035 5.488088047393802)" stroke="none"><path fill="#1e1e1e" d="M -0.85,-3.75 Q -0.85,-3.75 3.39,-5.16 7.63,-6.56 12.76,-7.55 17.88,-8.53 20.48,-8.45 23.08,-8.37 23.77,-8.15 24.45,-7.94 25.03,-7.86 25.61,-7.77 26.16,-7.55 26.70,-7.33 27.18,-6.98 27.65,-6.64 28.03,-6.19 28.41,-5.74 28.67,-5.21 28.93,-4.69 29.06,-4.11 29.19,-3.54 29.18,-2.95 29.16,-2.36 29.01,-1.79 28.86,-1.23 28.57,-0.71 28.28,-0.20 27.88,0.22 27.48,0.65 26.99,0.98 26.50,1.30 25.95,1.50 25.39,1.69 24.81,1.75 24.22,1.81 23.45,4.48 22.68,7.15 19.78,10.54 16.88,13.92 19.83,12.17 22.79,10.41 25.71,10.33 28.63,10.26 32.67,11.05 36.70,11.84 37.13,11.88 37.55,11.92 37.94,12.09 38.33,12.26 38.64,12.55 38.96,12.83 39.16,13.21 39.37,13.58 39.44,14.00 39.52,14.41 39.46,14.83 39.40,15.25 39.21,15.63 39.01,16.01 38.71,16.31 38.41,16.61 38.03,16.79 37.64,16.98 37.22,17.03 36.80,17.09 36.38,17.00 35.97,16.92 35.60,16.71 35.23,16.49 34.95,16.18 34.67,15.86 34.50,15.46 34.34,15.07 34.31,14.65 34.28,14.23 34.38,13.81 34.49,13.40 34.72,13.05 34.96,12.69 35.29,12.43 35.62,12.16 36.02,12.02 36.42,11.88 36.85,11.87 37.27,11.86 37.68,11.99 38.08,12.12 38.43,12.37 38.77,12.62 39.01,12.97 39.26,13.32 39.38,13.72 39.50,14.13 39.48,14.56 39.47,14.98 39.32,15.38 39.17,15.77 38.90,16.10 38.63,16.43 38.27,16.66 37.91,16.88 37.50,16.98 37.08,17.08 37.08,17.08 37.08,17.08 35.35,18.33 33.62,19.58 31.25,19.85 28.87,20.12 26.15,20.18 23.43,20.24 18.86,20.29 14.29,20.34 10.82,18.52 7.35,16.69 8.47,11.95 9.59,7.22 12.32,4.09 15.06,0.95 16.95,-1.29 18.84,-3.53 21.64,-5.74 24.45,-7.94 25.03,-7.86 25.61,-7.77 26.15,-7.55 26.70,-7.33 27.18,-6.98 27.65,-6.64 28.03,-6.19 28.41,-5.74 28.67,-5.21 28.93,-4.69 29.06,-4.11 29.19,-3.54 29.18,-2.95 29.16,-2.36 29.01,-1.79 28.86,-1.23 28.57,-0.71 28.29,-0.20 27.89,0.22 27.49,0.65 26.99,0.98 26.50,1.30 25.95,1.50 25.39,1.69 24.81,1.75 24.22,1.81 21.84,1.57 19.46,1.33 14.59,1.97 9.72,2.62 5.28,3.19 0.85,3.75 0.39,3.80 -0.07,3.85 -0.53,3.78 -0.99,3.72 -1.42,3.55 -1.85,3.37 -2.23,3.10 -2.60,2.83 -2.90,2.48 -3.21,2.13 -3.41,1.71 -3.62,1.30 -3.73,0.84 -3.83,0.39 -3.82,-0.06 -3.81,-0.53 -3.69,-0.98 -3.57,-1.43 -3.35,-1.83 -3.13,-2.24 -2.81,-2.58 -2.50,-2.93 -2.11,-3.18 -1.72,-3.44 -1.29,-3.60 -0.85,-3.75 -0.85,-3.75 L -0.85,-3.75 Z"></path></g><g transform="translate(268.62714628540016 154.34617053699728) rotate(0 14.406286080028991 -1.7150235894091281)" stroke="none"><path fill="#1e1e1e" d="M 0.44,-3.13 Q 0.44,-3.13 3.27,-3.40 6.10,-3.67 10.97,-4.59 15.84,-5.51 19.09,-6.26 22.34,-7.01 24.06,-6.80 25.79,-6.58 26.21,-6.65 26.63,-6.71 27.05,-6.64 27.46,-6.56 27.84,-6.36 28.21,-6.15 28.50,-5.84 28.79,-5.53 28.96,-5.14 29.13,-4.75 29.17,-4.33 29.21,-3.91 29.12,-3.49 29.02,-3.08 28.80,-2.72 28.57,-2.36 28.24,-2.09 27.92,-1.81 27.52,-1.66 27.12,-1.51 26.70,-1.49 26.27,-1.48 25.87,-1.59 25.46,-1.71 25.11,-1.96 24.76,-2.20 24.51,-2.54 24.26,-2.88 24.13,-3.29 23.99,-3.69 24.00,-4.12 24.01,-4.54 24.15,-4.94 24.29,-5.34 24.55,-5.68 24.81,-6.01 25.17,-6.25 25.52,-6.48 25.93,-6.59 26.34,-6.70 26.77,-6.67 27.19,-6.64 27.58,-6.48 27.98,-6.32 28.30,-6.04 28.62,-5.76 28.83,-5.39 29.05,-5.02 29.13,-4.61 29.22,-4.19 29.17,-3.77 29.11,-3.35 28.93,-2.96 28.75,-2.58 28.45,-2.28 28.15,-1.97 27.78,-1.78 27.40,-1.58 27.40,-1.58 27.40,-1.58 26.12,-0.40 24.85,0.77 21.05,2.29 17.25,3.82 11.09,4.54 4.93,5.25 2.24,4.19 -0.44,3.13 -0.81,3.03 -1.18,2.93 -1.51,2.74 -1.85,2.56 -2.13,2.30 -2.41,2.04 -2.62,1.72 -2.83,1.41 -2.95,1.05 -3.08,0.69 -3.12,0.31 -3.16,-0.06 -3.10,-0.44 -3.05,-0.82 -2.91,-1.17 -2.76,-1.52 -2.54,-1.83 -2.32,-2.14 -2.03,-2.39 -1.74,-2.64 -1.40,-2.81 -1.05,-2.98 -0.68,-3.06 -0.31,-3.14 0.06,-3.13 0.44,-3.13 0.44,-3.13 L 0.44,-3.13 Z"></path></g><g transform="translate(303.6138410511848 150.2300887998462) rotate(0 12.691262490619863 -0.6860031551213694)" stroke="none"><path fill="#1e1e1e" d="M -1.41,-3.11 Q -1.41,-3.11 2.64,-5.70 6.70,-8.28 8.83,-9.56 10.97,-10.83 11.21,-11.76 11.45,-12.68 11.85,-13.13 12.25,-13.58 12.75,-13.91 13.25,-14.25 13.81,-14.46 14.37,-14.67 14.97,-14.74 15.57,-14.81 16.16,-14.73 16.76,-14.66 17.32,-14.44 17.88,-14.23 18.37,-13.88 18.87,-13.54 19.26,-13.09 19.66,-12.63 19.94,-12.10 20.21,-11.57 20.35,-10.98 20.49,-10.40 20.49,-9.79 20.49,-9.19 20.34,-8.61 20.19,-8.03 19.91,-7.50 19.63,-6.97 17.68,-4.83 15.74,-2.69 14.31,0.65 12.88,4.01 15.23,3.62 17.58,3.24 20.45,2.64 23.31,2.05 23.73,1.98 24.15,1.90 24.57,1.97 24.99,2.03 25.37,2.23 25.74,2.42 26.04,2.73 26.33,3.03 26.52,3.42 26.70,3.80 26.75,4.22 26.80,4.65 26.71,5.06 26.62,5.48 26.41,5.84 26.19,6.21 25.87,6.49 25.55,6.77 25.16,6.93 24.76,7.09 24.34,7.12 23.92,7.14 23.51,7.03 23.09,6.92 22.74,6.69 22.39,6.45 22.13,6.12 21.87,5.78 21.73,5.38 21.59,4.98 21.58,4.56 21.58,4.13 21.71,3.73 21.84,3.32 22.10,2.98 22.35,2.64 22.70,2.40 23.05,2.16 23.46,2.04 23.86,1.92 24.29,1.94 24.71,1.96 25.11,2.11 25.51,2.27 25.83,2.54 26.16,2.81 26.38,3.17 26.60,3.53 26.70,3.95 26.80,4.36 26.75,4.79 26.71,5.21 26.54,5.60 26.36,5.98 26.07,6.29 25.78,6.61 25.41,6.81 25.04,7.01 25.04,7.01 25.04,7.01 22.44,8.32 19.85,9.62 16.07,11.28 12.29,12.93 9.44,12.65 6.59,12.36 4.65,9.24 2.71,6.11 3.02,3.29 3.33,0.47 4.32,-2.06 5.32,-4.60 6.69,-6.94 8.07,-9.27 9.76,-10.98 11.45,-12.68 11.85,-13.13 12.25,-13.57 12.75,-13.91 13.25,-14.25 13.81,-14.46 14.37,-14.67 14.97,-14.74 15.57,-14.81 16.16,-14.74 16.76,-14.66 17.32,-14.44 17.88,-14.23 18.37,-13.88 18.87,-13.54 19.26,-13.09 19.66,-12.63 19.94,-12.10 20.21,-11.57 20.35,-10.98 20.49,-10.40 20.49,-9.80 20.49,-9.19 20.34,-8.61 20.19,-8.03 19.91,-7.50 19.63,-6.97 19.46,-6.67 19.29,-6.37 17.71,-4.57 16.12,-2.77 13.39,-1.18 10.65,0.39 6.03,1.75 1.41,3.11 1.02,3.24 0.62,3.36 0.21,3.39 -0.19,3.41 -0.60,3.34 -1.00,3.27 -1.38,3.10 -1.76,2.93 -2.08,2.68 -2.41,2.42 -2.66,2.10 -2.92,1.78 -3.09,1.40 -3.26,1.03 -3.34,0.62 -3.41,0.21 -3.39,-0.19 -3.36,-0.60 -3.24,-0.99 -3.12,-1.39 -2.91,-1.74 -2.70,-2.10 -2.41,-2.39 -2.12,-2.68 -1.76,-2.90 -1.41,-3.11 -1.41,-3.11 L -1.41,-3.11 Z"></path></g><g transform="translate(341.34461124387786 144.05596619411946) rotate(0 1.3720063102427957 7.889161896741598)" stroke="none"><path fill="#1e1e1e" d="M 3.75,3.07 Q 3.75,3.07 0.31,7.50 -3.11,11.93 -4.76,14.09 -6.41,16.26 -7.77,14.11 -9.13,11.96 -11.75,12.36 -14.37,12.77 -12.73,10.36 -11.08,7.96 -8.92,5.62 -6.76,3.28 -3.90,1.20 -1.03,-0.87 2.67,-2.43 6.37,-3.99 9.96,-4.02 13.54,-4.05 13.96,-4.12 14.38,-4.20 14.80,-4.14 15.22,-4.08 15.60,-3.88 15.98,-3.69 16.27,-3.38 16.57,-3.08 16.75,-2.70 16.94,-2.31 16.99,-1.89 17.04,-1.47 16.96,-1.06 16.87,-0.64 16.66,-0.27 16.45,0.09 16.13,0.37 15.81,0.65 15.42,0.81 15.02,0.97 14.60,1.00 14.18,1.03 13.76,0.92 13.35,0.82 13.00,0.58 12.64,0.35 12.38,0.02 12.12,-0.31 11.98,-0.71 11.83,-1.11 11.83,-1.53 11.82,-1.96 11.95,-2.36 12.08,-2.77 12.33,-3.11 12.58,-3.45 12.93,-3.70 13.28,-3.94 13.69,-4.06 14.10,-4.18 14.52,-4.16 14.95,-4.15 15.34,-4.00 15.74,-3.84 16.07,-3.57 16.40,-3.30 16.62,-2.94 16.84,-2.58 16.94,-2.17 17.04,-1.76 17.00,-1.33 16.96,-0.91 16.79,-0.52 16.62,-0.13 16.33,0.17 16.04,0.48 15.67,0.69 15.30,0.89 15.30,0.89 15.30,0.89 12.74,3.04 10.18,5.19 7.46,6.29 4.74,7.39 2.69,8.79 0.63,10.19 -1.34,12.34 -3.32,14.48 -5.87,17.05 -8.41,19.63 -11.59,19.68 -14.78,19.73 -14.69,14.88 -14.60,10.04 -12.84,7.73 -11.08,5.42 -7.41,1.17 -3.75,-3.07 -3.33,-3.47 -2.91,-3.88 -2.40,-4.17 -1.89,-4.46 -1.33,-4.62 -0.77,-4.79 -0.18,-4.81 0.39,-4.83 0.96,-4.71 1.54,-4.60 2.07,-4.35 2.59,-4.09 3.05,-3.72 3.50,-3.35 3.85,-2.89 4.20,-2.42 4.43,-1.88 4.66,-1.34 4.75,-0.76 4.85,-0.19 4.80,0.39 4.75,0.97 4.56,1.53 4.38,2.08 4.06,2.57 3.75,3.07 3.75,3.07 L 3.75,3.07 Z"></path></g><g transform="translate(28.52239922039155 28.119674398766307) rotate(0 7.546128915969433 7.546144617575152)" stroke="none"><path fill="#1e1e1e" d="M 0.74,0.18 Q 0.74,0.18 0.58,1.82 0.42,3.46 -0.12,5.70 -0.68,7.95 -1.11,10.06 -1.54,12.17 -1.57,13.44 -1.59,14.71 -1.15,15.25 -0.71,15.80 -0.73,15.95 -0.74,16.10 -0.80,16.24 -0.85,16.38 -0.93,16.50 -1.02,16.63 -1.13,16.73 -1.24,16.83 -1.37,16.90 -1.51,16.97 -1.65,17.01 -1.80,17.05 -1.95,17.05 -2.10,17.05 -2.24,17.01 -2.39,16.98 -2.52,16.91 -2.66,16.84 -2.77,16.74 -2.89,16.64 -2.97,16.52 -3.06,16.40 -3.11,16.26 -3.17,16.12 -3.19,15.97 -3.21,15.82 -2.11,14.23 -1.01,12.64 0.33,10.43 1.68,8.21 3.04,5.51 4.39,2.81 5.20,1.40 6.01,0.00 6.71,-0.57 7.40,-1.16 7.50,-1.28 7.59,-1.40 7.71,-1.50 7.83,-1.60 7.97,-1.67 8.11,-1.74 8.26,-1.77 8.42,-1.80 8.57,-1.79 8.73,-1.79 8.88,-1.74 9.03,-1.70 9.16,-1.62 9.30,-1.55 9.41,-1.44 9.52,-1.33 9.61,-1.20 9.69,-1.07 9.74,-0.92 9.79,-0.77 9.80,-0.62 9.82,-0.46 9.79,-0.31 9.77,-0.15 9.71,-0.01 9.65,0.12 9.85,0.88 10.05,1.63 9.70,4.05 9.35,6.46 9.21,8.16 9.07,9.86 9.21,10.81 9.34,11.75 9.31,11.91 9.27,12.06 9.21,12.20 9.14,12.35 9.04,12.47 8.94,12.59 8.81,12.69 8.68,12.78 8.54,12.84 8.39,12.90 8.23,12.93 8.08,12.95 7.92,12.94 7.76,12.93 7.61,12.88 7.46,12.83 7.33,12.74 7.19,12.66 7.08,12.54 6.97,12.43 6.89,12.29 6.82,12.15 6.77,12.00 6.73,11.85 6.72,11.69 6.72,11.53 8.23,10.78 9.75,10.04 10.89,8.73 12.04,7.42 13.35,5.33 14.66,3.23 16.18,0.73 17.70,-1.76 17.75,-1.86 17.81,-1.95 17.89,-2.02 17.97,-2.08 18.07,-2.12 18.16,-2.16 18.27,-2.17 18.38,-2.17 18.48,-2.15 18.58,-2.12 18.67,-2.06 18.76,-2.00 18.82,-1.91 18.89,-1.83 18.92,-1.73 18.95,-1.63 18.95,-1.52 18.95,-1.42 18.92,-1.32 18.89,-1.21 18.82,-1.13 18.76,-1.05 18.67,-0.99 18.58,-0.93 18.48,-0.90 18.38,-0.87 18.27,-0.87 18.17,-0.88 18.07,-0.92 17.97,-0.96 17.89,-1.03 17.81,-1.10 17.75,-1.19 17.70,-1.28 17.67,-1.38 17.65,-1.49 17.66,-1.59 17.67,-1.70 17.72,-1.79 17.76,-1.89 17.84,-1.97 17.91,-2.04 18.00,-2.09 18.10,-2.14 18.20,-2.16 18.31,-2.18 18.41,-2.16 18.52,-2.14 18.61,-2.09 18.70,-2.04 18.78,-1.97 18.85,-1.89 18.89,-1.79 18.94,-1.70 18.95,-1.59 18.96,-1.49 18.94,-1.38 18.92,-1.28 18.92,-1.28 18.92,-1.28 17.89,1.67 16.87,4.63 15.39,6.94 13.91,9.24 12.20,10.85 10.48,12.47 9.91,12.11 9.34,11.75 9.31,11.91 9.27,12.06 9.21,12.20 9.14,12.35 9.04,12.47 8.94,12.59 8.81,12.69 8.68,12.78 8.54,12.84 8.39,12.90 8.23,12.93 8.08,12.95 7.92,12.94 7.76,12.93 7.61,12.88 7.46,12.83 7.33,12.74 7.19,12.66 7.08,12.54 6.97,12.43 6.89,12.29 6.82,12.15 6.77,12.00 6.73,11.85 6.72,11.69 6.72,11.53 6.58,10.59 6.45,9.66 6.60,7.86 6.75,6.06 7.10,3.97 7.44,1.87 7.42,0.35 7.40,-1.16 7.50,-1.28 7.59,-1.40 7.71,-1.50 7.83,-1.60 7.97,-1.67 8.11,-1.74 8.26,-1.77 8.42,-1.80 8.57,-1.79 8.73,-1.79 8.88,-1.74 9.03,-1.70 9.16,-1.62 9.30,-1.55 9.41,-1.44 9.52,-1.33 9.61,-1.20 9.69,-1.07 9.74,-0.92 9.79,-0.77 9.80,-0.62 9.82,-0.46 9.79,-0.31 9.77,-0.15 9.71,-0.01 9.65,0.12 8.88,0.70 8.12,1.28 7.36,2.60 6.61,3.92 5.20,6.71 3.79,9.50 2.36,11.85 0.92,14.20 0.10,15.00 -0.71,15.80 -0.73,15.95 -0.74,16.10 -0.80,16.24 -0.85,16.38 -0.93,16.50 -1.02,16.63 -1.13,16.73 -1.24,16.83 -1.37,16.90 -1.51,16.97 -1.65,17.01 -1.80,17.05 -1.95,17.05 -2.10,17.05 -2.24,17.01 -2.39,16.98 -2.52,16.91 -2.66,16.84 -2.77,16.74 -2.89,16.64 -2.97,16.52 -3.06,16.40 -3.11,16.26 -3.17,16.12 -3.19,15.97 -3.21,15.82 -3.56,15.48 -3.92,15.15 -3.97,13.41 -4.02,11.68 -3.57,9.51 -3.13,7.34 -2.57,5.09 -2.00,2.85 -1.37,1.33 -0.74,-0.18 -0.70,-0.27 -0.67,-0.35 -0.62,-0.43 -0.57,-0.50 -0.50,-0.57 -0.43,-0.63 -0.35,-0.67 -0.26,-0.71 -0.17,-0.73 -0.08,-0.76 0.00,-0.75 0.09,-0.75 0.18,-0.73 0.27,-0.71 0.35,-0.67 0.43,-0.62 0.50,-0.56 0.57,-0.50 0.62,-0.42 0.67,-0.35 0.71,-0.26 0.74,-0.18 0.75,-0.08 0.76,0.00 0.75,0.09 0.74,0.18 0.74,0.18 L 0.74,0.18 Z"></path></g><g transform="translate(20.290204342877814 59.676290582521176) rotate(0 5.488103748999606 5.145102171438921)" stroke="none"><path fill="#1e1e1e" d="M 0.29,-0.69 Q 0.29,-0.69 1.76,-0.30 3.23,0.07 4.31,0.76 5.39,1.45 6.46,2.36 7.54,3.27 8.43,4.29 9.32,5.32 10.35,7.44 11.38,9.56 11.40,9.67 11.43,9.77 11.42,9.88 11.41,9.98 11.37,10.08 11.33,10.18 11.25,10.26 11.18,10.33 11.09,10.39 11.00,10.44 10.89,10.46 10.79,10.48 10.68,10.47 10.58,10.45 10.48,10.40 10.39,10.36 10.31,10.28 10.24,10.21 10.19,10.11 10.14,10.02 10.13,9.91 10.12,9.81 10.14,9.70 10.16,9.60 10.21,9.50 10.26,9.41 10.34,9.34 10.42,9.27 10.52,9.23 10.61,9.19 10.72,9.18 10.83,9.17 10.93,9.19 11.03,9.22 11.12,9.28 11.21,9.33 11.28,9.42 11.34,9.50 11.38,9.60 11.42,9.70 11.42,9.81 11.42,9.91 11.39,10.01 11.36,10.12 11.30,10.20 11.24,10.29 11.15,10.35 11.06,10.41 10.96,10.44 10.86,10.47 10.75,10.47 10.65,10.47 10.55,10.43 10.45,10.39 10.37,10.33 10.28,10.26 10.23,10.17 10.17,10.08 10.17,10.08 10.17,10.08 8.81,8.50 7.45,6.93 6.69,6.03 5.93,5.14 4.99,4.31 4.05,3.49 3.16,2.89 2.28,2.28 0.99,1.48 -0.29,0.69 -0.37,0.64 -0.45,0.60 -0.51,0.53 -0.58,0.47 -0.63,0.39 -0.68,0.32 -0.70,0.23 -0.73,0.14 -0.74,0.05 -0.75,-0.03 -0.73,-0.12 -0.72,-0.21 -0.68,-0.29 -0.65,-0.37 -0.59,-0.45 -0.54,-0.52 -0.47,-0.57 -0.40,-0.63 -0.31,-0.67 -0.23,-0.71 -0.14,-0.73 -0.05,-0.75 0.03,-0.74 0.12,-0.74 0.20,-0.71 0.29,-0.69 0.29,-0.69 L 0.29,-0.69 Z"></path></g><g transform="translate(19.604201187756416 74.08257666255014) rotate(0 8.232163474302283 -8.575165051862939)" stroke="none"><path fill="#1e1e1e" d="M -0.58,-0.50 Q -0.58,-0.50 0.48,-1.98 1.55,-3.46 2.44,-4.46 3.33,-5.47 4.06,-6.46 4.79,-7.44 5.46,-8.61 6.13,-9.78 7.07,-10.97 8.02,-12.15 8.87,-12.90 9.72,-13.65 11.12,-14.64 12.52,-15.63 14.00,-16.46 15.49,-17.28 15.59,-17.32 15.68,-17.37 15.79,-17.38 15.89,-17.39 16.00,-17.37 16.10,-17.35 16.19,-17.29 16.28,-17.24 16.35,-17.16 16.42,-17.08 16.46,-16.98 16.50,-16.88 16.51,-16.77 16.51,-16.67 16.49,-16.56 16.46,-16.46 16.40,-16.37 16.34,-16.29 16.25,-16.22 16.17,-16.16 16.07,-16.12 15.97,-16.09 15.86,-16.09 15.76,-16.09 15.66,-16.12 15.56,-16.15 15.47,-16.22 15.39,-16.28 15.33,-16.37 15.27,-16.46 15.24,-16.56 15.21,-16.66 15.21,-16.77 15.22,-16.87 15.26,-16.97 15.30,-17.07 15.36,-17.15 15.43,-17.23 15.52,-17.29 15.61,-17.34 15.72,-17.37 15.82,-17.39 15.93,-17.38 16.03,-17.37 16.13,-17.32 16.23,-17.28 16.30,-17.21 16.38,-17.13 16.43,-17.04 16.48,-16.95 16.50,-16.84 16.52,-16.74 16.50,-16.63 16.48,-16.53 16.43,-16.43 16.38,-16.34 16.31,-16.27 16.23,-16.19 16.23,-16.19 16.23,-16.19 15.00,-15.15 13.76,-14.11 12.53,-12.96 11.30,-11.81 10.60,-11.22 9.89,-10.62 9.04,-9.59 8.18,-8.56 7.41,-7.29 6.63,-6.03 5.80,-5.00 4.98,-3.97 4.08,-3.01 3.18,-2.06 1.88,-0.78 0.58,0.50 0.51,0.56 0.44,0.62 0.36,0.67 0.28,0.71 0.19,0.73 0.10,0.76 0.01,0.76 -0.08,0.76 -0.17,0.74 -0.26,0.72 -0.34,0.68 -0.42,0.63 -0.49,0.57 -0.56,0.51 -0.62,0.44 -0.67,0.36 -0.70,0.28 -0.74,0.19 -0.75,0.10 -0.76,0.01 -0.75,-0.07 -0.74,-0.17 -0.71,-0.25 -0.68,-0.34 -0.63,-0.42 -0.58,-0.50 -0.58,-0.50 L -0.58,-0.50 Z"></path></g><g transform="translate(10 97.40702937200277) rotate(0 9.261199610195774 5.145102171438907)" stroke="none"><path fill="#1e1e1e" d="M 0.42,-0.62 Q 0.42,-0.62 3.13,0.94 5.84,2.51 8.50,4.23 11.16,5.94 12.50,6.89 13.84,7.83 15.77,8.61 17.71,9.40 17.80,9.44 17.90,9.48 17.98,9.56 18.06,9.63 18.11,9.72 18.16,9.81 18.18,9.92 18.20,10.02 18.18,10.13 18.17,10.23 18.12,10.33 18.07,10.42 18.00,10.50 17.92,10.57 17.83,10.62 17.73,10.66 17.63,10.68 17.52,10.69 17.42,10.67 17.31,10.65 17.22,10.60 17.13,10.54 17.06,10.46 16.99,10.38 16.95,10.29 16.90,10.19 16.90,10.08 16.89,9.98 16.91,9.87 16.94,9.77 17.00,9.68 17.06,9.59 17.14,9.53 17.22,9.46 17.32,9.43 17.42,9.39 17.53,9.39 17.64,9.39 17.74,9.42 17.84,9.45 17.92,9.51 18.01,9.57 18.07,9.66 18.13,9.75 18.16,9.85 18.19,9.95 18.19,10.06 18.19,10.16 18.15,10.26 18.11,10.36 18.04,10.44 17.98,10.53 17.89,10.58 17.80,10.64 17.69,10.67 17.59,10.69 17.48,10.68 17.38,10.67 17.38,10.67 17.38,10.67 14.89,10.32 12.40,9.97 11.08,9.04 9.75,8.11 7.08,6.34 4.41,4.58 1.99,2.60 -0.42,0.62 -0.49,0.55 -0.56,0.49 -0.61,0.42 -0.66,0.34 -0.70,0.26 -0.73,0.17 -0.74,0.08 -0.75,-0.00 -0.74,-0.09 -0.73,-0.18 -0.69,-0.26 -0.66,-0.35 -0.61,-0.42 -0.56,-0.50 -0.49,-0.56 -0.42,-0.62 -0.34,-0.66 -0.26,-0.70 -0.17,-0.72 -0.08,-0.74 0.00,-0.74 0.09,-0.74 0.18,-0.72 0.26,-0.70 0.34,-0.66 0.42,-0.62 0.42,-0.62 L 0.42,-0.62 Z"></path></g><g transform="translate(31.95244639920986 94.66298534830585) rotate(0 -9.947202765317172 14.406286080028963)" stroke="none"><path fill="#1e1e1e" d="M 0.61,0.42 Q 0.61,0.42 -1.01,3.09 -2.63,5.75 -3.95,7.83 -5.27,9.90 -6.60,12.16 -7.94,14.41 -9.50,16.96 -11.07,19.51 -11.94,20.81 -12.82,22.11 -15.55,25.00 -18.29,27.89 -18.36,27.96 -18.44,28.03 -18.54,28.07 -18.64,28.11 -18.75,28.12 -18.85,28.13 -18.96,28.10 -19.06,28.08 -19.15,28.02 -19.24,27.96 -19.30,27.88 -19.37,27.79 -19.40,27.69 -19.44,27.59 -19.44,27.49 -19.44,27.38 -19.41,27.28 -19.38,27.18 -19.31,27.09 -19.25,27.01 -19.16,26.94 -19.08,26.88 -18.97,26.85 -18.87,26.82 -18.77,26.83 -18.66,26.83 -18.56,26.87 -18.46,26.91 -18.38,26.98 -18.30,27.04 -18.24,27.13 -18.19,27.22 -18.16,27.33 -18.14,27.43 -18.15,27.54 -18.16,27.64 -18.20,27.74 -18.24,27.84 -18.31,27.91 -18.39,27.99 -18.48,28.04 -18.57,28.09 -18.68,28.11 -18.78,28.13 -18.89,28.12 -18.99,28.10 -19.09,28.05 -19.18,28.00 -19.26,27.93 -19.33,27.85 -19.38,27.76 -19.42,27.66 -19.43,27.55 -19.45,27.45 -19.43,27.35 -19.41,27.24 -19.35,27.15 -19.30,27.06 -19.30,27.06 -19.30,27.06 -17.05,23.91 -14.81,20.76 -13.96,19.50 -13.11,18.25 -11.54,15.72 -9.98,13.19 -8.59,10.92 -7.21,8.65 -5.83,6.57 -4.46,4.49 -2.53,2.03 -0.61,-0.42 -0.55,-0.49 -0.49,-0.56 -0.42,-0.61 -0.34,-0.66 -0.26,-0.69 -0.17,-0.73 -0.08,-0.74 0.00,-0.75 0.09,-0.74 0.18,-0.73 0.26,-0.69 0.35,-0.66 0.42,-0.61 0.49,-0.56 0.55,-0.49 0.61,-0.42 0.66,-0.34 0.70,-0.26 0.72,-0.17 0.74,-0.08 0.74,0.00 0.74,0.09 0.72,0.17 0.70,0.26 0.66,0.34 0.61,0.42 0.61,0.42 L 0.61,0.42 Z"></path></g><g transform="translate(12.744044023696915 133.76576185124165) rotate(0 10.290235746089309 12.691246789014087)" stroke="none"><path fill="#1e1e1e" d="M 0.64,-0.42 Q 0.64,-0.42 1.30,-0.00 1.95,0.41 2.41,1.60 2.87,2.78 3.18,3.31 3.49,3.84 3.67,4.39 3.84,4.94 4.60,5.35 5.37,5.76 6.43,6.03 7.48,6.31 8.96,6.64 10.43,6.98 12.05,7.32 13.67,7.67 14.88,7.80 16.10,7.94 17.39,8.00 18.68,8.06 19.78,8.45 20.88,8.84 21.31,9.40 21.74,9.96 21.83,10.54 21.93,11.12 21.56,11.94 21.20,12.76 20.42,13.16 19.64,13.57 19.14,13.79 18.63,14.02 18.14,14.43 17.65,14.84 16.50,15.51 15.35,16.18 14.09,16.85 12.82,17.51 11.57,18.34 10.32,19.18 8.93,19.97 7.53,20.76 6.65,21.43 5.76,22.10 4.73,22.81 3.71,23.52 3.13,23.99 2.54,24.45 2.11,24.84 1.68,25.22 1.28,24.74 0.89,24.27 2.26,23.79 3.63,23.31 5.27,23.09 6.90,22.87 9.07,22.77 11.23,22.66 12.93,22.62 14.63,22.58 16.42,22.76 18.22,22.94 19.78,23.82 21.34,24.70 21.43,24.76 21.52,24.81 21.59,24.89 21.66,24.98 21.69,25.08 21.73,25.17 21.73,25.28 21.74,25.39 21.71,25.49 21.68,25.59 21.62,25.68 21.56,25.76 21.47,25.83 21.38,25.89 21.28,25.92 21.18,25.95 21.08,25.95 20.97,25.95 20.87,25.91 20.77,25.88 20.69,25.81 20.60,25.75 20.54,25.66 20.49,25.57 20.46,25.47 20.43,25.36 20.44,25.26 20.45,25.15 20.49,25.05 20.53,24.96 20.60,24.88 20.67,24.80 20.76,24.74 20.85,24.69 20.96,24.67 21.06,24.65 21.17,24.66 21.27,24.67 21.37,24.72 21.47,24.77 21.54,24.84 21.62,24.92 21.66,25.01 21.71,25.11 21.73,25.21 21.74,25.32 21.72,25.42 21.71,25.53 21.65,25.62 21.60,25.71 21.52,25.78 21.45,25.85 21.35,25.90 21.25,25.94 21.15,25.95 21.04,25.96 20.94,25.93 20.83,25.91 20.83,25.91 20.83,25.91 19.37,25.91 17.90,25.91 16.30,25.73 14.70,25.55 13.03,25.59 11.37,25.63 9.33,25.72 7.30,25.81 5.56,26.05 3.81,26.28 2.81,26.32 1.81,26.35 0.96,26.52 0.11,26.70 -0.43,26.36 -0.98,26.02 -1.16,25.20 -1.34,24.37 -0.82,23.66 -0.31,22.96 0.17,22.53 0.67,22.09 1.33,21.57 1.99,21.05 2.97,20.36 3.95,19.67 5.00,18.90 6.05,18.14 7.35,17.40 8.66,16.66 10.04,15.75 11.42,14.85 12.64,14.21 13.85,13.57 14.83,13.02 15.81,12.47 16.61,11.87 17.41,11.28 17.97,11.12 18.53,10.96 17.15,10.89 15.77,10.83 14.42,10.67 13.07,10.51 11.42,10.16 9.78,9.82 8.23,9.46 6.69,9.11 5.27,8.68 3.86,8.25 3.17,7.81 2.48,7.37 1.71,6.30 0.94,5.23 0.55,4.49 0.15,3.74 -0.11,2.84 -0.37,1.94 -0.51,1.18 -0.64,0.42 -0.68,0.34 -0.72,0.26 -0.74,0.17 -0.77,0.08 -0.76,-0.01 -0.76,-0.10 -0.74,-0.19 -0.71,-0.28 -0.67,-0.36 -0.63,-0.45 -0.56,-0.51 -0.50,-0.58 -0.42,-0.63 -0.34,-0.69 -0.26,-0.72 -0.17,-0.75 -0.08,-0.76 0.01,-0.77 0.10,-0.76 0.19,-0.74 0.28,-0.71 0.37,-0.67 0.44,-0.62 0.52,-0.57 0.58,-0.50 0.64,-0.42 0.64,-0.42 L 0.64,-0.42 Z"></path></g><g transform="translate(49.244467095070036 144.01038171128326) rotate(0 -1.425653119707306 0.7128102446729372)" stroke="none"><path fill="#1e1e1e" d="M 0.40,0.60 Q 0.40,0.60 -0.49,1.15 -1.38,1.71 -1.48,1.75 -1.58,1.80 -1.68,1.81 -1.79,1.82 -1.89,1.79 -2.00,1.77 -2.09,1.72 -2.18,1.66 -2.24,1.58 -2.31,1.50 -2.35,1.40 -2.39,1.30 -2.39,1.19 -2.40,1.09 -2.37,0.98 -2.34,0.88 -2.28,0.80 -2.22,0.71 -2.14,0.64 -2.05,0.58 -1.95,0.55 -1.85,0.51 -1.74,0.52 -1.64,0.52 -1.54,0.55 -1.44,0.59 -1.35,0.65 -1.27,0.72 -1.21,0.80 -1.15,0.89 -1.12,0.99 -1.09,1.10 -1.10,1.20 -1.11,1.31 -1.15,1.41 -1.19,1.51 -1.26,1.59 -1.33,1.67 -1.42,1.72 -1.51,1.78 -1.61,1.80 -1.72,1.82 -1.82,1.81 -1.93,1.79 -2.02,1.75 -2.12,1.70 -2.20,1.63 -2.27,1.56 -2.32,1.46 -2.37,1.37 -2.39,1.26 -2.40,1.16 -2.39,1.05 -2.37,0.95 -2.32,0.85 -2.27,0.76 -2.19,0.69 -2.11,0.62 -2.11,0.62 -2.11,0.62 -1.25,0.01 -0.40,-0.60 -0.32,-0.63 -0.24,-0.67 -0.16,-0.69 -0.07,-0.71 0.01,-0.71 0.09,-0.71 0.18,-0.69 0.26,-0.67 0.34,-0.62 0.41,-0.58 0.48,-0.52 0.54,-0.46 0.59,-0.39 0.64,-0.32 0.67,-0.24 0.70,-0.16 0.71,-0.07 0.72,0.01 0.70,0.09 0.69,0.18 0.66,0.26 0.63,0.34 0.58,0.41 0.53,0.48 0.46,0.54 0.40,0.60 0.40,0.60 L 0.40,0.60 Z"></path></g><g transform="translate(44.25469749127518 146.86165532033644) rotate(0 29.938487101323602 -4.989753288614168)" stroke="none"><path fill="#1e1e1e" d="M -0.28,-0.71 Q -0.28,-0.71 0.64,-1.36 1.57,-2.01 2.52,-2.22 3.47,-2.44 5.37,-2.54 7.27,-2.65 9.42,-2.89 11.57,-3.13 14.93,-3.65 18.30,-4.17 20.53,-4.59 22.77,-5.01 27.80,-6.22 32.82,-7.42 36.82,-8.35 40.82,-9.27 43.99,-9.83 47.16,-10.39 49.83,-10.38 52.50,-10.38 55.86,-10.15 59.23,-9.91 59.33,-9.90 59.44,-9.88 59.53,-9.83 59.63,-9.78 59.70,-9.71 59.77,-9.63 59.82,-9.53 59.86,-9.44 59.88,-9.33 59.89,-9.23 59.87,-9.12 59.85,-9.02 59.79,-8.93 59.74,-8.84 59.66,-8.77 59.58,-8.70 59.48,-8.66 59.38,-8.62 59.27,-8.61 59.17,-8.60 59.07,-8.63 58.96,-8.66 58.87,-8.72 58.79,-8.78 58.72,-8.86 58.66,-8.94 58.62,-9.04 58.59,-9.14 58.59,-9.25 58.58,-9.36 58.62,-9.46 58.65,-9.56 58.71,-9.64 58.78,-9.73 58.87,-9.79 58.95,-9.85 59.06,-9.88 59.16,-9.91 59.26,-9.90 59.37,-9.90 59.47,-9.86 59.57,-9.82 59.65,-9.75 59.73,-9.69 59.79,-9.59 59.84,-9.50 59.87,-9.40 59.89,-9.30 59.88,-9.19 59.87,-9.09 59.82,-8.99 59.78,-8.89 59.71,-8.81 59.64,-8.74 59.54,-8.69 59.45,-8.64 59.34,-8.62 59.24,-8.60 59.24,-8.60 59.24,-8.60 55.89,-8.30 52.54,-8.00 50.09,-7.90 47.64,-7.80 44.55,-7.16 41.45,-6.53 37.46,-5.61 33.47,-4.69 28.38,-3.49 23.28,-2.29 20.99,-1.86 18.71,-1.44 15.29,-0.94 11.86,-0.44 9.62,-0.20 7.38,0.02 5.69,0.06 4.00,0.10 3.26,0.24 2.52,0.37 1.40,0.54 0.28,0.71 0.19,0.73 0.10,0.76 0.01,0.76 -0.07,0.76 -0.16,0.74 -0.25,0.72 -0.34,0.68 -0.42,0.64 -0.49,0.58 -0.56,0.52 -0.62,0.44 -0.67,0.36 -0.70,0.28 -0.74,0.19 -0.75,0.10 -0.76,0.01 -0.75,-0.07 -0.74,-0.17 -0.71,-0.25 -0.68,-0.34 -0.63,-0.42 -0.58,-0.49 -0.51,-0.56 -0.44,-0.62 -0.36,-0.66 -0.28,-0.71 -0.28,-0.71 L -0.28,-0.71 Z"></path></g><g transform="translate(52.09577333448465 109.79496788119914) rotate(0 24.23590725285578 -3.920521606424046)" stroke="none"><path fill="#1e1e1e" d="M -0.37,-0.75 Q -0.37,-0.75 0.77,-1.56 1.92,-2.37 4.90,-2.71 7.89,-3.04 10.95,-3.16 14.01,-3.27 16.99,-3.12 19.98,-2.96 24.50,-2.69 29.03,-2.42 32.32,-2.52 35.62,-2.61 38.32,-3.37 41.03,-4.13 43.92,-5.82 46.82,-7.51 46.91,-7.55 47.01,-7.60 47.12,-7.61 47.22,-7.62 47.33,-7.60 47.43,-7.57 47.52,-7.52 47.61,-7.47 47.68,-7.38 47.75,-7.30 47.79,-7.20 47.83,-7.11 47.83,-7.00 47.84,-6.89 47.81,-6.79 47.78,-6.69 47.73,-6.60 47.67,-6.51 47.58,-6.45 47.50,-6.38 47.40,-6.35 47.30,-6.32 47.19,-6.32 47.08,-6.31 46.98,-6.35 46.88,-6.38 46.80,-6.45 46.71,-6.51 46.65,-6.60 46.59,-6.69 46.56,-6.79 46.54,-6.89 46.54,-7.00 46.55,-7.10 46.59,-7.20 46.62,-7.30 46.69,-7.38 46.76,-7.46 46.85,-7.52 46.94,-7.57 47.05,-7.60 47.15,-7.62 47.26,-7.61 47.36,-7.60 47.46,-7.55 47.55,-7.51 47.63,-7.43 47.71,-7.36 47.76,-7.27 47.81,-7.17 47.83,-7.07 47.84,-6.97 47.83,-6.86 47.81,-6.76 47.76,-6.66 47.71,-6.57 47.63,-6.49 47.56,-6.42 47.56,-6.42 47.56,-6.42 44.65,-4.15 41.74,-1.88 38.73,-0.92 35.71,0.02 32.29,0.11 28.87,0.19 24.35,-0.07 19.84,-0.34 16.97,-0.50 14.10,-0.66 11.12,-0.56 8.13,-0.45 5.56,-0.27 2.99,-0.08 1.68,0.33 0.37,0.75 0.28,0.78 0.18,0.82 0.08,0.83 -0.01,0.84 -0.11,0.82 -0.21,0.81 -0.31,0.77 -0.40,0.73 -0.48,0.67 -0.57,0.62 -0.63,0.54 -0.70,0.46 -0.74,0.37 -0.79,0.28 -0.81,0.18 -0.83,0.08 -0.83,-0.01 -0.83,-0.11 -0.80,-0.21 -0.78,-0.31 -0.73,-0.40 -0.68,-0.49 -0.61,-0.56 -0.54,-0.64 -0.46,-0.69 -0.37,-0.75 -0.37,-0.75 L -0.37,-0.75 Z"></path></g><g transform="translate(54.94701431317645 69.87697420264718) rotate(0 20.671823399129607 1.425653119707306)" stroke="none"><path fill="#1e1e1e" d="M 0.18,-0.86 Q 0.18,-0.86 3.09,-0.44 6.00,-0.02 8.83,0.43 11.66,0.88 14.90,1.28 18.14,1.67 21.12,1.84 24.10,2.00 28.74,1.31 33.39,0.62 36.56,-0.12 39.73,-0.88 39.84,-0.89 39.94,-0.91 40.05,-0.89 40.15,-0.87 40.25,-0.82 40.34,-0.77 40.41,-0.69 40.48,-0.61 40.53,-0.52 40.57,-0.42 40.58,-0.31 40.59,-0.21 40.57,-0.11 40.54,-0.00 40.49,0.08 40.43,0.17 40.35,0.24 40.27,0.31 40.17,0.34 40.07,0.38 39.96,0.39 39.86,0.39 39.76,0.36 39.65,0.33 39.57,0.27 39.48,0.21 39.42,0.13 39.35,0.04 39.32,-0.05 39.29,-0.15 39.29,-0.26 39.29,-0.36 39.32,-0.46 39.36,-0.56 39.42,-0.65 39.49,-0.73 39.58,-0.79 39.67,-0.85 39.77,-0.88 39.87,-0.90 39.98,-0.90 40.08,-0.89 40.18,-0.85 40.28,-0.81 40.36,-0.74 40.44,-0.67 40.49,-0.58 40.55,-0.49 40.57,-0.38 40.59,-0.28 40.58,-0.17 40.57,-0.07 40.52,0.02 40.48,0.11 40.40,0.19 40.33,0.27 40.23,0.31 40.14,0.36 40.14,0.36 40.14,0.36 36.95,1.68 33.76,3.00 28.86,3.81 23.97,4.61 20.89,4.43 17.82,4.26 14.53,3.84 11.24,3.43 8.35,2.96 5.46,2.48 2.64,1.67 -0.18,0.86 -0.28,0.82 -0.38,0.79 -0.47,0.73 -0.56,0.67 -0.63,0.60 -0.71,0.52 -0.76,0.43 -0.81,0.33 -0.84,0.23 -0.87,0.13 -0.87,0.02 -0.87,-0.07 -0.85,-0.18 -0.83,-0.28 -0.78,-0.38 -0.74,-0.47 -0.67,-0.56 -0.60,-0.64 -0.51,-0.70 -0.43,-0.76 -0.33,-0.80 -0.23,-0.85 -0.13,-0.86 -0.02,-0.88 0.07,-0.87 0.18,-0.86 0.18,-0.86 L 0.18,-0.86 Z"></path></g><g transform="translate(67.0650168851464 34.23590725285578) rotate(0 12.830780186281544 -0.7128102446729656)" stroke="none"><path fill="#1e1e1e" d="M -0.06,-0.80 Q -0.06,-0.80 2.37,-1.20 4.81,-1.59 6.42,-1.89 8.02,-2.18 10.86,-2.33 13.69,-2.48 16.10,-2.54 18.52,-2.60 21.09,-2.33 23.67,-2.06 23.78,-2.05 23.88,-2.03 23.97,-1.98 24.07,-1.93 24.14,-1.86 24.22,-1.78 24.26,-1.68 24.31,-1.59 24.32,-1.48 24.33,-1.38 24.31,-1.27 24.29,-1.17 24.23,-1.08 24.18,-0.98 24.10,-0.92 24.02,-0.85 23.92,-0.81 23.82,-0.77 23.71,-0.76 23.61,-0.75 23.51,-0.78 23.40,-0.81 23.32,-0.87 23.23,-0.93 23.16,-1.01 23.10,-1.09 23.06,-1.20 23.03,-1.30 23.03,-1.40 23.03,-1.51 23.06,-1.61 23.09,-1.71 23.16,-1.80 23.22,-1.88 23.31,-1.94 23.40,-2.00 23.50,-2.03 23.60,-2.06 23.71,-2.05 23.81,-2.05 23.91,-2.01 24.01,-1.97 24.09,-1.90 24.17,-1.84 24.23,-1.74 24.28,-1.65 24.31,-1.55 24.33,-1.45 24.32,-1.34 24.31,-1.24 24.27,-1.14 24.22,-1.04 24.15,-0.96 24.08,-0.89 23.98,-0.84 23.89,-0.79 23.78,-0.77 23.68,-0.75 23.68,-0.75 23.68,-0.75 21.13,-0.42 18.57,-0.08 16.19,-0.04 13.80,0.00 11.12,0.10 8.44,0.20 6.73,0.49 5.01,0.78 2.54,0.79 0.06,0.80 -0.03,0.80 -0.12,0.80 -0.22,0.77 -0.31,0.74 -0.40,0.69 -0.48,0.65 -0.55,0.58 -0.62,0.51 -0.68,0.43 -0.73,0.35 -0.76,0.25 -0.79,0.16 -0.80,0.06 -0.81,-0.03 -0.79,-0.12 -0.78,-0.22 -0.74,-0.31 -0.70,-0.40 -0.64,-0.48 -0.58,-0.56 -0.51,-0.62 -0.43,-0.68 -0.34,-0.72 -0.25,-0.77 -0.16,-0.78 -0.06,-0.80 -0.06,-0.80 L -0.06,-0.80 Z"></path></g><g transform="translate(423.475555861615 13.564116484087549) rotate(0 -0.7128428750343687 5.346142095769949)" stroke="none"><path fill="#1e1e1e" d="M 0,1.11 Q 0,1.11 -1.60,1.19 -3.20,1.26 -3.99,1.76 -4.78,2.26 -5.45,3.73 -6.12,5.20 -6.67,7.15 -7.22,9.11 -6.72,10.35 -6.23,11.59 -4.53,10.82 -2.84,10.05 -0.66,7.61 1.51,5.18 3.05,3.10 4.60,1.02 5.21,-0.21 5.82,-1.45 6.38,-1.41 6.94,-1.37 6.83,-0.13 6.71,1.10 6.58,2.62 6.45,4.14 6.53,6.58 6.60,9.02 6.46,10.86 6.32,12.70 6.30,12.81 6.29,12.91 6.25,13.01 6.20,13.11 6.13,13.18 6.05,13.26 5.96,13.31 5.86,13.36 5.76,13.37 5.65,13.39 5.55,13.37 5.45,13.36 5.35,13.30 5.26,13.25 5.19,13.18 5.11,13.10 5.07,13.00 5.03,12.91 5.01,12.80 5.00,12.69 5.03,12.59 5.05,12.49 5.11,12.40 5.16,12.31 5.24,12.24 5.32,12.17 5.42,12.13 5.52,12.09 5.63,12.09 5.73,12.08 5.84,12.11 5.94,12.14 6.03,12.20 6.11,12.26 6.18,12.35 6.24,12.43 6.27,12.53 6.31,12.63 6.31,12.74 6.31,12.85 6.27,12.95 6.24,13.05 6.17,13.13 6.11,13.21 6.02,13.27 5.93,13.33 5.83,13.36 5.73,13.39 5.62,13.38 5.51,13.37 5.42,13.33 5.32,13.29 5.24,13.23 5.16,13.16 5.10,13.06 5.05,12.97 5.03,12.87 5.00,12.77 5.00,12.77 5.00,12.77 4.69,10.96 4.37,9.15 4.16,6.53 3.95,3.92 4.11,2.21 4.27,0.50 4.74,-1.11 5.21,-2.73 5.80,-3.18 6.38,-3.63 7.13,-3.57 7.88,-3.50 7.87,-1.94 7.86,-0.39 7.11,0.97 6.36,2.34 4.73,4.47 3.09,6.61 0.67,9.25 -1.75,11.90 -3.84,13.06 -5.94,14.21 -7.12,13.30 -8.29,12.38 -8.94,10.57 -9.59,8.75 -8.98,6.39 -8.38,4.04 -7.29,2.12 -6.19,0.19 -4.77,-0.53 -3.35,-1.26 -1.67,-1.19 0,-1.11 0.13,-1.10 0.26,-1.08 0.39,-1.03 0.51,-0.98 0.62,-0.91 0.74,-0.83 0.82,-0.73 0.91,-0.63 0.98,-0.51 1.04,-0.39 1.07,-0.26 1.10,-0.13 1.10,0.00 1.10,0.13 1.07,0.26 1.04,0.39 0.98,0.51 0.91,0.63 0.82,0.73 0.74,0.83 0.62,0.91 0.51,0.98 0.39,1.03 0.26,1.08 0.13,1.10 -0.00,1.11 -0.00,1.11 L 0,1.11 Z"></path></g><g transform="translate(418.4857862578201 37.80002373694333) rotate(0 -1.4256204893458744 9.62308513971115)" stroke="none"><path fill="#1e1e1e" d="M 0.77,0.17 Q 0.77,0.17 0.50,2.04 0.24,3.92 -0.11,7.71 -0.47,11.51 -0.88,13.59 -1.28,15.68 -1.69,17.17 -2.10,18.66 -2.13,18.76 -2.16,18.86 -2.23,18.95 -2.29,19.03 -2.37,19.09 -2.46,19.16 -2.56,19.19 -2.67,19.22 -2.77,19.21 -2.88,19.21 -2.98,19.17 -3.08,19.13 -3.16,19.07 -3.24,19.00 -3.30,18.91 -3.35,18.82 -3.38,18.72 -3.40,18.61 -3.39,18.51 -3.38,18.40 -3.34,18.30 -3.30,18.21 -3.23,18.13 -3.16,18.05 -3.06,18.00 -2.97,17.95 -2.87,17.93 -2.76,17.91 -2.66,17.92 -2.55,17.94 -2.46,17.99 -2.36,18.04 -2.29,18.11 -2.21,18.19 -2.17,18.28 -2.12,18.38 -2.11,18.48 -2.09,18.59 -2.11,18.69 -2.13,18.80 -2.19,18.89 -2.24,18.98 -2.32,19.05 -2.40,19.12 -2.50,19.16 -2.60,19.20 -2.70,19.21 -2.81,19.22 -2.91,19.19 -3.01,19.17 -3.10,19.11 -3.19,19.05 -3.26,18.97 -3.32,18.88 -3.36,18.78 -3.39,18.68 -3.40,18.58 -3.40,18.47 -3.40,18.47 -3.40,18.47 -3.36,16.89 -3.33,15.32 -3.00,13.30 -2.67,11.29 -2.28,7.37 -1.88,3.45 -1.32,1.64 -0.77,-0.17 -0.74,-0.26 -0.70,-0.35 -0.65,-0.43 -0.60,-0.51 -0.53,-0.57 -0.46,-0.64 -0.38,-0.68 -0.29,-0.73 -0.20,-0.75 -0.11,-0.78 -0.01,-0.78 0.07,-0.78 0.17,-0.76 0.26,-0.74 0.34,-0.70 0.43,-0.66 0.50,-0.59 0.57,-0.53 0.63,-0.46 0.69,-0.38 0.72,-0.29 0.76,-0.20 0.77,-0.11 0.79,-0.01 0.78,0.07 0.77,0.17 0.77,0.17 L 0.77,0.17 Z"></path></g><g transform="translate(423.475555861615 50.630803923224875) rotate(0 -2.138463364380243 4.276926728760515)" stroke="none"><path fill="#1e1e1e" d="M 0.12,0.74 Q 0.12,0.74 -1.07,1.10 -2.26,1.46 -3.03,1.91 -3.79,2.36 -4.47,3.09 -5.14,3.81 -5.14,4.84 -5.14,5.86 -4.48,6.29 -3.81,6.72 -2.67,6.54 -1.53,6.37 -0.72,5.78 0.07,5.20 0.54,4.25 1.02,3.31 1.02,2.69 1.01,2.07 -1.09,2.19 -3.20,2.32 -3.23,2.25 -3.27,2.17 -3.28,2.10 -3.30,2.02 -3.30,1.94 -3.30,1.86 -3.28,1.79 -3.26,1.71 -3.22,1.64 -3.18,1.57 -3.13,1.51 -3.07,1.45 -3.01,1.41 -2.94,1.37 -2.87,1.34 -2.79,1.31 -2.71,1.31 -2.64,1.30 -2.56,1.31 -2.48,1.32 -2.40,1.35 -2.33,1.38 -2.27,1.43 -2.20,1.47 -2.15,1.53 -2.10,1.59 -2.24,2.07 -2.39,2.56 -2.49,2.58 -2.59,2.61 -2.70,2.60 -2.80,2.59 -2.90,2.55 -3.00,2.51 -3.08,2.44 -3.16,2.37 -3.21,2.28 -3.26,2.18 -3.28,2.08 -3.31,1.98 -3.29,1.87 -3.28,1.76 -3.23,1.67 -3.18,1.57 -3.11,1.50 -3.03,1.42 -2.94,1.38 -2.84,1.33 -2.74,1.31 -2.63,1.30 -2.53,1.32 -2.42,1.34 -2.33,1.39 -2.24,1.44 -2.17,1.52 -2.10,1.60 -2.05,1.70 -2.01,1.79 -2.00,1.90 -1.99,2.01 -2.02,2.11 -2.04,2.21 -2.10,2.30 -2.16,2.39 -2.24,2.46 -2.32,2.52 -2.42,2.56 -2.52,2.60 -2.63,2.60 -2.73,2.61 -2.84,2.57 -2.94,2.54 -3.02,2.48 -3.11,2.42 -3.17,2.33 -3.24,2.25 -3.27,2.15 -3.30,2.05 -3.30,1.94 -3.29,1.83 -3.26,1.73 -3.22,1.63 -3.16,1.55 -3.09,1.47 -3.14,1.89 -3.20,2.32 -3.23,2.25 -3.27,2.17 -3.28,2.10 -3.30,2.02 -3.30,1.94 -3.30,1.86 -3.28,1.79 -3.26,1.71 -3.22,1.64 -3.18,1.57 -3.13,1.51 -3.07,1.45 -3.01,1.41 -2.94,1.37 -2.87,1.34 -2.79,1.31 -2.71,1.31 -2.64,1.30 -2.56,1.31 -2.48,1.32 -2.41,1.35 -2.33,1.38 -2.27,1.43 -2.20,1.47 -2.15,1.53 -2.10,1.59 -0.12,0.82 1.85,0.04 2.45,0.99 3.06,1.95 2.93,3.09 2.79,4.23 2.00,5.49 1.20,6.75 -0.01,7.51 -1.24,8.27 -2.94,8.36 -4.64,8.44 -5.84,7.57 -7.03,6.69 -7.31,5.26 -7.59,3.84 -7.16,3.06 -6.72,2.29 -5.78,1.36 -4.85,0.44 -3.75,-0.09 -2.65,-0.64 -1.38,-0.69 -0.12,-0.74 -0.03,-0.74 0.05,-0.75 0.14,-0.73 0.23,-0.71 0.31,-0.67 0.39,-0.63 0.47,-0.58 0.54,-0.52 0.59,-0.45 0.65,-0.37 0.68,-0.29 0.72,-0.21 0.73,-0.12 0.75,-0.03 0.74,0.05 0.73,0.14 0.70,0.23 0.68,0.31 0.63,0.39 0.58,0.47 0.51,0.53 0.45,0.59 0.37,0.64 0.29,0.69 0.21,0.71 0.12,0.74 0.12,0.74 L 0.12,0.74 Z"></path></g><g transform="translate(420.6242496222004 70.58978444732011) rotate(0 -2.1384307340188684 4.633348166277727)" stroke="none"><path fill="#1e1e1e" d="M -0.34,0.68 Q -0.34,0.68 -1.22,0.47 -2.09,0.25 -2.88,1.00 -3.66,1.74 -4.19,2.30 -4.71,2.87 -5.03,3.55 -5.34,4.22 -5.27,5.32 -5.19,6.42 -4.72,7.30 -4.24,8.18 -3.27,8.57 -2.29,8.96 -0.25,8.84 1.78,8.73 1.88,8.74 1.99,8.74 2.09,8.78 2.19,8.82 2.27,8.88 2.35,8.95 2.41,9.04 2.46,9.13 2.49,9.23 2.51,9.34 2.50,9.44 2.49,9.55 2.45,9.65 2.41,9.74 2.33,9.82 2.26,9.90 2.17,9.95 2.08,10.00 1.97,10.02 1.87,10.04 1.76,10.02 1.66,10.01 1.56,9.96 1.47,9.91 1.39,9.83 1.32,9.76 1.27,9.66 1.23,9.57 1.21,9.46 1.20,9.36 1.22,9.25 1.24,9.15 1.30,9.06 1.35,8.96 1.43,8.89 1.51,8.82 1.61,8.78 1.71,8.74 1.81,8.74 1.92,8.73 2.02,8.76 2.13,8.78 2.21,8.84 2.30,8.90 2.37,8.98 2.43,9.07 2.47,9.17 2.50,9.27 2.51,9.37 2.51,9.48 2.47,9.58 2.44,9.68 2.38,9.77 2.32,9.85 2.23,9.91 2.14,9.97 2.04,10.00 1.94,10.03 1.94,10.03 1.94,10.03 -0.49,10.47 -2.94,10.90 -4.54,10.27 -6.15,9.63 -6.93,8.11 -7.70,6.58 -7.67,4.90 -7.65,3.23 -7.12,2.20 -6.59,1.17 -6.08,0.62 -5.57,0.07 -4.52,-0.88 -3.47,-1.84 -2.32,-1.87 -1.18,-1.89 -0.41,-1.29 0.34,-0.68 0.42,-0.63 0.49,-0.58 0.56,-0.51 0.62,-0.45 0.67,-0.36 0.71,-0.28 0.73,-0.19 0.76,-0.10 0.76,-0.01 0.76,0.07 0.74,0.16 0.72,0.25 0.68,0.34 0.64,0.42 0.58,0.49 0.52,0.56 0.44,0.62 0.37,0.67 0.28,0.71 0.19,0.74 0.10,0.75 0.01,0.77 -0.07,0.76 -0.16,0.75 -0.25,0.72 -0.34,0.68 -0.34,0.68 L -0.34,0.68 Z"></path></g><g transform="translate(418.4857862578201 96.2513448198832) rotate(0 1.7820745572245187 -0.35640512233644017)" stroke="none"><path fill="#1e1e1e" d="M -0.40,0.61 Q -0.40,0.61 -1.09,0.30 -1.77,0.00 -2.57,0.67 -3.36,1.34 -3.71,1.86 -4.07,2.38 -3.83,3.13 -3.59,3.87 -2.78,3.45 -1.96,3.02 -1.15,2.69 -0.34,2.36 1.88,-0.31 4.11,-2.98 5.27,-5.11 6.43,-7.25 6.92,-8.53 7.40,-9.81 7.42,-9.98 7.43,-10.15 7.49,-10.28 7.56,-10.40 7.65,-10.51 7.75,-10.61 7.87,-10.69 7.98,-10.77 8.12,-10.82 8.25,-10.87 8.39,-10.89 8.53,-10.90 8.67,-10.89 8.81,-10.87 8.94,-10.82 9.08,-10.77 9.19,-10.68 9.31,-10.60 9.40,-10.50 9.49,-10.39 9.56,-10.26 9.62,-10.14 9.66,-10.00 9.69,-9.86 9.69,-9.72 9.69,-9.58 9.65,-9.44 9.62,-9.31 9.22,-8.17 8.83,-7.03 8.47,-5.37 8.11,-3.72 7.96,-1.83 7.80,0.04 7.65,2.28 7.50,4.51 7.58,7.01 7.67,9.50 7.66,9.61 7.65,9.71 7.61,9.81 7.57,9.91 7.50,9.99 7.43,10.07 7.34,10.13 7.25,10.18 7.15,10.20 7.04,10.22 6.94,10.21 6.83,10.20 6.73,10.15 6.64,10.11 6.56,10.03 6.49,9.96 6.44,9.86 6.39,9.77 6.37,9.67 6.36,9.56 6.37,9.46 6.39,9.35 6.44,9.26 6.49,9.16 6.57,9.09 6.65,9.02 6.75,8.98 6.84,8.93 6.95,8.92 7.05,8.91 7.16,8.94 7.26,8.96 7.35,9.01 7.44,9.07 7.51,9.15 7.58,9.23 7.62,9.33 7.66,9.43 7.66,9.54 7.66,9.64 7.64,9.75 7.61,9.85 7.55,9.94 7.48,10.02 7.40,10.09 7.31,10.15 7.21,10.18 7.11,10.22 7.01,10.21 6.90,10.21 6.80,10.18 6.70,10.14 6.62,10.08 6.53,10.01 6.47,9.92 6.41,9.84 6.39,9.73 6.36,9.63 6.36,9.63 6.36,9.63 5.94,7.04 5.53,4.45 5.51,2.15 5.50,-0.14 5.66,-2.18 5.82,-4.22 6.21,-6.01 6.61,-7.80 7.02,-8.97 7.43,-10.15 7.49,-10.28 7.56,-10.40 7.65,-10.51 7.75,-10.61 7.87,-10.69 7.98,-10.77 8.12,-10.82 8.25,-10.87 8.39,-10.89 8.53,-10.90 8.67,-10.89 8.81,-10.87 8.94,-10.82 9.08,-10.77 9.19,-10.68 9.31,-10.60 9.40,-10.50 9.49,-10.39 9.56,-10.26 9.62,-10.14 9.66,-10.00 9.69,-9.86 9.69,-9.72 9.69,-9.58 9.65,-9.44 9.62,-9.31 9.59,-9.15 9.57,-8.99 9.01,-7.56 8.44,-6.13 7.14,-3.82 5.84,-1.51 3.23,1.44 0.61,4.40 -0.30,4.79 -1.23,5.18 -2.59,5.49 -3.94,5.79 -5.00,4.86 -6.05,3.93 -6.05,2.65 -6.05,1.36 -5.54,0.56 -5.02,-0.22 -3.92,-1.27 -2.81,-2.31 -1.74,-1.98 -0.68,-1.64 -0.13,-1.12 0.40,-0.61 0.47,-0.55 0.54,-0.49 0.59,-0.42 0.64,-0.35 0.67,-0.27 0.71,-0.18 0.72,-0.09 0.73,-0.01 0.72,0.07 0.71,0.16 0.68,0.24 0.65,0.33 0.60,0.40 0.55,0.47 0.49,0.53 0.42,0.59 0.34,0.64 0.27,0.68 0.18,0.70 0.10,0.72 0.01,0.73 -0.07,0.73 -0.16,0.71 -0.24,0.69 -0.32,0.65 -0.40,0.61 -0.40,0.61 L -0.40,0.61 Z"></path></g><g transform="translate(416.3473228934399 119.06163158339311) rotate(0 4.276959359121918 -2.842170943040401e-14)" stroke="none"><path fill="#1e1e1e" d="M -0.35,-0.98 Q -0.35,-0.98 2.47,-2.08 5.30,-3.19 6.12,-3.84 6.93,-4.50 7.08,-4.54 7.23,-4.57 7.38,-4.57 7.53,-4.56 7.67,-4.52 7.82,-4.49 7.95,-4.41 8.08,-4.34 8.19,-4.24 8.30,-4.14 8.39,-4.01 8.47,-3.88 8.52,-3.74 8.57,-3.60 8.59,-3.45 8.60,-3.30 8.58,-3.15 8.56,-3.00 8.50,-2.86 8.45,-2.72 8.36,-2.60 8.27,-2.48 8.16,-2.38 8.04,-2.28 7.91,-2.22 7.77,-2.15 5.91,-1.97 4.04,-1.79 3.17,-1.75 2.30,-1.72 1.60,-1.01 0.90,-0.29 0.62,0.26 0.34,0.81 1.17,1.49 2.00,2.16 3.23,2.47 4.47,2.77 6.15,3.15 7.84,3.54 7.94,3.56 8.05,3.59 8.13,3.65 8.22,3.71 8.29,3.80 8.35,3.88 8.39,3.98 8.42,4.08 8.42,4.19 8.42,4.29 8.39,4.39 8.35,4.50 8.29,4.58 8.22,4.67 8.14,4.73 8.05,4.79 7.95,4.81 7.84,4.84 7.74,4.84 7.63,4.83 7.53,4.79 7.43,4.75 7.35,4.69 7.27,4.62 7.22,4.53 7.16,4.43 7.14,4.33 7.12,4.23 7.13,4.12 7.14,4.02 7.18,3.92 7.23,3.82 7.30,3.75 7.37,3.67 7.47,3.62 7.56,3.57 7.66,3.55 7.77,3.53 7.87,3.55 7.98,3.57 8.07,3.62 8.17,3.67 8.24,3.74 8.31,3.82 8.36,3.92 8.40,4.01 8.42,4.12 8.43,4.22 8.40,4.33 8.38,4.43 8.33,4.52 8.27,4.61 8.19,4.68 8.11,4.75 8.01,4.79 7.91,4.83 7.81,4.84 7.70,4.84 7.70,4.84 7.70,4.84 5.86,4.85 4.03,4.87 2.33,4.56 0.64,4.25 -0.57,3.22 -1.79,2.20 -1.86,0.98 -1.92,-0.23 -1.34,-1.22 -0.77,-2.20 0.54,-3.17 1.86,-4.14 2.85,-4.23 3.84,-4.31 5.39,-4.41 6.93,-4.50 7.08,-4.54 7.23,-4.57 7.38,-4.57 7.53,-4.56 7.67,-4.52 7.82,-4.49 7.95,-4.41 8.08,-4.34 8.19,-4.24 8.30,-4.14 8.39,-4.01 8.47,-3.88 8.52,-3.74 8.57,-3.60 8.59,-3.45 8.60,-3.30 8.58,-3.15 8.56,-3.00 8.50,-2.86 8.45,-2.72 8.36,-2.60 8.27,-2.48 8.16,-2.38 8.04,-2.28 7.91,-2.22 7.77,-2.15 6.97,-1.53 6.16,-0.90 3.26,0.03 0.35,0.98 0.22,1.01 0.10,1.04 -0.02,1.04 -0.14,1.03 -0.26,1.00 -0.39,0.97 -0.50,0.91 -0.61,0.85 -0.70,0.76 -0.79,0.67 -0.86,0.57 -0.93,0.46 -0.97,0.34 -1.02,0.23 -1.03,0.10 -1.04,-0.02 -1.03,-0.14 -1.01,-0.27 -0.96,-0.38 -0.91,-0.50 -0.84,-0.60 -0.77,-0.71 -0.67,-0.79 -0.57,-0.87 -0.46,-0.93 -0.35,-0.98 -0.35,-0.98 L -0.35,-0.98 Z"></path></g><g transform="translate(425.6140192259953 137.59499161814247) rotate(0 -5.702579848467849 3.2076787313896773)" stroke="none"><path fill="#1e1e1e" d="M -0.39,0.70 Q -0.39,0.70 -2.34,-0.10 -4.30,-0.91 -5.08,-1.08 -5.87,-1.25 -6.59,-0.96 -7.31,-0.67 -7.93,-0.07 -8.54,0.53 -8.96,1.64 -9.37,2.76 -9.36,3.71 -9.35,4.67 -9.03,5.58 -8.71,6.49 -8.15,7.89 -7.59,9.28 -7.53,9.37 -7.47,9.46 -7.44,9.56 -7.41,9.66 -7.42,9.77 -7.42,9.87 -7.46,9.97 -7.50,10.07 -7.57,10.15 -7.63,10.23 -7.72,10.29 -7.82,10.35 -7.92,10.37 -8.02,10.39 -8.13,10.38 -8.23,10.37 -8.33,10.33 -8.43,10.29 -8.51,10.21 -8.58,10.14 -8.63,10.05 -8.68,9.95 -8.70,9.85 -8.72,9.74 -8.70,9.64 -8.69,9.53 -8.64,9.44 -8.59,9.35 -8.51,9.27 -8.44,9.20 -8.34,9.15 -8.25,9.11 -8.14,9.09 -8.03,9.08 -7.93,9.10 -7.83,9.13 -7.74,9.18 -7.64,9.23 -7.57,9.31 -7.50,9.39 -7.46,9.49 -7.42,9.59 -7.42,9.70 -7.41,9.80 -7.44,9.91 -7.47,10.01 -7.52,10.10 -7.58,10.19 -7.67,10.25 -7.75,10.32 -7.85,10.35 -7.95,10.39 -8.06,10.39 -8.16,10.39 -8.27,10.35 -8.37,10.32 -8.45,10.26 -8.54,10.19 -8.54,10.19 -8.54,10.19 -9.76,8.75 -10.98,7.30 -11.45,5.97 -11.92,4.65 -11.84,3.23 -11.76,1.82 -11.04,0.25 -10.32,-1.31 -9.23,-2.20 -8.15,-3.10 -6.80,-3.43 -5.46,-3.76 -4.26,-3.47 -3.07,-3.17 -1.34,-1.94 0.39,-0.70 0.46,-0.64 0.54,-0.58 0.61,-0.51 0.67,-0.44 0.71,-0.35 0.75,-0.26 0.78,-0.17 0.80,-0.07 0.79,0.01 0.79,0.11 0.77,0.20 0.74,0.30 0.69,0.38 0.65,0.47 0.58,0.54 0.51,0.61 0.43,0.66 0.35,0.72 0.26,0.75 0.17,0.78 0.07,0.79 -0.01,0.80 -0.11,0.79 -0.21,0.77 -0.30,0.74 -0.39,0.70 -0.39,0.70 L -0.39,0.70 Z"></path></g><g transform="translate(411.3576185503679 142.58472859157595) rotate(0 5.346158410950636 -0.356405122336497)" stroke="none"><path fill="#1e1e1e" d="M -0.18,-0.73 Q -0.18,-0.73 0.58,-1.20 1.35,-1.66 2.54,-1.58 3.72,-1.50 4.31,-1.45 4.90,-1.41 7.43,-1.32 9.95,-1.23 10.06,-1.23 10.17,-1.24 10.27,-1.21 10.37,-1.18 10.46,-1.12 10.55,-1.05 10.61,-0.97 10.67,-0.88 10.70,-0.78 10.74,-0.68 10.73,-0.58 10.73,-0.47 10.70,-0.37 10.66,-0.27 10.60,-0.19 10.53,-0.10 10.44,-0.04 10.35,0.01 10.25,0.03 10.15,0.06 10.04,0.05 9.94,0.04 9.84,0.00 9.74,-0.03 9.66,-0.10 9.58,-0.17 9.53,-0.26 9.47,-0.35 9.45,-0.45 9.43,-0.56 9.44,-0.66 9.46,-0.77 9.50,-0.87 9.55,-0.96 9.62,-1.04 9.70,-1.11 9.79,-1.16 9.89,-1.21 9.99,-1.23 10.10,-1.24 10.20,-1.22 10.31,-1.20 10.40,-1.15 10.49,-1.10 10.56,-1.02 10.64,-0.95 10.68,-0.85 10.72,-0.75 10.73,-0.65 10.74,-0.54 10.72,-0.44 10.69,-0.33 10.64,-0.24 10.58,-0.15 10.50,-0.08 10.42,-0.02 10.32,0.01 10.22,0.05 10.22,0.05 10.22,0.05 7.45,0.65 4.68,1.26 4.04,1.21 3.40,1.15 2.66,1.00 1.92,0.84 1.05,0.79 0.18,0.73 0.09,0.74 0.00,0.75 -0.08,0.74 -0.17,0.73 -0.26,0.70 -0.34,0.67 -0.42,0.61 -0.49,0.56 -0.56,0.49 -0.62,0.43 -0.66,0.35 -0.70,0.27 -0.72,0.18 -0.75,0.09 -0.75,0.00 -0.75,-0.08 -0.72,-0.17 -0.70,-0.26 -0.66,-0.34 -0.62,-0.42 -0.56,-0.49 -0.50,-0.56 -0.42,-0.61 -0.35,-0.66 -0.26,-0.70 -0.18,-0.73 -0.18,-0.73 L -0.18,-0.73 Z"></path></g><g transform="translate(424.18839873664933 156.84116189756477) rotate(0 -0.00003263036131784247 11.761548504091422)" stroke="none"><path fill="#1e1e1e" d="M 0.13,0.78 Q 0.13,0.78 -1.06,1.12 -2.26,1.46 -3.01,1.96 -3.75,2.46 -4.27,2.87 -4.80,3.28 -5.21,3.63 -5.62,3.99 -5.88,4.65 -6.14,5.32 -6.22,5.45 -6.30,5.58 -6.42,5.69 -6.53,5.80 -6.67,5.88 -6.80,5.96 -6.96,6.00 -7.11,6.05 -7.26,6.06 -7.42,6.06 -7.58,6.03 -7.73,6.00 -7.87,5.93 -8.02,5.86 -8.14,5.77 -8.26,5.67 -8.36,5.54 -8.45,5.41 -8.51,5.27 -8.57,5.12 -8.60,4.97 -8.63,4.81 -8.61,4.66 -8.60,4.50 -8.55,4.35 -8.50,4.20 -8.44,3.83 -8.38,3.46 -8.30,3.32 -8.23,3.18 -8.12,3.06 -8.01,2.95 -7.88,2.86 -7.75,2.77 -7.60,2.72 -7.45,2.67 -7.29,2.65 -7.13,2.63 -6.97,2.66 -6.82,2.68 -6.67,2.74 -6.52,2.80 -6.39,2.89 -6.27,2.98 -6.16,3.10 -6.06,3.23 -5.99,3.37 -5.92,3.51 -5.88,3.66 -5.85,3.82 -5.85,3.98 -5.86,4.14 -5.90,4.29 -5.94,4.44 -6.21,4.92 -6.48,5.39 -6.51,6.37 -6.54,7.36 -5.64,8.09 -4.74,8.83 -3.75,8.52 -2.75,8.21 -2.13,7.33 -1.51,6.44 -0.77,5.40 -0.04,4.36 0.42,3.38 0.90,2.40 1.25,1.99 1.60,1.57 1.87,1.49 2.13,1.40 2.25,1.30 2.37,1.19 2.52,1.12 2.66,1.05 2.81,1.01 2.97,0.98 3.13,0.98 3.29,0.98 3.44,1.02 3.60,1.06 3.74,1.13 3.88,1.21 3.99,1.31 4.11,1.42 4.20,1.55 4.29,1.68 4.35,1.83 4.40,1.98 4.42,2.14 4.44,2.30 4.42,2.46 4.40,2.62 4.34,2.76 4.28,2.91 4.19,3.04 4.10,3.17 3.04,2.24 1.98,1.31 2.10,1.21 2.22,1.10 2.36,1.03 2.50,0.96 2.66,0.92 2.81,0.88 2.97,0.88 3.13,0.88 3.29,0.92 3.44,0.96 3.58,1.04 3.72,1.11 3.84,1.22 3.96,1.33 4.05,1.46 4.14,1.59 4.20,1.74 4.25,1.89 4.27,2.05 4.29,2.21 4.27,2.37 4.25,2.53 4.19,2.68 4.13,2.83 4.04,2.96 3.95,3.09 3.84,4.03 3.73,4.97 3.66,5.98 3.59,6.98 3.34,8.35 3.09,9.72 2.77,11.12 2.46,12.53 1.65,14.09 0.84,15.66 -0.36,17.17 -1.56,18.69 -2.93,19.97 -4.30,21.26 -5.28,22.23 -6.27,23.20 -6.11,23.07 -5.95,22.93 -6.06,23.04 -6.17,23.15 -6.31,23.23 -6.44,23.31 -6.59,23.35 -6.74,23.39 -6.90,23.40 -7.06,23.40 -7.21,23.37 -7.36,23.34 -7.50,23.27 -7.64,23.21 -7.76,23.11 -7.88,23.01 -7.98,22.89 -8.07,22.76 -8.13,22.62 -8.19,22.47 -8.22,22.32 -8.24,22.17 -8.23,22.01 -8.22,21.86 -8.17,21.71 -8.12,21.56 -8.03,21.43 -7.95,21.30 -7.70,20.46 -7.44,19.63 -6.45,17.49 -5.45,15.35 -4.17,13.36 -2.90,11.38 -1.49,9.86 -0.07,8.34 1.35,7.08 2.78,5.81 4.90,4.30 7.01,2.80 7.10,2.73 7.18,2.66 7.28,2.62 7.37,2.58 7.48,2.58 7.59,2.57 7.69,2.60 7.79,2.63 7.88,2.69 7.97,2.75 8.03,2.83 8.10,2.92 8.13,3.02 8.16,3.12 8.16,3.23 8.16,3.33 8.13,3.43 8.09,3.53 8.03,3.62 7.96,3.70 7.88,3.76 7.79,3.82 7.69,3.85 7.58,3.88 7.48,3.87 7.37,3.86 7.27,3.82 7.17,3.78 7.09,3.72 7.01,3.65 6.96,3.56 6.90,3.46 6.88,3.36 6.86,3.26 6.87,3.15 6.88,3.05 6.93,2.95 6.97,2.85 7.05,2.78 7.12,2.70 7.21,2.65 7.31,2.60 7.41,2.58 7.52,2.57 7.62,2.58 7.73,2.60 7.82,2.65 7.91,2.70 7.99,2.78 8.06,2.86 8.10,2.95 8.15,3.05 8.16,3.16 8.17,3.26 8.15,3.36 8.12,3.47 8.07,3.56 8.01,3.65 8.01,3.65 8.01,3.65 6.26,5.71 4.50,7.77 3.15,8.94 1.80,10.12 0.53,11.45 -0.74,12.78 -1.93,14.61 -3.12,16.44 -4.07,18.46 -5.02,20.48 -5.48,21.71 -5.95,22.93 -6.06,23.04 -6.17,23.15 -6.31,23.23 -6.44,23.31 -6.59,23.35 -6.74,23.39 -6.90,23.40 -7.05,23.40 -7.21,23.37 -7.36,23.34 -7.50,23.27 -7.64,23.21 -7.76,23.11 -7.88,23.01 -7.98,22.89 -8.07,22.76 -8.13,22.62 -8.19,22.47 -8.22,22.32 -8.24,22.17 -8.23,22.01 -8.22,21.86 -8.17,21.71 -8.12,21.56 -8.03,21.43 -7.95,21.30 -7.56,21.19 -7.16,21.09 -6.63,20.21 -6.10,19.33 -4.86,18.18 -3.62,17.03 -2.55,15.72 -1.49,14.40 -0.81,13.16 -0.12,11.92 0.17,10.58 0.47,9.23 0.70,8.00 0.94,6.77 1.05,5.51 1.16,4.25 1.38,3.29 1.59,2.34 1.78,1.83 1.98,1.31 2.10,1.21 2.22,1.10 2.36,1.03 2.50,0.96 2.66,0.92 2.81,0.88 2.97,0.88 3.13,0.88 3.29,0.92 3.44,0.96 3.58,1.04 3.72,1.11 3.84,1.22 3.96,1.33 4.05,1.46 4.14,1.59 4.20,1.74 4.25,1.89 4.27,2.05 4.29,2.21 4.27,2.37 4.25,2.53 4.19,2.68 4.13,2.83 4.04,2.96 3.95,3.09 3.04,2.25 2.13,1.40 2.25,1.30 2.37,1.19 2.52,1.12 2.66,1.05 2.81,1.01 2.97,0.98 3.13,0.98 3.29,0.98 3.44,1.02 3.60,1.06 3.74,1.13 3.88,1.21 3.99,1.31 4.11,1.42 4.20,1.55 4.29,1.68 4.35,1.83 4.40,1.98 4.42,2.14 4.44,2.30 4.42,2.46 4.40,2.62 4.34,2.76 4.28,2.91 4.19,3.04 4.10,3.17 3.67,3.38 3.24,3.59 2.67,4.73 2.09,5.88 1.32,6.96 0.55,8.04 -0.43,9.23 -1.42,10.43 -2.72,11.00 -4.01,11.57 -5.07,11.29 -6.13,11.02 -7.12,10.30 -8.10,9.58 -8.60,8.54 -9.11,7.50 -9.10,6.30 -9.08,5.09 -8.73,4.28 -8.38,3.46 -8.30,3.32 -8.23,3.18 -8.12,3.06 -8.01,2.95 -7.88,2.86 -7.75,2.77 -7.60,2.72 -7.45,2.67 -7.29,2.65 -7.13,2.63 -6.97,2.66 -6.82,2.68 -6.67,2.74 -6.52,2.80 -6.39,2.89 -6.27,2.98 -6.16,3.10 -6.06,3.23 -5.99,3.37 -5.92,3.51 -5.88,3.66 -5.85,3.82 -5.85,3.98 -5.86,4.14 -5.90,4.29 -5.94,4.44 -6.04,4.88 -6.14,5.32 -6.22,5.45 -6.30,5.58 -6.42,5.69 -6.53,5.80 -6.67,5.88 -6.80,5.96 -6.96,6.00 -7.11,6.05 -7.26,6.06 -7.42,6.06 -7.58,6.03 -7.73,6.00 -7.87,5.93 -8.02,5.86 -8.14,5.77 -8.26,5.67 -8.36,5.54 -8.45,5.41 -8.51,5.27 -8.57,5.12 -8.60,4.97 -8.63,4.81 -8.61,4.66 -8.60,4.50 -8.55,4.35 -8.50,4.20 -8.58,4.47 -8.65,4.73 -8.40,3.77 -8.14,2.80 -7.71,2.40 -7.27,2.00 -6.76,1.59 -6.25,1.19 -5.57,0.76 -4.89,0.34 -3.77,-0.15 -2.65,-0.64 -1.39,-0.71 -0.13,-0.78 -0.03,-0.78 0.06,-0.78 0.15,-0.76 0.24,-0.75 0.33,-0.71 0.42,-0.67 0.49,-0.61 0.56,-0.55 0.62,-0.47 0.68,-0.39 0.72,-0.31 0.75,-0.22 0.77,-0.12 0.79,-0.03 0.78,0.06 0.77,0.15 0.74,0.24 0.71,0.33 0.66,0.41 0.61,0.49 0.54,0.56 0.47,0.63 0.39,0.67 0.31,0.72 0.22,0.75 0.12,0.78 0.12,0.78 L 0.13,0.78 Z"></path></g><g transform="translate(384.270372427736 25.682053795334753) rotate(0 10.69231682190133 -2.49486848671674)" stroke="none"><path fill="#1e1e1e" d="M -0.41,-1.25 Q -0.41,-1.25 3.25,-2.51 6.93,-3.77 9.56,-4.51 12.18,-5.24 14.41,-5.49 16.64,-5.74 18.61,-5.36 20.59,-4.97 20.69,-4.95 20.80,-4.93 20.89,-4.87 20.98,-4.82 21.05,-4.74 21.12,-4.66 21.16,-4.56 21.20,-4.46 21.20,-4.35 21.21,-4.25 21.18,-4.14 21.15,-4.04 21.09,-3.95 21.03,-3.87 20.95,-3.80 20.86,-3.74 20.76,-3.70 20.66,-3.67 20.55,-3.67 20.45,-3.67 20.35,-3.70 20.25,-3.74 20.16,-3.80 20.08,-3.87 20.02,-3.96 19.96,-4.04 19.93,-4.15 19.90,-4.25 19.91,-4.35 19.91,-4.46 19.95,-4.56 19.99,-4.66 20.06,-4.74 20.13,-4.82 20.22,-4.87 20.31,-4.93 20.42,-4.95 20.52,-4.97 20.63,-4.96 20.73,-4.95 20.83,-4.91 20.92,-4.86 21.00,-4.79 21.08,-4.71 21.13,-4.62 21.18,-4.53 21.19,-4.42 21.21,-4.32 21.19,-4.21 21.18,-4.11 21.13,-4.01 21.08,-3.92 21.00,-3.85 20.92,-3.77 20.83,-3.73 20.73,-3.69 20.62,-3.67 20.52,-3.66 20.52,-3.66 20.52,-3.66 18.75,-3.49 16.98,-3.31 14.96,-2.94 12.93,-2.57 10.37,-1.86 7.81,-1.14 4.11,0.05 0.41,1.25 0.26,1.29 0.10,1.32 -0.05,1.31 -0.21,1.30 -0.36,1.26 -0.52,1.21 -0.65,1.13 -0.79,1.05 -0.91,0.94 -1.02,0.83 -1.11,0.70 -1.19,0.56 -1.24,0.41 -1.29,0.26 -1.31,0.10 -1.32,-0.05 -1.29,-0.21 -1.27,-0.36 -1.21,-0.51 -1.14,-0.66 -1.05,-0.79 -0.95,-0.91 -0.83,-1.02 -0.70,-1.12 -0.56,-1.18 -0.41,-1.25 -0.41,-1.25 L -0.41,-1.25 Z"></path></g><g transform="translate(382.1319090633558 49.20515080351757) rotate(0 11.048738259418428 0.35642143751718436)" stroke="none"><path fill="#1e1e1e" d="M 0.13,-0.74 Q 0.13,-0.74 2.42,-0.52 4.71,-0.31 6.31,0.06 7.91,0.45 9.46,0.38 11.00,0.32 13.27,-0.09 15.54,-0.51 18.14,-1.09 20.74,-1.67 20.85,-1.69 20.95,-1.71 21.06,-1.69 21.16,-1.67 21.26,-1.62 21.35,-1.57 21.42,-1.49 21.50,-1.41 21.54,-1.31 21.58,-1.22 21.59,-1.11 21.60,-1.01 21.58,-0.90 21.55,-0.80 21.50,-0.71 21.44,-0.62 21.36,-0.55 21.28,-0.48 21.18,-0.44 21.08,-0.41 20.98,-0.40 20.87,-0.40 20.77,-0.43 20.67,-0.46 20.58,-0.52 20.49,-0.58 20.43,-0.66 20.36,-0.75 20.33,-0.85 20.30,-0.95 20.30,-1.06 20.30,-1.16 20.34,-1.26 20.37,-1.36 20.44,-1.45 20.50,-1.53 20.59,-1.59 20.68,-1.65 20.78,-1.67 20.88,-1.70 20.99,-1.70 21.10,-1.69 21.19,-1.65 21.29,-1.61 21.37,-1.54 21.45,-1.47 21.51,-1.38 21.56,-1.28 21.58,-1.18 21.60,-1.08 21.59,-0.97 21.58,-0.87 21.53,-0.77 21.49,-0.67 21.41,-0.60 21.34,-0.52 21.24,-0.47 21.15,-0.42 21.15,-0.42 21.15,-0.42 18.56,0.67 15.96,1.78 13.52,2.21 11.07,2.65 9.23,2.67 7.39,2.70 5.84,2.32 4.30,1.95 2.08,1.34 -0.13,0.74 -0.22,0.71 -0.30,0.68 -0.38,0.64 -0.46,0.59 -0.52,0.53 -0.59,0.46 -0.64,0.38 -0.68,0.31 -0.71,0.22 -0.74,0.13 -0.74,0.04 -0.75,-0.04 -0.73,-0.13 -0.72,-0.22 -0.68,-0.30 -0.64,-0.38 -0.59,-0.46 -0.53,-0.53 -0.46,-0.58 -0.39,-0.64 -0.30,-0.68 -0.22,-0.71 -0.13,-0.73 -0.04,-0.75 0.04,-0.74 0.13,-0.74 0.13,-0.74 L 0.13,-0.74 Z"></path></g><g transform="translate(389.9729849065652 77.71801741549527) rotate(0 8.197432020003873 -1.425653119707306)" stroke="none"><path fill="#1e1e1e" d="M -0.12,-1.09 Q -0.12,-1.09 1.71,-1.41 3.54,-1.72 5.74,-2.01 7.95,-2.31 9.90,-2.61 11.84,-2.91 13.64,-3.09 15.43,-3.26 15.54,-3.27 15.64,-3.29 15.75,-3.26 15.85,-3.24 15.94,-3.18 16.03,-3.13 16.10,-3.05 16.17,-2.97 16.21,-2.87 16.25,-2.77 16.25,-2.66 16.26,-2.56 16.23,-2.46 16.20,-2.35 16.14,-2.27 16.08,-2.18 16.00,-2.11 15.91,-2.05 15.81,-2.02 15.71,-1.98 15.61,-1.98 15.50,-1.98 15.40,-2.02 15.30,-2.05 15.21,-2.11 15.13,-2.18 15.07,-2.27 15.01,-2.35 14.98,-2.46 14.95,-2.56 14.96,-2.67 14.97,-2.77 15.01,-2.87 15.04,-2.97 15.11,-3.05 15.18,-3.13 15.27,-3.19 15.36,-3.24 15.47,-3.26 15.57,-3.29 15.68,-3.27 15.78,-3.26 15.88,-3.22 15.98,-3.17 16.05,-3.10 16.13,-3.03 16.18,-2.93 16.23,-2.84 16.25,-2.73 16.26,-2.63 16.25,-2.52 16.23,-2.42 16.18,-2.33 16.13,-2.23 16.05,-2.16 15.97,-2.09 15.88,-2.04 15.78,-2.00 15.78,-2.00 15.78,-2.00 14.03,-1.19 12.27,-0.38 10.28,-0.03 8.29,0.32 6.06,0.61 3.83,0.90 1.97,1.00 0.12,1.09 -0.01,1.09 -0.14,1.09 -0.27,1.06 -0.40,1.02 -0.51,0.96 -0.63,0.90 -0.73,0.81 -0.83,0.72 -0.90,0.61 -0.98,0.50 -1.02,0.37 -1.07,0.25 -1.09,0.12 -1.10,-0.01 -1.08,-0.14 -1.07,-0.27 -1.02,-0.39 -0.97,-0.52 -0.89,-0.63 -0.81,-0.74 -0.71,-0.82 -0.61,-0.91 -0.49,-0.97 -0.38,-1.03 -0.25,-1.06 -0.12,-1.09 -0.12,-1.09 L -0.12,-1.09 Z"></path></g><g transform="translate(392.1114482709455 97.6769979395905) rotate(0 5.702547218106417 2.842170943040401e-14)" stroke="none"><path fill="#1e1e1e" d="M 0,-0.77 Q 0,-0.77 0.62,-1.07 1.24,-1.37 2.10,-1.14 2.96,-0.91 3.92,-0.86 4.88,-0.80 6.25,-0.92 7.62,-1.05 9.70,-1.11 11.79,-1.18 11.90,-1.18 12.00,-1.18 12.10,-1.15 12.20,-1.12 12.29,-1.06 12.38,-1.00 12.44,-0.91 12.50,-0.82 12.53,-0.72 12.56,-0.62 12.56,-0.52 12.56,-0.41 12.52,-0.31 12.48,-0.21 12.42,-0.13 12.35,-0.04 12.26,0.00 12.17,0.06 12.07,0.08 11.96,0.11 11.86,0.10 11.75,0.09 11.65,0.05 11.56,0.01 11.48,-0.05 11.40,-0.12 11.35,-0.22 11.29,-0.31 11.28,-0.41 11.26,-0.52 11.27,-0.62 11.28,-0.73 11.33,-0.82 11.38,-0.92 11.45,-0.99 11.53,-1.07 11.63,-1.12 11.72,-1.16 11.83,-1.18 11.93,-1.19 12.04,-1.17 12.14,-1.15 12.23,-1.10 12.32,-1.05 12.40,-0.97 12.47,-0.89 12.51,-0.79 12.55,-0.69 12.56,-0.59 12.57,-0.48 12.54,-0.38 12.51,-0.27 12.46,-0.18 12.40,-0.09 12.32,-0.03 12.23,0.03 12.13,0.06 12.03,0.10 12.03,0.10 12.03,0.10 9.97,0.82 7.91,1.55 6.29,1.76 4.67,1.97 2.94,1.67 1.21,1.37 0.60,1.07 0,0.77 -0.09,0.75 -0.18,0.74 -0.27,0.71 -0.35,0.68 -0.43,0.62 -0.51,0.57 -0.57,0.50 -0.63,0.43 -0.67,0.35 -0.72,0.27 -0.74,0.18 -0.76,0.09 -0.76,-0.00 -0.76,-0.09 -0.74,-0.18 -0.72,-0.27 -0.67,-0.35 -0.63,-0.43 -0.57,-0.50 -0.51,-0.57 -0.43,-0.62 -0.35,-0.68 -0.27,-0.71 -0.18,-0.74 -0.09,-0.75 0.00,-0.77 0.00,-0.77 L 0,-0.77 Z"></path></g><g transform="translate(385.69605817780473 119.06163158339311) rotate(0 7.484621775330879 -0.35642143751718436)" stroke="none"><path fill="#1e1e1e" d="M -0.14,-0.73 Q -0.14,-0.73 0.83,-1.17 1.80,-1.62 3.34,-1.74 4.88,-1.86 5.57,-2.08 6.25,-2.30 7.12,-2.43 7.98,-2.55 9.10,-2.37 10.23,-2.19 12.38,-1.79 14.54,-1.38 14.64,-1.36 14.74,-1.34 14.84,-1.29 14.93,-1.23 15.00,-1.15 15.07,-1.07 15.11,-0.97 15.15,-0.88 15.16,-0.77 15.16,-0.66 15.14,-0.56 15.11,-0.46 15.05,-0.37 14.99,-0.28 14.91,-0.22 14.83,-0.15 14.73,-0.11 14.63,-0.08 14.52,-0.08 14.41,-0.08 14.31,-0.11 14.21,-0.14 14.13,-0.20 14.04,-0.27 13.98,-0.36 13.92,-0.44 13.89,-0.54 13.86,-0.65 13.86,-0.75 13.87,-0.86 13.90,-0.96 13.94,-1.06 14.01,-1.14 14.08,-1.22 14.17,-1.28 14.26,-1.33 14.36,-1.36 14.47,-1.38 14.57,-1.37 14.68,-1.36 14.77,-1.32 14.87,-1.27 14.95,-1.20 15.03,-1.13 15.08,-1.04 15.13,-0.94 15.15,-0.84 15.17,-0.74 15.15,-0.63 15.14,-0.52 15.09,-0.43 15.04,-0.34 14.96,-0.26 14.89,-0.19 14.79,-0.14 14.69,-0.10 14.59,-0.08 14.48,-0.07 14.48,-0.07 14.48,-0.07 12.14,0.10 9.80,0.29 9.05,0.15 8.29,0.00 7.63,0.09 6.98,0.17 6.01,0.43 5.05,0.70 3.67,0.75 2.29,0.80 1.21,0.76 0.14,0.73 0.05,0.73 -0.03,0.74 -0.12,0.73 -0.21,0.71 -0.29,0.68 -0.37,0.64 -0.44,0.59 -0.51,0.53 -0.57,0.46 -0.63,0.39 -0.67,0.31 -0.70,0.23 -0.72,0.14 -0.74,0.05 -0.74,-0.03 -0.73,-0.12 -0.71,-0.20 -0.68,-0.29 -0.64,-0.37 -0.59,-0.45 -0.53,-0.51 -0.47,-0.58 -0.39,-0.62 -0.31,-0.67 -0.23,-0.70 -0.14,-0.73 -0.14,-0.73 L -0.14,-0.73 Z"></path></g><g transform="translate(396.388374999706 144.7231919559562) rotate(0 1.4256204893459312 0)" stroke="none"><path fill="#1e1e1e" d="M 0,-1.30 Q 0,-1.30 0.81,-0.98 1.63,-0.65 1.74,-0.63 1.84,-0.62 1.94,-0.57 2.03,-0.52 2.10,-0.44 2.18,-0.36 2.22,-0.27 2.27,-0.17 2.28,-0.07 2.29,0.03 2.27,0.13 2.24,0.24 2.19,0.33 2.13,0.42 2.05,0.49 1.97,0.56 1.87,0.60 1.78,0.64 1.67,0.64 1.56,0.65 1.46,0.62 1.36,0.59 1.27,0.53 1.18,0.47 1.12,0.39 1.05,0.30 1.02,0.20 0.99,0.10 0.99,-0.00 0.99,-0.10 1.02,-0.20 1.05,-0.30 1.12,-0.39 1.18,-0.47 1.27,-0.53 1.36,-0.59 1.46,-0.62 1.56,-0.65 1.67,-0.64 1.78,-0.64 1.87,-0.60 1.97,-0.56 2.05,-0.49 2.14,-0.42 2.19,-0.33 2.24,-0.24 2.27,-0.13 2.29,-0.03 2.28,0.07 2.27,0.17 2.22,0.27 2.18,0.36 2.10,0.44 2.03,0.52 1.94,0.57 1.84,0.62 1.74,0.63 1.63,0.65 1.63,0.65 1.63,0.65 0.81,0.98 0,1.30 -0.15,1.28 -0.31,1.26 -0.45,1.21 -0.60,1.15 -0.73,1.06 -0.86,0.97 -0.97,0.85 -1.07,0.74 -1.14,0.60 -1.22,0.46 -1.25,0.31 -1.29,0.15 -1.29,-0.00 -1.29,-0.15 -1.25,-0.31 -1.22,-0.46 -1.14,-0.60 -1.07,-0.74 -0.97,-0.86 -0.86,-0.97 -0.73,-1.06 -0.60,-1.15 -0.45,-1.21 -0.31,-1.26 -0.15,-1.28 0.00,-1.30 0.00,-1.30 L 0,-1.30 Z"></path></g><g transform="translate(392.8242258852571 144.01038171128326) rotate(0 9.266696332555398 0)" stroke="none"><path fill="#1e1e1e" d="M 0,-1.29 Q 0,-1.29 4.91,-1.30 9.83,-1.31 12.13,-1.29 14.42,-1.28 16.10,-0.97 17.79,-0.65 17.89,-0.63 18.00,-0.62 18.09,-0.57 18.18,-0.52 18.26,-0.44 18.33,-0.36 18.37,-0.27 18.42,-0.17 18.43,-0.07 18.44,0.03 18.42,0.13 18.40,0.24 18.34,0.33 18.29,0.42 18.21,0.49 18.13,0.56 18.03,0.60 17.93,0.64 17.82,0.64 17.72,0.65 17.61,0.62 17.51,0.59 17.42,0.53 17.34,0.47 17.27,0.39 17.21,0.30 17.17,0.20 17.14,0.10 17.14,-0.00 17.14,-0.10 17.17,-0.20 17.21,-0.30 17.27,-0.39 17.34,-0.47 17.42,-0.53 17.51,-0.59 17.61,-0.62 17.72,-0.65 17.82,-0.64 17.93,-0.64 18.03,-0.60 18.13,-0.56 18.21,-0.49 18.29,-0.42 18.34,-0.33 18.40,-0.24 18.42,-0.13 18.44,-0.03 18.43,0.07 18.42,0.17 18.37,0.27 18.33,0.36 18.26,0.44 18.18,0.52 18.09,0.57 18.00,0.62 17.89,0.63 17.79,0.65 17.79,0.65 17.79,0.65 16.10,0.97 14.42,1.28 12.13,1.29 9.83,1.31 4.91,1.30 0,1.29 -0.15,1.27 -0.31,1.26 -0.45,1.20 -0.60,1.14 -0.73,1.06 -0.86,0.97 -0.96,0.85 -1.06,0.73 -1.14,0.59 -1.21,0.46 -1.25,0.30 -1.28,0.15 -1.28,-0.00 -1.28,-0.15 -1.25,-0.30 -1.21,-0.46 -1.14,-0.59 -1.06,-0.73 -0.96,-0.85 -0.86,-0.97 -0.73,-1.06 -0.60,-1.14 -0.45,-1.20 -0.31,-1.26 -0.15,-1.27 0.00,-1.29 0.00,-1.29 L 0,-1.29 Z"></path></g><g transform="translate(384.270372427736 157.5539721422377) rotate(0 9.62308513971118 1.782058242043803)" stroke="none"><path fill="#1e1e1e" d="M 0.25,-1.19 Q 0.25,-1.19 3.14,-0.65 6.02,-0.11 8.65,0.33 11.28,0.79 13.44,1.19 15.60,1.59 17.07,2.24 18.53,2.88 18.63,2.92 18.72,2.97 18.80,3.04 18.88,3.11 18.93,3.21 18.98,3.30 19.00,3.40 19.01,3.51 19.00,3.61 18.98,3.72 18.93,3.81 18.88,3.91 18.81,3.98 18.73,4.05 18.64,4.10 18.54,4.14 18.43,4.16 18.33,4.17 18.22,4.15 18.12,4.13 18.03,4.07 17.94,4.02 17.87,3.94 17.80,3.86 17.76,3.76 17.72,3.66 17.71,3.55 17.70,3.45 17.73,3.35 17.76,3.24 17.82,3.15 17.88,3.07 17.96,3.00 18.05,2.94 18.15,2.90 18.25,2.87 18.35,2.87 18.46,2.86 18.56,2.90 18.66,2.93 18.75,2.99 18.83,3.06 18.89,3.15 18.95,3.23 18.98,3.33 19.01,3.44 19.01,3.54 19.00,3.65 18.96,3.75 18.92,3.85 18.86,3.93 18.79,4.01 18.70,4.07 18.61,4.12 18.50,4.15 18.40,4.17 18.29,4.16 18.19,4.15 18.19,4.15 18.19,4.15 16.64,4.24 15.09,4.33 12.95,3.93 10.80,3.52 8.12,3.05 5.44,2.57 2.59,1.88 -0.25,1.19 -0.39,1.14 -0.53,1.09 -0.65,1.01 -0.78,0.93 -0.88,0.83 -0.98,0.72 -1.05,0.59 -1.12,0.46 -1.16,0.32 -1.20,0.18 -1.21,0.03 -1.21,-0.11 -1.18,-0.25 -1.15,-0.39 -1.09,-0.53 -1.02,-0.66 -0.93,-0.77 -0.83,-0.89 -0.71,-0.97 -0.60,-1.06 -0.46,-1.12 -0.32,-1.17 -0.18,-1.20 -0.03,-1.22 0.10,-1.20 0.25,-1.19 0.25,-1.19 L 0.25,-1.19 Z"></path></g></svg>