<svg version="1.1" xmlns="http://www.w3.org/2000/svg" viewBox="0 0 769.8828168684922 268" width="769.8828168684922" height="268" class="excalidraw-svg"><!-- svg-source:excalidraw --><metadata></metadata><defs><style class="style-fonts">
      </style></defs><rect x="0" y="0" width="769.8828168684922" height="268" fill="#ffffff"></rect><g stroke-linecap="round" transform="translate(122.66668701171875 10) rotate(0 178.66665649414062 124)"><path d="M32 0 C110.89 -0.79, 189.48 -1.58, 325.33 0 M32 0 C133.58 -2.02, 233.38 -1.65, 325.33 0 M325.33 0 C348.14 -1.63, 355.46 9.83, 357.33 32 M325.33 0 C348.9 -1.34, 359.18 9.59, 357.33 32 M357.33 32 C357.81 70.37, 354.83 108.11, 357.33 216 M357.33 32 C358.04 75.84, 357.72 120.84, 357.33 216 M357.33 216 C359.33 238.53, 345.62 249.54, 325.33 248 M357.33 216 C357.13 236.67, 346.09 246.82, 325.33 248 M325.33 248 C259.99 247.88, 193.5 247.03, 32 248 M325.33 248 C215.23 248.22, 106.4 248.61, 32 248 M32 248 C10.62 247.1, -0.92 239.13, 0 216 M32 248 C8.96 249.46, -1.79 235.07, 0 216 M0 216 C-0.89 164.46, 0.04 107.54, 0 32 M0 216 C-0.85 155.39, -0.22 96.38, 0 32 M0 32 C-1.83 12.44, 10.63 0.41, 32 0 M0 32 C2.09 9.44, 8.64 -2.1, 32 0" stroke="#1e1e1e" stroke-width="2" fill="none"></path></g><g transform="translate(126.66668701171875 120) rotate(0 10.666656494140625 31.333343505859375)" stroke="none"><path fill="#1e1e1e" d="M 1.98,-1.98 Q 1.98,-1.98 4.28,-0.84 6.59,0.28 9.26,1.96 11.93,3.64 14.07,5.43 16.20,7.22 17.79,8.73 19.39,10.25 21.02,11.88 22.65,13.51 24.70,14.66 26.75,15.82 29.24,16.90 31.73,17.98 33.43,20.11 35.13,22.25 34.53,25.09 33.93,27.93 31.59,30.43 29.26,32.93 26.26,35.36 23.26,37.79 20.50,39.85 17.74,41.91 15.91,43.13 14.08,44.36 12.13,45.38 10.18,46.40 7.87,48.79 5.56,51.18 3.19,53.23 0.82,55.29 -1.81,57.98 -4.44,60.68 -5.83,61.88 -7.22,63.08 -7.49,63.41 -7.75,63.74 -8.10,63.98 -8.46,64.21 -8.87,64.32 -9.28,64.42 -9.71,64.39 -10.13,64.37 -10.52,64.20 -10.91,64.04 -11.23,63.76 -11.55,63.48 -11.77,63.11 -11.98,62.74 -12.07,62.33 -12.15,61.91 -12.10,61.49 -12.05,61.07 -11.86,60.68 -11.68,60.30 -11.38,60.00 -11.08,59.69 -10.70,59.50 -10.33,59.31 -9.91,59.25 -9.48,59.18 -9.07,59.26 -8.65,59.33 -8.28,59.54 -7.90,59.74 -7.62,60.06 -7.33,60.37 -7.16,60.76 -6.98,61.15 -6.95,61.57 -6.91,61.99 -7.00,62.41 -7.10,62.82 -7.33,63.18 -7.55,63.54 -7.88,63.81 -8.21,64.08 -8.60,64.23 -9.00,64.38 -9.43,64.40 -9.85,64.42 -10.26,64.30 -10.67,64.18 -11.01,63.93 -11.36,63.69 -11.61,63.35 -11.87,63.00 -12.00,62.60 -12.12,62.19 -12.12,61.77 -12.11,61.34 -11.97,60.94 -11.83,60.54 -11.83,60.54 -11.83,60.54 -9.92,56.46 -8.01,52.37 -5.61,49.49 -3.21,46.61 -1.48,44.65 0.25,42.69 2.86,40.15 5.47,37.62 8.51,35.68 11.56,33.74 14.19,31.69 16.82,29.63 19.50,27.43 22.19,25.22 24.12,23.44 26.05,21.66 26.45,23.79 26.85,25.92 24.70,24.84 22.55,23.76 20.45,22.55 18.34,21.34 16.30,19.70 14.27,18.07 12.63,16.45 10.99,14.82 9.34,13.46 7.68,12.10 6.02,10.75 4.36,9.41 2.33,8.01 0.30,6.61 -0.83,4.29 -1.98,1.98 -2.19,1.71 -2.40,1.45 -2.53,1.14 -2.67,0.83 -2.73,0.50 -2.79,0.16 -2.77,-0.16 -2.75,-0.50 -2.65,-0.82 -2.55,-1.15 -2.38,-1.44 -2.20,-1.72 -1.96,-1.96 -1.72,-2.20 -1.44,-2.38 -1.15,-2.55 -0.82,-2.65 -0.50,-2.75 -0.16,-2.77 0.16,-2.79 0.50,-2.73 0.83,-2.67 1.14,-2.53 1.45,-2.39 1.71,-2.19 1.98,-1.98 1.98,-1.98 L 1.98,-1.98 Z"></path></g><g transform="translate(190.66668701171875 134) rotate(0 -6 13.333343505859375)" stroke="none"><path fill="#1e1e1e" d="M 0.27,2.71 Q 0.27,2.71 -1.56,3.43 -3.40,4.14 -5.06,5.64 -6.71,7.14 -7.24,9.50 -7.77,11.86 -8.06,14.21 -8.35,16.56 -7.76,19.28 -7.17,22.00 -6.13,23.52 -5.08,25.04 -4.89,25.42 -4.70,25.80 -4.64,26.22 -4.58,26.64 -4.66,27.05 -4.73,27.47 -4.94,27.84 -5.15,28.21 -5.46,28.50 -5.78,28.79 -6.17,28.96 -6.56,29.13 -6.98,29.16 -7.40,29.20 -7.82,29.10 -8.23,29.00 -8.59,28.77 -8.95,28.55 -9.22,28.22 -9.48,27.89 -9.63,27.49 -9.78,27.09 -9.80,26.67 -9.81,26.24 -9.69,25.83 -9.57,25.43 -9.32,25.08 -9.07,24.73 -8.73,24.48 -8.39,24.23 -7.98,24.11 -7.57,23.98 -7.15,23.99 -6.73,24.00 -6.33,24.14 -5.93,24.29 -5.59,24.55 -5.26,24.82 -5.03,25.17 -4.80,25.53 -4.69,25.94 -4.59,26.35 -4.62,26.78 -4.65,27.20 -4.82,27.59 -4.98,27.98 -5.27,28.30 -5.55,28.62 -5.92,28.83 -6.29,29.04 -6.70,29.12 -7.12,29.21 -7.54,29.15 -7.96,29.10 -8.34,28.91 -8.73,28.72 -9.03,28.42 -9.33,28.13 -9.33,28.13 -9.33,28.13 -11.67,24.42 -14.02,20.72 -14.38,18.28 -14.73,15.84 -14.41,13.06 -14.09,10.28 -13.18,6.89 -12.26,3.49 -10.43,1.05 -8.60,-1.38 -6.43,-2.37 -4.25,-3.37 -2.26,-3.04 -0.27,-2.71 0.05,-2.71 0.38,-2.70 0.70,-2.61 1.02,-2.53 1.31,-2.37 1.59,-2.21 1.84,-1.99 2.08,-1.76 2.26,-1.49 2.44,-1.21 2.55,-0.90 2.66,-0.59 2.69,-0.26 2.72,0.05 2.68,0.38 2.63,0.70 2.51,1.01 2.39,1.32 2.19,1.58 2.00,1.85 1.75,2.06 1.50,2.27 1.20,2.42 0.91,2.57 0.59,2.64 0.27,2.71 0.27,2.71 L 0.27,2.71 Z"></path></g><g transform="translate(202.66668701171875 142) rotate(0 8 3.6666717529296875)" stroke="none"><path fill="#1e1e1e" d="M -1.65,-2.48 Q -1.65,-2.48 0.00,-3.73 1.66,-4.98 4.75,-6.47 7.84,-7.96 10.11,-8.85 12.37,-9.73 15.31,-8.95 18.25,-8.16 18.92,-5.18 19.59,-2.20 19.45,1.94 19.31,6.09 17.62,10.27 15.93,14.44 15.75,14.83 15.57,15.21 15.27,15.51 14.97,15.82 14.59,16.01 14.22,16.20 13.80,16.27 13.38,16.33 12.96,16.25 12.54,16.18 12.17,15.97 11.79,15.77 11.51,15.46 11.22,15.14 11.05,14.76 10.87,14.37 10.83,13.94 10.79,13.52 10.89,13.11 10.99,12.69 11.21,12.33 11.44,11.97 11.77,11.70 12.09,11.43 12.49,11.28 12.89,11.13 13.31,11.11 13.74,11.10 14.14,11.22 14.55,11.34 14.90,11.58 15.25,11.82 15.50,12.16 15.75,12.51 15.88,12.91 16.01,13.32 16.01,13.74 16.00,14.17 15.86,14.57 15.72,14.97 15.45,15.30 15.19,15.64 14.84,15.87 14.48,16.10 14.07,16.21 13.66,16.32 13.23,16.29 12.81,16.26 12.42,16.10 12.03,15.93 11.71,15.65 11.39,15.37 11.17,15.01 10.96,14.64 10.87,14.22 10.79,13.81 10.84,13.38 10.89,12.96 10.89,12.96 10.89,12.96 11.39,9.19 11.88,5.41 11.27,1.68 10.66,-2.04 7.95,-0.82 5.23,0.38 3.44,1.43 1.65,2.48 1.33,2.64 1.01,2.80 0.66,2.88 0.31,2.96 -0.04,2.95 -0.40,2.95 -0.75,2.86 -1.10,2.76 -1.41,2.59 -1.73,2.42 -1.99,2.18 -2.26,1.94 -2.46,1.64 -2.66,1.34 -2.78,1.00 -2.90,0.66 -2.94,0.30 -2.98,-0.04 -2.93,-0.40 -2.88,-0.76 -2.74,-1.09 -2.61,-1.42 -2.40,-1.72 -2.19,-2.01 -1.92,-2.24 -1.65,-2.48 -1.65,-2.48 L -1.65,-2.48 Z"></path></g><g transform="translate(138 56.66668701171875) rotate(0 6.666656494140625 -1.333343505859375)" stroke="none"><path fill="#1e1e1e" d="M -2.00,-1.82 Q -2.00,-1.82 -0.16,-3.99 1.68,-6.17 4.01,-8.93 6.34,-11.69 8.22,-13.36 10.10,-15.03 12.27,-14.27 14.45,-13.52 15.31,-10.22 16.18,-6.91 15.46,-3.50 14.74,-0.08 14.11,2.37 13.47,4.83 13.10,7.07 12.74,9.31 12.61,9.72 12.49,10.13 12.24,10.47 11.99,10.82 11.65,11.06 11.30,11.31 10.90,11.44 10.49,11.56 10.07,11.55 9.64,11.54 9.24,11.39 8.84,11.25 8.51,10.98 8.18,10.71 7.95,10.36 7.72,10.00 7.62,9.59 7.52,9.17 7.55,8.75 7.59,8.33 7.75,7.94 7.92,7.55 8.21,7.23 8.49,6.91 8.86,6.70 9.23,6.49 9.65,6.41 10.06,6.33 10.48,6.39 10.91,6.45 11.29,6.64 11.67,6.83 11.97,7.13 12.27,7.43 12.46,7.81 12.65,8.19 12.70,8.61 12.76,9.03 12.68,9.45 12.60,9.87 12.39,10.24 12.18,10.61 11.87,10.89 11.55,11.17 11.16,11.34 10.77,11.51 10.35,11.54 9.92,11.58 9.51,11.48 9.10,11.37 8.74,11.14 8.38,10.92 8.12,10.58 7.85,10.25 7.70,9.85 7.56,9.46 7.54,9.03 7.53,8.61 7.53,8.61 7.53,8.61 7.81,6.15 8.08,3.70 8.83,-0.28 9.58,-4.27 10.73,-6.86 11.89,-9.44 10.38,-7.55 8.86,-5.65 7.42,-3.95 5.98,-2.26 3.99,-0.21 2.00,1.82 1.76,2.04 1.51,2.25 1.22,2.40 0.93,2.55 0.61,2.62 0.29,2.69 -0.03,2.69 -0.36,2.69 -0.67,2.60 -0.99,2.52 -1.28,2.37 -1.57,2.21 -1.81,1.99 -2.05,1.77 -2.23,1.50 -2.42,1.23 -2.53,0.92 -2.64,0.61 -2.68,0.29 -2.71,-0.03 -2.67,-0.35 -2.62,-0.68 -2.50,-0.98 -2.38,-1.29 -2.19,-1.56 -2.00,-1.82 -2.00,-1.82 L -2.00,-1.82 Z"></path></g><g transform="translate(178 38) rotate(0 -2 15)" stroke="none"><path fill="#1e1e1e" d="M 2.79,0.16 Q 2.79,0.16 2.83,3.43 2.86,6.70 2.40,10.14 1.94,13.57 1.33,16.43 0.72,19.28 -0.02,21.99 -0.77,24.69 -1.33,27.01 -1.90,29.32 -2.03,29.72 -2.16,30.12 -2.42,30.46 -2.67,30.80 -3.02,31.05 -3.37,31.29 -3.78,31.40 -4.19,31.52 -4.61,31.50 -5.04,31.48 -5.43,31.33 -5.83,31.17 -6.16,30.90 -6.48,30.63 -6.70,30.27 -6.93,29.90 -7.02,29.49 -7.11,29.08 -7.07,28.65 -7.03,28.23 -6.85,27.84 -6.68,27.46 -6.39,27.15 -6.10,26.83 -5.73,26.63 -5.35,26.43 -4.93,26.36 -4.51,26.29 -4.09,26.35 -3.67,26.42 -3.30,26.61 -2.92,26.81 -2.63,27.12 -2.33,27.42 -2.15,27.81 -1.97,28.19 -1.92,28.61 -1.87,29.03 -1.96,29.45 -2.05,29.87 -2.26,30.23 -2.48,30.60 -2.80,30.87 -3.12,31.15 -3.51,31.31 -3.91,31.47 -4.33,31.50 -4.76,31.53 -5.17,31.42 -5.58,31.31 -5.93,31.07 -6.28,30.83 -6.54,30.50 -6.80,30.16 -6.94,29.76 -7.08,29.36 -7.09,28.93 -7.09,28.51 -7.09,28.51 -7.09,28.51 -6.89,25.91 -6.69,23.31 -6.18,20.62 -5.67,17.93 -5.12,15.29 -4.56,12.66 -4.10,9.49 -3.63,6.32 -3.21,3.08 -2.79,-0.16 -2.73,-0.49 -2.67,-0.82 -2.53,-1.13 -2.39,-1.44 -2.18,-1.70 -1.98,-1.97 -1.71,-2.18 -1.45,-2.39 -1.14,-2.53 -0.83,-2.66 -0.50,-2.73 -0.17,-2.79 0.16,-2.77 0.49,-2.75 0.82,-2.65 1.14,-2.55 1.43,-2.37 1.72,-2.20 1.96,-1.96 2.19,-1.72 2.37,-1.44 2.54,-1.15 2.64,-0.83 2.75,-0.50 2.77,-0.17 2.79,0.16 2.79,0.16 L 2.79,0.16 Z"></path></g><g transform="translate(180.66668701171875 37.333343505859375) rotate(0 5.666656494140625 19.333343505859375)" stroke="none"><path fill="#1e1e1e" d="M 0.64,-2.79 Q 0.64,-2.79 3.18,-2.44 5.73,-2.09 8.91,-1.21 12.09,-0.34 14.29,1.49 16.48,3.32 17.93,5.11 19.38,6.89 20.69,10.35 22.00,13.80 22.04,15.95 22.09,18.10 21.49,20.79 20.89,23.47 20.23,25.56 19.57,27.64 17.90,29.96 16.23,32.29 14.30,34.09 12.37,35.90 9.67,38.11 6.98,40.31 5.03,41.22 3.09,42.13 -0.21,42.58 -3.52,43.04 -5.52,42.49 -7.52,41.94 -7.94,41.89 -8.36,41.83 -8.74,41.64 -9.13,41.46 -9.43,41.16 -9.73,40.86 -9.92,40.48 -10.11,40.10 -10.17,39.68 -10.23,39.26 -10.15,38.84 -10.08,38.42 -9.87,38.05 -9.66,37.68 -9.35,37.40 -9.03,37.11 -8.64,36.94 -8.25,36.77 -7.83,36.73 -7.41,36.70 -6.99,36.80 -6.58,36.90 -6.22,37.12 -5.86,37.35 -5.59,37.68 -5.33,38.01 -5.18,38.41 -5.03,38.81 -5.01,39.23 -5.00,39.66 -5.12,40.06 -5.25,40.47 -5.49,40.82 -5.74,41.16 -6.08,41.41 -6.42,41.66 -6.83,41.79 -7.24,41.92 -7.66,41.91 -8.09,41.90 -8.49,41.75 -8.89,41.61 -9.22,41.34 -9.55,41.08 -9.78,40.72 -10.01,40.37 -10.12,39.95 -10.22,39.54 -10.19,39.12 -10.16,38.70 -9.99,38.30 -9.83,37.91 -9.54,37.59 -9.26,37.28 -8.89,37.07 -8.52,36.85 -8.11,36.77 -7.69,36.69 -7.69,36.69 -7.69,36.69 -3.80,35.69 0.07,34.69 2.50,33.41 4.94,32.14 7.78,29.96 10.62,27.78 12.38,24.77 14.15,21.76 14.78,18.49 15.41,15.23 14.79,13.13 14.17,11.04 11.99,8.46 9.80,5.89 7.02,5.14 4.23,4.39 1.79,3.59 -0.64,2.79 -0.97,2.67 -1.29,2.56 -1.58,2.36 -1.87,2.17 -2.10,1.92 -2.33,1.66 -2.50,1.36 -2.66,1.05 -2.75,0.72 -2.84,0.38 -2.84,0.04 -2.85,-0.30 -2.77,-0.64 -2.69,-0.97 -2.54,-1.28 -2.38,-1.59 -2.16,-1.85 -1.93,-2.12 -1.65,-2.32 -1.37,-2.52 -1.04,-2.64 -0.72,-2.77 -0.38,-2.82 -0.04,-2.87 0.30,-2.83 0.64,-2.79 0.64,-2.79 L 0.64,-2.79 Z"></path></g><g transform="translate(67.33331298828125 60.66668701171875) rotate(0 29.333343505859375 -0.333343505859375)" stroke="none"><path fill="#1e1e1e" d="M 0,-2.73 Q 0,-2.73 2.10,-2.90 4.21,-3.07 7.43,-3.45 10.65,-3.83 14.19,-4.13 17.74,-4.43 21.85,-4.57 25.95,-4.71 28.20,-4.54 30.44,-4.36 33.67,-4.05 36.90,-3.73 40.10,-3.40 43.30,-3.07 45.59,-3.14 47.88,-3.20 50.14,-3.04 52.40,-2.88 54.54,-2.52 56.67,-2.16 58.94,-0.74 61.21,0.67 61.23,1.09 61.25,1.51 61.14,1.92 61.03,2.33 60.79,2.69 60.55,3.04 60.22,3.30 59.88,3.55 59.48,3.69 59.07,3.83 58.65,3.83 58.22,3.83 57.82,3.70 57.42,3.56 57.08,3.30 56.74,3.05 56.50,2.70 56.26,2.35 56.15,1.94 56.03,1.53 56.05,1.10 56.07,0.68 56.23,0.28 56.39,-0.10 56.66,-0.43 56.94,-0.75 57.30,-0.97 57.66,-1.19 58.08,-1.28 58.49,-1.38 58.92,-1.33 59.34,-1.29 59.72,-1.11 60.11,-0.93 60.42,-0.64 60.73,-0.35 60.93,0.02 61.13,0.39 61.20,0.81 61.27,1.23 61.20,1.65 61.13,2.07 60.93,2.45 60.74,2.82 60.43,3.11 60.12,3.41 59.74,3.59 59.35,3.77 58.93,3.81 58.51,3.86 58.09,3.77 57.67,3.68 57.31,3.46 56.95,3.24 56.67,2.92 56.39,2.60 56.24,2.20 56.08,1.81 56.08,1.81 56.08,1.81 55.20,2.29 54.32,2.78 52.19,2.49 50.06,2.20 47.86,2.40 45.66,2.60 42.57,2.27 39.49,1.94 36.45,1.64 33.41,1.34 29.73,1.09 26.06,0.84 23.87,0.89 21.67,0.93 18.29,1.31 14.91,1.69 11.75,2.15 8.59,2.61 6.40,2.84 4.21,3.07 2.10,2.90 0,2.73 -0.32,2.69 -0.65,2.65 -0.96,2.54 -1.27,2.42 -1.54,2.23 -1.81,2.04 -2.03,1.80 -2.25,1.55 -2.40,1.26 -2.56,0.97 -2.63,0.65 -2.71,0.32 -2.71,-0.00 -2.71,-0.33 -2.63,-0.65 -2.56,-0.97 -2.40,-1.26 -2.25,-1.55 -2.03,-1.80 -1.81,-2.04 -1.54,-2.23 -1.27,-2.42 -0.96,-2.54 -0.65,-2.65 -0.32,-2.69 0.00,-2.73 0.00,-2.73 L 0,-2.73 Z"></path></g><g transform="translate(102 152.66668701171875) rotate(0 9.666656494140625 1)" stroke="none"><path fill="#1e1e1e" d="M 0.53,-2.65 Q 0.53,-2.65 2.43,-2.23 4.34,-1.80 6.90,-1.60 9.46,-1.39 12.18,-1.35 14.90,-1.30 17.06,-0.97 19.23,-0.63 19.65,-0.54 20.06,-0.45 20.43,-0.24 20.79,-0.02 21.07,0.29 21.35,0.61 21.51,1.00 21.67,1.39 21.70,1.82 21.73,2.24 21.62,2.65 21.51,3.06 21.28,3.42 21.04,3.77 20.71,4.03 20.37,4.29 19.97,4.43 19.57,4.57 19.14,4.58 18.72,4.58 18.31,4.45 17.91,4.32 17.57,4.07 17.23,3.81 16.99,3.46 16.74,3.11 16.63,2.71 16.51,2.30 16.53,1.87 16.54,1.45 16.70,1.05 16.85,0.66 17.12,0.33 17.39,0.00 17.76,-0.21 18.12,-0.43 18.53,-0.53 18.95,-0.63 19.37,-0.58 19.79,-0.54 20.18,-0.37 20.57,-0.19 20.88,0.09 21.19,0.37 21.39,0.75 21.60,1.12 21.67,1.54 21.74,1.96 21.68,2.38 21.61,2.80 21.42,3.18 21.22,3.55 20.92,3.85 20.61,4.14 20.23,4.33 19.84,4.51 19.42,4.56 19.00,4.61 19.00,4.61 19.00,4.61 16.93,4.28 14.86,3.95 12.02,3.90 9.19,3.85 6.25,3.59 3.31,3.34 1.39,2.99 -0.53,2.65 -0.84,2.55 -1.15,2.45 -1.42,2.27 -1.70,2.10 -1.93,1.87 -2.15,1.63 -2.32,1.35 -2.48,1.07 -2.57,0.75 -2.67,0.44 -2.68,0.11 -2.70,-0.20 -2.63,-0.52 -2.57,-0.84 -2.43,-1.14 -2.29,-1.43 -2.08,-1.69 -1.88,-1.94 -1.62,-2.14 -1.36,-2.34 -1.06,-2.46 -0.76,-2.59 -0.44,-2.65 -0.11,-2.70 0.20,-2.68 0.53,-2.65 0.53,-2.65 L 0.53,-2.65 Z"></path></g><g transform="translate(19.33331298828125 30.66668701171875) rotate(0 -2.666656494140625 20.666656494140625)" stroke="none"><path fill="#1e1e1e" d="M 2.76,0.26 Q 2.76,0.26 2.50,4.30 2.24,8.33 1.71,11.87 1.17,15.40 0.47,20.15 -0.22,24.90 -0.40,27.34 -0.59,29.78 -0.88,31.91 -1.17,34.05 -1.90,37.52 -2.64,40.99 -2.76,41.40 -2.88,41.81 -3.12,42.16 -3.37,42.51 -3.71,42.76 -4.05,43.01 -4.46,43.14 -4.86,43.27 -5.29,43.26 -5.71,43.25 -6.11,43.11 -6.51,42.97 -6.85,42.71 -7.18,42.44 -7.41,42.09 -7.65,41.73 -7.75,41.32 -7.86,40.91 -7.83,40.48 -7.80,40.06 -7.64,39.67 -7.47,39.28 -7.19,38.96 -6.91,38.64 -6.54,38.43 -6.18,38.21 -5.76,38.13 -5.34,38.04 -4.92,38.10 -4.50,38.15 -4.12,38.33 -3.74,38.52 -3.43,38.82 -3.13,39.11 -2.94,39.49 -2.74,39.87 -2.68,40.29 -2.62,40.71 -2.69,41.13 -2.77,41.55 -2.98,41.92 -3.18,42.29 -3.49,42.58 -3.81,42.87 -4.20,43.04 -4.59,43.21 -5.01,43.25 -5.43,43.29 -5.84,43.19 -6.26,43.09 -6.62,42.87 -6.98,42.64 -7.25,42.31 -7.52,41.98 -7.67,41.59 -7.82,41.19 -7.84,40.77 -7.85,40.34 -7.85,40.34 -7.85,40.34 -7.75,38.79 -7.65,37.25 -7.22,33.26 -6.79,29.28 -6.57,26.58 -6.35,23.88 -5.62,19.16 -4.89,14.43 -4.33,11.10 -3.77,7.76 -3.27,3.74 -2.76,-0.26 -2.69,-0.59 -2.62,-0.91 -2.47,-1.21 -2.32,-1.52 -2.11,-1.77 -1.89,-2.03 -1.62,-2.23 -1.35,-2.42 -1.04,-2.55 -0.73,-2.68 -0.40,-2.73 -0.07,-2.78 0.26,-2.74 0.59,-2.71 0.91,-2.60 1.22,-2.49 1.50,-2.31 1.79,-2.12 2.01,-1.88 2.24,-1.63 2.41,-1.34 2.57,-1.05 2.66,-0.72 2.75,-0.40 2.76,-0.07 2.76,0.26 2.76,0.26 L 2.76,0.26 Z"></path></g><g transform="translate(19.33331298828125 30.66668701171875) rotate(0 8.666671752929688 18.666656494140625)" stroke="none"><path fill="#1e1e1e" d="M 0.68,-2.72 Q 0.68,-2.72 3.01,-2.26 5.35,-1.80 8.55,-0.11 11.76,1.58 15.14,3.20 18.53,4.82 20.83,6.76 23.13,8.71 23.86,12.52 24.60,16.34 23.93,18.50 23.27,20.66 22.08,22.52 20.89,24.38 19.34,26.03 17.78,27.67 15.91,29.19 14.03,30.71 12.52,32.31 11.01,33.91 8.05,36.33 5.08,38.75 0.60,39.31 -3.87,39.88 -4.30,39.86 -4.72,39.84 -5.12,39.69 -5.51,39.54 -5.84,39.27 -6.17,39.00 -6.39,38.64 -6.62,38.28 -6.71,37.86 -6.81,37.45 -6.77,37.03 -6.73,36.60 -6.56,36.21 -6.39,35.83 -6.10,35.51 -5.81,35.20 -5.44,35.00 -5.06,34.79 -4.65,34.72 -4.23,34.64 -3.81,34.71 -3.39,34.77 -3.01,34.96 -2.63,35.16 -2.33,35.46 -2.04,35.77 -1.85,36.15 -1.67,36.53 -1.62,36.95 -1.57,37.38 -1.65,37.79 -1.74,38.21 -1.95,38.58 -2.17,38.94 -2.49,39.22 -2.81,39.50 -3.20,39.66 -3.59,39.83 -4.02,39.86 -4.44,39.89 -4.85,39.78 -5.26,39.67 -5.62,39.44 -5.97,39.20 -6.23,38.87 -6.49,38.53 -6.64,38.13 -6.78,37.73 -6.78,37.31 -6.79,36.88 -6.66,36.48 -6.53,36.07 -6.28,35.73 -6.02,35.39 -5.68,35.15 -5.33,34.90 -4.92,34.78 -4.51,34.66 -4.51,34.66 -4.51,34.66 -1.68,33.51 1.15,32.36 3.57,30.67 6.00,28.98 9.49,25.92 12.99,22.87 15.06,20.64 17.14,18.41 17.84,16.06 18.53,13.71 17.06,11.79 15.59,9.87 12.31,8.23 9.02,6.58 6.43,5.34 3.84,4.10 1.58,3.41 -0.68,2.72 -0.99,2.59 -1.31,2.47 -1.58,2.28 -1.86,2.09 -2.09,1.83 -2.31,1.58 -2.46,1.28 -2.62,0.98 -2.70,0.65 -2.78,0.32 -2.78,-0.00 -2.78,-0.34 -2.70,-0.67 -2.61,-1.00 -2.46,-1.30 -2.30,-1.60 -2.07,-1.85 -1.85,-2.10 -1.57,-2.29 -1.29,-2.48 -0.97,-2.60 -0.66,-2.72 -0.32,-2.76 0.00,-2.80 0.34,-2.76 0.68,-2.72 0.68,-2.72 L 0.68,-2.72 Z"></path></g><g transform="translate(40 120.66668701171875) rotate(0 -14.666656494140625 23.666656494140625)" stroke="none"><path fill="#1e1e1e" d="M 0.33,2.97 Q 0.33,2.97 -1.36,3.44 -3.05,3.92 -5.89,4.35 -8.73,4.79 -11.42,6.49 -14.10,8.18 -15.93,9.64 -17.76,11.11 -20.71,14.28 -23.66,17.46 -24.55,19.71 -25.44,21.96 -25.82,24.28 -26.20,26.59 -25.08,29.99 -23.96,33.39 -22.57,35.33 -21.19,37.27 -19.60,38.69 -18.01,40.11 -15.93,41.39 -13.86,42.67 -11.42,43.11 -8.99,43.55 -4.97,44.05 -0.95,44.55 -0.54,44.65 -0.13,44.76 0.22,44.99 0.58,45.22 0.84,45.55 1.10,45.89 1.25,46.29 1.39,46.69 1.40,47.11 1.41,47.54 1.28,47.94 1.15,48.35 0.90,48.69 0.65,49.03 0.30,49.28 -0.04,49.52 -0.44,49.65 -0.85,49.77 -1.27,49.75 -1.70,49.74 -2.10,49.59 -2.49,49.44 -2.82,49.17 -3.15,48.90 -3.38,48.54 -3.60,48.18 -3.70,47.77 -3.80,47.35 -3.77,46.93 -3.73,46.51 -3.56,46.12 -3.39,45.73 -3.10,45.42 -2.81,45.10 -2.44,44.90 -2.07,44.69 -1.65,44.61 -1.23,44.54 -0.81,44.60 -0.39,44.66 -0.01,44.85 0.36,45.04 0.65,45.34 0.95,45.65 1.14,46.03 1.32,46.41 1.38,46.83 1.43,47.26 1.35,47.67 1.26,48.09 1.05,48.46 0.84,48.82 0.52,49.11 0.20,49.39 -0.18,49.55 -0.57,49.72 -0.99,49.75 -1.42,49.78 -1.42,49.78 -1.42,49.78 -5.81,49.52 -10.21,49.27 -13.56,48.47 -16.90,47.67 -19.41,46.02 -21.91,44.37 -23.88,42.52 -25.85,40.66 -27.43,38.50 -29.01,36.33 -30.48,33.67 -31.95,31.01 -32.20,28.29 -32.45,25.56 -31.91,22.57 -31.38,19.58 -30.13,16.57 -28.88,13.57 -27.07,11.18 -25.27,8.79 -23.68,7.28 -22.08,5.78 -20.21,4.24 -18.34,2.70 -14.44,0.33 -10.54,-2.02 -7.19,-2.59 -3.84,-3.15 -2.08,-3.06 -0.33,-2.97 0.03,-2.96 0.39,-2.96 0.73,-2.87 1.08,-2.78 1.40,-2.61 1.72,-2.44 1.98,-2.20 2.25,-1.95 2.45,-1.66 2.66,-1.36 2.78,-1.02 2.90,-0.68 2.94,-0.32 2.98,0.03 2.94,0.38 2.89,0.74 2.76,1.08 2.63,1.41 2.42,1.71 2.21,2.00 1.94,2.24 1.67,2.47 1.35,2.64 1.03,2.80 0.68,2.88 0.32,2.97 0.32,2.97 L 0.33,2.97 Z"></path></g><g transform="translate(482.8142213887163 80.11879912887983) rotate(0 93.16812736631059 4.871531425582248)" stroke="none"><path fill="#1e1e1e" d="M 0.30,-2.78 Q 0.30,-2.78 1.91,-2.91 3.52,-3.04 7.74,-2.50 11.95,-1.97 14.89,-1.68 17.82,-1.39 20.94,-0.91 24.07,-0.42 27.71,-0.05 31.35,0.30 35.63,0.45 39.91,0.61 45.24,0.68 50.56,0.75 56.28,0.59 62.00,0.44 68.11,0.20 74.22,-0.03 81.56,-0.26 88.89,-0.50 96.29,-0.43 103.68,-0.37 110.55,0.01 117.41,0.39 123.62,0.75 129.83,1.10 136.40,1.79 142.97,2.47 148.55,3.10 154.12,3.73 159.02,4.53 163.92,5.33 168.40,6.00 172.88,6.67 176.25,6.94 179.63,7.21 181.77,7.32 183.91,7.42 185.44,7.86 186.98,8.30 187.40,8.39 187.81,8.48 188.18,8.69 188.54,8.91 188.82,9.23 189.10,9.55 189.26,9.95 189.42,10.34 189.44,10.77 189.47,11.19 189.36,11.60 189.25,12.01 189.01,12.36 188.77,12.72 188.44,12.98 188.10,13.24 187.70,13.37 187.30,13.51 186.87,13.51 186.45,13.52 186.04,13.38 185.64,13.25 185.30,13.00 184.96,12.74 184.72,12.39 184.48,12.04 184.36,11.63 184.25,11.22 184.27,10.80 184.29,10.37 184.44,9.98 184.60,9.58 184.87,9.26 185.14,8.93 185.51,8.71 185.87,8.49 186.28,8.39 186.70,8.30 187.12,8.34 187.54,8.39 187.93,8.56 188.32,8.74 188.63,9.03 188.94,9.32 189.14,9.69 189.34,10.07 189.41,10.49 189.48,10.91 189.42,11.33 189.35,11.75 189.15,12.12 188.96,12.50 188.65,12.79 188.34,13.09 187.96,13.27 187.57,13.45 187.15,13.50 186.73,13.55 186.73,13.55 186.73,13.55 185.13,13.84 183.52,14.13 181.30,13.98 179.07,13.83 175.47,13.52 171.88,13.21 167.36,12.50 162.85,11.80 158.12,11.01 153.38,10.22 147.84,9.58 142.30,8.95 135.89,8.29 129.48,7.64 123.26,7.33 117.05,7.01 110.34,6.65 103.63,6.28 96.39,6.24 89.15,6.19 81.82,6.50 74.48,6.82 68.33,7.06 62.17,7.29 56.32,7.43 50.48,7.57 45.07,7.50 39.66,7.43 35.16,7.27 30.67,7.10 26.84,6.71 23.01,6.32 20.08,5.86 17.15,5.39 14.10,5.09 11.05,4.79 6.91,4.27 2.77,3.74 1.23,3.26 -0.30,2.78 -0.63,2.70 -0.96,2.62 -1.26,2.47 -1.56,2.31 -1.82,2.09 -2.07,1.87 -2.26,1.60 -2.46,1.32 -2.58,1.01 -2.70,0.69 -2.75,0.36 -2.79,0.02 -2.75,-0.30 -2.72,-0.64 -2.60,-0.95 -2.48,-1.27 -2.30,-1.55 -2.11,-1.83 -1.86,-2.05 -1.61,-2.28 -1.31,-2.44 -1.01,-2.60 -0.69,-2.68 -0.36,-2.77 -0.02,-2.77 0.30,-2.78 0.30,-2.78 L 0.30,-2.78 Z"></path></g><g transform="translate(479.1605693351355 209.21451431378603) rotate(0 93.77706008352305 2.435758744002868)" stroke="none"><path fill="#1e1e1e" d="M 0.28,-2.73 Q 0.28,-2.73 3.62,-2.54 6.97,-2.35 10.13,-2.40 13.30,-2.45 16.93,-2.64 20.56,-2.83 28.82,-3.12 37.09,-3.41 42.75,-3.33 48.42,-3.24 53.86,-2.85 59.29,-2.46 65.14,-1.77 70.99,-1.07 77.65,-0.26 84.31,0.55 90.41,1.07 96.51,1.59 103.07,1.79 109.63,2.00 117.11,1.91 124.59,1.82 131.49,1.80 138.38,1.78 144.77,1.60 151.16,1.43 157.25,1.38 163.33,1.33 169.24,1.42 175.16,1.52 178.72,1.55 182.28,1.58 183.79,1.61 185.30,1.64 185.72,1.71 186.14,1.77 186.52,1.97 186.89,2.17 187.19,2.48 187.48,2.78 187.66,3.17 187.84,3.55 187.89,3.98 187.94,4.40 187.85,4.81 187.76,5.23 187.54,5.59 187.32,5.96 187.00,6.24 186.68,6.51 186.28,6.67 185.89,6.83 185.46,6.85 185.04,6.88 184.63,6.77 184.22,6.65 183.87,6.42 183.51,6.18 183.26,5.84 183.00,5.51 182.86,5.10 182.72,4.70 182.72,4.28 182.72,3.85 182.85,3.45 182.99,3.05 183.24,2.71 183.50,2.37 183.85,2.13 184.20,1.89 184.61,1.77 185.02,1.66 185.44,1.68 185.87,1.70 186.26,1.86 186.66,2.01 186.98,2.28 187.31,2.56 187.53,2.92 187.75,3.29 187.84,3.70 187.94,4.11 187.89,4.54 187.85,4.96 187.67,5.35 187.49,5.73 187.20,6.04 186.91,6.35 186.54,6.55 186.16,6.75 185.74,6.82 185.32,6.89 185.32,6.89 185.32,6.89 183.81,6.94 182.30,6.98 178.74,7.04 175.19,7.10 169.30,7.26 163.41,7.42 157.38,7.53 151.35,7.64 144.88,7.85 138.41,8.06 131.54,8.11 124.66,8.16 117.04,8.23 109.42,8.29 102.70,8.06 95.98,7.82 89.76,7.29 83.55,6.76 76.90,5.94 70.25,5.13 64.55,4.44 58.84,3.75 53.58,3.37 48.32,2.99 42.81,2.90 37.30,2.81 29.09,3.10 20.87,3.38 17.11,3.56 13.35,3.74 9.84,3.74 6.33,3.75 3.02,3.24 -0.28,2.73 -0.60,2.65 -0.93,2.58 -1.22,2.43 -1.52,2.28 -1.77,2.06 -2.02,1.85 -2.21,1.58 -2.41,1.31 -2.53,1.00 -2.65,0.69 -2.69,0.37 -2.74,0.04 -2.71,-0.28 -2.67,-0.61 -2.56,-0.92 -2.45,-1.23 -2.26,-1.51 -2.08,-1.78 -1.83,-2.01 -1.59,-2.23 -1.30,-2.39 -1.01,-2.55 -0.69,-2.63 -0.37,-2.71 -0.04,-2.72 0.28,-2.73 0.28,-2.73 L 0.28,-2.73 Z"></path></g><g transform="translate(708.1227832763014 64.28629760497867) rotate(0 -5.480478080371228 20.39956659087717)" stroke="none"><path fill="#1e1e1e" d="M 0.23,2.79 Q 0.23,2.79 -1.80,3.36 -3.85,3.92 -7.19,6.10 -10.54,8.28 -11.58,10.66 -12.62,13.03 -13.54,15.06 -14.46,17.10 -15.12,21.60 -15.77,26.10 -15.98,29.39 -16.19,32.67 -15.22,35.46 -14.25,38.25 -11.07,38.48 -7.89,38.70 -5.87,37.37 -3.86,36.04 -2.62,34.16 -1.38,32.28 -0.15,29.83 1.06,27.37 2.15,25.18 3.24,23.00 4.11,20.08 4.98,17.16 4.79,13.91 4.60,10.66 3.71,8.18 2.81,5.70 0.96,3.25 -0.89,0.79 -1.28,0.64 -1.68,0.48 -2.00,0.21 -2.33,-0.06 -2.55,-0.42 -2.77,-0.78 -2.86,-1.20 -2.95,-1.61 -2.90,-2.04 -2.86,-2.46 -2.68,-2.85 -2.50,-3.23 -2.21,-3.54 -1.92,-3.85 -1.55,-4.05 -1.17,-4.25 -0.75,-4.32 -0.33,-4.39 0.08,-4.32 0.50,-4.25 0.87,-4.05 1.25,-3.86 1.54,-3.55 1.83,-3.24 2.01,-2.85 2.19,-2.47 2.24,-2.05 2.29,-1.62 2.20,-1.21 2.10,-0.79 1.89,-0.43 1.67,-0.06 1.34,0.20 1.02,0.48 0.63,0.63 0.23,0.79 -0.18,0.82 -0.61,0.84 -1.02,0.73 -1.43,0.61 -1.78,0.38 -2.13,0.14 -2.39,-0.19 -2.65,-0.53 -2.78,-0.93 -2.92,-1.33 -2.92,-1.76 -2.92,-2.18 -2.78,-2.59 -2.65,-2.99 -2.39,-3.33 -2.14,-3.67 -1.79,-3.90 -1.43,-4.14 -1.02,-4.26 -0.62,-4.37 -0.19,-4.35 0.22,-4.33 0.22,-4.33 0.22,-4.33 4.16,-2.45 8.10,-0.58 9.93,2.79 11.75,6.18 12.08,10.21 12.41,14.24 12.33,16.54 12.25,18.83 10.78,22.46 9.30,26.08 8.17,28.26 7.03,30.45 5.50,33.33 3.97,36.21 0.31,39.85 -3.33,43.48 -5.71,44.19 -8.10,44.90 -10.65,44.63 -13.21,44.36 -15.88,43.07 -18.54,41.78 -19.67,39.93 -20.79,38.09 -21.57,35.30 -22.35,32.51 -22.27,28.81 -22.20,25.12 -21.35,19.79 -20.50,14.46 -19.55,12.30 -18.59,10.15 -16.86,6.79 -15.13,3.43 -12.64,1.26 -10.15,-0.89 -7.35,-2.05 -4.55,-3.22 -2.39,-3.01 -0.23,-2.79 0.10,-2.78 0.44,-2.76 0.76,-2.67 1.09,-2.58 1.38,-2.41 1.67,-2.24 1.92,-2.01 2.16,-1.77 2.34,-1.49 2.53,-1.20 2.63,-0.88 2.74,-0.56 2.77,-0.23 2.80,0.10 2.74,0.43 2.69,0.77 2.56,1.08 2.43,1.39 2.22,1.66 2.02,1.93 1.76,2.15 1.50,2.36 1.19,2.51 0.89,2.65 0.56,2.72 0.23,2.79 0.23,2.79 L 0.23,2.79 Z"></path></g><g transform="translate(701.4243840111993 88.64399654561939) rotate(0 10.960984035895393 15.83248758632466)" stroke="none"><path fill="#1e1e1e" d="M 2.43,-1.91 Q 2.43,-1.91 4.37,0.52 6.31,2.97 8.22,5.64 10.14,8.31 11.99,10.79 13.84,13.28 17.24,18.58 20.64,23.87 22.27,26.46 23.90,29.04 24.08,29.42 24.27,29.81 24.32,30.23 24.37,30.65 24.29,31.07 24.20,31.48 23.99,31.85 23.77,32.22 23.45,32.50 23.14,32.78 22.74,32.94 22.35,33.10 21.93,33.13 21.50,33.16 21.09,33.06 20.68,32.95 20.32,32.72 19.97,32.48 19.71,32.15 19.44,31.81 19.30,31.41 19.16,31.01 19.15,30.59 19.15,30.16 19.28,29.76 19.41,29.35 19.66,29.01 19.91,28.67 20.26,28.42 20.61,28.18 21.01,28.06 21.42,27.94 21.85,27.96 22.27,27.97 22.67,28.13 23.07,28.28 23.39,28.55 23.72,28.82 23.95,29.18 24.17,29.54 24.27,29.95 24.37,30.37 24.33,30.79 24.29,31.21 24.12,31.60 23.94,31.99 23.66,32.30 23.37,32.61 23.00,32.82 22.62,33.02 22.20,33.10 21.79,33.17 21.37,33.11 20.95,33.05 20.57,32.86 20.19,32.66 19.89,32.36 19.59,32.05 19.60,32.06 19.60,32.06 17.68,29.59 15.77,27.13 12.24,22.08 8.71,17.04 6.87,14.50 5.03,11.96 3.21,9.39 1.39,6.83 -0.52,4.37 -2.43,1.91 -2.62,1.59 -2.82,1.27 -2.93,0.91 -3.04,0.56 -3.06,0.18 -3.09,-0.18 -3.02,-0.55 -2.95,-0.91 -2.80,-1.25 -2.65,-1.59 -2.42,-1.89 -2.19,-2.18 -1.89,-2.41 -1.60,-2.64 -1.26,-2.80 -0.92,-2.95 -0.55,-3.02 -0.19,-3.09 0.18,-3.07 0.55,-3.04 0.91,-2.93 1.26,-2.82 1.58,-2.63 1.90,-2.44 2.17,-2.17 2.43,-1.91 2.43,-1.91 L 2.43,-1.91 Z"></path></g><g transform="translate(700.2065185767744 193.9909455070973) rotate(0 -6.698371389949159 14.310141855717006)" stroke="none"><path fill="#1e1e1e" d="M -0.67,2.71 Q -0.67,2.71 -2.88,2.61 -5.09,2.51 -7.84,3.35 -10.60,4.19 -12.38,7.57 -14.16,10.96 -15.38,14.34 -16.61,17.72 -17.42,21.65 -18.24,25.58 -18.23,28.24 -18.23,30.90 -16.74,33.08 -15.26,35.25 -12.81,34.90 -10.36,34.54 -7.92,33.17 -5.49,31.80 -3.78,30.04 -2.06,28.28 -0.32,25.71 1.42,23.14 2.45,20.91 3.48,18.69 4.22,16.55 4.95,14.41 4.81,10.78 4.67,7.16 3.69,4.15 2.72,1.14 0.95,-2.28 -0.80,-5.71 -2.19,-6.94 -3.59,-8.18 -3.90,-8.46 -4.22,-8.75 -4.42,-9.12 -4.63,-9.49 -4.70,-9.91 -4.78,-10.33 -4.72,-10.75 -4.65,-11.17 -4.46,-11.55 -4.27,-11.93 -3.96,-12.23 -3.66,-12.52 -3.28,-12.71 -2.89,-12.89 -2.47,-12.95 -2.05,-13.00 -1.64,-12.91 -1.22,-12.83 -0.85,-12.62 -0.48,-12.40 -0.20,-12.08 0.07,-11.77 0.23,-11.37 0.39,-10.98 0.42,-10.56 0.45,-10.13 0.35,-9.72 0.24,-9.31 0.01,-8.95 -0.21,-8.60 -0.55,-8.34 -0.88,-8.07 -1.28,-7.93 -1.68,-7.79 -2.11,-7.78 -2.53,-7.78 -2.94,-7.90 -3.34,-8.03 -3.69,-8.29 -4.03,-8.54 -4.27,-8.89 -4.52,-9.23 -4.64,-9.64 -4.76,-10.05 -4.74,-10.47 -4.72,-10.90 -4.57,-11.29 -4.42,-11.69 -4.15,-12.02 -3.88,-12.35 -3.52,-12.57 -3.16,-12.80 -2.75,-12.90 -2.34,-12.99 -1.91,-12.96 -1.49,-12.92 -1.10,-12.74 -0.71,-12.57 -0.71,-12.57 -0.71,-12.57 1.91,-11.17 4.55,-9.76 6.17,-7.74 7.79,-5.72 8.80,-3.45 9.82,-1.17 10.78,2.66 11.74,6.50 11.82,9.08 11.91,11.65 11.36,14.12 10.81,16.59 9.85,18.95 8.89,21.30 7.59,23.90 6.29,26.49 4.19,29.48 2.09,32.48 -0.28,34.75 -2.66,37.02 -5.75,38.56 -8.84,40.09 -11.43,40.64 -14.02,41.20 -16.39,40.54 -18.76,39.88 -20.87,37.89 -22.99,35.90 -23.67,33.41 -24.35,30.93 -24.31,27.64 -24.28,24.35 -23.38,20.04 -22.49,15.73 -21.33,12.08 -20.18,8.44 -17.23,3.25 -14.27,-1.93 -12.43,-3.03 -10.59,-4.12 -6.95,-4.37 -3.31,-4.61 -1.31,-3.66 0.67,-2.71 0.99,-2.59 1.30,-2.47 1.58,-2.27 1.86,-2.08 2.08,-1.83 2.30,-1.58 2.46,-1.28 2.61,-0.98 2.69,-0.65 2.77,-0.32 2.77,0.00 2.77,0.34 2.69,0.67 2.61,1.00 2.45,1.29 2.29,1.59 2.07,1.84 1.84,2.09 1.56,2.29 1.29,2.48 0.97,2.59 0.66,2.71 0.32,2.75 -0.00,2.79 -0.34,2.75 -0.67,2.71 -0.67,2.71 L -0.67,2.71 Z"></path></g><g transform="translate(699.5975579844089 210.43237974821096) rotate(0 7.3073319823146505 14.614608214323226)" stroke="none"><path fill="#1e1e1e" d="M 2.40,-1.65 Q 2.40,-1.65 4.48,1.04 6.56,3.74 7.96,6.75 9.37,9.75 10.45,12.20 11.54,14.65 14.04,20.37 16.54,26.09 16.67,26.50 16.81,26.90 16.81,27.32 16.81,27.75 16.67,28.15 16.53,28.55 16.27,28.89 16.02,29.23 15.66,29.47 15.31,29.71 14.90,29.82 14.49,29.93 14.07,29.91 13.64,29.88 13.25,29.72 12.85,29.57 12.53,29.29 12.21,29.01 11.99,28.65 11.77,28.28 11.68,27.87 11.59,27.45 11.64,27.03 11.69,26.61 11.86,26.22 12.04,25.84 12.34,25.53 12.63,25.22 13.01,25.03 13.38,24.83 13.80,24.76 14.22,24.69 14.64,24.76 15.06,24.83 15.43,25.03 15.81,25.23 16.10,25.54 16.39,25.85 16.57,26.24 16.75,26.62 16.79,27.05 16.84,27.47 16.74,27.88 16.65,28.30 16.43,28.66 16.21,29.02 15.89,29.30 15.56,29.57 15.17,29.73 14.77,29.89 14.35,29.91 13.92,29.93 13.51,29.81 13.10,29.70 12.75,29.46 12.40,29.22 12.15,28.88 11.89,28.54 11.89,28.54 11.89,28.54 8.90,22.88 5.91,17.21 4.81,14.86 3.70,12.51 2.42,9.98 1.14,7.45 -0.63,4.55 -2.40,1.65 -2.57,1.34 -2.73,1.03 -2.81,0.68 -2.90,0.34 -2.90,-0.00 -2.90,-0.35 -2.81,-0.69 -2.73,-1.04 -2.56,-1.35 -2.40,-1.66 -2.16,-1.92 -1.93,-2.19 -1.64,-2.39 -1.35,-2.59 -1.02,-2.71 -0.69,-2.83 -0.34,-2.88 0.00,-2.92 0.35,-2.87 0.70,-2.83 1.03,-2.71 1.36,-2.58 1.65,-2.38 1.94,-2.18 2.17,-1.91 2.40,-1.65 2.40,-1.65 L 2.40,-1.65 Z"></path></g><g transform="translate(742.2235171929536 100.82281814078675) rotate(0 8.525169541586564 4.567079004552497)" stroke="none"><path fill="#1e1e1e" d="M -1.94,-2.16 Q -1.94,-2.16 -0.17,-3.71 1.60,-5.26 4.28,-7.20 6.97,-9.14 10.24,-10.38 13.52,-11.62 14.60,-12.13 15.69,-12.63 16.01,-12.74 16.33,-12.85 16.66,-12.89 17.00,-12.92 17.33,-12.87 17.67,-12.81 17.98,-12.69 18.29,-12.56 18.56,-12.36 18.84,-12.16 19.05,-11.90 19.27,-11.64 19.42,-11.33 19.57,-11.03 19.64,-10.70 19.71,-10.37 19.70,-10.03 19.69,-9.69 19.60,-9.37 19.51,-9.04 19.34,-8.75 19.17,-8.45 18.94,-8.20 18.71,-7.96 18.43,-7.77 18.14,-7.59 18.19,-3.99 18.23,-0.39 17.47,2.39 16.72,5.19 15.64,8.82 14.57,12.45 14.04,15.50 13.51,18.54 13.48,18.97 13.45,19.39 13.28,19.78 13.11,20.17 12.83,20.49 12.54,20.80 12.17,21.01 11.80,21.22 11.39,21.30 10.97,21.38 10.55,21.32 10.13,21.27 9.75,21.08 9.36,20.89 9.06,20.59 8.76,20.29 8.57,19.91 8.39,19.53 8.33,19.11 8.27,18.69 8.35,18.27 8.43,17.85 8.64,17.48 8.85,17.11 9.17,16.83 9.48,16.54 9.87,16.38 10.26,16.21 10.69,16.17 11.11,16.14 11.52,16.24 11.93,16.34 12.29,16.57 12.65,16.80 12.92,17.13 13.18,17.46 13.33,17.86 13.48,18.26 13.49,18.69 13.50,19.11 13.37,19.52 13.25,19.92 13.00,20.27 12.75,20.61 12.41,20.86 12.06,21.11 11.66,21.23 11.25,21.36 10.83,21.35 10.40,21.34 10.00,21.19 9.60,21.04 9.27,20.78 8.94,20.51 8.71,20.15 8.48,19.79 8.38,19.38 8.28,18.97 8.28,18.97 8.28,18.97 8.69,14.95 9.10,10.93 10.03,7.31 10.97,3.69 11.65,0.96 12.34,-1.75 13.03,-5.09 13.73,-8.42 14.71,-10.53 15.69,-12.63 16.01,-12.74 16.33,-12.85 16.66,-12.89 17.00,-12.92 17.33,-12.87 17.67,-12.81 17.98,-12.69 18.29,-12.56 18.56,-12.36 18.84,-12.16 19.05,-11.90 19.27,-11.64 19.42,-11.33 19.57,-11.03 19.64,-10.70 19.71,-10.37 19.70,-10.03 19.69,-9.69 19.60,-9.37 19.51,-9.04 19.34,-8.75 19.17,-8.45 18.94,-8.20 18.71,-7.96 18.43,-7.78 18.14,-7.59 16.70,-7.03 15.25,-6.48 12.50,-5.42 9.76,-4.36 7.58,-2.70 5.40,-1.03 3.67,0.56 1.94,2.16 1.65,2.36 1.37,2.56 1.04,2.69 0.71,2.81 0.37,2.86 0.02,2.90 -0.32,2.86 -0.67,2.82 -1.00,2.70 -1.33,2.58 -1.62,2.38 -1.91,2.19 -2.14,1.93 -2.38,1.67 -2.54,1.36 -2.71,1.05 -2.79,0.71 -2.88,0.37 -2.88,0.02 -2.88,-0.32 -2.80,-0.66 -2.72,-1.00 -2.56,-1.32 -2.40,-1.63 -2.17,-1.89 -1.94,-2.16 -1.94,-2.16 L -1.94,-2.16 Z"></path></g><g transform="translate(727.6089089786304 225.04698796253422) rotate(0 14.310127918140495 5.176025659341434)" stroke="none"><path fill="#1e1e1e" d="M -2.12,-1.94 Q -2.12,-1.94 -0.30,-4.15 1.52,-6.36 3.68,-7.86 5.84,-9.35 9.67,-10.19 13.50,-11.02 16.13,-10.21 18.76,-9.41 20.01,-6.68 21.26,-3.95 21.28,-1.51 21.30,0.92 20.72,3.03 20.14,5.14 19.23,7.22 18.32,9.29 16.75,11.42 15.18,13.54 13.41,15.00 11.63,16.46 9.53,17.34 7.43,18.22 4.69,18.68 1.96,19.14 2.56,17.06 3.16,14.98 6.55,15.26 9.95,15.54 12.68,15.60 15.42,15.65 17.88,15.46 20.33,15.27 23.69,14.76 27.05,14.25 27.48,14.22 27.90,14.19 28.31,14.30 28.72,14.41 29.08,14.64 29.43,14.87 29.69,15.21 29.96,15.54 30.10,15.94 30.24,16.34 30.24,16.77 30.25,17.19 30.12,17.60 29.99,18.00 29.74,18.35 29.49,18.69 29.14,18.93 28.79,19.17 28.38,19.29 27.97,19.41 27.55,19.40 27.12,19.38 26.73,19.23 26.33,19.07 26.00,18.80 25.67,18.53 25.45,18.17 25.23,17.81 25.13,17.40 25.03,16.98 25.07,16.56 25.11,16.14 25.29,15.75 25.46,15.36 25.75,15.05 26.03,14.74 26.41,14.53 26.78,14.33 27.20,14.25 27.62,14.18 28.04,14.24 28.46,14.31 28.84,14.50 29.21,14.69 29.51,15.00 29.81,15.30 29.99,15.68 30.17,16.07 30.23,16.49 30.28,16.91 30.19,17.33 30.11,17.74 29.89,18.11 29.68,18.48 29.36,18.76 29.04,19.04 28.65,19.20 28.25,19.36 28.25,19.36 28.25,19.36 24.48,20.53 20.71,21.69 17.99,21.79 15.27,21.89 12.41,21.81 9.55,21.74 6.85,21.55 4.15,21.36 1.03,19.80 -2.08,18.24 -1.88,15.95 -1.68,13.66 1.58,12.59 4.85,11.51 7.32,10.32 9.78,9.14 12.06,6.20 14.33,3.26 14.93,0.61 15.53,-2.03 13.56,-3.38 11.59,-4.73 8.88,-3.38 6.18,-2.03 4.15,-0.04 2.12,1.94 1.85,2.17 1.59,2.39 1.28,2.55 0.97,2.70 0.63,2.78 0.29,2.86 -0.04,2.85 -0.39,2.85 -0.73,2.76 -1.06,2.67 -1.37,2.50 -1.67,2.34 -1.93,2.10 -2.18,1.87 -2.37,1.58 -2.57,1.29 -2.68,0.96 -2.80,0.64 -2.84,0.29 -2.87,-0.04 -2.83,-0.39 -2.78,-0.73 -2.65,-1.05 -2.52,-1.38 -2.32,-1.66 -2.12,-1.94 -2.12,-1.94 L -2.12,-1.94 Z"></path></g></svg>