<svg version="1.1" xmlns="http://www.w3.org/2000/svg" viewBox="0 0 1124.4335012515742 531.0458878193142" width="1124.4335012515742" height="531.0458878193142" class="excalidraw-svg"><!-- svg-source:excalidraw --><metadata></metadata><defs><style class="style-fonts">
      </style></defs><rect x="0" y="0" width="1124.4335012515742" height="531.0458878193142" fill="#ffffff"></rect><g stroke-linecap="round" transform="translate(284.24146573938725 87.61221095626343) rotate(0 219.66665649414062 163.33334350585938)"><path d="M32 0 C126.7 -0.54, 219.08 -1.31, 407.33 0 M32 0 C116.41 1.59, 201.49 1.5, 407.33 0 M407.33 0 C427.61 1.49, 440.54 8.93, 439.33 32 M407.33 0 C428.71 0.28, 438.37 11.77, 439.33 32 M439.33 32 C442.43 112, 442.75 193.03, 439.33 294.67 M439.33 32 C440 85.36, 438.65 140.31, 439.33 294.67 M439.33 294.67 C440.63 314.68, 429.06 327.55, 407.33 326.67 M439.33 294.67 C438.91 313.81, 428 327.9, 407.33 326.67 M407.33 326.67 C283.59 324.3, 160.22 325.3, 32 326.67 M407.33 326.67 C304.08 326.17, 200.95 325.74, 32 326.67 M32 326.67 C9.02 325.08, 1.71 317.63, 0 294.67 M32 326.67 C12.87 324.93, -0.45 314.2, 0 294.67 M0 294.67 C-2.18 207.98, -0.24 123.04, 0 32 M0 294.67 C2.13 239.05, 2.15 182.44, 0 32 M0 32 C-1.88 9.66, 10.27 1.01, 32 0 M0 32 C1.13 12.9, 11.45 1.54, 32 0" stroke="#1e1e1e" stroke-width="2" fill="none"></path></g><g stroke-linecap="round"><g transform="translate(729.2856531141733 169.70721268243608) rotate(0 156.64344661196583 0.49415849233790254)"><path d="M-0.36 1.02 C52.12 1.09, 262.33 0.52, 314.48 0.49 M1.65 0.52 C54.11 0.73, 261.93 1.51, 314.17 1.77" stroke="#1e1e1e" stroke-width="2" fill="none"></path></g></g><mask></mask><g stroke-linecap="round"><g transform="translate(726.3207926405073 340.6808484105753) rotate(0 162.5731675592981 -2.9648604736661355)"><path d="M-0.89 -1.05 C53.31 -2, 271.26 -4.17, 325.4 -4.82 M0.85 1.01 C54.89 -0.33, 270.35 -5.06, 324.58 -6.36" stroke="#1e1e1e" stroke-width="2" fill="none"></path></g></g><mask></mask><g stroke-linecap="round"><g transform="translate(869.6224123611562 331.7862669895769) rotate(0 0 -159.6083297057223)"><path d="M-0.47 -0.34 C-0.24 -53.72, 0.8 -267.31, 0.79 -320.41 M1.48 -1.56 C1.68 -54.84, 0.76 -266.85, 0.26 -319.5" stroke="#1e1e1e" stroke-width="2" fill="none"></path></g></g><mask></mask><g stroke-linecap="round"><g transform="translate(197.587311343264 157.84777078777165) rotate(0 42.496340995911 1.9765887291709419)"><path d="M-0.91 -0.52 C13.12 0.4, 69.43 3.91, 83.83 4.55 M0.82 1.82 C15.22 2.47, 71.9 2.33, 85.93 2.74" stroke="#1e1e1e" stroke-width="2" fill="none"></path></g></g><mask></mask><g stroke-linecap="round"><g transform="translate(189.68102428685108 332.77453873407217) rotate(0 46.94362039636502 -0.49413587224762523)"><path d="M-0.32 1.13 C15.34 0.73, 77.53 -0.99, 93.26 -1.46 M1.71 0.68 C17.83 0.36, 80.36 0.06, 95.64 -0.16" stroke="#1e1e1e" stroke-width="2" fill="none"></path></g></g><mask></mask><g transform="translate(1092.148033697822 153.38673040845663) rotate(0 0.6190454882882932 13.309385901525502)" stroke="none"><path fill="#1e1e1e" d="M -0.50,1.26 Q -0.50,1.26 -1.31,1.09 -2.12,0.93 -3.41,2.13 -4.70,3.34 -5.63,4.44 -6.55,5.54 -7.39,7.29 -8.24,9.03 -8.76,11.44 -9.29,13.85 -9.52,15.60 -9.76,17.34 -9.70,19.91 -9.64,22.47 -8.83,24.02 -8.03,25.56 -7.04,26.27 -6.06,26.98 -3.89,26.31 -1.73,25.63 -0.31,24.54 1.10,23.44 2.85,22.21 4.60,20.98 5.96,19.65 7.31,18.32 8.35,16.62 9.39,14.92 9.99,13.37 10.59,11.81 10.80,10.53 11.01,9.25 10.75,7.83 10.49,6.41 10.04,4.93 9.59,3.44 8.91,2.22 8.23,1.00 7.00,0.03 5.78,-0.94 4.03,-1.07 2.28,-1.19 2.06,-1.21 1.85,-1.22 1.66,-1.30 1.46,-1.38 1.30,-1.52 1.14,-1.66 1.03,-1.85 0.93,-2.03 0.88,-2.24 0.84,-2.45 0.87,-2.66 0.89,-2.87 0.99,-3.06 1.08,-3.25 1.23,-3.41 1.38,-3.56 1.56,-3.65 1.75,-3.75 1.96,-3.78 2.17,-3.81 2.38,-3.77 2.59,-3.74 2.78,-3.63 2.97,-3.53 3.11,-3.38 3.25,-3.22 3.34,-3.02 3.42,-2.83 3.44,-2.62 3.46,-2.41 3.42,-2.20 3.37,-1.99 3.25,-1.81 3.14,-1.63 2.98,-1.50 2.81,-1.36 2.61,-1.29 2.42,-1.21 2.20,-1.20 1.99,-1.20 1.79,-1.26 1.58,-1.32 1.41,-1.44 1.24,-1.56 1.11,-1.73 0.98,-1.90 0.92,-2.10 0.85,-2.31 0.86,-2.52 0.86,-2.73 0.93,-2.93 1.00,-3.13 1.13,-3.30 1.27,-3.47 1.44,-3.58 1.62,-3.70 1.83,-3.75 2.03,-3.81 2.03,-3.81 2.03,-3.81 4.75,-3.93 7.47,-4.05 8.40,-3.46 9.33,-2.87 10.29,-1.73 11.25,-0.60 12.02,0.95 12.79,2.52 13.26,4.23 13.72,5.95 13.93,7.88 14.14,9.81 13.79,11.37 13.43,12.94 12.70,14.73 11.96,16.52 10.70,18.50 9.44,20.49 7.90,21.98 6.35,23.46 4.63,24.66 2.91,25.85 1.19,27.12 -0.52,28.39 -2.43,29.14 -4.33,29.90 -5.98,29.73 -7.63,29.56 -9.20,28.32 -10.78,27.08 -11.82,24.88 -12.86,22.69 -12.94,19.79 -13.03,16.90 -12.77,15.02 -12.52,13.13 -11.89,10.35 -11.26,7.58 -10.22,5.49 -9.18,3.40 -8.19,2.19 -7.20,0.97 -5.90,-0.28 -4.61,-1.54 -3.02,-1.94 -1.43,-2.35 -0.46,-1.80 0.50,-1.26 0.64,-1.18 0.79,-1.10 0.91,-0.99 1.03,-0.88 1.12,-0.74 1.21,-0.60 1.26,-0.45 1.32,-0.30 1.34,-0.13 1.35,0.02 1.33,0.18 1.31,0.34 1.25,0.50 1.19,0.65 1.09,0.78 0.99,0.91 0.87,1.02 0.75,1.13 0.60,1.20 0.45,1.27 0.29,1.31 0.13,1.35 -0.02,1.34 -0.18,1.34 -0.34,1.30 -0.50,1.26 -0.50,1.26 L -0.50,1.26 Z"></path></g><g transform="translate(1091.5290023782525 165.76755516190912) rotate(0 0.00004999999998744897 0.00005000000000165983)" stroke="none"><path fill="#1e1e1e" d="M 2.12,-2.12 Q 2.12,-2.12 2.40,-1.73 2.69,-1.33 2.83,-0.87 2.97,-0.40 2.96,0.08 2.95,0.56 2.78,1.02 2.61,1.47 2.31,1.85 2.00,2.23 1.59,2.49 1.18,2.76 0.71,2.87 0.24,2.99 -0.24,2.95 -0.72,2.91 -1.17,2.72 -1.61,2.53 -1.98,2.20 -2.34,1.88 -2.58,1.45 -2.82,1.03 -2.91,0.55 -3.00,0.08 -2.93,-0.40 -2.87,-0.88 -2.65,-1.31 -2.44,-1.75 -2.09,-2.09 -1.75,-2.44 -1.31,-2.65 -0.88,-2.87 -0.39,-2.93 0.08,-3.00 0.55,-2.91 1.03,-2.82 1.46,-2.58 1.88,-2.34 2.20,-1.97 2.53,-1.61 2.72,-1.17 2.91,-0.72 2.95,-0.23 2.99,0.24 2.87,0.71 2.76,1.18 2.49,1.59 2.23,2.00 1.85,2.31 1.47,2.61 1.02,2.78 0.56,2.95 0.07,2.96 -0.40,2.97 -0.87,2.83 -1.33,2.69 -1.73,2.40 -2.12,2.12 -2.12,2.12 -2.12,2.12 -2.34,1.83 -2.57,1.55 -2.72,1.22 -2.86,0.89 -2.93,0.53 -2.99,0.18 -2.97,-0.18 -2.95,-0.54 -2.84,-0.88 -2.74,-1.23 -2.55,-1.54 -2.36,-1.85 -2.10,-2.10 -1.85,-2.36 -1.54,-2.55 -1.23,-2.74 -0.88,-2.84 -0.54,-2.95 -0.17,-2.97 0.18,-2.99 0.53,-2.93 0.89,-2.86 1.22,-2.72 1.55,-2.57 1.84,-2.34 2.12,-2.12 2.12,-2.12 L 2.12,-2.12 Z"></path></g><g transform="translate(1091.5290023782525 165.76755516190912) rotate(0 8.66656599244186 14.547462709383296)" stroke="none"><path fill="#1e1e1e" d="M 1.09,-0.76 Q 1.09,-0.76 2.46,0.92 3.84,2.61 5.24,4.39 6.65,6.17 7.42,7.11 8.19,8.04 9.42,9.50 10.65,10.97 11.95,12.90 13.25,14.84 14.54,17.52 15.82,20.20 16.91,23.68 18.00,27.16 18.05,27.37 18.09,27.57 18.06,27.78 18.03,28.00 17.94,28.19 17.85,28.38 17.70,28.53 17.55,28.68 17.36,28.78 17.17,28.87 16.96,28.90 16.75,28.93 16.54,28.89 16.33,28.86 16.15,28.75 15.96,28.65 15.82,28.49 15.67,28.34 15.59,28.14 15.50,27.95 15.48,27.73 15.46,27.52 15.51,27.32 15.56,27.11 15.68,26.93 15.79,26.75 15.95,26.62 16.12,26.48 16.32,26.41 16.52,26.33 16.73,26.32 16.94,26.32 17.15,26.38 17.35,26.44 17.52,26.56 17.70,26.68 17.82,26.86 17.95,27.03 18.01,27.23 18.07,27.43 18.07,27.64 18.07,27.86 17.99,28.06 17.92,28.26 17.79,28.42 17.66,28.59 17.48,28.71 17.30,28.82 17.10,28.87 16.89,28.93 16.68,28.91 16.47,28.90 16.27,28.81 16.08,28.73 15.92,28.59 15.76,28.45 15.65,28.27 15.55,28.08 15.55,28.08 15.55,28.08 14.13,24.89 12.71,21.70 11.52,19.23 10.33,16.76 9.17,14.95 8.02,13.15 6.80,11.66 5.58,10.18 4.79,9.21 4.00,8.23 2.57,6.37 1.14,4.50 0.02,2.63 -1.09,0.76 -1.16,0.62 -1.24,0.48 -1.28,0.32 -1.32,0.16 -1.32,0.00 -1.32,-0.15 -1.28,-0.30 -1.24,-0.46 -1.17,-0.60 -1.10,-0.74 -0.99,-0.87 -0.88,-0.99 -0.75,-1.08 -0.62,-1.17 -0.47,-1.23 -0.32,-1.29 -0.16,-1.31 -0.00,-1.33 0.15,-1.31 0.31,-1.29 0.46,-1.23 0.61,-1.18 0.74,-1.09 0.87,-1.00 0.98,-0.88 1.09,-0.76 1.09,-0.76 L 1.09,-0.76 Z"></path></g><g transform="translate(1094.0051559939682 312.4802448948811) rotate(0 -2.476153615715589 16.095041008307135)" stroke="none"><path fill="#1e1e1e" d="M -0.32,1.31 Q -0.32,1.31 -1.70,1.10 -3.07,0.88 -4.14,1.41 -5.22,1.95 -6.50,3.10 -7.78,4.25 -8.78,6.18 -9.79,8.11 -10.41,10.78 -11.03,13.45 -11.12,16.64 -11.21,19.83 -10.40,22.99 -9.59,26.15 -8.46,27.89 -7.33,29.64 -6.34,30.46 -5.35,31.28 -3.57,30.47 -1.80,29.66 -0.70,28.04 0.40,26.42 1.60,23.99 2.79,21.57 3.83,18.94 4.87,16.32 5.47,14.20 6.07,12.08 6.11,10.44 6.16,8.81 5.84,7.38 5.53,5.96 4.63,4.89 3.72,3.81 2.72,3.04 1.71,2.26 -1.22,1.18 -4.17,0.09 -4.37,0.04 -4.58,-0.01 -4.75,-0.12 -4.93,-0.24 -5.06,-0.41 -5.19,-0.58 -5.26,-0.78 -5.33,-0.98 -5.33,-1.19 -5.34,-1.40 -5.27,-1.61 -5.21,-1.81 -5.08,-1.98 -4.95,-2.15 -4.78,-2.27 -4.60,-2.39 -4.40,-2.45 -4.20,-2.51 -3.98,-2.50 -3.77,-2.49 -3.57,-2.41 -3.37,-2.34 -3.21,-2.20 -3.05,-2.07 -2.94,-1.89 -2.82,-1.70 -2.78,-1.50 -2.73,-1.29 -2.75,-1.08 -2.77,-0.87 -2.86,-0.67 -2.94,-0.48 -3.09,-0.32 -3.23,-0.17 -3.42,-0.07 -3.61,0.03 -3.82,0.06 -4.02,0.10 -4.23,0.07 -4.44,0.03 -4.63,-0.05 -4.82,-0.15 -4.97,-0.30 -5.12,-0.46 -5.21,-0.65 -5.30,-0.84 -5.33,-1.05 -5.35,-1.26 -5.31,-1.47 -5.26,-1.68 -5.16,-1.86 -5.05,-2.04 -4.89,-2.18 -4.73,-2.32 -4.53,-2.40 -4.33,-2.48 -4.12,-2.50 -3.91,-2.51 -3.91,-2.51 -3.91,-2.51 -1.04,-2.28 1.82,-2.05 2.98,-1.36 4.15,-0.66 5.44,0.47 6.73,1.61 7.87,3.38 9.02,5.15 9.33,7.06 9.65,8.96 9.51,10.99 9.37,13.01 8.70,15.30 8.02,17.59 6.89,20.33 5.77,23.08 4.39,25.73 3.01,28.38 1.40,30.34 -0.20,32.29 -2.10,33.23 -4.01,34.17 -5.49,33.98 -6.98,33.80 -8.48,32.59 -9.97,31.37 -11.34,29.18 -12.70,26.98 -13.58,23.37 -14.45,19.76 -14.32,16.23 -14.19,12.71 -13.45,9.63 -12.70,6.55 -11.35,4.17 -9.99,1.78 -8.22,0.32 -6.45,-1.13 -4.53,-1.72 -2.62,-2.30 -1.14,-1.81 0.32,-1.31 0.48,-1.25 0.63,-1.20 0.76,-1.10 0.90,-1.01 1.01,-0.89 1.12,-0.76 1.19,-0.62 1.27,-0.47 1.30,-0.31 1.34,-0.15 1.34,0.00 1.34,0.16 1.30,0.32 1.26,0.48 1.19,0.63 1.11,0.77 1.00,0.89 0.89,1.01 0.76,1.11 0.62,1.20 0.47,1.26 0.32,1.31 0.15,1.33 -0.00,1.35 -0.16,1.33 -0.32,1.31 -0.32,1.31 L -0.32,1.31 Z"></path></g><g transform="translate(1091.5290023782525 328.5752859031882) rotate(0 8.047520504153567 8.976081652226583)" stroke="none"><path fill="#1e1e1e" d="M 1.20,-0.80 Q 1.20,-0.80 2.40,0.71 3.60,2.22 5.50,5.23 7.40,8.24 8.66,9.77 9.93,11.31 11.42,12.64 12.92,13.97 14.47,15.16 16.02,16.35 16.18,16.49 16.34,16.63 16.44,16.82 16.55,17.00 16.59,17.21 16.63,17.42 16.60,17.63 16.58,17.84 16.48,18.03 16.39,18.22 16.24,18.37 16.09,18.52 15.90,18.62 15.71,18.71 15.50,18.74 15.29,18.77 15.08,18.73 14.87,18.70 14.69,18.59 14.50,18.49 14.36,18.33 14.22,18.17 14.13,17.98 14.05,17.78 14.03,17.57 14.01,17.36 14.06,17.16 14.11,16.95 14.22,16.77 14.34,16.59 14.50,16.46 14.67,16.32 14.86,16.25 15.06,16.17 15.28,16.17 15.49,16.16 15.69,16.22 15.89,16.28 16.07,16.40 16.24,16.53 16.37,16.70 16.49,16.87 16.56,17.07 16.62,17.28 16.61,17.49 16.61,17.70 16.54,17.90 16.47,18.10 16.33,18.27 16.20,18.43 16.02,18.55 15.84,18.66 15.64,18.72 15.43,18.77 15.22,18.75 15.01,18.74 14.81,18.65 14.62,18.57 14.62,18.57 14.62,18.57 12.67,17.55 10.72,16.54 8.94,15.06 7.17,13.58 5.77,11.86 4.38,10.14 2.52,7.16 0.67,4.18 -0.26,2.49 -1.20,0.80 -1.27,0.64 -1.35,0.48 -1.39,0.32 -1.43,0.15 -1.43,-0.02 -1.42,-0.19 -1.38,-0.36 -1.34,-0.53 -1.25,-0.68 -1.17,-0.83 -1.05,-0.96 -0.93,-1.09 -0.79,-1.19 -0.64,-1.28 -0.48,-1.34 -0.32,-1.40 -0.14,-1.42 0.02,-1.44 0.19,-1.41 0.36,-1.39 0.52,-1.33 0.69,-1.26 0.83,-1.16 0.97,-1.06 1.08,-0.93 1.20,-0.80 1.20,-0.80 L 1.20,-0.80 Z"></path></g><g transform="translate(1078.5291463052306 294.52802491555315) rotate(0 17.642647644668386 1.54762080507993)" stroke="none"><path fill="#1e1e1e" d="M 0.19,-1.38 Q 0.19,-1.38 1.49,-1.54 2.78,-1.69 5.06,-1.63 7.35,-1.57 8.77,-1.38 10.18,-1.19 11.50,-0.93 12.82,-0.67 14.55,-0.40 16.29,-0.13 18.44,0.15 20.60,0.44 22.51,0.55 24.43,0.66 26.13,0.70 27.83,0.75 29.12,0.59 30.42,0.43 32.05,0.31 33.68,0.19 34.25,0.97 34.82,1.74 34.97,1.75 35.13,1.77 35.28,1.81 35.43,1.86 35.57,1.95 35.70,2.03 35.81,2.14 35.92,2.26 36.00,2.39 36.08,2.53 36.13,2.68 36.17,2.83 36.18,2.99 36.19,3.15 36.16,3.31 36.13,3.46 36.06,3.61 35.99,3.75 35.89,3.87 35.79,4.00 35.67,4.09 35.54,4.19 35.40,4.25 35.25,4.31 35.10,4.34 34.94,4.37 34.80,4.36 34.67,4.35 34.47,4.28 34.26,4.22 34.09,4.09 33.93,3.96 33.81,3.78 33.69,3.61 33.63,3.40 33.57,3.20 33.58,2.99 33.59,2.77 33.67,2.58 33.75,2.38 33.89,2.22 34.03,2.05 34.21,1.94 34.39,1.84 34.60,1.79 34.80,1.74 35.02,1.77 35.23,1.79 35.42,1.88 35.61,1.97 35.77,2.11 35.92,2.26 36.02,2.45 36.12,2.63 36.16,2.84 36.19,3.05 36.16,3.26 36.12,3.47 36.02,3.66 35.92,3.85 35.77,3.99 35.62,4.14 35.42,4.23 35.23,4.32 35.02,4.34 34.81,4.37 34.60,4.32 34.39,4.28 34.21,4.17 34.03,4.06 33.89,3.89 33.75,3.73 33.67,3.54 33.60,3.34 33.58,3.13 33.57,2.91 33.63,2.71 33.68,2.50 33.80,2.33 33.92,2.15 34.09,2.02 34.26,1.89 34.46,1.83 34.66,1.76 34.74,1.75 34.82,1.74 34.97,1.75 35.13,1.77 35.28,1.81 35.43,1.86 35.57,1.95 35.70,2.03 35.81,2.14 35.92,2.26 36.00,2.39 36.08,2.53 36.13,2.68 36.17,2.83 36.18,2.99 36.19,3.15 36.16,3.31 36.13,3.46 36.06,3.61 35.99,3.75 35.89,3.87 35.79,4.00 35.67,4.09 35.54,4.19 35.40,4.25 35.25,4.31 35.10,4.34 34.94,4.37 34.42,4.60 33.90,4.83 32.40,4.90 30.90,4.97 29.30,5.12 27.69,5.27 25.92,5.21 24.14,5.15 22.07,5.00 19.99,4.85 17.79,4.54 15.58,4.23 13.76,3.92 11.93,3.62 10.74,3.36 9.54,3.10 8.39,2.90 7.24,2.71 5.85,2.66 4.46,2.60 3.33,2.50 2.19,2.40 1.00,1.89 -0.19,1.38 -0.36,1.34 -0.52,1.30 -0.67,1.21 -0.82,1.13 -0.94,1.02 -1.06,0.90 -1.16,0.76 -1.25,0.62 -1.31,0.46 -1.36,0.30 -1.38,0.13 -1.40,-0.02 -1.37,-0.19 -1.35,-0.36 -1.29,-0.52 -1.22,-0.67 -1.12,-0.81 -1.02,-0.95 -0.90,-1.06 -0.77,-1.17 -0.62,-1.24 -0.46,-1.32 -0.30,-1.35 -0.13,-1.39 0.02,-1.39 0.19,-1.38 0.19,-1.38 L 0.19,-1.38 Z"></path></g><g transform="translate(871.6628762265887 327.7823690392643) rotate(0 -2.338617087391441 9.688519364095725)" stroke="none"><path fill="#1e1e1e" d="M 1.02,1.02 Q 1.02,1.02 0.41,1.95 -0.18,2.89 -1.79,4.25 -3.40,5.60 -4.66,7.34 -5.91,9.08 -6.31,11.08 -6.71,13.09 -6.72,14.62 -6.73,16.16 -4.76,13.97 -2.80,11.78 -1.99,9.77 -1.17,7.75 -0.86,6.40 -0.55,5.05 -1.89,4.76 -3.24,4.48 -3.69,5.46 -4.15,6.44 -4.39,8.54 -4.62,10.63 -4.43,12.34 -4.24,14.04 -2.90,12.74 -1.57,11.43 -0.75,10.05 0.07,8.67 0.14,7.46 0.20,6.25 -0.97,6.77 -2.16,7.30 -2.33,8.44 -2.51,9.57 -2.47,11.48 -2.43,13.40 -2.23,14.46 -2.02,15.52 -1.37,13.82 -0.71,12.12 -0.43,10.60 -0.15,9.08 -0.96,7.82 -1.78,6.55 -2.43,8.77 -3.09,10.98 -1.03,9.93 1.03,8.88 0.84,7.66 0.66,6.44 -0.49,6.40 -1.64,6.37 -2.21,8.55 -2.78,10.73 -2.80,12.22 -2.82,13.71 -1.73,12.41 -0.64,11.10 -1.53,9.97 -2.42,8.84 -3.25,10.26 -4.07,11.69 -4.05,10.25 -4.02,8.82 -4.43,10.98 -4.84,13.13 -4.98,13.20 -5.13,13.27 -5.28,13.30 -5.44,13.33 -5.60,13.33 -5.75,13.32 -5.91,13.28 -6.06,13.23 -6.20,13.16 -6.33,13.08 -6.45,12.97 -6.56,12.86 -6.65,12.72 -6.73,12.59 -6.78,12.44 -6.83,12.29 -6.85,12.13 -6.86,11.98 -6.83,11.82 -6.81,11.66 -6.75,11.52 -6.69,11.37 -6.59,11.24 -6.50,11.12 -6.37,11.02 -6.25,10.92 -5.70,10.85 -5.14,10.77 -4.95,10.87 -4.76,10.97 -4.62,11.12 -4.47,11.27 -4.38,11.47 -4.29,11.66 -4.26,11.87 -4.23,12.08 -4.28,12.29 -4.32,12.50 -4.43,12.68 -4.54,12.86 -4.70,13.00 -4.86,13.14 -5.05,13.22 -5.25,13.30 -5.46,13.32 -5.67,13.33 -5.88,13.28 -6.08,13.22 -6.26,13.11 -6.44,12.99 -6.57,12.82 -6.70,12.65 -6.77,12.45 -6.84,12.25 -6.84,12.04 -6.85,11.83 -6.78,11.63 -6.71,11.42 -6.59,11.25 -6.46,11.08 -6.29,10.96 -6.11,10.84 -5.91,10.78 -5.70,10.72 -5.49,10.73 -5.28,10.74 -5.08,10.81 -4.88,10.89 -4.72,11.03 -4.56,11.16 -4.44,11.34 -4.33,11.52 -4.28,11.73 -4.24,11.94 -4.26,12.15 -4.28,12.36 -4.36,12.55 -4.45,12.75 -4.59,12.90 -4.74,13.06 -4.93,13.16 -5.11,13.26 -5.32,13.30 -5.53,13.34 -5.19,13.24 -4.84,13.13 -4.98,13.20 -5.13,13.27 -5.28,13.30 -5.44,13.33 -5.60,13.33 -5.75,13.32 -5.91,13.28 -6.06,13.23 -6.20,13.16 -6.33,13.08 -6.45,12.97 -6.56,12.86 -6.65,12.72 -6.73,12.59 -6.78,12.44 -6.83,12.29 -6.85,12.13 -6.86,11.98 -6.83,11.82 -6.81,11.66 -6.75,11.52 -6.69,11.37 -6.59,11.24 -6.50,11.12 -6.37,11.02 -6.25,10.92 -6.24,8.28 -6.22,5.65 -4.69,5.05 -3.17,4.44 -1.29,5.53 0.58,6.62 0.66,8.84 0.75,11.05 -0.26,12.81 -1.28,14.57 -3.04,15.48 -4.81,16.39 -6.61,15.57 -8.42,14.75 -8.73,12.28 -9.04,9.80 -8.09,7.94 -7.15,6.08 -5.09,5.01 -3.02,3.94 -0.96,4.53 1.09,5.12 2.37,6.79 3.64,8.45 3.94,10.40 4.25,12.34 3.24,14.58 2.23,16.83 0.65,17.73 -0.91,18.64 -2.85,18.45 -4.79,18.27 -6.31,16.21 -7.84,14.15 -7.83,11.89 -7.83,9.64 -7.03,6.92 -6.24,4.20 -4.42,2.83 -2.60,1.45 -0.54,1.51 1.51,1.56 3.21,2.85 4.91,4.14 5.51,6.24 6.10,8.35 5.29,10.28 4.47,12.22 2.91,13.68 1.35,15.14 -0.52,15.87 -2.41,16.60 -4.47,15.55 -6.54,14.50 -7.18,12.40 -7.82,10.30 -7.25,7.95 -6.69,5.59 -5.20,4.08 -3.71,2.57 -1.58,2.61 0.55,2.65 1.97,4.10 3.39,5.56 3.84,7.69 4.29,9.82 3.76,12.05 3.23,14.28 1.84,16.37 0.45,18.46 -1.13,18.89 -2.73,19.33 -4.26,18.37 -5.80,17.41 -6.38,15.43 -6.96,13.46 -6.95,10.95 -6.94,8.45 -6.28,6.41 -5.62,4.37 -4.08,3.01 -2.53,1.66 -0.85,1.59 0.82,1.51 2.24,2.60 3.66,3.69 4.09,5.14 4.52,6.60 4.18,8.66 3.83,10.72 2.79,12.52 1.74,14.32 -0.02,16.05 -1.79,17.78 -3.49,18.02 -5.19,18.26 -6.82,16.48 -8.45,14.71 -8.71,12.37 -8.97,10.02 -8.46,7.11 -7.95,4.20 -6.66,2.44 -5.37,0.68 -3.60,0.03 -1.83,-0.60 -0.33,-0.18 1.16,0.23 2.23,1.66 3.31,3.09 3.35,4.56 3.40,6.04 2.94,7.67 2.47,9.30 1.45,11.60 0.42,13.90 -1.04,16.02 -2.52,18.14 -4.18,19.14 -5.84,20.14 -7.51,19.88 -9.19,19.62 -9.88,17.87 -10.58,16.12 -10.56,14.20 -10.54,12.27 -9.95,9.74 -9.36,7.21 -8.48,5.71 -7.59,4.21 -6.80,3.47 -6.02,2.72 -4.45,1.45 -2.88,0.17 -1.95,-0.42 -1.02,-1.02 -0.88,-1.12 -0.74,-1.23 -0.58,-1.30 -0.42,-1.37 -0.25,-1.40 -0.08,-1.44 0.08,-1.42 0.26,-1.41 0.42,-1.36 0.59,-1.31 0.74,-1.22 0.88,-1.13 1.01,-1.01 1.13,-0.88 1.22,-0.74 1.31,-0.59 1.36,-0.42 1.41,-0.25 1.42,-0.08 1.44,0.08 1.40,0.25 1.37,0.42 1.30,0.58 1.23,0.74 1.12,0.88 1.02,1.02 1.02,1.02 L 1.02,1.02 Z"></path></g><g transform="translate(997.9476483878123 168.08891679860227) rotate(0 -1.33635699087381 2.338617087391455)" stroke="none"><path fill="#1e1e1e" d="M -0.49,1.24 Q -0.49,1.24 -1.36,1.15 -2.22,1.06 -2.83,2.03 -3.44,2.99 -3.79,4.29 -4.14,5.59 -4.17,7.02 -4.20,8.45 -2.18,7.29 -0.17,6.14 0.97,4.99 2.13,3.83 1.00,3.93 -0.11,4.03 -1.15,4.61 -2.18,5.19 -0.27,3.51 1.63,1.83 2.77,0.72 3.91,-0.38 4.45,-1.40 4.99,-2.43 3.98,-3.05 2.96,-3.67 1.54,-2.71 0.12,-1.74 -1.14,0.15 -2.42,2.04 -2.95,3.99 -3.48,5.94 -3.60,7.24 -3.73,8.53 -1.98,7.58 -0.23,6.62 0.55,5.10 1.34,3.57 0.13,3.61 -1.06,3.64 -2.09,4.21 -3.12,4.79 -3.05,6.38 -2.98,7.98 -1.45,6.55 0.07,5.12 0.16,3.77 0.25,2.43 -1.12,2.45 -2.50,2.46 -3.65,3.41 -4.81,4.36 -5.68,5.36 -6.55,6.36 -5.54,5.75 -4.53,5.13 -2.89,3.91 -1.25,2.69 -0.59,1.64 0.06,0.59 -1.26,0.39 -2.58,0.19 -4.47,1.56 -6.37,2.93 -6.60,4.00 -6.84,5.06 -5.75,5.54 -4.66,6.01 -3.68,5.30 -2.70,4.58 -2.01,3.69 -1.31,2.80 -0.70,1.75 -0.10,0.70 -1.23,0.99 -2.36,1.27 -3.56,2.17 -4.77,3.07 -5.71,4.71 -6.65,6.36 -7.67,6.71 -8.69,7.06 -7.88,6.32 -7.06,5.58 -5.82,4.31 -4.58,3.05 -3.26,1.54 -1.93,0.04 -3.76,0.70 -5.59,1.36 -6.30,2.57 -7.01,3.77 -5.49,2.93 -3.97,2.09 -2.56,0.97 -1.16,-0.14 -2.13,0.27 -3.11,0.69 -3.48,0.45 -3.85,0.20 -4.14,0.11 -4.43,0.02 -4.69,-0.13 -4.95,-0.28 -5.17,-0.50 -5.38,-0.71 -5.54,-0.97 -5.70,-1.23 -5.79,-1.52 -5.89,-1.81 -5.91,-2.11 -5.92,-2.42 -5.87,-2.72 -5.82,-3.02 -5.69,-3.30 -5.57,-3.57 -5.38,-3.81 -5.20,-4.05 -4.96,-4.24 -4.72,-4.43 -4.44,-4.56 -4.17,-4.68 -3.87,-4.74 -3.57,-4.80 -3.26,-4.78 -2.96,-4.76 -1.92,-3.34 -0.88,-1.91 -0.89,0.53 -0.90,2.98 -0.88,3.19 -0.87,3.40 -0.92,3.61 -0.97,3.81 -1.09,3.99 -1.20,4.17 -1.37,4.30 -1.53,4.43 -1.73,4.50 -1.93,4.58 -2.15,4.58 -2.36,4.59 -2.56,4.52 -2.76,4.46 -2.94,4.33 -3.11,4.21 -3.23,4.03 -3.35,3.86 -3.41,3.66 -3.48,3.45 -3.47,3.24 -3.46,3.03 -3.39,2.83 -3.31,2.63 -3.18,2.47 -3.04,2.30 -2.86,2.19 -2.69,2.08 -2.48,2.03 -2.27,1.98 -2.06,1.99 -1.85,2.01 -1.65,2.10 -1.46,2.18 -1.30,2.33 -1.15,2.47 -1.04,2.65 -0.94,2.84 -0.90,3.05 -0.86,3.26 -0.89,3.47 -0.92,3.68 -1.02,3.87 -1.11,4.06 -1.26,4.21 -1.41,4.36 -1.61,4.45 -1.80,4.54 -2.01,4.57 -2.22,4.60 -2.43,4.56 -2.63,4.52 -2.82,4.41 -3.00,4.30 -3.14,4.14 -3.28,3.99 -3.37,3.79 -3.45,3.59 -3.45,3.59 -3.45,3.59 -4.41,2.08 -5.37,0.57 -5.61,-0.49 -5.85,-1.55 -4.85,-0.67 -3.85,0.20 -4.14,0.11 -4.43,0.02 -4.69,-0.13 -4.95,-0.28 -5.17,-0.50 -5.38,-0.71 -5.54,-0.97 -5.70,-1.23 -5.79,-1.52 -5.89,-1.81 -5.91,-2.11 -5.92,-2.42 -5.87,-2.72 -5.82,-3.02 -5.69,-3.30 -5.57,-3.57 -5.38,-3.81 -5.20,-4.05 -4.96,-4.24 -4.72,-4.43 -4.44,-4.56 -4.17,-4.68 -3.87,-4.74 -3.57,-4.80 -3.26,-4.78 -2.96,-4.76 -2.52,-4.48 -2.07,-4.20 -0.87,-3.96 0.33,-3.72 1.70,-2.90 3.06,-2.08 3.40,-1.07 3.74,-0.06 2.82,1.84 1.90,3.75 0.19,5.07 -1.51,6.39 -3.72,7.58 -5.94,8.77 -7.68,8.81 -9.43,8.86 -10.85,7.11 -12.27,5.37 -11.74,3.16 -11.20,0.96 -9.77,-0.94 -8.34,-2.86 -6.13,-4.01 -3.92,-5.17 -1.66,-4.91 0.60,-4.66 1.83,-3.13 3.06,-1.61 2.43,0.83 1.81,3.28 0.34,4.93 -1.12,6.58 -2.84,8.22 -4.56,9.85 -6.20,10.52 -7.83,11.18 -9.72,9.83 -11.62,8.48 -11.29,6.10 -10.96,3.73 -9.36,1.35 -7.75,-1.02 -5.68,-2.34 -3.61,-3.67 -1.32,-3.96 0.95,-4.25 2.60,-3.17 4.25,-2.08 4.58,-0.37 4.91,1.33 4.24,2.67 3.57,4.01 2.43,5.02 1.29,6.02 -0.45,6.32 -2.21,6.61 -3.42,5.85 -4.63,5.09 -5.10,3.68 -5.57,2.27 -5.22,0.78 -4.86,-0.70 -3.92,-1.57 -2.98,-2.44 -1.35,-2.51 0.28,-2.59 1.53,-1.56 2.78,-0.53 3.21,0.98 3.64,2.51 3.03,4.20 2.41,5.90 1.15,7.28 -0.11,8.66 -1.95,9.68 -3.78,10.71 -5.94,10.76 -8.09,10.81 -9.61,9.31 -11.13,7.80 -11.29,5.69 -11.46,3.58 -10.53,1.47 -9.59,-0.64 -7.91,-1.91 -6.23,-3.19 -4.17,-3.87 -2.12,-4.56 0.03,-4.01 2.19,-3.46 3.31,-2.25 4.44,-1.04 4.17,1.10 3.91,3.26 2.74,4.82 1.57,6.38 -0.18,7.69 -1.94,9.00 -4.19,10.33 -6.45,11.66 -7.88,11.47 -9.32,11.28 -10.43,9.41 -11.54,7.54 -10.85,5.43 -10.16,3.32 -8.79,1.84 -7.41,0.36 -5.09,-0.90 -2.77,-2.17 -0.23,-1.83 2.29,-1.49 3.44,-0.24 4.58,1.00 4.82,2.86 5.07,4.71 4.07,6.60 3.08,8.49 1.55,9.70 0.02,10.91 -2.00,11.35 -4.03,11.80 -5.57,10.63 -7.12,9.46 -7.47,7.54 -7.81,5.62 -7.31,3.83 -6.80,2.03 -5.54,0.81 -4.27,-0.40 -2.72,-0.73 -1.16,-1.05 0.91,-0.82 3.00,-0.58 3.84,0.20 4.68,0.99 5.15,2.51 5.63,4.03 5.10,5.80 4.57,7.57 3.53,8.85 2.48,10.12 0.43,11.46 -1.60,12.79 -3.56,12.56 -5.51,12.34 -6.76,10.68 -8.00,9.03 -7.93,6.85 -7.86,4.66 -7.03,2.04 -6.20,-0.57 -4.26,-3.11 -2.33,-5.65 0.16,-6.97 2.67,-8.29 4.77,-8.00 6.87,-7.70 8.06,-5.98 9.25,-4.26 9.04,-2.33 8.83,-0.41 7.87,1.14 6.92,2.71 5.46,4.08 3.99,5.45 1.98,6.69 -0.02,7.92 -1.77,8.13 -3.51,8.35 -4.68,7.08 -5.85,5.81 -5.25,4.05 -4.65,2.30 -3.29,1.11 -1.93,-0.06 -0.54,-0.61 0.85,-1.16 2.70,-1.22 4.55,-1.27 5.61,-0.28 6.68,0.71 6.52,2.77 6.36,4.83 5.54,5.68 4.73,6.52 3.30,7.86 1.87,9.20 -0.25,10.44 -2.39,11.68 -4.12,11.40 -5.84,11.12 -6.86,7.81 -7.88,4.50 -7.33,2.70 -6.78,0.89 -5.79,-0.37 -4.81,-1.64 -3.21,-2.12 -1.61,-2.60 -0.56,-1.92 0.49,-1.24 0.63,-1.16 0.77,-1.08 0.89,-0.97 1.01,-0.86 1.10,-0.73 1.19,-0.59 1.24,-0.44 1.30,-0.29 1.31,-0.13 1.33,0.02 1.31,0.18 1.29,0.34 1.23,0.49 1.17,0.64 1.07,0.77 0.98,0.90 0.86,1.00 0.73,1.11 0.59,1.18 0.45,1.25 0.29,1.29 0.13,1.32 -0.02,1.32 -0.18,1.32 -0.34,1.28 -0.49,1.24 -0.49,1.24 L -0.49,1.24 Z"></path></g><g stroke-linecap="round" transform="translate(124.65056489487904 121.57225798253938) rotate(0 34.021452652238025 43.94438715760265)"><path d="M17.01 0 C26.37 -0.38, 35.03 -1.06, 51.03 0 M17.01 0 C30.12 0.85, 42.11 -0.34, 51.03 0 M51.03 0 C63.7 0.25, 67.16 7.17, 68.04 17.01 M51.03 0 C63.52 -1.21, 66.73 4.31, 68.04 17.01 M68.04 17.01 C67.54 32.93, 68.98 51.32, 68.04 70.88 M68.04 17.01 C68.12 35.37, 68.99 53.19, 68.04 70.88 M68.04 70.88 C66.73 83.66, 61.76 87.95, 51.03 87.89 M68.04 70.88 C66.23 83.41, 60.3 88.68, 51.03 87.89 M51.03 87.89 C38.08 86.04, 25.43 89.44, 17.01 87.89 M51.03 87.89 C40.62 87.59, 30.28 86.83, 17.01 87.89 M17.01 87.89 C4.04 86.19, -0.63 81.36, 0 70.88 M17.01 87.89 C5.16 87.26, 1.45 81.32, 0 70.88 M0 70.88 C-1.59 53.1, -0.78 33.82, 0 17.01 M0 70.88 C-0.14 53.13, 0.07 36, 0 17.01 M0 17.01 C-1.05 6.05, 4.77 0.71, 17.01 0 M0 17.01 C-0.36 5.38, 3.8 0.83, 17.01 0" stroke="#1e1e1e" stroke-width="1" fill="none"></path></g><g stroke-linecap="round" transform="translate(123.94179544641929 302.31122519755394) rotate(0 32.60389753262572 38.2741342337678)"><path d="M16.3 0 C25.95 -0.69, 34.21 -0.02, 48.91 0 M16.3 0 C24.27 0.45, 33.26 -1.07, 48.91 0 M48.91 0 C61.69 -1.18, 64.39 4.68, 65.21 16.3 M48.91 0 C59.3 -1.21, 65.64 4.4, 65.21 16.3 M65.21 16.3 C63.51 31.76, 64.66 46.76, 65.21 60.25 M65.21 16.3 C66.11 32.15, 64.3 47.85, 65.21 60.25 M65.21 60.25 C64.92 69.43, 59.11 76.96, 48.91 76.55 M65.21 60.25 C63.39 71.75, 58.56 74.36, 48.91 76.55 M48.91 76.55 C37.98 75.18, 25.36 78.43, 16.3 76.55 M48.91 76.55 C36.66 77.48, 25.1 77.3, 16.3 76.55 M16.3 76.55 C5.82 75.62, -0.55 69.77, 0 60.25 M16.3 76.55 C3.28 76.79, 0.78 71.91, 0 60.25 M0 60.25 C0.69 45.72, -1.39 32.78, 0 16.3 M0 60.25 C0.3 45.71, -0.36 31.83, 0 16.3 M0 16.3 C0.07 6.64, 7.11 1.75, 16.3 0 M0 16.3 C-2.22 6.72, 4.68 -0.74, 16.3 0" stroke="#1e1e1e" stroke-width="1" fill="none"></path></g><g transform="translate(164.39706904720657 339.70343919120364) rotate(0 -6.3741904778093215 -2.360840106574699)" stroke="none"><path fill="#1e1e1e" d="M 1.36,0.40 Q 1.36,0.40 1.17,1.82 0.97,3.25 0.58,5.01 0.19,6.78 -0.47,8.46 -1.13,10.14 -1.71,11.21 -2.29,12.28 -3.07,13.19 -3.84,14.09 -4.92,15.22 -6.00,16.34 -6.87,17.19 -7.74,18.04 -9.17,18.28 -10.60,18.53 -12.20,18.71 -13.79,18.90 -15.45,18.49 -17.11,18.08 -18.15,17.11 -19.19,16.13 -19.93,15.18 -20.68,14.23 -21.85,12.91 -23.02,11.58 -23.53,10.59 -24.03,9.60 -24.05,7.91 -24.06,6.21 -23.40,5.06 -22.73,3.90 -21.70,2.92 -20.67,1.95 -19.41,0.84 -18.15,-0.25 -16.94,-1.19 -15.74,-2.12 -15.02,-2.99 -14.30,-3.86 -13.70,-4.90 -13.10,-5.93 -12.34,-7.41 -11.58,-8.88 -10.63,-10.27 -9.68,-11.67 -8.78,-12.83 -7.88,-14.00 -6.93,-14.85 -5.99,-15.70 -5.02,-16.94 -4.05,-18.18 -3.20,-19.74 -2.35,-21.30 -1.79,-22.71 -1.23,-24.12 -0.95,-25.21 -0.66,-26.31 -1.58,-27.37 -2.50,-28.43 -3.77,-28.53 -5.04,-28.62 -6.36,-28.52 -7.68,-28.42 -8.93,-27.85 -10.19,-27.29 -11.36,-26.25 -12.53,-25.21 -13.36,-24.24 -14.20,-23.26 -14.68,-21.98 -15.16,-20.70 -15.47,-19.23 -15.78,-17.76 -15.44,-16.20 -15.10,-14.63 -14.57,-13.70 -14.04,-12.77 -13.41,-11.70 -12.78,-10.63 -12.06,-9.28 -11.35,-7.94 -10.71,-6.42 -10.06,-4.91 -9.31,-3.62 -8.56,-2.34 -7.78,-1.28 -7.00,-0.21 -5.75,1.44 -4.50,3.11 -3.25,4.62 -2.00,6.13 -0.81,7.57 0.37,9.00 1.44,10.15 2.50,11.31 3.28,12.67 4.06,14.03 4.77,15.42 5.47,16.81 6.25,17.72 7.03,18.62 7.72,19.59 8.42,20.56 9.63,22.79 10.84,25.01 10.94,25.20 11.04,25.39 11.07,25.60 11.10,25.81 11.07,26.02 11.03,26.23 10.93,26.42 10.83,26.60 10.68,26.75 10.52,26.89 10.33,26.98 10.14,27.07 9.93,27.09 9.71,27.12 9.51,27.07 9.30,27.02 9.12,26.91 8.94,26.80 8.80,26.64 8.66,26.48 8.58,26.28 8.51,26.08 8.50,25.87 8.49,25.66 8.54,25.45 8.60,25.25 8.72,25.07 8.84,24.90 9.01,24.77 9.18,24.64 9.38,24.58 9.58,24.51 9.79,24.51 10.01,24.51 10.21,24.58 10.41,24.65 10.58,24.78 10.75,24.90 10.87,25.08 10.98,25.26 11.04,25.46 11.10,25.67 11.08,25.88 11.07,26.09 10.99,26.29 10.91,26.49 10.78,26.65 10.64,26.81 10.45,26.92 10.27,27.03 10.06,27.07 9.86,27.12 9.65,27.09 9.43,27.07 9.24,26.98 9.05,26.89 8.90,26.74 8.74,26.60 8.74,26.60 8.74,26.60 7.29,25.38 5.84,24.16 5.06,23.22 4.28,22.27 3.58,21.27 2.88,20.28 1.91,18.79 0.94,17.31 0.28,16.02 -0.38,14.73 -1.11,13.76 -1.84,12.80 -2.88,11.52 -3.92,10.23 -5.14,8.76 -6.35,7.29 -7.09,6.43 -7.83,5.58 -8.48,4.67 -9.14,3.77 -10.17,2.30 -11.21,0.84 -11.95,-0.41 -12.69,-1.66 -13.61,-3.34 -14.54,-5.02 -15.01,-6.20 -15.49,-7.38 -16.13,-8.47 -16.77,-9.56 -17.48,-10.61 -18.19,-11.66 -18.64,-13.07 -19.10,-14.48 -19.34,-15.61 -19.58,-16.75 -19.55,-18.33 -19.52,-19.91 -18.95,-21.79 -18.38,-23.67 -17.94,-24.70 -17.49,-25.72 -16.54,-26.85 -15.59,-27.99 -14.77,-28.93 -13.94,-29.87 -13.02,-30.42 -12.09,-30.98 -11.08,-31.49 -10.06,-32.00 -8.60,-32.37 -7.14,-32.74 -6.06,-32.73 -4.97,-32.73 -3.61,-32.63 -2.24,-32.53 -1.26,-32.05 -0.28,-31.58 0.80,-30.61 1.89,-29.64 2.44,-28.67 2.99,-27.71 2.97,-26.37 2.95,-25.02 2.62,-23.91 2.30,-22.79 1.64,-21.16 0.97,-19.53 -0.02,-17.73 -1.03,-15.93 -1.90,-14.87 -2.76,-13.81 -3.56,-13.05 -4.35,-12.29 -5.17,-11.40 -5.98,-10.51 -6.74,-9.46 -7.50,-8.41 -8.20,-7.15 -8.91,-5.89 -9.82,-4.20 -10.72,-2.50 -11.51,-1.50 -12.30,-0.49 -13.42,0.63 -14.55,1.76 -15.77,2.66 -16.98,3.56 -18.28,4.71 -19.58,5.87 -20.07,6.87 -20.57,7.87 -20.02,9.08 -19.47,10.30 -18.62,10.99 -17.78,11.68 -17.10,12.55 -16.41,13.43 -15.62,14.20 -14.83,14.98 -13.59,15.26 -12.35,15.54 -11.29,15.37 -10.24,15.19 -9.17,14.31 -8.09,13.43 -7.32,12.66 -6.55,11.90 -5.83,10.80 -5.10,9.70 -4.58,8.54 -4.06,7.37 -3.53,6.02 -3.01,4.66 -2.80,3.42 -2.60,2.17 -1.98,0.88 -1.36,-0.40 -1.29,-0.56 -1.22,-0.72 -1.12,-0.86 -1.01,-0.99 -0.88,-1.10 -0.74,-1.21 -0.59,-1.28 -0.43,-1.35 -0.26,-1.38 -0.10,-1.42 0.07,-1.41 0.24,-1.40 0.40,-1.35 0.57,-1.30 0.71,-1.21 0.86,-1.13 0.98,-1.01 1.11,-0.89 1.20,-0.74 1.29,-0.59 1.34,-0.43 1.39,-0.27 1.41,-0.10 1.42,0.07 1.39,0.24 1.36,0.40 1.36,0.40 L 1.36,0.40 Z"></path></g><g transform="translate(163.9248923803425 180.58474396552984) rotate(0 -14.637022781456352 -14.873116518356639)" stroke="none"><path fill="#1e1e1e" d="M -0.91,1.14 Q -0.91,1.14 -1.66,0.67 -2.41,0.19 -3.41,-1.08 -4.41,-2.36 -5.26,-2.99 -6.12,-3.62 -7.41,-4.33 -8.70,-5.05 -9.90,-5.77 -11.10,-6.49 -12.26,-7.43 -13.42,-8.36 -14.62,-9.02 -15.82,-9.68 -17.10,-10.39 -18.39,-11.10 -19.58,-12.10 -20.78,-13.10 -21.41,-14.00 -22.04,-14.90 -22.97,-16.11 -23.90,-17.32 -24.56,-18.24 -25.22,-19.15 -25.49,-20.42 -25.77,-21.69 -25.80,-22.90 -25.82,-24.11 -25.42,-25.70 -25.01,-27.30 -24.15,-28.56 -23.29,-29.83 -22.69,-30.75 -22.10,-31.67 -21.07,-32.80 -20.05,-33.94 -18.86,-34.70 -17.67,-35.46 -16.43,-36.01 -15.19,-36.57 -14.13,-36.79 -13.08,-37.01 -11.57,-36.87 -10.06,-36.73 -8.98,-35.98 -7.90,-35.23 -6.88,-34.58 -5.86,-33.92 -5.09,-33.13 -4.32,-32.33 -4.10,-31.23 -3.88,-30.12 -4.32,-28.93 -4.75,-27.73 -5.48,-26.90 -6.22,-26.06 -7.06,-25.19 -7.90,-24.32 -9.05,-23.34 -10.20,-22.37 -12.17,-21.25 -14.14,-20.14 -15.95,-19.10 -17.75,-18.07 -18.87,-17.41 -19.99,-16.75 -20.89,-16.01 -21.79,-15.27 -23.10,-13.70 -24.40,-12.12 -25.85,-10.63 -27.30,-9.14 -28.06,-7.79 -28.83,-6.45 -28.94,-5.18 -29.06,-3.91 -29.15,-2.65 -29.24,-1.39 -28.70,0.18 -28.17,1.76 -27.39,2.65 -26.61,3.54 -24.72,2.97 -22.82,2.39 -21.53,1.69 -20.24,1.00 -19.07,0.19 -17.90,-0.61 -16.77,-1.59 -15.64,-2.58 -14.54,-3.88 -13.44,-5.18 -12.23,-6.48 -11.02,-7.78 -9.79,-8.91 -8.56,-10.04 -7.48,-10.93 -6.40,-11.83 -5.40,-12.62 -4.40,-13.41 -1.75,-14.94 0.88,-16.47 1.07,-16.57 1.26,-16.66 1.47,-16.69 1.68,-16.72 1.89,-16.68 2.10,-16.65 2.29,-16.54 2.47,-16.44 2.62,-16.28 2.76,-16.12 2.84,-15.93 2.93,-15.73 2.95,-15.52 2.96,-15.31 2.91,-15.10 2.86,-14.90 2.75,-14.72 2.64,-14.54 2.47,-14.40 2.31,-14.27 2.11,-14.20 1.91,-14.12 1.70,-14.12 1.48,-14.11 1.28,-14.17 1.08,-14.23 0.90,-14.35 0.73,-14.48 0.61,-14.65 0.48,-14.82 0.42,-15.02 0.35,-15.23 0.36,-15.44 0.36,-15.65 0.44,-15.85 0.51,-16.05 0.64,-16.22 0.77,-16.38 0.95,-16.50 1.13,-16.61 1.34,-16.67 1.54,-16.72 1.75,-16.70 1.97,-16.69 2.16,-16.60 2.36,-16.52 2.52,-16.38 2.67,-16.24 2.78,-16.05 2.89,-15.87 2.93,-15.66 2.97,-15.45 2.94,-15.24 2.91,-15.03 2.82,-14.84 2.73,-14.65 2.58,-14.50 2.43,-14.35 2.43,-14.35 2.43,-14.35 0.07,-12.54 -2.29,-10.72 -3.26,-9.97 -4.23,-9.21 -5.24,-8.36 -6.25,-7.52 -7.39,-6.48 -8.53,-5.45 -9.69,-4.21 -10.85,-2.97 -12.13,-1.49 -13.42,-0.00 -14.70,1.08 -15.98,2.18 -17.30,3.08 -18.62,3.97 -20.88,5.16 -23.15,6.35 -24.37,6.78 -25.59,7.20 -27.27,6.69 -28.95,6.17 -30.22,4.68 -31.48,3.19 -31.91,2.16 -32.34,1.12 -32.60,-0.21 -32.87,-1.55 -32.83,-2.93 -32.78,-4.31 -32.57,-6.04 -32.37,-7.78 -31.86,-9.02 -31.35,-10.26 -30.02,-11.78 -28.69,-13.30 -27.34,-14.76 -25.99,-16.23 -25.14,-17.27 -24.28,-18.32 -23.14,-19.23 -22.00,-20.14 -20.87,-20.82 -19.74,-21.49 -18.67,-22.11 -17.59,-22.72 -16.65,-23.23 -15.70,-23.74 -14.25,-24.51 -12.79,-25.27 -11.71,-26.15 -10.62,-27.02 -9.53,-28.12 -8.44,-29.22 -8.51,-30.41 -8.58,-31.59 -9.61,-32.34 -10.63,-33.10 -11.68,-33.38 -12.72,-33.67 -13.81,-33.33 -14.90,-33.00 -15.88,-32.51 -16.85,-32.02 -17.86,-31.04 -18.87,-30.06 -19.65,-28.96 -20.42,-27.86 -21.18,-26.71 -21.94,-25.55 -22.11,-24.24 -22.28,-22.93 -21.99,-21.65 -21.70,-20.36 -20.89,-19.29 -20.07,-18.22 -19.20,-16.99 -18.33,-15.76 -17.43,-14.98 -16.53,-14.19 -15.40,-13.59 -14.28,-12.99 -12.86,-12.18 -11.44,-11.37 -10.22,-10.34 -9.00,-9.31 -7.83,-8.63 -6.65,-7.95 -5.51,-7.31 -4.36,-6.67 -3.08,-5.60 -1.80,-4.53 -1.05,-3.45 -0.29,-2.37 0.31,-1.76 0.91,-1.14 1.04,-1.02 1.16,-0.89 1.25,-0.74 1.34,-0.59 1.39,-0.42 1.45,-0.25 1.45,-0.07 1.46,0.10 1.43,0.27 1.40,0.45 1.32,0.61 1.25,0.77 1.14,0.91 1.03,1.05 0.88,1.15 0.74,1.26 0.58,1.33 0.42,1.40 0.24,1.44 0.07,1.47 -0.10,1.45 -0.28,1.44 -0.44,1.39 -0.61,1.33 -0.76,1.24 -0.91,1.14 -0.91,1.14 L -0.91,1.14 Z"></path></g><g stroke-linecap="round"><g transform="translate(87.90678331349477 256.60285303237754) rotate(0 95.37676883370773 0.2360883334320505)"><path d="M-0.54 0.45 C31.64 0.39, 160.13 0.57, 191.93 0.39 M1.37 -0.36 C33.6 -0.29, 160.29 1.8, 191.59 1.89" stroke="#1e1e1e" stroke-width="1" fill="none"></path></g></g><mask></mask><g transform="translate(67.60379182677946 245.27095884960542) rotate(0 -6.138102144377257 11.331894182772132)" stroke="none"><path fill="#1e1e1e" d="M 0.85,1.17 Q 0.85,1.17 -0.48,2.46 -1.83,3.75 -2.77,4.38 -3.72,5.00 -4.62,5.64 -5.51,6.28 -6.38,7.02 -7.25,7.77 -8.08,8.82 -8.91,9.87 -9.46,11.68 -10.02,13.49 -9.87,14.61 -9.73,15.72 -9.20,16.92 -8.67,18.11 -7.28,18.73 -5.88,19.36 -4.83,19.85 -3.78,20.34 -2.03,20.82 -0.28,21.30 -0.07,21.36 0.12,21.42 0.29,21.54 0.47,21.66 0.60,21.83 0.72,22.00 0.79,22.21 0.85,22.41 0.85,22.62 0.85,22.83 0.78,23.03 0.71,23.23 0.58,23.40 0.45,23.57 0.27,23.69 0.09,23.80 -0.10,23.86 -0.31,23.91 -0.52,23.90 -0.73,23.88 -0.93,23.80 -1.13,23.72 -1.29,23.58 -1.45,23.44 -1.55,23.26 -1.66,23.08 -1.70,22.87 -1.75,22.66 -1.72,22.45 -1.70,22.24 -1.61,22.05 -1.51,21.85 -1.37,21.70 -1.22,21.55 -1.03,21.45 -0.84,21.36 -0.63,21.32 -0.42,21.29 -0.21,21.33 -0.00,21.37 0.18,21.47 0.36,21.57 0.51,21.73 0.65,21.88 0.74,22.08 0.82,22.27 0.84,22.48 0.86,22.69 0.82,22.90 0.77,23.11 0.66,23.29 0.54,23.47 0.38,23.60 0.22,23.74 0.02,23.82 -0.17,23.89 -0.38,23.90 -0.59,23.91 -0.59,23.91 -0.59,23.91 -2.87,23.75 -5.14,23.58 -6.29,23.14 -7.45,22.69 -8.53,22.17 -9.62,21.65 -10.64,20.93 -11.66,20.21 -12.50,18.15 -13.34,16.10 -13.48,14.48 -13.62,12.86 -12.76,10.15 -11.91,7.45 -10.85,6.17 -9.80,4.89 -8.79,3.99 -7.78,3.09 -5.96,1.84 -4.14,0.58 -2.49,-0.29 -0.85,-1.17 -0.70,-1.26 -0.55,-1.34 -0.38,-1.39 -0.21,-1.44 -0.03,-1.44 0.14,-1.45 0.31,-1.41 0.48,-1.37 0.64,-1.29 0.79,-1.21 0.93,-1.10 1.06,-0.99 1.17,-0.85 1.27,-0.70 1.33,-0.54 1.40,-0.38 1.43,-0.20 1.45,-0.03 1.44,0.13 1.42,0.31 1.36,0.47 1.30,0.64 1.21,0.79 1.11,0.93 0.98,1.05 0.85,1.17 0.85,1.17 L 0.85,1.17 Z"></path></g><g stroke-linecap="round"><g transform="translate(50.60595055262132 171.61364666158664) rotate(0 37.30082195393703 0.7082433864232627)"><path d="M-0.51 -0.99 C11.71 -0.79, 60.97 1.66, 73.53 2.24 M1.42 1.1 C13.99 1.49, 63.54 0.61, 75.68 0.56" stroke="#1e1e1e" stroke-width="1" fill="none"></path></g></g><mask></mask><g stroke-linecap="round"><g transform="translate(55.32758753802494 339.2312625243395) rotate(0 33.05135082846107 1.1803984394144607)"><path d="M0.32 0.76 C11.43 1.02, 56.16 1.19, 67.12 1.27 M-0.98 0.12 C10.03 0.52, 55.66 1.93, 66.7 2.23" stroke="#1e1e1e" stroke-width="1" fill="none"></path></g></g><mask></mask><g transform="translate(10 156.9766238801303) rotate(0 9.679324479961764 12.04013756919538)" stroke="none"><path fill="#1e1e1e" d="M -0.21,-1.51 Q -0.21,-1.51 1.66,-1.89 3.55,-2.27 5.01,-2.52 6.48,-2.76 7.93,-3.00 9.37,-3.24 10.65,-3.48 11.93,-3.72 13.00,-3.95 14.06,-4.18 15.62,-4.20 17.18,-4.21 18.21,-3.14 19.25,-2.06 19.56,-0.46 19.87,1.13 20.10,2.80 20.34,4.47 20.57,5.95 20.80,7.43 20.90,8.81 21.01,10.20 21.05,11.61 21.09,13.02 21.10,14.43 21.11,15.85 20.97,17.61 20.83,19.37 20.78,20.86 20.73,22.35 20.57,23.51 20.41,24.67 19.68,26.26 18.95,27.85 17.66,28.13 16.36,28.40 14.20,28.27 12.03,28.14 10.13,27.89 8.22,27.63 6.68,26.58 5.13,25.52 4.72,24.40 4.32,23.28 4.77,20.05 5.22,16.82 5.29,16.62 5.36,16.41 5.49,16.25 5.62,16.08 5.80,15.96 5.97,15.84 6.18,15.79 6.39,15.73 6.60,15.75 6.81,15.76 7.01,15.84 7.20,15.92 7.36,16.06 7.52,16.20 7.63,16.38 7.74,16.57 7.78,16.77 7.83,16.98 7.80,17.19 7.78,17.40 7.69,17.60 7.60,17.79 7.45,17.94 7.30,18.09 7.11,18.19 6.92,18.29 6.71,18.32 6.50,18.35 6.29,18.32 6.08,18.28 5.90,18.18 5.71,18.08 5.57,17.92 5.42,17.77 5.33,17.57 5.25,17.38 5.23,17.17 5.20,16.96 5.25,16.75 5.30,16.54 5.41,16.36 5.52,16.18 5.69,16.04 5.85,15.91 6.05,15.83 6.24,15.76 6.46,15.75 6.67,15.74 6.87,15.79 7.08,15.85 7.25,15.97 7.43,16.10 7.55,16.27 7.68,16.44 7.75,16.64 7.81,16.84 7.81,17.05 7.81,17.26 7.81,17.26 7.81,17.26 7.77,20.20 7.73,23.14 8.97,23.58 10.22,24.01 12.23,24.22 14.23,24.43 15.50,24.83 16.77,25.23 16.99,23.73 17.20,22.22 17.25,20.66 17.31,19.10 17.43,17.49 17.55,15.89 17.52,14.51 17.50,13.13 17.45,11.80 17.41,10.46 17.32,9.22 17.24,7.97 17.01,6.46 16.78,4.96 16.58,3.42 16.38,1.89 15.59,0.56 14.80,-0.77 13.68,-0.53 12.56,-0.29 11.26,-0.05 9.95,0.18 8.50,0.43 7.06,0.67 5.55,0.93 4.04,1.19 2.13,1.35 0.21,1.51 0.03,1.51 -0.15,1.52 -0.33,1.48 -0.51,1.44 -0.67,1.36 -0.84,1.27 -0.98,1.15 -1.12,1.03 -1.23,0.88 -1.34,0.73 -1.40,0.56 -1.47,0.39 -1.50,0.21 -1.53,0.03 -1.51,-0.15 -1.49,-0.33 -1.43,-0.50 -1.37,-0.68 -1.26,-0.83 -1.16,-0.99 -1.03,-1.11 -0.89,-1.24 -0.73,-1.33 -0.57,-1.41 -0.39,-1.46 -0.21,-1.51 -0.21,-1.51 L -0.21,-1.51 Z"></path></g><g transform="translate(23.69270186853754 324.5942181290103) rotate(0 -1.4164867728465538 12.748380955618643)" stroke="none"><path fill="#1e1e1e" d="M 1.45,0.10 Q 1.45,0.10 1.45,2.01 1.46,3.92 1.41,5.91 1.35,7.90 1.19,9.51 1.03,11.12 0.83,12.87 0.63,14.62 0.26,16.52 -0.10,18.41 -0.39,19.86 -0.68,21.31 -0.68,23.06 -0.69,24.81 -0.68,25.02 -0.67,25.23 -0.72,25.44 -0.78,25.64 -0.90,25.82 -1.02,26.00 -1.18,26.12 -1.35,26.25 -1.55,26.32 -1.75,26.39 -1.97,26.39 -2.18,26.39 -2.38,26.33 -2.58,26.26 -2.75,26.13 -2.92,26.00 -3.04,25.83 -3.16,25.65 -3.22,25.45 -3.28,25.24 -3.27,25.03 -3.26,24.82 -3.18,24.62 -3.10,24.42 -2.96,24.26 -2.83,24.10 -2.65,23.99 -2.46,23.88 -2.26,23.83 -2.05,23.79 -1.84,23.81 -1.63,23.83 -1.43,23.92 -1.24,24.01 -1.09,24.15 -0.93,24.30 -0.83,24.48 -0.73,24.67 -0.69,24.88 -0.66,25.09 -0.69,25.30 -0.73,25.51 -0.82,25.70 -0.92,25.89 -1.08,26.03 -1.23,26.18 -1.42,26.27 -1.62,26.36 -1.83,26.38 -2.04,26.41 -2.25,26.36 -2.45,26.32 -2.64,26.21 -2.82,26.10 -2.96,25.94 -3.10,25.78 -3.17,25.58 -3.25,25.38 -3.25,25.38 -3.25,25.38 -3.69,23.02 -4.13,20.65 -3.84,19.19 -3.55,17.73 -3.21,15.97 -2.86,14.21 -2.65,12.49 -2.45,10.76 -2.29,9.28 -2.13,7.80 -2.06,5.74 -2.00,3.67 -1.72,1.78 -1.45,-0.10 -1.41,-0.27 -1.38,-0.44 -1.30,-0.60 -1.23,-0.76 -1.12,-0.90 -1.01,-1.03 -0.87,-1.14 -0.73,-1.25 -0.57,-1.32 -0.41,-1.39 -0.24,-1.42 -0.07,-1.45 0.10,-1.43 0.27,-1.42 0.44,-1.37 0.61,-1.31 0.76,-1.22 0.90,-1.13 1.03,-1.00 1.15,-0.88 1.24,-0.73 1.33,-0.58 1.38,-0.41 1.43,-0.24 1.44,-0.07 1.45,0.10 1.45,0.10 L 1.45,0.10 Z"></path></g><g transform="translate(40.21838808970443 326.9550366217121) rotate(0 -5.665952494854253 12.04014837613181)" stroke="none"><path fill="#1e1e1e" d="M 0.56,1.68 Q 0.56,1.68 -0.58,2.30 -1.73,2.93 -2.98,3.46 -4.22,4.00 -5.78,4.86 -7.34,5.72 -8.27,6.55 -9.21,7.38 -10.37,8.41 -11.53,9.44 -10.93,10.82 -10.34,12.20 -9.16,13.86 -7.98,15.52 -6.99,16.46 -5.99,17.40 -4.94,18.19 -3.89,18.97 -2.92,19.55 -1.95,20.13 -1.03,20.68 -0.10,21.23 1.17,21.98 2.45,22.73 2.64,22.82 2.83,22.92 2.98,23.07 3.13,23.22 3.22,23.42 3.31,23.61 3.34,23.82 3.36,24.03 3.32,24.24 3.28,24.45 3.17,24.63 3.06,24.81 2.90,24.95 2.74,25.09 2.55,25.17 2.35,25.26 2.14,25.27 1.93,25.29 1.72,25.23 1.52,25.18 1.34,25.06 1.16,24.94 1.03,24.78 0.90,24.61 0.83,24.41 0.76,24.21 0.75,24.00 0.75,23.78 0.82,23.58 0.88,23.38 1.01,23.21 1.13,23.04 1.31,22.92 1.48,22.79 1.69,22.73 1.89,22.67 2.10,22.68 2.31,22.69 2.51,22.77 2.71,22.84 2.87,22.98 3.04,23.11 3.15,23.29 3.26,23.47 3.31,23.68 3.36,23.89 3.34,24.10 3.32,24.31 3.23,24.50 3.15,24.70 3.00,24.85 2.86,25.01 2.67,25.11 2.49,25.22 2.28,25.25 2.07,25.29 1.86,25.26 1.65,25.23 1.65,25.23 1.65,25.23 -0.09,24.80 -1.84,24.37 -2.88,23.84 -3.91,23.31 -5.00,22.61 -6.09,21.92 -7.33,20.98 -8.56,20.05 -9.75,18.86 -10.94,17.68 -11.61,16.75 -12.28,15.83 -13.33,14.10 -14.39,12.37 -14.90,10.69 -15.41,9.01 -14.96,7.66 -14.51,6.30 -13.28,5.16 -12.05,4.01 -10.77,2.96 -9.48,1.92 -7.74,0.93 -5.99,-0.05 -4.57,-0.67 -3.14,-1.30 -1.85,-1.49 -0.56,-1.68 -0.35,-1.72 -0.14,-1.76 0.07,-1.75 0.28,-1.74 0.49,-1.68 0.69,-1.63 0.88,-1.52 1.06,-1.41 1.21,-1.26 1.37,-1.12 1.48,-0.93 1.60,-0.75 1.66,-0.55 1.73,-0.35 1.75,-0.14 1.77,0.07 1.73,0.28 1.70,0.49 1.61,0.69 1.53,0.88 1.40,1.05 1.27,1.22 1.11,1.36 0.94,1.49 0.75,1.58 0.56,1.68 0.56,1.68 L 0.56,1.68 Z"></path></g><g stroke-linecap="round"><g transform="translate(864.9644886993815 14.333456767238545) rotate(0 -389.96573415844114 63.502623322418145)"><path d="M-0.55 0.81 C-103.74 1.68, -492.67 3.65, -618.23 4.09 C-743.79 4.52, -726.95 -14.63, -753.92 3.45 C-780.89 21.52, -782.1 92.12, -780.05 112.55 C-778 132.99, -748.13 123.78, -741.61 126.07 M1.36 0.19 C-102.02 0.81, -492.89 1.63, -618.86 2.32 C-744.83 3.01, -727.62 -14.15, -754.45 4.33 C-781.29 22.82, -781.75 92.96, -779.86 113.23 C-777.97 133.5, -749.27 123.42, -743.1 125.96" stroke="#1e1e1e" stroke-width="1" fill="none"></path></g></g><mask></mask><g stroke-linecap="round"><g transform="translate(1001.3459736527375 174.58168402885997) rotate(0 -468.81127161168325 160.67439330811206)"><path d="M-1.2 1.19 C-15.71 53.43, 52.12 260.77, -87.32 314.06 C-226.76 367.34, -696.33 339.91, -837.86 320.9 C-979.4 301.89, -929.28 221.88, -936.53 199.98 C-943.79 178.09, -890.63 191.6, -881.41 189.53 M0.37 0.77 C-14.23 53.11, 51.74 261.81, -88.02 315.35 C-227.77 368.88, -696.27 341.13, -838.17 321.98 C-980.06 302.83, -931.92 222.99, -939.37 200.47 C-946.83 177.95, -892.85 188.66, -882.91 186.87" stroke="#1e1e1e" stroke-width="1" fill="none"></path></g></g><mask></mask><g transform="translate(312.62995706439574 140.24601005467972) rotate(0 12.65315741338678 11.878485885935149)" stroke="none"><path fill="#1e1e1e" d="M -0.48,-1.44 Q -0.48,-1.44 1.30,-2.02 3.09,-2.60 4.68,-3.27 6.28,-3.94 8.43,-4.98 10.58,-6.01 11.81,-6.60 13.03,-7.19 15.29,-8.45 17.55,-9.72 19.14,-10.58 20.72,-11.44 21.96,-11.87 23.20,-12.30 24.64,-12.04 26.07,-11.78 26.31,-10.35 26.56,-8.92 26.32,-7.75 26.09,-6.58 25.59,-4.65 25.10,-2.72 24.77,-0.42 24.45,1.87 23.69,5.18 22.94,8.50 22.20,11.82 21.47,15.13 20.88,18.29 20.29,21.46 19.90,23.84 19.51,26.21 19.19,28.26 18.87,30.30 17.97,33.05 17.07,35.80 16.86,35.84 16.65,35.88 16.44,35.85 16.23,35.82 16.04,35.73 15.85,35.64 15.69,35.49 15.54,35.34 15.45,35.15 15.35,34.96 15.32,34.75 15.29,34.54 15.33,34.33 15.37,34.12 15.47,33.94 15.58,33.75 15.73,33.61 15.89,33.46 16.08,33.38 16.28,33.29 16.49,33.28 16.70,33.26 16.91,33.31 17.12,33.36 17.30,33.47 17.48,33.58 17.61,33.75 17.74,33.91 17.82,34.11 17.89,34.31 17.90,34.52 17.91,34.74 17.85,34.94 17.79,35.14 17.66,35.32 17.54,35.49 17.37,35.61 17.20,35.74 16.99,35.80 16.79,35.87 16.58,35.86 16.37,35.86 16.17,35.79 15.97,35.71 15.80,35.58 15.63,35.45 15.52,35.27 15.40,35.09 15.35,34.89 15.30,34.68 15.31,34.47 15.33,34.26 15.41,34.06 15.49,33.87 15.63,33.71 15.78,33.55 15.96,33.44 16.14,33.34 16.14,33.34 16.14,33.34 15.64,31.53 15.13,29.71 15.46,27.64 15.79,25.57 16.22,23.16 16.66,20.75 17.31,17.54 17.96,14.32 18.74,11.02 19.53,7.72 20.26,4.54 21.00,1.36 21.37,-1.12 21.75,-3.61 22.20,-5.27 22.66,-6.93 23.54,-8.13 24.43,-9.34 23.28,-9.06 22.14,-8.78 20.57,-7.95 19.01,-7.11 16.67,-5.80 14.33,-4.49 13.10,-3.90 11.87,-3.31 9.65,-2.26 7.43,-1.21 5.73,-0.49 4.03,0.22 2.25,0.83 0.48,1.44 0.30,1.48 0.12,1.52 -0.06,1.51 -0.24,1.50 -0.42,1.45 -0.59,1.40 -0.75,1.31 -0.91,1.22 -1.05,1.09 -1.18,0.96 -1.28,0.80 -1.38,0.65 -1.43,0.47 -1.49,0.30 -1.51,0.12 -1.52,-0.06 -1.49,-0.24 -1.46,-0.42 -1.39,-0.59 -1.32,-0.76 -1.21,-0.91 -1.10,-1.05 -0.95,-1.17 -0.81,-1.29 -0.64,-1.36 -0.48,-1.44 -0.48,-1.44 L -0.48,-1.44 Z"></path></g><g transform="translate(364.7919770557653 133.01564789929276) rotate(0 -10.329119189572282 20.141755231987403)" stroke="none"><path fill="#1e1e1e" d="M -0.19,1.76 Q -0.19,1.76 -1.52,1.74 -2.85,1.73 -4.55,2.21 -6.26,2.70 -8.15,3.60 -10.04,4.49 -11.18,5.39 -12.33,6.30 -12.91,7.31 -13.49,8.33 -12.42,9.72 -11.34,11.10 -10.36,11.77 -9.38,12.43 -8.09,13.15 -6.81,13.87 -5.67,14.71 -4.53,15.55 -3.71,16.73 -2.89,17.91 -2.65,20.02 -2.42,22.13 -2.66,24.51 -2.91,26.89 -3.48,29.15 -4.05,31.41 -4.76,33.20 -5.47,34.99 -6.61,36.54 -7.75,38.09 -9.11,39.15 -10.48,40.21 -12.12,40.84 -13.75,41.47 -15.20,41.75 -16.65,42.03 -18.14,42.20 -19.64,42.38 -19.85,42.41 -20.06,42.43 -20.27,42.39 -20.48,42.35 -20.66,42.24 -20.85,42.14 -20.99,41.98 -21.13,41.82 -21.21,41.62 -21.29,41.43 -21.31,41.22 -21.33,41.01 -21.27,40.80 -21.22,40.59 -21.10,40.42 -20.99,40.24 -20.82,40.11 -20.66,39.97 -20.46,39.90 -20.26,39.83 -20.04,39.83 -19.83,39.82 -19.63,39.88 -19.43,39.95 -19.25,40.07 -19.08,40.20 -18.96,40.37 -18.84,40.55 -18.78,40.75 -18.71,40.95 -18.72,41.16 -18.73,41.38 -18.80,41.58 -18.88,41.78 -19.01,41.94 -19.15,42.10 -19.33,42.22 -19.51,42.33 -19.71,42.38 -19.92,42.43 -20.13,42.41 -20.34,42.39 -20.54,42.31 -20.73,42.22 -20.89,42.08 -21.05,41.94 -21.15,41.75 -21.25,41.57 -21.29,41.36 -21.33,41.15 -21.30,40.94 -21.27,40.73 -21.17,40.54 -21.08,40.35 -20.93,40.20 -20.78,40.05 -20.58,39.96 -20.39,39.86 -20.39,39.86 -20.39,39.86 -19.00,39.17 -17.62,38.49 -16.39,38.03 -15.17,37.58 -14.02,37.19 -12.87,36.81 -11.88,36.17 -10.89,35.54 -9.96,34.50 -9.04,33.47 -8.38,31.96 -7.73,30.45 -7.19,28.45 -6.65,26.45 -6.39,24.39 -6.13,22.33 -6.43,20.33 -6.73,18.32 -7.63,17.62 -8.53,16.92 -9.95,16.12 -11.36,15.31 -12.53,14.49 -13.71,13.67 -15.06,12.24 -16.41,10.82 -16.72,9.37 -17.03,7.93 -16.72,6.29 -16.41,4.66 -15.58,3.89 -14.74,3.12 -13.25,2.01 -11.75,0.90 -9.51,-0.13 -7.28,-1.17 -4.89,-1.75 -2.49,-2.32 -1.14,-2.04 0.19,-1.76 0.40,-1.71 0.61,-1.66 0.80,-1.56 0.99,-1.46 1.15,-1.32 1.31,-1.18 1.43,-1.01 1.56,-0.83 1.63,-0.64 1.71,-0.44 1.74,-0.22 1.77,-0.01 1.74,0.19 1.72,0.40 1.65,0.60 1.57,0.80 1.45,0.98 1.33,1.16 1.17,1.30 1.02,1.44 0.83,1.54 0.64,1.65 0.43,1.70 0.23,1.75 0.01,1.75 -0.19,1.76 -0.19,1.76 L -0.19,1.76 Z"></path></g><g transform="translate(287.32364223762227 235.2738498592416) rotate(0 17.301245681745556 20.141767052717228)" stroke="none"><path fill="#1e1e1e" d="M 0.88,-1.13 Q 0.88,-1.13 2.32,-0.23 3.76,0.66 4.76,1.38 5.75,2.10 7.05,2.99 8.36,3.88 9.63,4.70 10.91,5.52 12.19,6.31 13.48,7.10 16.33,8.65 19.18,10.20 21.27,11.09 23.36,11.98 25.31,12.81 27.26,13.63 28.82,14.29 30.38,14.94 31.67,15.52 32.96,16.11 34.66,16.81 36.37,17.52 37.27,18.96 38.17,20.41 37.22,21.50 36.27,22.59 35.25,23.15 34.23,23.70 32.49,24.61 30.75,25.51 29.47,26.17 28.19,26.82 26.09,27.72 24.00,28.61 22.16,29.55 20.33,30.48 18.87,31.43 17.42,32.37 15.63,33.30 13.84,34.22 12.10,35.18 10.36,36.13 8.45,36.89 6.54,37.66 5.04,38.25 3.54,38.85 2.55,39.35 1.56,39.86 0.34,40.38 -0.86,40.90 -1.03,41.04 -1.19,41.17 -1.39,41.25 -1.58,41.33 -1.80,41.34 -2.01,41.35 -2.21,41.29 -2.42,41.23 -2.59,41.11 -2.77,40.99 -2.90,40.82 -3.02,40.65 -3.09,40.45 -3.16,40.25 -3.15,40.04 -3.15,39.82 -3.08,39.62 -3.01,39.42 -2.89,39.25 -2.76,39.08 -2.58,38.97 -2.40,38.85 -2.20,38.79 -1.99,38.74 -1.78,38.75 -1.57,38.76 -1.37,38.84 -1.17,38.92 -1.01,39.06 -0.85,39.20 -0.74,39.38 -0.64,39.57 -0.59,39.77 -0.55,39.98 -0.57,40.19 -0.60,40.40 -0.69,40.60 -0.78,40.79 -0.92,40.94 -1.07,41.09 -1.26,41.19 -1.45,41.29 -1.66,41.32 -1.87,41.36 -2.08,41.32 -2.29,41.29 -2.47,41.18 -2.66,41.08 -2.81,40.93 -2.95,40.77 -3.04,40.58 -3.13,40.39 -3.15,40.17 -3.17,39.96 -3.12,39.76 -3.08,39.55 -2.96,39.37 -2.85,39.19 -2.85,39.19 -2.85,39.19 -1.64,37.58 -0.42,35.97 0.75,35.37 1.92,34.78 3.43,34.18 4.93,33.58 6.60,32.93 8.26,32.28 10.05,31.30 11.83,30.33 13.44,29.51 15.04,28.69 16.69,27.63 18.34,26.57 20.31,25.58 22.28,24.59 24.25,23.75 26.23,22.91 28.46,21.82 30.69,20.73 32.10,20.46 33.51,20.19 32.49,19.78 31.47,19.37 30.24,18.81 29.01,18.25 27.43,17.60 25.85,16.95 23.90,16.11 21.96,15.27 19.78,14.33 17.60,13.40 14.60,11.78 11.60,10.15 10.29,9.35 8.98,8.54 7.65,7.70 6.32,6.85 4.98,5.93 3.64,5.00 2.60,4.24 1.57,3.48 0.34,2.31 -0.88,1.13 -1.00,1.01 -1.12,0.88 -1.21,0.74 -1.30,0.59 -1.35,0.42 -1.41,0.26 -1.42,0.09 -1.43,-0.08 -1.40,-0.25 -1.37,-0.42 -1.30,-0.58 -1.23,-0.73 -1.12,-0.87 -1.01,-1.01 -0.88,-1.11 -0.74,-1.22 -0.58,-1.29 -0.43,-1.36 -0.26,-1.40 -0.09,-1.43 0.08,-1.42 0.25,-1.41 0.41,-1.36 0.58,-1.31 0.73,-1.22 0.88,-1.13 0.88,-1.13 L 0.88,-1.13 Z"></path></g><g transform="translate(354.462857866193 246.63586441874943) rotate(0 -6.455690627935326 11.620250222721438)" stroke="none"><path fill="#1e1e1e" d="M -0.66,1.77 Q -0.66,1.77 -1.88,1.41 -3.10,1.05 -4.14,1.31 -5.18,1.58 -6.67,4.06 -8.15,6.54 -8.97,8.54 -9.79,10.55 -10.13,14.00 -10.47,17.45 -9.70,19.00 -8.92,20.55 -6.64,21.46 -4.36,22.37 -4.15,22.42 -3.95,22.47 -3.77,22.59 -3.59,22.70 -3.46,22.87 -3.32,23.04 -3.25,23.24 -3.18,23.44 -3.17,23.65 -3.17,23.86 -3.23,24.06 -3.29,24.27 -3.42,24.44 -3.54,24.61 -3.72,24.73 -3.89,24.86 -4.09,24.92 -4.30,24.98 -4.51,24.97 -4.72,24.97 -4.92,24.89 -5.12,24.82 -5.28,24.69 -5.45,24.55 -5.56,24.37 -5.68,24.19 -5.73,23.99 -5.78,23.78 -5.76,23.57 -5.74,23.36 -5.66,23.16 -5.57,22.97 -5.43,22.81 -5.29,22.65 -5.10,22.55 -4.92,22.44 -4.71,22.40 -4.50,22.37 -4.29,22.40 -4.08,22.42 -3.89,22.52 -3.70,22.62 -3.55,22.77 -3.40,22.92 -3.31,23.11 -3.21,23.30 -3.18,23.51 -3.16,23.72 -3.20,23.93 -3.24,24.14 -3.34,24.32 -3.45,24.51 -3.61,24.65 -3.77,24.79 -3.96,24.87 -4.16,24.95 -4.37,24.97 -4.58,24.99 -4.58,24.99 -4.58,24.99 -6.97,24.90 -9.37,24.81 -10.82,23.53 -12.28,22.25 -13.29,19.92 -14.29,17.59 -14.27,14.42 -14.25,11.26 -13.86,10.15 -13.48,9.04 -12.57,6.84 -11.67,4.63 -10.60,2.66 -9.53,0.69 -8.32,-0.68 -7.10,-2.06 -5.45,-2.66 -3.80,-3.26 -2.72,-3.05 -1.64,-2.83 -0.49,-2.30 0.66,-1.77 0.86,-1.67 1.07,-1.56 1.24,-1.41 1.41,-1.26 1.54,-1.07 1.67,-0.88 1.76,-0.67 1.84,-0.46 1.87,-0.23 1.89,-0.00 1.87,0.22 1.84,0.44 1.76,0.66 1.68,0.87 1.55,1.06 1.42,1.25 1.25,1.40 1.08,1.55 0.88,1.66 0.67,1.77 0.45,1.82 0.23,1.88 0.00,1.88 -0.22,1.88 -0.44,1.83 -0.66,1.77 -0.66,1.77 L -0.66,1.77 Z"></path></g><g transform="translate(367.890710448491 255.41561691195884) rotate(0 10.070883526358614 1.0329071906652985)" stroke="none"><path fill="#1e1e1e" d="M -0.95,-1.79 Q -0.95,-1.79 1.30,-2.91 3.56,-4.03 5.90,-5.67 8.23,-7.31 9.40,-8.16 10.56,-9.01 11.73,-9.73 12.90,-10.45 14.63,-10.99 16.37,-11.52 18.20,-11.15 20.04,-10.77 20.60,-9.81 21.15,-8.86 21.01,-6.95 20.88,-5.05 20.33,-2.81 19.78,-0.58 19.26,1.25 18.73,3.08 18.04,4.95 17.36,6.82 16.94,8.14 16.53,9.45 15.91,10.85 15.29,12.26 15.22,12.46 15.16,12.66 15.03,12.83 14.90,13.00 14.73,13.13 14.56,13.25 14.35,13.31 14.15,13.37 13.94,13.36 13.72,13.35 13.53,13.27 13.33,13.20 13.16,13.06 13.00,12.93 12.89,12.75 12.77,12.57 12.73,12.36 12.68,12.15 12.70,11.94 12.72,11.73 12.80,11.53 12.89,11.34 13.04,11.18 13.18,11.03 13.37,10.93 13.55,10.82 13.76,10.79 13.97,10.75 14.18,10.78 14.39,10.81 14.58,10.91 14.77,11.01 14.92,11.16 15.07,11.31 15.16,11.50 15.25,11.69 15.27,11.91 15.30,12.12 15.26,12.32 15.21,12.53 15.11,12.72 15.00,12.90 14.84,13.04 14.68,13.18 14.48,13.26 14.29,13.34 14.08,13.36 13.86,13.37 13.66,13.32 13.45,13.26 13.28,13.15 13.10,13.03 12.97,12.86 12.84,12.69 12.77,12.49 12.70,12.29 12.69,12.08 12.69,11.87 12.69,11.87 12.69,11.87 12.66,10.04 12.63,8.21 13.08,6.81 13.53,5.40 14.17,3.67 14.82,1.94 15.33,0.19 15.85,-1.55 16.36,-3.56 16.86,-5.56 17.13,-6.71 17.39,-7.85 16.11,-7.52 14.83,-7.20 13.81,-6.58 12.79,-5.97 11.59,-5.09 10.39,-4.21 7.86,-2.46 5.34,-0.71 3.14,0.53 0.95,1.79 0.72,1.88 0.49,1.96 0.25,1.99 0.01,2.03 -0.22,2.00 -0.47,1.97 -0.70,1.88 -0.93,1.80 -1.13,1.66 -1.33,1.52 -1.50,1.34 -1.66,1.16 -1.77,0.94 -1.89,0.73 -1.95,0.49 -2.01,0.25 -2.01,0.01 -2.01,-0.23 -1.96,-0.46 -1.90,-0.70 -1.79,-0.92 -1.67,-1.14 -1.51,-1.32 -1.35,-1.51 -1.15,-1.65 -0.95,-1.79 -0.95,-1.79 L -0.95,-1.79 Z"></path></g><g transform="translate(300.75147117846063 334.4333184264648) rotate(0 8.7797524932094 2.582262066298398)" stroke="none"><path fill="#1e1e1e" d="M -0.95,-1.10 Q -0.95,-1.10 -0.00,-2.10 0.94,-3.10 2.60,-4.40 4.26,-5.69 5.42,-6.54 6.58,-7.39 8.22,-8.26 9.85,-9.12 12.02,-9.96 14.20,-10.80 15.76,-10.60 17.32,-10.40 18.18,-9.45 19.04,-8.51 19.21,-6.93 19.39,-5.36 19.10,-3.64 18.81,-1.91 18.22,0.02 17.64,1.97 17.11,3.91 16.58,5.85 16.05,7.86 15.52,9.87 15.34,12.08 15.16,14.29 15.16,14.51 15.16,14.72 15.09,14.92 15.02,15.12 14.89,15.29 14.76,15.45 14.58,15.57 14.40,15.69 14.20,15.74 13.99,15.80 13.78,15.78 13.57,15.77 13.37,15.69 13.18,15.61 13.02,15.47 12.86,15.33 12.75,15.15 12.64,14.96 12.60,14.75 12.55,14.55 12.58,14.34 12.60,14.12 12.70,13.93 12.79,13.74 12.94,13.59 13.08,13.44 13.27,13.34 13.46,13.24 13.67,13.21 13.88,13.18 14.09,13.21 14.30,13.25 14.49,13.35 14.67,13.45 14.82,13.61 14.96,13.77 15.05,13.96 15.14,14.15 15.16,14.37 15.18,14.58 15.13,14.78 15.08,14.99 14.97,15.17 14.86,15.35 14.69,15.49 14.53,15.62 14.33,15.70 14.13,15.78 13.92,15.79 13.71,15.79 13.50,15.74 13.30,15.68 13.13,15.55 12.95,15.43 12.83,15.26 12.70,15.09 12.63,14.89 12.57,14.69 12.57,14.69 12.57,14.69 12.21,11.81 11.84,8.93 12.37,6.88 12.89,4.84 13.44,2.84 13.99,0.84 14.53,-0.88 15.08,-2.61 15.36,-3.95 15.65,-5.30 15.43,-6.40 15.21,-7.51 13.34,-6.78 11.46,-6.06 10.05,-5.32 8.64,-4.59 7.52,-3.76 6.41,-2.94 4.81,-1.69 3.21,-0.45 2.08,0.32 0.95,1.10 0.80,1.20 0.65,1.30 0.49,1.36 0.32,1.42 0.15,1.44 -0.02,1.46 -0.19,1.43 -0.37,1.41 -0.53,1.34 -0.70,1.28 -0.84,1.18 -0.98,1.07 -1.10,0.94 -1.21,0.81 -1.29,0.65 -1.37,0.49 -1.41,0.32 -1.45,0.15 -1.45,-0.02 -1.44,-0.19 -1.40,-0.37 -1.35,-0.54 -1.27,-0.69 -1.18,-0.84 -1.06,-0.97 -0.95,-1.10 -0.95,-1.10 L -0.95,-1.10 Z"></path></g><g transform="translate(343.10084330668525 323.0712802254974) rotate(0 -5.681019100483695 15.235454941874536)" stroke="none"><path fill="#1e1e1e" d="M 1.03,1.54 Q 1.03,1.54 -0.24,2.53 -1.51,3.51 -2.35,4.56 -3.19,5.62 -3.94,7.72 -4.70,9.82 -5.18,11.19 -5.67,12.56 -6.67,16.84 -7.68,21.12 -8.18,23.32 -8.67,25.52 -9.33,27.84 -10.00,30.16 -10.06,30.36 -10.12,30.57 -10.24,30.74 -10.36,30.92 -10.53,31.04 -10.70,31.17 -10.90,31.23 -11.10,31.30 -11.32,31.30 -11.53,31.29 -11.73,31.22 -11.93,31.15 -12.10,31.02 -12.27,30.89 -12.38,30.71 -12.50,30.54 -12.55,30.33 -12.61,30.12 -12.59,29.91 -12.58,29.70 -12.50,29.50 -12.42,29.31 -12.28,29.15 -12.14,28.99 -11.95,28.88 -11.77,28.77 -11.56,28.73 -11.35,28.69 -11.14,28.71 -10.93,28.74 -10.74,28.83 -10.55,28.92 -10.40,29.07 -10.24,29.22 -10.15,29.41 -10.05,29.60 -10.02,29.81 -9.99,30.02 -10.02,30.23 -10.06,30.44 -10.16,30.62 -10.27,30.81 -10.42,30.95 -10.58,31.10 -10.77,31.18 -10.97,31.27 -11.18,31.29 -11.39,31.31 -11.60,31.26 -11.80,31.21 -11.98,31.10 -12.16,30.99 -12.30,30.83 -12.43,30.66 -12.51,30.46 -12.59,30.26 -12.60,30.05 -12.60,29.84 -12.60,29.84 -12.60,29.84 -12.58,27.25 -12.56,24.65 -12.06,22.38 -11.55,20.10 -10.73,17.01 -9.91,13.92 -9.66,12.59 -9.42,11.25 -8.94,9.86 -8.46,8.47 -7.64,6.19 -6.83,3.91 -5.32,1.98 -3.82,0.04 -2.42,-0.74 -1.03,-1.54 -0.83,-1.64 -0.63,-1.75 -0.41,-1.80 -0.19,-1.85 0.02,-1.84 0.25,-1.84 0.47,-1.78 0.68,-1.72 0.88,-1.62 1.08,-1.51 1.24,-1.36 1.41,-1.21 1.53,-1.02 1.66,-0.83 1.73,-0.62 1.81,-0.41 1.83,-0.19 1.86,0.03 1.82,0.25 1.79,0.47 1.71,0.68 1.63,0.89 1.50,1.07 1.37,1.25 1.20,1.40 1.03,1.54 1.03,1.54 L 1.03,1.54 Z"></path></g><g transform="translate(337.9362718911693 325.65358957471494) rotate(0 9.8126596838747 10.845566874540026)" stroke="none"><path fill="#1e1e1e" d="M -1.07,-1.50 Q -1.07,-1.50 1.00,-2.98 3.09,-4.45 4.84,-5.81 6.59,-7.17 9.00,-8.30 11.42,-9.43 12.57,-9.88 13.73,-10.34 14.84,-10.25 15.96,-10.16 17.33,-8.64 18.70,-7.12 19.24,-5.56 19.77,-4.00 19.85,-1.98 19.93,0.03 19.16,2.30 18.39,4.58 17.07,6.39 15.74,8.20 14.22,9.61 12.71,11.02 10.56,12.16 8.42,13.30 6.32,13.81 4.22,14.32 2.64,14.37 1.05,14.41 -0.13,14.25 -1.32,14.09 -2.18,13.67 -3.05,13.25 -3.25,13.15 -3.45,13.05 -3.62,12.90 -3.79,12.76 -3.93,12.58 -4.06,12.40 -4.14,12.19 -4.23,11.98 -4.26,11.76 -4.29,11.53 -4.27,11.31 -4.25,11.08 -4.18,10.87 -4.10,10.66 -3.98,10.47 -3.86,10.28 -3.69,10.13 -3.53,9.98 -3.33,9.87 -3.13,9.76 -2.92,9.70 -2.70,9.64 -2.47,9.63 -2.25,9.63 -2.03,9.68 -1.81,9.72 -0.83,10.43 0.13,11.13 1.34,12.11 2.55,13.09 4.62,15.21 6.69,17.33 8.54,19.05 10.40,20.77 12.31,22.19 14.23,23.61 16.40,25.04 18.58,26.47 20.54,27.89 22.50,29.31 22.67,29.45 22.83,29.59 22.93,29.77 23.04,29.95 23.09,30.16 23.13,30.37 23.10,30.58 23.08,30.79 22.99,30.98 22.90,31.18 22.75,31.33 22.60,31.48 22.41,31.58 22.22,31.68 22.01,31.71 21.80,31.74 21.60,31.71 21.39,31.67 21.20,31.57 21.01,31.47 20.87,31.31 20.72,31.16 20.64,30.96 20.55,30.77 20.53,30.56 20.51,30.35 20.55,30.14 20.60,29.93 20.71,29.75 20.82,29.57 20.99,29.43 21.15,29.30 21.35,29.22 21.55,29.14 21.76,29.13 21.97,29.12 22.18,29.18 22.38,29.24 22.55,29.36 22.73,29.48 22.86,29.65 22.98,29.82 23.05,30.03 23.11,30.23 23.11,30.44 23.11,30.65 23.04,30.85 22.97,31.05 22.84,31.22 22.71,31.39 22.53,31.51 22.36,31.63 22.15,31.68 21.95,31.74 21.73,31.72 21.52,31.71 21.33,31.63 21.13,31.55 21.13,31.55 21.13,31.55 19.00,30.45 16.87,29.36 14.39,28.04 11.90,26.71 9.84,25.15 7.77,23.59 5.86,21.79 3.95,19.99 2.04,18.00 0.13,16.02 -1.45,14.64 -3.05,13.25 -3.25,13.15 -3.45,13.05 -3.62,12.90 -3.79,12.76 -3.93,12.58 -4.06,12.40 -4.14,12.19 -4.23,11.98 -4.26,11.76 -4.29,11.53 -4.27,11.31 -4.25,11.08 -4.18,10.87 -4.10,10.66 -3.98,10.47 -3.86,10.28 -3.69,10.13 -3.53,9.98 -3.33,9.87 -3.13,9.76 -2.92,9.70 -2.70,9.64 -2.47,9.63 -2.25,9.63 -2.03,9.68 -1.81,9.72 -1.66,9.75 -1.51,9.79 -0.27,10.03 0.97,10.28 2.15,10.27 3.33,10.26 4.96,9.94 6.58,9.61 8.30,8.79 10.02,7.97 11.31,6.87 12.59,5.76 13.67,4.45 14.75,3.14 15.45,1.56 16.15,-0.01 16.18,-1.48 16.22,-2.95 15.62,-4.95 15.03,-6.95 13.98,-6.53 12.94,-6.11 10.88,-5.18 8.82,-4.25 7.01,-2.87 5.21,-1.48 3.14,0.01 1.07,1.50 0.88,1.61 0.68,1.72 0.46,1.77 0.25,1.83 0.02,1.83 -0.19,1.84 -0.41,1.79 -0.62,1.74 -0.82,1.64 -1.02,1.54 -1.19,1.39 -1.36,1.25 -1.49,1.06 -1.62,0.88 -1.70,0.68 -1.79,0.47 -1.82,0.25 -1.85,0.02 -1.82,-0.19 -1.80,-0.41 -1.73,-0.62 -1.65,-0.83 -1.53,-1.02 -1.40,-1.20 -1.24,-1.35 -1.07,-1.50 -1.07,-1.50 L -1.07,-1.50 Z"></path></g></svg>