<svg version="1.1" xmlns="http://www.w3.org/2000/svg" viewBox="0 0 1091.7966086442661 346.66668701171875" width="1091.7966086442661" height="346.66668701171875" class="excalidraw-svg"><!-- svg-source:excalidraw --><metadata></metadata><defs><style class="style-fonts">
      </style></defs><rect x="0" y="0" width="1091.7966086442661" height="346.66668701171875" fill="#ffffff"></rect><g stroke-linecap="round" transform="translate(251.6045731320794 10) rotate(0 219.66665649414062 163.33334350585938)"><path d="M32 0 C111.39 0.68, 190.43 0.69, 407.33 0 M32 0 C179.08 -0.95, 324.84 -0.64, 407.33 0 M407.33 0 C429.49 0.64, 439.1 12.47, 439.33 32 M407.33 0 C429.57 -0.92, 439.03 12.66, 439.33 32 M439.33 32 C440.47 97.95, 440.89 165.38, 439.33 294.67 M439.33 32 C437.53 91.07, 438.84 151.06, 439.33 294.67 M439.33 294.67 C439.96 317.98, 428.71 327.06, 407.33 326.67 M439.33 294.67 C440.47 315.65, 430.77 326.48, 407.33 326.67 M407.33 326.67 C326.21 327.41, 245.38 327, 32 326.67 M407.33 326.67 C261.04 326.19, 113.31 326.31, 32 326.67 M32 326.67 C11.84 328.58, 0.27 316.59, 0 294.67 M32 326.67 C10.1 326.06, -2.25 315.28, 0 294.67 M0 294.67 C-1.15 226.97, -2.65 160.15, 0 32 M0 294.67 C-2.14 235.63, -2.24 175.19, 0 32 M0 32 C-0.24 9.05, 11.13 -1.8, 32 0 M0 32 C-0.17 10.1, 10.81 1.95, 32 0" stroke="#1e1e1e" stroke-width="2" fill="none"></path></g><g stroke-linecap="round"><g transform="translate(696.6487605068653 92.09500172617265) rotate(0 156.64344661196583 0.49415849233790254)"><path d="M-0.77 0.69 C51.45 0.95, 260.17 1.94, 312.53 2.08 M1.03 0.01 C53.7 -0.08, 262.9 0.61, 314.84 0.53" stroke="#1e1e1e" stroke-width="2" fill="none"></path></g></g><mask></mask><g stroke-linecap="round"><g transform="translate(693.6839000331993 263.06863745431184) rotate(0 162.5731675592981 -2.9648604736661355)"><path d="M-0.76 1.09 C53.57 0.08, 270.77 -4.24, 325.23 -5.38 M1.04 0.61 C55.29 -0.82, 270.21 -6.39, 324.32 -7.21" stroke="#1e1e1e" stroke-width="2" fill="none"></path></g></g><mask></mask><g stroke-linecap="round"><g transform="translate(60.16884512408501 90.54194283216009) rotate(0 95.31657353211739 -3.1766027711549896)"><path d="M0.86 0.19 C32.47 -0.83, 158.02 -4.52, 189.73 -5.54 M-0.15 -0.76 C31.83 -2.16, 160.18 -6.01, 191.97 -7.24" stroke="#1e1e1e" stroke-width="2" fill="none"></path></g></g><mask></mask><g stroke-linecap="round"><g transform="translate(66.00442827902862 249.1502841326723) rotate(0 92.4634524387568 2.9413316805914747)"><path d="M-0.9 0.81 C29.86 1.83, 154.47 5.24, 185.42 6.27 M0.83 0.19 C31.4 0.82, 154.21 3.52, 184.73 4.35" stroke="#1e1e1e" stroke-width="2" fill="none"></path></g></g><mask></mask><g transform="translate(1059.5111410905142 75.7745194521932) rotate(0 0.6190454882882932 13.309385901525502)" stroke="none"><path fill="#1e1e1e" d="M -0.50,1.26 Q -0.50,1.26 -1.31,1.09 -2.12,0.93 -3.41,2.13 -4.70,3.34 -5.63,4.44 -6.55,5.54 -7.39,7.29 -8.24,9.03 -8.76,11.44 -9.29,13.85 -9.52,15.60 -9.76,17.34 -9.70,19.91 -9.64,22.47 -8.83,24.02 -8.03,25.56 -7.04,26.27 -6.06,26.98 -3.89,26.31 -1.73,25.63 -0.31,24.54 1.10,23.44 2.85,22.21 4.60,20.98 5.96,19.65 7.31,18.32 8.35,16.62 9.39,14.92 9.99,13.37 10.59,11.81 10.80,10.53 11.01,9.25 10.75,7.83 10.49,6.41 10.04,4.93 9.59,3.44 8.91,2.22 8.23,1.00 7.00,0.03 5.78,-0.94 4.03,-1.07 2.28,-1.19 2.06,-1.21 1.85,-1.22 1.66,-1.30 1.46,-1.38 1.30,-1.52 1.14,-1.66 1.03,-1.85 0.93,-2.03 0.88,-2.24 0.84,-2.45 0.87,-2.66 0.89,-2.87 0.99,-3.06 1.08,-3.25 1.23,-3.41 1.38,-3.56 1.56,-3.65 1.75,-3.75 1.96,-3.78 2.17,-3.81 2.38,-3.77 2.59,-3.74 2.78,-3.63 2.97,-3.53 3.11,-3.38 3.25,-3.22 3.34,-3.02 3.42,-2.83 3.44,-2.62 3.46,-2.41 3.42,-2.20 3.37,-1.99 3.25,-1.81 3.14,-1.63 2.98,-1.50 2.81,-1.36 2.61,-1.29 2.42,-1.21 2.20,-1.20 1.99,-1.20 1.79,-1.26 1.58,-1.32 1.41,-1.44 1.24,-1.56 1.11,-1.73 0.98,-1.90 0.92,-2.10 0.85,-2.31 0.86,-2.52 0.86,-2.73 0.93,-2.93 1.00,-3.13 1.13,-3.30 1.27,-3.47 1.44,-3.58 1.62,-3.70 1.83,-3.75 2.03,-3.81 2.03,-3.81 2.03,-3.81 4.75,-3.93 7.47,-4.05 8.40,-3.46 9.33,-2.87 10.29,-1.73 11.25,-0.60 12.02,0.95 12.79,2.52 13.26,4.23 13.72,5.95 13.93,7.88 14.14,9.81 13.79,11.37 13.43,12.94 12.70,14.73 11.96,16.52 10.70,18.50 9.44,20.49 7.90,21.98 6.35,23.46 4.63,24.66 2.91,25.85 1.19,27.12 -0.52,28.39 -2.43,29.14 -4.33,29.90 -5.98,29.73 -7.63,29.56 -9.20,28.32 -10.78,27.08 -11.82,24.88 -12.86,22.69 -12.94,19.79 -13.03,16.90 -12.77,15.02 -12.52,13.13 -11.89,10.35 -11.26,7.58 -10.22,5.49 -9.18,3.40 -8.19,2.19 -7.20,0.97 -5.90,-0.28 -4.61,-1.54 -3.02,-1.94 -1.43,-2.35 -0.46,-1.80 0.50,-1.26 0.64,-1.18 0.79,-1.10 0.91,-0.99 1.03,-0.88 1.12,-0.74 1.21,-0.60 1.26,-0.45 1.32,-0.30 1.34,-0.13 1.35,0.02 1.33,0.18 1.31,0.34 1.25,0.50 1.19,0.65 1.09,0.78 0.99,0.91 0.87,1.02 0.75,1.13 0.60,1.20 0.45,1.27 0.29,1.31 0.13,1.35 -0.02,1.34 -0.18,1.34 -0.34,1.30 -0.50,1.26 -0.50,1.26 L -0.50,1.26 Z"></path></g><g transform="translate(1058.8921097709447 88.15534420564575) rotate(0 0.00004999999998744897 0.00005000000000165983)" stroke="none"><path fill="#1e1e1e" d="M 2.12,-2.12 Q 2.12,-2.12 2.40,-1.73 2.69,-1.33 2.83,-0.87 2.97,-0.40 2.96,0.08 2.95,0.56 2.78,1.02 2.61,1.47 2.31,1.85 2.00,2.23 1.59,2.49 1.18,2.76 0.71,2.87 0.24,2.99 -0.24,2.95 -0.72,2.91 -1.17,2.72 -1.61,2.53 -1.98,2.20 -2.34,1.88 -2.58,1.45 -2.82,1.03 -2.91,0.55 -3.00,0.08 -2.93,-0.40 -2.87,-0.88 -2.65,-1.31 -2.44,-1.75 -2.09,-2.09 -1.75,-2.44 -1.31,-2.65 -0.88,-2.87 -0.39,-2.93 0.08,-3.00 0.55,-2.91 1.03,-2.82 1.46,-2.58 1.88,-2.34 2.20,-1.97 2.53,-1.61 2.72,-1.17 2.91,-0.72 2.95,-0.23 2.99,0.24 2.87,0.71 2.76,1.18 2.49,1.59 2.23,2.00 1.85,2.31 1.47,2.61 1.02,2.78 0.56,2.95 0.07,2.96 -0.40,2.97 -0.87,2.83 -1.33,2.69 -1.73,2.40 -2.12,2.12 -2.12,2.12 -2.12,2.12 -2.34,1.83 -2.57,1.55 -2.72,1.22 -2.86,0.89 -2.93,0.53 -2.99,0.18 -2.97,-0.18 -2.95,-0.54 -2.84,-0.88 -2.74,-1.23 -2.55,-1.54 -2.36,-1.85 -2.10,-2.10 -1.85,-2.36 -1.54,-2.55 -1.23,-2.74 -0.88,-2.84 -0.54,-2.95 -0.17,-2.97 0.18,-2.99 0.53,-2.93 0.89,-2.86 1.22,-2.72 1.55,-2.57 1.84,-2.34 2.12,-2.12 2.12,-2.12 L 2.12,-2.12 Z"></path></g><g transform="translate(1058.8921097709447 88.15534420564575) rotate(0 8.66656599244186 14.547462709383296)" stroke="none"><path fill="#1e1e1e" d="M 1.09,-0.76 Q 1.09,-0.76 2.46,0.92 3.84,2.61 5.24,4.39 6.65,6.17 7.42,7.11 8.19,8.04 9.42,9.50 10.65,10.97 11.95,12.90 13.25,14.84 14.54,17.52 15.82,20.20 16.91,23.68 18.00,27.16 18.05,27.37 18.09,27.57 18.06,27.78 18.03,28.00 17.94,28.19 17.85,28.38 17.70,28.53 17.55,28.68 17.36,28.78 17.17,28.87 16.96,28.90 16.75,28.93 16.54,28.89 16.33,28.86 16.15,28.75 15.96,28.65 15.82,28.49 15.67,28.34 15.59,28.14 15.50,27.95 15.48,27.73 15.46,27.52 15.51,27.32 15.56,27.11 15.68,26.93 15.79,26.75 15.95,26.62 16.12,26.48 16.32,26.41 16.52,26.33 16.73,26.32 16.94,26.32 17.15,26.38 17.35,26.44 17.52,26.56 17.70,26.68 17.82,26.86 17.95,27.03 18.01,27.23 18.07,27.43 18.07,27.64 18.07,27.86 17.99,28.06 17.92,28.26 17.79,28.42 17.66,28.59 17.48,28.71 17.30,28.82 17.10,28.87 16.89,28.93 16.68,28.91 16.47,28.90 16.27,28.81 16.08,28.73 15.92,28.59 15.76,28.45 15.65,28.27 15.55,28.08 15.55,28.08 15.55,28.08 14.13,24.89 12.71,21.70 11.52,19.23 10.33,16.76 9.17,14.95 8.02,13.15 6.80,11.66 5.58,10.18 4.79,9.21 4.00,8.23 2.57,6.37 1.14,4.50 0.02,2.63 -1.09,0.76 -1.16,0.62 -1.24,0.48 -1.28,0.32 -1.32,0.16 -1.32,0.00 -1.32,-0.15 -1.28,-0.30 -1.24,-0.46 -1.17,-0.60 -1.10,-0.74 -0.99,-0.87 -0.88,-0.99 -0.75,-1.08 -0.62,-1.17 -0.47,-1.23 -0.32,-1.29 -0.16,-1.31 -0.00,-1.33 0.15,-1.31 0.31,-1.29 0.46,-1.23 0.61,-1.18 0.74,-1.09 0.87,-1.00 0.98,-0.88 1.09,-0.76 1.09,-0.76 L 1.09,-0.76 Z"></path></g><g transform="translate(1061.3682633866604 234.86803393861766) rotate(0 -2.476153615715589 16.095041008307135)" stroke="none"><path fill="#1e1e1e" d="M -0.32,1.31 Q -0.32,1.31 -1.70,1.10 -3.07,0.88 -4.14,1.41 -5.22,1.95 -6.50,3.10 -7.78,4.25 -8.78,6.18 -9.79,8.11 -10.41,10.78 -11.03,13.45 -11.12,16.64 -11.21,19.83 -10.40,22.99 -9.59,26.15 -8.46,27.89 -7.33,29.64 -6.34,30.46 -5.35,31.28 -3.57,30.47 -1.80,29.66 -0.70,28.04 0.40,26.42 1.60,23.99 2.79,21.57 3.83,18.94 4.87,16.32 5.47,14.20 6.07,12.08 6.11,10.44 6.16,8.81 5.84,7.38 5.53,5.96 4.63,4.89 3.72,3.81 2.72,3.04 1.71,2.26 -1.22,1.18 -4.17,0.09 -4.37,0.04 -4.58,-0.01 -4.75,-0.12 -4.93,-0.24 -5.06,-0.41 -5.19,-0.58 -5.26,-0.78 -5.33,-0.98 -5.33,-1.19 -5.34,-1.40 -5.27,-1.61 -5.21,-1.81 -5.08,-1.98 -4.95,-2.15 -4.78,-2.27 -4.60,-2.39 -4.40,-2.45 -4.20,-2.51 -3.98,-2.50 -3.77,-2.49 -3.57,-2.41 -3.37,-2.34 -3.21,-2.20 -3.05,-2.07 -2.94,-1.89 -2.82,-1.70 -2.78,-1.50 -2.73,-1.29 -2.75,-1.08 -2.77,-0.87 -2.86,-0.67 -2.94,-0.48 -3.09,-0.32 -3.23,-0.17 -3.42,-0.07 -3.61,0.03 -3.82,0.06 -4.02,0.10 -4.23,0.07 -4.44,0.03 -4.63,-0.05 -4.82,-0.15 -4.97,-0.30 -5.12,-0.46 -5.21,-0.65 -5.30,-0.84 -5.33,-1.05 -5.35,-1.26 -5.31,-1.47 -5.26,-1.68 -5.16,-1.86 -5.05,-2.04 -4.89,-2.18 -4.73,-2.32 -4.53,-2.40 -4.33,-2.48 -4.12,-2.50 -3.91,-2.51 -3.91,-2.51 -3.91,-2.51 -1.04,-2.28 1.82,-2.05 2.98,-1.36 4.15,-0.66 5.44,0.47 6.73,1.61 7.87,3.38 9.02,5.15 9.33,7.06 9.65,8.96 9.51,10.99 9.37,13.01 8.70,15.30 8.02,17.59 6.89,20.33 5.77,23.08 4.39,25.73 3.01,28.38 1.40,30.34 -0.20,32.29 -2.10,33.23 -4.01,34.17 -5.49,33.98 -6.98,33.80 -8.48,32.59 -9.97,31.37 -11.34,29.18 -12.70,26.98 -13.58,23.37 -14.45,19.76 -14.32,16.23 -14.19,12.71 -13.45,9.63 -12.70,6.55 -11.35,4.17 -9.99,1.78 -8.22,0.32 -6.45,-1.13 -4.53,-1.72 -2.62,-2.30 -1.14,-1.81 0.32,-1.31 0.48,-1.25 0.63,-1.20 0.76,-1.10 0.90,-1.01 1.01,-0.89 1.12,-0.76 1.19,-0.62 1.27,-0.47 1.30,-0.31 1.34,-0.15 1.34,0.00 1.34,0.16 1.30,0.32 1.26,0.48 1.19,0.63 1.11,0.77 1.00,0.89 0.89,1.01 0.76,1.11 0.62,1.20 0.47,1.26 0.32,1.31 0.15,1.33 -0.00,1.35 -0.16,1.33 -0.32,1.31 -0.32,1.31 L -0.32,1.31 Z"></path></g><g transform="translate(1058.8921097709447 250.9630749469248) rotate(0 8.047520504153567 8.976081652226583)" stroke="none"><path fill="#1e1e1e" d="M 1.20,-0.80 Q 1.20,-0.80 2.40,0.71 3.60,2.22 5.50,5.23 7.40,8.24 8.66,9.77 9.93,11.31 11.42,12.64 12.92,13.97 14.47,15.16 16.02,16.35 16.18,16.49 16.34,16.63 16.44,16.82 16.55,17.00 16.59,17.21 16.63,17.42 16.60,17.63 16.58,17.84 16.48,18.03 16.39,18.22 16.24,18.37 16.09,18.52 15.90,18.62 15.71,18.71 15.50,18.74 15.29,18.77 15.08,18.73 14.87,18.70 14.69,18.59 14.50,18.49 14.36,18.33 14.22,18.17 14.13,17.98 14.05,17.78 14.03,17.57 14.01,17.36 14.06,17.16 14.11,16.95 14.22,16.77 14.34,16.59 14.50,16.46 14.67,16.32 14.86,16.25 15.06,16.17 15.28,16.17 15.49,16.16 15.69,16.22 15.89,16.28 16.07,16.40 16.24,16.53 16.37,16.70 16.49,16.87 16.56,17.07 16.62,17.28 16.61,17.49 16.61,17.70 16.54,17.90 16.47,18.10 16.33,18.27 16.20,18.43 16.02,18.55 15.84,18.66 15.64,18.72 15.43,18.77 15.22,18.75 15.01,18.74 14.81,18.65 14.62,18.57 14.62,18.57 14.62,18.57 12.67,17.55 10.72,16.54 8.94,15.06 7.17,13.58 5.77,11.86 4.38,10.14 2.52,7.16 0.67,4.18 -0.26,2.49 -1.20,0.80 -1.27,0.64 -1.35,0.48 -1.39,0.32 -1.43,0.15 -1.43,-0.02 -1.42,-0.19 -1.38,-0.36 -1.34,-0.53 -1.25,-0.68 -1.17,-0.83 -1.05,-0.96 -0.93,-1.09 -0.79,-1.19 -0.64,-1.28 -0.48,-1.34 -0.32,-1.40 -0.14,-1.42 0.02,-1.44 0.19,-1.41 0.36,-1.39 0.52,-1.33 0.69,-1.26 0.83,-1.16 0.97,-1.06 1.08,-0.93 1.20,-0.80 1.20,-0.80 L 1.20,-0.80 Z"></path></g><g transform="translate(1045.8922536979226 216.91581395928966) rotate(0 17.642647644668386 1.54762080507993)" stroke="none"><path fill="#1e1e1e" d="M 0.19,-1.38 Q 0.19,-1.38 1.49,-1.54 2.78,-1.69 5.06,-1.63 7.35,-1.57 8.77,-1.38 10.18,-1.19 11.50,-0.93 12.82,-0.67 14.55,-0.40 16.29,-0.13 18.44,0.15 20.60,0.44 22.51,0.55 24.43,0.66 26.13,0.70 27.83,0.75 29.12,0.59 30.42,0.43 32.05,0.31 33.68,0.19 34.25,0.97 34.82,1.74 34.97,1.75 35.13,1.77 35.28,1.81 35.43,1.86 35.57,1.95 35.70,2.03 35.81,2.14 35.92,2.26 36.00,2.39 36.08,2.53 36.13,2.68 36.17,2.83 36.18,2.99 36.19,3.15 36.16,3.31 36.13,3.46 36.06,3.61 35.99,3.75 35.89,3.87 35.79,4.00 35.67,4.09 35.54,4.19 35.40,4.25 35.25,4.31 35.10,4.34 34.94,4.37 34.80,4.36 34.67,4.35 34.47,4.28 34.26,4.22 34.09,4.09 33.93,3.96 33.81,3.78 33.69,3.61 33.63,3.40 33.57,3.20 33.58,2.99 33.59,2.77 33.67,2.58 33.75,2.38 33.89,2.22 34.03,2.05 34.21,1.94 34.39,1.84 34.60,1.79 34.80,1.74 35.02,1.77 35.23,1.79 35.42,1.88 35.61,1.97 35.77,2.11 35.92,2.26 36.02,2.45 36.12,2.63 36.16,2.84 36.19,3.05 36.16,3.26 36.12,3.47 36.02,3.66 35.92,3.85 35.77,3.99 35.62,4.14 35.42,4.23 35.23,4.32 35.02,4.34 34.81,4.37 34.60,4.32 34.39,4.28 34.21,4.17 34.03,4.06 33.89,3.89 33.75,3.73 33.67,3.54 33.60,3.34 33.58,3.13 33.57,2.91 33.63,2.71 33.68,2.50 33.80,2.33 33.92,2.15 34.09,2.02 34.26,1.89 34.46,1.83 34.66,1.76 34.74,1.75 34.82,1.74 34.97,1.75 35.13,1.77 35.28,1.81 35.43,1.86 35.57,1.95 35.70,2.03 35.81,2.14 35.92,2.26 36.00,2.39 36.08,2.53 36.13,2.68 36.17,2.83 36.18,2.99 36.19,3.15 36.16,3.31 36.13,3.46 36.06,3.61 35.99,3.75 35.89,3.87 35.79,4.00 35.67,4.09 35.54,4.19 35.40,4.25 35.25,4.31 35.10,4.34 34.94,4.37 34.42,4.60 33.90,4.83 32.40,4.90 30.90,4.97 29.30,5.12 27.69,5.27 25.92,5.21 24.14,5.15 22.07,5.00 19.99,4.85 17.79,4.54 15.58,4.23 13.76,3.92 11.93,3.62 10.74,3.36 9.54,3.10 8.39,2.90 7.24,2.71 5.85,2.66 4.46,2.60 3.33,2.50 2.19,2.40 1.00,1.89 -0.19,1.38 -0.36,1.34 -0.52,1.30 -0.67,1.21 -0.82,1.13 -0.94,1.02 -1.06,0.90 -1.16,0.76 -1.25,0.62 -1.31,0.46 -1.36,0.30 -1.38,0.13 -1.40,-0.02 -1.37,-0.19 -1.35,-0.36 -1.29,-0.52 -1.22,-0.67 -1.12,-0.81 -1.02,-0.95 -0.90,-1.06 -0.77,-1.17 -0.62,-1.24 -0.46,-1.32 -0.30,-1.35 -0.13,-1.39 0.02,-1.39 0.19,-1.38 0.19,-1.38 L 0.19,-1.38 Z"></path></g><g stroke-linecap="round"><g transform="translate(55.26989070618686 178.9906420761141) rotate(0 95.37676883370773 0.2360883334320505)"><path d="M0.03 0.24 C31.86 0.09, 159.37 0.26, 191.35 0.29 M-1.42 -0.68 C30.27 -0.14, 158.53 1.34, 190.71 1.73" stroke="#1e1e1e" stroke-width="1" fill="none"></path></g></g><mask></mask><g transform="translate(34.96689921947166 167.65874789334202) rotate(0 -6.138102144377228 11.331894182772132)" stroke="none"><path fill="#1e1e1e" d="M 0.85,1.17 Q 0.85,1.17 -0.48,2.46 -1.83,3.75 -2.77,4.38 -3.72,5.00 -4.62,5.64 -5.51,6.28 -6.38,7.02 -7.25,7.77 -8.08,8.82 -8.91,9.87 -9.46,11.68 -10.02,13.49 -9.87,14.61 -9.73,15.72 -9.20,16.92 -8.67,18.11 -7.28,18.73 -5.88,19.36 -4.83,19.85 -3.78,20.34 -2.03,20.82 -0.28,21.30 -0.07,21.36 0.12,21.42 0.29,21.54 0.47,21.66 0.60,21.83 0.72,22.00 0.79,22.21 0.85,22.41 0.85,22.62 0.85,22.83 0.78,23.03 0.71,23.23 0.58,23.40 0.45,23.57 0.27,23.69 0.09,23.80 -0.10,23.86 -0.31,23.91 -0.52,23.90 -0.73,23.88 -0.93,23.80 -1.13,23.72 -1.29,23.58 -1.45,23.44 -1.55,23.26 -1.66,23.08 -1.70,22.87 -1.75,22.66 -1.72,22.45 -1.70,22.24 -1.61,22.05 -1.51,21.85 -1.37,21.70 -1.22,21.55 -1.03,21.45 -0.84,21.36 -0.63,21.32 -0.42,21.29 -0.21,21.33 -0.00,21.37 0.18,21.47 0.36,21.57 0.51,21.73 0.65,21.88 0.74,22.08 0.82,22.27 0.84,22.48 0.86,22.69 0.82,22.90 0.77,23.11 0.66,23.29 0.54,23.47 0.38,23.60 0.22,23.74 0.02,23.82 -0.17,23.89 -0.38,23.90 -0.59,23.91 -0.59,23.91 -0.59,23.91 -2.87,23.75 -5.14,23.58 -6.29,23.14 -7.45,22.69 -8.53,22.17 -9.62,21.65 -10.64,20.93 -11.66,20.21 -12.50,18.15 -13.34,16.10 -13.48,14.48 -13.62,12.86 -12.76,10.15 -11.91,7.45 -10.85,6.17 -9.80,4.89 -8.79,3.99 -7.78,3.09 -5.96,1.84 -4.14,0.58 -2.49,-0.29 -0.85,-1.17 -0.70,-1.26 -0.55,-1.34 -0.38,-1.39 -0.21,-1.44 -0.03,-1.44 0.14,-1.45 0.31,-1.41 0.48,-1.37 0.64,-1.29 0.79,-1.21 0.93,-1.10 1.06,-0.99 1.17,-0.85 1.27,-0.70 1.33,-0.54 1.40,-0.38 1.43,-0.20 1.45,-0.03 1.44,0.13 1.42,0.31 1.36,0.47 1.30,0.64 1.21,0.79 1.11,0.93 0.98,1.05 0.85,1.17 0.85,1.17 L 0.85,1.17 Z"></path></g><g transform="translate(10 74.21122142354096) rotate(0 9.679324479961792 12.04013756919538)" stroke="none"><path fill="#1e1e1e" d="M -0.21,-1.51 Q -0.21,-1.51 1.66,-1.89 3.55,-2.27 5.01,-2.52 6.48,-2.76 7.93,-3.00 9.37,-3.24 10.65,-3.48 11.93,-3.72 13.00,-3.95 14.06,-4.18 15.62,-4.20 17.18,-4.21 18.21,-3.14 19.25,-2.06 19.56,-0.46 19.87,1.13 20.10,2.80 20.34,4.47 20.57,5.95 20.80,7.43 20.90,8.81 21.01,10.20 21.05,11.61 21.09,13.02 21.10,14.43 21.11,15.85 20.97,17.61 20.83,19.37 20.78,20.86 20.73,22.35 20.57,23.51 20.41,24.67 19.68,26.26 18.95,27.85 17.66,28.13 16.36,28.40 14.20,28.27 12.03,28.14 10.13,27.89 8.22,27.63 6.68,26.58 5.13,25.52 4.72,24.40 4.32,23.28 4.77,20.05 5.22,16.82 5.29,16.62 5.36,16.41 5.49,16.25 5.62,16.08 5.80,15.96 5.97,15.84 6.18,15.79 6.39,15.73 6.60,15.75 6.81,15.76 7.01,15.84 7.20,15.92 7.36,16.06 7.52,16.20 7.63,16.38 7.74,16.57 7.78,16.77 7.83,16.98 7.80,17.19 7.78,17.40 7.69,17.60 7.60,17.79 7.45,17.94 7.30,18.09 7.11,18.19 6.92,18.29 6.71,18.32 6.50,18.35 6.29,18.32 6.08,18.28 5.90,18.18 5.71,18.08 5.57,17.92 5.42,17.77 5.33,17.57 5.25,17.38 5.23,17.17 5.20,16.96 5.25,16.75 5.30,16.54 5.41,16.36 5.52,16.18 5.69,16.04 5.85,15.91 6.05,15.83 6.24,15.76 6.46,15.75 6.67,15.74 6.87,15.79 7.08,15.85 7.25,15.97 7.43,16.10 7.55,16.27 7.68,16.44 7.75,16.64 7.81,16.84 7.81,17.05 7.81,17.26 7.81,17.26 7.81,17.26 7.77,20.20 7.73,23.14 8.97,23.58 10.22,24.01 12.23,24.22 14.23,24.43 15.50,24.83 16.77,25.23 16.99,23.73 17.20,22.22 17.25,20.66 17.31,19.10 17.43,17.49 17.55,15.89 17.52,14.51 17.50,13.13 17.45,11.80 17.41,10.46 17.32,9.22 17.24,7.97 17.01,6.46 16.78,4.96 16.58,3.42 16.38,1.89 15.59,0.56 14.80,-0.77 13.68,-0.53 12.56,-0.29 11.26,-0.05 9.95,0.18 8.50,0.43 7.06,0.67 5.55,0.93 4.04,1.19 2.13,1.35 0.21,1.51 0.03,1.51 -0.15,1.52 -0.33,1.48 -0.51,1.44 -0.67,1.36 -0.84,1.27 -0.98,1.15 -1.12,1.03 -1.23,0.88 -1.34,0.73 -1.40,0.56 -1.47,0.39 -1.50,0.21 -1.53,0.03 -1.51,-0.15 -1.49,-0.33 -1.43,-0.50 -1.37,-0.68 -1.26,-0.83 -1.16,-0.99 -1.03,-1.11 -0.89,-1.24 -0.73,-1.33 -0.57,-1.41 -0.39,-1.46 -0.21,-1.51 -0.21,-1.51 L -0.21,-1.51 Z"></path></g><g transform="translate(15.104023157507072 236.67562417209496) rotate(0 -1.4164867728465538 12.748380955618643)" stroke="none"><path fill="#1e1e1e" d="M 1.45,0.10 Q 1.45,0.10 1.45,2.01 1.46,3.92 1.41,5.91 1.35,7.90 1.19,9.51 1.03,11.12 0.83,12.87 0.63,14.62 0.26,16.52 -0.10,18.41 -0.39,19.86 -0.68,21.31 -0.68,23.06 -0.69,24.81 -0.68,25.02 -0.67,25.23 -0.72,25.44 -0.78,25.64 -0.90,25.82 -1.02,26.00 -1.18,26.12 -1.35,26.25 -1.55,26.32 -1.75,26.39 -1.97,26.39 -2.18,26.39 -2.38,26.33 -2.58,26.26 -2.75,26.13 -2.92,26.00 -3.04,25.83 -3.16,25.65 -3.22,25.45 -3.28,25.24 -3.27,25.03 -3.26,24.82 -3.18,24.62 -3.10,24.42 -2.96,24.26 -2.83,24.10 -2.65,23.99 -2.46,23.88 -2.26,23.83 -2.05,23.79 -1.84,23.81 -1.63,23.83 -1.43,23.92 -1.24,24.01 -1.09,24.15 -0.93,24.30 -0.83,24.48 -0.73,24.67 -0.69,24.88 -0.66,25.09 -0.69,25.30 -0.73,25.51 -0.82,25.70 -0.92,25.89 -1.08,26.03 -1.23,26.18 -1.42,26.27 -1.62,26.36 -1.83,26.38 -2.04,26.41 -2.25,26.36 -2.45,26.32 -2.64,26.21 -2.82,26.10 -2.96,25.94 -3.10,25.78 -3.17,25.58 -3.25,25.38 -3.25,25.38 -3.25,25.38 -3.69,23.02 -4.13,20.65 -3.84,19.19 -3.55,17.73 -3.21,15.97 -2.86,14.21 -2.65,12.49 -2.45,10.76 -2.29,9.28 -2.13,7.80 -2.06,5.74 -2.00,3.67 -1.72,1.78 -1.45,-0.10 -1.41,-0.27 -1.38,-0.44 -1.30,-0.60 -1.23,-0.76 -1.12,-0.90 -1.01,-1.03 -0.87,-1.14 -0.73,-1.25 -0.57,-1.32 -0.41,-1.39 -0.24,-1.42 -0.07,-1.45 0.10,-1.43 0.27,-1.42 0.44,-1.37 0.61,-1.31 0.76,-1.22 0.90,-1.13 1.03,-1.00 1.15,-0.88 1.24,-0.73 1.33,-0.58 1.38,-0.41 1.43,-0.24 1.44,-0.07 1.45,0.10 1.45,0.10 L 1.45,0.10 Z"></path></g><g transform="translate(31.62970937867385 239.03644266479677) rotate(0 -5.665952494854253 12.04014837613181)" stroke="none"><path fill="#1e1e1e" d="M 0.56,1.68 Q 0.56,1.68 -0.58,2.30 -1.73,2.93 -2.98,3.46 -4.22,4.00 -5.78,4.86 -7.34,5.72 -8.27,6.55 -9.21,7.38 -10.37,8.41 -11.53,9.44 -10.93,10.82 -10.34,12.20 -9.16,13.86 -7.98,15.52 -6.99,16.46 -5.99,17.40 -4.94,18.19 -3.89,18.97 -2.92,19.55 -1.95,20.13 -1.03,20.68 -0.10,21.23 1.17,21.98 2.45,22.73 2.64,22.82 2.83,22.92 2.98,23.07 3.13,23.22 3.22,23.42 3.31,23.61 3.34,23.82 3.36,24.03 3.32,24.24 3.28,24.45 3.17,24.63 3.06,24.81 2.90,24.95 2.74,25.09 2.55,25.17 2.35,25.26 2.14,25.27 1.93,25.29 1.72,25.23 1.52,25.18 1.34,25.06 1.16,24.94 1.03,24.78 0.90,24.61 0.83,24.41 0.76,24.21 0.75,24.00 0.75,23.78 0.82,23.58 0.88,23.38 1.01,23.21 1.13,23.04 1.31,22.92 1.48,22.79 1.69,22.73 1.89,22.67 2.10,22.68 2.31,22.69 2.51,22.77 2.71,22.84 2.87,22.98 3.04,23.11 3.15,23.29 3.26,23.47 3.31,23.68 3.36,23.89 3.34,24.10 3.32,24.31 3.23,24.50 3.15,24.70 3.00,24.85 2.86,25.01 2.67,25.11 2.49,25.22 2.28,25.25 2.07,25.29 1.86,25.26 1.65,25.23 1.65,25.23 1.65,25.23 -0.09,24.80 -1.84,24.37 -2.88,23.84 -3.91,23.31 -5.00,22.61 -6.09,21.92 -7.33,20.98 -8.56,20.05 -9.75,18.86 -10.94,17.68 -11.61,16.75 -12.28,15.83 -13.33,14.10 -14.39,12.37 -14.90,10.69 -15.41,9.01 -14.96,7.66 -14.51,6.30 -13.28,5.16 -12.05,4.01 -10.77,2.96 -9.48,1.92 -7.74,0.93 -5.99,-0.05 -4.57,-0.67 -3.14,-1.30 -1.85,-1.49 -0.56,-1.68 -0.35,-1.72 -0.14,-1.76 0.07,-1.75 0.28,-1.74 0.49,-1.68 0.69,-1.63 0.88,-1.52 1.06,-1.41 1.21,-1.26 1.37,-1.12 1.48,-0.93 1.60,-0.75 1.66,-0.55 1.73,-0.35 1.75,-0.14 1.77,0.07 1.73,0.28 1.70,0.49 1.61,0.69 1.53,0.88 1.40,1.05 1.27,1.22 1.11,1.36 0.94,1.49 0.75,1.58 0.56,1.68 0.56,1.68 L 0.56,1.68 Z"></path></g><g transform="translate(279.9930644570878 62.63379909841626) rotate(0 12.653157413386793 11.878485885935149)" stroke="none"><path fill="#1e1e1e" d="M -0.48,-1.44 Q -0.48,-1.44 1.30,-2.02 3.09,-2.60 4.68,-3.27 6.28,-3.94 8.43,-4.98 10.58,-6.01 11.81,-6.60 13.03,-7.19 15.29,-8.45 17.55,-9.72 19.14,-10.58 20.72,-11.44 21.96,-11.87 23.20,-12.30 24.64,-12.04 26.07,-11.78 26.31,-10.35 26.56,-8.92 26.32,-7.75 26.09,-6.58 25.59,-4.65 25.10,-2.72 24.77,-0.42 24.45,1.87 23.69,5.18 22.94,8.50 22.20,11.82 21.47,15.13 20.88,18.29 20.29,21.46 19.90,23.84 19.51,26.21 19.19,28.26 18.87,30.30 17.97,33.05 17.07,35.80 16.86,35.84 16.65,35.88 16.44,35.85 16.23,35.82 16.04,35.73 15.85,35.64 15.69,35.49 15.54,35.34 15.45,35.15 15.35,34.96 15.32,34.75 15.29,34.54 15.33,34.33 15.37,34.12 15.47,33.94 15.58,33.75 15.73,33.61 15.89,33.46 16.08,33.38 16.28,33.29 16.49,33.28 16.70,33.26 16.91,33.31 17.12,33.36 17.30,33.47 17.48,33.58 17.61,33.75 17.74,33.91 17.82,34.11 17.89,34.31 17.90,34.52 17.91,34.74 17.85,34.94 17.79,35.14 17.66,35.32 17.54,35.49 17.37,35.61 17.20,35.74 16.99,35.80 16.79,35.87 16.58,35.86 16.37,35.86 16.17,35.79 15.97,35.71 15.80,35.58 15.63,35.45 15.52,35.27 15.40,35.09 15.35,34.89 15.30,34.68 15.31,34.47 15.33,34.26 15.41,34.06 15.49,33.87 15.63,33.71 15.78,33.55 15.96,33.44 16.14,33.34 16.14,33.34 16.14,33.34 15.64,31.53 15.13,29.71 15.46,27.64 15.79,25.57 16.22,23.16 16.66,20.75 17.31,17.54 17.96,14.32 18.74,11.02 19.53,7.72 20.26,4.54 21.00,1.36 21.37,-1.12 21.75,-3.61 22.20,-5.27 22.66,-6.93 23.54,-8.13 24.43,-9.34 23.28,-9.06 22.14,-8.78 20.57,-7.95 19.01,-7.11 16.67,-5.80 14.33,-4.49 13.10,-3.90 11.87,-3.31 9.65,-2.26 7.43,-1.21 5.73,-0.49 4.03,0.22 2.25,0.83 0.48,1.44 0.30,1.48 0.12,1.52 -0.06,1.51 -0.24,1.50 -0.42,1.45 -0.59,1.40 -0.75,1.31 -0.91,1.22 -1.05,1.09 -1.18,0.96 -1.28,0.80 -1.38,0.65 -1.43,0.47 -1.49,0.30 -1.51,0.12 -1.52,-0.06 -1.49,-0.24 -1.46,-0.42 -1.39,-0.59 -1.32,-0.76 -1.21,-0.91 -1.10,-1.05 -0.95,-1.17 -0.81,-1.29 -0.64,-1.36 -0.48,-1.44 -0.48,-1.44 L -0.48,-1.44 Z"></path></g><g transform="translate(332.1550844484574 55.403436943029305) rotate(0 -10.329119189572282 20.141755231987403)" stroke="none"><path fill="#1e1e1e" d="M -0.19,1.76 Q -0.19,1.76 -1.52,1.74 -2.85,1.73 -4.55,2.21 -6.26,2.70 -8.15,3.60 -10.04,4.49 -11.18,5.39 -12.33,6.30 -12.91,7.31 -13.49,8.33 -12.42,9.72 -11.34,11.10 -10.36,11.77 -9.38,12.43 -8.09,13.15 -6.81,13.87 -5.67,14.71 -4.53,15.55 -3.71,16.73 -2.89,17.91 -2.65,20.02 -2.42,22.13 -2.66,24.51 -2.91,26.89 -3.48,29.15 -4.05,31.41 -4.76,33.20 -5.47,34.99 -6.61,36.54 -7.75,38.09 -9.11,39.15 -10.48,40.21 -12.12,40.84 -13.75,41.47 -15.20,41.75 -16.65,42.03 -18.14,42.20 -19.64,42.38 -19.85,42.41 -20.06,42.43 -20.27,42.39 -20.48,42.35 -20.66,42.24 -20.85,42.14 -20.99,41.98 -21.13,41.82 -21.21,41.62 -21.29,41.43 -21.31,41.22 -21.33,41.01 -21.27,40.80 -21.22,40.59 -21.10,40.42 -20.99,40.24 -20.82,40.11 -20.66,39.97 -20.46,39.90 -20.26,39.83 -20.04,39.83 -19.83,39.82 -19.63,39.88 -19.43,39.95 -19.25,40.07 -19.08,40.20 -18.96,40.37 -18.84,40.55 -18.78,40.75 -18.71,40.95 -18.72,41.16 -18.73,41.38 -18.80,41.58 -18.88,41.78 -19.01,41.94 -19.15,42.10 -19.33,42.22 -19.51,42.33 -19.71,42.38 -19.92,42.43 -20.13,42.41 -20.34,42.39 -20.54,42.31 -20.73,42.22 -20.89,42.08 -21.05,41.94 -21.15,41.75 -21.25,41.57 -21.29,41.36 -21.33,41.15 -21.30,40.94 -21.27,40.73 -21.17,40.54 -21.08,40.35 -20.93,40.20 -20.78,40.05 -20.58,39.96 -20.39,39.86 -20.39,39.86 -20.39,39.86 -19.00,39.17 -17.62,38.49 -16.39,38.03 -15.17,37.58 -14.02,37.19 -12.87,36.81 -11.88,36.17 -10.89,35.54 -9.96,34.50 -9.04,33.47 -8.38,31.96 -7.73,30.45 -7.19,28.45 -6.65,26.45 -6.39,24.39 -6.13,22.33 -6.43,20.33 -6.73,18.32 -7.63,17.62 -8.53,16.92 -9.95,16.12 -11.36,15.31 -12.53,14.49 -13.71,13.67 -15.06,12.24 -16.41,10.82 -16.72,9.37 -17.03,7.93 -16.72,6.29 -16.41,4.66 -15.58,3.89 -14.74,3.12 -13.25,2.01 -11.75,0.90 -9.51,-0.13 -7.28,-1.17 -4.89,-1.75 -2.49,-2.32 -1.14,-2.04 0.19,-1.76 0.40,-1.71 0.61,-1.66 0.80,-1.56 0.99,-1.46 1.15,-1.32 1.31,-1.18 1.43,-1.01 1.56,-0.83 1.63,-0.64 1.71,-0.44 1.74,-0.22 1.77,-0.01 1.74,0.19 1.72,0.40 1.65,0.60 1.57,0.80 1.45,0.98 1.33,1.16 1.17,1.30 1.02,1.44 0.83,1.54 0.64,1.65 0.43,1.70 0.23,1.75 0.01,1.75 -0.19,1.76 -0.19,1.76 L -0.19,1.76 Z"></path></g><g transform="translate(254.68674963031435 157.6616389029782) rotate(0 17.30124568174557 20.141767052717228)" stroke="none"><path fill="#1e1e1e" d="M 0.88,-1.13 Q 0.88,-1.13 2.32,-0.23 3.76,0.66 4.76,1.38 5.75,2.10 7.05,2.99 8.36,3.88 9.63,4.70 10.91,5.52 12.19,6.31 13.48,7.10 16.33,8.65 19.18,10.20 21.27,11.09 23.36,11.98 25.31,12.81 27.26,13.63 28.82,14.29 30.38,14.94 31.67,15.52 32.96,16.11 34.66,16.81 36.37,17.52 37.27,18.96 38.17,20.41 37.22,21.50 36.27,22.59 35.25,23.15 34.23,23.70 32.49,24.61 30.75,25.51 29.47,26.17 28.19,26.82 26.09,27.72 24.00,28.61 22.16,29.55 20.33,30.48 18.87,31.43 17.42,32.37 15.63,33.30 13.84,34.22 12.10,35.18 10.36,36.13 8.45,36.89 6.54,37.66 5.04,38.25 3.54,38.85 2.55,39.35 1.56,39.86 0.34,40.38 -0.86,40.90 -1.03,41.04 -1.19,41.17 -1.39,41.25 -1.58,41.33 -1.80,41.34 -2.01,41.35 -2.21,41.29 -2.42,41.23 -2.59,41.11 -2.77,40.99 -2.90,40.82 -3.02,40.65 -3.09,40.45 -3.16,40.25 -3.15,40.04 -3.15,39.82 -3.08,39.62 -3.01,39.42 -2.89,39.25 -2.76,39.08 -2.58,38.97 -2.40,38.85 -2.20,38.79 -1.99,38.74 -1.78,38.75 -1.57,38.76 -1.37,38.84 -1.17,38.92 -1.01,39.06 -0.85,39.20 -0.74,39.38 -0.64,39.57 -0.59,39.77 -0.55,39.98 -0.57,40.19 -0.60,40.40 -0.69,40.60 -0.78,40.79 -0.92,40.94 -1.07,41.09 -1.26,41.19 -1.45,41.29 -1.66,41.32 -1.87,41.36 -2.08,41.32 -2.29,41.29 -2.47,41.18 -2.66,41.08 -2.81,40.93 -2.95,40.77 -3.04,40.58 -3.13,40.39 -3.15,40.17 -3.17,39.96 -3.12,39.76 -3.08,39.55 -2.96,39.37 -2.85,39.19 -2.85,39.19 -2.85,39.19 -1.64,37.58 -0.42,35.97 0.75,35.37 1.92,34.78 3.43,34.18 4.93,33.58 6.60,32.93 8.26,32.28 10.05,31.30 11.83,30.33 13.44,29.51 15.04,28.69 16.69,27.63 18.34,26.57 20.31,25.58 22.28,24.59 24.25,23.75 26.23,22.91 28.46,21.82 30.69,20.73 32.10,20.46 33.51,20.19 32.49,19.78 31.47,19.37 30.24,18.81 29.01,18.25 27.43,17.60 25.85,16.95 23.90,16.11 21.96,15.27 19.78,14.33 17.60,13.40 14.60,11.78 11.60,10.15 10.29,9.35 8.98,8.54 7.65,7.70 6.32,6.85 4.98,5.93 3.64,5.00 2.60,4.24 1.57,3.48 0.34,2.31 -0.88,1.13 -1.00,1.01 -1.12,0.88 -1.21,0.74 -1.30,0.59 -1.35,0.42 -1.41,0.26 -1.42,0.09 -1.43,-0.08 -1.40,-0.25 -1.37,-0.42 -1.30,-0.58 -1.23,-0.73 -1.12,-0.87 -1.01,-1.01 -0.88,-1.11 -0.74,-1.22 -0.58,-1.29 -0.43,-1.36 -0.26,-1.40 -0.09,-1.43 0.08,-1.42 0.25,-1.41 0.41,-1.36 0.58,-1.31 0.73,-1.22 0.88,-1.13 0.88,-1.13 L 0.88,-1.13 Z"></path></g><g transform="translate(321.82596525888516 169.02365346248598) rotate(0 -6.455690627935326 11.620250222721438)" stroke="none"><path fill="#1e1e1e" d="M -0.66,1.77 Q -0.66,1.77 -1.88,1.41 -3.10,1.05 -4.14,1.31 -5.18,1.58 -6.67,4.06 -8.15,6.54 -8.97,8.54 -9.79,10.55 -10.13,14.00 -10.47,17.45 -9.70,19.00 -8.92,20.55 -6.64,21.46 -4.36,22.37 -4.15,22.42 -3.95,22.47 -3.77,22.59 -3.59,22.70 -3.46,22.87 -3.32,23.04 -3.25,23.24 -3.18,23.44 -3.17,23.65 -3.17,23.86 -3.23,24.06 -3.29,24.27 -3.42,24.44 -3.54,24.61 -3.72,24.73 -3.89,24.86 -4.09,24.92 -4.30,24.98 -4.51,24.97 -4.72,24.97 -4.92,24.89 -5.12,24.82 -5.28,24.69 -5.45,24.55 -5.56,24.37 -5.68,24.19 -5.73,23.99 -5.78,23.78 -5.76,23.57 -5.74,23.36 -5.66,23.16 -5.57,22.97 -5.43,22.81 -5.29,22.65 -5.10,22.55 -4.92,22.44 -4.71,22.40 -4.50,22.37 -4.29,22.40 -4.08,22.42 -3.89,22.52 -3.70,22.62 -3.55,22.77 -3.40,22.92 -3.31,23.11 -3.21,23.30 -3.18,23.51 -3.16,23.72 -3.20,23.93 -3.24,24.14 -3.34,24.32 -3.45,24.51 -3.61,24.65 -3.77,24.79 -3.96,24.87 -4.16,24.95 -4.37,24.97 -4.58,24.99 -4.58,24.99 -4.58,24.99 -6.97,24.90 -9.37,24.81 -10.82,23.53 -12.28,22.25 -13.29,19.92 -14.29,17.59 -14.27,14.42 -14.25,11.26 -13.86,10.15 -13.48,9.04 -12.57,6.84 -11.67,4.63 -10.60,2.66 -9.53,0.69 -8.32,-0.68 -7.10,-2.06 -5.45,-2.66 -3.80,-3.26 -2.72,-3.05 -1.64,-2.83 -0.49,-2.30 0.66,-1.77 0.86,-1.67 1.07,-1.56 1.24,-1.41 1.41,-1.26 1.54,-1.07 1.67,-0.88 1.76,-0.67 1.84,-0.46 1.87,-0.23 1.89,-0.00 1.87,0.22 1.84,0.44 1.76,0.66 1.68,0.87 1.55,1.06 1.42,1.25 1.25,1.40 1.08,1.55 0.88,1.66 0.67,1.77 0.45,1.82 0.23,1.88 0.00,1.88 -0.22,1.88 -0.44,1.83 -0.66,1.77 -0.66,1.77 L -0.66,1.77 Z"></path></g><g transform="translate(335.25381784118304 177.80340595569544) rotate(0 10.070883526358614 1.0329071906652985)" stroke="none"><path fill="#1e1e1e" d="M -0.95,-1.79 Q -0.95,-1.79 1.30,-2.91 3.56,-4.03 5.90,-5.67 8.23,-7.31 9.40,-8.16 10.56,-9.01 11.73,-9.73 12.90,-10.45 14.63,-10.99 16.37,-11.52 18.20,-11.15 20.04,-10.77 20.60,-9.81 21.15,-8.86 21.01,-6.95 20.88,-5.05 20.33,-2.81 19.78,-0.58 19.26,1.25 18.73,3.08 18.04,4.95 17.36,6.82 16.94,8.14 16.53,9.45 15.91,10.85 15.29,12.26 15.22,12.46 15.16,12.66 15.03,12.83 14.90,13.00 14.73,13.13 14.56,13.25 14.35,13.31 14.15,13.37 13.94,13.36 13.72,13.35 13.53,13.27 13.33,13.20 13.16,13.06 13.00,12.93 12.89,12.75 12.77,12.57 12.73,12.36 12.68,12.15 12.70,11.94 12.72,11.73 12.80,11.53 12.89,11.34 13.04,11.18 13.18,11.03 13.37,10.93 13.55,10.82 13.76,10.79 13.97,10.75 14.18,10.78 14.39,10.81 14.58,10.91 14.77,11.01 14.92,11.16 15.07,11.31 15.16,11.50 15.25,11.69 15.27,11.91 15.30,12.12 15.26,12.32 15.21,12.53 15.11,12.72 15.00,12.90 14.84,13.04 14.68,13.18 14.48,13.26 14.29,13.34 14.08,13.36 13.86,13.37 13.66,13.32 13.45,13.26 13.28,13.15 13.10,13.03 12.97,12.86 12.84,12.69 12.77,12.49 12.70,12.29 12.69,12.08 12.69,11.87 12.69,11.87 12.69,11.87 12.66,10.04 12.63,8.21 13.08,6.81 13.53,5.40 14.17,3.67 14.82,1.94 15.33,0.19 15.85,-1.55 16.36,-3.56 16.86,-5.56 17.13,-6.71 17.39,-7.85 16.11,-7.52 14.83,-7.20 13.81,-6.58 12.79,-5.97 11.59,-5.09 10.39,-4.21 7.86,-2.46 5.34,-0.71 3.14,0.53 0.95,1.79 0.72,1.88 0.49,1.96 0.25,1.99 0.01,2.03 -0.22,2.00 -0.47,1.97 -0.70,1.88 -0.93,1.80 -1.13,1.66 -1.33,1.52 -1.50,1.34 -1.66,1.16 -1.77,0.94 -1.89,0.73 -1.95,0.49 -2.01,0.25 -2.01,0.01 -2.01,-0.23 -1.96,-0.46 -1.90,-0.70 -1.79,-0.92 -1.67,-1.14 -1.51,-1.32 -1.35,-1.51 -1.15,-1.65 -0.95,-1.79 -0.95,-1.79 L -0.95,-1.79 Z"></path></g><g transform="translate(268.1145785711527 256.8211074702013) rotate(0 8.7797524932094 2.582262066298398)" stroke="none"><path fill="#1e1e1e" d="M -0.95,-1.10 Q -0.95,-1.10 -0.00,-2.10 0.94,-3.10 2.60,-4.40 4.26,-5.69 5.42,-6.54 6.58,-7.39 8.22,-8.26 9.85,-9.12 12.02,-9.96 14.20,-10.80 15.76,-10.60 17.32,-10.40 18.18,-9.45 19.04,-8.51 19.21,-6.93 19.39,-5.36 19.10,-3.64 18.81,-1.91 18.22,0.02 17.64,1.97 17.11,3.91 16.58,5.85 16.05,7.86 15.52,9.87 15.34,12.08 15.16,14.29 15.16,14.51 15.16,14.72 15.09,14.92 15.02,15.12 14.89,15.29 14.76,15.45 14.58,15.57 14.40,15.69 14.20,15.74 13.99,15.80 13.78,15.78 13.57,15.77 13.37,15.69 13.18,15.61 13.02,15.47 12.86,15.33 12.75,15.15 12.64,14.96 12.60,14.75 12.55,14.55 12.58,14.34 12.60,14.12 12.70,13.93 12.79,13.74 12.94,13.59 13.08,13.44 13.27,13.34 13.46,13.24 13.67,13.21 13.88,13.18 14.09,13.21 14.30,13.25 14.49,13.35 14.67,13.45 14.82,13.61 14.96,13.77 15.05,13.96 15.14,14.15 15.16,14.37 15.18,14.58 15.13,14.78 15.08,14.99 14.97,15.17 14.86,15.35 14.69,15.49 14.53,15.62 14.33,15.70 14.13,15.78 13.92,15.79 13.71,15.79 13.50,15.74 13.30,15.68 13.13,15.55 12.95,15.43 12.83,15.26 12.70,15.09 12.63,14.89 12.57,14.69 12.57,14.69 12.57,14.69 12.21,11.81 11.84,8.93 12.37,6.88 12.89,4.84 13.44,2.84 13.99,0.84 14.53,-0.88 15.08,-2.61 15.36,-3.95 15.65,-5.30 15.43,-6.40 15.21,-7.51 13.34,-6.78 11.46,-6.06 10.05,-5.32 8.64,-4.59 7.52,-3.76 6.41,-2.94 4.81,-1.69 3.21,-0.45 2.08,0.32 0.95,1.10 0.80,1.20 0.65,1.30 0.49,1.36 0.32,1.42 0.15,1.44 -0.02,1.46 -0.19,1.43 -0.37,1.41 -0.53,1.34 -0.70,1.28 -0.84,1.18 -0.98,1.07 -1.10,0.94 -1.21,0.81 -1.29,0.65 -1.37,0.49 -1.41,0.32 -1.45,0.15 -1.45,-0.02 -1.44,-0.19 -1.40,-0.37 -1.35,-0.54 -1.27,-0.69 -1.18,-0.84 -1.06,-0.97 -0.95,-1.10 -0.95,-1.10 L -0.95,-1.10 Z"></path></g><g transform="translate(310.4639506993774 245.4590692692339) rotate(0 -5.681019100483695 15.235454941874536)" stroke="none"><path fill="#1e1e1e" d="M 1.03,1.54 Q 1.03,1.54 -0.24,2.53 -1.51,3.51 -2.35,4.56 -3.19,5.62 -3.94,7.72 -4.70,9.82 -5.18,11.19 -5.67,12.56 -6.67,16.84 -7.68,21.12 -8.18,23.32 -8.67,25.52 -9.33,27.84 -10.00,30.16 -10.06,30.36 -10.12,30.57 -10.24,30.74 -10.36,30.92 -10.53,31.04 -10.70,31.17 -10.90,31.23 -11.10,31.30 -11.32,31.30 -11.53,31.29 -11.73,31.22 -11.93,31.15 -12.10,31.02 -12.27,30.89 -12.38,30.71 -12.50,30.54 -12.55,30.33 -12.61,30.12 -12.59,29.91 -12.58,29.70 -12.50,29.50 -12.42,29.31 -12.28,29.15 -12.14,28.99 -11.95,28.88 -11.77,28.77 -11.56,28.73 -11.35,28.69 -11.14,28.71 -10.93,28.74 -10.74,28.83 -10.55,28.92 -10.40,29.07 -10.24,29.22 -10.15,29.41 -10.05,29.60 -10.02,29.81 -9.99,30.02 -10.02,30.23 -10.06,30.44 -10.16,30.62 -10.27,30.81 -10.42,30.95 -10.58,31.10 -10.77,31.18 -10.97,31.27 -11.18,31.29 -11.39,31.31 -11.60,31.26 -11.80,31.21 -11.98,31.10 -12.16,30.99 -12.30,30.83 -12.43,30.66 -12.51,30.46 -12.59,30.26 -12.60,30.05 -12.60,29.84 -12.60,29.84 -12.60,29.84 -12.58,27.25 -12.56,24.65 -12.06,22.38 -11.55,20.10 -10.73,17.01 -9.91,13.92 -9.66,12.59 -9.42,11.25 -8.94,9.86 -8.46,8.47 -7.64,6.19 -6.83,3.91 -5.32,1.98 -3.82,0.04 -2.42,-0.74 -1.03,-1.54 -0.83,-1.64 -0.63,-1.75 -0.41,-1.80 -0.19,-1.85 0.02,-1.84 0.25,-1.84 0.47,-1.78 0.68,-1.72 0.88,-1.62 1.08,-1.51 1.24,-1.36 1.41,-1.21 1.53,-1.02 1.66,-0.83 1.73,-0.62 1.81,-0.41 1.83,-0.19 1.86,0.03 1.82,0.25 1.79,0.47 1.71,0.68 1.63,0.89 1.50,1.07 1.37,1.25 1.20,1.40 1.03,1.54 1.03,1.54 L 1.03,1.54 Z"></path></g><g transform="translate(305.2993792838614 248.04137861845157) rotate(0 9.8126596838747 10.845566874540026)" stroke="none"><path fill="#1e1e1e" d="M -1.07,-1.50 Q -1.07,-1.50 1.00,-2.98 3.09,-4.45 4.84,-5.81 6.59,-7.17 9.00,-8.30 11.42,-9.43 12.57,-9.88 13.73,-10.34 14.84,-10.25 15.96,-10.16 17.33,-8.64 18.70,-7.12 19.24,-5.56 19.77,-4.00 19.85,-1.98 19.93,0.03 19.16,2.30 18.39,4.58 17.07,6.39 15.74,8.20 14.22,9.61 12.71,11.02 10.56,12.16 8.42,13.30 6.32,13.81 4.22,14.32 2.64,14.37 1.05,14.41 -0.13,14.25 -1.32,14.09 -2.18,13.67 -3.05,13.25 -3.25,13.15 -3.45,13.05 -3.62,12.90 -3.79,12.76 -3.93,12.58 -4.06,12.40 -4.14,12.19 -4.23,11.98 -4.26,11.76 -4.29,11.53 -4.27,11.31 -4.25,11.08 -4.18,10.87 -4.10,10.66 -3.98,10.47 -3.86,10.28 -3.69,10.13 -3.53,9.98 -3.33,9.87 -3.13,9.76 -2.92,9.70 -2.70,9.64 -2.47,9.63 -2.25,9.63 -2.03,9.68 -1.81,9.72 -0.83,10.43 0.13,11.13 1.34,12.11 2.55,13.09 4.62,15.21 6.69,17.33 8.54,19.05 10.40,20.77 12.31,22.19 14.23,23.61 16.40,25.04 18.58,26.47 20.54,27.89 22.50,29.31 22.67,29.45 22.83,29.59 22.93,29.77 23.04,29.95 23.09,30.16 23.13,30.37 23.10,30.58 23.08,30.79 22.99,30.98 22.90,31.18 22.75,31.33 22.60,31.48 22.41,31.58 22.22,31.68 22.01,31.71 21.80,31.74 21.60,31.71 21.39,31.67 21.20,31.57 21.01,31.47 20.87,31.31 20.72,31.16 20.64,30.96 20.55,30.77 20.53,30.56 20.51,30.35 20.55,30.14 20.60,29.93 20.71,29.75 20.82,29.57 20.99,29.43 21.15,29.30 21.35,29.22 21.55,29.14 21.76,29.13 21.97,29.12 22.18,29.18 22.38,29.24 22.55,29.36 22.73,29.48 22.86,29.65 22.98,29.82 23.05,30.03 23.11,30.23 23.11,30.44 23.11,30.65 23.04,30.85 22.97,31.05 22.84,31.22 22.71,31.39 22.53,31.51 22.36,31.63 22.15,31.68 21.95,31.74 21.73,31.72 21.52,31.71 21.33,31.63 21.13,31.55 21.13,31.55 21.13,31.55 19.00,30.45 16.87,29.36 14.39,28.04 11.90,26.71 9.84,25.15 7.77,23.59 5.86,21.79 3.95,19.99 2.04,18.00 0.13,16.02 -1.45,14.64 -3.05,13.25 -3.25,13.15 -3.45,13.05 -3.62,12.90 -3.79,12.76 -3.93,12.58 -4.06,12.40 -4.14,12.19 -4.23,11.98 -4.26,11.76 -4.29,11.53 -4.27,11.31 -4.25,11.08 -4.18,10.87 -4.10,10.66 -3.98,10.47 -3.86,10.28 -3.69,10.13 -3.53,9.98 -3.33,9.87 -3.13,9.76 -2.92,9.70 -2.70,9.64 -2.47,9.63 -2.25,9.63 -2.03,9.68 -1.81,9.72 -1.66,9.75 -1.51,9.79 -0.27,10.03 0.97,10.28 2.15,10.27 3.33,10.26 4.96,9.94 6.58,9.61 8.30,8.79 10.02,7.97 11.31,6.87 12.59,5.76 13.67,4.45 14.75,3.14 15.45,1.56 16.15,-0.01 16.18,-1.48 16.22,-2.95 15.62,-4.95 15.03,-6.95 13.98,-6.53 12.94,-6.11 10.88,-5.18 8.82,-4.25 7.01,-2.87 5.21,-1.48 3.14,0.01 1.07,1.50 0.88,1.61 0.68,1.72 0.46,1.77 0.25,1.83 0.02,1.83 -0.19,1.84 -0.41,1.79 -0.62,1.74 -0.82,1.64 -1.02,1.54 -1.19,1.39 -1.36,1.25 -1.49,1.06 -1.62,0.88 -1.70,0.68 -1.79,0.47 -1.82,0.25 -1.85,0.02 -1.82,-0.19 -1.80,-0.41 -1.73,-0.62 -1.65,-0.83 -1.53,-1.02 -1.40,-1.20 -1.24,-1.35 -1.07,-1.50 -1.07,-1.50 L -1.07,-1.50 Z"></path></g></svg>