<svg version="1.1" xmlns="http://www.w3.org/2000/svg" viewBox="0 0 502.13581328810574 232.492779480421" width="502.13581328810574" height="232.492779480421" class="excalidraw-svg"><!-- svg-source:excalidraw --><metadata></metadata><defs><style class="style-fonts">
      </style></defs><rect x="0" y="0" width="502.13581328810574" height="232.492779480421" fill="#ffffff"></rect><g stroke-linecap="round" transform="translate(110.59391022830789 10) rotate(0 33.66668701171875 31)"><path d="M15.5 0 C28.56 1.89, 42.5 0.7, 51.83 0 M15.5 0 C28.01 -0.56, 40.9 -0.95, 51.83 0 M51.83 0 C60.94 -0.38, 68.93 5.09, 67.33 15.5 M51.83 0 C62.34 -2.09, 68.46 5.17, 67.33 15.5 M67.33 15.5 C67.91 26.22, 69.24 33.25, 67.33 46.5 M67.33 15.5 C68.11 27.67, 67.45 37.91, 67.33 46.5 M67.33 46.5 C68.92 55.26, 61.2 61.54, 51.83 62 M67.33 46.5 C68.59 57.07, 61.17 59.86, 51.83 62 M51.83 62 C44 61.11, 35.38 62.37, 15.5 62 M51.83 62 C38.06 61.98, 25.43 62.91, 15.5 62 M15.5 62 C4.27 60.96, 0.59 57.06, 0 46.5 M15.5 62 C3.64 61.81, 2.23 58.24, 0 46.5 M0 46.5 C-0.41 37.96, -0.44 33.32, 0 15.5 M0 46.5 C0.59 36.71, 0.61 25.69, 0 15.5 M0 15.5 C-0.05 5.11, 6.92 -0.75, 15.5 0 M0 15.5 C-0.71 3.75, 4.02 1.49, 15.5 0" stroke="#1e1e1e" stroke-width="2" fill="none"></path></g><g stroke-linecap="round" transform="translate(111.92728425174539 158.66668701171875) rotate(0 34 31.333328247070312)"><path d="M15.67 0 C29.66 1.58, 39.76 -0.97, 52.33 0 M15.67 0 C27.67 1.21, 40.46 -0.64, 52.33 0 M52.33 0 C62.17 -1.9, 67.49 3.26, 68 15.67 M52.33 0 C62.17 -0.03, 68.79 3.61, 68 15.67 M68 15.67 C68.9 22.67, 68.06 29.9, 68 47 M68 15.67 C67.27 27.32, 68.53 39.57, 68 47 M68 47 C66.04 55.75, 62.03 64.5, 52.33 62.67 M68 47 C68.98 59.49, 61.69 62.73, 52.33 62.67 M52.33 62.67 C40.44 61.5, 25.87 61.99, 15.67 62.67 M52.33 62.67 C37.6 61.73, 23.33 61.64, 15.67 62.67 M15.67 62.67 C4.95 63.61, 0.69 58.59, 0 47 M15.67 62.67 C2.93 64.32, 0.41 56.65, 0 47 M0 47 C1.32 38.39, 1.72 29.25, 0 15.67 M0 47 C-0.36 38.1, 0.73 30.6, 0 15.67 M0 15.67 C-0.71 5.24, 7.17 0.24, 15.67 0 M0 15.67 C-2.02 7.04, 4.03 1.71, 15.67 0" stroke="#1e1e1e" stroke-width="2" fill="none"></path></g><g stroke-linecap="round" transform="translate(299.9272842517454 81.33334350585938) rotate(0 30.33331298828125 36)"><path d="M15.17 0 C21.6 -0.21, 32.29 0.75, 45.5 0 M15.17 0 C26.18 -0.57, 36.96 -0.9, 45.5 0 M45.5 0 C56.11 1.11, 61.8 6.57, 60.67 15.17 M45.5 0 C57.61 -0.96, 60.89 6.55, 60.67 15.17 M60.67 15.17 C59.91 25.58, 60.35 39.37, 60.67 56.83 M60.67 15.17 C59.78 28.92, 60.08 41.66, 60.67 56.83 M60.67 56.83 C59.43 66.76, 56.87 72.26, 45.5 72 M60.67 56.83 C60.94 64.71, 55.7 69.72, 45.5 72 M45.5 72 C39.02 71.04, 31.65 73.29, 15.17 72 M45.5 72 C35.26 71.59, 26.47 71.65, 15.17 72 M15.17 72 C4.07 74, 1.5 67.58, 0 56.83 M15.17 72 C5.43 72.11, -0.06 65.96, 0 56.83 M0 56.83 C-1.53 45.48, 1 34.28, 0 15.17 M0 56.83 C-0.11 47.35, 0.55 36.81, 0 15.17 M0 15.17 C-0.27 3.25, 3.34 -1.19, 15.17 0 M0 15.17 C-2.04 4.12, 7.07 0.51, 15.17 0" stroke="#1e1e1e" stroke-width="2" fill="none"></path></g><g stroke-linecap="round" transform="translate(182.5939102283079 37.333343505859375) rotate(0 7.66668701171875 7)"><path d="M6.89 0.13 C8.34 -0.19, 10.55 0.33, 11.86 1.11 C13.18 1.9, 14.39 3.42, 14.78 4.83 C15.18 6.24, 14.93 8.19, 14.24 9.6 C13.56 11.01, 12.03 12.55, 10.67 13.27 C9.31 13.99, 7.67 14.26, 6.1 13.93 C4.52 13.61, 2.22 12.54, 1.23 11.32 C0.25 10.11, 0 8.09, 0.17 6.63 C0.34 5.16, 1.14 3.66, 2.26 2.55 C3.38 1.44, 6.12 0.43, 6.89 -0.04 C7.65 -0.51, 6.86 -0.33, 6.84 -0.28 M6.35 -0.59 C7.83 -0.93, 10.72 -0.28, 12.21 0.7 C13.69 1.68, 14.94 3.76, 15.27 5.29 C15.59 6.81, 14.8 8.45, 14.14 9.85 C13.48 11.25, 12.57 13.06, 11.3 13.67 C10.04 14.28, 8.16 13.86, 6.54 13.5 C4.92 13.15, 2.68 12.74, 1.58 11.55 C0.49 10.36, -0.2 7.87, -0.03 6.36 C0.14 4.85, 1.45 3.51, 2.59 2.5 C3.74 1.49, 6.03 0.77, 6.86 0.29 C7.68 -0.19, 7.5 -0.33, 7.56 -0.38" stroke="#1e1e1e" stroke-width="2" fill="none"></path></g><g stroke-linecap="round" transform="translate(182.5939102283079 183.33334350585938) rotate(0 8.66668701171875 9)"><path d="M7.6 0.61 C9.32 0.12, 11.54 0.07, 13.03 0.92 C14.52 1.78, 15.9 3.92, 16.56 5.73 C17.22 7.53, 17.55 9.89, 16.99 11.73 C16.43 13.56, 14.9 15.72, 13.2 16.74 C11.5 17.76, 8.68 18.25, 6.8 17.85 C4.93 17.44, 3.13 15.85, 1.94 14.31 C0.76 12.76, -0.41 10.38, -0.31 8.59 C-0.21 6.8, 1.15 4.99, 2.54 3.56 C3.94 2.12, 7.15 0.51, 8.07 -0.03 C9 -0.58, 8.2 0.21, 8.08 0.31 M8.46 0.67 C10.2 0.48, 13.08 0.71, 14.47 1.78 C15.87 2.85, 16.51 5.17, 16.82 7.08 C17.12 8.99, 17.08 11.56, 16.3 13.24 C15.53 14.92, 13.85 16.31, 12.16 17.17 C10.48 18.02, 7.96 19, 6.18 18.37 C4.41 17.73, 2.6 14.96, 1.52 13.34 C0.44 11.71, -0.44 10.34, -0.32 8.63 C-0.21 6.92, 0.71 4.6, 2.22 3.05 C3.73 1.5, 7.69 -0.3, 8.74 -0.68 C9.8 -1.05, 8.58 0.64, 8.54 0.79" stroke="#1e1e1e" stroke-width="2" fill="none"></path></g><g stroke-linecap="round" transform="translate(362.5939102283079 108.66668701171875) rotate(0 10 10.333328247070312)"><path d="M10.72 0.52 C12.76 0.48, 15.53 0.97, 17.02 2.5 C18.52 4.04, 19.54 7.38, 19.7 9.72 C19.85 12.06, 19.04 14.85, 17.95 16.53 C16.85 18.21, 15.09 19.21, 13.13 19.81 C11.16 20.42, 8.15 21.06, 6.16 20.15 C4.18 19.25, 2.24 16.38, 1.23 14.37 C0.21 12.36, -0.37 10.1, 0.05 8.09 C0.47 6.08, 1.94 3.56, 3.73 2.3 C5.51 1.03, 9.49 0.83, 10.76 0.51 C12.03 0.19, 11.3 0.27, 11.35 0.35 M8.86 0.88 C10.94 0.41, 13.58 -0.01, 15.4 0.99 C17.21 1.99, 19.16 4.74, 19.77 6.91 C20.37 9.07, 19.96 11.89, 19.04 13.98 C18.13 16.06, 16.04 18.3, 14.29 19.4 C12.55 20.5, 10.55 20.89, 8.56 20.57 C6.58 20.26, 3.93 19.29, 2.39 17.51 C0.85 15.72, -0.72 12.21, -0.69 9.87 C-0.66 7.53, 1.11 5.19, 2.56 3.48 C4.02 1.76, 7.12 0.22, 8.04 -0.41 C8.97 -1.04, 7.97 -0.56, 8.13 -0.32" stroke="#1e1e1e" stroke-width="2" fill="none"></path></g><g stroke-linecap="round"><g transform="translate(111.92728425174539 26.666671752929688) rotate(0 -11.000015258789062 14.333335876464844)"><path d="M-0.86 -1.03 C-4.19 -0.75, -17.66 -3.47, -21.15 0.91 C-24.64 5.3, -24.76 20.85, -21.82 25.29 C-18.89 29.73, -6.88 27.16, -3.55 27.56 M0.9 1.05 C-2.48 1.56, -18.1 -2.03, -22 2.23 C-25.9 6.48, -25.54 22.28, -22.5 26.58 C-19.46 30.89, -7.04 27.92, -3.76 28.08" stroke="#1e1e1e" stroke-width="2" fill="none"></path></g></g><mask></mask><g stroke-linecap="round"><g transform="translate(112.59391022830789 180) rotate(0 -13 13.666671752929688)"><path d="M-0.68 -0.13 C-5.25 -0.03, -22.67 -3.69, -26.69 0.69 C-30.72 5.07, -29.41 21.97, -24.84 26.17 C-20.27 30.36, -3.47 25.92, 0.74 25.85 M1.16 -1.24 C-3.08 -0.95, -19.98 -2.45, -24.34 2.24 C-28.7 6.93, -29.28 23.32, -24.99 26.87 C-20.71 30.43, -2.66 23.65, 1.37 23.57" stroke="#1e1e1e" stroke-width="2" fill="none"></path></g></g><mask></mask><g stroke-linecap="round"><g transform="translate(200.5939102283079 46) rotate(0 49.333343505859375 24.66668701171875)"><path d="M1.07 1.05 C9.4 0.35, 40.34 -13.92, 49.33 -5.22 C58.31 3.49, 46.62 43.18, 54.97 53.3 C63.32 63.43, 92.2 55.21, 99.42 55.54 M0.17 0.56 C8.95 0.16, 42.65 -12.57, 51.69 -3.62 C60.72 5.33, 46.3 44.75, 54.37 54.26 C62.43 63.77, 92.41 53.16, 100.06 53.44" stroke="#1e1e1e" stroke-width="2" fill="none"></path></g></g><mask></mask><g stroke-linecap="round"><g transform="translate(203.9272842517454 194) rotate(0 47.33331298828125 -30)"><path d="M0.89 0.91 C8.38 0.82, 35.97 4.19, 43.87 -0.46 C51.78 -5.11, 47.01 -16.89, 48.3 -26.99 C49.6 -37.1, 43.76 -56.26, 51.64 -61.1 C59.51 -65.94, 88.41 -56.76, 95.57 -56.02 M-0.1 0.34 C7.86 -0.08, 38.26 2.3, 46.17 -2.12 C54.08 -6.55, 46.37 -16.46, 47.35 -26.2 C48.33 -35.94, 44.17 -55.73, 52.04 -60.58 C59.91 -65.43, 87.25 -55.78, 94.58 -55.3" stroke="#1e1e1e" stroke-width="2" fill="none"></path></g></g><mask></mask><g stroke-linecap="round"><g transform="translate(386.5939102283079 119.33334350585938) rotate(0 25.333343505859375 -1)"><path d="M-1.16 0.88 C7.09 0.66, 40.89 -1.36, 49.65 -1.72 M0.44 0.3 C9.03 -0.27, 43.4 -3.1, 51.83 -3.69" stroke="#1e1e1e" stroke-width="2" fill="none"></path></g></g><mask></mask><g stroke-linecap="round"><g transform="translate(84.59391022830789 39.333343505859375) rotate(0 -24 -0.3333282470703125)"><path d="M-0.03 -0.05 C-8.03 -0.1, -39.96 -0.35, -47.89 -0.36 M-0.7 -0.56 C-8.78 -0.76, -40.42 -1.1, -48.26 -1.18" stroke="#1e1e1e" stroke-width="2" fill="none"></path></g></g><mask></mask><g stroke-linecap="round"><g transform="translate(83.26059724002664 190) rotate(0 -23 -3.3333282470703125)"><path d="M-0.32 -0.05 C-7.91 -1.02, -38.56 -4.96, -46.12 -6.13 M0.52 -0.55 C-7.11 -1.63, -38.88 -5.79, -46.61 -6.82" stroke="#1e1e1e" stroke-width="2" fill="none"></path></g></g><mask></mask><g transform="translate(16.252481453576877 26.94778636997492) rotate(0 -1.3894350227228642 8.336657838985133)" stroke="none"><path fill="#1e1e1e" d="M -0.23,0.71 Q -0.23,0.71 -0.91,0.75 -1.59,0.80 -2.27,0.63 -2.95,0.46 -3.48,1.31 -4.02,2.16 -4.31,2.66 -4.59,3.17 -4.67,4.02 -4.75,4.86 -4.81,6.84 -4.87,8.81 -4.52,10.74 -4.16,12.67 -3.90,13.43 -3.64,14.20 -2.98,13.00 -2.32,11.80 -1.84,10.15 -1.36,8.50 -1.16,7.03 -0.96,5.57 -0.87,4.54 -0.78,3.52 -0.74,2.70 -0.70,1.88 -0.68,1.14 -0.67,0.39 -0.67,-0.14 -0.66,-0.68 -0.64,-0.84 -0.62,-1.00 -0.56,-1.15 -0.50,-1.31 -0.40,-1.44 -0.31,-1.57 -0.18,-1.68 -0.06,-1.79 0.08,-1.86 0.22,-1.93 0.38,-1.97 0.54,-2.01 0.71,-2.00 0.87,-2.00 1.03,-1.96 1.19,-1.92 1.33,-1.84 1.47,-1.76 1.59,-1.65 1.71,-1.54 1.81,-1.41 1.90,-1.27 1.95,-1.12 2.01,-0.96 2.03,-0.80 2.04,-0.64 2.04,0.50 2.03,1.64 2.03,2.56 2.03,3.49 2.21,4.35 2.38,5.22 2.65,7.07 2.92,8.92 3.19,10.68 3.46,12.45 3.74,14.95 4.02,17.45 4.03,17.56 4.03,17.66 4.00,17.77 3.97,17.87 3.90,17.95 3.84,18.04 3.75,18.10 3.67,18.16 3.56,18.19 3.46,18.22 3.36,18.22 3.25,18.22 3.15,18.18 3.05,18.14 2.97,18.07 2.89,18.01 2.83,17.92 2.77,17.83 2.75,17.72 2.72,17.62 2.73,17.51 2.74,17.41 2.79,17.31 2.83,17.21 2.90,17.13 2.97,17.06 3.06,17.00 3.16,16.95 3.26,16.93 3.37,16.91 3.47,16.93 3.58,16.94 3.67,16.99 3.77,17.04 3.84,17.12 3.92,17.19 3.96,17.29 4.01,17.38 4.02,17.49 4.04,17.59 4.01,17.70 3.99,17.80 3.94,17.89 3.89,17.99 3.81,18.06 3.73,18.13 3.63,18.17 3.53,18.21 3.43,18.22 3.32,18.23 3.22,18.20 3.11,18.17 3.03,18.11 2.94,18.06 2.87,17.97 2.80,17.89 2.77,17.79 2.73,17.69 2.73,17.69 2.73,17.69 1.94,15.28 1.14,12.87 0.77,11.09 0.40,9.31 0.10,7.52 -0.19,5.74 -0.42,4.62 -0.65,3.50 -0.65,2.57 -0.65,1.64 -0.65,0.48 -0.66,-0.68 -0.64,-0.84 -0.62,-1.00 -0.56,-1.15 -0.50,-1.31 -0.40,-1.44 -0.31,-1.57 -0.18,-1.68 -0.06,-1.79 0.08,-1.86 0.22,-1.93 0.38,-1.97 0.54,-2.01 0.71,-2.00 0.87,-2.00 1.03,-1.96 1.19,-1.92 1.33,-1.84 1.47,-1.76 1.59,-1.65 1.71,-1.54 1.81,-1.41 1.90,-1.27 1.95,-1.12 2.01,-0.96 2.03,-0.80 2.04,-0.64 2.02,-0.08 2.00,0.46 1.98,1.24 1.96,2.02 1.91,2.90 1.86,3.78 1.75,4.87 1.64,5.97 1.35,7.62 1.06,9.27 0.41,11.18 -0.24,13.09 -1.38,14.60 -2.51,16.10 -3.72,16.03 -4.94,15.95 -5.80,14.55 -6.65,13.16 -7.04,10.95 -7.43,8.74 -7.36,6.62 -7.29,4.50 -7.06,3.22 -6.83,1.94 -6.40,1.21 -5.96,0.48 -4.79,-0.63 -3.62,-1.75 -2.75,-1.78 -1.87,-1.82 -1.33,-1.71 -0.79,-1.60 -0.28,-1.15 0.23,-0.71 0.31,-0.67 0.40,-0.63 0.47,-0.57 0.54,-0.52 0.59,-0.44 0.65,-0.37 0.68,-0.29 0.72,-0.20 0.73,-0.11 0.75,-0.03 0.74,0.05 0.73,0.14 0.70,0.23 0.67,0.32 0.63,0.39 0.58,0.47 0.51,0.53 0.45,0.60 0.37,0.64 0.29,0.69 0.20,0.71 0.12,0.74 0.03,0.74 -0.06,0.74 -0.14,0.73 -0.23,0.71 -0.23,0.71 L -0.23,0.71 Z"></path></g><g transform="translate(15.557771892656717 164.50237834866647) rotate(0 -1.7368057040655458 12.852333588496435)" stroke="none"><path fill="#1e1e1e" d="M 0.53,0.53 Q 0.53,0.53 0.38,1.13 0.22,1.72 0.01,2.64 -0.20,3.55 -0.73,6.37 -1.27,9.18 -1.51,12.52 -1.74,15.87 -1.85,17.52 -1.96,19.16 -2.06,22.18 -2.16,25.20 -2.17,25.31 -2.18,25.41 -2.22,25.51 -2.26,25.61 -2.33,25.69 -2.40,25.77 -2.49,25.82 -2.58,25.88 -2.68,25.90 -2.79,25.92 -2.89,25.91 -3.00,25.89 -3.10,25.85 -3.19,25.80 -3.27,25.73 -3.34,25.65 -3.39,25.56 -3.44,25.47 -3.46,25.36 -3.47,25.26 -3.45,25.15 -3.44,25.05 -3.38,24.95 -3.33,24.86 -3.26,24.79 -3.18,24.72 -3.08,24.67 -2.98,24.63 -2.88,24.62 -2.77,24.61 -2.67,24.63 -2.57,24.66 -2.47,24.71 -2.38,24.77 -2.32,24.85 -2.25,24.93 -2.21,25.03 -2.17,25.13 -2.17,25.24 -2.16,25.34 -2.19,25.45 -2.22,25.55 -2.28,25.63 -2.34,25.72 -2.43,25.78 -2.52,25.85 -2.62,25.88 -2.72,25.91 -2.82,25.91 -2.93,25.91 -3.03,25.88 -3.13,25.84 -3.21,25.77 -3.30,25.71 -3.36,25.62 -3.42,25.53 -3.44,25.43 -3.47,25.33 -3.47,25.33 -3.47,25.33 -4.08,22.16 -4.68,19.00 -4.59,17.34 -4.49,15.68 -4.26,12.16 -4.02,8.65 -3.45,5.68 -2.87,2.71 -2.35,1.29 -1.82,-0.12 -1.18,-0.33 -0.53,-0.53 -0.46,-0.59 -0.39,-0.64 -0.30,-0.68 -0.22,-0.72 -0.13,-0.74 -0.04,-0.75 0.04,-0.75 0.13,-0.74 0.22,-0.71 0.31,-0.69 0.38,-0.64 0.46,-0.59 0.53,-0.53 0.59,-0.46 0.64,-0.38 0.69,-0.31 0.71,-0.22 0.74,-0.13 0.75,-0.04 0.75,0.04 0.74,0.13 0.72,0.22 0.68,0.30 0.64,0.39 0.59,0.46 0.53,0.53 0.53,0.53 L 0.53,0.53 Z"></path></g><g transform="translate(19.726092861708025 179.7862431030312) rotate(0 0.34737068134265314 6.947191014497037)" stroke="none"><path fill="#1e1e1e" d="M 0.26,0.78 Q 0.26,0.78 -0.29,1.11 -0.85,1.45 -1.58,1.61 -2.32,1.77 -2.83,2.15 -3.34,2.53 -3.36,4.34 -3.39,6.14 -2.86,7.76 -2.34,9.38 -1.57,10.92 -0.80,12.46 -0.05,12.51 0.69,12.56 1.50,11.56 2.30,10.56 2.84,9.10 3.39,7.65 3.02,5.64 2.66,3.62 1.92,2.37 1.19,1.12 0.57,0.99 -0.05,0.86 -0.61,1.66 -1.17,2.45 -1.85,3.26 -2.53,4.08 -2.59,4.13 -2.66,4.18 -2.73,4.21 -2.80,4.24 -2.88,4.25 -2.96,4.26 -3.04,4.26 -3.12,4.25 -3.19,4.23 -3.27,4.20 -3.33,4.16 -3.40,4.12 -3.46,4.06 -3.51,4.01 -3.55,3.94 -3.59,3.87 -3.61,3.79 -3.64,3.72 -3.64,3.64 -3.64,3.56 -3.63,3.48 -3.61,3.41 -3.58,3.33 -3.55,3.26 -3.50,3.20 -3.45,3.14 -3.30,3.06 -3.15,2.97 -3.05,2.96 -2.94,2.95 -2.84,2.98 -2.74,3.00 -2.65,3.06 -2.56,3.12 -2.49,3.20 -2.42,3.28 -2.38,3.38 -2.35,3.48 -2.34,3.59 -2.34,3.69 -2.37,3.79 -2.40,3.90 -2.46,3.98 -2.52,4.07 -2.61,4.13 -2.69,4.19 -2.79,4.23 -2.89,4.26 -3.00,4.26 -3.11,4.25 -3.21,4.22 -3.31,4.18 -3.39,4.12 -3.47,4.05 -3.53,3.96 -3.59,3.87 -3.62,3.77 -3.64,3.67 -3.64,3.56 -3.63,3.46 -3.59,3.36 -3.55,3.26 -3.48,3.18 -3.41,3.10 -3.31,3.05 -3.22,2.99 -3.12,2.97 -3.01,2.95 -2.91,2.97 -2.80,2.98 -2.71,3.03 -2.61,3.07 -2.54,3.15 -2.46,3.22 -2.41,3.32 -2.36,3.41 -2.35,3.52 -2.33,3.62 -2.35,3.73 -2.37,3.83 -2.42,3.92 -2.47,4.02 -2.55,4.09 -2.63,4.16 -2.58,4.12 -2.53,4.08 -2.59,4.13 -2.66,4.18 -2.73,4.21 -2.80,4.24 -2.88,4.25 -2.96,4.26 -3.04,4.26 -3.12,4.25 -3.19,4.23 -3.27,4.20 -3.33,4.16 -3.40,4.12 -3.46,4.06 -3.51,4.01 -3.55,3.94 -3.59,3.87 -3.61,3.79 -3.64,3.72 -3.64,3.64 -3.64,3.56 -3.63,3.48 -3.61,3.41 -3.58,3.33 -3.55,3.26 -3.50,3.20 -3.45,3.14 -3.26,1.81 -3.08,0.49 -1.83,-0.47 -0.58,-1.45 1.18,-1.03 2.94,-0.61 4.07,1.29 5.20,3.20 5.45,5.81 5.71,8.42 4.90,10.32 4.09,12.23 2.64,13.49 1.19,14.75 -0.53,14.49 -2.26,14.22 -3.58,12.20 -4.89,10.18 -5.50,8.13 -6.12,6.07 -6.02,4.42 -5.93,2.78 -5.56,1.76 -5.19,0.74 -4.61,0.31 -4.03,-0.11 -3.35,-0.37 -2.68,-0.63 -2.11,-0.64 -1.54,-0.65 -0.90,-0.71 -0.26,-0.78 -0.16,-0.80 -0.06,-0.82 0.03,-0.81 0.13,-0.81 0.22,-0.78 0.32,-0.75 0.40,-0.70 0.49,-0.65 0.56,-0.59 0.63,-0.52 0.69,-0.43 0.74,-0.35 0.77,-0.25 0.80,-0.16 0.81,-0.06 0.82,0.03 0.80,0.13 0.79,0.23 0.75,0.32 0.71,0.41 0.65,0.49 0.59,0.57 0.51,0.63 0.44,0.69 0.35,0.74 0.26,0.78 0.26,0.78 L 0.26,0.78 Z"></path></g><g transform="translate(462.2628251420616 104.75646566010857) rotate(0 13.547043149416595 9.378706279482714)" stroke="none"><path fill="#1e1e1e" d="M -0.11,-0.78 Q -0.11,-0.78 1.24,-1.23 2.60,-1.69 3.51,-1.96 4.42,-2.23 5.54,-2.37 6.67,-2.51 8.36,-2.57 10.05,-2.62 11.75,-2.65 13.46,-2.67 15.06,-2.48 16.67,-2.28 17.48,-1.89 18.28,-1.50 18.61,-0.20 18.94,1.10 18.13,2.19 17.32,3.29 16.00,4.61 14.69,5.94 13.34,7.30 11.99,8.67 10.61,10.04 9.24,11.42 7.81,12.64 6.39,13.86 5.17,14.78 3.95,15.70 3.54,16.19 3.13,16.67 3.12,17.21 3.11,17.75 4.02,18.09 4.92,18.42 5.50,18.53 6.08,18.63 8.55,18.09 11.02,17.55 14.12,16.72 17.23,15.90 19.98,15.22 22.73,14.54 24.51,14.62 26.29,14.70 26.40,14.71 26.50,14.71 26.60,14.75 26.70,14.79 26.78,14.86 26.86,14.93 26.92,15.02 26.97,15.11 26.99,15.22 27.01,15.32 27.00,15.43 26.99,15.53 26.94,15.63 26.90,15.73 26.83,15.80 26.75,15.88 26.66,15.93 26.56,15.98 26.46,15.99 26.35,16.01 26.25,15.99 26.15,15.97 26.05,15.92 25.96,15.87 25.89,15.80 25.81,15.72 25.77,15.62 25.72,15.53 25.71,15.42 25.70,15.31 25.73,15.21 25.75,15.11 25.81,15.02 25.86,14.93 25.94,14.86 26.02,14.79 26.12,14.75 26.22,14.71 26.33,14.71 26.43,14.70 26.54,14.73 26.64,14.76 26.73,14.82 26.81,14.88 26.88,14.96 26.94,15.05 26.97,15.15 27.01,15.25 27.01,15.36 27.01,15.46 26.97,15.56 26.94,15.67 26.87,15.75 26.81,15.83 26.72,15.89 26.63,15.95 26.53,15.98 26.43,16.01 26.43,16.01 26.43,16.01 24.89,16.43 23.36,16.84 20.63,17.67 17.91,18.49 14.72,19.32 11.53,20.15 8.58,20.68 5.64,21.21 4.75,21.02 3.86,20.83 2.94,20.38 2.01,19.94 1.31,19.03 0.61,18.12 0.42,17.50 0.22,16.89 0.67,15.92 1.13,14.94 1.73,14.26 2.32,13.58 3.48,12.69 4.63,11.81 5.98,10.66 7.32,9.51 8.69,8.13 10.07,6.76 11.42,5.40 12.77,4.04 14.07,2.73 15.36,1.42 15.85,0.88 16.34,0.33 14.92,0.14 13.49,-0.03 11.81,-0.01 10.13,0.00 8.55,0.04 6.98,0.09 6.06,0.19 5.14,0.29 4.06,0.59 2.98,0.89 1.54,0.83 0.11,0.78 0.01,0.78 -0.07,0.78 -0.17,0.76 -0.26,0.74 -0.35,0.70 -0.43,0.66 -0.50,0.59 -0.58,0.53 -0.63,0.45 -0.69,0.38 -0.72,0.29 -0.76,0.20 -0.77,0.11 -0.79,0.01 -0.78,-0.07 -0.77,-0.17 -0.73,-0.26 -0.70,-0.35 -0.65,-0.43 -0.60,-0.51 -0.53,-0.57 -0.46,-0.64 -0.37,-0.68 -0.29,-0.73 -0.20,-0.75 -0.11,-0.78 -0.11,-0.78 L -0.11,-0.78 Z"></path></g><g transform="translate(471.98894980553473 108.23004526647446) rotate(0 10.073431741285503 -0.3473547804600514)" stroke="none"><path fill="#1e1e1e" d="M 0,-1.34 Q 0,-1.34 4.99,-1.34 9.98,-1.34 12.66,-1.46 15.34,-1.57 17.29,-1.43 19.25,-1.29 19.35,-1.28 19.46,-1.27 19.56,-1.23 19.65,-1.18 19.73,-1.11 19.81,-1.04 19.86,-0.94 19.91,-0.85 19.93,-0.75 19.95,-0.64 19.93,-0.54 19.91,-0.43 19.86,-0.34 19.82,-0.24 19.74,-0.17 19.66,-0.10 19.57,-0.05 19.47,-0.01 19.37,0.00 19.26,0.01 19.16,-0.00 19.05,-0.02 18.96,-0.08 18.87,-0.13 18.80,-0.21 18.73,-0.29 18.69,-0.39 18.65,-0.49 18.64,-0.60 18.64,-0.70 18.66,-0.80 18.69,-0.91 18.75,-1.00 18.81,-1.08 18.89,-1.15 18.98,-1.21 19.08,-1.25 19.18,-1.28 19.28,-1.28 19.39,-1.29 19.49,-1.25 19.59,-1.22 19.68,-1.16 19.76,-1.09 19.82,-1.00 19.88,-0.92 19.91,-0.81 19.94,-0.71 19.94,-0.61 19.93,-0.50 19.89,-0.40 19.86,-0.30 19.79,-0.22 19.72,-0.14 19.63,-0.08 19.54,-0.03 19.43,-0.00 19.33,0.01 19.33,0.01 19.33,0.01 17.42,0.39 15.51,0.77 12.75,1.06 9.98,1.34 4.99,1.34 0,1.34 -0.16,1.32 -0.32,1.30 -0.47,1.25 -0.62,1.19 -0.75,1.10 -0.89,1.00 -1.00,0.88 -1.10,0.76 -1.18,0.62 -1.26,0.47 -1.29,0.32 -1.33,0.16 -1.33,-0.00 -1.33,-0.16 -1.29,-0.32 -1.25,-0.47 -1.18,-0.62 -1.10,-0.76 -1.00,-0.88 -0.89,-1.00 -0.75,-1.10 -0.62,-1.19 -0.47,-1.25 -0.32,-1.30 -0.16,-1.32 0.00,-1.34 0.00,-1.34 L 0,-1.34 Z"></path></g><g transform="translate(257.15331321624524 18.983610028615942) rotate(0 1.7483178777167154 6.643748794450758)" stroke="none"><path fill="#1e1e1e" d="M 0.33,0.66 Q 0.33,0.66 0.04,1.08 -0.24,1.50 -1.14,2.10 -2.04,2.70 -2.76,3.31 -3.49,3.92 -3.82,4.51 -4.16,5.11 -4.20,5.83 -4.25,6.55 -4.28,7.67 -4.30,8.80 -4.35,9.61 -4.39,10.41 -3.92,10.88 -3.44,11.35 -1.63,11.82 0.17,12.29 1.53,12.42 2.89,12.55 4.07,12.62 5.26,12.68 6.83,13.00 8.40,13.31 8.50,13.33 8.61,13.35 8.70,13.40 8.79,13.45 8.86,13.53 8.94,13.61 8.98,13.71 9.02,13.80 9.03,13.91 9.04,14.02 9.01,14.12 8.99,14.22 8.93,14.31 8.87,14.40 8.79,14.47 8.71,14.54 8.61,14.57 8.51,14.61 8.40,14.61 8.30,14.62 8.20,14.59 8.09,14.55 8.01,14.49 7.92,14.43 7.86,14.35 7.80,14.26 7.76,14.16 7.73,14.06 7.74,13.95 7.74,13.84 7.77,13.74 7.81,13.64 7.88,13.56 7.94,13.48 8.03,13.42 8.12,13.36 8.22,13.34 8.33,13.31 8.43,13.32 8.54,13.33 8.64,13.37 8.74,13.41 8.81,13.48 8.89,13.55 8.95,13.64 9.00,13.74 9.02,13.84 9.04,13.95 9.03,14.05 9.01,14.16 8.97,14.25 8.92,14.35 8.84,14.42 8.77,14.50 8.67,14.54 8.58,14.59 8.47,14.61 8.37,14.62 8.37,14.62 8.37,14.62 6.75,14.86 5.13,15.10 3.89,15.04 2.64,14.99 1.13,14.83 -0.37,14.67 -1.99,14.27 -3.61,13.88 -4.46,13.39 -5.31,12.90 -6.03,11.81 -6.75,10.71 -6.77,9.72 -6.79,8.74 -6.76,7.55 -6.73,6.35 -6.65,5.40 -6.56,4.44 -6.26,3.65 -5.96,2.85 -5.55,2.45 -5.15,2.05 -4.73,1.67 -4.31,1.30 -3.80,0.92 -3.29,0.53 -2.80,0.26 -2.30,-0.01 -1.83,-0.35 -1.35,-0.69 -0.84,-0.68 -0.33,-0.66 -0.24,-0.69 -0.16,-0.72 -0.07,-0.73 0.01,-0.74 0.10,-0.73 0.19,-0.72 0.27,-0.68 0.36,-0.65 0.43,-0.60 0.50,-0.54 0.56,-0.48 0.62,-0.41 0.66,-0.33 0.70,-0.25 0.72,-0.16 0.74,-0.07 0.74,0.01 0.73,0.10 0.71,0.19 0.69,0.27 0.64,0.35 0.60,0.43 0.54,0.50 0.48,0.56 0.40,0.61 0.33,0.66 0.33,0.66 L 0.33,0.66 Z"></path></g><g transform="translate(256.45394764903295 206.40785163610826) rotate(0 0.6993335537742666 1.7483658978737537)" stroke="none"><path fill="#1e1e1e" d="M 0.17,0.69 Q 0.17,0.69 -0.55,1.17 -1.29,1.66 -1.94,1.90 -2.59,2.15 -3.10,2.74 -3.60,3.33 -4.04,3.96 -4.48,4.59 -4.84,5.38 -5.19,6.18 -5.33,7.01 -5.46,7.84 -5.33,8.66 -5.21,9.48 -4.84,10.09 -4.48,10.69 -3.39,10.51 -2.30,10.32 -1.42,8.67 -0.54,7.02 0.50,4.87 1.54,2.72 2.36,0.79 3.19,-1.13 3.72,-2.71 4.24,-4.30 4.45,-5.51 4.65,-6.71 4.97,-7.75 5.29,-8.79 5.87,-9.71 6.46,-10.62 6.19,-11.19 5.92,-11.76 5.95,-11.92 5.97,-12.08 6.03,-12.23 6.10,-12.38 6.19,-12.51 6.29,-12.64 6.41,-12.75 6.54,-12.85 6.69,-12.92 6.83,-12.99 6.99,-13.02 7.15,-13.06 7.31,-13.05 7.48,-13.05 7.63,-13.00 7.79,-12.96 7.93,-12.88 8.07,-12.80 8.19,-12.69 8.31,-12.57 8.40,-12.44 8.49,-12.30 8.54,-12.15 8.59,-11.99 8.61,-11.83 8.62,-11.67 8.29,-10.32 7.96,-8.98 7.66,-7.71 7.36,-6.45 7.45,-5.30 7.54,-4.14 7.36,-2.46 7.19,-0.78 7.12,0.65 7.05,2.08 7.02,3.69 6.99,5.30 6.95,6.99 6.92,8.68 6.85,10.21 6.78,11.73 6.52,13.51 6.25,15.29 6.23,15.40 6.21,15.50 6.16,15.60 6.11,15.69 6.04,15.76 5.96,15.84 5.86,15.88 5.77,15.93 5.66,15.94 5.55,15.95 5.45,15.93 5.35,15.90 5.26,15.85 5.17,15.79 5.10,15.71 5.03,15.63 4.99,15.53 4.95,15.43 4.94,15.33 4.94,15.22 4.97,15.12 5.00,15.02 5.06,14.93 5.12,14.84 5.20,14.78 5.28,14.71 5.39,14.68 5.49,14.65 5.59,14.65 5.70,14.65 5.80,14.68 5.90,14.71 5.98,14.78 6.07,14.84 6.13,14.93 6.19,15.02 6.22,15.12 6.24,15.22 6.24,15.33 6.23,15.44 6.19,15.53 6.15,15.63 6.08,15.71 6.02,15.79 5.92,15.85 5.83,15.90 5.73,15.93 5.63,15.95 5.52,15.94 5.41,15.93 5.32,15.88 5.22,15.84 5.14,15.76 5.07,15.69 5.02,15.60 4.97,15.50 4.95,15.40 4.93,15.29 4.93,15.29 4.93,15.29 4.67,13.51 4.41,11.72 4.35,10.19 4.30,8.66 4.29,6.96 4.28,5.25 4.31,3.60 4.34,1.95 4.42,0.43 4.49,-1.07 4.66,-2.54 4.83,-4.00 4.77,-5.53 4.71,-7.05 5.01,-8.31 5.31,-9.56 5.62,-10.66 5.92,-11.76 5.95,-11.92 5.97,-12.08 6.03,-12.23 6.10,-12.38 6.19,-12.51 6.29,-12.64 6.41,-12.75 6.54,-12.85 6.69,-12.92 6.83,-12.99 6.99,-13.02 7.15,-13.06 7.31,-13.05 7.48,-13.05 7.63,-13.00 7.79,-12.96 7.93,-12.88 8.07,-12.80 8.19,-12.69 8.31,-12.57 8.40,-12.44 8.49,-12.30 8.54,-12.15 8.59,-11.99 8.61,-11.83 8.62,-11.67 8.64,-11.85 8.65,-12.04 8.70,-10.70 8.75,-9.36 8.27,-8.66 7.79,-7.97 7.51,-7.10 7.22,-6.23 6.94,-4.85 6.67,-3.47 6.06,-1.80 5.46,-0.13 4.58,1.81 3.69,3.76 2.60,6.00 1.52,8.23 0.22,10.28 -1.07,12.33 -2.55,12.92 -4.02,13.51 -5.34,12.76 -6.65,12.00 -7.19,10.93 -7.74,9.86 -7.87,8.64 -7.99,7.42 -7.77,6.27 -7.55,5.12 -7.07,4.11 -6.60,3.09 -6.02,2.30 -5.45,1.51 -4.52,0.65 -3.60,-0.20 -2.76,-0.53 -1.92,-0.85 -1.04,-0.77 -0.17,-0.69 -0.08,-0.70 -0.00,-0.71 0.08,-0.70 0.16,-0.69 0.24,-0.66 0.33,-0.63 0.40,-0.58 0.47,-0.53 0.53,-0.47 0.58,-0.40 0.62,-0.33 0.66,-0.25 0.68,-0.17 0.71,-0.08 0.71,-0.00 0.71,0.08 0.69,0.16 0.67,0.25 0.63,0.32 0.59,0.40 0.53,0.46 0.47,0.53 0.40,0.58 0.33,0.63 0.25,0.66 0.17,0.69 0.17,0.69 L 0.17,0.69 Z"></path></g><g transform="translate(128.29681462193264 30.094287554738457) rotate(0 5.504268819529614 8.084405163213603)" stroke="none"><path fill="#1e1e1e" d="M 0.52,-1.09 Q 0.52,-1.09 3.46,0.15 6.39,1.40 7.81,2.08 9.23,2.77 10.33,3.11 11.44,3.46 12.28,3.89 13.12,4.31 13.56,4.76 14.00,5.20 14.16,5.94 14.31,6.68 14.17,7.30 14.02,7.93 13.70,8.36 13.39,8.79 12.27,9.39 11.15,10.00 10.13,10.33 9.12,10.67 8.37,11.13 7.63,11.59 6.86,12.24 6.08,12.89 5.35,13.56 4.61,14.24 3.86,14.86 3.10,15.48 2.33,15.99 1.55,16.49 -0.56,16.46 -2.67,16.43 -2.75,16.36 -2.83,16.29 -2.89,16.19 -2.94,16.10 -2.96,16.00 -2.98,15.89 -2.97,15.79 -2.96,15.68 -2.91,15.59 -2.86,15.49 -2.79,15.42 -2.72,15.34 -2.62,15.29 -2.53,15.24 -2.42,15.23 -2.32,15.21 -2.21,15.23 -2.11,15.25 -2.01,15.30 -1.92,15.35 -1.85,15.43 -1.78,15.51 -1.73,15.60 -1.69,15.70 -1.68,15.81 -1.67,15.91 -1.69,16.02 -1.72,16.12 -1.78,16.21 -1.83,16.30 -1.91,16.37 -1.99,16.44 -2.09,16.47 -2.19,16.51 -2.30,16.52 -2.41,16.52 -2.51,16.49 -2.61,16.46 -2.70,16.40 -2.78,16.34 -2.85,16.25 -2.91,16.17 -2.94,16.07 -2.97,15.97 -2.97,15.86 -2.97,15.75 -2.94,15.65 -2.90,15.55 -2.84,15.47 -2.77,15.38 -2.68,15.33 -2.59,15.27 -2.49,15.24 -2.39,15.21 -2.28,15.22 -2.18,15.23 -2.08,15.27 -1.98,15.31 -1.98,15.31 -1.98,15.31 -1.07,14.56 -0.16,13.81 0.46,13.42 1.08,13.02 1.78,12.46 2.47,11.89 3.27,11.16 4.07,10.43 5.05,9.65 6.02,8.86 7.07,8.27 8.13,7.67 9.01,7.39 9.89,7.10 10.70,6.49 11.51,5.89 11.56,6.44 11.62,6.98 11.05,6.68 10.48,6.38 9.19,5.95 7.90,5.51 6.49,4.82 5.07,4.13 2.27,2.61 -0.52,1.09 -0.65,1.01 -0.77,0.93 -0.87,0.83 -0.97,0.72 -1.05,0.59 -1.12,0.46 -1.16,0.32 -1.20,0.18 -1.20,0.04 -1.21,-0.10 -1.18,-0.24 -1.15,-0.39 -1.08,-0.52 -1.02,-0.65 -0.93,-0.77 -0.83,-0.88 -0.71,-0.97 -0.60,-1.05 -0.46,-1.11 -0.33,-1.17 -0.18,-1.19 -0.04,-1.21 0.10,-1.20 0.25,-1.19 0.39,-1.14 0.52,-1.09 0.52,-1.09 L 0.52,-1.09 Z"></path></g><g transform="translate(124.16860907032179 53.143445716468534) rotate(0 8.772436797173015 1.5480770818540606)" stroke="none"><path fill="#1e1e1e" d="M 0.49,-0.61 Q 0.49,-0.61 1.71,-0.11 2.92,0.38 3.49,0.61 4.05,0.85 4.59,0.93 5.12,1.01 5.91,1.17 6.70,1.33 7.44,1.38 8.18,1.43 9.77,1.48 11.36,1.53 12.15,1.56 12.95,1.58 14.80,1.87 16.66,2.15 16.77,2.16 16.87,2.17 16.97,2.21 17.07,2.26 17.14,2.33 17.22,2.40 17.27,2.49 17.32,2.59 17.34,2.69 17.36,2.80 17.35,2.90 17.33,3.01 17.28,3.10 17.24,3.19 17.16,3.27 17.08,3.34 16.99,3.39 16.89,3.44 16.79,3.45 16.68,3.46 16.58,3.44 16.47,3.42 16.38,3.37 16.29,3.31 16.22,3.23 16.15,3.15 16.11,3.06 16.07,2.96 16.06,2.85 16.05,2.75 16.08,2.64 16.11,2.54 16.16,2.45 16.22,2.36 16.31,2.30 16.39,2.23 16.49,2.20 16.59,2.16 16.70,2.16 16.80,2.16 16.90,2.19 17.00,2.22 17.09,2.28 17.18,2.35 17.24,2.43 17.30,2.52 17.33,2.62 17.36,2.72 17.35,2.83 17.35,2.94 17.31,3.04 17.27,3.14 17.21,3.22 17.14,3.30 17.05,3.36 16.96,3.41 16.86,3.44 16.75,3.46 16.75,3.46 16.75,3.46 14.83,4.01 12.90,4.56 12.10,4.56 11.31,4.56 9.62,4.56 7.93,4.55 7.01,4.47 6.09,4.38 5.29,4.22 4.50,4.06 3.63,3.85 2.76,3.65 1.89,3.21 1.03,2.78 0.26,1.70 -0.49,0.61 -0.56,0.55 -0.62,0.48 -0.67,0.40 -0.72,0.31 -0.75,0.22 -0.78,0.13 -0.78,0.03 -0.79,-0.05 -0.77,-0.14 -0.75,-0.24 -0.71,-0.33 -0.67,-0.41 -0.61,-0.49 -0.55,-0.56 -0.47,-0.62 -0.40,-0.68 -0.31,-0.72 -0.22,-0.75 -0.13,-0.77 -0.03,-0.79 0.05,-0.78 0.15,-0.77 0.24,-0.74 0.33,-0.71 0.41,-0.66 0.49,-0.61 0.49,-0.61 L 0.49,-0.61 Z"></path></g><g transform="translate(149.62586614001896 41.446852821668244) rotate(0 7.052345901383674 0.1720138139352514)" stroke="none"><path fill="#1e1e1e" d="M -0.62,-0.62 Q -0.62,-0.62 -0.09,-1.47 0.44,-2.32 1.22,-3.12 2.00,-3.92 3.28,-4.92 4.57,-5.92 6.20,-7.04 7.84,-8.16 9.03,-8.93 10.22,-9.70 11.26,-10.11 12.29,-10.52 12.67,-10.56 13.04,-10.61 13.21,-10.65 13.38,-10.69 13.56,-10.68 13.74,-10.68 13.91,-10.64 14.08,-10.59 14.24,-10.51 14.39,-10.42 14.52,-10.30 14.65,-10.18 14.75,-10.03 14.85,-9.89 14.91,-9.72 14.97,-9.55 14.99,-9.38 15.00,-9.20 14.98,-9.03 14.96,-8.85 14.89,-8.69 14.82,-8.52 14.72,-8.38 14.62,-8.24 14.48,-8.12 14.35,-8.01 14.19,-7.93 14.03,-7.85 14.49,-7.53 14.95,-7.21 14.52,-5.79 14.08,-4.38 13.63,-2.81 13.18,-1.24 12.59,0.73 11.99,2.70 11.55,4.31 11.10,5.92 10.78,7.64 10.45,9.37 10.47,9.48 10.49,9.58 10.48,9.69 10.46,9.79 10.41,9.89 10.37,9.98 10.29,10.06 10.21,10.13 10.12,10.18 10.02,10.22 9.92,10.24 9.81,10.25 9.71,10.23 9.60,10.21 9.51,10.15 9.42,10.10 9.35,10.02 9.28,9.94 9.24,9.84 9.20,9.75 9.19,9.64 9.18,9.53 9.21,9.43 9.24,9.33 9.29,9.24 9.35,9.15 9.43,9.08 9.52,9.02 9.62,8.98 9.72,8.95 9.82,8.94 9.93,8.94 10.03,8.98 10.13,9.01 10.22,9.07 10.30,9.13 10.37,9.22 10.43,9.31 10.46,9.41 10.49,9.51 10.48,9.62 10.48,9.72 10.44,9.82 10.40,9.92 10.34,10.00 10.27,10.09 10.18,10.14 10.09,10.20 9.99,10.22 9.88,10.25 9.78,10.24 9.67,10.23 9.57,10.19 9.48,10.14 9.40,10.07 9.32,10.00 9.27,9.91 9.22,9.81 9.22,9.81 9.22,9.81 8.66,7.45 8.11,5.09 8.57,3.44 9.02,1.80 9.62,-0.15 10.22,-2.11 10.71,-3.74 11.20,-5.36 11.59,-6.36 11.97,-7.35 12.51,-8.98 13.04,-10.61 13.21,-10.65 13.38,-10.69 13.56,-10.68 13.74,-10.68 13.91,-10.64 14.08,-10.59 14.24,-10.51 14.39,-10.42 14.52,-10.30 14.65,-10.18 14.75,-10.03 14.85,-9.89 14.91,-9.72 14.97,-9.55 14.99,-9.38 15.00,-9.20 14.98,-9.03 14.96,-8.85 14.89,-8.69 14.82,-8.52 14.72,-8.38 14.62,-8.24 14.48,-8.12 14.35,-8.01 14.19,-7.93 14.03,-7.85 13.64,-7.81 13.26,-7.78 12.50,-7.55 11.74,-7.31 10.58,-6.57 9.41,-5.82 7.83,-4.76 6.25,-3.71 5.08,-2.85 3.92,-1.99 3.12,-1.22 2.32,-0.44 1.47,0.09 0.62,0.62 0.54,0.69 0.45,0.75 0.36,0.80 0.26,0.84 0.15,0.86 0.05,0.88 -0.05,0.87 -0.15,0.87 -0.26,0.83 -0.36,0.80 -0.45,0.75 -0.54,0.69 -0.62,0.62 -0.69,0.54 -0.75,0.45 -0.80,0.36 -0.83,0.26 -0.87,0.15 -0.87,0.05 -0.88,-0.05 -0.86,-0.15 -0.84,-0.26 -0.80,-0.36 -0.75,-0.45 -0.69,-0.54 -0.62,-0.62 -0.62,-0.62 L -0.62,-0.62 Z"></path></g><g transform="translate(127.26476323402991 179.39774266846925) rotate(0 6.880332087448423 7.396357781399772)" stroke="none"><path fill="#1e1e1e" d="M 0.18,-0.75 Q 0.18,-0.75 1.05,-0.84 1.91,-0.93 2.65,-0.89 3.38,-0.85 4.63,-0.73 5.89,-0.61 7.23,-0.24 8.58,0.12 9.76,0.59 10.95,1.06 11.55,1.42 12.15,1.78 13.06,2.99 13.97,4.20 14.35,5.22 14.74,6.24 14.72,7.31 14.69,8.38 14.38,9.08 14.07,9.78 13.53,10.29 13.00,10.81 12.40,10.99 11.81,11.18 10.54,11.50 9.27,11.83 8.59,12.25 7.91,12.67 7.06,13.18 6.21,13.68 5.53,14.23 4.86,14.78 3.31,14.89 1.75,15.00 1.68,15.04 1.62,15.08 1.54,15.11 1.47,15.13 1.39,15.14 1.31,15.14 1.23,15.13 1.15,15.12 1.08,15.09 1.01,15.05 0.94,15.01 0.88,14.96 0.83,14.90 0.78,14.84 0.75,14.76 0.72,14.69 0.70,14.61 0.68,14.54 0.69,14.46 0.69,14.38 0.71,14.30 0.74,14.23 0.78,14.16 0.82,14.09 0.87,14.03 0.93,13.98 0.94,13.97 0.95,13.96 1.05,13.91 1.14,13.86 1.24,13.85 1.35,13.83 1.45,13.85 1.56,13.87 1.65,13.92 1.75,13.97 1.82,14.05 1.89,14.13 1.93,14.23 1.98,14.32 1.98,14.43 1.99,14.53 1.97,14.64 1.95,14.74 1.89,14.83 1.83,14.92 1.75,14.99 1.67,15.06 1.57,15.09 1.47,15.13 1.36,15.14 1.26,15.14 1.16,15.11 1.05,15.08 0.97,15.02 0.88,14.96 0.82,14.87 0.75,14.79 0.72,14.69 0.69,14.58 0.69,14.48 0.69,14.37 0.73,14.27 0.76,14.17 0.83,14.09 0.90,14.00 0.98,13.95 1.07,13.89 1.18,13.86 1.28,13.83 1.38,13.84 1.49,13.85 1.59,13.89 1.69,13.93 1.77,14.00 1.85,14.07 1.90,14.16 1.95,14.26 1.97,14.36 2.00,14.46 1.98,14.57 1.97,14.67 1.92,14.77 1.88,14.87 1.81,14.93 1.75,15.00 1.68,15.04 1.62,15.08 1.54,15.11 1.47,15.13 1.39,15.14 1.31,15.14 1.23,15.13 1.15,15.12 1.08,15.09 1.01,15.05 0.94,15.01 0.88,14.96 0.83,14.90 0.78,14.84 0.75,14.76 0.72,14.69 0.70,14.61 0.68,14.54 0.69,14.46 0.69,14.38 0.71,14.30 0.74,14.23 0.78,14.16 0.82,14.09 0.87,14.03 0.93,13.98 1.90,13.14 2.88,12.30 3.73,11.62 4.58,10.95 5.45,10.44 6.31,9.93 7.35,9.35 8.38,8.78 9.25,8.53 10.12,8.29 10.74,8.27 11.37,8.24 11.63,7.69 11.89,7.13 11.69,6.50 11.49,5.87 10.66,4.84 9.84,3.80 8.80,3.38 7.76,2.95 6.66,2.62 5.56,2.28 4.33,2.13 3.10,1.98 2.17,1.85 1.25,1.72 0.53,1.24 -0.18,0.75 -0.27,0.72 -0.36,0.68 -0.44,0.63 -0.51,0.58 -0.58,0.51 -0.64,0.44 -0.68,0.35 -0.73,0.27 -0.75,0.18 -0.77,0.09 -0.77,-0.00 -0.77,-0.09 -0.75,-0.18 -0.72,-0.27 -0.68,-0.36 -0.64,-0.44 -0.57,-0.51 -0.51,-0.58 -0.43,-0.63 -0.36,-0.69 -0.27,-0.72 -0.18,-0.75 -0.09,-0.76 0.00,-0.77 0.09,-0.76 0.18,-0.75 0.18,-0.75 L 0.18,-0.75 Z"></path></g><g transform="translate(127.26476323402991 205.1990273660369) rotate(0 8.772436797173015 -0.6880395078866002)" stroke="none"><path fill="#1e1e1e" d="M -0.30,-0.72 Q -0.30,-0.72 0.26,-1.29 0.84,-1.86 1.76,-2.18 2.68,-2.50 3.71,-2.51 4.74,-2.52 5.94,-2.52 7.14,-2.51 8.60,-2.40 10.06,-2.30 10.84,-2.26 11.63,-2.21 14.30,-1.76 16.97,-1.31 17.08,-1.30 17.18,-1.29 17.28,-1.24 17.37,-1.20 17.45,-1.12 17.53,-1.05 17.58,-0.96 17.63,-0.86 17.65,-0.76 17.66,-0.65 17.65,-0.55 17.63,-0.44 17.58,-0.35 17.53,-0.26 17.46,-0.18 17.38,-0.11 17.28,-0.07 17.19,-0.02 17.08,-0.01 16.97,-0.00 16.87,-0.02 16.77,-0.04 16.68,-0.10 16.58,-0.15 16.52,-0.23 16.45,-0.31 16.41,-0.41 16.37,-0.51 16.36,-0.62 16.36,-0.72 16.38,-0.82 16.41,-0.93 16.47,-1.01 16.53,-1.10 16.61,-1.17 16.70,-1.23 16.80,-1.27 16.90,-1.30 17.01,-1.30 17.11,-1.30 17.21,-1.27 17.31,-1.23 17.40,-1.17 17.48,-1.11 17.54,-1.02 17.60,-0.93 17.63,-0.83 17.66,-0.73 17.66,-0.62 17.65,-0.51 17.61,-0.41 17.57,-0.32 17.50,-0.23 17.43,-0.15 17.34,-0.10 17.25,-0.04 17.15,-0.02 17.05,-0.00 17.05,-0.00 17.05,-0.00 14.25,0.35 11.46,0.70 10.65,0.66 9.84,0.61 8.48,0.51 7.11,0.40 5.86,0.38 4.61,0.36 4.06,0.28 3.51,0.20 2.71,0.44 1.92,0.67 1.11,0.69 0.30,0.72 0.21,0.74 0.12,0.77 0.03,0.77 -0.06,0.78 -0.15,0.76 -0.24,0.74 -0.33,0.70 -0.41,0.66 -0.49,0.60 -0.56,0.54 -0.62,0.46 -0.67,0.39 -0.71,0.30 -0.75,0.22 -0.76,0.12 -0.78,0.03 -0.77,-0.06 -0.76,-0.15 -0.74,-0.24 -0.71,-0.33 -0.65,-0.41 -0.60,-0.49 -0.54,-0.56 -0.47,-0.62 -0.39,-0.67 -0.30,-0.72 -0.30,-0.72 L -0.30,-0.72 Z"></path></g><g transform="translate(160.29040764691652 192.4703830833339) rotate(0 4.8162293116430135 2.236116589740675)" stroke="none"><path fill="#1e1e1e" d="M -0.41,-0.62 Q -0.41,-0.62 1.13,-2.15 2.68,-3.68 4.28,-4.94 5.87,-6.20 6.71,-6.79 7.55,-7.37 8.29,-7.70 9.02,-8.03 9.19,-8.12 9.36,-8.20 9.54,-8.25 9.73,-8.30 9.92,-8.30 10.11,-8.29 10.29,-8.25 10.48,-8.20 10.65,-8.11 10.81,-8.03 10.96,-7.90 11.10,-7.77 11.21,-7.62 11.32,-7.46 11.38,-7.28 11.45,-7.10 11.47,-6.92 11.50,-6.73 11.47,-6.54 11.45,-6.35 11.38,-6.17 11.31,-5.99 11.21,-5.84 11.10,-5.68 10.96,-5.55 10.81,-5.43 11.33,-5.61 11.85,-5.79 11.56,-4.16 11.27,-2.53 10.74,-0.67 10.21,1.18 9.59,3.25 8.96,5.32 8.50,6.88 8.04,8.44 7.44,9.77 6.83,11.10 6.82,11.20 6.81,11.31 6.76,11.40 6.72,11.50 6.64,11.58 6.57,11.65 6.48,11.70 6.38,11.75 6.28,11.77 6.17,11.78 6.07,11.76 5.96,11.75 5.87,11.70 5.77,11.64 5.70,11.57 5.63,11.49 5.59,11.39 5.54,11.30 5.53,11.19 5.52,11.08 5.55,10.98 5.57,10.88 5.63,10.79 5.68,10.70 5.76,10.63 5.84,10.56 5.94,10.52 6.04,10.48 6.15,10.48 6.25,10.47 6.36,10.50 6.46,10.53 6.55,10.59 6.63,10.65 6.70,10.74 6.76,10.82 6.79,10.93 6.83,11.03 6.83,11.13 6.82,11.24 6.79,11.34 6.75,11.44 6.69,11.52 6.62,11.61 6.54,11.67 6.45,11.72 6.34,11.75 6.24,11.78 6.14,11.77 6.03,11.77 5.93,11.73 5.83,11.69 5.75,11.62 5.67,11.55 5.62,11.45 5.57,11.36 5.54,11.26 5.52,11.16 5.52,11.16 5.52,11.16 5.26,9.35 5.00,7.55 5.47,5.98 5.93,4.41 6.54,2.35 7.16,0.30 7.68,-1.48 8.20,-3.27 8.52,-4.17 8.84,-5.06 8.93,-6.55 9.02,-8.03 9.19,-8.12 9.36,-8.20 9.54,-8.25 9.73,-8.30 9.92,-8.30 10.11,-8.29 10.29,-8.25 10.48,-8.20 10.65,-8.12 10.81,-8.03 10.96,-7.90 11.10,-7.77 11.21,-7.62 11.32,-7.46 11.38,-7.28 11.45,-7.10 11.47,-6.92 11.50,-6.73 11.47,-6.54 11.45,-6.35 11.38,-6.17 11.31,-5.99 11.21,-5.84 11.10,-5.68 10.96,-5.55 10.81,-5.43 10.08,-5.09 9.34,-4.76 8.58,-4.24 7.83,-3.72 6.13,-2.39 4.43,-1.06 2.42,-0.21 0.41,0.62 0.33,0.66 0.25,0.70 0.16,0.72 0.07,0.74 -0.01,0.74 -0.10,0.74 -0.18,0.71 -0.27,0.69 -0.35,0.65 -0.43,0.60 -0.50,0.54 -0.56,0.48 -0.61,0.41 -0.66,0.33 -0.69,0.25 -0.72,0.16 -0.73,0.07 -0.74,-0.01 -0.73,-0.10 -0.72,-0.19 -0.69,-0.27 -0.65,-0.35 -0.60,-0.43 -0.55,-0.50 -0.48,-0.56 -0.41,-0.62 -0.41,-0.62 L -0.41,-0.62 Z"></path></g><g transform="translate(313.7220368165493 108.53019303534415) rotate(0 6.192308327416214 7.224359715318954)" stroke="none"><path fill="#1e1e1e" d="M 0.62,-1.25 Q 0.62,-1.25 1.64,-0.81 2.65,-0.37 3.33,-0.08 4.01,0.20 4.65,0.41 5.29,0.62 6.12,1.07 6.95,1.52 7.87,2.10 8.80,2.68 9.48,3.11 10.16,3.55 10.81,3.91 11.45,4.26 11.98,4.49 12.51,4.72 13.06,5.16 13.61,5.60 13.76,6.88 13.91,8.17 13.21,8.82 12.51,9.48 11.88,9.84 11.24,10.20 10.39,10.65 9.53,11.09 8.70,11.56 7.88,12.03 6.72,12.48 5.57,12.93 4.96,13.33 4.35,13.73 2.18,14.05 0.02,14.37 -0.05,14.40 -0.12,14.43 -0.20,14.45 -0.27,14.46 -0.35,14.46 -0.43,14.46 -0.51,14.43 -0.58,14.41 -0.65,14.37 -0.72,14.33 -0.78,14.28 -0.83,14.22 -0.88,14.16 -0.92,14.09 -0.94,14.01 -0.97,13.94 -0.97,13.86 -0.98,13.78 -0.97,13.70 -0.95,13.62 -0.92,13.55 -0.89,13.48 -0.84,13.42 -0.80,13.35 -0.73,13.30 -0.67,13.25 -0.83,13.52 -0.98,13.78 -0.96,13.68 -0.94,13.57 -0.88,13.48 -0.83,13.39 -0.75,13.32 -0.67,13.25 -0.57,13.21 -0.47,13.17 -0.37,13.16 -0.26,13.16 -0.16,13.18 -0.05,13.21 0.02,13.27 0.11,13.33 0.18,13.41 0.24,13.50 0.28,13.60 0.31,13.70 0.31,13.80 0.32,13.91 0.28,14.01 0.25,14.11 0.19,14.20 0.12,14.28 0.04,14.34 -0.04,14.40 -0.14,14.43 -0.25,14.46 -0.35,14.46 -0.46,14.45 -0.56,14.41 -0.66,14.38 -0.74,14.31 -0.82,14.24 -0.88,14.15 -0.93,14.06 -0.96,13.95 -0.98,13.85 -0.97,13.75 -0.96,13.64 -0.91,13.54 -0.87,13.45 -0.80,13.37 -0.73,13.29 -0.63,13.24 -0.54,13.19 -0.43,13.17 -0.33,13.15 -0.23,13.17 -0.12,13.18 -0.03,13.23 0.06,13.28 0.13,13.36 0.21,13.44 0.25,13.53 0.30,13.63 0.16,14.00 0.02,14.37 -0.05,14.40 -0.12,14.43 -0.20,14.45 -0.27,14.46 -0.35,14.46 -0.43,14.46 -0.51,14.43 -0.58,14.41 -0.65,14.37 -0.72,14.33 -0.78,14.28 -0.83,14.22 -0.88,14.16 -0.92,14.09 -0.94,14.01 -0.97,13.94 -0.97,13.86 -0.98,13.78 -0.97,13.70 -0.95,13.62 -0.92,13.55 -0.89,13.48 -0.84,13.42 -0.80,13.35 -0.73,13.30 -0.67,13.25 0.99,12.14 2.65,11.02 3.54,10.49 4.42,9.95 5.37,9.60 6.32,9.25 7.19,8.76 8.06,8.26 8.87,7.84 9.68,7.42 10.17,7.15 10.67,6.88 11.23,6.58 11.79,6.28 11.50,6.92 11.20,7.56 10.56,7.27 9.92,6.98 9.20,6.57 8.47,6.15 7.81,5.72 7.15,5.28 6.29,4.73 5.44,4.18 4.88,3.85 4.33,3.51 3.57,3.26 2.80,3.00 2.05,2.67 1.29,2.34 0.33,1.80 -0.62,1.25 -0.76,1.16 -0.90,1.06 -1.02,0.94 -1.13,0.81 -1.22,0.67 -1.30,0.52 -1.34,0.35 -1.38,0.19 -1.39,0.02 -1.39,-0.14 -1.35,-0.30 -1.32,-0.47 -1.24,-0.62 -1.16,-0.77 -1.06,-0.90 -0.95,-1.03 -0.81,-1.13 -0.67,-1.22 -0.51,-1.29 -0.36,-1.35 -0.19,-1.37 -0.02,-1.40 0.14,-1.38 0.30,-1.36 0.46,-1.31 0.62,-1.25 0.62,-1.25 L 0.62,-1.25 Z"></path></g><g transform="translate(314.0660644444198 131.92336307709033) rotate(0 7.396357781399786 1.8920968357973607)" stroke="none"><path fill="#1e1e1e" d="M 0.89,0 Q 0.89,0 0.91,0.13 0.92,0.27 1.63,0.33 2.33,0.39 3.26,0.38 4.18,0.38 6.37,0.55 8.55,0.72 9.58,0.79 10.60,0.87 12.64,1.94 14.67,3.02 14.76,3.08 14.85,3.13 14.92,3.22 14.99,3.30 15.03,3.40 15.07,3.49 15.07,3.60 15.08,3.71 15.05,3.81 15.02,3.91 14.96,4.00 14.90,4.09 14.81,4.15 14.73,4.21 14.63,4.25 14.53,4.28 14.42,4.28 14.31,4.28 14.21,4.24 14.11,4.21 14.03,4.15 13.95,4.08 13.89,3.99 13.83,3.90 13.80,3.80 13.77,3.70 13.78,3.59 13.78,3.49 13.82,3.39 13.86,3.29 13.93,3.21 14.00,3.13 14.09,3.07 14.18,3.02 14.29,3.00 14.39,2.98 14.50,2.99 14.60,3.00 14.70,3.05 14.80,3.09 14.87,3.16 14.95,3.24 15.00,3.33 15.05,3.43 15.06,3.53 15.08,3.64 15.06,3.74 15.05,3.85 15.00,3.94 14.94,4.03 14.87,4.11 14.79,4.18 14.69,4.22 14.60,4.27 14.49,4.28 14.38,4.29 14.28,4.26 14.18,4.24 14.18,4.24 14.18,4.24 12.31,4.01 10.44,3.79 9.41,3.76 8.39,3.73 6.22,3.66 4.05,3.59 2.63,3.48 1.22,3.38 0.14,2.74 -0.92,2.09 -0.91,1.04 -0.89,0 -0.88,-0.10 -0.86,-0.21 -0.83,-0.31 -0.79,-0.41 -0.73,-0.50 -0.66,-0.59 -0.58,-0.66 -0.50,-0.73 -0.41,-0.78 -0.31,-0.83 -0.21,-0.86 -0.10,-0.88 0.00,-0.88 0.10,-0.88 0.21,-0.86 0.31,-0.83 0.41,-0.78 0.50,-0.73 0.58,-0.66 0.66,-0.59 0.73,-0.50 0.79,-0.41 0.83,-0.31 0.86,-0.21 0.88,-0.10 0.89,0.00 0.89,0.00 L 0.89,0 Z"></path></g><g transform="translate(338.4912701262142 119.19473454224175) rotate(0 5.6762826334648935 1.0320435139754807)" stroke="none"><path fill="#1e1e1e" d="M -0.72,-0.82 Q -0.72,-0.82 0.05,-1.72 0.84,-2.63 2.64,-4.00 4.44,-5.37 5.41,-6.05 6.37,-6.73 7.29,-7.32 8.21,-7.92 8.89,-8.26 9.57,-8.61 9.72,-8.68 9.88,-8.76 10.05,-8.79 10.22,-8.83 10.39,-8.82 10.56,-8.82 10.73,-8.77 10.90,-8.73 11.05,-8.64 11.20,-8.55 11.33,-8.44 11.45,-8.32 11.55,-8.17 11.64,-8.03 11.70,-7.86 11.75,-7.70 11.77,-7.52 11.78,-7.35 11.76,-7.18 11.73,-7.01 11.66,-6.85 11.60,-6.69 11.49,-6.55 11.39,-6.41 11.26,-6.30 11.12,-6.19 11.12,-5.04 11.12,-3.89 10.46,-2.55 9.80,-1.20 9.15,0.19 8.50,1.60 7.84,3.26 7.18,4.92 6.59,7.19 6.01,9.46 6.03,9.56 6.05,9.67 6.04,9.77 6.02,9.88 5.98,9.97 5.93,10.07 5.86,10.14 5.78,10.22 5.69,10.27 5.59,10.32 5.49,10.33 5.38,10.35 5.28,10.33 5.17,10.31 5.08,10.26 4.99,10.21 4.92,10.13 4.84,10.05 4.80,9.96 4.76,9.86 4.75,9.75 4.74,9.65 4.76,9.54 4.79,9.44 4.84,9.35 4.90,9.26 4.98,9.19 5.06,9.13 5.16,9.09 5.26,9.05 5.37,9.04 5.47,9.04 5.57,9.07 5.68,9.10 5.76,9.16 5.85,9.22 5.91,9.31 5.98,9.39 6.01,9.49 6.04,9.60 6.04,9.70 6.04,9.81 6.00,9.91 5.97,10.01 5.90,10.09 5.84,10.18 5.75,10.23 5.66,10.29 5.56,10.32 5.45,10.35 5.35,10.34 5.24,10.33 5.14,10.29 5.05,10.25 4.97,10.18 4.89,10.11 4.83,10.02 4.78,9.93 4.78,9.93 4.78,9.93 4.61,6.88 4.44,3.83 5.13,2.10 5.83,0.37 6.50,-1.07 7.16,-2.51 7.75,-3.68 8.34,-4.86 8.60,-5.50 8.87,-6.15 9.22,-7.38 9.57,-8.61 9.72,-8.68 9.88,-8.76 10.05,-8.79 10.22,-8.83 10.39,-8.82 10.56,-8.82 10.73,-8.77 10.90,-8.73 11.05,-8.64 11.20,-8.55 11.33,-8.44 11.45,-8.32 11.54,-8.17 11.64,-8.03 11.70,-7.86 11.75,-7.70 11.77,-7.53 11.78,-7.35 11.76,-7.18 11.73,-7.01 11.66,-6.85 11.60,-6.69 11.49,-6.55 11.39,-6.41 11.26,-6.30 11.12,-6.19 10.45,-5.85 9.77,-5.50 8.89,-4.94 8.02,-4.38 7.09,-3.73 6.16,-3.08 4.44,-1.80 2.71,-0.53 1.72,0.14 0.72,0.82 0.62,0.89 0.51,0.97 0.38,1.01 0.26,1.06 0.13,1.08 0.00,1.09 -0.12,1.08 -0.26,1.06 -0.38,1.02 -0.50,0.97 -0.61,0.89 -0.72,0.82 -0.81,0.72 -0.90,0.62 -0.96,0.50 -1.02,0.39 -1.05,0.26 -1.09,0.13 -1.09,0.00 -1.09,-0.13 -1.05,-0.25 -1.02,-0.38 -0.96,-0.50 -0.90,-0.62 -0.81,-0.72 -0.72,-0.82 -0.72,-0.82 L -0.72,-0.82 Z"></path></g></svg>