<svg version="1.1" xmlns="http://www.w3.org/2000/svg" viewBox="0 0 468.88056154768447 96.14268127951414" width="468.88056154768447" height="96.14268127951414" class="excalidraw-svg"><!-- svg-source:excalidraw --><metadata></metadata><defs><style class="style-fonts">
      </style></defs><rect x="0" y="0" width="468.88056154768447" height="96.14268127951414" fill="#ffffff"></rect><g stroke-linecap="round" transform="translate(64 18.809368291232886) rotate(0 32.66668701171875 33.666656494140625)"><path d="M16.33 0 C28.1 0.72, 40.57 1.62, 49 0 M16.33 0 C24.38 0.31, 31.98 -0.21, 49 0 M49 0 C61.78 1.46, 63.46 3.92, 65.33 16.33 M49 0 C58.05 0.56, 63.71 4.33, 65.33 16.33 M65.33 16.33 C64.81 27.26, 64.02 37.46, 65.33 51 M65.33 16.33 C66.11 26.82, 66.07 35.34, 65.33 51 M65.33 51 C64.79 59.9, 61.44 65.42, 49 67.33 M65.33 51 C63.84 62.11, 61.5 66.56, 49 67.33 M49 67.33 C40.22 66.99, 34.59 67.45, 16.33 67.33 M49 67.33 C39.82 67.06, 30.08 67.8, 16.33 67.33 M16.33 67.33 C6.44 67.64, 1.43 60.95, 0 51 M16.33 67.33 C6.17 68.35, 1.52 62.59, 0 51 M0 51 C0.21 39.21, -0.95 24.61, 0 16.33 M0 51 C-1.08 39.8, -0.43 29.76, 0 16.33 M0 16.33 C-1.72 6.98, 4.02 -0.89, 16.33 0 M0 16.33 C-0.06 6.46, 4.23 2.2, 16.33 0" stroke="#1e1e1e" stroke-width="2" fill="none"></path></g><g stroke-linecap="round"><g transform="translate(39.3333740234375 36.142681279514136) rotate(0 11.666656494140625 0)"><path d="M0.3 0.01 C4.24 0.16, 19.74 0.41, 23.62 0.42 M-0.22 -0.46 C3.69 -0.41, 19.4 -0.53, 23.34 -0.33" stroke="#1e1e1e" stroke-width="2" fill="none"></path></g></g><mask></mask><g stroke-linecap="round"><g transform="translate(39.3333740234375 67.47602478537351) rotate(0 12 0)"><path d="M-0.35 0.48 C3.56 0.5, 19.8 -0.27, 23.86 -0.4 M0.48 0.26 C4.26 0.37, 19.48 0.11, 23.36 0.1" stroke="#1e1e1e" stroke-width="2" fill="none"></path></g></g><mask></mask><g transform="translate(22 26.142681279514136) rotate(0 -2.33331298828125 7.0000152587890625)" stroke="none"><path fill="#1e1e1e" d="M -0.40,0.60 Q -0.40,0.60 -1.05,0.45 -1.70,0.31 -2.39,0.42 -3.08,0.54 -4.04,1.06 -4.99,1.59 -5.90,2.45 -6.81,3.30 -7.12,5.00 -7.43,6.69 -7.25,8.63 -7.08,10.57 -6.59,11.32 -6.10,12.06 -5.24,11.93 -4.38,11.81 -3.33,10.02 -2.29,8.23 -1.61,6.19 -0.92,4.14 -0.43,2.47 0.06,0.80 0.25,-0.22 0.45,-1.25 0.34,-1.93 0.22,-2.60 0.27,-2.75 0.32,-2.89 0.40,-3.02 0.48,-3.15 0.59,-3.26 0.70,-3.37 0.83,-3.45 0.97,-3.52 1.11,-3.57 1.26,-3.61 1.42,-3.62 1.57,-3.63 1.72,-3.60 1.87,-3.57 2.01,-3.50 2.15,-3.44 2.27,-3.34 2.39,-3.24 2.48,-3.12 2.58,-3.00 2.64,-2.86 2.70,-2.72 2.72,-2.56 2.75,-2.41 2.74,-2.26 2.73,-2.10 2.39,-1.58 2.06,-1.06 2.07,-0.45 2.09,0.15 2.05,1.44 2.00,2.73 1.98,4.05 1.96,5.37 2.14,6.40 2.32,7.43 2.74,8.34 3.15,9.25 3.70,10.46 4.24,11.67 4.71,14.19 5.18,16.70 5.19,16.81 5.20,16.92 5.17,17.02 5.15,17.12 5.09,17.21 5.04,17.30 4.95,17.37 4.87,17.44 4.77,17.47 4.67,17.51 4.56,17.51 4.46,17.52 4.36,17.49 4.26,17.45 4.17,17.39 4.08,17.33 4.02,17.24 3.96,17.16 3.93,17.06 3.89,16.96 3.90,16.85 3.90,16.74 3.94,16.64 3.97,16.54 4.04,16.46 4.10,16.38 4.19,16.32 4.28,16.26 4.39,16.24 4.49,16.21 4.60,16.22 4.70,16.23 4.80,16.27 4.90,16.31 4.98,16.38 5.06,16.45 5.11,16.54 5.16,16.64 5.18,16.74 5.20,16.85 5.19,16.95 5.17,17.06 5.13,17.15 5.08,17.25 5.00,17.32 4.93,17.40 4.83,17.44 4.74,17.49 4.63,17.51 4.53,17.52 4.42,17.50 4.32,17.48 4.23,17.43 4.13,17.38 4.06,17.30 3.99,17.22 3.95,17.12 3.91,17.03 3.91,17.03 3.91,17.03 2.97,14.87 2.04,12.72 1.42,11.49 0.80,10.27 0.30,9.06 -0.20,7.85 -0.39,6.60 -0.58,5.34 -0.56,3.99 -0.55,2.64 -0.50,1.26 -0.46,-0.12 -0.12,-1.36 0.22,-2.60 0.27,-2.75 0.32,-2.89 0.40,-3.02 0.48,-3.15 0.59,-3.26 0.70,-3.37 0.83,-3.45 0.97,-3.52 1.11,-3.57 1.26,-3.61 1.42,-3.62 1.57,-3.63 1.72,-3.60 1.87,-3.57 2.01,-3.50 2.15,-3.44 2.27,-3.34 2.39,-3.24 2.48,-3.12 2.58,-3.00 2.64,-2.86 2.70,-2.72 2.72,-2.56 2.75,-2.41 2.74,-2.26 2.73,-2.10 2.81,-1.46 2.90,-0.82 2.66,0.35 2.42,1.52 1.89,3.23 1.36,4.94 0.53,7.25 -0.29,9.56 -1.90,11.68 -3.51,13.81 -5.29,13.89 -7.06,13.96 -8.26,12.47 -9.47,10.98 -9.67,8.57 -9.86,6.16 -9.26,3.92 -8.65,1.68 -7.39,0.51 -6.13,-0.66 -4.69,-1.31 -3.25,-1.96 -1.92,-1.90 -0.59,-1.84 -0.09,-1.22 0.40,-0.60 0.46,-0.54 0.53,-0.48 0.58,-0.41 0.63,-0.34 0.66,-0.26 0.69,-0.18 0.70,-0.09 0.72,-0.01 0.71,0.07 0.70,0.16 0.67,0.24 0.64,0.32 0.59,0.39 0.54,0.46 0.48,0.52 0.41,0.58 0.34,0.62 0.26,0.67 0.18,0.69 0.09,0.71 0.01,0.71 -0.07,0.71 -0.16,0.69 -0.24,0.67 -0.32,0.63 -0.40,0.60 -0.40,0.60 L -0.40,0.60 Z"></path></g><g transform="translate(18.66668701171875 54.809368291232886) rotate(0 -4.333343505859375 12.333328247070312)" stroke="none"><path fill="#1e1e1e" d="M 0.42,0.63 Q 0.42,0.63 0.00,1.14 -0.40,1.65 -0.64,2.55 -0.88,3.45 -1.80,6.21 -2.73,8.97 -3.32,10.72 -3.91,12.47 -4.33,14.31 -4.76,16.15 -5.35,18.14 -5.95,20.12 -6.86,22.05 -7.76,23.97 -7.81,24.07 -7.86,24.16 -7.93,24.24 -8.01,24.31 -8.10,24.36 -8.20,24.41 -8.30,24.42 -8.41,24.43 -8.51,24.41 -8.62,24.39 -8.71,24.34 -8.80,24.29 -8.87,24.21 -8.94,24.13 -8.98,24.03 -9.03,23.94 -9.03,23.83 -9.04,23.72 -9.02,23.62 -8.99,23.52 -8.93,23.43 -8.88,23.34 -8.79,23.27 -8.71,23.21 -8.61,23.17 -8.51,23.13 -8.40,23.13 -8.30,23.13 -8.20,23.16 -8.10,23.19 -8.01,23.25 -7.92,23.31 -7.86,23.40 -7.80,23.49 -7.77,23.59 -7.74,23.69 -7.74,23.80 -7.74,23.90 -7.78,24.00 -7.82,24.10 -7.88,24.19 -7.95,24.27 -8.04,24.33 -8.13,24.38 -8.23,24.41 -8.34,24.43 -8.44,24.42 -8.55,24.42 -8.65,24.37 -8.74,24.33 -8.82,24.26 -8.90,24.19 -8.95,24.10 -9.01,24.00 -9.03,23.90 -9.04,23.79 -9.03,23.69 -9.02,23.58 -9.02,23.58 -9.02,23.58 -8.68,21.50 -8.35,19.42 -7.80,17.49 -7.25,15.57 -6.78,13.61 -6.32,11.66 -5.71,9.90 -5.11,8.15 -4.13,5.35 -3.16,2.56 -2.52,1.22 -1.89,-0.12 -1.15,-0.37 -0.42,-0.63 -0.33,-0.67 -0.25,-0.71 -0.16,-0.73 -0.07,-0.75 0.01,-0.75 0.10,-0.75 0.19,-0.72 0.28,-0.70 0.36,-0.66 0.44,-0.61 0.50,-0.55 0.57,-0.49 0.62,-0.41 0.67,-0.34 0.70,-0.25 0.73,-0.16 0.74,-0.07 0.75,0.01 0.74,0.10 0.73,0.19 0.69,0.27 0.66,0.36 0.61,0.43 0.55,0.51 0.48,0.57 0.42,0.63 0.42,0.63 L 0.42,0.63 Z"></path></g><g transform="translate(21.3333740234375 66.80936829123289) rotate(0 -4.0000152587890625 8.333328247070312)" stroke="none"><path fill="#1e1e1e" d="M 0.18,0.72 Q 0.18,0.72 -0.53,1.10 -1.24,1.49 -2.00,1.93 -2.76,2.37 -3.19,2.84 -3.61,3.31 -4.53,4.96 -5.45,6.61 -5.81,8.54 -6.18,10.46 -6.21,12.07 -6.24,13.68 -5.15,13.62 -4.07,13.55 -3.60,13.13 -3.14,12.72 -2.63,10.24 -2.13,7.76 -2.06,6.13 -1.99,4.51 -3.18,4.75 -4.38,5.00 -4.43,4.95 -4.49,4.89 -4.54,4.83 -4.58,4.76 -4.61,4.69 -4.64,4.61 -4.65,4.54 -4.66,4.46 -4.65,4.38 -4.64,4.30 -4.61,4.23 -4.58,4.15 -4.53,4.09 -4.49,4.02 -4.43,3.97 -4.37,3.92 -4.30,3.88 -4.23,3.85 -4.15,3.83 -4.07,3.81 -4.00,3.81 -3.92,3.81 -3.84,3.83 -3.76,3.85 -3.69,3.89 -3.62,3.92 -3.50,4.29 -3.37,4.66 -3.42,4.75 -3.47,4.85 -3.54,4.92 -3.62,5.00 -3.72,5.04 -3.81,5.09 -3.92,5.10 -4.02,5.12 -4.13,5.10 -4.23,5.08 -4.32,5.02 -4.41,4.97 -4.48,4.89 -4.55,4.81 -4.60,4.71 -4.64,4.62 -4.65,4.51 -4.65,4.40 -4.63,4.30 -4.60,4.20 -4.54,4.11 -4.48,4.02 -4.40,3.95 -4.32,3.89 -4.22,3.85 -4.12,3.82 -4.01,3.81 -3.91,3.81 -3.80,3.84 -3.70,3.88 -3.62,3.94 -3.53,4.00 -3.47,4.09 -3.41,4.17 -3.38,4.28 -3.35,4.38 -3.35,4.48 -3.36,4.59 -3.39,4.69 -3.43,4.79 -3.50,4.87 -3.56,4.95 -3.65,5.01 -3.74,5.07 -3.85,5.09 -3.95,5.12 -4.06,5.11 -4.16,5.10 -4.26,5.06 -4.36,5.01 -4.44,4.94 -4.51,4.87 -4.57,4.78 -4.62,4.68 -4.64,4.58 -4.66,4.47 -4.52,4.74 -4.38,5.00 -4.43,4.95 -4.49,4.89 -4.54,4.83 -4.58,4.76 -4.61,4.69 -4.64,4.62 -4.65,4.54 -4.66,4.46 -4.65,4.38 -4.64,4.30 -4.61,4.23 -4.58,4.15 -4.53,4.09 -4.49,4.02 -4.43,3.97 -4.37,3.92 -4.30,3.88 -4.23,3.85 -4.15,3.83 -4.07,3.81 -4.00,3.81 -3.92,3.81 -3.84,3.83 -3.76,3.85 -3.69,3.89 -3.62,3.92 -2.74,2.66 -1.87,1.41 -0.96,2.02 -0.05,2.64 0.17,3.63 0.39,4.61 0.28,6.46 0.17,8.31 -0.64,11.29 -1.46,14.28 -2.31,15.00 -3.16,15.72 -4.51,16.11 -5.86,16.50 -7.16,15.33 -8.45,14.17 -8.49,12.08 -8.54,9.99 -8.05,7.72 -7.56,5.45 -6.45,3.54 -5.34,1.63 -4.62,0.94 -3.90,0.25 -2.86,-0.23 -1.81,-0.73 -0.99,-0.72 -0.18,-0.72 -0.09,-0.73 -0.00,-0.74 0.08,-0.73 0.17,-0.72 0.25,-0.69 0.34,-0.65 0.41,-0.60 0.49,-0.55 0.55,-0.49 0.61,-0.42 0.65,-0.34 0.69,-0.26 0.71,-0.17 0.73,-0.09 0.73,-0.00 0.73,0.08 0.71,0.17 0.69,0.26 0.65,0.34 0.61,0.42 0.55,0.48 0.49,0.55 0.42,0.60 0.34,0.65 0.26,0.68 0.18,0.72 0.18,0.72 L 0.18,0.72 Z"></path></g><g transform="translate(207.3333740234375 22.142681279514136) rotate(0 -2.3333740234375 8.66668701171875)" stroke="none"><path fill="#1e1e1e" d="M -0.23,0.69 Q -0.23,0.69 -0.75,0.75 -1.27,0.81 -1.93,1.28 -2.59,1.75 -3.24,2.41 -3.89,3.08 -4.51,4.22 -5.13,5.37 -5.37,6.67 -5.62,7.98 -5.18,9.92 -4.74,11.85 -4.05,13.38 -3.36,14.90 -2.32,15.63 -1.27,16.35 0.33,16.78 1.93,17.22 2.04,17.26 2.14,17.29 2.22,17.35 2.31,17.41 2.37,17.50 2.43,17.59 2.46,17.69 2.49,17.79 2.48,17.90 2.48,18.00 2.44,18.10 2.41,18.20 2.34,18.28 2.27,18.37 2.18,18.42 2.09,18.48 1.99,18.50 1.88,18.53 1.78,18.52 1.67,18.51 1.57,18.46 1.48,18.42 1.40,18.35 1.32,18.28 1.27,18.18 1.22,18.09 1.20,17.99 1.18,17.88 1.20,17.78 1.21,17.67 1.26,17.58 1.31,17.48 1.38,17.41 1.46,17.33 1.56,17.29 1.65,17.24 1.76,17.23 1.86,17.22 1.97,17.24 2.07,17.26 2.16,17.31 2.26,17.37 2.33,17.45 2.40,17.53 2.44,17.62 2.48,17.72 2.48,17.83 2.49,17.93 2.46,18.04 2.44,18.14 2.38,18.23 2.32,18.32 2.24,18.38 2.15,18.45 2.05,18.48 1.95,18.52 1.85,18.52 1.74,18.52 1.74,18.52 1.74,18.52 -0.38,18.40 -2.51,18.29 -4.03,17.19 -5.55,16.09 -6.39,14.23 -7.23,12.37 -7.67,9.96 -8.12,7.55 -7.75,5.84 -7.38,4.14 -6.54,2.70 -5.70,1.25 -4.72,0.35 -3.75,-0.54 -2.38,-1.06 -1.02,-1.58 -0.39,-1.13 0.23,-0.69 0.31,-0.65 0.39,-0.61 0.45,-0.56 0.52,-0.50 0.58,-0.43 0.63,-0.36 0.66,-0.28 0.70,-0.20 0.71,-0.11 0.73,-0.02 0.72,0.05 0.71,0.14 0.68,0.22 0.66,0.31 0.61,0.38 0.56,0.46 0.50,0.52 0.44,0.58 0.36,0.62 0.28,0.67 0.20,0.69 0.11,0.72 0.02,0.72 -0.05,0.73 -0.14,0.71 -0.23,0.69 -0.23,0.69 L -0.23,0.69 Z"></path></g><g transform="translate(79.3333740234375 37.47602478537351) rotate(0 6.6666259765625 6.3333282470703125)" stroke="none"><path fill="#1e1e1e" d="M 0.43,-0.60 Q 0.43,-0.60 1.88,0.19 3.33,1.00 4.11,1.61 4.90,2.23 5.43,2.69 5.96,3.15 6.62,3.45 7.29,3.74 8.42,3.85 9.56,3.95 10.46,4.01 11.37,4.07 12.13,4.10 12.89,4.12 13.49,4.17 14.09,4.21 14.23,4.35 14.36,4.50 14.51,4.52 14.65,4.54 14.78,4.59 14.92,4.65 15.04,4.73 15.16,4.82 15.25,4.93 15.34,5.04 15.41,5.17 15.47,5.30 15.50,5.44 15.54,5.59 15.53,5.73 15.53,5.88 15.49,6.02 15.45,6.16 15.38,6.29 15.31,6.41 15.21,6.52 15.11,6.63 14.99,6.71 14.87,6.79 14.73,6.84 14.59,6.88 14.45,6.90 14.30,6.91 13.85,7.43 13.40,7.94 12.62,8.45 11.85,8.95 11.19,9.51 10.53,10.07 9.79,10.57 9.04,11.06 8.33,11.47 7.62,11.88 6.46,12.28 5.29,12.68 4.05,13.03 2.80,13.39 0.95,13.33 -0.90,13.28 -1.00,13.27 -1.11,13.26 -1.21,13.22 -1.31,13.19 -1.39,13.12 -1.47,13.05 -1.52,12.96 -1.58,12.87 -1.60,12.76 -1.62,12.66 -1.61,12.55 -1.60,12.45 -1.56,12.35 -1.51,12.25 -1.44,12.18 -1.36,12.10 -1.27,12.05 -1.18,12.00 -1.07,11.98 -0.97,11.97 -0.86,11.98 -0.76,12.00 -0.66,12.05 -0.57,12.10 -0.50,12.18 -0.42,12.25 -0.38,12.35 -0.33,12.45 -0.32,12.55 -0.31,12.66 -0.34,12.76 -0.36,12.87 -0.41,12.96 -0.47,13.05 -0.55,13.12 -0.63,13.19 -0.73,13.23 -0.83,13.26 -0.93,13.27 -1.04,13.28 -1.14,13.25 -1.24,13.22 -1.33,13.16 -1.42,13.10 -1.48,13.01 -1.55,12.93 -1.58,12.83 -1.62,12.73 -1.62,12.62 -1.62,12.52 -1.58,12.42 -1.55,12.31 -1.48,12.23 -1.42,12.15 -1.33,12.09 -1.24,12.03 -1.14,12.00 -1.04,11.97 -1.04,11.97 -1.04,11.97 0.53,11.45 2.11,10.93 3.30,10.59 4.48,10.26 5.43,9.96 6.37,9.65 7.01,9.29 7.66,8.94 8.29,8.54 8.92,8.14 9.70,7.49 10.48,6.85 11.69,6.10 12.90,5.35 13.63,4.92 14.36,4.50 14.51,4.52 14.65,4.54 14.78,4.59 14.92,4.65 15.04,4.73 15.16,4.82 15.25,4.93 15.34,5.04 15.41,5.17 15.47,5.30 15.50,5.44 15.54,5.59 15.53,5.73 15.53,5.88 15.49,6.02 15.45,6.16 15.38,6.29 15.31,6.41 15.21,6.52 15.11,6.63 14.99,6.71 14.87,6.79 14.73,6.84 14.59,6.88 14.45,6.90 14.30,6.91 13.55,6.68 12.80,6.45 12.00,6.41 11.20,6.38 10.23,6.30 9.27,6.23 7.81,6.01 6.35,5.78 5.43,5.32 4.51,4.85 4.01,4.42 3.51,3.99 2.77,3.41 2.03,2.82 0.79,1.71 -0.43,0.60 -0.49,0.54 -0.56,0.48 -0.61,0.41 -0.66,0.33 -0.69,0.25 -0.72,0.16 -0.73,0.07 -0.74,-0.01 -0.73,-0.10 -0.72,-0.19 -0.68,-0.27 -0.65,-0.35 -0.60,-0.43 -0.54,-0.50 -0.48,-0.56 -0.41,-0.62 -0.33,-0.66 -0.25,-0.70 -0.16,-0.72 -0.07,-0.74 0.01,-0.73 0.10,-0.73 0.18,-0.71 0.27,-0.69 0.35,-0.64 0.43,-0.60 0.43,-0.60 L 0.43,-0.60 Z"></path></g><g transform="translate(78.66668701171875 58.142681279514136) rotate(0 8 1.6666717529296875)" stroke="none"><path fill="#1e1e1e" d="M 0.50,-0.67 Q 0.50,-0.67 1.38,-0.25 2.26,0.16 3.06,0.54 3.86,0.91 5.10,1.25 6.33,1.58 7.88,1.52 9.43,1.46 12.33,1.17 15.23,0.88 15.34,0.86 15.44,0.85 15.55,0.87 15.65,0.89 15.74,0.94 15.84,0.99 15.91,1.07 15.98,1.15 16.02,1.25 16.06,1.35 16.07,1.45 16.08,1.56 16.05,1.66 16.03,1.76 15.97,1.85 15.91,1.94 15.83,2.01 15.75,2.08 15.65,2.11 15.55,2.15 15.44,2.15 15.33,2.15 15.23,2.12 15.13,2.09 15.05,2.03 14.96,1.97 14.90,1.88 14.84,1.79 14.80,1.69 14.77,1.59 14.78,1.49 14.78,1.38 14.82,1.28 14.85,1.18 14.92,1.10 14.99,1.01 15.07,0.96 15.16,0.90 15.27,0.87 15.37,0.85 15.48,0.86 15.58,0.87 15.68,0.91 15.78,0.95 15.86,1.02 15.94,1.09 15.99,1.18 16.04,1.28 16.06,1.38 16.08,1.49 16.07,1.59 16.05,1.70 16.00,1.79 15.96,1.89 15.88,1.96 15.81,2.04 15.71,2.08 15.62,2.13 15.62,2.13 15.62,2.13 12.55,3.04 9.48,3.95 7.59,3.96 5.69,3.96 4.25,3.54 2.80,3.12 1.80,2.62 0.80,2.13 0.14,1.40 -0.50,0.67 -0.57,0.60 -0.64,0.53 -0.70,0.44 -0.75,0.35 -0.78,0.26 -0.82,0.16 -0.82,0.06 -0.83,-0.03 -0.82,-0.13 -0.80,-0.23 -0.76,-0.32 -0.72,-0.41 -0.66,-0.49 -0.60,-0.57 -0.52,-0.64 -0.44,-0.70 -0.35,-0.75 -0.26,-0.79 -0.16,-0.81 -0.06,-0.83 0.03,-0.83 0.13,-0.82 0.23,-0.79 0.32,-0.77 0.41,-0.72 0.50,-0.67 0.50,-0.67 L 0.50,-0.67 Z"></path></g><g transform="translate(104.66668701171875 50.142681279514136) rotate(0 5 6.333343505859375)" stroke="none"><path fill="#1e1e1e" d="M 0.56,-0.56 Q 0.56,-0.56 0.51,-0.67 0.45,-0.77 1.38,-1.34 2.32,-1.91 3.44,-2.32 4.55,-2.72 5.74,-3.26 6.92,-3.80 8.05,-4.24 9.17,-4.68 9.65,-5.00 10.12,-5.32 10.95,-5.18 11.79,-5.05 12.17,-4.49 12.55,-3.94 12.03,-1.93 11.52,0.06 10.92,2.25 10.32,4.43 9.67,6.72 9.03,9.01 8.36,11.15 7.70,13.29 6.85,15.14 5.99,17.00 5.97,17.10 5.95,17.20 5.90,17.30 5.85,17.39 5.77,17.46 5.69,17.53 5.60,17.58 5.50,17.62 5.39,17.63 5.29,17.64 5.18,17.62 5.08,17.59 4.99,17.54 4.90,17.48 4.83,17.40 4.77,17.31 4.73,17.22 4.69,17.12 4.69,17.01 4.68,16.90 4.71,16.80 4.74,16.70 4.80,16.61 4.86,16.53 4.95,16.46 5.04,16.40 5.14,16.37 5.24,16.34 5.34,16.34 5.45,16.34 5.55,16.37 5.65,16.41 5.73,16.48 5.82,16.54 5.88,16.63 5.93,16.72 5.96,16.82 5.99,16.92 5.98,17.03 5.97,17.14 5.93,17.23 5.89,17.33 5.82,17.41 5.75,17.49 5.66,17.55 5.57,17.60 5.46,17.62 5.36,17.64 5.25,17.63 5.15,17.62 5.05,17.57 4.96,17.52 4.88,17.45 4.80,17.37 4.76,17.28 4.71,17.19 4.69,17.08 4.68,16.97 4.68,16.97 4.68,16.98 4.79,14.70 4.90,12.42 5.55,10.32 6.20,8.22 6.84,5.94 7.49,3.65 8.11,1.40 8.74,-0.85 9.30,-2.09 9.86,-3.33 10.51,-3.11 11.15,-2.90 10.69,-2.48 10.24,-2.05 9.16,-1.63 8.09,-1.22 6.80,-0.65 5.52,-0.08 4.44,0.31 3.37,0.70 1.84,1.12 0.31,1.54 -0.12,1.05 -0.56,0.56 -0.62,0.49 -0.68,0.41 -0.72,0.32 -0.76,0.23 -0.78,0.14 -0.80,0.04 -0.79,-0.04 -0.79,-0.14 -0.76,-0.23 -0.73,-0.33 -0.68,-0.41 -0.63,-0.49 -0.56,-0.56 -0.49,-0.63 -0.41,-0.68 -0.33,-0.73 -0.23,-0.76 -0.14,-0.79 -0.04,-0.79 0.04,-0.80 0.14,-0.78 0.23,-0.76 0.32,-0.72 0.41,-0.68 0.49,-0.62 0.56,-0.56 0.56,-0.56 L 0.56,-0.56 Z"></path></g><g stroke-linecap="round" transform="translate(131.3333740234375 42.142681279514136) rotate(0 9.666656494140625 10.333343505859375)"><path d="M8.55 0.16 C10.56 -0.05, 13.99 0.88, 15.67 2.12 C17.34 3.36, 18.18 5.54, 18.61 7.6 C19.05 9.66, 19.12 12.48, 18.29 14.48 C17.46 16.48, 15.49 18.66, 13.64 19.6 C11.8 20.54, 9.2 20.64, 7.22 20.13 C5.24 19.62, 2.89 18.31, 1.77 16.54 C0.64 14.77, 0.37 11.77, 0.47 9.51 C0.58 7.25, 0.97 4.49, 2.41 2.96 C3.86 1.43, 7.91 0.74, 9.11 0.33 C10.32 -0.08, 9.73 0.31, 9.66 0.48 M10.37 0.39 C12.39 0.24, 15.51 1.07, 17.07 2.52 C18.64 3.97, 19.66 6.77, 19.75 9.09 C19.84 11.4, 18.78 14.45, 17.62 16.42 C16.46 18.39, 14.88 20.31, 12.79 20.91 C10.71 21.52, 7.03 21.16, 5.11 20.04 C3.2 18.92, 2.19 16.27, 1.3 14.19 C0.41 12.12, -0.73 9.6, -0.23 7.6 C0.27 5.59, 2.56 3.44, 4.31 2.18 C6.07 0.92, 9.16 0.33, 10.29 0.03 C11.42 -0.27, 11.14 0.22, 11.12 0.38" stroke="#1e1e1e" stroke-width="0.5" fill="none"></path></g><g stroke-linecap="round"><g transform="translate(156 50.809368291232886) rotate(0 44 -0.333343505859375)"><path d="M-1.1 -0.44 C13.71 -0.55, 73.34 -1.56, 88.07 -1.74 M0.52 -1.72 C15.26 -1.62, 72.28 -0.95, 87.16 -0.76" stroke="#1e1e1e" stroke-width="0.5" fill="none"></path></g></g><mask></mask><g stroke-linecap="round"><g transform="translate(274.66668701171875 28.142681279514136) rotate(0 -11.666656494140625 19.333343505859375)"><path d="M-0.8 -0.78 C-5.64 -1.09, -23.23 -8.32, -28 -1.41 C-32.77 5.5, -35.05 34.31, -29.42 40.67 C-23.78 47.03, 0.03 37.21, 5.81 36.74 M0.97 1.42 C-4.06 1.28, -23.4 -6.12, -28.59 0.09 C-33.79 6.3, -35.98 32.38, -30.22 38.68 C-24.47 44.98, -0.25 38.45, 5.96 37.88" stroke="#1e1e1e" stroke-width="0.5" fill="none"></path></g></g><mask></mask><g stroke-linecap="round" transform="translate(277.582844597285 10) rotate(0 35.03040270213464 36.87410810751015)"><path d="M17.52 0 C27.64 -1.9, 40.35 -1.94, 52.55 0 M17.52 0 C26.44 1.14, 36.57 1.06, 52.55 0 M52.55 0 C63.88 1.8, 71.65 4.74, 70.06 17.52 M52.55 0 C62.84 -1.61, 72.14 4.25, 70.06 17.52 M70.06 17.52 C69.49 33.44, 68.77 48.9, 70.06 56.23 M70.06 17.52 C69.04 26.22, 69.76 33.54, 70.06 56.23 M70.06 56.23 C70.16 67.77, 66.06 71.86, 52.55 73.75 M70.06 56.23 C70.73 68.17, 62.6 74.04, 52.55 73.75 M52.55 73.75 C43.49 75.34, 30.97 75.2, 17.52 73.75 M52.55 73.75 C37.98 74.5, 24.27 73.61, 17.52 73.75 M17.52 73.75 C6.63 73.07, -1.46 68.84, 0 56.23 M17.52 73.75 C5.96 75.21, 1.25 66.9, 0 56.23 M0 56.23 C-1.19 46.18, 0.33 33.95, 0 17.52 M0 56.23 C0.08 41.81, -0.07 26.8, 0 17.52 M0 17.52 C-0.77 4.91, 4.23 0.61, 17.52 0 M0 17.52 C-1.01 7.57, 5.85 1.85, 17.52 0" stroke="#1e1e1e" stroke-width="0.5" fill="none"></path></g><g stroke-linecap="round" transform="translate(347.64365000155425 36.42646289885687) rotate(0 7.989408845101792 8.911233415077675)"><path d="M7.49 -0.4 C9.12 -0.58, 11.63 0.43, 13.07 1.68 C14.52 2.93, 15.79 5.22, 16.18 7.08 C16.58 8.94, 16.32 11.17, 15.44 12.84 C14.55 14.51, 12.51 16.39, 10.88 17.09 C9.26 17.78, 7.32 17.62, 5.68 17 C4.04 16.38, 2.01 14.99, 1.05 13.36 C0.09 11.74, -0.38 9.16, -0.08 7.25 C0.22 5.34, 1.51 3.1, 2.85 1.89 C4.19 0.68, 7.1 0.21, 7.98 -0.03 C8.85 -0.26, 8.1 0.29, 8.08 0.49 M8.8 -0.28 C10.25 -0.34, 11.72 0.72, 12.97 2.06 C14.21 3.41, 16.02 5.78, 16.28 7.79 C16.53 9.8, 15.6 12.52, 14.5 14.12 C13.39 15.73, 11.29 16.91, 9.65 17.44 C8.02 17.96, 6.22 18.12, 4.7 17.29 C3.18 16.47, 1.27 14.25, 0.52 12.48 C-0.23 10.71, -0.25 8.55, 0.21 6.66 C0.66 4.77, 1.71 2.37, 3.22 1.16 C4.74 -0.04, 8.31 -0.42, 9.29 -0.56 C10.27 -0.71, 9.24 0.07, 9.09 0.29" stroke="#1e1e1e" stroke-width="0.5" fill="none"></path></g><g stroke-linecap="round"><g transform="translate(367.3098785025088 46.87410810751015) rotate(0 24.58272936076949 0.3072936117998779)"><path d="M0.04 -0.26 C8.27 -0.14, 40.87 0.59, 49.09 0.71 M-0.6 0.8 C7.57 0.74, 40.33 -0.23, 48.63 -0.2" stroke="#1e1e1e" stroke-width="0.5" fill="none"></path></g></g><mask></mask><g transform="translate(441.67262567570515 35.19731658436925) rotate(0 5.83840982792637 9.218527026877538)" stroke="none"><path fill="#1e1e1e" d="M 0,-0.81 Q 0,-0.81 2.29,-1.04 4.59,-1.28 5.92,-1.28 7.25,-1.29 8.16,-1.29 9.08,-1.29 9.68,-1.45 10.27,-1.61 11.40,-1.71 12.52,-1.81 13.31,-1.85 14.10,-1.90 14.26,-1.89 14.42,-1.88 14.57,-1.83 14.73,-1.79 14.87,-1.71 15.01,-1.63 15.12,-1.51 15.24,-1.40 15.32,-1.26 15.41,-1.13 15.46,-0.97 15.51,-0.82 15.52,-0.66 15.53,-0.50 15.50,-0.34 15.48,-0.18 15.41,-0.03 15.35,0.10 15.25,0.23 15.15,0.36 15.03,0.46 14.90,0.56 14.75,0.63 14.61,0.70 14.45,0.73 14.29,0.76 14.92,0.50 15.54,0.23 14.94,1.53 14.33,2.82 13.56,4.16 12.79,5.51 11.72,7.01 10.65,8.52 9.05,9.96 7.45,11.40 5.87,12.54 4.30,13.67 2.48,14.55 0.67,15.43 -0.16,15.92 -1.01,16.42 -1.39,16.80 -1.76,17.19 -0.02,17.24 1.71,17.29 3.63,17.21 5.54,17.12 7.13,17.09 8.71,17.06 10.61,17.42 12.51,17.78 12.62,17.80 12.72,17.81 12.82,17.86 12.91,17.91 12.98,17.99 13.06,18.06 13.10,18.16 13.15,18.25 13.16,18.36 13.17,18.47 13.15,18.57 13.13,18.67 13.08,18.76 13.02,18.86 12.94,18.93 12.86,19.00 12.76,19.04 12.66,19.08 12.56,19.08 12.45,19.09 12.35,19.06 12.25,19.03 12.16,18.98 12.07,18.92 12.01,18.83 11.94,18.75 11.91,18.65 11.87,18.55 11.87,18.44 11.87,18.34 11.90,18.23 11.93,18.13 12.00,18.05 12.06,17.96 12.15,17.90 12.24,17.84 12.34,17.81 12.44,17.78 12.55,17.79 12.65,17.79 12.75,17.83 12.85,17.87 12.93,17.94 13.01,18.01 13.07,18.10 13.13,18.19 13.15,18.29 13.17,18.39 13.16,18.50 13.15,18.61 13.11,18.70 13.06,18.80 12.99,18.88 12.92,18.95 12.83,19.01 12.73,19.06 12.63,19.07 12.52,19.09 12.52,19.09 12.52,19.09 10.64,19.50 8.76,19.90 7.21,19.93 5.65,19.96 3.50,20.03 1.36,20.09 -0.76,19.76 -2.89,19.42 -3.39,19.00 -3.88,18.58 -4.12,17.84 -4.36,17.10 -4.15,16.31 -3.95,15.51 -3.20,14.75 -2.46,13.98 -1.50,13.43 -0.54,12.87 1.05,12.12 2.65,11.36 4.11,10.32 5.57,9.27 6.97,8.07 8.36,6.86 9.35,5.48 10.34,4.10 11.09,2.80 11.83,1.51 12.30,0.74 12.77,-0.01 13.43,-0.95 14.10,-1.90 14.26,-1.89 14.42,-1.88 14.57,-1.83 14.73,-1.79 14.87,-1.71 15.01,-1.63 15.12,-1.51 15.24,-1.40 15.32,-1.26 15.41,-1.13 15.46,-0.97 15.51,-0.82 15.52,-0.66 15.53,-0.50 15.50,-0.34 15.48,-0.18 15.41,-0.03 15.35,0.10 15.25,0.23 15.15,0.36 15.03,0.46 14.90,0.56 14.75,0.63 14.61,0.70 14.45,0.73 14.29,0.76 13.50,0.78 12.71,0.80 11.79,0.85 10.87,0.91 9.98,1.10 9.09,1.29 8.17,1.29 7.25,1.29 5.92,1.28 4.59,1.28 2.29,1.04 0,0.81 -0.09,0.79 -0.19,0.78 -0.28,0.75 -0.37,0.71 -0.45,0.66 -0.53,0.60 -0.60,0.53 -0.66,0.46 -0.71,0.37 -0.75,0.28 -0.78,0.19 -0.80,0.09 -0.80,-0.00 -0.80,-0.09 -0.78,-0.19 -0.75,-0.28 -0.71,-0.37 -0.66,-0.46 -0.60,-0.53 -0.53,-0.60 -0.45,-0.66 -0.37,-0.71 -0.28,-0.75 -0.19,-0.78 -0.09,-0.79 0.00,-0.81 0.00,-0.81 L 0,-0.81 Z"></path></g><g transform="translate(439.2143893121536 41.95757911498339) rotate(0 9.833086117765419 0.307279545443933)" stroke="none"><path fill="#1e1e1e" d="M 0,-0.76 Q 0,-0.76 3.00,-1.04 6.00,-1.33 7.87,-1.15 9.75,-0.97 10.85,-0.90 11.95,-0.83 13.28,-0.79 14.61,-0.74 16.64,-0.64 18.67,-0.55 18.78,-0.54 18.88,-0.53 18.98,-0.50 19.08,-0.46 19.16,-0.39 19.24,-0.32 19.30,-0.23 19.35,-0.14 19.38,-0.03 19.40,0.06 19.39,0.17 19.38,0.27 19.33,0.37 19.29,0.46 19.21,0.54 19.14,0.62 19.05,0.67 18.95,0.72 18.85,0.74 18.74,0.75 18.64,0.74 18.54,0.72 18.44,0.67 18.35,0.62 18.27,0.54 18.20,0.47 18.16,0.37 18.11,0.27 18.10,0.17 18.09,0.06 18.11,-0.03 18.13,-0.13 18.19,-0.23 18.24,-0.32 18.32,-0.39 18.40,-0.45 18.50,-0.49 18.60,-0.53 18.71,-0.54 18.81,-0.55 18.91,-0.52 19.02,-0.49 19.11,-0.43 19.19,-0.37 19.26,-0.29 19.32,-0.20 19.36,-0.10 19.39,-0.00 19.39,0.10 19.39,0.20 19.36,0.30 19.32,0.40 19.26,0.49 19.20,0.57 19.11,0.63 19.02,0.69 18.92,0.72 18.82,0.75 18.82,0.75 18.82,0.75 16.68,1.31 14.55,1.87 13.16,1.86 11.77,1.84 10.63,1.76 9.49,1.68 7.74,1.50 6.00,1.33 3.00,1.04 0,0.76 -0.09,0.75 -0.18,0.74 -0.27,0.71 -0.35,0.68 -0.43,0.62 -0.50,0.57 -0.57,0.50 -0.63,0.43 -0.67,0.35 -0.71,0.27 -0.74,0.18 -0.76,0.09 -0.76,-0.00 -0.76,-0.09 -0.74,-0.18 -0.71,-0.27 -0.67,-0.35 -0.63,-0.43 -0.57,-0.50 -0.50,-0.57 -0.43,-0.62 -0.35,-0.68 -0.27,-0.71 -0.18,-0.74 -0.09,-0.75 0.00,-0.76 0.00,-0.76 L 0,-0.76 Z"></path></g><g transform="translate(291.717956882113 35.19731658436925) rotate(0 5.223822604326671 7.989394778745847)" stroke="none"><path fill="#1e1e1e" d="M 0.20,-0.73 Q 0.20,-0.73 1.49,-0.55 2.77,-0.37 3.92,-0.24 5.07,-0.12 6.58,0.30 8.09,0.74 9.35,1.51 10.62,2.28 11.38,3.01 12.14,3.74 12.51,4.31 12.88,4.88 13.06,5.60 13.25,6.31 13.44,7.54 13.63,8.76 13.03,9.79 12.44,10.83 11.94,11.32 11.43,11.81 10.41,12.46 9.38,13.11 7.70,13.93 6.01,14.74 4.56,15.27 3.11,15.81 0.39,15.94 -2.32,16.07 -2.41,16.02 -2.51,15.98 -2.59,15.91 -2.67,15.84 -2.73,15.75 -2.78,15.66 -2.80,15.56 -2.82,15.45 -2.81,15.35 -2.80,15.24 -2.75,15.15 -2.71,15.05 -2.63,14.97 -2.56,14.90 -2.46,14.85 -2.37,14.80 -2.26,14.79 -2.16,14.77 -2.05,14.79 -1.95,14.81 -1.86,14.86 -1.76,14.91 -1.69,14.99 -1.62,15.06 -1.58,15.16 -1.53,15.26 -1.52,15.36 -1.51,15.47 -1.54,15.57 -1.56,15.68 -1.62,15.77 -1.67,15.86 -1.75,15.92 -1.84,15.99 -1.94,16.03 -2.03,16.07 -2.14,16.07 -2.25,16.08 -2.35,16.05 -2.45,16.02 -2.54,15.96 -2.63,15.90 -2.69,15.81 -2.75,15.73 -2.78,15.62 -2.82,15.52 -2.82,15.42 -2.81,15.31 -2.78,15.21 -2.74,15.11 -2.68,15.03 -2.61,14.94 -2.52,14.88 -2.44,14.83 -2.33,14.80 -2.23,14.77 -2.12,14.78 -2.02,14.79 -2.02,14.79 -2.02,14.79 0.11,14.10 2.25,13.42 3.60,12.95 4.94,12.47 6.52,11.74 8.10,11.01 8.92,10.53 9.74,10.05 10.27,9.54 10.80,9.03 11.29,8.79 11.79,8.54 11.38,7.67 10.97,6.81 10.73,6.09 10.49,5.38 9.94,4.80 9.39,4.23 8.40,3.58 7.41,2.93 6.10,2.53 4.79,2.13 3.48,1.96 2.16,1.78 0.97,1.26 -0.20,0.73 -0.29,0.69 -0.37,0.66 -0.45,0.60 -0.52,0.55 -0.58,0.48 -0.64,0.41 -0.68,0.32 -0.72,0.24 -0.74,0.15 -0.76,0.06 -0.75,-0.02 -0.75,-0.11 -0.72,-0.20 -0.70,-0.29 -0.65,-0.37 -0.61,-0.45 -0.54,-0.52 -0.48,-0.58 -0.40,-0.63 -0.32,-0.68 -0.24,-0.71 -0.15,-0.74 -0.06,-0.75 0.02,-0.76 0.11,-0.74 0.20,-0.73 0.20,-0.73 L 0.20,-0.73 Z"></path></g><g transform="translate(289.8742514767375 55.47807604349981) rotate(0 9.52579250596554 1.229132248131691)" stroke="none"><path fill="#1e1e1e" d="M 0.28,-0.70 Q 0.28,-0.70 1.26,-0.59 2.24,-0.48 4.29,-0.01 6.34,0.45 7.73,0.65 9.12,0.85 10.72,0.93 12.33,1.01 13.58,0.72 14.83,0.44 16.68,0.24 18.54,0.05 18.64,0.05 18.75,0.04 18.85,0.07 18.95,0.09 19.04,0.15 19.13,0.21 19.19,0.30 19.26,0.38 19.29,0.48 19.33,0.58 19.33,0.69 19.33,0.79 19.30,0.90 19.26,1.00 19.20,1.08 19.13,1.17 19.05,1.23 18.96,1.29 18.86,1.32 18.76,1.34 18.65,1.34 18.54,1.33 18.44,1.30 18.35,1.26 18.26,1.19 18.18,1.12 18.13,1.03 18.07,0.94 18.05,0.84 18.02,0.73 18.04,0.63 18.05,0.52 18.09,0.42 18.13,0.33 18.21,0.25 18.28,0.17 18.37,0.12 18.47,0.07 18.57,0.05 18.68,0.04 18.78,0.05 18.89,0.07 18.98,0.12 19.07,0.17 19.15,0.24 19.22,0.32 19.27,0.42 19.31,0.51 19.32,0.62 19.34,0.72 19.31,0.83 19.29,0.93 19.24,1.02 19.18,1.11 19.10,1.18 19.02,1.25 18.92,1.29 18.83,1.33 18.83,1.33 18.83,1.33 17.11,2.14 15.39,2.94 13.80,3.28 12.21,3.62 10.48,3.52 8.74,3.42 7.24,3.20 5.75,2.97 3.52,2.43 1.29,1.89 0.50,1.30 -0.28,0.70 -0.36,0.66 -0.44,0.61 -0.51,0.55 -0.57,0.49 -0.62,0.41 -0.68,0.34 -0.71,0.25 -0.74,0.16 -0.75,0.07 -0.76,-0.01 -0.74,-0.10 -0.73,-0.19 -0.70,-0.28 -0.66,-0.36 -0.61,-0.44 -0.56,-0.51 -0.49,-0.57 -0.42,-0.63 -0.33,-0.67 -0.25,-0.71 -0.16,-0.73 -0.07,-0.75 0.01,-0.75 0.10,-0.75 0.19,-0.73 0.28,-0.70 0.28,-0.70 L 0.28,-0.70 Z"></path></g><g transform="translate(319.98806892092165 46.25954901662226) rotate(0 4.301998034350731 3.9946903561949654)" stroke="none"><path fill="#1e1e1e" d="M 0.62,0.62 Q 0.62,0.62 0.43,1.14 0.24,1.65 0.11,1.75 -0.01,1.85 -0.15,1.92 -0.30,1.99 -0.46,2.02 -0.62,2.05 -0.78,2.04 -0.94,2.03 -1.10,1.98 -1.25,1.93 -1.39,1.85 -1.53,1.76 -1.65,1.65 -1.76,1.53 -1.85,1.39 -1.93,1.25 -1.98,1.10 -2.03,0.94 -2.04,0.78 -2.05,0.62 -2.02,0.46 -1.99,0.30 -1.92,0.15 -1.85,0.01 -1.75,-0.11 -1.65,-0.24 -0.63,-0.91 0.39,-1.58 1.15,-2.01 1.91,-2.44 3.03,-3.28 4.15,-4.12 5.53,-5.19 6.91,-6.27 7.78,-6.79 8.65,-7.31 8.94,-7.32 9.23,-7.33 9.39,-7.40 9.54,-7.47 9.71,-7.50 9.88,-7.53 10.05,-7.52 10.22,-7.50 10.38,-7.45 10.55,-7.40 10.69,-7.31 10.84,-7.22 10.96,-7.10 11.08,-6.98 11.17,-6.83 11.25,-6.69 11.30,-6.52 11.35,-6.36 11.36,-6.19 11.37,-6.02 11.34,-5.85 11.31,-5.69 11.24,-5.53 11.17,-5.37 11.06,-5.24 10.96,-5.11 10.82,-5.00 10.69,-4.90 10.62,-3.02 10.55,-1.14 10.21,0.01 9.87,1.18 9.39,3.88 8.91,6.58 8.50,8.82 8.09,11.05 7.49,12.59 6.89,14.13 6.86,14.23 6.83,14.33 6.77,14.42 6.70,14.50 6.62,14.56 6.53,14.63 6.43,14.66 6.33,14.69 6.22,14.68 6.11,14.68 6.01,14.64 5.92,14.60 5.83,14.54 5.75,14.47 5.69,14.38 5.64,14.29 5.61,14.19 5.59,14.08 5.60,13.98 5.61,13.87 5.65,13.77 5.69,13.68 5.77,13.60 5.84,13.52 5.93,13.47 6.02,13.42 6.13,13.40 6.23,13.38 6.34,13.39 6.44,13.41 6.54,13.46 6.63,13.51 6.71,13.58 6.78,13.66 6.83,13.75 6.87,13.85 6.89,13.95 6.90,14.06 6.88,14.16 6.86,14.27 6.81,14.36 6.75,14.45 6.67,14.52 6.59,14.59 6.49,14.63 6.40,14.67 6.29,14.68 6.18,14.69 6.08,14.66 5.98,14.64 5.89,14.58 5.80,14.52 5.74,14.44 5.67,14.35 5.63,14.25 5.60,14.15 5.60,14.05 5.59,13.94 5.59,13.94 5.59,13.94 5.47,12.26 5.34,10.58 5.70,8.33 6.07,6.08 6.58,3.22 7.09,0.36 7.42,-0.74 7.74,-1.86 8.09,-3.14 8.44,-4.43 8.84,-5.88 9.23,-7.33 9.39,-7.40 9.54,-7.47 9.71,-7.50 9.88,-7.53 10.05,-7.52 10.22,-7.50 10.38,-7.45 10.55,-7.40 10.69,-7.31 10.84,-7.22 10.96,-7.10 11.08,-6.98 11.17,-6.83 11.25,-6.69 11.30,-6.53 11.35,-6.36 11.36,-6.19 11.37,-6.02 11.34,-5.85 11.31,-5.69 11.24,-5.53 11.17,-5.37 11.06,-5.24 10.96,-5.11 10.82,-5.00 10.69,-4.90 10.32,-4.87 9.96,-4.84 9.30,-4.44 8.63,-4.05 7.22,-2.95 5.82,-1.86 4.54,-0.94 3.27,-0.02 2.55,0.37 1.83,0.77 1.04,1.21 0.24,1.65 0.11,1.75 -0.01,1.85 -0.15,1.92 -0.30,1.99 -0.46,2.02 -0.62,2.05 -0.78,2.04 -0.94,2.03 -1.10,1.98 -1.25,1.93 -1.39,1.85 -1.53,1.76 -1.65,1.65 -1.76,1.53 -1.85,1.39 -1.93,1.25 -1.98,1.10 -2.03,0.94 -2.04,0.78 -2.05,0.62 -2.02,0.46 -1.99,0.30 -1.92,0.15 -1.85,0.01 -1.75,-0.11 -1.65,-0.24 -1.14,-0.43 -0.62,-0.62 -0.54,-0.68 -0.45,-0.75 -0.35,-0.79 -0.26,-0.84 -0.15,-0.86 -0.05,-0.88 0.05,-0.87 0.15,-0.86 0.26,-0.83 0.36,-0.80 0.45,-0.74 0.54,-0.69 0.61,-0.61 0.69,-0.54 0.74,-0.45 0.80,-0.36 0.83,-0.26 0.86,-0.15 0.87,-0.05 0.88,0.05 0.86,0.15 0.84,0.26 0.79,0.35 0.75,0.45 0.68,0.54 0.62,0.62 0.62,0.62 L 0.62,0.62 Z"></path></g></svg>