<svg version="1.1" xmlns="http://www.w3.org/2000/svg" viewBox="0 0 356.07941406561724 207.33334350585938" width="356.07941406561724" height="207.33334350585938" class="excalidraw-svg"><!-- svg-source:excalidraw --><metadata></metadata><defs><style class="style-fonts">
      </style></defs><rect x="0" y="0" width="356.07941406561724" height="207.33334350585938" fill="#ffffff"></rect><g stroke-linecap="round" transform="translate(106.32084231633297 10) rotate(0 54.66668701171875 93.66667175292969)"><path d="M27.33 0 C40.5 0.49, 54.96 1.6, 82 0 M27.33 0 C44.77 -0.88, 63.34 0.14, 82 0 M82 0 C99.77 -0.69, 109.13 7.5, 109.33 27.33 M82 0 C100.78 1.8, 109.22 8.96, 109.33 27.33 M109.33 27.33 C111.75 70.43, 108.58 110.86, 109.33 160 M109.33 27.33 C109.17 67.24, 109.28 107.76, 109.33 160 M109.33 160 C109.98 178.58, 99.67 187.51, 82 187.33 M109.33 160 C107.13 176.75, 101.41 187.23, 82 187.33 M82 187.33 C67.69 186.43, 51.32 185.73, 27.33 187.33 M82 187.33 C70.96 186.27, 57.43 187.8, 27.33 187.33 M27.33 187.33 C7.58 189.14, -1.5 178.68, 0 160 M27.33 187.33 C8.74 185.3, 0.26 176.33, 0 160 M0 160 C1.49 117.62, 1.38 77.41, 0 27.33 M0 160 C0.28 117.74, -0.03 73.98, 0 27.33 M0 27.33 C0.43 10.55, 9.62 -0.59, 27.33 0 M0 27.33 C0.9 10.1, 10.16 -1.54, 27.33 0" stroke="#1e1e1e" stroke-width="2" fill="none"></path></g><g stroke-linecap="round"><g transform="translate(218.32084231633297 103.33334350585938) rotate(0 31 0.6666717529296875)"><path d="M0.26 0.86 C10.56 1.1, 51.94 0.81, 62.31 0.98 M-1.06 0.27 C9.06 0.71, 51.02 2.41, 61.52 2.33" stroke="#1e1e1e" stroke-width="2" fill="none"></path></g></g><mask></mask><g stroke-linecap="round"><g transform="translate(46.98752932805172 52) rotate(0 28.666656494140625 -1)"><path d="M0.08 0.25 C9.51 -0.26, 46.67 -2.05, 56.19 -2.24 M-1.33 -0.66 C8.49 -1.06, 48.69 -0.49, 58.3 -0.84" stroke="#1e1e1e" stroke-width="2" fill="none"></path></g></g><mask></mask><g stroke-linecap="round"><g transform="translate(46.972698809667065 102.17035956722827) rotate(0 29.319768453065592 0)"><path d="M0.09 0.27 C9.62 0.13, 48.61 -0.58, 58.34 -0.48 M-1.32 -0.63 C7.92 -0.64, 47.41 0.87, 57.24 0.8" stroke="#1e1e1e" stroke-width="2" fill="none"></path></g></g><mask></mask><g stroke-linecap="round"><g transform="translate(47.63907728815025 158.8107915413649) rotate(0 29.652927188852175 0)"><path d="M-0.96 0.02 C8.86 0.09, 48.97 -0.79, 59.06 -0.76 M0.73 -1.01 C10.36 -0.71, 48.28 -0.06, 57.98 0.38" stroke="#1e1e1e" stroke-width="2" fill="none"></path></g></g><mask></mask><g transform="translate(314.7907269076418 79.60815907537307) rotate(0 11.82018131362355 20.51146208295114)" stroke="none"><path fill="#1e1e1e" d="M 0.36,-1.47 Q 0.36,-1.47 2.07,-1.52 3.79,-1.58 6.91,-1.30 10.04,-1.02 11.79,-0.87 13.54,-0.72 15.40,-1.07 17.26,-1.43 19.91,-1.97 22.57,-2.52 24.51,-2.95 26.44,-3.38 28.84,-2.76 31.24,-2.15 31.99,-0.73 32.75,0.68 32.51,2.35 32.27,4.03 31.93,5.14 31.59,6.25 30.67,7.68 29.74,9.12 28.17,10.43 26.60,11.75 24.94,12.85 23.29,13.94 20.99,15.38 18.69,16.82 16.24,18.75 13.78,20.69 10.93,23.11 8.08,25.53 5.49,27.92 2.90,30.31 1.19,31.93 -0.51,33.54 -1.58,34.73 -2.64,35.91 -3.20,36.87 -3.76,37.82 -4.33,39.38 -4.90,40.93 -4.26,39.90 -3.62,38.87 -0.78,38.19 2.04,37.52 5.17,36.99 8.30,36.47 10.89,36.25 13.48,36.03 15.47,35.74 17.47,35.45 19.18,35.62 20.89,35.78 22.43,36.64 23.98,37.50 24.17,37.58 24.37,37.66 24.53,37.80 24.69,37.94 24.80,38.12 24.91,38.31 24.95,38.52 25.00,38.72 24.97,38.93 24.95,39.15 24.86,39.34 24.77,39.53 24.62,39.68 24.47,39.84 24.29,39.93 24.10,40.03 23.89,40.07 23.68,40.10 23.47,40.06 23.26,40.03 23.07,39.93 22.88,39.83 22.74,39.67 22.59,39.52 22.51,39.32 22.42,39.13 22.40,38.92 22.37,38.71 22.42,38.50 22.47,38.29 22.58,38.11 22.69,37.93 22.85,37.79 23.02,37.66 23.21,37.58 23.41,37.50 23.62,37.49 23.84,37.48 24.04,37.54 24.24,37.60 24.42,37.72 24.60,37.84 24.72,38.01 24.85,38.18 24.92,38.38 24.98,38.58 24.98,38.79 24.98,39.01 24.91,39.21 24.84,39.41 24.71,39.58 24.58,39.75 24.41,39.86 24.23,39.98 24.02,40.04 23.82,40.09 23.61,40.08 23.39,40.07 23.39,40.07 23.40,40.07 22.01,40.27 20.63,40.47 19.39,40.47 18.15,40.48 16.03,40.77 13.90,41.06 11.50,41.25 9.10,41.44 6.13,41.90 3.16,42.35 0.11,43.03 -2.92,43.71 -5.38,43.62 -7.85,43.53 -8.81,41.74 -9.77,39.95 -9.49,38.82 -9.22,37.69 -8.67,36.47 -8.13,35.25 -7.32,33.90 -6.52,32.56 -5.33,31.15 -4.14,29.74 -2.42,28.08 -0.70,26.42 1.95,23.93 4.61,21.44 7.54,18.95 10.46,16.46 13.13,14.37 15.79,12.28 18.02,10.83 20.24,9.39 21.70,8.40 23.16,7.41 24.74,6.00 26.33,4.58 26.95,3.22 27.57,1.87 25.59,2.30 23.62,2.73 20.84,3.26 18.06,3.80 15.60,4.12 13.13,4.43 11.29,4.26 9.46,4.10 6.03,3.64 2.60,3.17 1.11,2.32 -0.36,1.47 -0.53,1.40 -0.70,1.34 -0.85,1.23 -1.00,1.13 -1.12,0.99 -1.25,0.85 -1.33,0.69 -1.41,0.53 -1.46,0.35 -1.50,0.17 -1.50,-0.00 -1.50,-0.18 -1.46,-0.36 -1.41,-0.54 -1.33,-0.70 -1.24,-0.86 -1.12,-1.00 -1.00,-1.13 -0.85,-1.24 -0.70,-1.34 -0.52,-1.40 -0.35,-1.47 -0.17,-1.49 0.00,-1.51 0.18,-1.49 0.36,-1.47 0.36,-1.47 L 0.36,-1.47 Z"></path></g><g transform="translate(312.00955270937527 99.77199029779018) rotate(0 16.339637128554386 2.781206026764977)" stroke="none"><path fill="#1e1e1e" d="M -0.16,-2.11 Q -0.16,-2.11 5.03,-2.76 10.22,-3.41 14.39,-2.54 18.57,-1.68 21.55,-0.35 24.54,0.97 28.04,3.01 31.55,5.05 31.73,5.17 31.91,5.28 32.05,5.44 32.18,5.61 32.26,5.81 32.33,6.00 32.34,6.22 32.35,6.43 32.29,6.63 32.22,6.84 32.10,7.01 31.98,7.18 31.81,7.31 31.64,7.43 31.43,7.50 31.23,7.56 31.02,7.56 30.81,7.56 30.61,7.48 30.41,7.41 30.24,7.28 30.07,7.15 29.96,6.97 29.84,6.79 29.79,6.59 29.73,6.38 29.75,6.17 29.77,5.96 29.85,5.76 29.93,5.57 30.07,5.41 30.21,5.25 30.39,5.14 30.58,5.03 30.79,4.99 31.00,4.95 31.21,4.98 31.42,5.00 31.61,5.10 31.80,5.19 31.95,5.34 32.10,5.49 32.20,5.68 32.29,5.87 32.33,6.08 32.36,6.29 32.32,6.50 32.28,6.71 32.18,6.89 32.07,7.08 31.92,7.22 31.76,7.36 31.57,7.45 31.37,7.54 31.16,7.55 30.95,7.57 30.74,7.52 30.53,7.47 30.53,7.47 30.53,7.47 26.64,6.41 22.75,5.35 20.10,4.37 17.44,3.40 14.00,2.60 10.56,1.81 5.36,1.96 0.16,2.11 -0.09,2.10 -0.34,2.09 -0.59,2.02 -0.83,1.95 -1.06,1.82 -1.28,1.69 -1.46,1.51 -1.64,1.33 -1.78,1.11 -1.92,0.90 -2.00,0.65 -2.08,0.41 -2.10,0.16 -2.12,-0.09 -2.07,-0.34 -2.03,-0.59 -1.93,-0.83 -1.83,-1.06 -1.68,-1.27 -1.52,-1.47 -1.32,-1.63 -1.12,-1.79 -0.89,-1.90 -0.66,-2.01 -0.41,-2.06 -0.16,-2.11 -0.16,-2.11 L -0.16,-2.11 Z"></path></g><g transform="translate(19.389639994431917 39.38841300528355) rotate(0 -2.527993986859599 12.278785426098096)" stroke="none"><path fill="#1e1e1e" d="M 0.20,1.63 Q 0.20,1.63 -1.04,1.96 -2.30,2.29 -3.12,4.29 -3.93,6.29 -4.43,7.70 -4.92,9.10 -4.74,11.24 -4.57,13.39 -4.25,15.07 -3.92,16.75 -2.70,13.45 -1.47,10.14 -0.90,7.90 -0.34,5.65 -0.11,4.16 0.10,2.68 0.19,1.47 0.28,0.26 0.21,-0.43 0.13,-1.13 0.01,-1.41 -0.09,-1.68 -0.14,-1.98 -0.19,-2.27 -0.17,-2.57 -0.14,-2.87 -0.05,-3.15 0.04,-3.44 0.20,-3.69 0.36,-3.94 0.57,-4.15 0.79,-4.36 1.05,-4.51 1.31,-4.66 1.59,-4.74 1.88,-4.82 2.18,-4.83 2.48,-4.85 2.77,-4.79 3.06,-4.73 3.33,-4.60 3.61,-4.47 3.84,-4.28 4.07,-4.09 4.25,-3.85 4.43,-3.61 4.42,-2.38 4.41,-1.15 4.29,0.32 4.17,1.81 4.09,3.33 4.00,4.85 3.91,7.80 3.83,10.75 3.54,13.56 3.25,16.36 3.14,18.85 3.04,21.33 2.88,23.83 2.72,26.32 2.69,26.53 2.67,26.74 2.57,26.93 2.48,27.12 2.33,27.27 2.18,27.42 1.99,27.51 1.80,27.61 1.59,27.64 1.37,27.67 1.17,27.63 0.96,27.59 0.77,27.48 0.59,27.38 0.45,27.22 0.30,27.06 0.22,26.86 0.14,26.67 0.12,26.46 0.10,26.25 0.15,26.04 0.20,25.83 0.32,25.65 0.43,25.48 0.60,25.34 0.76,25.21 0.96,25.14 1.16,25.06 1.37,25.06 1.59,25.05 1.79,25.11 1.99,25.18 2.17,25.30 2.34,25.42 2.46,25.60 2.59,25.77 2.65,25.97 2.71,26.17 2.71,26.39 2.70,26.60 2.63,26.80 2.55,27.00 2.42,27.16 2.29,27.33 2.11,27.44 1.93,27.56 1.72,27.61 1.52,27.66 1.30,27.64 1.09,27.63 0.90,27.54 0.70,27.46 0.54,27.32 0.39,27.18 0.28,26.99 0.18,26.81 0.14,26.60 0.10,26.39 0.10,26.39 0.10,26.39 -0.19,23.94 -0.48,21.49 -0.81,18.75 -1.15,16.00 -0.98,13.35 -0.82,10.69 -0.84,7.64 -0.85,4.59 -0.57,1.89 -0.28,-0.79 -0.13,-2.07 0.02,-3.35 0.07,-2.24 0.13,-1.13 0.01,-1.41 -0.09,-1.68 -0.14,-1.98 -0.19,-2.27 -0.17,-2.57 -0.14,-2.87 -0.05,-3.15 0.04,-3.44 0.20,-3.69 0.36,-3.94 0.57,-4.15 0.79,-4.36 1.05,-4.51 1.31,-4.66 1.59,-4.74 1.88,-4.82 2.18,-4.83 2.48,-4.85 2.77,-4.79 3.06,-4.73 3.33,-4.60 3.60,-4.47 3.84,-4.28 4.07,-4.09 4.25,-3.85 4.43,-3.61 4.51,-3.25 4.59,-2.89 4.87,-1.09 5.14,0.69 5.01,2.09 4.87,3.48 4.55,5.20 4.23,6.91 3.53,9.26 2.83,11.61 1.56,14.74 0.28,17.87 -0.46,18.77 -1.21,19.67 -2.60,20.13 -3.98,20.59 -5.80,19.30 -7.63,18.01 -8.28,15.85 -8.94,13.70 -9.12,10.72 -9.29,7.74 -8.66,5.88 -8.02,4.02 -6.18,1.28 -4.34,-1.46 -2.27,-1.54 -0.20,-1.63 -0.00,-1.63 0.19,-1.63 0.38,-1.58 0.57,-1.53 0.75,-1.44 0.92,-1.35 1.07,-1.22 1.22,-1.09 1.33,-0.93 1.45,-0.76 1.52,-0.58 1.59,-0.39 1.61,-0.20 1.64,-0.00 1.62,0.19 1.59,0.38 1.52,0.57 1.45,0.75 1.34,0.92 1.23,1.08 1.08,1.21 0.93,1.34 0.76,1.44 0.58,1.53 0.39,1.58 0.20,1.63 0.20,1.63 L 0.20,1.63 Z"></path></g><g transform="translate(15.055954910325909 80.5584213042905) rotate(0 -2.16684254205299 16.251319065397468)" stroke="none"><path fill="#1e1e1e" d="M 1.42,0.57 Q 1.42,0.57 0.99,2.80 0.56,5.03 0.05,7.21 -0.45,9.38 -0.66,11.08 -0.88,12.78 -0.97,14.50 -1.06,16.23 -1.35,19.51 -1.63,22.80 -1.77,24.38 -1.90,25.96 -2.44,28.64 -2.99,31.32 -3.03,31.53 -3.07,31.74 -3.17,31.92 -3.27,32.11 -3.43,32.25 -3.59,32.39 -3.78,32.48 -3.98,32.56 -4.19,32.58 -4.40,32.60 -4.61,32.55 -4.82,32.50 -4.99,32.38 -5.17,32.27 -5.31,32.10 -5.44,31.94 -5.52,31.74 -5.59,31.54 -5.60,31.33 -5.60,31.12 -5.54,30.91 -5.48,30.71 -5.36,30.54 -5.23,30.36 -5.06,30.24 -4.89,30.11 -4.68,30.05 -4.48,29.99 -4.27,29.99 -4.06,30.00 -3.86,30.07 -3.66,30.14 -3.49,30.28 -3.33,30.41 -3.21,30.59 -3.10,30.77 -3.04,30.97 -2.99,31.18 -3.01,31.39 -3.02,31.60 -3.11,31.80 -3.19,31.99 -3.33,32.15 -3.47,32.31 -3.66,32.42 -3.84,32.52 -4.05,32.56 -4.26,32.60 -4.47,32.57 -4.68,32.55 -4.87,32.45 -5.06,32.36 -5.21,32.21 -5.36,32.06 -5.46,31.87 -5.55,31.68 -5.58,31.47 -5.61,31.26 -5.61,31.26 -5.61,31.26 -6.03,28.46 -6.44,25.66 -6.36,24.05 -6.28,22.44 -6.07,19.20 -5.85,15.96 -5.74,14.06 -5.63,12.16 -5.37,10.21 -5.11,8.26 -4.49,5.76 -3.88,3.26 -2.65,1.34 -1.42,-0.57 -1.33,-0.73 -1.24,-0.89 -1.12,-1.03 -0.99,-1.16 -0.84,-1.27 -0.69,-1.37 -0.51,-1.43 -0.34,-1.49 -0.15,-1.51 0.02,-1.53 0.21,-1.51 0.39,-1.48 0.56,-1.41 0.73,-1.34 0.88,-1.24 1.04,-1.13 1.16,-0.99 1.28,-0.85 1.36,-0.68 1.44,-0.51 1.48,-0.33 1.52,-0.15 1.52,0.02 1.52,0.21 1.47,0.39 1.42,0.57 1.42,0.57 L 1.42,0.57 Z"></path></g><g transform="translate(17.945067278598827 98.61543146693441) rotate(0 -1.0834212710265092 7.94510034199206)" stroke="none"><path fill="#1e1e1e" d="M 0.36,1.46 Q 0.36,1.46 -1.05,2.16 -2.48,2.86 -2.86,4.17 -3.25,5.47 -2.36,8.91 -1.47,12.36 -1.55,13.46 -1.62,14.56 -0.13,12.73 1.35,10.91 1.55,9.38 1.76,7.85 1.63,6.55 1.50,5.24 1.05,4.03 0.60,2.83 0.09,1.79 -0.41,0.75 -2.39,1.40 -4.37,2.04 -4.58,1.97 -4.78,1.91 -4.95,1.79 -5.12,1.66 -5.25,1.49 -5.37,1.32 -5.43,1.11 -5.49,0.91 -5.49,0.70 -5.48,0.49 -5.41,0.29 -5.33,0.09 -5.20,-0.07 -5.07,-0.23 -4.89,-0.35 -4.71,-0.46 -4.50,-0.51 -4.30,-0.56 -4.08,-0.55 -3.87,-0.53 -3.68,-0.44 -3.48,-0.36 -3.33,-0.22 -3.17,-0.07 -3.06,0.10 -2.96,0.29 -2.92,0.49 -2.88,0.70 -2.91,0.91 -2.94,1.12 -3.03,1.31 -3.13,1.50 -3.28,1.65 -3.43,1.80 -3.62,1.90 -3.81,1.99 -4.02,2.02 -4.23,2.05 -4.44,2.01 -4.65,1.97 -4.83,1.86 -5.02,1.76 -5.16,1.60 -5.30,1.44 -5.38,1.25 -5.47,1.05 -5.48,0.84 -5.50,0.63 -5.45,0.42 -5.40,0.21 -5.28,0.04 -5.17,-0.13 -5.00,-0.27 -4.84,-0.40 -4.64,-0.47 -4.44,-0.54 -4.22,-0.55 -4.01,-0.55 -4.01,-0.55 -4.01,-0.55 -2.90,-1.89 -1.78,-3.23 -0.45,-3.30 0.87,-3.36 2.24,-2.36 3.61,-1.37 4.29,0.10 4.97,1.59 5.36,3.37 5.76,5.16 5.66,6.98 5.57,8.81 4.88,10.75 4.18,12.68 2.75,14.50 1.32,16.32 0.07,16.76 -1.17,17.20 -3.15,15.36 -5.12,13.53 -6.06,11.01 -6.99,8.50 -7.38,6.63 -7.76,4.77 -7.39,3.37 -7.03,1.97 -5.59,0.38 -4.16,-1.20 -2.26,-1.33 -0.36,-1.46 -0.18,-1.48 -0.00,-1.51 0.17,-1.49 0.35,-1.46 0.52,-1.40 0.69,-1.34 0.84,-1.23 0.99,-1.13 1.12,-0.99 1.24,-0.86 1.32,-0.70 1.41,-0.54 1.45,-0.36 1.50,-0.18 1.50,-0.00 1.50,0.17 1.45,0.35 1.41,0.53 1.33,0.69 1.24,0.85 1.12,0.99 1.00,1.12 0.85,1.23 0.70,1.33 0.53,1.40 0.36,1.46 0.36,1.46 L 0.36,1.46 Z"></path></g><g transform="translate(19.389639994431917 144.8414277396605) rotate(0 1.4445727158330754 10.834212710264978)" stroke="none"><path fill="#1e1e1e" d="M 0,1.40 Q 0,1.40 -0.70,1.82 -1.41,2.24 -2.67,3.41 -3.92,4.59 -4.55,5.93 -5.19,7.27 -5.67,9.94 -6.16,12.61 -5.99,14.80 -5.82,16.98 -5.10,18.18 -4.39,19.38 -3.36,19.95 -2.33,20.51 -0.85,20.77 0.62,21.04 2.70,21.23 4.79,21.43 7.80,21.66 10.81,21.88 11.02,21.90 11.23,21.93 11.43,22.01 11.62,22.10 11.78,22.25 11.93,22.39 12.03,22.58 12.13,22.76 12.17,22.97 12.21,23.18 12.17,23.39 12.14,23.60 12.04,23.79 11.94,23.98 11.79,24.13 11.64,24.27 11.45,24.37 11.25,24.46 11.04,24.48 10.83,24.51 10.62,24.46 10.42,24.42 10.23,24.31 10.05,24.20 9.91,24.04 9.77,23.88 9.69,23.68 9.61,23.49 9.60,23.27 9.59,23.06 9.64,22.86 9.70,22.65 9.81,22.47 9.93,22.30 10.10,22.17 10.27,22.04 10.47,21.97 10.67,21.90 10.88,21.90 11.10,21.90 11.30,21.96 11.50,22.03 11.67,22.16 11.84,22.28 11.96,22.46 12.08,22.63 12.14,22.84 12.20,23.04 12.19,23.25 12.18,23.47 12.10,23.66 12.02,23.86 11.89,24.03 11.75,24.19 11.57,24.30 11.39,24.41 11.18,24.46 10.97,24.50 10.97,24.50 10.97,24.50 7.72,25.12 4.47,25.74 2.08,25.60 -0.31,25.46 -2.53,24.93 -4.74,24.40 -6.56,23.11 -8.37,21.82 -9.45,19.63 -10.53,17.45 -10.68,14.58 -10.84,11.72 -10.12,8.38 -9.40,5.05 -7.40,2.37 -5.40,-0.29 -3.65,-1.26 -1.90,-2.24 -0.95,-1.82 0,-1.40 0.16,-1.38 0.33,-1.36 0.49,-1.30 0.65,-1.24 0.79,-1.14 0.92,-1.04 1.04,-0.92 1.15,-0.79 1.23,-0.64 1.31,-0.49 1.35,-0.33 1.39,-0.16 1.39,0.00 1.39,0.16 1.35,0.33 1.31,0.49 1.23,0.64 1.15,0.79 1.04,0.92 0.92,1.04 0.79,1.14 0.65,1.24 0.49,1.30 0.33,1.36 0.16,1.38 -0.00,1.40 -0.00,1.40 L 0,1.40 Z"></path></g><g transform="translate(188.4033913379589 120.28385688746437) rotate(0 -30.696947033548525 -19.862701259890287)" stroke="none"><path fill="#1e1e1e" d="M 1.00,1.00 Q 1.00,1.00 0.58,1.82 0.15,2.64 -0.91,3.75 -1.97,4.85 -3.01,6.19 -4.05,7.54 -5.18,8.63 -6.32,9.73 -7.30,10.58 -8.28,11.43 -9.77,12.55 -11.26,13.68 -12.91,14.96 -14.55,16.25 -15.34,16.99 -16.12,17.74 -17.31,18.90 -18.50,20.06 -19.95,21.20 -21.40,22.35 -22.54,22.96 -23.68,23.56 -25.05,24.03 -26.42,24.49 -27.82,24.88 -29.22,25.27 -30.55,25.46 -31.89,25.65 -33.61,26.04 -35.34,26.44 -36.40,26.50 -37.46,26.56 -38.53,26.59 -39.59,26.61 -41.20,27.07 -42.81,27.53 -44.32,27.89 -45.83,28.26 -47.17,28.42 -48.51,28.59 -49.72,28.65 -50.93,28.72 -52.46,28.53 -53.99,28.33 -55.27,27.74 -56.56,27.15 -57.69,26.47 -58.82,25.78 -59.75,24.64 -60.68,23.49 -61.53,22.49 -62.38,21.49 -62.88,19.42 -63.38,17.34 -63.18,16.25 -62.98,15.16 -62.66,13.04 -62.34,10.92 -62.02,9.87 -61.70,8.81 -60.87,7.10 -60.03,5.40 -58.93,4.63 -57.83,3.87 -56.09,2.76 -54.34,1.65 -53.40,1.07 -52.45,0.50 -50.84,-0.26 -49.23,-1.02 -48.08,-1.81 -46.93,-2.60 -45.69,-3.78 -44.45,-4.95 -43.34,-5.98 -42.23,-7.01 -40.85,-8.47 -39.47,-9.93 -38.61,-10.57 -37.75,-11.22 -36.82,-11.74 -35.88,-12.27 -34.87,-12.72 -33.87,-13.18 -32.69,-14.19 -31.51,-15.21 -30.49,-15.97 -29.48,-16.72 -27.78,-17.72 -26.08,-18.73 -24.68,-19.74 -23.28,-20.75 -22.35,-21.85 -21.41,-22.96 -20.75,-24.53 -20.09,-26.10 -19.48,-27.42 -18.87,-28.74 -18.41,-29.70 -17.95,-30.66 -16.87,-32.70 -15.79,-34.73 -14.83,-35.83 -13.87,-36.93 -12.85,-38.01 -11.83,-39.08 -10.80,-40.14 -9.76,-41.19 -9.18,-42.96 -8.59,-44.72 -8.23,-45.79 -7.86,-46.85 -7.52,-48.07 -7.17,-49.30 -7.05,-50.48 -6.93,-51.67 -6.65,-53.17 -6.37,-54.67 -6.53,-56.51 -6.68,-58.36 -7.43,-59.78 -8.18,-61.19 -9.27,-61.95 -10.37,-62.70 -11.65,-63.05 -12.93,-63.40 -14.02,-63.55 -15.12,-63.71 -17.24,-63.80 -19.37,-63.90 -20.97,-63.74 -22.57,-63.57 -23.62,-63.13 -24.66,-62.69 -26.12,-62.25 -27.58,-61.80 -29.14,-61.23 -30.69,-60.65 -31.87,-60.05 -33.04,-59.44 -34.79,-58.01 -36.53,-56.59 -37.66,-54.77 -38.79,-52.94 -39.17,-51.73 -39.54,-50.52 -40.16,-48.48 -40.78,-46.43 -41.02,-45.06 -41.25,-43.69 -41.35,-42.53 -41.44,-41.37 -41.48,-40.28 -41.53,-39.18 -41.25,-37.41 -40.97,-35.63 -40.73,-34.04 -40.49,-32.44 -40.32,-29.95 -40.15,-27.47 -39.94,-26.43 -39.73,-25.38 -39.62,-23.89 -39.50,-22.40 -38.99,-20.60 -38.48,-18.80 -37.82,-17.37 -37.17,-15.93 -35.96,-13.81 -34.76,-11.69 -34.36,-10.25 -33.97,-8.81 -33.63,-7.02 -33.29,-5.22 -32.81,-4.11 -32.33,-3.01 -31.01,-2.08 -29.69,-1.16 -27.85,-0.65 -26.01,-0.14 -24.72,0.49 -23.44,1.12 -22.03,1.98 -20.62,2.84 -19.72,3.54 -18.81,4.24 -17.80,5.15 -16.78,6.05 -15.55,6.96 -14.32,7.87 -13.62,8.75 -12.93,9.63 -11.86,10.44 -10.80,11.24 -9.15,11.66 -7.51,12.08 -5.85,13.45 -4.20,14.81 -3.77,15.92 -3.34,17.02 -2.80,18.53 -2.25,20.05 -1.10,21.63 0.04,23.22 0.24,23.30 0.44,23.37 0.60,23.51 0.77,23.64 0.88,23.83 0.99,24.01 1.04,24.21 1.09,24.42 1.07,24.63 1.05,24.84 0.96,25.04 0.87,25.23 0.73,25.39 0.59,25.54 0.40,25.65 0.21,25.75 0.00,25.78 -0.20,25.82 -0.41,25.79 -0.62,25.76 -0.80,25.66 -0.99,25.56 -1.14,25.41 -1.29,25.26 -1.38,25.07 -1.47,24.87 -1.50,24.66 -1.52,24.45 -1.48,24.25 -1.44,24.04 -1.33,23.85 -1.22,23.67 -1.06,23.53 -0.90,23.39 -0.71,23.31 -0.51,23.23 -0.30,23.21 -0.09,23.20 0.11,23.25 0.31,23.31 0.49,23.43 0.67,23.54 0.80,23.71 0.93,23.88 1.00,24.08 1.07,24.28 1.07,24.49 1.08,24.70 1.01,24.91 0.95,25.11 0.82,25.28 0.69,25.45 0.52,25.57 0.34,25.69 0.14,25.75 -0.05,25.81 -0.27,25.80 -0.48,25.79 -0.48,25.79 -0.48,25.79 -3.25,24.87 -6.03,23.95 -7.10,22.21 -8.17,20.47 -8.42,19.34 -8.67,18.20 -9.70,17.53 -10.73,16.86 -12.11,16.50 -13.49,16.15 -14.73,15.37 -15.97,14.59 -16.69,13.78 -17.41,12.97 -18.20,12.07 -18.98,11.17 -20.17,10.25 -21.36,9.32 -22.34,8.43 -23.31,7.54 -24.62,6.72 -25.92,5.90 -27.75,5.12 -29.59,4.34 -30.78,3.98 -31.97,3.63 -33.75,2.60 -35.52,1.56 -36.36,0.27 -37.19,-1.00 -37.82,-2.62 -38.45,-4.23 -38.92,-6.75 -39.39,-9.28 -40.01,-10.45 -40.62,-11.62 -41.25,-12.68 -41.87,-13.75 -42.60,-15.45 -43.34,-17.15 -43.68,-18.23 -44.03,-19.30 -44.29,-20.67 -44.56,-22.04 -44.63,-23.25 -44.71,-24.47 -44.96,-25.89 -45.20,-27.31 -45.32,-29.52 -45.44,-31.73 -45.74,-34.34 -46.04,-36.95 -46.24,-38.15 -46.44,-39.35 -46.39,-40.58 -46.33,-41.81 -46.20,-43.18 -46.07,-44.54 -45.77,-46.19 -45.47,-47.84 -44.83,-49.97 -44.20,-52.09 -43.57,-53.85 -42.94,-55.61 -42.25,-56.66 -41.56,-57.71 -40.70,-58.98 -39.85,-60.24 -38.71,-61.26 -37.56,-62.27 -36.43,-63.07 -35.30,-63.87 -33.86,-64.59 -32.41,-65.32 -30.73,-65.94 -29.05,-66.55 -27.78,-66.95 -26.51,-67.34 -25.04,-67.91 -23.57,-68.47 -21.39,-68.68 -19.22,-68.89 -18.05,-68.85 -16.89,-68.81 -15.63,-68.72 -14.38,-68.63 -12.95,-68.40 -11.52,-68.17 -9.81,-67.63 -8.11,-67.09 -6.63,-66.19 -5.16,-65.28 -4.07,-63.31 -2.98,-61.33 -2.38,-59.10 -1.79,-56.87 -1.72,-55.34 -1.65,-53.80 -1.92,-52.47 -2.19,-51.14 -2.38,-49.57 -2.57,-48.00 -2.96,-46.64 -3.35,-45.28 -3.74,-44.18 -4.13,-43.08 -4.54,-41.96 -4.96,-40.84 -5.64,-39.41 -6.32,-37.99 -7.37,-36.91 -8.43,-35.83 -9.40,-34.83 -10.36,-33.82 -11.61,-32.33 -12.86,-30.84 -13.75,-28.80 -14.64,-26.76 -15.21,-25.55 -15.78,-24.35 -16.24,-23.24 -16.70,-22.13 -17.96,-20.33 -19.22,-18.54 -20.62,-17.31 -22.03,-16.09 -22.93,-15.39 -23.83,-14.69 -25.28,-13.84 -26.73,-13.00 -27.59,-12.37 -28.44,-11.74 -29.26,-11.03 -30.08,-10.31 -31.67,-9.41 -33.25,-8.51 -34.73,-7.63 -36.22,-6.76 -37.47,-5.45 -38.72,-4.14 -39.46,-3.32 -40.20,-2.50 -41.51,-1.43 -42.82,-0.36 -44.25,0.77 -45.68,1.91 -46.73,2.48 -47.79,3.05 -49.01,3.62 -50.23,4.20 -52.08,5.18 -53.92,6.17 -55.24,7.00 -56.56,7.83 -57.11,8.94 -57.66,10.05 -58.17,11.74 -58.68,13.42 -58.93,15.23 -59.18,17.04 -58.76,18.39 -58.34,19.75 -57.45,21.01 -56.56,22.28 -54.95,23.24 -53.34,24.20 -52.24,24.37 -51.14,24.54 -50.06,24.49 -48.99,24.43 -47.89,24.31 -46.79,24.19 -44.49,23.55 -42.18,22.90 -39.93,22.65 -37.68,22.40 -36.15,22.27 -34.61,22.15 -33.53,21.84 -32.46,21.53 -31.40,21.40 -30.34,21.27 -29.04,20.89 -27.74,20.52 -25.95,19.83 -24.16,19.14 -22.81,18.09 -21.46,17.04 -20.24,15.85 -19.02,14.66 -18.18,13.87 -17.35,13.09 -15.66,11.77 -13.98,10.46 -13.13,9.76 -12.28,9.05 -10.91,8.11 -9.54,7.17 -8.33,6.00 -7.12,4.82 -5.99,3.40 -4.86,1.98 -3.75,0.91 -2.64,-0.15 -1.82,-0.58 -1.00,-1.00 -0.87,-1.11 -0.73,-1.21 -0.58,-1.28 -0.42,-1.35 -0.25,-1.39 -0.08,-1.42 0.08,-1.41 0.25,-1.40 0.42,-1.34 0.58,-1.29 0.73,-1.21 0.87,-1.12 0.99,-0.99 1.12,-0.87 1.21,-0.73 1.29,-0.58 1.35,-0.42 1.40,-0.25 1.41,-0.08 1.42,0.08 1.39,0.25 1.35,0.42 1.28,0.58 1.21,0.73 1.11,0.87 1.00,1.00 1.00,1.00 L 1.00,1.00 Z"></path></g></svg>