<svg version="1.1" xmlns="http://www.w3.org/2000/svg" viewBox="0 0 444.15351843851175 140.66665649414062" width="444.15351843851175" height="140.66665649414062" class="excalidraw-svg"><!-- svg-source:excalidraw --><metadata></metadata><defs><style class="style-fonts">
      </style></defs><rect x="0" y="0" width="444.15351843851175" height="140.66665649414062" fill="#ffffff"></rect><g stroke-linecap="round" transform="translate(59.45870017069393 43.83253359778706) rotate(0 26.66668701171875 29.666671752929688)"><path d="M13.33 0 C22.55 -1.16, 33.77 -1.15, 40 0 M13.33 0 C21.18 -0.02, 27.42 -0.46, 40 0 M40 0 C49.68 -0.12, 52.77 2.52, 53.33 13.33 M40 0 C48.07 0.78, 54.16 3.86, 53.33 13.33 M53.33 13.33 C55.04 20.77, 51.87 31.72, 53.33 46 M53.33 13.33 C52.64 25.26, 52.54 36.39, 53.33 46 M53.33 46 C51.9 54.59, 48.65 60.77, 40 59.33 M53.33 46 C55.35 53.26, 49.31 57.56, 40 59.33 M40 59.33 C30.93 60.8, 21.11 59.6, 13.33 59.33 M40 59.33 C34.49 60.06, 30.16 58.77, 13.33 59.33 M13.33 59.33 C3.42 57.72, 1.85 56.23, 0 46 M13.33 59.33 C3.32 59.88, 1.08 53.08, 0 46 M0 46 C-1.43 38.88, 0.2 29.36, 0 13.33 M0 46 C-0.35 38.9, -0.59 33.2, 0 13.33 M0 13.33 C-1.06 4.6, 5.29 1.03, 13.33 0 M0 13.33 C1.73 5.06, 3.5 -1.78, 13.33 0" stroke="#1e1e1e" stroke-width="2" fill="none"></path></g><g stroke-linecap="round" transform="translate(216.79207419413143 39.83256411536519) rotate(0 35 34.66667175292969)"><path d="M17.33 0 C24.32 1.38, 33.66 -1.21, 52.67 0 M17.33 0 C26.8 -0.82, 35.15 0.14, 52.67 0 M52.67 0 C62.65 -1.23, 70.02 6.89, 70 17.33 M52.67 0 C62.58 0.77, 70.23 4.55, 70 17.33 M70 17.33 C69.73 23.82, 69.25 33.08, 70 52 M70 17.33 C70.54 26.64, 70.29 34.04, 70 52 M70 52 C68.45 62, 64.41 70.18, 52.67 69.33 M70 52 C71.24 65.39, 65.01 69.63, 52.67 69.33 M52.67 69.33 C45.03 68.99, 35.57 68.97, 17.33 69.33 M52.67 69.33 C42.06 69.94, 31.39 68.91, 17.33 69.33 M17.33 69.33 C4.9 68.66, -1.66 61.82, 0 52 M17.33 69.33 C5.74 68.7, -1.33 63.25, 0 52 M0 52 C0.47 37.6, -1.55 24.84, 0 17.33 M0 52 C-0.23 38.06, 0.63 25.69, 0 17.33 M0 17.33 C0.96 7.04, 6.21 1.05, 17.33 0 M0 17.33 C0.68 4.46, 5.02 2.22, 17.33 0" stroke="#1e1e1e" stroke-width="2" fill="none"></path></g><g transform="translate(74.79207419413143 63.83250308020894) rotate(0 9.666656494140625 6)" stroke="none"><path fill="#1e1e1e" d="M -0.51,-0.46 Q -0.51,-0.46 1.06,-2.51 2.65,-4.55 3.58,-5.57 4.51,-6.59 6.18,-7.54 7.84,-8.49 9.11,-9.06 10.38,-9.62 11.79,-9.90 13.21,-10.18 14.29,-10.47 15.36,-10.75 16.29,-10.90 17.21,-11.05 17.79,-11.11 18.36,-11.17 18.42,-11.20 18.48,-11.23 18.63,-11.23 18.78,-11.22 18.93,-11.18 19.08,-11.14 19.21,-11.07 19.35,-10.99 19.46,-10.89 19.57,-10.78 19.66,-10.65 19.74,-10.52 19.79,-10.38 19.84,-10.23 19.86,-10.08 19.87,-9.93 19.85,-9.77 19.82,-9.62 19.77,-9.48 19.71,-9.34 19.62,-9.21 19.53,-9.09 19.41,-8.99 19.29,-8.89 19.15,-8.83 19.01,-8.76 18.86,-8.73 18.71,-8.69 19.29,-9.11 19.87,-9.53 19.61,-8.95 19.36,-8.38 19.35,-7.41 19.35,-6.44 19.14,-4.89 18.93,-3.34 18.66,-0.63 18.38,2.08 17.87,4.47 17.35,6.85 16.95,8.79 16.55,10.73 16.19,12.33 15.82,13.93 15.87,15.21 15.92,16.49 15.92,18.93 15.93,21.37 15.92,21.48 15.91,21.58 15.87,21.68 15.83,21.78 15.76,21.86 15.69,21.94 15.60,22.00 15.51,22.05 15.41,22.07 15.30,22.09 15.20,22.08 15.09,22.07 15.00,22.02 14.90,21.98 14.82,21.90 14.75,21.83 14.70,21.73 14.65,21.64 14.63,21.54 14.62,21.43 14.63,21.33 14.65,21.22 14.70,21.13 14.75,21.03 14.83,20.96 14.91,20.89 15.01,20.85 15.10,20.80 15.21,20.79 15.31,20.78 15.42,20.81 15.52,20.83 15.61,20.88 15.70,20.94 15.77,21.02 15.84,21.10 15.88,21.20 15.92,21.30 15.92,21.41 15.93,21.51 15.90,21.62 15.87,21.72 15.81,21.81 15.75,21.89 15.66,21.96 15.57,22.02 15.47,22.05 15.37,22.09 15.27,22.08 15.16,22.08 15.06,22.05 14.96,22.01 14.88,21.95 14.79,21.88 14.73,21.80 14.67,21.71 14.65,21.60 14.62,21.50 14.62,21.50 14.62,21.50 13.95,19.03 13.29,16.56 13.27,14.96 13.24,13.36 13.60,11.77 13.97,10.19 14.38,8.24 14.79,6.30 15.28,4.05 15.77,1.81 16.05,-0.94 16.34,-3.70 16.54,-5.12 16.74,-6.55 16.78,-7.41 16.83,-8.26 17.11,-8.97 17.40,-9.67 17.94,-10.45 18.48,-11.23 18.63,-11.23 18.78,-11.22 18.93,-11.18 19.08,-11.14 19.21,-11.07 19.35,-10.99 19.46,-10.89 19.57,-10.78 19.66,-10.65 19.74,-10.52 19.79,-10.38 19.84,-10.23 19.86,-10.08 19.87,-9.93 19.85,-9.78 19.82,-9.62 19.77,-9.48 19.71,-9.34 19.62,-9.21 19.53,-9.09 19.41,-8.99 19.29,-8.89 19.15,-8.83 19.01,-8.76 18.86,-8.73 18.71,-8.69 18.68,-8.68 18.65,-8.66 18.11,-8.62 17.57,-8.58 16.77,-8.48 15.97,-8.38 14.80,-8.09 13.63,-7.80 12.47,-7.63 11.31,-7.45 10.11,-6.94 8.92,-6.44 7.50,-5.77 6.08,-5.09 5.16,-4.10 4.24,-3.11 2.38,-1.32 0.51,0.46 0.45,0.52 0.39,0.57 0.31,0.61 0.24,0.65 0.16,0.67 0.07,0.69 -0.00,0.69 -0.08,0.69 -0.17,0.67 -0.25,0.65 -0.32,0.61 -0.40,0.57 -0.46,0.51 -0.52,0.45 -0.57,0.38 -0.62,0.32 -0.65,0.24 -0.68,0.16 -0.68,0.07 -0.69,-0.00 -0.68,-0.08 -0.67,-0.17 -0.64,-0.25 -0.61,-0.32 -0.56,-0.39 -0.51,-0.46 -0.51,-0.46 L -0.51,-0.46 Z"></path></g><g transform="translate(238.79213522928768 62.49922060950581) rotate(0 11.333343505859375 9.000015258789062)" stroke="none"><path fill="#1e1e1e" d="M -0.30,-0.60 Q -0.30,-0.60 0.32,-1.25 0.95,-1.90 1.56,-2.39 2.16,-2.87 2.99,-3.65 3.82,-4.42 4.99,-5.37 6.16,-6.31 8.01,-7.69 9.85,-9.06 12.00,-10.43 14.15,-11.81 15.22,-12.55 16.28,-13.30 17.63,-14.54 18.98,-15.79 19.85,-16.40 20.73,-17.01 20.85,-17.06 20.97,-17.12 21.12,-17.19 21.28,-17.27 21.44,-17.31 21.61,-17.36 21.78,-17.35 21.96,-17.35 22.12,-17.31 22.29,-17.27 22.44,-17.19 22.59,-17.11 22.72,-16.99 22.85,-16.88 22.95,-16.74 23.05,-16.59 23.11,-16.43 23.17,-16.27 23.19,-16.10 23.21,-15.93 23.19,-15.76 23.16,-15.59 23.10,-15.43 23.04,-15.27 22.94,-15.13 22.84,-14.98 22.71,-14.87 22.58,-14.76 22.78,-13.83 22.98,-12.91 22.89,-12.05 22.81,-11.18 22.79,-10.50 22.78,-9.82 22.78,-8.92 22.78,-8.01 22.78,-6.66 22.78,-5.32 22.58,-3.88 22.38,-2.44 22.11,-0.34 21.83,1.74 21.53,4.17 21.23,6.59 20.90,8.97 20.58,11.35 20.25,13.52 19.92,15.69 19.39,18.18 18.86,20.68 18.45,22.85 18.04,25.03 17.67,26.92 17.30,28.81 17.35,29.85 17.40,30.90 17.17,31.65 16.94,32.40 15.48,33.65 14.01,34.89 13.93,34.96 13.84,35.02 13.74,35.06 13.64,35.09 13.54,35.09 13.43,35.09 13.33,35.06 13.23,35.03 13.14,34.96 13.06,34.90 13.00,34.81 12.94,34.73 12.91,34.62 12.88,34.52 12.88,34.42 12.89,34.31 12.93,34.21 12.96,34.11 13.03,34.03 13.10,33.95 13.19,33.89 13.28,33.84 13.38,33.81 13.49,33.79 13.59,33.80 13.70,33.81 13.80,33.85 13.89,33.90 13.97,33.97 14.05,34.04 14.10,34.13 14.15,34.23 14.17,34.33 14.19,34.44 14.17,34.54 14.15,34.65 14.11,34.74 14.06,34.84 13.98,34.91 13.90,34.98 13.81,35.03 13.71,35.07 13.61,35.09 13.50,35.10 13.40,35.08 13.29,35.06 13.20,35.00 13.11,34.95 13.04,34.87 12.97,34.79 12.93,34.69 12.89,34.59 12.88,34.49 12.88,34.38 12.90,34.28 12.93,34.17 12.99,34.09 13.05,34.00 13.05,34.00 13.05,34.00 13.77,32.46 14.49,30.92 14.46,29.59 14.44,28.26 14.81,26.37 15.17,24.48 15.59,22.28 16.01,20.07 16.53,17.66 17.04,15.25 17.37,13.10 17.69,10.96 18.02,8.59 18.34,6.22 18.65,3.80 18.96,1.37 19.24,-0.73 19.52,-2.85 19.70,-4.08 19.88,-5.32 19.89,-6.67 19.89,-8.02 19.90,-9.30 19.91,-10.59 19.96,-11.45 20.01,-12.31 20.09,-12.89 20.17,-13.48 20.32,-14.08 20.48,-14.68 20.72,-15.90 20.97,-17.12 21.12,-17.19 21.28,-17.27 21.44,-17.31 21.61,-17.36 21.78,-17.35 21.96,-17.35 22.12,-17.31 22.29,-17.27 22.44,-17.19 22.59,-17.11 22.72,-16.99 22.85,-16.88 22.95,-16.74 23.05,-16.60 23.11,-16.43 23.17,-16.27 23.19,-16.10 23.21,-15.93 23.19,-15.76 23.16,-15.59 23.10,-15.43 23.04,-15.27 22.94,-15.13 22.84,-14.98 22.71,-14.87 22.59,-14.76 22.41,-14.73 22.24,-14.70 21.53,-14.22 20.81,-13.75 19.31,-12.43 17.81,-11.11 16.70,-10.33 15.58,-9.56 13.49,-8.25 11.41,-6.94 9.60,-5.62 7.79,-4.29 6.68,-3.41 5.57,-2.52 4.65,-1.68 3.73,-0.83 2.92,-0.23 2.10,0.37 1.20,0.49 0.30,0.60 0.22,0.63 0.14,0.66 0.06,0.67 -0.01,0.68 -0.09,0.66 -0.17,0.65 -0.25,0.62 -0.32,0.59 -0.39,0.54 -0.46,0.50 -0.51,0.43 -0.56,0.37 -0.60,0.30 -0.64,0.22 -0.65,0.14 -0.67,0.06 -0.67,-0.01 -0.67,-0.09 -0.65,-0.17 -0.63,-0.25 -0.59,-0.32 -0.55,-0.39 -0.49,-0.45 -0.44,-0.51 -0.37,-0.56 -0.30,-0.60 -0.30,-0.60 L -0.30,-0.60 Z"></path></g><g stroke-linecap="round"><g transform="translate(10.12544821756893 82.49922060950581) rotate(0 23 -1.6666717529296875)"><path d="M-0.13 -0.01 C7.65 -0.54, 38.55 -2.9, 46.25 -3.51 M0.81 -0.49 C8.58 -0.91, 38.46 -2.45, 45.95 -2.9" stroke="#1e1e1e" stroke-width="0.5" fill="none"></path></g></g><mask></mask><g stroke-linecap="round" transform="translate(117.10496605698168 73.58810083346208) rotate(0 0.17689420361530495 0.5306664161921191)"><path d="M0.38 -0.21 C0.39 -0.19, 0.06 0.1, 0.09 0.26 C0.13 0.42, 0.59 0.65, 0.6 0.75 C0.61 0.84, 0.27 0.82, 0.17 0.83 C0.07 0.83, 0.02 0.74, -0.01 0.79 C-0.04 0.85, -0.05 1.23, -0.01 1.17 C0.03 1.11, 0.22 0.56, 0.21 0.43 C0.21 0.31, 0.02 0.49, -0.05 0.41 C-0.12 0.32, -0.24 -0.03, -0.21 -0.09 C-0.17 -0.15, 0.03 0.09, 0.14 0.07 C0.26 0.05, 0.46 -0.22, 0.49 -0.19 M0.37 0.11 C0.29 0.12, -0.06 0.3, -0.1 0.3 C-0.15 0.3, 0.05 0.01, 0.11 0.12 C0.17 0.23, 0.32 0.73, 0.26 0.94 C0.2 1.15, -0.16 1.36, -0.24 1.38 C-0.32 1.39, -0.32 1.14, -0.23 1.02 C-0.15 0.91, 0.3 0.85, 0.27 0.69 C0.24 0.53, -0.45 0.21, -0.42 0.08 C-0.38 -0.06, 0.29 -0.17, 0.47 -0.11 C0.65 -0.05, 0.77 0.48, 0.67 0.43 C0.57 0.38, 0.04 -0.29, -0.11 -0.41" stroke="#1e1e1e" stroke-width="0.5" fill="none"></path></g><g stroke-linecap="round" transform="translate(112.85963472744473 68.6351926894639) rotate(0 6.544891197920734 5.837330578113296)"><path d="M7.57 -0.24 C8.87 -0.06, 10.34 0.84, 11.29 1.88 C12.24 2.91, 13.32 4.6, 13.27 5.96 C13.21 7.32, 11.96 9.15, 10.96 10.06 C9.95 10.97, 8.54 11.36, 7.23 11.43 C5.93 11.51, 4.24 11.08, 3.11 10.51 C1.98 9.94, 0.96 9.11, 0.45 8 C-0.05 6.89, -0.47 5.14, 0.08 3.84 C0.63 2.54, 2.33 0.87, 3.76 0.21 C5.18 -0.46, 7.81 -0.1, 8.63 -0.14 C9.46 -0.18, 8.81 -0.2, 8.7 -0.02 M8.69 0.85 C10 0.96, 10.75 1.43, 11.37 2.36 C11.99 3.29, 12.4 5.15, 12.42 6.42 C12.45 7.69, 12.37 9.23, 11.53 9.99 C10.68 10.75, 8.82 10.87, 7.36 10.97 C5.89 11.08, 3.79 11.23, 2.73 10.63 C1.67 10.03, 1.44 8.45, 1.01 7.38 C0.57 6.3, -0.43 5.2, 0.11 4.18 C0.65 3.16, 2.86 1.98, 4.23 1.25 C5.6 0.52, 7.82 -0.03, 8.32 -0.21 C8.83 -0.39, 7.48 0.02, 7.28 0.17" stroke="#1e1e1e" stroke-width="0.5" fill="none"></path></g><g stroke-linecap="round"><g transform="translate(124.88808429090196 73.9418568513851) rotate(0 45.28352338529156 -1.2382189386726452)"><path d="M-0.01 0.6 C15.37 0.28, 75.99 -1.55, 91.15 -1.87 M-1.48 -0.14 C13.89 -0.81, 75.19 -3.19, 90.51 -3.67" stroke="#1e1e1e" stroke-width="0.5" fill="none"></path></g></g><mask></mask><g stroke-linecap="round"><g transform="translate(305.6683894248374 73.23431242623164) rotate(0 53.597324230057765 0.7075525224805119)"><path d="M-0.05 0.53 C17.79 0.78, 89.33 1.14, 107.29 1.21 M-1.54 -0.24 C16.14 0.22, 88.26 2.27, 106.4 2.65" stroke="#1e1e1e" stroke-width="0.5" fill="none"></path></g></g><mask></mask><g transform="translate(26.184066100552826 42.10183949055059) rotate(0 -1.2382270359995573 5.129786152959674)" stroke="none"><path fill="#2f9e44" d="M -0.33,0.67 Q -0.33,0.67 -1.05,0.61 -1.76,0.55 -2.38,1.02 -2.99,1.50 -3.76,2.26 -4.53,3.02 -4.83,4.58 -5.13,6.13 -5.41,7.67 -5.68,9.21 -5.60,10.31 -5.52,11.40 -4.99,12.30 -4.45,13.20 -3.74,13.71 -3.03,14.22 -2.19,14.41 -1.36,14.61 -0.59,14.34 0.18,14.07 0.93,13.44 1.69,12.82 2.26,11.95 2.83,11.08 3.03,9.75 3.23,8.42 3.24,6.85 3.25,5.29 3.05,4.18 2.86,3.07 2.49,1.93 2.12,0.80 1.75,-0.32 1.38,-1.44 1.03,-2.41 0.68,-3.38 0.42,-3.85 0.16,-4.32 -1.51,-3.78 -3.20,-3.23 -3.29,-3.18 -3.39,-3.13 -3.49,-3.11 -3.60,-3.10 -3.70,-3.11 -3.81,-3.13 -3.90,-3.18 -4.00,-3.23 -4.07,-3.30 -4.14,-3.38 -4.19,-3.47 -4.23,-3.57 -4.25,-3.68 -4.26,-3.78 -4.24,-3.88 -4.22,-3.99 -4.16,-4.08 -4.11,-4.17 -4.03,-4.24 -3.95,-4.31 -3.85,-4.35 -3.75,-4.39 -3.65,-4.40 -3.54,-4.41 -3.44,-4.38 -3.33,-4.35 -3.25,-4.29 -3.16,-4.23 -3.09,-4.15 -3.03,-4.07 -2.99,-3.97 -2.96,-3.87 -2.96,-3.76 -2.96,-3.65 -2.99,-3.55 -3.02,-3.45 -3.08,-3.37 -3.15,-3.28 -3.23,-3.22 -3.32,-3.16 -3.42,-3.13 -3.53,-3.10 -3.63,-3.10 -3.74,-3.11 -3.84,-3.15 -3.94,-3.19 -4.02,-3.25 -4.10,-3.32 -4.16,-3.41 -4.21,-3.50 -4.24,-3.61 -4.26,-3.71 -4.25,-3.82 -4.24,-3.92 -4.20,-4.02 -4.15,-4.12 -4.08,-4.19 -4.01,-4.27 -4.01,-4.27 -4.01,-4.27 -1.71,-5.57 0.57,-6.86 1.43,-6.36 2.30,-5.86 2.75,-5.08 3.20,-4.30 3.57,-3.29 3.94,-2.27 4.31,-1.13 4.67,0.00 5.08,1.33 5.48,2.65 5.67,3.99 5.86,5.32 5.81,7.11 5.76,8.90 5.36,10.68 4.95,12.45 4.09,13.63 3.24,14.80 2.06,15.64 0.89,16.47 -0.48,16.76 -1.85,17.06 -3.19,16.66 -4.53,16.27 -5.59,15.39 -6.65,14.51 -7.40,13.10 -8.16,11.69 -8.25,10.22 -8.34,8.76 -8.06,7.14 -7.77,5.52 -7.24,3.48 -6.70,1.44 -6.04,0.64 -5.37,-0.15 -4.86,-0.50 -4.34,-0.84 -3.16,-1.40 -1.97,-1.95 -1.32,-1.86 -0.67,-1.77 -0.16,-1.22 0.33,-0.67 0.41,-0.62 0.49,-0.57 0.55,-0.50 0.61,-0.44 0.65,-0.36 0.70,-0.28 0.72,-0.19 0.74,-0.10 0.75,-0.01 0.75,0.07 0.73,0.16 0.71,0.25 0.67,0.33 0.63,0.41 0.57,0.48 0.51,0.55 0.43,0.60 0.36,0.66 0.27,0.69 0.19,0.73 0.10,0.74 0.01,0.75 -0.07,0.74 -0.16,0.73 -0.25,0.70 -0.33,0.67 -0.33,0.67 L -0.33,0.67 Z"></path></g><g transform="translate(140.8080119980505 38.56408497547493) rotate(0 0.17689420361530495 5.306656064594264)" stroke="none"><path fill="#2f9e44" d="M -0.72,0 Q -0.72,0 -0.92,-0.64 -1.12,-1.28 -1.02,-0.63 -0.92,0.00 -1.08,0.84 -1.24,1.68 -1.21,2.86 -1.18,4.04 -1.08,6.10 -0.97,8.16 -0.65,9.41 -0.32,10.66 0.09,9.93 0.51,9.21 0.90,7.73 1.29,6.26 1.34,5.00 1.40,3.74 1.24,2.78 1.08,1.82 0.84,1.18 0.60,0.53 -0.50,0.06 -1.61,-0.39 -1.65,-0.46 -1.69,-0.53 -1.71,-0.61 -1.74,-0.68 -1.74,-0.76 -1.75,-0.84 -1.73,-0.92 -1.72,-0.99 -1.69,-1.07 -1.66,-1.14 -1.61,-1.20 -1.56,-1.26 -1.50,-1.31 -1.43,-1.36 -1.36,-1.40 -1.29,-1.43 -1.21,-1.44 -1.13,-1.46 -1.06,-1.45 -0.98,-1.45 -0.90,-1.43 -0.83,-1.40 -0.76,-1.36 -0.69,-1.32 -0.63,-1.27 -0.58,-1.21 -0.51,-1.01 -0.43,-0.81 -0.45,-0.70 -0.47,-0.60 -0.52,-0.50 -0.57,-0.41 -0.64,-0.34 -0.72,-0.26 -0.82,-0.22 -0.91,-0.17 -1.02,-0.16 -1.12,-0.15 -1.23,-0.17 -1.33,-0.19 -1.42,-0.25 -1.51,-0.30 -1.58,-0.38 -1.65,-0.46 -1.69,-0.56 -1.73,-0.66 -1.74,-0.76 -1.74,-0.87 -1.72,-0.97 -1.69,-1.08 -1.63,-1.16 -1.57,-1.25 -1.49,-1.32 -1.40,-1.38 -1.30,-1.42 -1.20,-1.45 -1.10,-1.45 -0.99,-1.45 -0.89,-1.42 -0.79,-1.39 -0.70,-1.32 -0.62,-1.26 -0.56,-1.17 -0.50,-1.08 -0.47,-0.98 -0.44,-0.88 -0.44,-0.77 -0.45,-0.67 -0.49,-0.57 -0.53,-0.47 -0.59,-0.39 -0.66,-0.31 -0.75,-0.25 -0.84,-0.19 -0.95,-0.17 -1.05,-0.15 -1.16,-0.16 -1.26,-0.17 -1.36,-0.21 -1.46,-0.26 -1.53,-0.33 -1.61,-0.40 -1.66,-0.50 -1.71,-0.59 -1.66,-0.49 -1.61,-0.39 -1.65,-0.46 -1.69,-0.53 -1.71,-0.61 -1.74,-0.68 -1.74,-0.76 -1.75,-0.84 -1.73,-0.92 -1.72,-0.99 -1.69,-1.07 -1.66,-1.14 -1.61,-1.20 -1.56,-1.26 -1.50,-1.31 -1.43,-1.36 -1.36,-1.40 -1.29,-1.43 -1.21,-1.44 -1.14,-1.46 -1.06,-1.45 -0.98,-1.45 -0.90,-1.43 -0.83,-1.40 -0.76,-1.36 -0.69,-1.32 -0.63,-1.27 -0.58,-1.21 0.71,-1.51 2.00,-1.80 2.52,-1.09 3.04,-0.37 3.35,0.52 3.66,1.42 3.83,2.65 4.01,3.89 3.90,5.40 3.80,6.92 3.32,8.63 2.85,10.33 2.06,11.68 1.27,13.02 0.42,13.27 -0.43,13.51 -1.63,12.45 -2.83,11.39 -3.21,9.85 -3.59,8.30 -3.70,6.19 -3.81,4.07 -3.81,2.61 -3.82,1.15 -3.58,0.09 -3.35,-0.97 -3.02,-1.69 -2.70,-2.41 -2.13,-2.87 -1.56,-3.33 -0.64,-3.21 0.28,-3.08 0.70,-2.32 1.12,-1.56 0.92,-0.78 0.72,0 0.71,0.08 0.70,0.17 0.67,0.25 0.64,0.33 0.59,0.40 0.54,0.48 0.47,0.54 0.41,0.59 0.33,0.63 0.25,0.67 0.17,0.70 0.08,0.72 -0.00,0.72 -0.08,0.72 -0.17,0.70 -0.25,0.67 -0.33,0.63 -0.41,0.59 -0.47,0.54 -0.54,0.48 -0.59,0.40 -0.64,0.33 -0.67,0.25 -0.70,0.17 -0.71,0.08 -0.72,-0.00 -0.72,-0.00 L -0.72,0 Z"></path></g><g transform="translate(137.27025748297478 26.535635412017697) rotate(0 5.3066641619211765 -0.353772212576807)" stroke="none"><path fill="#2f9e44" d="M 0.20,-0.83 Q 0.20,-0.83 0.66,-0.98 1.12,-1.13 1.69,-1.21 2.27,-1.30 3.69,-1.71 5.10,-2.13 6.13,-2.33 7.15,-2.52 8.87,-1.81 10.60,-1.10 10.68,-1.03 10.77,-0.97 10.83,-0.88 10.89,-0.79 10.91,-0.69 10.94,-0.59 10.94,-0.48 10.93,-0.38 10.89,-0.28 10.85,-0.18 10.78,-0.10 10.71,-0.02 10.62,0.03 10.53,0.08 10.43,0.10 10.32,0.13 10.22,0.11 10.11,0.10 10.01,0.06 9.92,0.01 9.84,-0.05 9.76,-0.12 9.72,-0.22 9.67,-0.31 9.65,-0.42 9.63,-0.52 9.65,-0.63 9.67,-0.73 9.72,-0.83 9.77,-0.92 9.85,-0.99 9.92,-1.06 10.02,-1.11 10.12,-1.15 10.22,-1.16 10.33,-1.18 10.43,-1.15 10.54,-1.13 10.63,-1.07 10.72,-1.02 10.79,-0.94 10.85,-0.86 10.89,-0.76 10.93,-0.66 10.94,-0.55 10.94,-0.45 10.91,-0.34 10.88,-0.24 10.82,-0.15 10.76,-0.07 10.68,-0.00 10.59,0.05 10.49,0.09 10.39,0.12 10.29,0.12 10.18,0.12 10.08,0.08 9.98,0.05 9.98,0.05 9.98,0.05 8.83,0.14 7.68,0.24 6.77,0.41 5.86,0.58 4.17,1.02 2.48,1.47 1.49,1.50 0.50,1.54 0.14,1.18 -0.20,0.83 -0.30,0.80 -0.40,0.76 -0.48,0.70 -0.57,0.64 -0.64,0.56 -0.71,0.48 -0.76,0.39 -0.80,0.30 -0.83,0.20 -0.85,0.10 -0.85,-0.00 -0.85,-0.10 -0.83,-0.20 -0.80,-0.30 -0.75,-0.40 -0.70,-0.49 -0.64,-0.57 -0.57,-0.64 -0.48,-0.70 -0.39,-0.76 -0.30,-0.80 -0.20,-0.84 -0.10,-0.85 0.00,-0.86 0.10,-0.85 0.20,-0.83 0.20,-0.83 L 0.20,-0.83 Z"></path></g><g transform="translate(161.6809126278122 38.56408497547493) rotate(0 3.7146649133448335 0.530666416192112)" stroke="none"><path fill="#2f9e44" d="M 0.14,-0.73 Q 0.14,-0.73 1.20,-0.72 2.25,-0.71 2.95,-0.63 3.64,-0.56 5.36,-0.11 7.08,0.33 7.18,0.37 7.28,0.40 7.37,0.47 7.45,0.53 7.51,0.62 7.57,0.71 7.60,0.81 7.63,0.91 7.62,1.02 7.62,1.12 7.58,1.22 7.54,1.32 7.47,1.40 7.40,1.48 7.31,1.54 7.22,1.59 7.12,1.62 7.01,1.64 6.91,1.63 6.80,1.62 6.70,1.57 6.61,1.53 6.53,1.45 6.45,1.38 6.40,1.29 6.35,1.19 6.34,1.09 6.32,0.98 6.34,0.88 6.35,0.77 6.40,0.68 6.45,0.58 6.53,0.51 6.61,0.44 6.70,0.39 6.80,0.35 6.91,0.34 7.01,0.33 7.12,0.35 7.22,0.37 7.31,0.43 7.40,0.48 7.47,0.56 7.54,0.64 7.58,0.74 7.62,0.84 7.62,0.95 7.63,1.05 7.60,1.16 7.57,1.26 7.51,1.35 7.45,1.43 7.37,1.50 7.28,1.56 7.18,1.60 7.08,1.63 6.98,1.63 6.87,1.63 6.87,1.63 6.87,1.63 5.12,1.67 3.37,1.72 2.59,1.62 1.81,1.52 0.83,1.13 -0.14,0.73 -0.23,0.70 -0.31,0.67 -0.39,0.63 -0.47,0.58 -0.53,0.51 -0.59,0.45 -0.64,0.37 -0.68,0.29 -0.71,0.21 -0.74,0.12 -0.74,0.03 -0.74,-0.05 -0.73,-0.14 -0.71,-0.23 -0.67,-0.31 -0.63,-0.39 -0.57,-0.46 -0.52,-0.53 -0.45,-0.59 -0.37,-0.64 -0.29,-0.68 -0.21,-0.72 -0.12,-0.73 -0.03,-0.75 0.05,-0.74 0.14,-0.73 0.14,-0.73 L 0.14,-0.73 Z"></path></g><g transform="translate(161.3271242205816 48.82362489208667) rotate(0 4.4222255331522575 -1.4151050449610452)" stroke="none"><path fill="#2f9e44" d="M -0.26,-0.68 Q -0.26,-0.68 1.82,-1.63 3.90,-2.58 6.30,-2.70 8.69,-2.81 8.79,-2.78 8.89,-2.74 8.98,-2.67 9.06,-2.61 9.12,-2.52 9.17,-2.43 9.20,-2.33 9.22,-2.22 9.22,-2.12 9.21,-2.01 9.17,-1.91 9.12,-1.82 9.05,-1.74 8.98,-1.66 8.89,-1.61 8.80,-1.55 8.69,-1.53 8.59,-1.51 8.48,-1.53 8.38,-1.54 8.28,-1.59 8.19,-1.64 8.11,-1.71 8.04,-1.79 7.99,-1.88 7.94,-1.98 7.93,-2.08 7.91,-2.19 7.93,-2.29 7.95,-2.40 8.01,-2.49 8.06,-2.58 8.14,-2.65 8.22,-2.72 8.31,-2.76 8.41,-2.81 8.52,-2.82 8.62,-2.82 8.73,-2.80 8.83,-2.77 8.92,-2.72 9.01,-2.66 9.08,-2.58 9.14,-2.49 9.18,-2.39 9.21,-2.29 9.22,-2.19 9.22,-2.08 9.19,-1.98 9.16,-1.88 9.10,-1.79 9.03,-1.70 8.95,-1.64 8.86,-1.58 8.76,-1.55 8.66,-1.52 8.55,-1.52 8.45,-1.52 8.45,-1.52 8.45,-1.52 6.54,-1.10 4.63,-0.67 2.44,0.00 0.26,0.68 0.17,0.70 0.08,0.72 0.00,0.72 -0.08,0.72 -0.17,0.70 -0.25,0.68 -0.33,0.64 -0.41,0.60 -0.48,0.54 -0.54,0.48 -0.59,0.41 -0.64,0.34 -0.67,0.25 -0.70,0.17 -0.71,0.08 -0.73,0.00 -0.72,-0.08 -0.70,-0.17 -0.67,-0.25 -0.64,-0.33 -0.59,-0.41 -0.54,-0.48 -0.48,-0.54 -0.41,-0.60 -0.33,-0.64 -0.26,-0.68 -0.26,-0.68 L -0.26,-0.68 Z"></path></g><g transform="translate(182.90756927549694 39.979190020435965) rotate(0 6.721769206882229 -2.8302181872489953)" stroke="none"><path fill="#2f9e44" d="M -0.55,-0.52 Q -0.55,-0.52 0.77,-2.32 2.11,-4.13 2.96,-5.03 3.82,-5.93 4.66,-6.58 5.51,-7.24 7.13,-8.15 8.75,-9.06 9.63,-9.54 10.51,-10.02 11.58,-10.12 12.66,-10.22 13.40,-9.47 14.13,-8.72 13.93,-7.50 13.73,-6.27 13.41,-5.18 13.09,-4.08 12.64,-2.77 12.19,-1.45 11.92,-0.35 11.64,0.74 11.26,2.11 10.88,3.49 10.87,3.59 10.86,3.70 10.82,3.80 10.78,3.89 10.71,3.97 10.64,4.05 10.55,4.11 10.46,4.16 10.35,4.18 10.25,4.20 10.14,4.19 10.04,4.18 9.94,4.13 9.85,4.08 9.77,4.01 9.69,3.93 9.65,3.84 9.60,3.74 9.58,3.64 9.57,3.53 9.59,3.43 9.61,3.33 9.66,3.23 9.71,3.14 9.79,3.07 9.86,3.00 9.96,2.95 10.06,2.91 10.16,2.90 10.27,2.89 10.37,2.92 10.48,2.94 10.57,3.00 10.66,3.05 10.72,3.14 10.79,3.22 10.83,3.32 10.87,3.42 10.87,3.52 10.88,3.63 10.84,3.73 10.81,3.83 10.75,3.92 10.69,4.01 10.61,4.07 10.52,4.13 10.42,4.16 10.32,4.20 10.21,4.19 10.11,4.19 10.01,4.16 9.91,4.12 9.82,4.05 9.74,3.99 9.68,3.90 9.62,3.81 9.60,3.71 9.57,3.61 9.57,3.61 9.57,3.61 9.29,1.84 9.02,0.08 9.32,-1.12 9.63,-2.33 10.07,-3.59 10.50,-4.84 11.10,-6.27 11.70,-7.70 10.86,-7.24 10.01,-6.79 8.54,-5.98 7.07,-5.18 6.37,-4.66 5.68,-4.15 4.83,-3.26 3.98,-2.37 2.27,-0.92 0.55,0.52 0.48,0.57 0.41,0.63 0.33,0.67 0.24,0.71 0.16,0.73 0.07,0.75 -0.02,0.75 -0.11,0.75 -0.20,0.72 -0.29,0.70 -0.37,0.65 -0.45,0.61 -0.51,0.55 -0.58,0.48 -0.63,0.41 -0.68,0.33 -0.71,0.24 -0.74,0.16 -0.75,0.06 -0.76,-0.02 -0.74,-0.11 -0.73,-0.20 -0.69,-0.28 -0.66,-0.37 -0.60,-0.44 -0.55,-0.52 -0.55,-0.52 L -0.55,-0.52 Z"></path></g><g stroke-linecap="round" transform="translate(286.36850179148774 65.73568472617194) rotate(0 9.08931846017856 7.195713337057896)"><path d="M9.02 -0.32 C10.9 -0.44, 13.76 0.7, 15.25 1.84 C16.74 2.98, 17.71 4.93, 17.97 6.53 C18.24 8.12, 17.82 10.12, 16.86 11.41 C15.89 12.7, 14.12 13.81, 12.19 14.26 C10.25 14.72, 7.04 14.75, 5.23 14.14 C3.43 13.53, 2.18 12, 1.36 10.58 C0.55 9.17, -0.01 7.12, 0.34 5.67 C0.7 4.22, 1.93 2.8, 3.5 1.87 C5.07 0.94, 8.66 0.3, 9.77 0.08 C10.87 -0.15, 10.03 0.45, 10.12 0.52 M10.45 -0.47 C12.24 -0.57, 13.5 0.83, 14.88 1.98 C16.25 3.12, 18.43 4.93, 18.7 6.4 C18.97 7.87, 17.72 9.56, 16.5 10.81 C15.29 12.06, 13.32 13.35, 11.41 13.89 C9.5 14.44, 6.77 14.66, 5.07 14.06 C3.37 13.47, 1.95 11.88, 1.19 10.31 C0.43 8.75, -0.03 6.11, 0.53 4.66 C1.09 3.22, 2.94 2.3, 4.55 1.65 C6.16 1, 9.35 1.05, 10.17 0.76 C11 0.47, 9.45 -0.19, 9.48 -0.09" stroke="#1e1e1e" stroke-width="0.5" fill="none"></path></g><g transform="translate(309.8201749326524 32) rotate(0 -1 3.9999923706054688)" stroke="none"><path fill="#2f9e44" d="M -0.43,-0.52 Q -0.43,-0.52 0.14,-0.99 0.72,-1.46 -0.06,-1.26 -0.85,-1.05 -1.31,-0.76 -1.77,-0.47 -2.14,0.09 -2.51,0.66 -2.86,1.60 -3.20,2.53 -3.45,3.66 -3.69,4.79 -3.70,6.23 -3.71,7.68 -3.07,7.52 -2.43,7.37 -1.36,6.18 -0.28,5.00 0.44,4.04 1.18,3.08 1.41,2.29 1.65,1.49 1.48,0.86 1.31,0.22 0.64,-0.39 -0.03,-1.01 -0.66,-1.10 -1.29,-1.18 -2.76,-1.15 -4.23,-1.12 -4.34,-1.10 -4.44,-1.08 -4.55,-1.09 -4.65,-1.11 -4.75,-1.15 -4.84,-1.20 -4.92,-1.27 -5.00,-1.35 -5.04,-1.44 -5.09,-1.54 -5.11,-1.64 -5.12,-1.75 -5.10,-1.85 -5.08,-1.96 -5.03,-2.05 -4.98,-2.14 -4.90,-2.21 -4.83,-2.29 -4.73,-2.33 -4.63,-2.37 -4.53,-2.38 -4.42,-2.39 -4.32,-2.37 -4.21,-2.34 -4.12,-2.29 -4.03,-2.23 -3.97,-2.15 -3.90,-2.06 -3.86,-1.97 -3.82,-1.87 -3.82,-1.76 -3.81,-1.65 -3.84,-1.55 -3.87,-1.45 -3.94,-1.36 -4.00,-1.28 -4.08,-1.21 -4.17,-1.15 -4.27,-1.12 -4.37,-1.09 -4.48,-1.09 -4.58,-1.09 -4.68,-1.13 -4.78,-1.16 -4.87,-1.23 -4.95,-1.29 -5.01,-1.38 -5.07,-1.47 -5.09,-1.57 -5.12,-1.68 -5.11,-1.78 -5.10,-1.89 -5.06,-1.99 -5.02,-2.08 -4.95,-2.16 -4.88,-2.24 -4.79,-2.30 -4.70,-2.35 -4.70,-2.35 -4.70,-2.35 -2.79,-3.00 -0.87,-3.66 0.17,-3.42 1.22,-3.18 2.06,-2.58 2.89,-1.99 3.34,-1.10 3.78,-0.21 3.90,0.96 4.03,2.14 3.61,3.35 3.18,4.56 2.36,5.63 1.54,6.69 0.31,8.01 -0.91,9.34 -2.15,10.09 -3.38,10.84 -4.38,10.48 -5.39,10.13 -5.80,8.89 -6.22,7.66 -6.18,5.95 -6.15,4.25 -5.85,2.93 -5.54,1.61 -5.04,0.40 -4.54,-0.81 -3.82,-1.69 -3.10,-2.58 -2.36,-3.00 -1.62,-3.42 -0.86,-3.60 -0.10,-3.78 0.61,-3.64 1.33,-3.51 1.90,-2.80 2.48,-2.08 2.03,-1.26 1.57,-0.44 1.00,0.03 0.43,0.52 0.36,0.56 0.29,0.61 0.22,0.63 0.14,0.66 0.06,0.67 -0.02,0.68 -0.10,0.66 -0.18,0.65 -0.25,0.62 -0.33,0.59 -0.40,0.54 -0.46,0.49 -0.51,0.43 -0.57,0.36 -0.60,0.29 -0.64,0.22 -0.66,0.14 -0.67,0.06 -0.67,-0.02 -0.67,-0.10 -0.65,-0.18 -0.62,-0.26 -0.58,-0.33 -0.54,-0.40 -0.49,-0.46 -0.43,-0.52 -0.43,-0.52 L -0.43,-0.52 Z"></path></g><g transform="translate(302.15351843851175 13) rotate(0 6.666656494140625 -1.5)" stroke="none"><path fill="#2f9e44" d="M -0.10,-0.73 Q -0.10,-0.73 1.88,-1.15 3.88,-1.58 5.37,-1.90 6.86,-2.22 7.78,-2.45 8.69,-2.68 10.78,-3.12 12.88,-3.56 12.98,-3.57 13.09,-3.58 13.19,-3.55 13.29,-3.52 13.38,-3.47 13.47,-3.41 13.54,-3.33 13.60,-3.24 13.64,-3.14 13.68,-3.04 13.68,-2.94 13.68,-2.83 13.65,-2.73 13.62,-2.63 13.56,-2.54 13.50,-2.46 13.41,-2.40 13.32,-2.33 13.22,-2.30 13.12,-2.27 13.01,-2.27 12.91,-2.28 12.81,-2.31 12.71,-2.35 12.63,-2.42 12.54,-2.48 12.49,-2.57 12.43,-2.66 12.40,-2.77 12.38,-2.87 12.39,-2.98 12.40,-3.08 12.44,-3.18 12.48,-3.28 12.55,-3.36 12.62,-3.43 12.71,-3.49 12.81,-3.54 12.91,-3.56 13.02,-3.58 13.12,-3.56 13.23,-3.55 13.32,-3.50 13.42,-3.45 13.49,-3.38 13.57,-3.30 13.61,-3.21 13.66,-3.11 13.68,-3.01 13.69,-2.90 13.67,-2.80 13.65,-2.69 13.60,-2.60 13.54,-2.51 13.47,-2.44 13.39,-2.37 13.29,-2.33 13.19,-2.28 13.19,-2.28 13.19,-2.28 11.75,-1.67 10.32,-1.06 9.76,-0.85 9.20,-0.64 8.24,-0.40 7.28,-0.17 5.72,0.12 4.16,0.43 2.13,0.58 0.10,0.73 0.01,0.73 -0.07,0.73 -0.16,0.71 -0.24,0.69 -0.32,0.65 -0.40,0.61 -0.47,0.55 -0.54,0.50 -0.59,0.42 -0.64,0.35 -0.67,0.27 -0.71,0.19 -0.72,0.10 -0.73,0.01 -0.72,-0.07 -0.72,-0.16 -0.69,-0.24 -0.66,-0.32 -0.61,-0.40 -0.56,-0.47 -0.49,-0.53 -0.43,-0.59 -0.35,-0.64 -0.27,-0.68 -0.19,-0.70 -0.10,-0.73 -0.10,-0.73 L -0.10,-0.73 Z"></path></g><g transform="translate(299.8201749326524 19.666656494140625) rotate(0 6.6666717529296875 0.333343505859375)" stroke="none"><path fill="#2f9e44" d="M 0.52,-0.52 Q 0.52,-0.52 1.02,-0.34 1.52,-0.16 2.10,-0.15 2.67,-0.14 3.64,-0.24 4.60,-0.33 5.68,-0.58 6.75,-0.84 8.14,-0.98 9.53,-1.12 11.04,-1.16 12.56,-1.19 12.67,-1.19 12.77,-1.20 12.87,-1.16 12.97,-1.13 13.06,-1.07 13.14,-1.00 13.21,-0.92 13.27,-0.83 13.30,-0.73 13.32,-0.62 13.32,-0.52 13.32,-0.41 13.28,-0.31 13.24,-0.21 13.17,-0.13 13.10,-0.05 13.01,0.00 12.92,0.05 12.82,0.07 12.72,0.10 12.61,0.09 12.50,0.08 12.41,0.03 12.31,-0.00 12.23,-0.07 12.15,-0.14 12.10,-0.24 12.05,-0.33 12.03,-0.43 12.02,-0.54 12.03,-0.64 12.05,-0.75 12.10,-0.84 12.15,-0.94 12.22,-1.01 12.30,-1.09 12.39,-1.13 12.49,-1.18 12.60,-1.19 12.70,-1.20 12.81,-1.18 12.91,-1.16 13.00,-1.11 13.09,-1.05 13.16,-0.97 13.23,-0.89 13.27,-0.79 13.31,-0.69 13.32,-0.59 13.33,-0.48 13.30,-0.38 13.27,-0.28 13.21,-0.19 13.15,-0.10 13.07,-0.03 12.99,0.02 12.89,0.06 12.79,0.09 12.79,0.09 12.79,0.09 11.33,0.58 9.87,1.07 8.61,1.34 7.34,1.61 6.23,1.88 5.12,2.14 3.66,2.23 2.19,2.33 1.09,2.01 0.00,1.69 -0.26,1.11 -0.52,0.52 -0.58,0.45 -0.63,0.38 -0.67,0.30 -0.71,0.22 -0.72,0.13 -0.74,0.04 -0.74,-0.04 -0.73,-0.13 -0.70,-0.22 -0.68,-0.30 -0.63,-0.38 -0.58,-0.46 -0.52,-0.52 -0.46,-0.58 -0.38,-0.63 -0.30,-0.68 -0.22,-0.70 -0.13,-0.73 -0.04,-0.74 0.04,-0.74 0.13,-0.72 0.22,-0.71 0.30,-0.67 0.38,-0.63 0.45,-0.58 0.52,-0.52 0.52,-0.52 L 0.52,-0.52 Z"></path></g><g transform="translate(332.15351843851175 35.33332824707031) rotate(0 6.8333282470703125 0.5)" stroke="none"><path fill="#2f9e44" d="M 0.32,-0.64 Q 0.32,-0.64 1.02,-0.62 1.73,-0.61 2.59,-0.51 3.45,-0.40 4.56,-0.38 5.66,-0.36 6.91,-0.36 8.15,-0.35 8.87,-0.34 9.60,-0.34 11.35,-0.27 13.10,-0.19 13.21,-0.19 13.31,-0.19 13.41,-0.15 13.51,-0.12 13.60,-0.05 13.68,0.00 13.74,0.09 13.80,0.18 13.83,0.28 13.85,0.39 13.85,0.49 13.84,0.60 13.80,0.70 13.76,0.79 13.69,0.87 13.62,0.95 13.53,1.01 13.43,1.06 13.33,1.08 13.23,1.10 13.12,1.09 13.02,1.08 12.92,1.03 12.82,0.99 12.75,0.91 12.67,0.84 12.62,0.74 12.57,0.65 12.56,0.54 12.54,0.44 12.56,0.33 12.58,0.23 12.63,0.14 12.68,0.04 12.76,-0.02 12.84,-0.09 12.94,-0.13 13.03,-0.18 13.14,-0.19 13.24,-0.20 13.35,-0.17 13.45,-0.15 13.54,-0.09 13.63,-0.04 13.70,0.04 13.77,0.12 13.80,0.22 13.84,0.32 13.85,0.42 13.85,0.53 13.82,0.63 13.79,0.73 13.73,0.82 13.67,0.91 13.58,0.97 13.50,1.03 13.40,1.06 13.30,1.10 13.30,1.10 13.30,1.10 11.44,1.71 9.59,2.33 8.86,2.32 8.13,2.32 6.87,2.31 5.61,2.30 4.43,2.28 3.24,2.25 2.45,2.17 1.66,2.10 1.11,1.93 0.56,1.76 0.12,1.20 -0.32,0.64 -0.39,0.59 -0.46,0.54 -0.52,0.48 -0.58,0.41 -0.62,0.34 -0.66,0.26 -0.68,0.18 -0.70,0.10 -0.71,0.01 -0.71,-0.07 -0.69,-0.15 -0.67,-0.24 -0.63,-0.31 -0.59,-0.39 -0.54,-0.46 -0.48,-0.52 -0.41,-0.57 -0.34,-0.62 -0.26,-0.65 -0.18,-0.69 -0.09,-0.70 -0.01,-0.71 0.07,-0.70 0.15,-0.69 0.23,-0.66 0.32,-0.64 0.32,-0.64 L 0.32,-0.64 Z"></path></g><g transform="translate(325.15351843851175 43) rotate(0 5.666656494140625 -0.33333587646484375)" stroke="none"><path fill="#2f9e44" d="M 0,-0.77 Q 0,-0.77 0.67,-0.97 1.34,-1.16 2.33,-1.26 3.33,-1.36 4.38,-1.58 5.44,-1.81 6.35,-1.92 7.26,-2.03 9.10,-1.68 10.95,-1.33 11.05,-1.31 11.15,-1.29 11.25,-1.24 11.34,-1.18 11.41,-1.10 11.48,-1.03 11.52,-0.93 11.56,-0.83 11.57,-0.72 11.58,-0.62 11.55,-0.51 11.52,-0.41 11.47,-0.32 11.41,-0.23 11.32,-0.17 11.24,-0.10 11.14,-0.07 11.04,-0.03 10.93,-0.03 10.83,-0.03 10.73,-0.06 10.63,-0.09 10.54,-0.15 10.45,-0.22 10.39,-0.30 10.33,-0.39 10.30,-0.49 10.27,-0.59 10.27,-0.70 10.28,-0.81 10.32,-0.90 10.35,-1.00 10.42,-1.09 10.49,-1.17 10.58,-1.23 10.67,-1.28 10.77,-1.31 10.87,-1.33 10.98,-1.32 11.09,-1.31 11.18,-1.27 11.28,-1.23 11.36,-1.15 11.44,-1.08 11.49,-0.99 11.54,-0.90 11.56,-0.79 11.58,-0.69 11.56,-0.58 11.55,-0.48 11.50,-0.38 11.45,-0.29 11.38,-0.21 11.30,-0.14 11.21,-0.09 11.11,-0.05 11.00,-0.03 10.90,-0.02 10.90,-0.02 10.90,-0.02 9.21,0.14 7.52,0.32 6.72,0.41 5.92,0.49 4.73,0.73 3.55,0.98 2.44,1.07 1.34,1.16 0.67,0.97 0,0.77 -0.09,0.76 -0.18,0.75 -0.27,0.72 -0.36,0.68 -0.43,0.63 -0.51,0.58 -0.57,0.51 -0.64,0.44 -0.68,0.35 -0.72,0.27 -0.75,0.18 -0.77,0.09 -0.77,-0.00 -0.77,-0.09 -0.75,-0.18 -0.72,-0.27 -0.68,-0.35 -0.64,-0.44 -0.57,-0.51 -0.51,-0.58 -0.43,-0.63 -0.36,-0.68 -0.27,-0.72 -0.18,-0.75 -0.09,-0.76 0.00,-0.77 0.00,-0.77 L 0,-0.77 Z"></path></g><g transform="translate(358.486831426793 32.666656494140625) rotate(0 5.333343505859375 2.5)" stroke="none"><path fill="#2f9e44" d="M -0.41,-0.62 Q -0.41,-0.62 0.04,-1.16 0.51,-1.70 1.14,-2.38 1.76,-3.06 2.30,-3.51 2.85,-3.96 3.41,-4.50 3.98,-5.03 4.69,-5.52 5.40,-6.01 6.09,-6.40 6.78,-6.80 7.67,-7.29 8.57,-7.78 9.16,-7.77 9.74,-7.75 10.31,-7.31 10.87,-6.87 11.31,-6.39 11.75,-5.91 11.72,-5.25 11.68,-4.60 11.54,-3.73 11.39,-2.87 11.35,-2.04 11.31,-1.22 11.16,-0.37 11.01,0.46 10.87,1.32 10.72,2.17 10.41,3.05 10.09,3.93 9.90,4.91 9.71,5.90 9.68,6.91 9.64,7.92 9.15,9.66 8.65,11.40 8.64,11.48 8.63,11.56 8.60,11.63 8.57,11.71 8.53,11.77 8.48,11.84 8.42,11.89 8.36,11.94 8.29,11.98 8.22,12.01 8.14,12.03 8.07,12.05 7.99,12.05 7.91,12.05 7.83,12.03 7.76,12.01 7.69,11.97 7.62,11.93 7.56,11.88 7.50,11.82 7.45,11.76 7.41,11.69 7.38,11.62 7.36,11.54 7.35,11.47 7.34,11.39 7.36,11.29 7.37,11.19 7.42,11.10 7.47,11.00 7.54,10.93 7.62,10.86 7.72,10.81 7.81,10.77 7.92,10.75 8.02,10.74 8.13,10.76 8.23,10.78 8.32,10.84 8.41,10.89 8.48,10.97 8.55,11.05 8.59,11.15 8.64,11.25 8.64,11.35 8.65,11.46 8.62,11.56 8.60,11.66 8.54,11.75 8.48,11.84 8.39,11.91 8.31,11.97 8.21,12.01 8.11,12.04 8.00,12.04 7.90,12.04 7.80,12.01 7.70,11.98 7.61,11.92 7.52,11.85 7.46,11.77 7.40,11.68 7.37,11.58 7.34,11.47 7.35,11.37 7.35,11.26 7.39,11.16 7.43,11.06 7.50,10.98 7.56,10.90 7.65,10.84 7.75,10.79 7.85,10.76 7.95,10.74 8.06,10.75 8.16,10.76 8.26,10.80 8.36,10.85 8.44,10.92 8.51,10.99 8.56,11.09 8.62,11.18 8.63,11.28 8.65,11.39 8.65,11.40 8.65,11.40 8.64,11.48 8.63,11.56 8.60,11.63 8.57,11.71 8.53,11.77 8.48,11.84 8.42,11.89 8.36,11.94 8.29,11.98 8.22,12.01 8.14,12.03 8.07,12.05 7.99,12.05 7.91,12.05 7.83,12.03 7.76,12.01 7.69,11.97 7.62,11.93 7.56,11.88 7.50,11.82 7.45,11.76 7.41,11.69 7.38,11.62 7.36,11.54 7.35,11.47 7.34,11.39 7.19,9.62 7.05,7.86 7.06,7.32 7.08,6.78 7.11,6.20 7.15,5.61 7.24,4.88 7.33,4.16 7.51,3.55 7.69,2.95 7.97,2.19 8.24,1.44 8.34,0.83 8.45,0.21 8.51,-0.34 8.57,-0.89 8.67,-1.57 8.77,-2.24 8.93,-3.15 9.09,-4.07 9.26,-4.84 9.43,-5.61 8.69,-5.18 7.95,-4.75 7.33,-4.40 6.71,-4.05 6.15,-3.68 5.58,-3.31 4.96,-2.73 4.33,-2.15 3.88,-1.79 3.43,-1.42 2.60,-0.62 1.78,0.17 1.10,0.39 0.41,0.62 0.33,0.66 0.25,0.70 0.16,0.72 0.07,0.75 -0.01,0.74 -0.10,0.74 -0.19,0.72 -0.27,0.70 -0.35,0.65 -0.43,0.61 -0.50,0.55 -0.57,0.49 -0.62,0.41 -0.67,0.33 -0.70,0.25 -0.73,0.16 -0.74,0.07 -0.75,-0.01 -0.74,-0.10 -0.72,-0.19 -0.69,-0.27 -0.66,-0.36 -0.60,-0.43 -0.55,-0.50 -0.48,-0.56 -0.41,-0.62 -0.41,-0.62 L -0.41,-0.62 Z"></path></g><g transform="translate(360.15351843851175 17) rotate(0 8 -0.1666717529296875)" stroke="none"><path fill="#2f9e44" d="M -0.12,-0.74 Q -0.12,-0.74 0.41,-1.07 0.94,-1.40 1.55,-1.54 2.15,-1.69 2.71,-1.67 3.26,-1.66 3.89,-1.65 4.52,-1.64 5.18,-1.64 5.84,-1.64 6.93,-1.54 8.02,-1.44 8.78,-1.41 9.53,-1.37 10.52,-1.36 11.50,-1.34 12.11,-1.32 12.71,-1.30 14.15,-0.83 15.59,-0.36 15.67,-0.36 15.75,-0.36 15.83,-0.34 15.90,-0.32 15.97,-0.28 16.04,-0.24 16.10,-0.19 16.16,-0.13 16.20,-0.07 16.25,-0.00 16.28,0.06 16.30,0.14 16.31,0.22 16.32,0.30 16.31,0.37 16.30,0.45 16.27,0.53 16.24,0.60 16.19,0.66 16.15,0.73 16.09,0.78 16.03,0.83 15.96,0.87 15.89,0.90 15.81,0.92 15.73,0.94 16.01,0.72 16.28,0.50 16.23,0.60 16.18,0.69 16.10,0.76 16.02,0.83 15.93,0.88 15.83,0.92 15.72,0.93 15.62,0.94 15.51,0.92 15.41,0.89 15.32,0.84 15.23,0.78 15.16,0.70 15.10,0.62 15.06,0.52 15.02,0.42 15.01,0.31 15.01,0.21 15.04,0.10 15.07,0.00 15.13,-0.08 15.19,-0.16 15.28,-0.23 15.36,-0.29 15.46,-0.32 15.56,-0.35 15.67,-0.35 15.78,-0.35 15.88,-0.32 15.98,-0.28 16.06,-0.22 16.15,-0.15 16.20,-0.06 16.26,0.02 16.29,0.12 16.32,0.22 16.31,0.33 16.30,0.44 16.26,0.53 16.22,0.63 16.15,0.71 16.08,0.79 15.99,0.84 15.90,0.90 15.79,0.92 15.69,0.94 15.58,0.93 15.48,0.92 15.38,0.87 15.29,0.82 15.21,0.75 15.13,0.68 15.09,0.58 15.04,0.49 15.02,0.38 15.01,0.28 15.30,-0.04 15.59,-0.36 15.67,-0.36 15.75,-0.36 15.83,-0.34 15.90,-0.32 15.97,-0.28 16.04,-0.24 16.10,-0.19 16.16,-0.13 16.20,-0.07 16.25,-0.00 16.28,0.06 16.30,0.14 16.31,0.22 16.32,0.30 16.31,0.37 16.30,0.45 16.27,0.53 16.24,0.60 16.19,0.66 16.15,0.73 16.09,0.78 16.03,0.83 15.96,0.87 15.89,0.90 15.81,0.92 15.73,0.94 14.34,1.12 12.96,1.30 12.21,1.31 11.47,1.32 10.44,1.28 9.40,1.25 8.55,1.20 7.69,1.16 7.00,1.06 6.31,0.97 5.73,0.97 5.15,0.96 4.46,0.94 3.76,0.93 3.20,0.84 2.65,0.76 2.00,0.89 1.35,1.01 0.73,0.88 0.12,0.74 0.03,0.75 -0.05,0.75 -0.14,0.73 -0.23,0.72 -0.32,0.68 -0.40,0.64 -0.47,0.58 -0.54,0.52 -0.60,0.45 -0.65,0.38 -0.69,0.29 -0.72,0.21 -0.74,0.12 -0.75,0.03 -0.75,-0.05 -0.74,-0.14 -0.71,-0.23 -0.68,-0.32 -0.63,-0.40 -0.59,-0.47 -0.52,-0.54 -0.45,-0.60 -0.37,-0.65 -0.30,-0.69 -0.21,-0.72 -0.12,-0.74 -0.12,-0.74 L -0.12,-0.74 Z"></path></g><g transform="translate(393.15351843851175 34.33332824707031) rotate(0 6.666656494140625 0)" stroke="none"><path fill="#2f9e44" d="M -0.32,-0.97 Q -0.32,-0.97 0.48,-1.42 1.29,-1.87 1.81,-2.01 2.34,-2.15 2.90,-2.13 3.46,-2.11 4.08,-1.84 4.70,-1.57 5.45,-1.24 6.20,-0.91 6.71,-0.77 7.22,-0.62 7.87,-0.55 8.51,-0.48 9.38,-0.56 10.25,-0.64 11.86,-0.06 13.46,0.52 13.51,0.58 13.56,0.64 13.60,0.71 13.63,0.78 13.65,0.86 13.66,0.93 13.66,1.01 13.66,1.09 13.64,1.17 13.62,1.24 13.58,1.31 13.54,1.38 13.49,1.44 13.43,1.50 13.36,1.54 13.30,1.58 13.22,1.61 13.15,1.64 13.07,1.64 12.99,1.65 12.91,1.64 12.83,1.63 12.76,1.60 12.69,1.56 12.62,1.52 12.56,1.47 12.72,1.55 12.87,1.64 12.78,1.60 12.68,1.56 12.59,1.49 12.51,1.42 12.46,1.33 12.40,1.24 12.38,1.14 12.36,1.03 12.37,0.93 12.38,0.82 12.42,0.73 12.46,0.63 12.54,0.55 12.61,0.47 12.70,0.42 12.80,0.37 12.90,0.35 13.01,0.34 13.11,0.35 13.22,0.37 13.31,0.42 13.40,0.47 13.48,0.54 13.55,0.62 13.60,0.72 13.64,0.81 13.65,0.92 13.67,1.02 13.64,1.13 13.62,1.23 13.57,1.32 13.51,1.41 13.43,1.48 13.35,1.55 13.25,1.59 13.16,1.63 13.05,1.64 12.94,1.65 12.84,1.62 12.74,1.59 12.65,1.53 12.56,1.47 12.50,1.39 12.43,1.30 12.40,1.20 12.36,1.10 12.36,1.00 12.36,0.89 12.40,0.79 12.43,0.69 12.49,0.60 12.56,0.52 12.64,0.46 12.73,0.40 12.83,0.37 12.94,0.34 13.20,0.43 13.46,0.52 13.51,0.58 13.56,0.64 13.60,0.71 13.63,0.78 13.65,0.86 13.66,0.93 13.66,1.01 13.66,1.09 13.64,1.17 13.62,1.24 13.58,1.31 13.54,1.38 13.49,1.44 13.43,1.50 13.36,1.54 13.30,1.58 13.22,1.61 13.15,1.64 13.07,1.64 12.99,1.65 12.91,1.64 12.83,1.63 12.76,1.60 12.69,1.57 12.62,1.52 12.56,1.47 11.14,1.82 9.72,2.16 9.04,2.27 8.36,2.39 7.39,2.25 6.41,2.12 5.78,1.93 5.15,1.73 4.28,1.34 3.41,0.95 2.78,0.83 2.15,0.72 1.24,0.84 0.32,0.97 0.20,0.99 0.08,1.02 -0.04,1.01 -0.16,1.01 -0.28,0.97 -0.40,0.94 -0.50,0.88 -0.61,0.81 -0.70,0.73 -0.79,0.64 -0.86,0.54 -0.92,0.43 -0.96,0.32 -1.00,0.20 -1.01,0.08 -1.02,-0.04 -1.00,-0.16 -0.98,-0.28 -0.93,-0.39 -0.88,-0.51 -0.81,-0.61 -0.73,-0.71 -0.64,-0.78 -0.54,-0.86 -0.43,-0.92 -0.32,-0.97 -0.32,-0.97 L -0.32,-0.97 Z"></path></g><g transform="translate(387.8201749326524 43.33332824707031) rotate(0 9.166671752929688 0.1666717529296875)" stroke="none"><path fill="#2f9e44" d="M 0,-0.74 Q 0,-0.74 0.76,-1.02 1.53,-1.30 2.55,-1.33 3.57,-1.36 4.52,-1.51 5.47,-1.66 6.01,-1.69 6.54,-1.71 7.56,-1.73 8.58,-1.74 9.29,-1.64 10.00,-1.54 10.57,-1.50 11.14,-1.47 11.77,-1.46 12.39,-1.44 13.16,-1.45 13.94,-1.47 14.56,-1.22 15.19,-0.98 14.63,-0.68 14.06,-0.39 14.69,-0.57 15.32,-0.75 16.58,-0.77 17.84,-0.78 17.93,-0.83 18.03,-0.88 18.13,-0.89 18.24,-0.91 18.34,-0.89 18.45,-0.87 18.54,-0.82 18.63,-0.77 18.70,-0.69 18.78,-0.61 18.82,-0.51 18.86,-0.41 18.87,-0.31 18.88,-0.20 18.85,-0.10 18.83,0.00 18.77,0.08 18.71,0.17 18.63,0.24 18.55,0.31 18.45,0.34 18.35,0.38 18.24,0.39 18.14,0.39 18.04,0.36 17.93,0.33 17.85,0.26 17.76,0.20 17.70,0.12 17.64,0.03 17.60,-0.06 17.57,-0.16 17.58,-0.27 17.58,-0.37 17.61,-0.47 17.65,-0.57 17.72,-0.66 17.78,-0.74 17.87,-0.80 17.96,-0.86 18.07,-0.88 18.17,-0.91 18.27,-0.90 18.38,-0.89 18.48,-0.85 18.58,-0.81 18.66,-0.74 18.73,-0.67 18.79,-0.57 18.84,-0.48 18.86,-0.38 18.88,-0.27 18.87,-0.17 18.85,-0.06 18.80,0.02 18.76,0.12 18.68,0.19 18.61,0.27 18.61,0.27 18.61,0.27 16.54,1.05 14.48,1.82 15.01,1.68 15.55,1.55 14.68,1.45 13.81,1.36 13.07,1.37 12.34,1.39 11.65,1.37 10.96,1.35 9.78,1.22 8.59,1.08 7.62,1.09 6.64,1.10 5.74,1.13 4.84,1.16 4.21,1.26 3.58,1.36 2.56,1.33 1.53,1.30 0.76,1.02 0,0.74 -0.08,0.73 -0.17,0.72 -0.26,0.69 -0.34,0.66 -0.42,0.61 -0.49,0.55 -0.55,0.49 -0.61,0.42 -0.65,0.34 -0.69,0.26 -0.72,0.17 -0.74,0.09 -0.74,-0.00 -0.74,-0.09 -0.72,-0.17 -0.69,-0.26 -0.65,-0.34 -0.61,-0.42 -0.55,-0.49 -0.49,-0.55 -0.42,-0.61 -0.34,-0.66 -0.26,-0.69 -0.17,-0.72 -0.08,-0.73 0.00,-0.74 0.00,-0.74 L 0,-0.74 Z"></path></g><g transform="translate(430.8201749326524 33.666656494140625) rotate(0 -5.166656494140625 5.500007629394531)" stroke="none"><path fill="#2f9e44" d="M 0.25,1.18 Q 0.25,1.18 -1.93,1.73 -4.11,2.29 -5.16,2.49 -6.20,2.70 -7.12,2.88 -8.03,3.06 -8.89,3.49 -9.76,3.92 -10.56,4.36 -11.36,4.81 -11.69,5.78 -12.02,6.76 -11.99,7.40 -11.96,8.03 -11.29,8.76 -10.61,9.48 -9.79,10.13 -8.97,10.78 -8.41,11.33 -7.84,11.87 -7.09,11.59 -6.35,11.32 -5.18,10.94 -4.01,10.57 -3.37,10.25 -2.72,9.93 -2.03,9.59 -1.33,9.26 -0.52,8.48 0.28,7.70 0.65,6.74 1.01,5.79 1.33,5.15 1.65,4.51 1.75,3.73 1.86,2.96 1.75,2.32 1.64,1.68 0.96,1.15 0.28,0.62 -0.60,0.15 -1.50,-0.32 -2.97,-0.80 -4.44,-1.29 -4.53,-1.23 -4.61,-1.16 -4.71,-1.13 -4.81,-1.10 -4.92,-1.10 -5.03,-1.10 -5.13,-1.13 -5.23,-1.17 -5.31,-1.23 -5.39,-1.30 -5.45,-1.39 -5.51,-1.48 -5.54,-1.58 -5.57,-1.68 -5.56,-1.79 -5.55,-1.89 -5.51,-1.99 -5.47,-2.09 -5.40,-2.17 -5.33,-2.25 -5.24,-2.30 -5.15,-2.36 -5.05,-2.38 -4.94,-2.40 -4.84,-2.39 -4.73,-2.38 -4.64,-2.33 -4.54,-2.29 -4.46,-2.21 -4.39,-2.14 -4.34,-2.04 -4.29,-1.95 -4.27,-1.84 -4.26,-1.74 -4.28,-1.64 -4.29,-1.53 -4.34,-1.44 -4.39,-1.34 -4.47,-1.27 -4.55,-1.20 -4.65,-1.16 -4.74,-1.11 -4.85,-1.10 -4.96,-1.09 -5.06,-1.11 -5.16,-1.14 -5.25,-1.19 -5.34,-1.25 -5.41,-1.33 -5.48,-1.41 -5.52,-1.51 -5.56,-1.61 -5.56,-1.72 -5.57,-1.82 -5.54,-1.92 -5.51,-2.03 -5.45,-2.11 -5.39,-2.20 -5.39,-2.20 -5.39,-2.20 -2.79,-2.52 -0.20,-2.83 0.77,-2.30 1.76,-1.78 2.60,-1.10 3.45,-0.43 3.78,0.01 4.11,0.46 4.30,1.24 4.49,2.02 4.57,2.61 4.65,3.21 4.58,3.81 4.51,4.42 4.33,5.10 4.15,5.79 3.90,6.26 3.65,6.74 3.38,7.45 3.11,8.17 2.68,8.93 2.24,9.69 1.72,10.19 1.19,10.69 0.55,11.22 -0.08,11.75 -0.80,12.11 -1.53,12.46 -2.41,12.86 -3.30,13.27 -4.36,13.61 -5.43,13.96 -6.20,14.20 -6.97,14.45 -7.77,14.45 -8.58,14.46 -9.45,13.90 -10.32,13.34 -10.91,12.81 -11.49,12.29 -12.00,11.91 -12.50,11.53 -13.25,10.76 -14.01,10.00 -14.37,9.08 -14.73,8.17 -14.73,7.15 -14.73,6.13 -14.41,5.06 -14.09,3.99 -13.42,3.22 -12.76,2.45 -11.40,1.73 -10.04,1.02 -9.31,0.70 -8.58,0.39 -7.66,0.20 -6.73,0.02 -5.71,-0.17 -4.69,-0.37 -2.47,-0.77 -0.25,-1.18 -0.11,-1.19 0.03,-1.20 0.17,-1.18 0.32,-1.16 0.45,-1.11 0.59,-1.05 0.70,-0.96 0.82,-0.88 0.92,-0.77 1.01,-0.65 1.07,-0.52 1.14,-0.39 1.17,-0.25 1.20,-0.11 1.20,0.03 1.19,0.17 1.15,0.31 1.11,0.46 1.04,0.58 0.97,0.71 0.87,0.82 0.77,0.92 0.65,1.00 0.53,1.08 0.39,1.13 0.25,1.18 0.25,1.18 L 0.25,1.18 Z"></path></g><g transform="translate(22.486831426793003 107.33332824707031) rotate(0 5.499992370605469 2.0000076293945312)" stroke="none"><path fill="#f08c00" d="M -0.41,-0.61 Q -0.41,-0.61 0.29,-1.42 0.99,-2.24 2.17,-2.90 3.35,-3.55 4.62,-4.47 5.90,-5.39 6.80,-6.15 7.71,-6.91 8.46,-7.47 9.20,-8.03 9.35,-8.06 9.51,-8.09 9.66,-8.18 9.80,-8.26 9.97,-8.31 10.13,-8.36 10.31,-8.37 10.48,-8.37 10.65,-8.34 10.82,-8.31 10.97,-8.23 11.13,-8.16 11.26,-8.05 11.40,-7.94 11.50,-7.80 11.60,-7.67 11.67,-7.51 11.74,-7.35 11.77,-7.18 11.80,-7.01 11.78,-6.84 11.77,-6.67 11.71,-6.50 11.66,-6.34 11.57,-6.19 11.48,-6.05 11.35,-5.93 11.23,-5.81 11.35,-5.13 11.48,-4.44 11.79,-3.75 12.10,-3.07 12.21,-2.35 12.33,-1.63 12.45,-1.07 12.57,-0.51 12.55,0.59 12.52,1.69 12.42,3.07 12.31,4.45 12.06,5.69 11.81,6.93 11.61,7.74 11.40,8.55 10.98,9.88 10.56,11.21 10.53,11.28 10.50,11.36 10.46,11.42 10.41,11.49 10.35,11.54 10.29,11.59 10.22,11.63 10.15,11.66 10.08,11.68 10.00,11.70 9.92,11.70 9.84,11.70 9.76,11.68 9.69,11.66 9.62,11.62 9.55,11.59 9.49,11.53 9.43,11.48 9.38,11.41 9.34,11.35 9.31,11.27 9.29,11.20 9.28,11.12 9.27,11.04 9.28,10.96 9.29,10.89 9.50,10.66 9.72,10.43 9.82,10.41 9.93,10.39 10.03,10.41 10.14,10.43 10.23,10.48 10.32,10.53 10.40,10.60 10.47,10.68 10.51,10.78 10.56,10.88 10.57,10.98 10.58,11.09 10.56,11.19 10.53,11.29 10.48,11.38 10.42,11.48 10.34,11.54 10.26,11.61 10.16,11.65 10.06,11.69 9.96,11.70 9.85,11.70 9.75,11.67 9.65,11.64 9.56,11.58 9.47,11.52 9.41,11.44 9.34,11.35 9.31,11.25 9.28,11.15 9.28,11.05 9.28,10.94 9.31,10.84 9.35,10.74 9.41,10.65 9.47,10.57 9.56,10.51 9.65,10.45 9.75,10.42 9.86,10.40 9.96,10.40 10.07,10.41 10.17,10.45 10.27,10.49 10.35,10.56 10.43,10.63 10.48,10.72 10.54,10.81 10.56,10.91 10.58,11.02 10.57,11.12 10.56,11.23 10.51,11.32 10.47,11.42 10.39,11.50 10.32,11.57 10.44,11.39 10.56,11.21 10.53,11.28 10.50,11.36 10.46,11.42 10.41,11.49 10.35,11.54 10.29,11.59 10.22,11.63 10.15,11.66 10.08,11.68 10.00,11.70 9.92,11.70 9.84,11.70 9.76,11.68 9.69,11.66 9.62,11.62 9.55,11.59 9.49,11.53 9.43,11.48 9.38,11.41 9.34,11.35 9.31,11.27 9.29,11.20 9.28,11.12 9.27,11.04 9.28,10.96 9.29,10.89 8.90,9.35 8.50,7.81 8.70,7.07 8.89,6.32 9.12,5.26 9.35,4.20 9.47,2.88 9.59,1.55 9.66,0.79 9.72,0.03 9.60,-0.62 9.47,-1.28 9.29,-2.04 9.11,-2.81 8.87,-3.74 8.64,-4.67 8.78,-5.46 8.92,-6.26 9.21,-7.17 9.51,-8.09 9.65,-8.18 9.80,-8.26 9.97,-8.31 10.13,-8.36 10.31,-8.37 10.48,-8.37 10.65,-8.34 10.82,-8.31 10.97,-8.23 11.13,-8.16 11.26,-8.05 11.40,-7.94 11.50,-7.80 11.60,-7.67 11.67,-7.51 11.74,-7.35 11.77,-7.18 11.80,-7.01 11.78,-6.84 11.77,-6.67 11.71,-6.50 11.66,-6.34 11.57,-6.19 11.48,-6.05 11.35,-5.93 11.23,-5.81 10.98,-5.78 10.74,-5.74 10.10,-5.26 9.46,-4.77 8.46,-3.97 7.45,-3.16 6.04,-2.21 4.63,-1.25 3.54,-0.65 2.45,-0.05 1.43,0.27 0.41,0.61 0.33,0.65 0.25,0.69 0.16,0.71 0.07,0.73 -0.01,0.73 -0.10,0.73 -0.18,0.71 -0.27,0.68 -0.35,0.64 -0.43,0.60 -0.49,0.54 -0.56,0.48 -0.61,0.40 -0.66,0.33 -0.69,0.24 -0.72,0.16 -0.73,0.07 -0.73,-0.01 -0.72,-0.10 -0.71,-0.18 -0.68,-0.27 -0.64,-0.35 -0.59,-0.42 -0.54,-0.49 -0.47,-0.55 -0.41,-0.61 -0.41,-0.61 L -0.41,-0.61 Z"></path></g><g transform="translate(129.486831426793 108.33332824707031) rotate(0 3.3333282470703125 6.666664123535156)" stroke="none"><path fill="#f08c00" d="M -0.23,-0.71 Q -0.23,-0.71 0.25,-1.14 0.75,-1.58 1.52,-1.77 2.29,-1.97 3.02,-2.23 3.75,-2.48 4.24,-2.69 4.74,-2.90 5.50,-2.90 6.26,-2.90 6.88,-2.29 7.51,-1.67 7.67,-0.94 7.83,-0.20 7.81,0.57 7.79,1.35 7.77,2.29 7.76,3.23 7.65,4.64 7.55,6.06 7.40,7.34 7.26,8.63 7.20,9.24 7.14,9.86 7.02,11.18 6.91,12.50 6.00,13.33 5.10,14.16 5.08,14.24 5.07,14.32 5.03,14.39 5.00,14.46 4.95,14.52 4.90,14.58 4.83,14.63 4.77,14.68 4.69,14.71 4.62,14.74 4.54,14.75 4.46,14.76 4.39,14.75 4.31,14.75 4.23,14.72 4.16,14.69 4.09,14.65 4.02,14.61 3.97,14.55 3.92,14.49 3.88,14.42 3.84,14.36 3.82,14.28 3.80,14.20 3.79,14.12 3.79,14.04 3.83,14.23 3.87,14.42 3.83,14.32 3.80,14.21 3.80,14.11 3.80,14.00 3.83,13.90 3.86,13.80 3.93,13.72 3.99,13.63 4.08,13.57 4.17,13.51 4.27,13.48 4.37,13.45 4.48,13.46 4.58,13.46 4.68,13.50 4.78,13.54 4.86,13.61 4.94,13.68 5.00,13.77 5.05,13.86 5.08,13.96 5.10,14.07 5.09,14.17 5.08,14.28 5.04,14.37 4.99,14.47 4.92,14.55 4.85,14.63 4.75,14.68 4.66,14.73 4.55,14.74 4.45,14.76 4.34,14.74 4.24,14.73 4.15,14.68 4.05,14.63 3.98,14.55 3.90,14.48 3.86,14.38 3.81,14.28 3.80,14.18 3.79,14.07 3.81,13.97 3.83,13.86 3.89,13.77 3.94,13.68 4.02,13.61 4.10,13.54 4.20,13.50 4.30,13.46 4.41,13.46 4.51,13.45 4.62,13.48 4.72,13.51 4.81,13.57 4.89,13.63 5.00,13.90 5.10,14.16 5.08,14.24 5.07,14.32 5.03,14.39 5.00,14.46 4.95,14.52 4.90,14.58 4.83,14.63 4.77,14.68 4.69,14.71 4.62,14.74 4.54,14.75 4.46,14.76 4.39,14.75 4.31,14.75 4.23,14.72 4.16,14.70 4.09,14.65 4.02,14.61 3.97,14.55 3.92,14.49 3.88,14.42 3.84,14.36 3.82,14.28 3.80,14.20 3.79,14.12 3.79,14.04 3.95,13.15 4.11,12.25 4.23,10.92 4.36,9.60 4.42,8.96 4.48,8.31 4.62,7.08 4.75,5.85 4.86,4.51 4.96,3.17 5.07,1.84 5.18,0.52 5.44,0.02 5.70,-0.47 5.14,-0.26 4.58,-0.05 3.74,0.22 2.90,0.49 2.22,0.65 1.54,0.81 0.89,0.76 0.23,0.71 0.14,0.73 0.06,0.74 -0.03,0.74 -0.12,0.74 -0.20,0.71 -0.29,0.69 -0.37,0.64 -0.45,0.59 -0.51,0.53 -0.58,0.47 -0.63,0.39 -0.67,0.32 -0.70,0.23 -0.73,0.14 -0.74,0.05 -0.75,-0.03 -0.73,-0.11 -0.72,-0.20 -0.68,-0.29 -0.64,-0.37 -0.59,-0.44 -0.54,-0.52 -0.47,-0.57 -0.40,-0.63 -0.31,-0.67 -0.23,-0.71 -0.23,-0.71 L -0.23,-0.71 Z"></path></g><g transform="translate(127.486831426793 99.99998474121094) rotate(0 4.666656494140625 0.00000762939453125)" stroke="none"><path fill="#f08c00" d="M 0.12,-0.84 Q 0.12,-0.84 0.82,-0.96 1.52,-1.08 3.06,-1.13 4.60,-1.17 6.81,-1.07 9.01,-0.97 9.12,-0.96 9.23,-0.95 9.32,-0.90 9.42,-0.86 9.50,-0.78 9.57,-0.71 9.62,-0.62 9.67,-0.52 9.69,-0.42 9.71,-0.31 9.69,-0.21 9.67,-0.10 9.62,-0.01 9.57,0.07 9.49,0.15 9.42,0.22 9.32,0.26 9.22,0.31 9.12,0.32 9.01,0.33 8.91,0.31 8.80,0.29 8.71,0.23 8.62,0.18 8.55,0.09 8.49,0.01 8.45,-0.07 8.41,-0.17 8.40,-0.28 8.40,-0.39 8.42,-0.49 8.45,-0.59 8.51,-0.68 8.57,-0.77 8.66,-0.83 8.74,-0.89 8.84,-0.93 8.94,-0.96 9.05,-0.96 9.16,-0.96 9.26,-0.93 9.36,-0.89 9.44,-0.83 9.53,-0.76 9.59,-0.68 9.65,-0.59 9.67,-0.49 9.70,-0.38 9.70,-0.28 9.69,-0.17 9.65,-0.07 9.61,0.02 9.54,0.10 9.47,0.18 9.38,0.23 9.29,0.29 9.19,0.31 9.08,0.33 9.08,0.33 9.08,0.33 6.93,0.87 4.79,1.40 3.59,1.48 2.39,1.56 1.77,1.51 1.15,1.47 0.51,1.15 -0.12,0.84 -0.22,0.82 -0.32,0.79 -0.41,0.74 -0.50,0.69 -0.57,0.62 -0.65,0.55 -0.70,0.46 -0.76,0.38 -0.80,0.28 -0.83,0.18 -0.84,0.08 -0.85,-0.01 -0.84,-0.12 -0.82,-0.22 -0.78,-0.31 -0.74,-0.41 -0.68,-0.49 -0.62,-0.58 -0.54,-0.64 -0.47,-0.71 -0.37,-0.76 -0.28,-0.80 -0.18,-0.82 -0.08,-0.85 0.01,-0.84 0.12,-0.84 0.12,-0.84 L 0.12,-0.84 Z"></path></g><g transform="translate(145.82014441507425 109.99998474121094) rotate(0 3.5 0.33333587646484375)" stroke="none"><path fill="#f08c00" d="M -0.06,-0.76 Q -0.06,-0.76 1.05,-1.20 2.18,-1.64 4.59,-0.68 7.00,0.26 7.08,0.32 7.17,0.39 7.23,0.47 7.29,0.56 7.32,0.66 7.35,0.76 7.35,0.87 7.34,0.98 7.30,1.08 7.27,1.17 7.20,1.26 7.13,1.34 7.04,1.39 6.95,1.45 6.85,1.47 6.74,1.50 6.64,1.49 6.53,1.48 6.43,1.43 6.34,1.39 6.26,1.32 6.18,1.25 6.13,1.15 6.08,1.06 6.06,0.96 6.04,0.85 6.06,0.75 6.07,0.64 6.12,0.55 6.17,0.45 6.25,0.38 6.32,0.30 6.42,0.26 6.52,0.21 6.62,0.20 6.73,0.19 6.83,0.21 6.93,0.23 7.03,0.28 7.12,0.34 7.19,0.42 7.26,0.50 7.30,0.60 7.34,0.69 7.35,0.80 7.35,0.91 7.33,1.01 7.30,1.11 7.24,1.20 7.18,1.29 7.10,1.35 7.01,1.42 6.91,1.45 6.81,1.49 6.71,1.49 6.60,1.49 6.50,1.46 6.40,1.43 6.40,1.43 6.40,1.43 4.41,1.34 2.41,1.25 1.24,1.01 0.06,0.76 -0.02,0.76 -0.12,0.75 -0.21,0.73 -0.29,0.70 -0.38,0.66 -0.46,0.61 -0.52,0.55 -0.59,0.48 -0.64,0.40 -0.69,0.33 -0.72,0.24 -0.75,0.15 -0.76,0.06 -0.76,-0.02 -0.75,-0.12 -0.73,-0.21 -0.70,-0.29 -0.66,-0.38 -0.61,-0.45 -0.55,-0.53 -0.48,-0.59 -0.41,-0.64 -0.32,-0.68 -0.24,-0.72 -0.15,-0.74 -0.06,-0.76 -0.06,-0.76 L -0.06,-0.76 Z"></path></g><g transform="translate(147.486831426793 117.99998474121094) rotate(0 2.83331298828125 1.1666717529296875)" stroke="none"><path fill="#f08c00" d="M 0.71,-0.28 Q 0.71,-0.28 1.06,0.02 1.42,0.33 3.68,0.85 5.94,1.38 6.05,1.38 6.15,1.39 6.25,1.43 6.35,1.47 6.43,1.54 6.51,1.60 6.57,1.69 6.62,1.79 6.65,1.89 6.67,1.99 6.66,2.10 6.65,2.20 6.60,2.30 6.56,2.40 6.48,2.47 6.41,2.55 6.32,2.60 6.22,2.65 6.12,2.67 6.01,2.69 5.91,2.67 5.80,2.65 5.71,2.60 5.62,2.55 5.54,2.48 5.47,2.40 5.43,2.30 5.38,2.21 5.37,2.10 5.36,2.00 5.38,1.89 5.40,1.79 5.46,1.70 5.51,1.61 5.59,1.54 5.67,1.47 5.77,1.43 5.87,1.39 5.98,1.38 6.08,1.38 6.19,1.41 6.29,1.43 6.38,1.49 6.46,1.55 6.53,1.64 6.59,1.72 6.63,1.82 6.66,1.92 6.66,2.03 6.66,2.14 6.63,2.24 6.59,2.34 6.53,2.42 6.47,2.51 6.38,2.57 6.29,2.63 6.19,2.65 6.09,2.68 6.09,2.68 6.09,2.68 3.50,2.68 0.91,2.68 0.12,2.13 -0.65,1.58 -0.68,0.93 -0.71,0.28 -0.73,0.19 -0.76,0.10 -0.76,0.01 -0.76,-0.07 -0.74,-0.16 -0.72,-0.25 -0.68,-0.34 -0.64,-0.42 -0.58,-0.49 -0.52,-0.56 -0.44,-0.62 -0.36,-0.67 -0.28,-0.70 -0.19,-0.74 -0.10,-0.75 -0.01,-0.76 0.07,-0.75 0.17,-0.74 0.25,-0.71 0.34,-0.68 0.42,-0.63 0.49,-0.58 0.56,-0.51 0.62,-0.44 0.66,-0.36 0.71,-0.28 0.71,-0.28 L 0.71,-0.28 Z"></path></g><g transform="translate(172.15348792093363 106.66665649414062) rotate(0 -2 5.166664123535156)" stroke="none"><path fill="#f08c00" d="M -0.06,0.76 Q -0.06,0.76 -1.10,0.91 -2.13,1.07 -2.58,1.37 -3.02,1.67 -3.55,2.19 -4.07,2.72 -4.34,3.37 -4.61,4.02 -4.71,5.40 -4.80,6.78 -4.87,8.19 -4.93,9.59 -4.87,10.49 -4.80,11.39 -4.26,12.06 -3.73,12.73 -3.12,12.64 -2.52,12.55 -2.11,12.21 -1.69,11.87 -1.28,11.34 -0.86,10.80 -0.55,9.76 -0.24,8.72 0.11,7.46 0.48,6.20 0.61,5.25 0.75,4.31 0.81,3.45 0.87,2.58 0.80,1.83 0.73,1.07 0.46,0.40 0.18,-0.26 -0.11,-0.84 -0.40,-1.42 -0.76,-1.86 -1.11,-2.31 -2.24,-2.05 -3.37,-1.80 -3.41,-1.86 -3.45,-1.93 -3.47,-2.01 -3.49,-2.08 -3.50,-2.16 -3.50,-2.24 -3.48,-2.32 -3.47,-2.40 -3.43,-2.47 -3.40,-2.54 -3.35,-2.60 -3.30,-2.66 -3.24,-2.71 -3.17,-2.76 -3.10,-2.79 -3.03,-2.82 -2.95,-2.83 -2.87,-2.85 -2.79,-2.84 -2.71,-2.84 -2.64,-2.81 -2.56,-2.79 -2.50,-2.74 -2.43,-2.70 -2.38,-2.64 -2.32,-2.59 -2.40,-2.12 -2.48,-1.65 -2.58,-1.60 -2.67,-1.56 -2.78,-1.55 -2.88,-1.54 -2.99,-1.56 -3.09,-1.58 -3.18,-1.64 -3.27,-1.69 -3.34,-1.77 -3.41,-1.86 -3.45,-1.96 -3.49,-2.05 -3.49,-2.16 -3.50,-2.27 -3.47,-2.37 -3.44,-2.47 -3.38,-2.56 -3.32,-2.65 -3.23,-2.71 -3.15,-2.77 -3.05,-2.81 -2.95,-2.84 -2.84,-2.84 -2.73,-2.84 -2.63,-2.80 -2.53,-2.77 -2.45,-2.71 -2.36,-2.64 -2.31,-2.55 -2.25,-2.46 -2.22,-2.36 -2.19,-2.26 -2.20,-2.15 -2.20,-2.05 -2.24,-1.95 -2.28,-1.85 -2.35,-1.77 -2.42,-1.69 -2.51,-1.63 -2.60,-1.58 -2.71,-1.56 -2.81,-1.54 -2.92,-1.55 -3.02,-1.56 -3.12,-1.60 -3.22,-1.65 -3.29,-1.72 -3.37,-1.80 -3.42,-1.89 -3.47,-1.99 -3.48,-2.09 -3.50,-2.20 -3.48,-2.30 -3.46,-2.40 -3.41,-2.50 -3.36,-2.59 -3.37,-2.19 -3.37,-1.80 -3.41,-1.86 -3.45,-1.93 -3.47,-2.01 -3.49,-2.08 -3.50,-2.16 -3.50,-2.24 -3.48,-2.32 -3.47,-2.40 -3.43,-2.47 -3.40,-2.54 -3.35,-2.60 -3.30,-2.66 -3.24,-2.71 -3.17,-2.76 -3.10,-2.79 -3.03,-2.82 -2.95,-2.83 -2.87,-2.85 -2.79,-2.84 -2.71,-2.84 -2.64,-2.81 -2.56,-2.79 -2.50,-2.74 -2.43,-2.70 -2.38,-2.64 -2.32,-2.59 -0.64,-3.30 1.03,-4.01 1.53,-3.34 2.03,-2.66 2.39,-1.94 2.74,-1.22 3.10,-0.19 3.45,0.83 3.52,1.80 3.59,2.78 3.51,3.75 3.43,4.72 3.25,5.84 3.07,6.95 2.69,8.28 2.30,9.60 1.75,11.04 1.20,12.48 0.49,13.27 -0.21,14.06 -1.10,14.58 -1.98,15.10 -2.91,15.19 -3.83,15.28 -4.67,14.94 -5.51,14.59 -6.06,13.98 -6.62,13.36 -7.00,12.51 -7.39,11.66 -7.47,10.57 -7.54,9.48 -7.48,8.01 -7.42,6.54 -7.22,4.77 -7.02,3.00 -6.59,2.08 -6.17,1.16 -5.63,0.52 -5.09,-0.12 -4.61,-0.40 -4.12,-0.68 -3.10,-1.07 -2.08,-1.45 -1.00,-1.10 0.06,-0.76 0.15,-0.74 0.24,-0.72 0.33,-0.68 0.41,-0.64 0.48,-0.58 0.55,-0.52 0.61,-0.44 0.66,-0.37 0.70,-0.29 0.73,-0.20 0.74,-0.11 0.76,-0.02 0.75,0.06 0.74,0.16 0.71,0.24 0.68,0.33 0.63,0.41 0.58,0.48 0.51,0.55 0.45,0.61 0.37,0.66 0.29,0.70 0.20,0.73 0.11,0.75 0.02,0.75 -0.06,0.76 -0.06,0.76 L -0.06,0.76 Z"></path></g><g transform="translate(298.486831426793 119.66665649414062) rotate(0 3.5 3.1666641235351562)" stroke="none"><path fill="#f08c00" d="M -0.96,-0.72 Q -0.96,-0.72 -0.46,-1.57 0.02,-2.41 1.02,-3.09 2.02,-3.78 2.73,-4.27 3.43,-4.76 4.64,-5.13 5.85,-5.50 6.62,-5.05 7.40,-4.59 7.60,-3.90 7.79,-3.20 7.68,-2.60 7.57,-2.00 7.32,-1.25 7.06,-0.49 6.78,0.42 6.50,1.35 6.31,2.79 6.11,4.23 5.92,5.57 5.73,6.90 4.42,9.03 3.11,11.16 3.01,11.20 2.91,11.24 2.80,11.24 2.70,11.24 2.59,11.21 2.49,11.18 2.41,11.12 2.32,11.06 2.26,10.97 2.19,10.89 2.16,10.79 2.13,10.69 2.13,10.58 2.14,10.47 2.17,10.37 2.21,10.27 2.27,10.19 2.34,10.11 2.43,10.05 2.52,9.99 2.62,9.97 2.72,9.94 2.83,9.95 2.94,9.96 3.03,10.00 3.13,10.04 3.21,10.11 3.29,10.18 3.34,10.27 3.40,10.36 3.42,10.47 3.44,10.57 3.42,10.68 3.41,10.78 3.36,10.88 3.32,10.97 3.24,11.05 3.17,11.12 3.07,11.17 2.98,11.22 2.87,11.23 2.77,11.25 2.66,11.23 2.56,11.21 2.47,11.16 2.37,11.11 2.30,11.03 2.23,10.95 2.19,10.85 2.15,10.75 2.14,10.65 2.13,10.54 2.15,10.44 2.18,10.34 2.23,10.25 2.29,10.16 2.37,10.09 2.46,10.02 2.46,10.02 2.46,10.02 2.64,8.25 2.82,6.49 3.00,5.15 3.19,3.82 3.44,2.16 3.68,0.49 3.98,-0.48 4.28,-1.46 4.67,-1.93 5.06,-2.39 4.31,-1.87 3.55,-1.35 2.91,-1.00 2.27,-0.64 1.61,0.03 0.96,0.72 0.86,0.82 0.76,0.93 0.64,1.01 0.51,1.09 0.38,1.13 0.24,1.18 0.09,1.19 -0.04,1.20 -0.19,1.18 -0.33,1.15 -0.46,1.10 -0.60,1.04 -0.71,0.95 -0.83,0.87 -0.92,0.75 -1.01,0.64 -1.08,0.51 -1.14,0.38 -1.17,0.24 -1.20,0.09 -1.19,-0.04 -1.19,-0.19 -1.15,-0.33 -1.11,-0.47 -1.03,-0.59 -0.96,-0.72 -0.96,-0.72 L -0.96,-0.72 Z"></path></g><g transform="translate(294.1534879209336 98.99998474121094) rotate(0 5.1666717529296875 0.33333587646484375)" stroke="none"><path fill="#f08c00" d="M 0.20,-0.73 Q 0.20,-0.73 0.94,-0.79 1.68,-0.85 2.61,-0.79 3.54,-0.73 4.25,-0.70 4.97,-0.67 5.84,-0.66 6.71,-0.65 8.28,-0.57 9.86,-0.49 9.96,-0.53 10.06,-0.56 10.17,-0.56 10.28,-0.56 10.38,-0.52 10.48,-0.49 10.56,-0.42 10.64,-0.36 10.70,-0.27 10.76,-0.18 10.79,-0.08 10.82,0.01 10.81,0.12 10.81,0.23 10.77,0.32 10.73,0.42 10.66,0.50 10.59,0.58 10.50,0.64 10.40,0.69 10.30,0.71 10.20,0.74 10.09,0.72 9.99,0.71 9.89,0.67 9.79,0.62 9.72,0.55 9.64,0.47 9.59,0.38 9.54,0.29 9.53,0.18 9.51,0.08 9.53,-0.02 9.54,-0.12 9.59,-0.22 9.65,-0.31 9.72,-0.38 9.80,-0.46 9.90,-0.50 9.99,-0.54 10.10,-0.55 10.21,-0.57 10.31,-0.54 10.41,-0.52 10.50,-0.46 10.59,-0.41 10.66,-0.33 10.73,-0.24 10.77,-0.15 10.81,-0.05 10.81,0.05 10.82,0.16 10.79,0.26 10.76,0.36 10.70,0.45 10.64,0.53 10.55,0.60 10.47,0.66 10.47,0.66 10.47,0.66 8.57,1.30 6.66,1.94 5.76,1.92 4.85,1.90 4.09,1.86 3.34,1.83 2.16,1.72 0.99,1.62 0.39,1.17 -0.20,0.73 -0.29,0.69 -0.37,0.66 -0.45,0.60 -0.52,0.55 -0.58,0.48 -0.64,0.40 -0.68,0.32 -0.72,0.24 -0.74,0.15 -0.75,0.06 -0.75,-0.02 -0.75,-0.11 -0.72,-0.20 -0.70,-0.29 -0.65,-0.37 -0.61,-0.45 -0.54,-0.52 -0.48,-0.58 -0.40,-0.63 -0.32,-0.68 -0.24,-0.71 -0.15,-0.74 -0.06,-0.75 0.02,-0.76 0.11,-0.74 0.20,-0.73 0.20,-0.73 L 0.20,-0.73 Z"></path></g><g transform="translate(293.486831426793 108.33332824707031) rotate(0 5.5 -0.1666717529296875)" stroke="none"><path fill="#f08c00" d="M -0.06,-1.10 Q -0.06,-1.10 1.45,-1.27 2.98,-1.45 4.00,-1.40 5.01,-1.35 5.78,-1.33 6.54,-1.31 8.53,-0.98 10.52,-0.65 10.62,-0.64 10.72,-0.62 10.82,-0.57 10.91,-0.52 10.98,-0.44 11.06,-0.36 11.10,-0.27 11.15,-0.17 11.16,-0.06 11.17,0.03 11.14,0.14 11.12,0.24 11.07,0.33 11.01,0.42 10.93,0.49 10.85,0.56 10.75,0.60 10.65,0.63 10.54,0.64 10.44,0.64 10.33,0.62 10.23,0.59 10.15,0.53 10.06,0.47 9.99,0.38 9.93,0.30 9.90,0.20 9.86,0.09 9.86,-0.00 9.86,-0.11 9.90,-0.21 9.93,-0.31 10.00,-0.39 10.06,-0.48 10.15,-0.54 10.24,-0.60 10.34,-0.62 10.44,-0.65 10.55,-0.64 10.66,-0.64 10.76,-0.60 10.85,-0.56 10.93,-0.49 11.01,-0.42 11.07,-0.33 11.12,-0.24 11.15,-0.13 11.17,-0.03 11.16,0.07 11.14,0.17 11.10,0.27 11.05,0.36 10.98,0.44 10.91,0.52 10.81,0.57 10.72,0.62 10.61,0.63 10.51,0.65 10.51,0.65 10.51,0.65 8.49,0.94 6.47,1.24 5.67,1.21 4.87,1.18 4.00,1.13 3.14,1.07 1.60,1.08 0.06,1.10 -0.06,1.09 -0.19,1.08 -0.32,1.04 -0.45,1.00 -0.56,0.94 -0.67,0.87 -0.77,0.77 -0.86,0.68 -0.93,0.56 -1.00,0.45 -1.04,0.32 -1.08,0.20 -1.09,0.06 -1.10,-0.06 -1.07,-0.19 -1.05,-0.32 -1.00,-0.44 -0.94,-0.56 -0.86,-0.67 -0.78,-0.78 -0.67,-0.86 -0.57,-0.94 -0.45,-0.99 -0.33,-1.05 -0.19,-1.07 -0.06,-1.10 -0.06,-1.10 L -0.06,-1.10 Z"></path></g><g transform="translate(314.486831426793 119.66665649414062) rotate(0 2.8333282470703125 -0.5)" stroke="none"><path fill="#f08c00" d="M -0.08,-0.89 Q -0.08,-0.89 0.95,-1.19 1.99,-1.49 3.59,-1.51 5.19,-1.52 5.29,-1.54 5.40,-1.56 5.50,-1.55 5.61,-1.53 5.70,-1.48 5.79,-1.43 5.87,-1.36 5.94,-1.28 5.99,-1.18 6.03,-1.09 6.05,-0.98 6.06,-0.88 6.04,-0.77 6.02,-0.67 5.96,-0.58 5.91,-0.48 5.83,-0.42 5.75,-0.35 5.65,-0.31 5.55,-0.26 5.44,-0.26 5.34,-0.25 5.24,-0.28 5.13,-0.31 5.04,-0.36 4.96,-0.42 4.89,-0.51 4.83,-0.59 4.79,-0.69 4.76,-0.79 4.75,-0.90 4.75,-1.00 4.79,-1.10 4.82,-1.21 4.88,-1.29 4.95,-1.38 5.03,-1.44 5.12,-1.50 5.22,-1.53 5.32,-1.56 5.43,-1.55 5.54,-1.55 5.64,-1.51 5.74,-1.47 5.82,-1.40 5.90,-1.34 5.95,-1.24 6.01,-1.15 6.03,-1.05 6.06,-0.95 6.05,-0.84 6.04,-0.74 5.99,-0.64 5.95,-0.54 5.88,-0.46 5.81,-0.39 5.71,-0.34 5.62,-0.28 5.62,-0.28 5.62,-0.28 3.92,0.40 2.22,1.10 1.15,1.00 0.08,0.89 -0.02,0.88 -0.13,0.88 -0.23,0.85 -0.34,0.82 -0.43,0.77 -0.53,0.72 -0.60,0.64 -0.68,0.57 -0.74,0.48 -0.80,0.39 -0.83,0.28 -0.87,0.18 -0.88,0.08 -0.89,-0.02 -0.87,-0.13 -0.86,-0.24 -0.82,-0.34 -0.77,-0.43 -0.71,-0.52 -0.65,-0.61 -0.56,-0.68 -0.48,-0.75 -0.38,-0.79 -0.29,-0.84 -0.18,-0.86 -0.08,-0.89 -0.08,-0.89 L -0.08,-0.89 Z"></path></g><g transform="translate(313.82014441507425 124.99998474121094) rotate(0 3.1666717529296875 0.5)" stroke="none"><path fill="#f08c00" d="M 0.20,-0.73 Q 0.20,-0.73 1.32,-0.69 2.44,-0.65 4.10,-0.30 5.76,0.03 5.87,0.05 5.97,0.06 6.07,0.10 6.17,0.15 6.24,0.22 6.32,0.29 6.37,0.39 6.42,0.48 6.44,0.59 6.45,0.69 6.44,0.80 6.42,0.90 6.37,0.99 6.32,1.09 6.24,1.16 6.16,1.23 6.07,1.28 5.97,1.32 5.86,1.33 5.76,1.34 5.66,1.32 5.55,1.30 5.46,1.24 5.37,1.19 5.30,1.11 5.23,1.03 5.19,0.93 5.15,0.83 5.15,0.72 5.14,0.62 5.17,0.51 5.20,0.41 5.26,0.32 5.32,0.24 5.41,0.17 5.49,0.11 5.59,0.07 5.69,0.04 5.80,0.04 5.90,0.04 6.00,0.08 6.11,0.11 6.19,0.17 6.27,0.24 6.33,0.33 6.39,0.42 6.42,0.52 6.45,0.62 6.44,0.73 6.44,0.83 6.40,0.93 6.36,1.03 6.29,1.11 6.22,1.19 6.13,1.25 6.04,1.30 5.93,1.32 5.83,1.35 5.83,1.35 5.83,1.35 3.80,1.57 1.77,1.80 0.78,1.27 -0.20,0.73 -0.28,0.70 -0.37,0.66 -0.44,0.61 -0.51,0.55 -0.57,0.48 -0.63,0.41 -0.67,0.33 -0.71,0.25 -0.73,0.16 -0.75,0.07 -0.75,-0.01 -0.75,-0.11 -0.72,-0.19 -0.70,-0.28 -0.66,-0.36 -0.61,-0.44 -0.55,-0.51 -0.49,-0.58 -0.41,-0.63 -0.33,-0.68 -0.25,-0.71 -0.16,-0.74 -0.07,-0.75 0.01,-0.76 0.10,-0.74 0.20,-0.73 0.20,-0.73 L 0.20,-0.73 Z"></path></g><g transform="translate(336.1534879209336 115.66665649414062) rotate(0 -2.8333282470703125 6)" stroke="none"><path fill="#f08c00" d="M 0.79,0.63 Q 0.79,0.63 -1.04,3.08 -2.89,5.54 -3.64,6.94 -4.39,8.35 -4.59,9.19 -4.79,10.02 -4.00,9.34 -3.22,8.66 -2.57,7.39 -1.92,6.13 -1.43,5.01 -0.94,3.89 -0.87,3.18 -0.79,2.48 -1.58,1.88 -2.38,1.28 -2.48,1.28 -2.59,1.28 -2.69,1.25 -2.79,1.22 -2.88,1.15 -2.96,1.09 -3.02,1.00 -3.08,0.91 -3.11,0.81 -3.14,0.71 -3.14,0.60 -3.13,0.50 -3.10,0.40 -3.06,0.30 -2.99,0.22 -2.92,0.14 -2.83,0.08 -2.74,0.02 -2.64,0.00 -2.54,-0.01 -2.43,-0.00 -2.32,0.00 -2.23,0.04 -2.13,0.08 -2.05,0.16 -1.97,0.23 -1.92,0.32 -1.87,0.41 -1.85,0.52 -1.83,0.62 -1.85,0.73 -1.87,0.83 -1.91,0.93 -1.96,1.02 -2.04,1.10 -2.12,1.17 -2.21,1.22 -2.31,1.26 -2.41,1.27 -2.52,1.29 -2.62,1.27 -2.73,1.24 -2.82,1.19 -2.91,1.14 -2.98,1.06 -3.05,0.98 -3.09,0.88 -3.13,0.78 -3.14,0.67 -3.14,0.57 -3.12,0.47 -3.09,0.36 -3.03,0.27 -2.97,0.19 -2.89,0.12 -2.81,0.06 -2.71,0.02 -2.61,-0.01 -2.61,-0.01 -2.61,-0.01 -0.57,0.58 1.46,1.18 1.60,1.98 1.75,2.78 1.57,3.84 1.39,4.90 0.83,6.13 0.27,7.36 -0.65,8.91 -1.57,10.46 -2.85,11.39 -4.12,12.32 -5.12,12.13 -6.12,11.94 -6.63,10.78 -7.13,9.62 -6.82,8.42 -6.52,7.21 -5.65,5.63 -4.77,4.04 -2.78,1.70 -0.79,-0.63 -0.70,-0.72 -0.62,-0.80 -0.51,-0.87 -0.40,-0.93 -0.29,-0.96 -0.17,-1.00 -0.05,-1.01 0.07,-1.01 0.19,-0.99 0.31,-0.96 0.42,-0.91 0.53,-0.86 0.63,-0.78 0.72,-0.71 0.80,-0.61 0.87,-0.51 0.92,-0.40 0.97,-0.29 0.99,-0.17 1.01,-0.05 1.00,0.07 1.00,0.19 0.96,0.31 0.92,0.42 0.86,0.53 0.79,0.63 0.79,0.63 L 0.79,0.63 Z"></path></g><g transform="translate(331.80972838419046 103.66665649414062) rotate(0 10.166671752929688 0.3333282470703125)" stroke="none"><path fill="#f08c00" d="M 0.08,-0.74 Q 0.08,-0.74 0.97,-0.95 1.87,-1.16 2.59,-1.03 3.31,-0.90 4.07,-0.87 4.83,-0.83 5.64,-0.82 6.46,-0.81 7.20,-0.90 7.94,-0.98 8.54,-1.19 9.14,-1.39 10.81,-1.66 12.48,-1.92 13.38,-1.98 14.28,-2.05 15.16,-2.07 16.04,-2.10 16.80,-2.01 17.57,-1.92 19.11,-0.58 20.66,0.74 20.72,0.82 20.79,0.91 20.83,1.01 20.86,1.11 20.86,1.21 20.86,1.32 20.83,1.42 20.80,1.52 20.74,1.61 20.67,1.69 20.59,1.75 20.50,1.82 20.40,1.85 20.30,1.88 20.19,1.87 20.08,1.87 19.98,1.83 19.89,1.79 19.80,1.73 19.72,1.66 19.67,1.57 19.61,1.48 19.58,1.37 19.56,1.27 19.57,1.16 19.58,1.06 19.62,0.96 19.67,0.86 19.74,0.79 19.81,0.71 19.90,0.66 19.99,0.61 20.10,0.59 20.20,0.57 20.31,0.58 20.41,0.60 20.51,0.65 20.60,0.70 20.68,0.77 20.75,0.85 20.80,0.94 20.84,1.04 20.86,1.14 20.87,1.25 20.85,1.35 20.83,1.46 20.78,1.55 20.72,1.64 20.64,1.71 20.56,1.78 20.46,1.82 20.37,1.86 20.26,1.87 20.15,1.88 20.05,1.85 19.95,1.82 19.86,1.77 19.77,1.71 19.77,1.71 19.77,1.71 18.47,1.35 17.17,1.00 16.64,0.92 16.12,0.84 15.30,0.86 14.48,0.88 13.66,0.94 12.83,0.99 11.42,1.19 10.00,1.40 9.12,1.65 8.24,1.90 7.31,1.99 6.38,2.07 5.51,2.03 4.64,2.00 3.69,1.91 2.74,1.83 2.16,1.69 1.57,1.55 0.74,1.14 -0.08,0.74 -0.17,0.72 -0.25,0.70 -0.34,0.66 -0.42,0.62 -0.48,0.56 -0.55,0.50 -0.61,0.43 -0.66,0.35 -0.69,0.27 -0.72,0.18 -0.74,0.09 -0.75,0.00 -0.74,-0.08 -0.73,-0.17 -0.70,-0.25 -0.66,-0.34 -0.61,-0.41 -0.56,-0.49 -0.50,-0.55 -0.43,-0.61 -0.35,-0.65 -0.27,-0.70 -0.18,-0.72 -0.09,-0.74 -0.00,-0.74 0.08,-0.74 0.08,-0.74 L 0.08,-0.74 Z"></path></g><g transform="translate(361.14307189004984 118.99998474121094) rotate(0 3.5 -0.3333282470703125)" stroke="none"><path fill="#f08c00" d="M -0.09,-1.16 Q -0.09,-1.16 1.04,-1.37 2.18,-1.57 4.38,-1.28 6.58,-0.99 6.69,-0.98 6.79,-0.96 6.88,-0.90 6.98,-0.85 7.05,-0.77 7.12,-0.69 7.16,-0.60 7.20,-0.50 7.21,-0.39 7.22,-0.29 7.19,-0.18 7.17,-0.08 7.11,0.00 7.06,0.09 6.97,0.16 6.89,0.22 6.79,0.26 6.69,0.30 6.59,0.30 6.48,0.30 6.38,0.27 6.28,0.24 6.19,0.18 6.10,0.12 6.04,0.03 5.98,-0.04 5.95,-0.15 5.92,-0.25 5.92,-0.35 5.92,-0.46 5.96,-0.56 5.99,-0.66 6.06,-0.74 6.13,-0.83 6.21,-0.88 6.30,-0.94 6.41,-0.97 6.51,-0.99 6.62,-0.98 6.72,-0.98 6.82,-0.93 6.92,-0.89 7.00,-0.82 7.08,-0.75 7.13,-0.66 7.18,-0.57 7.20,-0.46 7.22,-0.36 7.21,-0.25 7.19,-0.15 7.15,-0.05 7.10,0.03 7.03,0.11 6.95,0.18 6.86,0.23 6.76,0.28 6.66,0.29 6.55,0.31 6.55,0.31 6.55,0.31 4.48,0.75 2.41,1.19 1.25,1.18 0.09,1.16 -0.04,1.16 -0.18,1.15 -0.32,1.11 -0.45,1.07 -0.57,1.00 -0.70,0.93 -0.80,0.84 -0.90,0.74 -0.98,0.62 -1.05,0.50 -1.10,0.37 -1.14,0.23 -1.15,0.09 -1.17,-0.04 -1.14,-0.18 -1.12,-0.32 -1.07,-0.45 -1.01,-0.58 -0.93,-0.69 -0.84,-0.80 -0.73,-0.89 -0.62,-0.98 -0.50,-1.04 -0.37,-1.11 -0.23,-1.13 -0.09,-1.16 -0.09,-1.16 L -0.09,-1.16 Z"></path></g><g transform="translate(356.80972838419046 128.3333282470703) rotate(0 5.1666717529296875 -0.33333587646484375)" stroke="none"><path fill="#f08c00" d="M -0.16,-0.99 Q -0.16,-0.99 0.95,-1.33 2.08,-1.67 2.79,-1.75 3.51,-1.84 4.40,-1.79 5.30,-1.73 7.51,-1.34 9.73,-0.96 9.83,-0.94 9.94,-0.93 10.04,-0.89 10.13,-0.84 10.21,-0.77 10.29,-0.70 10.34,-0.60 10.38,-0.51 10.40,-0.40 10.42,-0.30 10.40,-0.19 10.38,-0.09 10.33,0.00 10.28,0.09 10.20,0.16 10.13,0.23 10.03,0.28 9.93,0.32 9.83,0.33 9.72,0.34 9.62,0.32 9.51,0.30 9.42,0.24 9.33,0.19 9.26,0.11 9.20,0.02 9.16,-0.06 9.12,-0.16 9.11,-0.27 9.11,-0.38 9.14,-0.48 9.17,-0.58 9.23,-0.67 9.29,-0.75 9.37,-0.82 9.46,-0.88 9.56,-0.92 9.66,-0.95 9.76,-0.95 9.87,-0.95 9.97,-0.91 10.07,-0.88 10.16,-0.81 10.24,-0.75 10.30,-0.66 10.36,-0.57 10.39,-0.47 10.41,-0.37 10.41,-0.26 10.40,-0.16 10.36,-0.06 10.32,0.03 10.25,0.11 10.18,0.19 10.09,0.25 10.00,0.30 9.90,0.32 9.79,0.35 9.79,0.35 9.79,0.35 7.44,0.62 5.09,0.89 4.45,0.82 3.81,0.75 3.16,0.83 2.51,0.90 1.34,0.95 0.16,0.99 0.04,1.00 -0.07,1.01 -0.19,0.98 -0.31,0.96 -0.42,0.91 -0.53,0.85 -0.63,0.78 -0.72,0.70 -0.80,0.60 -0.87,0.51 -0.92,0.39 -0.97,0.28 -0.99,0.16 -1.01,0.04 -1.00,-0.07 -0.99,-0.19 -0.95,-0.31 -0.91,-0.43 -0.85,-0.53 -0.78,-0.63 -0.70,-0.72 -0.61,-0.80 -0.50,-0.86 -0.40,-0.93 -0.28,-0.96 -0.16,-0.99 -0.16,-0.99 L -0.16,-0.99 Z"></path></g><g transform="translate(384.14307189004984 116.33332824707031) rotate(0 4.66668701171875 5.8333282470703125)" stroke="none"><path fill="#f08c00" d="M 0.82,0 Q 0.82,0 1.07,0.28 1.33,0.57 1.31,0.73 1.29,0.89 1.23,1.04 1.18,1.19 1.08,1.32 0.99,1.45 0.87,1.56 0.75,1.67 0.61,1.74 0.47,1.82 0.31,1.86 0.16,1.89 -0.00,1.89 -0.16,1.89 -0.31,1.86 -0.47,1.82 -0.61,1.74 -0.75,1.67 -0.87,1.56 -0.99,1.45 -1.08,1.32 -1.18,1.19 -1.23,1.04 -1.29,0.89 -1.31,0.73 -1.33,0.57 -0.40,-0.15 0.52,-0.88 1.18,-1.09 1.85,-1.30 2.95,-1.59 4.05,-1.88 4.90,-2.10 5.74,-2.32 6.88,-2.68 8.01,-3.05 8.66,-3.02 9.31,-3.00 9.89,-2.67 10.48,-2.35 10.77,-1.90 11.05,-1.44 11.08,-0.73 11.11,-0.02 10.98,1.10 10.86,2.23 10.51,3.46 10.16,4.69 9.84,6.18 9.52,7.68 9.17,8.94 8.83,10.21 7.79,11.88 6.75,13.55 6.70,13.64 6.64,13.73 6.56,13.80 6.48,13.87 6.38,13.90 6.28,13.94 6.17,13.95 6.07,13.95 5.96,13.92 5.86,13.89 5.77,13.83 5.69,13.77 5.62,13.69 5.56,13.60 5.53,13.50 5.50,13.40 5.50,13.29 5.50,13.19 5.53,13.09 5.57,12.99 5.63,12.90 5.70,12.82 5.79,12.76 5.88,12.70 5.98,12.67 6.08,12.65 6.19,12.65 6.29,12.66 6.39,12.70 6.49,12.74 6.57,12.81 6.65,12.88 6.70,12.97 6.76,13.06 6.78,13.17 6.80,13.27 6.79,13.38 6.77,13.48 6.73,13.58 6.68,13.67 6.61,13.75 6.54,13.83 6.44,13.88 6.35,13.92 6.24,13.94 6.14,13.96 6.03,13.94 5.93,13.92 5.83,13.87 5.74,13.82 5.67,13.74 5.60,13.66 5.55,13.56 5.51,13.47 5.50,13.36 5.49,13.26 5.51,13.15 5.54,13.05 5.54,13.05 5.54,13.05 5.84,11.26 6.14,9.48 6.47,8.28 6.79,7.09 7.13,5.50 7.48,3.91 7.79,2.85 8.11,1.79 8.21,1.20 8.30,0.61 8.48,0.09 8.66,-0.42 8.08,-0.27 7.51,-0.13 6.97,0.08 6.42,0.29 5.58,0.51 4.74,0.73 3.69,1.01 2.63,1.28 1.81,1.52 1.00,1.76 1.17,1.16 1.33,0.57 1.31,0.73 1.29,0.89 1.23,1.04 1.18,1.19 1.08,1.32 0.99,1.45 0.87,1.56 0.75,1.67 0.61,1.74 0.47,1.82 0.31,1.86 0.16,1.89 0.00,1.89 -0.16,1.89 -0.31,1.86 -0.47,1.82 -0.61,1.74 -0.75,1.67 -0.87,1.56 -0.99,1.45 -1.08,1.32 -1.18,1.19 -1.23,1.04 -1.29,0.89 -1.31,0.73 -1.33,0.57 -1.07,0.28 -0.82,0 -0.80,-0.09 -0.79,-0.19 -0.76,-0.28 -0.72,-0.38 -0.67,-0.46 -0.61,-0.54 -0.54,-0.61 -0.46,-0.67 -0.37,-0.72 -0.29,-0.76 -0.19,-0.79 -0.09,-0.81 0.00,-0.81 0.09,-0.81 0.19,-0.79 0.29,-0.76 0.37,-0.72 0.46,-0.67 0.54,-0.61 0.61,-0.54 0.67,-0.46 0.72,-0.38 0.76,-0.28 0.79,-0.19 0.80,-0.09 0.82,0.00 0.82,0.00 L 0.82,0 Z"></path></g></svg>