<svg version="1.1" xmlns="http://www.w3.org/2000/svg" viewBox="0 0 769.5081553602017 333.11601106045765" width="769.5081553602017" height="333.11601106045765" class="excalidraw-svg"><!-- svg-source:excalidraw --><metadata></metadata><defs><style class="style-fonts">
      </style></defs><rect x="0" y="0" width="769.5081553602017" height="333.11601106045765" fill="#ffffff"></rect><g stroke-linecap="round" transform="translate(114.66668701171875 111.55435847198589) rotate(0 42.333343505859375 34.66667175292969)"><path d="M17.33 0 C27.34 0.87, 39.95 1.53, 67.33 0 M17.33 0 C28.3 -0.89, 39.6 0.54, 67.33 0 M67.33 0 C76.99 -1.11, 84.94 5.38, 84.67 17.33 M67.33 0 C79.62 -0.87, 86.74 6.33, 84.67 17.33 M84.67 17.33 C85.01 31.22, 83 41.84, 84.67 52 M84.67 17.33 C85.78 27.22, 84.8 38.34, 84.67 52 M84.67 52 C85.29 64.54, 77.59 70.56, 67.33 69.33 M84.67 52 C82.55 64.81, 77.68 68.7, 67.33 69.33 M67.33 69.33 C48.15 68.75, 30.72 68.74, 17.33 69.33 M67.33 69.33 C49.22 68.7, 31.1 69.51, 17.33 69.33 M17.33 69.33 C5.49 70.18, -0.81 64.67, 0 52 M17.33 69.33 C4.56 69.17, -2.22 62.77, 0 52 M0 52 C0.89 43.65, -0.73 35.12, 0 17.33 M0 52 C0.22 44.48, 0.55 37.45, 0 17.33 M0 17.33 C-1.88 5.95, 4.6 1.94, 17.33 0 M0 17.33 C0.37 6.05, 6.55 2.16, 17.33 0" stroke="#1e1e1e" stroke-width="2" fill="none"></path></g><g stroke-linecap="round" transform="translate(542.6666870117188 113.55435847198589) rotate(0 50.66668701171875 43.66667175292969)"><path d="M21.83 0 C36.25 -0.51, 53.04 -1.16, 79.5 0 M21.83 0 C41.85 0.31, 62.15 -0.32, 79.5 0 M79.5 0 C92.12 -0.68, 100.61 8.02, 101.33 21.83 M79.5 0 C95.47 1.17, 102.25 6.59, 101.33 21.83 M101.33 21.83 C102.34 38.3, 100.42 55.15, 101.33 65.5 M101.33 21.83 C100.34 35.82, 101.08 47.97, 101.33 65.5 M101.33 65.5 C102 81.94, 93.03 85.59, 79.5 87.33 M101.33 65.5 C103.31 80.01, 92.95 89.07, 79.5 87.33 M79.5 87.33 C64.72 89.22, 49.67 86.91, 21.83 87.33 M79.5 87.33 C62.08 86.83, 43.78 86.95, 21.83 87.33 M21.83 87.33 C5.51 86.39, -0.78 80.96, 0 65.5 M21.83 87.33 C8.83 87.77, -0.18 80.59, 0 65.5 M0 65.5 C1.78 50.58, -1.42 34.03, 0 21.83 M0 65.5 C-0.64 55.46, 0.81 45.71, 0 21.83 M0 21.83 C0.64 6.75, 7.92 0.82, 21.83 0 M0 21.83 C-0.64 8.44, 6.3 -1.54, 21.83 0" stroke="#1e1e1e" stroke-width="2" fill="none"></path></g><g stroke-linecap="round"><g transform="translate(368 10.221014966126518) rotate(0 -1.666656494140625 156.33334350585938)"><path d="M-0.47 0.54 C-0.71 52.78, -2.03 260.83, -2.52 312.89 M1.49 -0.22 C1.25 51.69, -2.09 258.45, -3.05 310.89" stroke="#f08c00" stroke-width="2" fill="none"></path></g></g><mask></mask><g transform="translate(10 126.88770197784527) rotate(0 7.6666717529296875 2.666656494140625)" stroke="none"><path fill="#1e1e1e" d="M -0.54,-0.54 Q -0.54,-0.54 -0.18,-1.35 0.18,-2.16 1.76,-2.93 3.35,-3.70 4.46,-4.32 5.57,-4.95 6.78,-5.77 7.99,-6.59 9.04,-7.49 10.09,-8.38 10.76,-8.96 11.42,-9.55 12.52,-9.91 13.63,-10.27 14.67,-9.66 15.71,-9.06 15.91,-7.65 16.11,-6.25 15.71,-4.65 15.31,-3.04 14.97,-1.33 14.63,0.36 14.09,2.66 13.56,4.96 13.14,7.06 12.73,9.15 12.02,11.74 11.31,14.33 11.29,14.43 11.28,14.54 11.23,14.63 11.19,14.73 11.11,14.80 11.04,14.88 10.94,14.92 10.85,14.97 10.74,14.99 10.64,15.00 10.53,14.98 10.43,14.96 10.33,14.91 10.24,14.86 10.17,14.78 10.10,14.70 10.06,14.60 10.02,14.50 10.01,14.40 10.00,14.29 10.02,14.19 10.05,14.09 10.11,14.00 10.16,13.91 10.25,13.84 10.33,13.77 10.43,13.74 10.53,13.70 10.63,13.70 10.74,13.69 10.84,13.72 10.94,13.76 11.03,13.82 11.12,13.88 11.18,13.97 11.24,14.05 11.27,14.15 11.30,14.25 11.30,14.36 11.30,14.47 11.26,14.57 11.22,14.67 11.16,14.75 11.09,14.83 11.00,14.89 10.91,14.95 10.81,14.97 10.71,15.00 10.60,14.99 10.50,14.98 10.40,14.94 10.30,14.90 10.22,14.83 10.14,14.76 10.09,14.66 10.04,14.57 10.02,14.47 10.00,14.36 10.00,14.36 10.00,14.36 9.91,11.47 9.83,8.58 10.25,6.43 10.68,4.29 11.21,2.04 11.73,-0.21 12.10,-2.01 12.47,-3.80 12.82,-5.03 13.18,-6.25 13.23,-6.81 13.27,-7.36 12.61,-6.77 11.95,-6.18 10.77,-5.19 9.60,-4.21 8.28,-3.33 6.96,-2.45 5.74,-1.78 4.52,-1.10 3.31,-0.62 2.11,-0.13 1.33,0.20 0.54,0.54 0.47,0.60 0.39,0.65 0.31,0.69 0.22,0.73 0.13,0.75 0.04,0.76 -0.04,0.76 -0.13,0.75 -0.22,0.72 -0.31,0.70 -0.39,0.65 -0.47,0.60 -0.53,0.53 -0.60,0.47 -0.65,0.39 -0.70,0.31 -0.72,0.22 -0.75,0.13 -0.76,0.04 -0.76,-0.04 -0.75,-0.13 -0.73,-0.22 -0.69,-0.31 -0.65,-0.39 -0.60,-0.47 -0.54,-0.54 -0.54,-0.54 L -0.54,-0.54 Z"></path></g><g transform="translate(290.00006103515625 108.88767146026714) rotate(0 -3.666656494140625 7)" stroke="none"><path fill="#1e1e1e" d="M 0.22,0.68 Q 0.22,0.68 -0.26,1.12 -0.75,1.57 -1.71,1.90 -2.66,2.23 -3.48,2.51 -4.30,2.80 -5.00,3.55 -5.71,4.31 -6.63,5.40 -7.55,6.50 -7.88,7.04 -8.22,7.58 -8.13,9.64 -8.04,11.70 -7.18,13.19 -6.32,14.67 -5.47,15.19 -4.63,15.72 -3.81,15.46 -2.98,15.20 -2.17,13.94 -1.35,12.68 -0.77,11.25 -0.19,9.82 0.05,8.51 0.29,7.20 0.40,6.25 0.51,5.30 0.77,4.24 1.02,3.18 0.92,2.38 0.82,1.59 0.78,0.77 0.74,-0.04 0.40,-0.73 0.06,-1.42 -0.47,-1.70 -1.02,-1.97 -2.14,-1.24 -3.27,-0.51 -3.35,-0.44 -3.43,-0.37 -3.53,-0.33 -3.63,-0.29 -3.73,-0.28 -3.84,-0.28 -3.94,-0.30 -4.04,-0.33 -4.13,-0.39 -4.22,-0.45 -4.28,-0.53 -4.35,-0.62 -4.38,-0.72 -4.42,-0.82 -4.42,-0.92 -4.42,-1.03 -4.39,-1.13 -4.35,-1.23 -4.29,-1.32 -4.23,-1.40 -4.14,-1.46 -4.05,-1.52 -3.95,-1.55 -3.85,-1.58 -3.74,-1.58 -3.64,-1.57 -3.54,-1.53 -3.44,-1.49 -3.36,-1.43 -3.27,-1.36 -3.22,-1.27 -3.16,-1.18 -3.14,-1.07 -3.12,-0.97 -3.13,-0.86 -3.14,-0.76 -3.18,-0.66 -3.22,-0.56 -3.30,-0.49 -3.37,-0.41 -3.46,-0.36 -3.56,-0.31 -3.66,-0.29 -3.77,-0.27 -3.87,-0.29 -3.98,-0.31 -4.07,-0.35 -4.16,-0.40 -4.24,-0.48 -4.31,-0.56 -4.36,-0.65 -4.40,-0.75 -4.41,-0.85 -4.43,-0.96 -4.41,-1.06 -4.38,-1.17 -4.33,-1.26 -4.28,-1.35 -4.28,-1.35 -4.28,-1.35 -2.71,-2.93 -1.15,-4.52 -0.12,-4.33 0.89,-4.15 1.67,-3.33 2.44,-2.52 2.90,-1.37 3.36,-0.23 3.40,0.56 3.44,1.36 3.51,2.56 3.58,3.76 3.35,4.69 3.12,5.62 2.99,6.66 2.86,7.70 2.54,9.27 2.22,10.83 1.47,12.54 0.73,14.26 -0.67,15.90 -2.08,17.53 -3.80,17.78 -5.51,18.03 -7.02,17.04 -8.53,16.04 -9.60,13.96 -10.67,11.87 -10.61,9.14 -10.56,6.41 -10.07,5.59 -9.59,4.78 -8.57,3.58 -7.56,2.39 -6.42,1.36 -5.27,0.34 -4.46,0.05 -3.65,-0.23 -2.59,-0.52 -1.54,-0.81 -0.88,-0.74 -0.22,-0.68 -0.14,-0.69 -0.05,-0.71 0.02,-0.71 0.11,-0.70 0.19,-0.68 0.28,-0.66 0.35,-0.61 0.43,-0.57 0.49,-0.51 0.55,-0.45 0.60,-0.38 0.64,-0.30 0.67,-0.22 0.70,-0.14 0.71,-0.05 0.71,0.02 0.70,0.11 0.68,0.20 0.65,0.27 0.62,0.35 0.56,0.42 0.51,0.49 0.45,0.55 0.38,0.60 0.30,0.64 0.22,0.68 0.22,0.68 L 0.22,0.68 Z"></path></g><g transform="translate(149.3333740234375 142.22101496612652) rotate(0 6.66668701171875 2.3333282470703125)" stroke="none"><path fill="#1e1e1e" d="M -0.44,-0.59 Q -0.44,-0.59 0.17,-1.36 0.79,-2.13 1.70,-2.78 2.62,-3.43 3.58,-4.08 4.54,-4.74 5.36,-5.24 6.19,-5.73 7.40,-6.18 8.61,-6.63 9.77,-6.82 10.93,-7.02 11.95,-6.91 12.96,-6.79 13.94,-6.27 14.92,-5.75 15.08,-5.21 15.24,-4.68 15.04,-3.88 14.84,-3.08 14.33,-2.15 13.82,-1.21 13.27,0.02 12.72,1.27 12.31,2.53 11.90,3.79 11.53,5.09 11.16,6.39 10.59,8.31 10.03,10.22 10.00,10.33 9.97,10.43 9.92,10.52 9.86,10.61 9.77,10.67 9.69,10.74 9.59,10.78 9.49,10.81 9.39,10.82 9.28,10.82 9.18,10.79 9.08,10.75 8.99,10.69 8.90,10.63 8.84,10.54 8.78,10.46 8.75,10.35 8.72,10.25 8.72,10.15 8.73,10.04 8.76,9.94 8.80,9.84 8.87,9.76 8.94,9.68 9.03,9.62 9.11,9.56 9.22,9.54 9.32,9.51 9.43,9.52 9.53,9.53 9.63,9.57 9.73,9.62 9.81,9.69 9.89,9.76 9.94,9.85 9.99,9.94 10.01,10.05 10.03,10.15 10.01,10.26 10.00,10.36 9.95,10.46 9.90,10.55 9.83,10.63 9.75,10.70 9.66,10.75 9.56,10.80 9.46,10.81 9.35,10.82 9.25,10.80 9.14,10.78 9.05,10.73 8.96,10.68 8.89,10.60 8.82,10.52 8.77,10.42 8.73,10.32 8.73,10.22 8.72,10.11 8.72,10.11 8.72,10.11 8.67,7.89 8.61,5.67 9.00,4.32 9.39,2.96 9.85,1.58 10.31,0.20 10.91,-1.15 11.52,-2.51 12.05,-3.37 12.59,-4.23 11.94,-4.35 11.30,-4.48 10.38,-4.34 9.46,-4.21 8.46,-3.88 7.47,-3.55 6.71,-3.10 5.95,-2.66 5.00,-2.02 4.04,-1.37 3.16,-0.77 2.27,-0.16 1.35,0.21 0.44,0.59 0.36,0.63 0.29,0.68 0.20,0.70 0.11,0.73 0.02,0.73 -0.06,0.73 -0.14,0.72 -0.23,0.70 -0.31,0.66 -0.39,0.62 -0.46,0.56 -0.53,0.51 -0.58,0.44 -0.64,0.37 -0.67,0.28 -0.71,0.20 -0.72,0.11 -0.74,0.02 -0.73,-0.05 -0.72,-0.14 -0.69,-0.23 -0.66,-0.31 -0.62,-0.39 -0.57,-0.46 -0.50,-0.53 -0.44,-0.59 -0.44,-0.59 L -0.44,-0.59 Z"></path></g><g transform="translate(584.666748046875 151.55432795440777) rotate(0 7 4.0000152587890625)" stroke="none"><path fill="#1e1e1e" d="M -0.33,-0.67 Q -0.33,-0.67 1.08,-1.65 2.51,-2.64 3.40,-2.99 4.30,-3.34 4.75,-3.63 5.20,-3.92 6.39,-4.64 7.58,-5.37 8.58,-5.73 9.59,-6.09 10.21,-6.53 10.83,-6.98 12.03,-7.20 13.23,-7.41 13.94,-6.64 14.64,-5.87 14.46,-4.89 14.27,-3.91 13.97,-3.05 13.68,-2.19 13.14,-1.00 12.61,0.18 12.22,1.21 11.82,2.24 11.48,3.40 11.13,4.57 11.00,6.30 10.87,8.02 10.43,11.02 10.00,14.02 9.98,14.13 9.96,14.23 9.91,14.32 9.86,14.42 9.78,14.49 9.70,14.56 9.60,14.60 9.50,14.64 9.40,14.65 9.29,14.66 9.19,14.63 9.09,14.61 9.00,14.55 8.91,14.49 8.84,14.41 8.77,14.33 8.74,14.23 8.70,14.13 8.70,14.02 8.70,13.92 8.73,13.82 8.76,13.71 8.82,13.63 8.88,13.54 8.97,13.48 9.05,13.42 9.16,13.39 9.26,13.35 9.36,13.36 9.47,13.36 9.57,13.40 9.67,13.43 9.75,13.50 9.83,13.57 9.89,13.66 9.95,13.75 9.97,13.85 10.00,13.95 9.99,14.06 9.98,14.16 9.94,14.26 9.90,14.36 9.83,14.44 9.76,14.52 9.66,14.57 9.57,14.62 9.47,14.64 9.36,14.66 9.26,14.65 9.15,14.63 9.06,14.59 8.96,14.54 8.89,14.46 8.81,14.39 8.77,14.29 8.72,14.20 8.70,14.09 8.69,13.99 8.69,13.99 8.69,13.99 8.47,10.90 8.25,7.80 8.43,5.81 8.61,3.82 8.99,2.56 9.37,1.29 9.80,0.20 10.22,-0.88 10.71,-1.96 11.20,-3.04 11.72,-3.94 12.24,-4.83 11.34,-4.25 10.44,-3.67 9.66,-3.42 8.89,-3.17 7.69,-2.47 6.49,-1.76 5.85,-1.39 5.20,-1.02 4.41,-0.72 3.62,-0.42 1.97,0.12 0.33,0.67 0.25,0.70 0.16,0.73 0.07,0.74 -0.01,0.75 -0.10,0.74 -0.19,0.73 -0.28,0.69 -0.36,0.66 -0.43,0.61 -0.51,0.55 -0.57,0.48 -0.63,0.41 -0.67,0.33 -0.71,0.25 -0.73,0.16 -0.75,0.07 -0.75,-0.01 -0.75,-0.10 -0.72,-0.19 -0.70,-0.28 -0.65,-0.36 -0.61,-0.44 -0.55,-0.51 -0.49,-0.57 -0.41,-0.62 -0.33,-0.67 -0.33,-0.67 L -0.33,-0.67 Z"></path></g><g transform="translate(472.00006103515625 126.88767146026714) rotate(0 -2 9)" stroke="none"><path fill="#1e1e1e" d="M 0.17,0.69 Q 0.17,0.69 -0.57,0.97 -1.31,1.25 -2.06,1.79 -2.81,2.33 -3.29,2.85 -3.78,3.37 -4.30,4.25 -4.82,5.13 -5.43,6.26 -6.05,7.40 -6.07,9.02 -6.08,10.65 -5.94,11.49 -5.80,12.33 -4.67,13.88 -3.54,15.42 -2.81,16.24 -2.08,17.06 -1.06,16.21 -0.04,15.37 0.36,13.98 0.77,12.58 1.37,10.94 1.97,9.30 2.19,7.95 2.41,6.61 2.30,5.56 2.19,4.51 1.97,3.53 1.75,2.54 1.33,1.88 0.92,1.21 0.57,0.73 0.22,0.25 -0.50,0.88 -1.22,1.51 -1.26,1.44 -1.30,1.37 -1.32,1.29 -1.34,1.22 -1.34,1.14 -1.35,1.06 -1.33,0.98 -1.31,0.90 -1.27,0.83 -1.24,0.76 -1.19,0.70 -1.14,0.64 -1.07,0.60 -1.01,0.55 -0.93,0.52 -0.86,0.49 -0.78,0.48 -0.70,0.47 -0.63,0.48 -0.55,0.48 -0.47,0.51 -0.40,0.54 -0.33,0.58 -0.27,0.62 -0.21,0.68 -0.16,0.74 -0.10,0.99 -0.05,1.24 -0.08,1.34 -0.12,1.44 -0.18,1.52 -0.25,1.61 -0.34,1.67 -0.43,1.72 -0.53,1.75 -0.63,1.78 -0.74,1.77 -0.84,1.76 -0.94,1.72 -1.04,1.68 -1.12,1.61 -1.20,1.54 -1.25,1.45 -1.31,1.36 -1.33,1.25 -1.35,1.15 -1.33,1.04 -1.32,0.94 -1.28,0.84 -1.23,0.75 -1.16,0.67 -1.08,0.60 -0.99,0.55 -0.89,0.50 -0.79,0.48 -0.68,0.47 -0.58,0.49 -0.47,0.51 -0.38,0.56 -0.29,0.61 -0.21,0.69 -0.14,0.76 -0.10,0.86 -0.06,0.96 -0.05,1.06 -0.04,1.17 -0.06,1.27 -0.09,1.38 -0.14,1.47 -0.20,1.56 -0.28,1.63 -0.36,1.69 -0.46,1.73 -0.56,1.77 -0.67,1.77 -0.77,1.78 -0.88,1.75 -0.98,1.72 -1.06,1.65 -1.15,1.59 -1.21,1.51 -1.28,1.42 -1.31,1.32 -1.34,1.22 -1.28,1.36 -1.22,1.51 -1.26,1.44 -1.30,1.37 -1.32,1.29 -1.34,1.22 -1.34,1.14 -1.35,1.06 -1.33,0.98 -1.31,0.90 -1.27,0.83 -1.24,0.76 -1.19,0.70 -1.14,0.64 -1.07,0.60 -1.01,0.55 -0.93,0.52 -0.86,0.49 -0.78,0.48 -0.70,0.47 -0.63,0.48 -0.55,0.48 -0.47,0.51 -0.40,0.54 -0.33,0.58 -0.27,0.62 -0.21,0.68 -0.16,0.74 1.05,-0.27 2.28,-1.29 2.72,-0.67 3.16,-0.05 3.70,0.96 4.24,1.98 4.47,3.16 4.71,4.34 4.76,5.68 4.82,7.02 4.52,8.58 4.23,10.14 3.61,11.74 2.99,13.34 2.35,15.05 1.71,16.77 0.63,17.86 -0.43,18.95 -1.84,18.89 -3.24,18.83 -4.31,17.77 -5.38,16.71 -6.69,14.74 -7.99,12.78 -8.17,11.67 -8.34,10.56 -8.20,8.49 -8.06,6.43 -7.40,5.19 -6.74,3.96 -6.06,2.88 -5.38,1.79 -4.56,1.04 -3.74,0.28 -3.28,-0.03 -2.82,-0.35 -2.29,-0.42 -1.75,-0.49 -0.96,-0.59 -0.17,-0.69 -0.08,-0.70 -0.00,-0.71 0.08,-0.70 0.16,-0.69 0.25,-0.66 0.33,-0.63 0.40,-0.58 0.47,-0.54 0.53,-0.47 0.59,-0.41 0.63,-0.33 0.67,-0.25 0.69,-0.17 0.71,-0.08 0.71,-0.00 0.71,0.08 0.69,0.16 0.67,0.25 0.63,0.32 0.59,0.40 0.53,0.47 0.47,0.53 0.40,0.58 0.33,0.63 0.25,0.66 0.17,0.69 0.17,0.69 L 0.17,0.69 Z"></path></g><g transform="translate(734.666748046875 130.22101496612652) rotate(0 7.66668701171875 2.33331298828125)" stroke="none"><path fill="#1e1e1e" d="M 0.38,-0.63 Q 0.38,-0.63 1.50,-0.33 2.62,-0.03 3.12,0.15 3.62,0.34 4.27,0.39 4.92,0.43 5.44,0.29 5.96,0.14 6.54,-0.07 7.12,-0.29 7.80,-0.87 8.49,-1.45 9.20,-2.10 9.92,-2.74 10.61,-3.40 11.29,-4.06 12.12,-4.62 12.96,-5.19 14.13,-5.10 15.30,-5.01 15.81,-4.24 16.33,-3.47 16.06,-2.34 15.79,-1.20 15.48,-0.34 15.18,0.51 15.07,1.15 14.97,1.80 14.69,2.62 14.41,3.44 14.01,4.46 13.61,5.48 13.30,5.99 13.00,6.50 11.89,7.86 10.79,9.22 10.72,9.30 10.66,9.39 10.57,9.45 10.49,9.51 10.39,9.54 10.28,9.57 10.18,9.57 10.07,9.57 9.97,9.53 9.87,9.49 9.79,9.42 9.71,9.36 9.65,9.27 9.59,9.18 9.57,9.07 9.54,8.97 9.55,8.87 9.56,8.76 9.61,8.66 9.65,8.56 9.72,8.49 9.79,8.41 9.88,8.36 9.98,8.30 10.08,8.29 10.19,8.27 10.29,8.28 10.40,8.30 10.49,8.34 10.59,8.39 10.66,8.47 10.74,8.54 10.78,8.64 10.83,8.73 10.84,8.84 10.86,8.94 10.84,9.05 10.81,9.15 10.76,9.25 10.71,9.34 10.63,9.41 10.55,9.48 10.45,9.52 10.35,9.56 10.25,9.57 10.14,9.58 10.04,9.55 9.94,9.52 9.85,9.47 9.76,9.41 9.69,9.32 9.63,9.24 9.59,9.14 9.55,9.04 9.55,8.94 9.55,8.83 9.58,8.73 9.61,8.63 9.61,8.63 9.61,8.63 10.07,6.91 10.52,5.19 10.96,4.40 11.40,3.60 11.52,3.03 11.65,2.46 11.87,1.87 12.09,1.28 12.25,0.40 12.42,-0.46 12.75,-1.38 13.08,-2.30 13.71,-2.51 14.35,-2.73 13.82,-2.34 13.28,-1.95 12.56,-1.27 11.84,-0.59 11.05,0.10 10.26,0.80 9.20,1.59 8.15,2.38 7.33,2.66 6.52,2.95 5.57,3.10 4.62,3.25 3.61,3.09 2.60,2.93 1.90,2.63 1.21,2.33 0.41,1.48 -0.38,0.63 -0.45,0.58 -0.52,0.52 -0.58,0.45 -0.63,0.38 -0.67,0.30 -0.71,0.22 -0.72,0.13 -0.74,0.04 -0.73,-0.04 -0.73,-0.13 -0.70,-0.21 -0.68,-0.30 -0.63,-0.38 -0.58,-0.45 -0.52,-0.52 -0.46,-0.58 -0.38,-0.63 -0.30,-0.67 -0.22,-0.70 -0.13,-0.73 -0.04,-0.73 0.04,-0.74 0.13,-0.72 0.21,-0.71 0.30,-0.67 0.38,-0.63 0.38,-0.63 L 0.38,-0.63 Z"></path></g><g stroke-linecap="round"><g transform="translate(20.666717529296875 148.88767146026714) rotate(0 45.33332824707031 0.3333282470703125)"><path d="M0.8 -0.84 C15.99 -0.8, 75.71 -0.81, 90.71 -0.4 M-0.23 1.33 C14.84 1.54, 74.73 0.83, 89.78 0.58" stroke="#1e1e1e" stroke-width="0.5" fill="none"></path></g></g><mask></mask><g stroke-linecap="round"><g transform="translate(217.38338187039477 148.3105713058829) rotate(0 41.26354615371349 1.6666717529296875)"><path d="M-0.09 -0.68 C13.59 -0.09, 68.69 1.73, 82.35 2.47 M-1.6 1.58 C11.89 2.38, 67.58 3.54, 81.31 3.55" stroke="#1e1e1e" stroke-width="0.5" fill="none"></path></g></g><mask></mask><g stroke-linecap="round"><g transform="translate(457.33331298828125 161.55438898956402) rotate(0 41.666656494140625 -0.6666717529296875)"><path d="M-0.17 -0.42 C13.8 -0.65, 69.85 -1.08, 83.92 -1.35 M-1.72 -1.68 C12.14 -1.71, 69 0.08, 83.28 0.17" stroke="#1e1e1e" stroke-width="0.5" fill="none"></path></g></g><mask></mask><g stroke-linecap="round"><g transform="translate(663.2167589213499 159.52029003844962) rotate(0 48.11630441553888 1.487281542200094)"><path d="M0.13 0.28 C16.23 0.92, 80.25 3.56, 96.29 3.91 M-1.26 -0.61 C14.71 -0.31, 79.22 1.61, 95.37 2.28" stroke="#1e1e1e" stroke-width="0.5" fill="none"></path></g></g><mask></mask><g stroke-linecap="round" transform="translate(200.7431993021108 139.85000089516817) rotate(0 8.512274700117558 8.67918714078671)"><path d="M8.73 -0.13 C10.51 -0.11, 13.46 1.31, 14.75 2.59 C16.05 3.87, 16.34 5.78, 16.48 7.54 C16.62 9.3, 16.45 11.5, 15.59 13.15 C14.74 14.79, 13.13 16.9, 11.36 17.41 C9.59 17.92, 6.75 16.99, 4.99 16.19 C3.22 15.4, 1.52 14.15, 0.77 12.61 C0.02 11.08, 0.01 8.83, 0.5 6.99 C0.98 5.14, 2.18 2.67, 3.69 1.54 C5.2 0.41, 8.45 0.49, 9.56 0.2 C10.66 -0.09, 10.37 -0.34, 10.32 -0.21 M8.8 -0.33 C10.35 -0.54, 12.13 0.47, 13.39 1.7 C14.64 2.93, 15.92 5.06, 16.35 7.05 C16.78 9.03, 16.68 11.97, 15.95 13.64 C15.22 15.3, 13.57 16.44, 11.94 17.03 C10.32 17.62, 7.88 17.76, 6.2 17.19 C4.52 16.62, 2.91 15.17, 1.86 13.6 C0.8 12.02, -0.26 9.58, -0.11 7.74 C0.05 5.9, 1.25 3.73, 2.8 2.53 C4.35 1.33, 8.13 1, 9.19 0.54 C10.25 0.08, 9.32 -0.19, 9.15 -0.25" stroke="#1e1e1e" stroke-width="0.5" fill="none"></path></g><g stroke-linecap="round" transform="translate(645.7182043947084 151.199725963365) rotate(0 8.34536225944845 6.509386535384024)"><path d="M7.42 0.44 C9.22 0.24, 11.73 0.45, 13.29 1.19 C14.84 1.93, 16.22 3.5, 16.76 4.88 C17.29 6.26, 17.3 8.18, 16.5 9.48 C15.7 10.79, 13.65 12.1, 11.94 12.72 C10.23 13.34, 7.89 13.52, 6.25 13.19 C4.61 12.87, 3.06 11.99, 2.09 10.76 C1.12 9.54, 0.43 7.39, 0.42 5.86 C0.41 4.33, 0.87 2.57, 2.05 1.59 C3.24 0.61, 6.51 0.26, 7.53 -0.01 C8.54 -0.29, 8.21 -0.14, 8.14 -0.08 M9.99 -0.51 C11.67 -0.18, 13.4 1.68, 14.42 2.98 C15.44 4.28, 16.15 5.97, 16.13 7.31 C16.1 8.65, 15.21 9.98, 14.24 11.03 C13.28 12.08, 11.97 13.46, 10.32 13.6 C8.67 13.75, 6.08 12.66, 4.36 11.92 C2.64 11.18, 0.77 10.45, 0.02 9.16 C-0.73 7.87, -0.94 5.6, -0.13 4.2 C0.67 2.8, 3.27 1.37, 4.85 0.75 C6.43 0.14, 8.6 0.7, 9.33 0.5 C10.06 0.31, 9.12 -0.49, 9.22 -0.42" stroke="#1e1e1e" stroke-width="0.5" fill="none"></path></g></svg>